M48
; DRILL file {KiCad 9.0.7} date 2026-04-05T23:10:05-0700
; FORMAT={-:-/ absolute / metric / decimal}
; #@! TF.CreationDate,2026-04-05T23:10:05-07:00
; #@! TF.GenerationSoftware,Kicad,Pcbnew,9.0.7
; #@! TF.FileFunction,Plated,1,2,PTH
FMAT,2
METRIC
; #@! TA.AperFunction,Plated,PTH,ComponentDrill
T1C0.800
; #@! TA.AperFunction,Plated,PTH,ComponentDrill
T2C0.900
; #@! TA.AperFunction,Plated,PTH,ComponentDrill
T3C1.100
; #@! TA.AperFunction,Plated,PTH,ComponentDrill
T4C1.400
; #@! TA.AperFunction,Plated,PTH,ComponentDrill
T5C1.900
%
G90
G05
T1
X120.645Y-122.428
X120.645Y-132.588
X131.313Y-122.428
X131.313Y-132.588
X135.636Y-122.428
X135.636Y-132.588
X146.304Y-122.428
X146.304Y-132.588
X150.368Y-122.428
X150.368Y-132.588
X161.036Y-122.428
X161.036Y-132.588
T2
X124.709Y-127.508
X127.249Y-127.508
X139.67Y-127.508
X142.21Y-127.508
X154.372Y-127.508
X156.912Y-127.508
T3
X123.734Y-139.498
X123.734Y-145.998
X128.234Y-139.498
X128.234Y-145.998
X138.466Y-139.498
X138.466Y-145.998
X142.966Y-139.498
X142.966Y-145.998
X153.706Y-140.006
X153.706Y-146.506
X158.206Y-140.006
X158.206Y-146.506
T4
X122.297Y-108.51
X122.297Y-114.01
X126.497Y-108.51
X126.497Y-114.01
X130.697Y-108.51
X130.697Y-114.01
X153.332Y-108.414
X153.332Y-113.914
X157.532Y-108.414
X157.532Y-113.914
T5
X141.224Y-112.268
M30
