%TF.GenerationSoftware,KiCad,Pcbnew,9.0.7*%
%TF.CreationDate,2026-04-05T23:09:45-07:00*%
%TF.ProjectId,Hi_board_bbc1,48695f62-6f61-4726-945f-626263312e6b,rev?*%
%TF.SameCoordinates,Original*%
%TF.FileFunction,Copper,L1,Top*%
%TF.FilePolarity,Positive*%
%FSLAX46Y46*%
G04 Gerber Fmt 4.6, Leading zero omitted, Abs format (unit mm)*
G04 Created by KiCad (PCBNEW 9.0.7) date 2026-04-05 23:09:45*
%MOMM*%
%LPD*%
G01*
G04 APERTURE LIST*
G04 Aperture macros list*
%AMRoundRect*
0 Rectangle with rounded corners*
0 $1 Rounding radius*
0 $2 $3 $4 $5 $6 $7 $8 $9 X,Y pos of 4 corners*
0 Add a 4 corners polygon primitive as box body*
4,1,4,$2,$3,$4,$5,$6,$7,$8,$9,$2,$3,0*
0 Add four circle primitives for the rounded corners*
1,1,$1+$1,$2,$3*
1,1,$1+$1,$4,$5*
1,1,$1+$1,$6,$7*
1,1,$1+$1,$8,$9*
0 Add four rect primitives between the rounded corners*
20,1,$1+$1,$2,$3,$4,$5,0*
20,1,$1+$1,$4,$5,$6,$7,0*
20,1,$1+$1,$6,$7,$8,$9,0*
20,1,$1+$1,$8,$9,$2,$3,0*%
G04 Aperture macros list end*
%TA.AperFunction,ComponentPad*%
%ADD10C,1.600000*%
%TD*%
%TA.AperFunction,ComponentPad*%
%ADD11C,2.000000*%
%TD*%
%TA.AperFunction,ComponentPad*%
%ADD12C,3.000000*%
%TD*%
%TA.AperFunction,ComponentPad*%
%ADD13R,1.800000X1.800000*%
%TD*%
%TA.AperFunction,ComponentPad*%
%ADD14C,1.800000*%
%TD*%
%TA.AperFunction,ComponentPad*%
%ADD15RoundRect,0.250001X1.099999X1.399999X-1.099999X1.399999X-1.099999X-1.399999X1.099999X-1.399999X0*%
%TD*%
%TA.AperFunction,ComponentPad*%
%ADD16O,2.700000X3.300000*%
%TD*%
%TA.AperFunction,Conductor*%
%ADD17C,0.800000*%
%TD*%
G04 APERTURE END LIST*
D10*
%TO.P,R5,1*%
%TO.N,Net-(R5-Pad1)*%
X150368000Y-132588000D03*
%TO.P,R5,2*%
%TO.N,Net-(D3-A)*%
X150368000Y-122428000D03*
%TD*%
D11*
%TO.P,SW2,1,1*%
%TO.N,IMD_RESET*%
X138466000Y-145998000D03*
X138466000Y-139498000D03*
%TO.P,SW2,2,2*%
%TO.N,Net-(J1-Pin_2)*%
X142966000Y-145998000D03*
X142966000Y-139498000D03*
%TD*%
D10*
%TO.P,R4,1*%
%TO.N,IMD_LED*%
X146304000Y-132588000D03*
%TO.P,R4,2*%
%TO.N,Net-(R3-Pad1)*%
X146304000Y-122428000D03*
%TD*%
%TO.P,R1,1*%
%TO.N,Net-(R1-Pad1)*%
X120645000Y-122428000D03*
%TO.P,R1,2*%
%TO.N,Net-(D1-A)*%
X120645000Y-132588000D03*
%TD*%
D12*
%TO.P,J3,1,GND*%
%TO.N,0*%
X141224000Y-112268000D03*
%TD*%
D11*
%TO.P,SW1,1,1*%
%TO.N,BSPD_RESET*%
X123734000Y-145998000D03*
X123734000Y-139498000D03*
%TO.P,SW1,2,2*%
%TO.N,+12V*%
X128234000Y-145998000D03*
X128234000Y-139498000D03*
%TD*%
D10*
%TO.P,R2,1*%
%TO.N,BSPD_LED*%
X131313000Y-132588000D03*
%TO.P,R2,2*%
%TO.N,Net-(R1-Pad1)*%
X131313000Y-122428000D03*
%TD*%
D13*
%TO.P,D2,1,K*%
%TO.N,0*%
X139670000Y-127508000D03*
D14*
%TO.P,D2,2,A*%
%TO.N,Net-(D2-A)*%
X142210000Y-127508000D03*
%TD*%
D10*
%TO.P,R6,1*%
%TO.N,BMS_LED*%
X161036000Y-122428000D03*
%TO.P,R6,2*%
%TO.N,Net-(R5-Pad1)*%
X161036000Y-132588000D03*
%TD*%
D11*
%TO.P,SW3,1,1*%
%TO.N,BMS_RESET*%
X153706000Y-146506000D03*
X153706000Y-140006000D03*
%TO.P,SW3,2,2*%
%TO.N,+12V*%
X158206000Y-146506000D03*
X158206000Y-140006000D03*
%TD*%
D13*
%TO.P,D3,1,K*%
%TO.N,0*%
X154372000Y-127508000D03*
D14*
%TO.P,D3,2,A*%
%TO.N,Net-(D3-A)*%
X156912000Y-127508000D03*
%TD*%
D13*
%TO.P,D1,1,K*%
%TO.N,0*%
X124709000Y-127508000D03*
D14*
%TO.P,D1,2,A*%
%TO.N,Net-(D1-A)*%
X127249000Y-127508000D03*
%TD*%
D10*
%TO.P,R3,1*%
%TO.N,Net-(R3-Pad1)*%
X135636000Y-122428000D03*
%TO.P,R3,2*%
%TO.N,Net-(D2-A)*%
X135636000Y-132588000D03*
%TD*%
D15*
%TO.P,J1,1,Pin_1*%
%TO.N,BSPD_RESET*%
X157532000Y-108414000D03*
D16*
%TO.P,J1,2,Pin_2*%
%TO.N,Net-(J1-Pin_2)*%
X153332000Y-108414000D03*
%TO.P,J1,3,Pin_3*%
%TO.N,BMS_RESET*%
X157532000Y-113914000D03*
%TO.P,J1,4,Pin_4*%
%TO.N,IMD_RESET*%
X153332000Y-113914000D03*
%TD*%
D15*
%TO.P,J2,1,Pin_1*%
%TO.N,0*%
X130697000Y-108510000D03*
D16*
%TO.P,J2,2,Pin_2*%
X126497000Y-108510000D03*
%TO.P,J2,3,Pin_3*%
%TO.N,+12V*%
X122297000Y-108510000D03*
%TO.P,J2,4,Pin_4*%
%TO.N,BSPD_LED*%
X130697000Y-114010000D03*
%TO.P,J2,5,Pin_5*%
%TO.N,IMD_LED*%
X126497000Y-114010000D03*
%TO.P,J2,6,Pin_6*%
%TO.N,BMS_LED*%
X122297000Y-114010000D03*
%TD*%
D17*
%TO.N,Net-(D1-A)*%
X127249000Y-128275000D02*
X122936000Y-132588000D01*
X127249000Y-127508000D02*
X127249000Y-128275000D01*
X122936000Y-132588000D02*
X120645000Y-132588000D01*
%TO.N,Net-(D2-A)*%
X139700000Y-132588000D02*
X142210000Y-130078000D01*
X142210000Y-130078000D02*
X142210000Y-127508000D01*
X135636000Y-132588000D02*
X139700000Y-132588000D01*
%TO.N,BSPD_LED*%
X133096000Y-116409000D02*
X130697000Y-114010000D01*
X131313000Y-132588000D02*
X131313000Y-124719000D01*
X133096000Y-122936000D02*
X133096000Y-116409000D01*
X131313000Y-124719000D02*
X133096000Y-122936000D01*
%TO.N,IMD_LED*%
X129032000Y-133096000D02*
X130048000Y-134112000D01*
X144780000Y-134112000D02*
X146304000Y-132588000D01*
X126497000Y-114010000D02*
X129032000Y-116545000D01*
X130048000Y-134112000D02*
X144780000Y-134112000D01*
X129032000Y-116545000D02*
X129032000Y-133096000D01*
%TO.N,+12V*%
X128234000Y-139498000D02*
X128234000Y-145998000D01*
X158076000Y-146506000D02*
X158206000Y-146506000D01*
%TO.N,BSPD_RESET*%
X125476000Y-138176000D02*
X124154000Y-139498000D01*
X157532000Y-106224000D02*
X155448000Y-104140000D01*
X124154000Y-139498000D02*
X123734000Y-139498000D01*
X151384000Y-104140000D02*
X147828000Y-107696000D01*
X123734000Y-139498000D02*
X123734000Y-145998000D01*
X129540000Y-135128000D02*
X127508000Y-133096000D01*
X155448000Y-104140000D02*
X151384000Y-104140000D01*
X157532000Y-108414000D02*
X157532000Y-106224000D01*
X145796000Y-135128000D02*
X129540000Y-135128000D01*
X126492000Y-133096000D02*
X125476000Y-134112000D01*
X147828000Y-133096000D02*
X145796000Y-135128000D01*
X127508000Y-133096000D02*
X126492000Y-133096000D01*
X125476000Y-134112000D02*
X125476000Y-138176000D01*
X147828000Y-107696000D02*
X147828000Y-133096000D01*
%TO.N,Net-(J1-Pin_2)*%
X163068000Y-128524000D02*
X158496000Y-123952000D01*
X155448000Y-116840000D02*
X155448000Y-110530000D01*
X158496000Y-123952000D02*
X158496000Y-119888000D01*
X158496000Y-119888000D02*
X155448000Y-116840000D01*
X142966000Y-145998000D02*
X150166000Y-145998000D01*
X152908000Y-143256000D02*
X161036000Y-143256000D01*
X163068000Y-141224000D02*
X163068000Y-128524000D01*
X155448000Y-110530000D02*
X153332000Y-108414000D01*
X150166000Y-145998000D02*
X152908000Y-143256000D01*
X161036000Y-143256000D02*
X163068000Y-141224000D01*
%TO.N,IMD_RESET*%
X138466000Y-139498000D02*
X138466000Y-145998000D01*
X141716000Y-142748000D02*
X145288000Y-142748000D01*
X150876000Y-139192000D02*
X148844000Y-139192000D01*
X152400000Y-114846000D02*
X152400000Y-137668000D01*
X153332000Y-113914000D02*
X152400000Y-114846000D01*
X152400000Y-137668000D02*
X150876000Y-139192000D01*
X138466000Y-145998000D02*
X141716000Y-142748000D01*
X145288000Y-142748000D02*
X148844000Y-139192000D01*
%TO.N,0*%
X130697000Y-108510000D02*
X139670000Y-117483000D01*
X130697000Y-108510000D02*
X126497000Y-108510000D01*
X139670000Y-117483000D02*
X139670000Y-127508000D01*
X124709000Y-127508000D02*
X123433000Y-126232000D01*
X124546000Y-114820131D02*
X124546000Y-110461000D01*
X123433000Y-126232000D02*
X123433000Y-115933131D01*
X137466000Y-108510000D02*
X141224000Y-112268000D01*
X123433000Y-115933131D02*
X124546000Y-114820131D01*
X124546000Y-110461000D02*
X126497000Y-108510000D01*
X130697000Y-108510000D02*
X137466000Y-108510000D01*
%TD*%
M02*
