%TF.GenerationSoftware,KiCad,Pcbnew,9.0.7*%
%TF.CreationDate,2026-04-05T23:09:46-07:00*%
%TF.ProjectId,Hi_board_bbc1,48695f62-6f61-4726-945f-626263312e6b,rev?*%
%TF.SameCoordinates,Original*%
%TF.FileFunction,Profile,NP*%
%FSLAX46Y46*%
G04 Gerber Fmt 4.6, Leading zero omitted, Abs format (unit mm)*
G04 Created by KiCad (PCBNEW 9.0.7) date 2026-04-05 23:09:46*
%MOMM*%
%LPD*%
G01*
G04 APERTURE LIST*
%TA.AperFunction,Profile*%
%ADD10C,0.050000*%
%TD*%
%TA.AperFunction,Profile*%
%ADD11C,0.100000*%
%TD*%
G04 APERTURE END LIST*
D10*
X164084000Y-136144000D02*
X164084000Y-137160000D01*
X131064000Y-136144000D02*
X135128000Y-136144000D01*
X135128000Y-137160000D01*
X131064000Y-137160000D01*
X131064000Y-136144000D01*
X126492000Y-136144000D02*
X130556000Y-136144000D01*
X130556000Y-137160000D01*
X126492000Y-137160000D01*
X126492000Y-136144000D01*
X162052000Y-101600000D02*
G75*
G02*
X164592000Y-104140000I0J-2540000D01*
G01*
X116840000Y-136144000D02*
X116840000Y-104140000D01*
X119380000Y-151892000D02*
X162052000Y-151892000D01*
D11*
X127634000Y-120778000D02*
G75*
G02*
X124334000Y-120778000I-1650000J0D01*
G01*
X124334000Y-120778000D02*
G75*
G02*
X127634000Y-120778000I1650000J0D01*
G01*
D10*
X135636000Y-136144000D02*
X139700000Y-136144000D01*
X139700000Y-137160000D01*
X135636000Y-137160000D01*
X135636000Y-136144000D01*
X164592000Y-137160000D02*
X164592000Y-149352000D01*
X119380000Y-101600000D02*
X162052000Y-101600000D01*
X144780000Y-136144000D02*
X148844000Y-136144000D01*
X148844000Y-137160000D01*
X144780000Y-137160000D01*
X144780000Y-136144000D01*
X140208000Y-136144000D02*
X144272000Y-136144000D01*
X144272000Y-137160000D01*
X140208000Y-137160000D01*
X140208000Y-136144000D01*
X119380000Y-137160000D02*
X116840000Y-137160000D01*
X120396000Y-136144000D02*
X124460000Y-136144000D01*
X124460000Y-137160000D01*
X120396000Y-137160000D01*
X120396000Y-136144000D01*
X164592000Y-104140000D02*
X164592000Y-136144000D01*
X164592000Y-136144000D02*
X164084000Y-136144000D01*
X116840000Y-137160000D02*
X116840000Y-149352000D01*
X164592000Y-149352000D02*
G75*
G02*
X162052000Y-151892000I-2540000J0D01*
G01*
X153416000Y-136144000D02*
X157480000Y-136144000D01*
X157480000Y-137160000D01*
X153416000Y-137160000D01*
X153416000Y-136144000D01*
X119380000Y-136144000D02*
X119380000Y-137160000D01*
D11*
X121030000Y-149352000D02*
G75*
G02*
X117730000Y-149352000I-1650000J0D01*
G01*
X117730000Y-149352000D02*
G75*
G02*
X121030000Y-149352000I1650000J0D01*
G01*
D10*
X164084000Y-137160000D02*
X164592000Y-137160000D01*
X119380000Y-151892000D02*
G75*
G02*
X116840000Y-149352000I0J2540000D01*
G01*
X119380000Y-136144000D02*
X116840000Y-136144000D01*
X157988000Y-136144000D02*
X162052000Y-136144000D01*
X162052000Y-137160000D01*
X157988000Y-137160000D01*
X157988000Y-136144000D01*
X149352000Y-136144000D02*
X151384000Y-136144000D01*
X151384000Y-137160000D01*
X149352000Y-137160000D01*
X149352000Y-136144000D01*
X116840000Y-104140000D02*
G75*
G02*
X119380000Y-101600000I2540000J0D01*
G01*
D11*
X163702000Y-149352000D02*
G75*
G02*
X160402000Y-149352000I-1650000J0D01*
G01*
X160402000Y-149352000D02*
G75*
G02*
X163702000Y-149352000I1650000J0D01*
G01*
X157098000Y-120778000D02*
G75*
G02*
X153798000Y-120778000I-1650000J0D01*
G01*
X153798000Y-120778000D02*
G75*
G02*
X157098000Y-120778000I1650000J0D01*
G01*
M02*
