%TF.GenerationSoftware,KiCad,Pcbnew,9.0.7*%
%TF.CreationDate,2026-04-05T23:28:33-07:00*%
%TF.ProjectId,SafetyBoard,53616665-7479-4426-9f61-72642e6b6963,rev?*%
%TF.SameCoordinates,Original*%
%TF.FileFunction,Paste,Bot*%
%TF.FilePolarity,Positive*%
%FSLAX46Y46*%
G04 Gerber Fmt 4.6, Leading zero omitted, Abs format (unit mm)*
G04 Created by KiCad (PCBNEW 9.0.7) date 2026-04-05 23:28:33*
%MOMM*%
%LPD*%
G01*
G04 APERTURE LIST*
G04 Aperture macros list*
%AMRoundRect*
0 Rectangle with rounded corners*
0 $1 Rounding radius*
0 $2 $3 $4 $5 $6 $7 $8 $9 X,Y pos of 4 corners*
0 Add a 4 corners polygon primitive as box body*
4,1,4,$2,$3,$4,$5,$6,$7,$8,$9,$2,$3,0*
0 Add four circle primitives for the rounded corners*
1,1,$1+$1,$2,$3*
1,1,$1+$1,$4,$5*
1,1,$1+$1,$6,$7*
1,1,$1+$1,$8,$9*
0 Add four rect primitives between the rounded corners*
20,1,$1+$1,$2,$3,$4,$5,0*
20,1,$1+$1,$4,$5,$6,$7,0*
20,1,$1+$1,$6,$7,$8,$9,0*
20,1,$1+$1,$8,$9,$2,$3,0*%
G04 Aperture macros list end*
%ADD10RoundRect,0.250000X-0.450000X0.262500X-0.450000X-0.262500X0.450000X-0.262500X0.450000X0.262500X0*%
%ADD11RoundRect,0.250000X0.250000X0.475000X-0.250000X0.475000X-0.250000X-0.475000X0.250000X-0.475000X0*%
%ADD12RoundRect,0.218750X0.218750X0.256250X-0.218750X0.256250X-0.218750X-0.256250X0.218750X-0.256250X0*%
%ADD13RoundRect,0.250000X0.450000X-0.262500X0.450000X0.262500X-0.450000X0.262500X-0.450000X-0.262500X0*%
%ADD14RoundRect,0.200000X0.275000X-0.200000X0.275000X0.200000X-0.275000X0.200000X-0.275000X-0.200000X0*%
%ADD15RoundRect,0.250000X0.262500X0.450000X-0.262500X0.450000X-0.262500X-0.450000X0.262500X-0.450000X0*%
%ADD16RoundRect,0.250000X-0.250000X-0.475000X0.250000X-0.475000X0.250000X0.475000X-0.250000X0.475000X0*%
%ADD17RoundRect,0.200000X-0.275000X0.200000X-0.275000X-0.200000X0.275000X-0.200000X0.275000X0.200000X0*%
%ADD18RoundRect,0.218750X-0.218750X-0.256250X0.218750X-0.256250X0.218750X0.256250X-0.218750X0.256250X0*%
%ADD19RoundRect,0.218750X-0.256250X0.218750X-0.256250X-0.218750X0.256250X-0.218750X0.256250X0.218750X0*%
%ADD20RoundRect,0.250000X0.350000X0.450000X-0.350000X0.450000X-0.350000X-0.450000X0.350000X-0.450000X0*%
%ADD21RoundRect,0.250000X-0.262500X-0.450000X0.262500X-0.450000X0.262500X0.450000X-0.262500X0.450000X0*%
%ADD22RoundRect,0.250000X0.450000X-0.350000X0.450000X0.350000X-0.450000X0.350000X-0.450000X-0.350000X0*%
%ADD23RoundRect,0.225000X0.225000X0.250000X-0.225000X0.250000X-0.225000X-0.250000X0.225000X-0.250000X0*%
%ADD24RoundRect,0.250000X0.475000X-0.250000X0.475000X0.250000X-0.475000X0.250000X-0.475000X-0.250000X0*%
%ADD25RoundRect,0.249999X-0.737501X-2.450001X0.737501X-2.450001X0.737501X2.450001X-0.737501X2.450001X0*%
%ADD26RoundRect,0.225000X0.250000X-0.225000X0.250000X0.225000X-0.250000X0.225000X-0.250000X-0.225000X0*%
%ADD27RoundRect,0.200000X-0.200000X-0.275000X0.200000X-0.275000X0.200000X0.275000X-0.200000X0.275000X0*%
%ADD28RoundRect,0.250000X-0.350000X-0.450000X0.350000X-0.450000X0.350000X0.450000X-0.350000X0.450000X0*%
%ADD29RoundRect,0.225000X-0.225000X-0.250000X0.225000X-0.250000X0.225000X0.250000X-0.225000X0.250000X0*%
%ADD30RoundRect,0.200000X0.200000X0.275000X-0.200000X0.275000X-0.200000X-0.275000X0.200000X-0.275000X0*%
%ADD31RoundRect,0.225000X-0.250000X0.225000X-0.250000X-0.225000X0.250000X-0.225000X0.250000X0.225000X0*%
%ADD32RoundRect,0.250000X-0.475000X0.250000X-0.475000X-0.250000X0.475000X-0.250000X0.475000X0.250000X0*%
%ADD33RoundRect,0.249999X-2.450001X0.737501X-2.450001X-0.737501X2.450001X-0.737501X2.450001X0.737501X0*%
%ADD34RoundRect,0.249999X2.450001X-0.737501X2.450001X0.737501X-2.450001X0.737501X-2.450001X-0.737501X0*%
G04 APERTURE END LIST*
D10*
%TO.C,R33*%
X215036400Y-105566200D03*
X215036400Y-107391200D03*
%TD*%
D11*
%TO.C,C19*%
X99960199Y-138327902D03*
X98060199Y-138327902D03*
%TD*%
D12*
%TO.C,D7*%
X149148800Y-78232000D03*
X147573800Y-78232000D03*
%TD*%
D13*
%TO.C,R29*%
X205841600Y-81836900D03*
X205841600Y-80011900D03*
%TD*%
D14*
%TO.C,R10*%
X81414801Y-72564600D03*
X81414801Y-70914600D03*
%TD*%
D11*
%TO.C,C18*%
X99960199Y-134111502D03*
X98060199Y-134111502D03*
%TD*%
D15*
%TO.C,R27*%
X104644100Y-115210800D03*
X102819100Y-115210800D03*
%TD*%
D14*
%TO.C,R5*%
X75247601Y-76694800D03*
X75247601Y-75044800D03*
%TD*%
D16*
%TO.C,C32*%
X72920000Y-132150000D03*
X74820000Y-132150000D03*
%TD*%
D17*
%TO.C,R20*%
X96024801Y-91695000D03*
X96024801Y-93345000D03*
%TD*%
D18*
%TO.C,D1*%
X116547801Y-96748600D03*
X118122801Y-96748600D03*
%TD*%
D19*
%TO.C,D5*%
X152806400Y-82245200D03*
X152806400Y-83820200D03*
%TD*%
D20*
%TO.C,R38*%
X157600400Y-89103200D03*
X155600400Y-89103200D03*
%TD*%
D17*
%TO.C,R14*%
X90132001Y-90234000D03*
X90132001Y-91884000D03*
%TD*%
D21*
%TO.C,R31*%
X210163400Y-92252800D03*
X211988400Y-92252800D03*
%TD*%
D22*
%TO.C,R41*%
X180441600Y-89528400D03*
X180441600Y-87528400D03*
%TD*%
D13*
%TO.C,R30*%
X141224000Y-90220800D03*
X141224000Y-88395800D03*
%TD*%
%TO.C,R50*%
X123494800Y-115109000D03*
X123494800Y-113284000D03*
%TD*%
%TO.C,R28*%
X141224000Y-93776800D03*
X141224000Y-91951800D03*
%TD*%
D23*
%TO.C,C8*%
X99251201Y-77089000D03*
X97701201Y-77089000D03*
%TD*%
D19*
%TO.C,D10*%
X199652800Y-83874100D03*
X199652800Y-85449100D03*
%TD*%
D24*
%TO.C,C12*%
X215087200Y-114350800D03*
X215087200Y-112450800D03*
%TD*%
D25*
%TO.C,C16*%
X165435000Y-139360000D03*
X170710000Y-139360000D03*
%TD*%
D26*
%TO.C,C1*%
X76060401Y-83642200D03*
X76060401Y-82092200D03*
%TD*%
D17*
%TO.C,R16*%
X88506401Y-99085400D03*
X88506401Y-100735400D03*
%TD*%
D27*
%TO.C,R4*%
X116066401Y-91313000D03*
X117716401Y-91313000D03*
%TD*%
D10*
%TO.C,R32*%
X208686400Y-79908400D03*
X208686400Y-81733400D03*
%TD*%
D28*
%TO.C,R42*%
X175698400Y-92760800D03*
X177698400Y-92760800D03*
%TD*%
D20*
%TO.C,R37*%
X149555200Y-88798400D03*
X147555200Y-88798400D03*
%TD*%
D23*
%TO.C,C5*%
X127508000Y-82951400D03*
X125958000Y-82951400D03*
%TD*%
D10*
%TO.C,R52*%
X161391600Y-145139400D03*
X161391600Y-146964400D03*
%TD*%
D21*
%TO.C,R56*%
X69679800Y-140546701D03*
X71504800Y-140546701D03*
%TD*%
D17*
%TO.C,R1*%
X87642801Y-84558200D03*
X87642801Y-86208200D03*
%TD*%
%TO.C,R9*%
X89522401Y-62485000D03*
X89522401Y-64135000D03*
%TD*%
D29*
%TO.C,C6*%
X108241601Y-100507800D03*
X109791601Y-100507800D03*
%TD*%
D21*
%TO.C,R53*%
X69578200Y-127897501D03*
X71403200Y-127897501D03*
%TD*%
D17*
%TO.C,R11*%
X89949201Y-70953200D03*
X89949201Y-72603200D03*
%TD*%
D30*
%TO.C,R6*%
X115150001Y-103505000D03*
X113500001Y-103505000D03*
%TD*%
D16*
%TO.C,C34*%
X73028800Y-140546701D03*
X74928800Y-140546701D03*
%TD*%
D25*
%TO.C,C23*%
X182265000Y-137820000D03*
X187540000Y-137820000D03*
%TD*%
D28*
%TO.C,R39*%
X175038000Y-86258400D03*
X177038000Y-86258400D03*
%TD*%
D17*
%TO.C,R24*%
X95821601Y-77267800D03*
X95821601Y-78917800D03*
%TD*%
D14*
%TO.C,R19*%
X98869601Y-64464200D03*
X98869601Y-62814200D03*
%TD*%
D19*
%TO.C,D9*%
X177038000Y-80644900D03*
X177038000Y-82219900D03*
%TD*%
D24*
%TO.C,C11*%
X215087200Y-110896400D03*
X215087200Y-108996400D03*
%TD*%
D23*
%TO.C,C4*%
X117437601Y-98729800D03*
X115887601Y-98729800D03*
%TD*%
D14*
%TO.C,R2*%
X78041601Y-79883000D03*
X78041601Y-78233000D03*
%TD*%
D22*
%TO.C,R43*%
X197002400Y-87258400D03*
X197002400Y-85258400D03*
%TD*%
%TO.C,R44*%
X199948800Y-93135200D03*
X199948800Y-91135200D03*
%TD*%
D14*
%TO.C,R12*%
X120040400Y-75336400D03*
X120040400Y-73686400D03*
%TD*%
D31*
%TO.C,C3*%
X75247601Y-78383800D03*
X75247601Y-79933800D03*
%TD*%
D32*
%TO.C,C30*%
X155041600Y-141523600D03*
X155041600Y-143423600D03*
%TD*%
D33*
%TO.C,C29*%
X148132800Y-139918400D03*
X148132800Y-145193400D03*
%TD*%
D21*
%TO.C,R54*%
X69525500Y-132063101D03*
X71350500Y-132063101D03*
%TD*%
D30*
%TO.C,R7*%
X108692001Y-103352600D03*
X107042001Y-103352600D03*
%TD*%
D11*
%TO.C,C14*%
X99960199Y-146709902D03*
X98060199Y-146709902D03*
%TD*%
D30*
%TO.C,R23*%
X120497600Y-95123000D03*
X118847600Y-95123000D03*
%TD*%
D14*
%TO.C,R15*%
X79972001Y-100761800D03*
X79972001Y-99111800D03*
%TD*%
D32*
%TO.C,C22*%
X134772400Y-140477200D03*
X134772400Y-142377200D03*
%TD*%
D14*
%TO.C,R8*%
X80988001Y-64159400D03*
X80988001Y-62509400D03*
%TD*%
D30*
%TO.C,R17*%
X132066401Y-80187800D03*
X130416401Y-80187800D03*
%TD*%
D34*
%TO.C,C35*%
X149530000Y-136585000D03*
X149530000Y-131310000D03*
%TD*%
D21*
%TO.C,R46*%
X101514599Y-142544302D03*
X103339599Y-142544302D03*
%TD*%
D33*
%TO.C,C25*%
X141730000Y-140015000D03*
X141730000Y-145290000D03*
%TD*%
D28*
%TO.C,R36*%
X147555200Y-91389200D03*
X149555200Y-91389200D03*
%TD*%
D15*
%TO.C,R35*%
X214782400Y-124663200D03*
X212957400Y-124663200D03*
%TD*%
D27*
%TO.C,SchmittDis1*%
X117513201Y-102692200D03*
X119163201Y-102692200D03*
%TD*%
D11*
%TO.C,C15*%
X99960199Y-142544302D03*
X98060199Y-142544302D03*
%TD*%
D18*
%TO.C,D12*%
X195817300Y-94694500D03*
X197392300Y-94694500D03*
%TD*%
D15*
%TO.C,R26*%
X108411000Y-115214400D03*
X106586000Y-115214400D03*
%TD*%
%TO.C,R51*%
X155596600Y-147472400D03*
X153771600Y-147472400D03*
%TD*%
D34*
%TO.C,C28*%
X141740000Y-136975000D03*
X141740000Y-131700000D03*
%TD*%
D18*
%TO.C,D2*%
X139547400Y-95504000D03*
X141122400Y-95504000D03*
%TD*%
D28*
%TO.C,R40*%
X182404000Y-94996000D03*
X184404000Y-94996000D03*
%TD*%
D21*
%TO.C,R48*%
X101518399Y-138327902D03*
X103343399Y-138327902D03*
%TD*%
D26*
%TO.C,C2*%
X85763201Y-86157400D03*
X85763201Y-84607400D03*
%TD*%
D14*
%TO.C,R13*%
X81597601Y-92036400D03*
X81597601Y-90386400D03*
%TD*%
D27*
%TO.C,schmittEN1*%
X120967601Y-102590600D03*
X122617601Y-102590600D03*
%TD*%
D17*
%TO.C,R18*%
X95364401Y-60453000D03*
X95364401Y-62103000D03*
%TD*%
D16*
%TO.C,C33*%
X73028800Y-136330301D03*
X74928800Y-136330301D03*
%TD*%
D14*
%TO.C,R21*%
X99174401Y-94830400D03*
X99174401Y-93180400D03*
%TD*%
D23*
%TO.C,C9*%
X99251201Y-91567000D03*
X97701201Y-91567000D03*
%TD*%
D16*
%TO.C,C27*%
X185552000Y-125084800D03*
X187452000Y-125084800D03*
%TD*%
D21*
%TO.C,R45*%
X101514599Y-146709902D03*
X103339599Y-146709902D03*
%TD*%
D16*
%TO.C,C31*%
X72970000Y-127950000D03*
X74870000Y-127950000D03*
%TD*%
D28*
%TO.C,R49*%
X169196000Y-134620000D03*
X171196000Y-134620000D03*
%TD*%
D30*
%TO.C,R3*%
X83578801Y-86182200D03*
X81928801Y-86182200D03*
%TD*%
D21*
%TO.C,R55*%
X69645600Y-136330301D03*
X71470600Y-136330301D03*
%TD*%
D12*
%TO.C,D3*%
X140462000Y-99415600D03*
X138887000Y-99415600D03*
%TD*%
D32*
%TO.C,C20*%
X132588000Y-140558400D03*
X132588000Y-142458400D03*
%TD*%
D16*
%TO.C,C24*%
X185521600Y-127421600D03*
X187421600Y-127421600D03*
%TD*%
%TO.C,C17*%
X164857600Y-134620000D03*
X166757600Y-134620000D03*
%TD*%
D32*
%TO.C,C26*%
X123494800Y-116636800D03*
X123494800Y-118536800D03*
%TD*%
D27*
%TO.C,R22*%
X115735201Y-95123000D03*
X117385201Y-95123000D03*
%TD*%
D10*
%TO.C,R34*%
X212211510Y-107892502D03*
X212211510Y-109717502D03*
%TD*%
D14*
%TO.C,R25*%
X99174401Y-81177400D03*
X99174401Y-79527400D03*
%TD*%
D23*
%TO.C,C7*%
X111772801Y-62103000D03*
X110222801Y-62103000D03*
%TD*%
%TO.C,C10*%
X98730201Y-61087000D03*
X97180201Y-61087000D03*
%TD*%
D21*
%TO.C,R47*%
X101514599Y-134111502D03*
X103339599Y-134111502D03*
%TD*%
D11*
%TO.C,C13*%
X217088800Y-103174800D03*
X215188800Y-103174800D03*
%TD*%
M02*
