%TF.GenerationSoftware,KiCad,Pcbnew,9.0.7*%
%TF.CreationDate,2026-04-05T23:28:33-07:00*%
%TF.ProjectId,SafetyBoard,53616665-7479-4426-9f61-72642e6b6963,rev?*%
%TF.SameCoordinates,Original*%
%TF.FileFunction,Copper,L4,Bot*%
%TF.FilePolarity,Positive*%
%FSLAX46Y46*%
G04 Gerber Fmt 4.6, Leading zero omitted, Abs format (unit mm)*
G04 Created by KiCad (PCBNEW 9.0.7) date 2026-04-05 23:28:33*
%MOMM*%
%LPD*%
G01*
G04 APERTURE LIST*
G04 Aperture macros list*
%AMRoundRect*
0 Rectangle with rounded corners*
0 $1 Rounding radius*
0 $2 $3 $4 $5 $6 $7 $8 $9 X,Y pos of 4 corners*
0 Add a 4 corners polygon primitive as box body*
4,1,4,$2,$3,$4,$5,$6,$7,$8,$9,$2,$3,0*
0 Add four circle primitives for the rounded corners*
1,1,$1+$1,$2,$3*
1,1,$1+$1,$4,$5*
1,1,$1+$1,$6,$7*
1,1,$1+$1,$8,$9*
0 Add four rect primitives between the rounded corners*
20,1,$1+$1,$2,$3,$4,$5,0*
20,1,$1+$1,$4,$5,$6,$7,0*
20,1,$1+$1,$6,$7,$8,$9,0*
20,1,$1+$1,$8,$9,$2,$3,0*%
G04 Aperture macros list end*
%TA.AperFunction,ComponentPad*%
%ADD10R,1.905000X2.000000*%
%TD*%
%TA.AperFunction,ComponentPad*%
%ADD11O,1.905000X2.000000*%
%TD*%
%TA.AperFunction,ComponentPad*%
%ADD12C,3.500000*%
%TD*%
%TA.AperFunction,ComponentPad*%
%ADD13R,1.800000X1.800000*%
%TD*%
%TA.AperFunction,ComponentPad*%
%ADD14C,1.800000*%
%TD*%
%TA.AperFunction,ComponentPad*%
%ADD15C,1.955800*%
%TD*%
%TA.AperFunction,ComponentPad*%
%ADD16C,1.440000*%
%TD*%
%TA.AperFunction,ComponentPad*%
%ADD17R,1.700000X1.700000*%
%TD*%
%TA.AperFunction,ComponentPad*%
%ADD18C,1.700000*%
%TD*%
%TA.AperFunction,ComponentPad*%
%ADD19RoundRect,0.250001X-1.099999X-1.399999X1.099999X-1.399999X1.099999X1.399999X-1.099999X1.399999X0*%
%TD*%
%TA.AperFunction,ComponentPad*%
%ADD20O,2.700000X3.300000*%
%TD*%
%TA.AperFunction,ComponentPad*%
%ADD21C,2.000000*%
%TD*%
%TA.AperFunction,ComponentPad*%
%ADD22RoundRect,0.250001X1.399999X-1.099999X1.399999X1.099999X-1.399999X1.099999X-1.399999X-1.099999X0*%
%TD*%
%TA.AperFunction,ComponentPad*%
%ADD23O,3.300000X2.700000*%
%TD*%
%TA.AperFunction,ComponentPad*%
%ADD24R,2.000000X1.905000*%
%TD*%
%TA.AperFunction,ComponentPad*%
%ADD25O,2.000000X1.905000*%
%TD*%
%TA.AperFunction,ComponentPad*%
%ADD26RoundRect,0.250000X0.550000X0.550000X-0.550000X0.550000X-0.550000X-0.550000X0.550000X-0.550000X0*%
%TD*%
%TA.AperFunction,ComponentPad*%
%ADD27C,1.600000*%
%TD*%
%TA.AperFunction,ComponentPad*%
%ADD28RoundRect,0.250001X1.099999X1.399999X-1.099999X1.399999X-1.099999X-1.399999X1.099999X-1.399999X0*%
%TD*%
%TA.AperFunction,ComponentPad*%
%ADD29R,1.830000X1.830000*%
%TD*%
%TA.AperFunction,ComponentPad*%
%ADD30C,1.830000*%
%TD*%
%TA.AperFunction,ComponentPad*%
%ADD31C,2.655000*%
%TD*%
%TA.AperFunction,ComponentPad*%
%ADD32RoundRect,0.250000X-0.550000X-0.550000X0.550000X-0.550000X0.550000X0.550000X-0.550000X0.550000X0*%
%TD*%
%TA.AperFunction,ComponentPad*%
%ADD33C,1.608074*%
%TD*%
%TA.AperFunction,ComponentPad*%
%ADD34RoundRect,0.250001X0.949999X-0.949999X0.949999X0.949999X-0.949999X0.949999X-0.949999X-0.949999X0*%
%TD*%
%TA.AperFunction,ComponentPad*%
%ADD35C,2.400000*%
%TD*%
%TA.AperFunction,ComponentPad*%
%ADD36C,1.428000*%
%TD*%
%TA.AperFunction,ComponentPad*%
%ADD37C,3.316000*%
%TD*%
%TA.AperFunction,SMDPad,CuDef*%
%ADD38RoundRect,0.250000X-0.450000X0.262500X-0.450000X-0.262500X0.450000X-0.262500X0.450000X0.262500X0*%
%TD*%
%TA.AperFunction,SMDPad,CuDef*%
%ADD39RoundRect,0.250000X0.250000X0.475000X-0.250000X0.475000X-0.250000X-0.475000X0.250000X-0.475000X0*%
%TD*%
%TA.AperFunction,SMDPad,CuDef*%
%ADD40RoundRect,0.218750X0.218750X0.256250X-0.218750X0.256250X-0.218750X-0.256250X0.218750X-0.256250X0*%
%TD*%
%TA.AperFunction,SMDPad,CuDef*%
%ADD41RoundRect,0.250000X0.450000X-0.262500X0.450000X0.262500X-0.450000X0.262500X-0.450000X-0.262500X0*%
%TD*%
%TA.AperFunction,SMDPad,CuDef*%
%ADD42RoundRect,0.200000X0.275000X-0.200000X0.275000X0.200000X-0.275000X0.200000X-0.275000X-0.200000X0*%
%TD*%
%TA.AperFunction,SMDPad,CuDef*%
%ADD43RoundRect,0.250000X0.262500X0.450000X-0.262500X0.450000X-0.262500X-0.450000X0.262500X-0.450000X0*%
%TD*%
%TA.AperFunction,SMDPad,CuDef*%
%ADD44RoundRect,0.250000X-0.250000X-0.475000X0.250000X-0.475000X0.250000X0.475000X-0.250000X0.475000X0*%
%TD*%
%TA.AperFunction,SMDPad,CuDef*%
%ADD45RoundRect,0.200000X-0.275000X0.200000X-0.275000X-0.200000X0.275000X-0.200000X0.275000X0.200000X0*%
%TD*%
%TA.AperFunction,SMDPad,CuDef*%
%ADD46RoundRect,0.218750X-0.218750X-0.256250X0.218750X-0.256250X0.218750X0.256250X-0.218750X0.256250X0*%
%TD*%
%TA.AperFunction,SMDPad,CuDef*%
%ADD47RoundRect,0.218750X-0.256250X0.218750X-0.256250X-0.218750X0.256250X-0.218750X0.256250X0.218750X0*%
%TD*%
%TA.AperFunction,SMDPad,CuDef*%
%ADD48RoundRect,0.250000X0.350000X0.450000X-0.350000X0.450000X-0.350000X-0.450000X0.350000X-0.450000X0*%
%TD*%
%TA.AperFunction,SMDPad,CuDef*%
%ADD49RoundRect,0.250000X-0.262500X-0.450000X0.262500X-0.450000X0.262500X0.450000X-0.262500X0.450000X0*%
%TD*%
%TA.AperFunction,SMDPad,CuDef*%
%ADD50RoundRect,0.250000X0.450000X-0.350000X0.450000X0.350000X-0.450000X0.350000X-0.450000X-0.350000X0*%
%TD*%
%TA.AperFunction,SMDPad,CuDef*%
%ADD51RoundRect,0.225000X0.225000X0.250000X-0.225000X0.250000X-0.225000X-0.250000X0.225000X-0.250000X0*%
%TD*%
%TA.AperFunction,SMDPad,CuDef*%
%ADD52RoundRect,0.250000X0.475000X-0.250000X0.475000X0.250000X-0.475000X0.250000X-0.475000X-0.250000X0*%
%TD*%
%TA.AperFunction,SMDPad,CuDef*%
%ADD53RoundRect,0.249999X-0.737501X-2.450001X0.737501X-2.450001X0.737501X2.450001X-0.737501X2.450001X0*%
%TD*%
%TA.AperFunction,SMDPad,CuDef*%
%ADD54RoundRect,0.225000X0.250000X-0.225000X0.250000X0.225000X-0.250000X0.225000X-0.250000X-0.225000X0*%
%TD*%
%TA.AperFunction,SMDPad,CuDef*%
%ADD55RoundRect,0.200000X-0.200000X-0.275000X0.200000X-0.275000X0.200000X0.275000X-0.200000X0.275000X0*%
%TD*%
%TA.AperFunction,SMDPad,CuDef*%
%ADD56RoundRect,0.250000X-0.350000X-0.450000X0.350000X-0.450000X0.350000X0.450000X-0.350000X0.450000X0*%
%TD*%
%TA.AperFunction,SMDPad,CuDef*%
%ADD57RoundRect,0.225000X-0.225000X-0.250000X0.225000X-0.250000X0.225000X0.250000X-0.225000X0.250000X0*%
%TD*%
%TA.AperFunction,SMDPad,CuDef*%
%ADD58RoundRect,0.200000X0.200000X0.275000X-0.200000X0.275000X-0.200000X-0.275000X0.200000X-0.275000X0*%
%TD*%
%TA.AperFunction,SMDPad,CuDef*%
%ADD59RoundRect,0.225000X-0.250000X0.225000X-0.250000X-0.225000X0.250000X-0.225000X0.250000X0.225000X0*%
%TD*%
%TA.AperFunction,SMDPad,CuDef*%
%ADD60RoundRect,0.250000X-0.475000X0.250000X-0.475000X-0.250000X0.475000X-0.250000X0.475000X0.250000X0*%
%TD*%
%TA.AperFunction,SMDPad,CuDef*%
%ADD61RoundRect,0.249999X-2.450001X0.737501X-2.450001X-0.737501X2.450001X-0.737501X2.450001X0.737501X0*%
%TD*%
%TA.AperFunction,SMDPad,CuDef*%
%ADD62RoundRect,0.249999X2.450001X-0.737501X2.450001X0.737501X-2.450001X0.737501X-2.450001X-0.737501X0*%
%TD*%
%TA.AperFunction,ViaPad*%
%ADD63C,0.600000*%
%TD*%
%TA.AperFunction,Conductor*%
%ADD64C,0.200000*%
%TD*%
%TA.AperFunction,Conductor*%
%ADD65C,0.550000*%
%TD*%
%TA.AperFunction,Conductor*%
%ADD66C,1.000000*%
%TD*%
%TA.AperFunction,Conductor*%
%ADD67C,2.500000*%
%TD*%
%TA.AperFunction,Conductor*%
%ADD68C,2.000000*%
%TD*%
%TA.AperFunction,Conductor*%
%ADD69C,0.700000*%
%TD*%
G04 APERTURE END LIST*
D10*
%TO.P,Q3,1,G*%
%TO.N,Net-(D2-K)*%
X205892400Y-86462800D03*
D11*
%TO.P,Q3,2,D*%
%TO.N,/TSSI/GREEN_LED*%
X208432400Y-86462800D03*
%TO.P,Q3,3,S*%
%TO.N,GND*%
X210972400Y-86462800D03*
%TD*%
D12*
%TO.P,F12,1*%
%TO.N,Net-(PS1-SENSE+)*%
X167070000Y-126630000D03*
X172150000Y-126630000D03*
%TO.P,F12,2*%
%TO.N,/12V*%
X176210000Y-126630000D03*
X181290000Y-126630000D03*
%TD*%
%TO.P,F6,1*%
%TO.N,/12V*%
X198070000Y-146470000D03*
X198070000Y-151550000D03*
%TO.P,F6,2*%
%TO.N,Net-(J4-Pin_1)*%
X198070000Y-155610000D03*
X198070000Y-160690000D03*
%TD*%
D13*
%TO.P,D4,1,K*%
%TO.N,GND*%
X211124800Y-96520000D03*
D14*
%TO.P,D4,2,A*%
%TO.N,Net-(D4-A)*%
X213664800Y-96520000D03*
%TD*%
D15*
%TO.P,J12,1,1*%
%TO.N,+12V*%
X194971995Y-108369999D03*
%TO.P,J12,2,2*%
%TO.N,/IMD Fault*%
X190771995Y-108369999D03*
%TO.P,J12,3,3*%
%TO.N,+12V*%
X186571999Y-108369999D03*
%TO.P,J12,4,4*%
%TO.N,GND*%
X182372000Y-108369999D03*
%TO.P,J12,5,5*%
X178172000Y-108369999D03*
%TO.P,J12,6,6*%
X173972001Y-108369999D03*
%TO.P,J12,7,7*%
%TO.N,/LATCH/bspd_reset*%
X194971995Y-102870000D03*
%TO.P,J12,8,8*%
%TO.N,/LATCH/imd_reset*%
X190771995Y-102870000D03*
%TO.P,J12,9,9*%
%TO.N,/LATCH/bms_reset*%
X186571999Y-102870000D03*
%TO.P,J12,10,10*%
%TO.N,/LATCH/BMSfault_LED*%
X182372000Y-102870000D03*
%TO.P,J12,11,11*%
%TO.N,/LATCH/IMDfault_LED*%
X178172000Y-102870000D03*
%TO.P,J12,12,12*%
%TO.N,/LATCH/BSPDfault_LED*%
X173972001Y-102870000D03*
%TD*%
D16*
%TO.P,VR3,1,CCW*%
%TO.N,Net-(VR3-CCW)*%
X88404801Y-88632800D03*
%TO.P,VR3,2,WIPER*%
%TO.N,/BSPD/BRAKE_THRESHOLD*%
X85864801Y-91172800D03*
%TO.P,VR3,3,CW*%
%TO.N,Net-(VR3-CW)*%
X83324801Y-88632800D03*
%TD*%
D13*
%TO.P,D6,1,K*%
%TO.N,Net-(D6-K)*%
X160324800Y-92405200D03*
D14*
%TO.P,D6,2,A*%
%TO.N,/LATCH/bspd_reset*%
X162864800Y-92405200D03*
%TD*%
D17*
%TO.P,J19,1,Pin_1*%
%TO.N,/CCM Helper/12V*%
X129531200Y-109558701D03*
D18*
%TO.P,J19,2,Pin_2*%
%TO.N,/CCM Helper/Speaker LPF'd*%
X129531200Y-112098701D03*
%TO.P,J19,3,Pin_3*%
%TO.N,/CCM Helper/CCMGND*%
X129531200Y-114638701D03*
%TO.P,J19,4,Pin_4*%
X129531200Y-117178701D03*
%TD*%
D15*
%TO.P,J17,1,1*%
%TO.N,/CCM Helper/5V*%
X74709999Y-121620006D03*
%TO.P,J17,2,2*%
X74709999Y-125820006D03*
%TO.P,J17,3,3*%
%TO.N,/CCM Helper/CCMGND*%
X74709999Y-130020002D03*
%TO.P,J17,4,4*%
X74709999Y-134220001D03*
%TO.P,J17,5,5*%
X74709999Y-138420001D03*
%TO.P,J17,6,6*%
X74709999Y-142620000D03*
%TO.P,J17,7,7*%
%TO.N,/CCM Helper/5V*%
X69210000Y-121620006D03*
%TO.P,J17,8,8*%
X69210000Y-125820006D03*
%TO.P,J17,9,9*%
%TO.N,/CCM Helper/Wheel{slash}Shock1 IN*%
X69210000Y-130020002D03*
%TO.P,J17,10,10*%
%TO.N,/CCM Helper/Wheel{slash}Shock2 IN*%
X69210000Y-134220001D03*
%TO.P,J17,11,11*%
%TO.N,/CCM Helper/Wheel{slash}Shock3 IN*%
X69210000Y-138420001D03*
%TO.P,J17,12,12*%
%TO.N,/CCM Helper/Wheel{slash}Shock4 IN*%
X69210000Y-142620000D03*
%TD*%
D16*
%TO.P,VR4,1,CCW*%
%TO.N,Net-(VR4-CCW)*%
X86830001Y-97459800D03*
%TO.P,VR4,2,WIPER*%
%TO.N,/BSPD/PEDAL_THRESHOLD*%
X84290001Y-99999800D03*
%TO.P,VR4,3,CW*%
%TO.N,Net-(VR4-CW)*%
X81750001Y-97459800D03*
%TD*%
D12*
%TO.P,F8,1*%
%TO.N,/24V*%
X123910000Y-136370000D03*
X118830000Y-136370000D03*
%TO.P,F8,2*%
%TO.N,Net-(J6-Pin_1)*%
X114770000Y-136370000D03*
X109690000Y-136370000D03*
%TD*%
D10*
%TO.P,Q1,1,G*%
%TO.N,/BSPD/FAULT_SENSED*%
X121628001Y-78417400D03*
D11*
%TO.P,Q1,2,D*%
%TO.N,/BSPD/BSPD_FAULT*%
X124168001Y-78417400D03*
%TO.P,Q1,3,S*%
%TO.N,GND*%
X126708001Y-78417400D03*
%TD*%
D12*
%TO.P,F2,1*%
%TO.N,/12V*%
X196470000Y-139100000D03*
X196470000Y-134020000D03*
%TO.P,F2,2*%
%TO.N,+12V*%
X196470000Y-129960000D03*
X196470000Y-124880000D03*
%TD*%
D19*
%TO.P,J5,1,Pin_1*%
%TO.N,Net-(J5-Pin_1)*%
X204317600Y-144830800D03*
D20*
%TO.P,J5,2,Pin_2*%
%TO.N,GND*%
X204317600Y-150330800D03*
%TD*%
D21*
%TO.P,SW1,1,1*%
%TO.N,+12V*%
X157996800Y-80978500D03*
X164496800Y-80978500D03*
%TO.P,SW1,2,2*%
%TO.N,/LATCH/bspd_reset*%
X157996800Y-85478500D03*
X164496800Y-85478500D03*
%TD*%
D22*
%TO.P,J9,1,Pin_1*%
%TO.N,+5V*%
X69444800Y-70172000D03*
D23*
%TO.P,J9,2,Pin_2*%
%TO.N,/BSPD/C_IN*%
X69444800Y-65972000D03*
%TO.P,J9,3,Pin_3*%
%TO.N,unconnected-(J9-Pin_3-Pad3)*%
X74944800Y-70172000D03*
%TO.P,J9,4,Pin_4*%
%TO.N,GND*%
X74944800Y-65972000D03*
%TD*%
D15*
%TO.P,U9,1,+VOUT*%
%TO.N,/5V*%
X165284400Y-132232400D03*
%TO.P,U9,2,TRIM*%
%TO.N,Net-(U9-TRIM)*%
X167824400Y-132232400D03*
%TO.P,U9,3,GND_COMMON*%
%TO.N,GND*%
X170364400Y-132232400D03*
%TO.P,U9,4,+VIN*%
%TO.N,/12V*%
X183064400Y-132232400D03*
%TO.P,U9,5,REMOTE_ON/OFF*%
%TO.N,GND*%
X185604400Y-132232400D03*
%TD*%
D12*
%TO.P,F1,1*%
%TO.N,/12V*%
X190950000Y-134120000D03*
X190950000Y-129040000D03*
%TO.P,F1,2*%
%TO.N,+12V*%
X190950000Y-124980000D03*
X190950000Y-119900000D03*
%TD*%
D16*
%TO.P,VR2,1,CCW*%
%TO.N,Net-(VR2-CCW)*%
X88120401Y-69215000D03*
%TO.P,VR2,2,WIPER*%
%TO.N,/BSPD/SHORT_CIRCUIT*%
X85580401Y-71755000D03*
%TO.P,VR2,3,CW*%
%TO.N,Net-(VR2-CW)*%
X83040401Y-69215000D03*
%TD*%
D12*
%TO.P,F5,1*%
%TO.N,/TSSI/GLV*%
X207710000Y-136380000D03*
X207710000Y-131300000D03*
%TO.P,F5,2*%
%TO.N,/12V*%
X207710000Y-127240000D03*
X207710000Y-122160000D03*
%TD*%
D24*
%TO.P,U3,1,GND*%
%TO.N,GND*%
X69776801Y-78155800D03*
D25*
%TO.P,U3,2,VO*%
%TO.N,+5V*%
X69776801Y-80695800D03*
%TO.P,U3,3,VI*%
%TO.N,+12V*%
X69776801Y-83235800D03*
%TD*%
D24*
%TO.P,Q2,1,G*%
%TO.N,/CCM Helper/TSSI BYP*%
X96723200Y-109677200D03*
D25*
%TO.P,Q2,2,D*%
%TO.N,Net-(D3-A)*%
X96723200Y-112217200D03*
%TO.P,Q2,3,S*%
%TO.N,GND*%
X96723200Y-114757200D03*
%TD*%
D16*
%TO.P,VR1,1,CCW*%
%TO.N,Net-(VR1-CCW)*%
X87846001Y-60833000D03*
%TO.P,VR1,2,WIPER*%
%TO.N,/BSPD/OPEN_CIRCUIT*%
X85306001Y-63373000D03*
%TO.P,VR1,3,CW*%
%TO.N,Net-(VR1-CW)*%
X82766001Y-60833000D03*
%TD*%
D12*
%TO.P,F11,1*%
%TO.N,Net-(J13-VBUS)*%
X183620000Y-159940000D03*
X183620000Y-154860000D03*
%TO.P,F11,2*%
%TO.N,/5V*%
X183620000Y-150800000D03*
X183620000Y-145720000D03*
%TD*%
D22*
%TO.P,J11,1,Pin_1*%
%TO.N,GND*%
X175400000Y-120530000D03*
D23*
%TO.P,J11,2,Pin_2*%
%TO.N,/LATCH/BSPDfault_LED*%
X175400000Y-116330000D03*
%TO.P,J11,3,Pin_3*%
%TO.N,/LATCH/BMSfault_LED*%
X180900000Y-120530000D03*
%TO.P,J11,4,Pin_4*%
%TO.N,/LATCH/IMDfault_LED*%
X180900000Y-116330000D03*
%TD*%
D22*
%TO.P,J7,1,Pin_1*%
%TO.N,Net-(J7-Pin_1)*%
X114950000Y-151000000D03*
D23*
%TO.P,J7,2,Pin_2*%
%TO.N,GND*%
X120450000Y-151000000D03*
%TD*%
D26*
%TO.P,U2,1*%
%TO.N,/BSPD/BRAKE_APPLIED*%
X113398401Y-100152200D03*
D27*
%TO.P,U2,2*%
%TO.N,/BSPD/PEDAL_APPLIED*%
X113398401Y-97612200D03*
%TO.P,U2,3*%
%TO.N,Net-(D1-K)*%
X113398401Y-95072200D03*
%TO.P,U2,4*%
%TO.N,Net-(R4-Pad1)*%
X113398401Y-92532200D03*
%TO.P,U2,5*%
%TO.N,+12V*%
X113398401Y-89992200D03*
%TO.P,U2,6*%
%TO.N,/BSPD/BRAKE_ERROR*%
X113398401Y-87452200D03*
%TO.P,U2,7,VSS*%
%TO.N,GND*%
X113398401Y-84912200D03*
%TO.P,U2,8*%
%TO.N,+12V*%
X105778401Y-84912200D03*
%TO.P,U2,9*%
%TO.N,/BSPD/PEDAL_ERROR*%
X105778401Y-87452200D03*
%TO.P,U2,10*%
%TO.N,Net-(R6-Pad1)*%
X105778401Y-89992200D03*
%TO.P,U2,11*%
%TO.N,Net-(R7-Pad1)*%
X105778401Y-92532200D03*
%TO.P,U2,12*%
%TO.N,+12V*%
X105778401Y-95072200D03*
%TO.P,U2,13*%
%TO.N,/BSPD/BOTH_ON*%
X105778401Y-97612200D03*
%TO.P,U2,14,VDD*%
%TO.N,+12V*%
X105778401Y-100152200D03*
%TD*%
D28*
%TO.P,J1,1,Pin_1*%
%TO.N,/LATCH/GVLM_OUTPUT*%
X144190000Y-72160000D03*
D20*
%TO.P,J1,2,Pin_2*%
%TO.N,Net-(J1-Pin_2)*%
X144190000Y-66660000D03*
%TD*%
D29*
%TO.P,PS1,1,VIN_(+)_1*%
%TO.N,/24V*%
X130405200Y-135887699D03*
D30*
%TO.P,PS1,2,ON/OFF*%
%TO.N,GND*%
X130405200Y-143507699D03*
%TO.P,PS1,3,VIN_(-)_/_GND_1*%
X130405200Y-151127699D03*
D31*
%TO.P,PS1,4,VOUT_(-)_/_GND_1*%
X158345200Y-151127699D03*
D30*
%TO.P,PS1,5,CURRENT_LIMIT_(OCP)_ADJUST*%
%TO.N,Net-(PS1-CURRENT_LIMIT_(OCP)_ADJUST)*%
X158345200Y-147317699D03*
%TO.P,PS1,6,TRIM*%
%TO.N,Net-(PS1-TRIM)*%
X158345200Y-143507699D03*
%TO.P,PS1,7,SENSE+*%
%TO.N,Net-(PS1-SENSE+)*%
X158345200Y-139697699D03*
D31*
%TO.P,PS1,8,VOUT_(+)_1*%
X158345200Y-135887699D03*
D30*
%TO.P,PS1,9,VIN_(+)_2*%
%TO.N,/24V*%
X130405200Y-139697699D03*
%TO.P,PS1,10,VIN_(-)_/_GND_2*%
%TO.N,GND*%
X130405200Y-147317699D03*
D31*
%TO.P,PS1,11,VOUT_(-)_/_GND_2*%
X158345200Y-154937699D03*
%TO.P,PS1,12,VOUT_(+)_2*%
%TO.N,Net-(PS1-SENSE+)*%
X158345200Y-132077699D03*
%TD*%
D12*
%TO.P,F7,1*%
%TO.N,/12V*%
X202430000Y-124840000D03*
X202430000Y-129920000D03*
%TO.P,F7,2*%
%TO.N,Net-(J5-Pin_1)*%
X202430000Y-133980000D03*
X202430000Y-139060000D03*
%TD*%
%TO.P,F4,1*%
%TO.N,/CCM Helper/24V*%
X109490000Y-157030000D03*
X114570000Y-157030000D03*
%TO.P,F4,2*%
%TO.N,/24V*%
X118630000Y-157030000D03*
X123710000Y-157030000D03*
%TD*%
%TO.P,F9,1*%
%TO.N,/24V*%
X124040000Y-145510000D03*
X118960000Y-145510000D03*
%TO.P,F9,2*%
%TO.N,Net-(J7-Pin_1)*%
X114900000Y-145510000D03*
X109820000Y-145510000D03*
%TD*%
D32*
%TO.P,U8,1,GND*%
%TO.N,GND*%
X209703600Y-106136400D03*
D27*
%TO.P,U8,2,TR*%
%TO.N,Net-(U8-THR)*%
X209703600Y-108676400D03*
%TO.P,U8,3,Q*%
%TO.N,Net-(Q4-G)*%
X209703600Y-111216400D03*
%TO.P,U8,4,R*%
%TO.N,/TSSI/GREEN_LED*%
X209703600Y-113756400D03*
%TO.P,U8,5,CV*%
%TO.N,Net-(U8-CV)*%
X217323600Y-113756400D03*
%TO.P,U8,6,THR*%
%TO.N,Net-(U8-THR)*%
X217323600Y-111216400D03*
%TO.P,U8,7,DIS*%
%TO.N,Net-(U8-DIS)*%
X217323600Y-108676400D03*
%TO.P,U8,8,VCC*%
%TO.N,/TSSI/GLV*%
X217323600Y-106136400D03*
%TD*%
D32*
%TO.P,U4,1*%
%TO.N,/BSPD/BRAKE_SHORT*%
X93484801Y-62255400D03*
D27*
%TO.P,U4,2,-*%
%TO.N,/BSPD/BRAKE*%
X93484801Y-64795400D03*
%TO.P,U4,3,+*%
%TO.N,/BSPD/SHORT_CIRCUIT*%
X93484801Y-67335400D03*
%TO.P,U4,4,V-*%
%TO.N,GND*%
X93484801Y-69875400D03*
%TO.P,U4,5,+*%
%TO.N,/BSPD/BRAKE*%
X101104801Y-69875400D03*
%TO.P,U4,6,-*%
%TO.N,/BSPD/OPEN_CIRCUIT*%
X101104801Y-67335400D03*
%TO.P,U4,7*%
%TO.N,/BSPD/BRAKE_OPEN*%
X101104801Y-64795400D03*
%TO.P,U4,8,V+*%
%TO.N,+12V*%
X101104801Y-62255400D03*
%TD*%
D19*
%TO.P,J4,1,Pin_1*%
%TO.N,Net-(J4-Pin_1)*%
X178663600Y-67616000D03*
D20*
%TO.P,J4,2,Pin_2*%
%TO.N,GND*%
X182863600Y-67616000D03*
%TO.P,J4,3,Pin_3*%
%TO.N,/IMD Fault*%
X178663600Y-73116000D03*
%TO.P,J4,4,Pin_4*%
%TO.N,/BMS FAULT*%
X182863600Y-73116000D03*
%TD*%
D28*
%TO.P,J2,1,Pin_1*%
%TO.N,Net-(J1-Pin_2)*%
X155610000Y-71550000D03*
D20*
%TO.P,J2,2,Pin_2*%
%TO.N,Net-(J2-Pin_2)*%
X155610000Y-66050000D03*
%TD*%
D33*
%TO.P,K1,1,1*%
%TO.N,/BSPD/BSPD_FAULT*%
X144576800Y-78282000D03*
%TO.P,K1,3,3*%
%TO.N,/LATCH/GVLM_OUTPUT*%
X144576800Y-88442000D03*
%TO.P,K1,4,4*%
%TO.N,/LATCH/bms_imd_latch_only*%
X144576800Y-96062000D03*
%TO.P,K1,5,5*%
%TO.N,+12V*%
X152196800Y-96062000D03*
%TO.P,K1,6,6*%
%TO.N,Net-(D5-A)*%
X152196800Y-88442000D03*
%TO.P,K1,8,8*%
%TO.N,/LATCH/bspd_reset*%
X152196800Y-78282000D03*
%TD*%
D32*
%TO.P,U6,1*%
%TO.N,/BSPD/BRAKE_OPEN*%
X106337201Y-62153800D03*
D27*
%TO.P,U6,2*%
%TO.N,/BSPD/BRAKE_SHORT*%
X106337201Y-64693800D03*
%TO.P,U6,3*%
%TO.N,/BSPD/BRAKE_ERROR*%
X106337201Y-67233800D03*
%TO.P,U6,4*%
%TO.N,/BSPD/PEDAL_ERROR*%
X106337201Y-69773800D03*
%TO.P,U6,5*%
%TO.N,/BSPD/PEDAL_OPEN*%
X106337201Y-72313800D03*
%TO.P,U6,6*%
%TO.N,/BSPD/PEDAL_SHORT*%
X106337201Y-74853800D03*
%TO.P,U6,7,VSS*%
%TO.N,GND*%
X106337201Y-77393800D03*
%TO.P,U6,8*%
%TO.N,/BSPD/BRAKE_ERROR*%
X113957201Y-77393800D03*
%TO.P,U6,9*%
%TO.N,/BSPD/PEDAL_ERROR*%
X113957201Y-74853800D03*
%TO.P,U6,10*%
%TO.N,Net-(U6-Pad10)*%
X113957201Y-72313800D03*
%TO.P,U6,11*%
%TO.N,/BSPD/FAULT_SENSED*%
X113957201Y-69773800D03*
%TO.P,U6,12*%
%TO.N,/BSPD/BOTH_ON*%
X113957201Y-67233800D03*
%TO.P,U6,13*%
%TO.N,Net-(U6-Pad10)*%
X113957201Y-64693800D03*
%TO.P,U6,14,VDD*%
%TO.N,+12V*%
X113957201Y-62153800D03*
%TD*%
D22*
%TO.P,J16,1,Pin_1*%
%TO.N,/CCM Helper/12V*%
X70866000Y-149809200D03*
D23*
%TO.P,J16,2,Pin_2*%
%TO.N,/CCM Helper/Brakelight*%
X76366000Y-149809200D03*
%TD*%
D28*
%TO.P,J8,1,Pin_1*%
%TO.N,Net-(J8-Pin_1)*%
X177800000Y-159307600D03*
D20*
%TO.P,J8,2,Pin_2*%
%TO.N,GND*%
X177800000Y-153807600D03*
%TD*%
D34*
%TO.P,C21,1*%
%TO.N,/24V*%
X119720000Y-128200000D03*
D35*
%TO.P,C21,2*%
%TO.N,GND*%
X119720000Y-123200000D03*
%TD*%
D33*
%TO.P,K3,1,1*%
%TO.N,/BMS FAULT*%
X191820800Y-78740000D03*
%TO.P,K3,3,3*%
%TO.N,+12V*%
X191820800Y-88900000D03*
%TO.P,K3,4,4*%
%TO.N,Net-(K2-Pad4)*%
X191820800Y-96520000D03*
%TO.P,K3,5,5*%
%TO.N,+12V*%
X199440800Y-96520000D03*
%TO.P,K3,6,6*%
%TO.N,Net-(D10-A)*%
X199440800Y-88900000D03*
%TO.P,K3,8,8*%
%TO.N,/LATCH/bms_reset*%
X199440800Y-78740000D03*
%TD*%
D12*
%TO.P,F3,1*%
%TO.N,/CCM Helper/12V*%
X165557200Y-160223200D03*
X165557200Y-155143200D03*
%TO.P,F3,2*%
%TO.N,/12V*%
X165557200Y-151083200D03*
X165557200Y-146003200D03*
%TD*%
D15*
%TO.P,J18,1,1*%
%TO.N,/CCM Helper/TSSI BYP*%
X90000000Y-115295905D03*
%TO.P,J18,2,2*%
%TO.N,/CCM Helper/CCM fdbk*%
X90000000Y-119495905D03*
%TO.P,J18,3,3*%
%TO.N,/CCM Helper/Speaker IN*%
X90000000Y-123695904D03*
%TO.P,J18,4,4*%
%TO.N,/CCM Helper/CCMGND*%
X90000000Y-127895903D03*
%TO.P,J18,5,5*%
%TO.N,/BSPD/B_IN*%
X90000000Y-132095902D03*
%TO.P,J18,6,6*%
%TO.N,/CCM Helper/BPS2 OUT*%
X90000000Y-136295902D03*
%TO.P,J18,7,7*%
%TO.N,/CCM Helper/CCM3v3*%
X90000000Y-140495901D03*
%TO.P,J18,8,8*%
%TO.N,/CCM Helper/APPS1 OUT*%
X90000000Y-144695900D03*
%TO.P,J18,9,9*%
%TO.N,/CCM Helper/APPS2 OUT*%
X90000000Y-148895899D03*
%TO.P,J18,10,10*%
%TO.N,/CCM Helper/24V*%
X90000000Y-153095899D03*
%TO.P,J18,11,11*%
%TO.N,/CCM Helper/RTDB*%
X84500001Y-115295905D03*
%TO.P,J18,12,12*%
%TO.N,GND*%
X84500001Y-119495905D03*
%TO.P,J18,13,13*%
%TO.N,/CCM Helper/5V*%
X84500001Y-123695904D03*
%TO.P,J18,14,14*%
%TO.N,/CCM Helper/Wheel{slash}Shock1 OUT*%
X84500001Y-127895903D03*
%TO.P,J18,15,15*%
%TO.N,/CCM Helper/Wheel{slash}Shock2 OUT*%
X84500001Y-132095902D03*
%TO.P,J18,16,16*%
%TO.N,/CCM Helper/Wheel{slash}Shock3 OUT*%
X84500001Y-136295902D03*
%TO.P,J18,17,17*%
%TO.N,/CCM Helper/Wheel{slash}Shock4 OUT*%
X84500001Y-140495901D03*
%TO.P,J18,18,18*%
%TO.N,unconnected-(J18-Pad18)*%
X84500001Y-144695900D03*
%TO.P,J18,19,19*%
%TO.N,/CCM Helper/Brakelight*%
X84500001Y-148895899D03*
%TO.P,J18,20,20*%
%TO.N,/CCM Helper/12V*%
X84500001Y-153095899D03*
%TD*%
%TO.P,J14,1,1*%
%TO.N,unconnected-(J14-Pad1)*%
X97200000Y-152999999D03*
%TO.P,J14,2,2*%
%TO.N,/CCM Helper/CCMGND*%
X97200000Y-148800000D03*
%TO.P,J14,3,3*%
X97200000Y-144600001D03*
%TO.P,J14,4,4*%
%TO.N,/CCM Helper/CCM3v3*%
X97200000Y-140400001D03*
%TO.P,J14,5,5*%
%TO.N,/CCM Helper/CCMGND*%
X97200000Y-136200002D03*
%TO.P,J14,6,6*%
X97200000Y-132000003D03*
%TO.P,J14,7,7*%
%TO.N,/CCM Helper/5V*%
X97200000Y-127800004D03*
%TO.P,J14,8,8*%
%TO.N,unconnected-(J14-Pad8)*%
X102699999Y-152999999D03*
%TO.P,J14,9,9*%
%TO.N,/CCM Helper/APPS2 IN*%
X102699999Y-148800000D03*
%TO.P,J14,10,10*%
%TO.N,/CCM Helper/APPS1 IN*%
X102699999Y-144600001D03*
%TO.P,J14,11,11*%
%TO.N,/CCM Helper/CCM3v3*%
X102699999Y-140400001D03*
%TO.P,J14,12,12*%
%TO.N,/CCM Helper/BPS2 IN*%
X102699999Y-136200002D03*
%TO.P,J14,13,13*%
%TO.N,/CCM Helper/BPS1 IN*%
X102699999Y-132000003D03*
%TO.P,J14,14,14*%
%TO.N,/CCM Helper/5V*%
X102699999Y-127800004D03*
%TD*%
D32*
%TO.P,U5,1*%
%TO.N,/BSPD/BRAKE_APPLIED*%
X93942001Y-92583000D03*
D27*
%TO.P,U5,2,-*%
%TO.N,/BSPD/BRAKE_THRESHOLD*%
X93942001Y-95123000D03*
%TO.P,U5,3,+*%
%TO.N,/BSPD/BRAKE*%
X93942001Y-97663000D03*
%TO.P,U5,4,V-*%
%TO.N,GND*%
X93942001Y-100203000D03*
%TO.P,U5,5,+*%
%TO.N,/BSPD/CURRENT*%
X101562001Y-100203000D03*
%TO.P,U5,6,-*%
%TO.N,/BSPD/PEDAL_THRESHOLD*%
X101562001Y-97663000D03*
%TO.P,U5,7*%
%TO.N,/BSPD/PEDAL_APPLIED*%
X101562001Y-95123000D03*
%TO.P,U5,8,V+*%
%TO.N,+12V*%
X101562001Y-92583000D03*
%TD*%
D13*
%TO.P,D8,1,K*%
%TO.N,Net-(D8-K)*%
X183642000Y-90017600D03*
D14*
%TO.P,D8,2,A*%
%TO.N,/LATCH/imd_reset*%
X186182000Y-90017600D03*
%TD*%
D10*
%TO.P,Q4,1,G*%
%TO.N,Net-(Q4-G)*%
X218592400Y-118966000D03*
D11*
%TO.P,Q4,2,D*%
%TO.N,/TSSI/RED_LED*%
X216052400Y-118966000D03*
%TO.P,Q4,3,S*%
%TO.N,GND*%
X213512400Y-118966000D03*
%TD*%
D22*
%TO.P,J15,1,Pin_1*%
%TO.N,/CCM Helper/CCM3v3*%
X69733600Y-111997101D03*
D23*
%TO.P,J15,2,Pin_2*%
%TO.N,/CCM Helper/RTDB*%
X75233600Y-111997101D03*
%TD*%
D36*
%TO.P,J13,1,VBUS*%
%TO.N,Net-(J13-VBUS)*%
X189820400Y-157779600D03*
%TO.P,J13,2,D-*%
%TO.N,unconnected-(J13-D--Pad2)*%
X189820400Y-155279600D03*
%TO.P,J13,3,D+*%
%TO.N,unconnected-(J13-D+-Pad3)*%
X189820400Y-153279600D03*
%TO.P,J13,4,GND*%
%TO.N,GND*%
X189820400Y-150779600D03*
D37*
%TO.P,J13,S1*%
X192530400Y-160849600D03*
%TO.P,J13,S2*%
X192530400Y-147709600D03*
%TD*%
D33*
%TO.P,K2,1,1*%
%TO.N,GND*%
X169442800Y-78488500D03*
%TO.P,K2,3,3*%
%TO.N,/LATCH/bms_imd_latch_only*%
X169442800Y-88648500D03*
%TO.P,K2,4,4*%
%TO.N,Net-(K2-Pad4)*%
X169442800Y-96268500D03*
%TO.P,K2,5,5*%
%TO.N,/IMD Fault*%
X177062800Y-96268500D03*
%TO.P,K2,6,6*%
%TO.N,/LATCH/imd_reset*%
X177062800Y-88648500D03*
%TO.P,K2,8,8*%
X177062800Y-78488500D03*
%TD*%
D13*
%TO.P,D11,1,K*%
%TO.N,Net-(D11-K)*%
X203855400Y-93472000D03*
D14*
%TO.P,D11,2,A*%
%TO.N,/LATCH/bms_reset*%
X206395400Y-93472000D03*
%TD*%
D32*
%TO.P,U7,1*%
%TO.N,/BSPD/PEDAL_SHORT*%
X93840401Y-77393800D03*
D27*
%TO.P,U7,2,-*%
%TO.N,/BSPD/CURRENT*%
X93840401Y-79933800D03*
%TO.P,U7,3,+*%
%TO.N,/BSPD/SHORT_CIRCUIT*%
X93840401Y-82473800D03*
%TO.P,U7,4,V-*%
%TO.N,GND*%
X93840401Y-85013800D03*
%TO.P,U7,5,+*%
%TO.N,/BSPD/CURRENT*%
X101460401Y-85013800D03*
%TO.P,U7,6,-*%
%TO.N,/BSPD/OPEN_CIRCUIT*%
X101460401Y-82473800D03*
%TO.P,U7,7*%
%TO.N,/BSPD/PEDAL_OPEN*%
X101460401Y-79933800D03*
%TO.P,U7,8,V+*%
%TO.N,+12V*%
X101460401Y-77393800D03*
%TD*%
D21*
%TO.P,SW3,1,1*%
%TO.N,+12V*%
X192430400Y-70205600D03*
X198930400Y-70205600D03*
%TO.P,SW3,2,2*%
%TO.N,/LATCH/bms_reset*%
X192430400Y-74705600D03*
X198930400Y-74705600D03*
%TD*%
D32*
%TO.P,U1,1*%
%TO.N,Net-(C4-Pad1)*%
X122580400Y-83058000D03*
D27*
%TO.P,U1,2*%
%TO.N,Net-(U1-Pad2)*%
X122580400Y-85598000D03*
%TO.P,U1,3*%
X122580400Y-88138000D03*
%TO.P,U1,4*%
%TO.N,Net-(U1-Pad4)*%
X122580400Y-90678000D03*
%TO.P,U1,5*%
%TO.N,GND*%
X122580400Y-93218000D03*
%TO.P,U1,6*%
%TO.N,unconnected-(U1-Pad6)*%
X122580400Y-95758000D03*
%TO.P,U1,7,VSS*%
%TO.N,GND*%
X122580400Y-98298000D03*
%TO.P,U1,8*%
%TO.N,unconnected-(U1-Pad8)*%
X130200400Y-98298000D03*
%TO.P,U1,9*%
%TO.N,GND*%
X130200400Y-95758000D03*
%TO.P,U1,10*%
%TO.N,unconnected-(U1-Pad10)*%
X130200400Y-93218000D03*
%TO.P,U1,11*%
%TO.N,GND*%
X130200400Y-90678000D03*
%TO.P,U1,12*%
%TO.N,unconnected-(U1-Pad12)*%
X130200400Y-88138000D03*
%TO.P,U1,13*%
%TO.N,GND*%
X130200400Y-85598000D03*
%TO.P,U1,14,VDD*%
%TO.N,+12V*%
X130200400Y-83058000D03*
%TD*%
D28*
%TO.P,J10,1,Pin_1*%
%TO.N,/TSSI/GLV*%
X215747600Y-148959200D03*
D20*
%TO.P,J10,2,Pin_2*%
X211547600Y-148959200D03*
%TO.P,J10,3,Pin_3*%
%TO.N,/TSSI/GREEN_LED*%
X215747600Y-143459200D03*
%TO.P,J10,4,Pin_4*%
%TO.N,/TSSI/RED_LED*%
X211547600Y-143459200D03*
%TD*%
D22*
%TO.P,J3,1,Pin_1*%
%TO.N,unconnected-(J3-Pin_1-Pad1)*%
X211175600Y-156718000D03*
D23*
%TO.P,J3,2,Pin_2*%
%TO.N,Net-(J2-Pin_2)*%
X216675600Y-156718000D03*
%TD*%
D21*
%TO.P,SW2,1,1*%
%TO.N,/IMD Fault*%
X181090000Y-79680000D03*
X187590000Y-79680000D03*
%TO.P,SW2,2,2*%
%TO.N,/LATCH/imd_reset*%
X181090000Y-84180000D03*
X187590000Y-84180000D03*
%TD*%
D12*
%TO.P,F10,1*%
%TO.N,/5V*%
X171500000Y-145770000D03*
X171500000Y-150850000D03*
%TO.P,F10,2*%
%TO.N,Net-(J8-Pin_1)*%
X171500000Y-154910000D03*
X171500000Y-159990000D03*
%TD*%
D28*
%TO.P,J6,1,Pin_1*%
%TO.N,Net-(J6-Pin_1)*%
X109510000Y-129970000D03*
D20*
%TO.P,J6,2,Pin_2*%
%TO.N,GND*%
X109510000Y-124470000D03*
%TD*%
D38*
%TO.P,R33,1*%
%TO.N,/TSSI/GLV*%
X215036400Y-105566200D03*
%TO.P,R33,2*%
%TO.N,Net-(U8-DIS)*%
X215036400Y-107391200D03*
%TD*%
D39*
%TO.P,C19,1*%
%TO.N,/CCM Helper/BPS2 IN*%
X99960199Y-138327902D03*
%TO.P,C19,2*%
%TO.N,/CCM Helper/CCMGND*%
X98060199Y-138327902D03*
%TD*%
D40*
%TO.P,D7,1,K*%
%TO.N,/LATCH/bspd_reset*%
X149148800Y-78232000D03*
%TO.P,D7,2,A*%
%TO.N,/BSPD/BSPD_FAULT*%
X147573800Y-78232000D03*
%TD*%
D41*
%TO.P,R29,1*%
%TO.N,Net-(D2-K)*%
X205841600Y-81836900D03*
%TO.P,R29,2*%
%TO.N,GND*%
X205841600Y-80011900D03*
%TD*%
D42*
%TO.P,R10,1*%
%TO.N,+12V*%
X81414801Y-72564600D03*
%TO.P,R10,2*%
%TO.N,Net-(VR2-CW)*%
X81414801Y-70914600D03*
%TD*%
D39*
%TO.P,C18,1*%
%TO.N,/CCM Helper/BPS1 IN*%
X99960199Y-134111502D03*
%TO.P,C18,2*%
%TO.N,/CCM Helper/CCMGND*%
X98060199Y-134111502D03*
%TD*%
D43*
%TO.P,R27,1*%
%TO.N,Net-(R26-Pad2)*%
X104644100Y-115210800D03*
%TO.P,R27,2*%
%TO.N,Net-(D3-A)*%
X102819100Y-115210800D03*
%TD*%
D42*
%TO.P,R5,1*%
%TO.N,/BSPD/CURRENT*%
X75247601Y-76694800D03*
%TO.P,R5,2*%
%TO.N,/BSPD/C_IN*%
X75247601Y-75044800D03*
%TD*%
D44*
%TO.P,C32,1*%
%TO.N,/CCM Helper/Wheel{slash}Shock2 IN*%
X72920000Y-132150000D03*
%TO.P,C32,2*%
%TO.N,/CCM Helper/CCMGND*%
X74820000Y-132150000D03*
%TD*%
D45*
%TO.P,R20,1*%
%TO.N,/BSPD/BRAKE_APPLIED*%
X96024801Y-91695000D03*
%TO.P,R20,2*%
%TO.N,+12V*%
X96024801Y-93345000D03*
%TD*%
D46*
%TO.P,D1,1,K*%
%TO.N,Net-(D1-K)*%
X116547801Y-96748600D03*
%TO.P,D1,2,A*%
%TO.N,Net-(D1-A)*%
X118122801Y-96748600D03*
%TD*%
D47*
%TO.P,D5,1,K*%
%TO.N,/LATCH/bspd_reset*%
X152806400Y-82245200D03*
%TO.P,D5,2,A*%
%TO.N,Net-(D5-A)*%
X152806400Y-83820200D03*
%TD*%
D48*
%TO.P,R38,1*%
%TO.N,Net-(D6-K)*%
X157600400Y-89103200D03*
%TO.P,R38,2*%
%TO.N,/BSPD/BSPD_FAULT*%
X155600400Y-89103200D03*
%TD*%
D10*
%TO.P,Q5,1,G*%
%TO.N,Net-(Q5-G)*%
X135585200Y-103522800D03*
D11*
%TO.P,Q5,2,D*%
%TO.N,/LATCH/BSPDfault_LED*%
X138125200Y-103522800D03*
%TO.P,Q5,3,S*%
%TO.N,+12V*%
X140665200Y-103522800D03*
%TD*%
D45*
%TO.P,R14,1*%
%TO.N,Net-(VR3-CCW)*%
X90132001Y-90234000D03*
%TO.P,R14,2*%
%TO.N,GND*%
X90132001Y-91884000D03*
%TD*%
D49*
%TO.P,R31,1*%
%TO.N,Net-(D2-K)*%
X210163400Y-92252800D03*
%TO.P,R31,2*%
%TO.N,Net-(D4-A)*%
X211988400Y-92252800D03*
%TD*%
D50*
%TO.P,R41,1*%
%TO.N,Net-(D8-K)*%
X180441600Y-89528400D03*
%TO.P,R41,2*%
%TO.N,GND*%
X180441600Y-87528400D03*
%TD*%
D41*
%TO.P,R30,1*%
%TO.N,/CCM Helper/CCM fdbk*%
X141224000Y-90220800D03*
%TO.P,R30,2*%
%TO.N,GND*%
X141224000Y-88395800D03*
%TD*%
%TO.P,R50,1*%
%TO.N,/CCM Helper/Speaker IN*%
X123494800Y-115109000D03*
%TO.P,R50,2*%
%TO.N,/CCM Helper/Speaker LPF'd*%
X123494800Y-113284000D03*
%TD*%
%TO.P,R28,1*%
%TO.N,/LATCH/bms_imd_latch_only*%
X141224000Y-93776800D03*
%TO.P,R28,2*%
%TO.N,/CCM Helper/CCM fdbk*%
X141224000Y-91951800D03*
%TD*%
D51*
%TO.P,C8,1*%
%TO.N,+12V*%
X99251201Y-77089000D03*
%TO.P,C8,2*%
%TO.N,GND*%
X97701201Y-77089000D03*
%TD*%
D47*
%TO.P,D10,1,K*%
%TO.N,/LATCH/bms_reset*%
X199652800Y-83874100D03*
%TO.P,D10,2,A*%
%TO.N,Net-(D10-A)*%
X199652800Y-85449100D03*
%TD*%
D52*
%TO.P,C12,1*%
%TO.N,Net-(U8-CV)*%
X215087200Y-114350800D03*
%TO.P,C12,2*%
%TO.N,GND*%
X215087200Y-112450800D03*
%TD*%
D53*
%TO.P,C16,1*%
%TO.N,/5V*%
X165435000Y-139360000D03*
%TO.P,C16,2*%
%TO.N,GND*%
X170710000Y-139360000D03*
%TD*%
D54*
%TO.P,C1,1*%
%TO.N,+12V*%
X76060401Y-83642200D03*
%TO.P,C1,2*%
%TO.N,GND*%
X76060401Y-82092200D03*
%TD*%
D45*
%TO.P,R16,1*%
%TO.N,Net-(VR4-CCW)*%
X88506401Y-99085400D03*
%TO.P,R16,2*%
%TO.N,GND*%
X88506401Y-100735400D03*
%TD*%
D55*
%TO.P,R4,1*%
%TO.N,Net-(R4-Pad1)*%
X116066401Y-91313000D03*
%TO.P,R4,2*%
%TO.N,Net-(brkErr1-A)*%
X117716401Y-91313000D03*
%TD*%
D38*
%TO.P,R32,1*%
%TO.N,/TSSI/GLV*%
X208686400Y-79908400D03*
%TO.P,R32,2*%
%TO.N,/TSSI/GREEN_LED*%
X208686400Y-81733400D03*
%TD*%
D56*
%TO.P,R42,1*%
%TO.N,Net-(Q7-G)*%
X175698400Y-92760800D03*
%TO.P,R42,2*%
%TO.N,Net-(D10-A)*%
X177698400Y-92760800D03*
%TD*%
D48*
%TO.P,R37,1*%
%TO.N,Net-(D5-A)*%
X149555200Y-88798400D03*
%TO.P,R37,2*%
%TO.N,GND*%
X147555200Y-88798400D03*
%TD*%
D51*
%TO.P,C5,1*%
%TO.N,+12V*%
X127508000Y-82951400D03*
%TO.P,C5,2*%
%TO.N,GND*%
X125958000Y-82951400D03*
%TD*%
D38*
%TO.P,R52,1*%
%TO.N,Net-(PS1-TRIM)*%
X161391600Y-145139400D03*
%TO.P,R52,2*%
%TO.N,GND*%
X161391600Y-146964400D03*
%TD*%
D49*
%TO.P,R56,1*%
%TO.N,/CCM Helper/Wheel{slash}Shock4 OUT*%
X69679800Y-140546701D03*
%TO.P,R56,2*%
%TO.N,/CCM Helper/Wheel{slash}Shock4 IN*%
X71504800Y-140546701D03*
%TD*%
D45*
%TO.P,R1,1*%
%TO.N,GND*%
X87642801Y-84558200D03*
%TO.P,R1,2*%
%TO.N,/BSPD/BRAKE*%
X87642801Y-86208200D03*
%TD*%
%TO.P,R9,1*%
%TO.N,Net-(VR1-CCW)*%
X89522401Y-62485000D03*
%TO.P,R9,2*%
%TO.N,GND*%
X89522401Y-64135000D03*
%TD*%
D57*
%TO.P,C6,1*%
%TO.N,+12V*%
X108241601Y-100507800D03*
%TO.P,C6,2*%
%TO.N,GND*%
X109791601Y-100507800D03*
%TD*%
D49*
%TO.P,R53,1*%
%TO.N,/CCM Helper/Wheel{slash}Shock1 OUT*%
X69578200Y-127897501D03*
%TO.P,R53,2*%
%TO.N,/CCM Helper/Wheel{slash}Shock1 IN*%
X71403200Y-127897501D03*
%TD*%
D45*
%TO.P,R11,1*%
%TO.N,Net-(VR2-CCW)*%
X89949201Y-70953200D03*
%TO.P,R11,2*%
%TO.N,GND*%
X89949201Y-72603200D03*
%TD*%
D58*
%TO.P,R6,1*%
%TO.N,Net-(R6-Pad1)*%
X115150001Y-103505000D03*
%TO.P,R6,2*%
%TO.N,Net-(OutOfRange1-A)*%
X113500001Y-103505000D03*
%TD*%
D44*
%TO.P,C34,1*%
%TO.N,/CCM Helper/Wheel{slash}Shock4 IN*%
X73028800Y-140546701D03*
%TO.P,C34,2*%
%TO.N,/CCM Helper/CCMGND*%
X74928800Y-140546701D03*
%TD*%
D53*
%TO.P,C23,1*%
%TO.N,/12V*%
X182265000Y-137820000D03*
%TO.P,C23,2*%
%TO.N,GND*%
X187540000Y-137820000D03*
%TD*%
D56*
%TO.P,R39,1*%
%TO.N,Net-(Q6-G)*%
X175038000Y-86258400D03*
%TO.P,R39,2*%
%TO.N,/LATCH/imd_reset*%
X177038000Y-86258400D03*
%TD*%
D45*
%TO.P,R24,1*%
%TO.N,/BSPD/PEDAL_SHORT*%
X95821601Y-77267800D03*
%TO.P,R24,2*%
%TO.N,+12V*%
X95821601Y-78917800D03*
%TD*%
D42*
%TO.P,R19,1*%
%TO.N,/BSPD/BRAKE_OPEN*%
X98869601Y-64464200D03*
%TO.P,R19,2*%
%TO.N,+12V*%
X98869601Y-62814200D03*
%TD*%
D47*
%TO.P,D9,1,K*%
%TO.N,/LATCH/imd_reset*%
X177038000Y-80644900D03*
%TO.P,D9,2,A*%
%TO.N,GND*%
X177038000Y-82219900D03*
%TD*%
D52*
%TO.P,C11,1*%
%TO.N,Net-(U8-THR)*%
X215087200Y-110896400D03*
%TO.P,C11,2*%
%TO.N,GND*%
X215087200Y-108996400D03*
%TD*%
D51*
%TO.P,C4,1*%
%TO.N,Net-(C4-Pad1)*%
X117437601Y-98729800D03*
%TO.P,C4,2*%
%TO.N,GND*%
X115887601Y-98729800D03*
%TD*%
D42*
%TO.P,R2,1*%
%TO.N,GND*%
X78041601Y-79883000D03*
%TO.P,R2,2*%
%TO.N,/BSPD/CURRENT*%
X78041601Y-78233000D03*
%TD*%
D50*
%TO.P,R43,1*%
%TO.N,Net-(D10-A)*%
X197002400Y-87258400D03*
%TO.P,R43,2*%
%TO.N,GND*%
X197002400Y-85258400D03*
%TD*%
%TO.P,R44,1*%
%TO.N,Net-(D11-K)*%
X199948800Y-93135200D03*
%TO.P,R44,2*%
%TO.N,/BMS FAULT*%
X199948800Y-91135200D03*
%TD*%
D42*
%TO.P,R12,1*%
%TO.N,/BSPD/FAULT_SENSED*%
X120040400Y-75336400D03*
%TO.P,R12,2*%
%TO.N,GND*%
X120040400Y-73686400D03*
%TD*%
D59*
%TO.P,C3,1*%
%TO.N,/BSPD/CURRENT*%
X75247601Y-78383800D03*
%TO.P,C3,2*%
%TO.N,GND*%
X75247601Y-79933800D03*
%TD*%
D60*
%TO.P,C30,1*%
%TO.N,Net-(PS1-SENSE+)*%
X155041600Y-141523600D03*
%TO.P,C30,2*%
%TO.N,GND*%
X155041600Y-143423600D03*
%TD*%
D10*
%TO.P,Q6,1,G*%
%TO.N,Net-(Q6-G)*%
X148031200Y-103065600D03*
D11*
%TO.P,Q6,2,D*%
%TO.N,/LATCH/IMDfault_LED*%
X150571200Y-103065600D03*
%TO.P,Q6,3,S*%
%TO.N,+12V*%
X153111200Y-103065600D03*
%TD*%
D61*
%TO.P,C29,1*%
%TO.N,Net-(PS1-SENSE+)*%
X148132800Y-139918400D03*
%TO.P,C29,2*%
%TO.N,GND*%
X148132800Y-145193400D03*
%TD*%
D49*
%TO.P,R54,1*%
%TO.N,/CCM Helper/Wheel{slash}Shock2 OUT*%
X69525500Y-132063101D03*
%TO.P,R54,2*%
%TO.N,/CCM Helper/Wheel{slash}Shock2 IN*%
X71350500Y-132063101D03*
%TD*%
D58*
%TO.P,R7,1*%
%TO.N,Net-(R7-Pad1)*%
X108692001Y-103352600D03*
%TO.P,R7,2*%
%TO.N,Net-(BothThreshold1-A)*%
X107042001Y-103352600D03*
%TD*%
D39*
%TO.P,C14,1*%
%TO.N,/CCM Helper/APPS2 IN*%
X99960199Y-146709902D03*
%TO.P,C14,2*%
%TO.N,/CCM Helper/CCMGND*%
X98060199Y-146709902D03*
%TD*%
D58*
%TO.P,R23,1*%
%TO.N,Net-(D1-A)*%
X120497600Y-95123000D03*
%TO.P,R23,2*%
%TO.N,Net-(C4-Pad1)*%
X118847600Y-95123000D03*
%TD*%
D42*
%TO.P,R15,1*%
%TO.N,+12V*%
X79972001Y-100761800D03*
%TO.P,R15,2*%
%TO.N,Net-(VR4-CW)*%
X79972001Y-99111800D03*
%TD*%
D60*
%TO.P,C22,1*%
%TO.N,/24V*%
X134772400Y-140477200D03*
%TO.P,C22,2*%
%TO.N,GND*%
X134772400Y-142377200D03*
%TD*%
D42*
%TO.P,R8,1*%
%TO.N,+12V*%
X80988001Y-64159400D03*
%TO.P,R8,2*%
%TO.N,Net-(VR1-CW)*%
X80988001Y-62509400D03*
%TD*%
D58*
%TO.P,R17,1*%
%TO.N,+12V*%
X132066401Y-80187800D03*
%TO.P,R17,2*%
%TO.N,/BSPD/BSPD_FAULT*%
X130416401Y-80187800D03*
%TD*%
D62*
%TO.P,C35,1*%
%TO.N,Net-(PS1-SENSE+)*%
X149530000Y-136585000D03*
%TO.P,C35,2*%
%TO.N,GND*%
X149530000Y-131310000D03*
%TD*%
D10*
%TO.P,Q7,1,G*%
%TO.N,Net-(Q7-G)*%
X160477200Y-103515200D03*
D11*
%TO.P,Q7,2,D*%
%TO.N,/LATCH/BMSfault_LED*%
X163017200Y-103515200D03*
%TO.P,Q7,3,S*%
%TO.N,+12V*%
X165557200Y-103515200D03*
%TD*%
D49*
%TO.P,R46,1*%
%TO.N,/CCM Helper/APPS1 IN*%
X101514599Y-142544302D03*
%TO.P,R46,2*%
%TO.N,/CCM Helper/APPS1 OUT*%
X103339599Y-142544302D03*
%TD*%
D61*
%TO.P,C25,1*%
%TO.N,Net-(PS1-SENSE+)*%
X141730000Y-140015000D03*
%TO.P,C25,2*%
%TO.N,GND*%
X141730000Y-145290000D03*
%TD*%
D56*
%TO.P,R36,1*%
%TO.N,Net-(Q5-G)*%
X147555200Y-91389200D03*
%TO.P,R36,2*%
%TO.N,Net-(D5-A)*%
X149555200Y-91389200D03*
%TD*%
D43*
%TO.P,R35,1*%
%TO.N,/TSSI/GLV*%
X214782400Y-124663200D03*
%TO.P,R35,2*%
%TO.N,/TSSI/RED_LED*%
X212957400Y-124663200D03*
%TD*%
D55*
%TO.P,SchmittDis1,1*%
%TO.N,Net-(C4-Pad1)*%
X117513201Y-102692200D03*
%TO.P,SchmittDis1,2*%
%TO.N,/BSPD/BOTH_ON*%
X119163201Y-102692200D03*
%TD*%
D39*
%TO.P,C15,1*%
%TO.N,/CCM Helper/APPS1 IN*%
X99960199Y-142544302D03*
%TO.P,C15,2*%
%TO.N,/CCM Helper/CCMGND*%
X98060199Y-142544302D03*
%TD*%
D46*
%TO.P,D12,1,K*%
%TO.N,/LATCH/bms_reset*%
X195817300Y-94694500D03*
%TO.P,D12,2,A*%
%TO.N,/BMS FAULT*%
X197392300Y-94694500D03*
%TD*%
D43*
%TO.P,R26,1*%
%TO.N,/TSSI/GLV*%
X108411000Y-115214400D03*
%TO.P,R26,2*%
%TO.N,Net-(R26-Pad2)*%
X106586000Y-115214400D03*
%TD*%
%TO.P,R51,1*%
%TO.N,Net-(PS1-CURRENT_LIMIT_(OCP)_ADJUST)*%
X155596600Y-147472400D03*
%TO.P,R51,2*%
%TO.N,GND*%
X153771600Y-147472400D03*
%TD*%
D62*
%TO.P,C28,1*%
%TO.N,Net-(PS1-SENSE+)*%
X141740000Y-136975000D03*
%TO.P,C28,2*%
%TO.N,GND*%
X141740000Y-131700000D03*
%TD*%
D46*
%TO.P,D2,1,K*%
%TO.N,Net-(D2-K)*%
X139547400Y-95504000D03*
%TO.P,D2,2,A*%
%TO.N,/LATCH/bms_imd_latch_only*%
X141122400Y-95504000D03*
%TD*%
D56*
%TO.P,R40,1*%
%TO.N,/LATCH/imd_reset*%
X182404000Y-94996000D03*
%TO.P,R40,2*%
%TO.N,GND*%
X184404000Y-94996000D03*
%TD*%
D49*
%TO.P,R48,1*%
%TO.N,/CCM Helper/BPS2 IN*%
X101518399Y-138327902D03*
%TO.P,R48,2*%
%TO.N,/CCM Helper/BPS2 OUT*%
X103343399Y-138327902D03*
%TD*%
D54*
%TO.P,C2,1*%
%TO.N,/BSPD/BRAKE*%
X85763201Y-86157400D03*
%TO.P,C2,2*%
%TO.N,GND*%
X85763201Y-84607400D03*
%TD*%
D42*
%TO.P,R13,1*%
%TO.N,+12V*%
X81597601Y-92036400D03*
%TO.P,R13,2*%
%TO.N,Net-(VR3-CW)*%
X81597601Y-90386400D03*
%TD*%
D55*
%TO.P,schmittEN1,1*%
%TO.N,/BSPD/BOTH_ON*%
X120967601Y-102590600D03*
%TO.P,schmittEN1,2*%
%TO.N,Net-(U1-Pad4)*%
X122617601Y-102590600D03*
%TD*%
D45*
%TO.P,R18,1*%
%TO.N,/BSPD/BRAKE_SHORT*%
X95364401Y-60453000D03*
%TO.P,R18,2*%
%TO.N,+12V*%
X95364401Y-62103000D03*
%TD*%
D44*
%TO.P,C33,1*%
%TO.N,/CCM Helper/Wheel{slash}Shock3 IN*%
X73028800Y-136330301D03*
%TO.P,C33,2*%
%TO.N,/CCM Helper/CCMGND*%
X74928800Y-136330301D03*
%TD*%
D42*
%TO.P,R21,1*%
%TO.N,/BSPD/PEDAL_APPLIED*%
X99174401Y-94830400D03*
%TO.P,R21,2*%
%TO.N,+12V*%
X99174401Y-93180400D03*
%TD*%
D51*
%TO.P,C9,1*%
%TO.N,+12V*%
X99251201Y-91567000D03*
%TO.P,C9,2*%
%TO.N,GND*%
X97701201Y-91567000D03*
%TD*%
D44*
%TO.P,C27,1*%
%TO.N,/12V*%
X185552000Y-125084800D03*
%TO.P,C27,2*%
%TO.N,GND*%
X187452000Y-125084800D03*
%TD*%
D49*
%TO.P,R45,1*%
%TO.N,/CCM Helper/APPS2 IN*%
X101514599Y-146709902D03*
%TO.P,R45,2*%
%TO.N,/CCM Helper/APPS2 OUT*%
X103339599Y-146709902D03*
%TD*%
D44*
%TO.P,C31,1*%
%TO.N,/CCM Helper/Wheel{slash}Shock1 IN*%
X72970000Y-127950000D03*
%TO.P,C31,2*%
%TO.N,/CCM Helper/CCMGND*%
X74870000Y-127950000D03*
%TD*%
D56*
%TO.P,R49,1*%
%TO.N,Net-(U9-TRIM)*%
X169196000Y-134620000D03*
%TO.P,R49,2*%
%TO.N,GND*%
X171196000Y-134620000D03*
%TD*%
D58*
%TO.P,R3,1*%
%TO.N,/BSPD/BRAKE*%
X83578801Y-86182200D03*
%TO.P,R3,2*%
%TO.N,/BSPD/B_IN*%
X81928801Y-86182200D03*
%TD*%
D49*
%TO.P,R55,1*%
%TO.N,/CCM Helper/Wheel{slash}Shock3 OUT*%
X69645600Y-136330301D03*
%TO.P,R55,2*%
%TO.N,/CCM Helper/Wheel{slash}Shock3 IN*%
X71470600Y-136330301D03*
%TD*%
D40*
%TO.P,D3,1,K*%
%TO.N,Net-(D2-K)*%
X140462000Y-99415600D03*
%TO.P,D3,2,A*%
%TO.N,Net-(D3-A)*%
X138887000Y-99415600D03*
%TD*%
D60*
%TO.P,C20,1*%
%TO.N,/24V*%
X132588000Y-140558400D03*
%TO.P,C20,2*%
%TO.N,GND*%
X132588000Y-142458400D03*
%TD*%
D44*
%TO.P,C24,1*%
%TO.N,/12V*%
X185521600Y-127421600D03*
%TO.P,C24,2*%
%TO.N,GND*%
X187421600Y-127421600D03*
%TD*%
%TO.P,C17,1*%
%TO.N,/5V*%
X164857600Y-134620000D03*
%TO.P,C17,2*%
%TO.N,GND*%
X166757600Y-134620000D03*
%TD*%
D60*
%TO.P,C26,1*%
%TO.N,/CCM Helper/Speaker IN*%
X123494800Y-116636800D03*
%TO.P,C26,2*%
%TO.N,/CCM Helper/CCMGND*%
X123494800Y-118536800D03*
%TD*%
D55*
%TO.P,R22,1*%
%TO.N,Net-(D1-K)*%
X115735201Y-95123000D03*
%TO.P,R22,2*%
%TO.N,Net-(C4-Pad1)*%
X117385201Y-95123000D03*
%TD*%
D38*
%TO.P,R34,1*%
%TO.N,Net-(U8-DIS)*%
X212211510Y-107892502D03*
%TO.P,R34,2*%
%TO.N,Net-(U8-THR)*%
X212211510Y-109717502D03*
%TD*%
D42*
%TO.P,R25,1*%
%TO.N,/BSPD/PEDAL_OPEN*%
X99174401Y-81177400D03*
%TO.P,R25,2*%
%TO.N,+12V*%
X99174401Y-79527400D03*
%TD*%
D51*
%TO.P,C7,1*%
%TO.N,+12V*%
X111772801Y-62103000D03*
%TO.P,C7,2*%
%TO.N,GND*%
X110222801Y-62103000D03*
%TD*%
%TO.P,C10,1*%
%TO.N,+12V*%
X98730201Y-61087000D03*
%TO.P,C10,2*%
%TO.N,GND*%
X97180201Y-61087000D03*
%TD*%
D49*
%TO.P,R47,1*%
%TO.N,/CCM Helper/BPS1 IN*%
X101514599Y-134111502D03*
%TO.P,R47,2*%
%TO.N,/BSPD/B_IN*%
X103339599Y-134111502D03*
%TD*%
D39*
%TO.P,C13,1*%
%TO.N,/TSSI/GLV*%
X217088800Y-103174800D03*
%TO.P,C13,2*%
%TO.N,GND*%
X215188800Y-103174800D03*
%TD*%
D63*
%TO.N,GND*%
X147540000Y-131320000D03*
X170484800Y-137515600D03*
X119753600Y-93014800D03*
X187179200Y-138988800D03*
X75247601Y-79933800D03*
X149530000Y-131310000D03*
X139430000Y-131640000D03*
X197002400Y-85258400D03*
X97180201Y-61087000D03*
X110222801Y-62103000D03*
X139550000Y-145200000D03*
X141740000Y-131700000D03*
X205841600Y-80011900D03*
X170586400Y-141173200D03*
X155041600Y-143423600D03*
X167418000Y-134620000D03*
X111306601Y-103555800D03*
X187230000Y-137617200D03*
X147555200Y-88798400D03*
X109791601Y-100507800D03*
X187452000Y-125084800D03*
X148132800Y-145193400D03*
X78041601Y-79883000D03*
X97701201Y-77089000D03*
X187230000Y-135788400D03*
X97701201Y-91567000D03*
X85763201Y-84607400D03*
X151200000Y-131320000D03*
X89949201Y-72603200D03*
X76060401Y-82092200D03*
X184404000Y-94996000D03*
X90132001Y-91884000D03*
X125958000Y-82951400D03*
X215087200Y-112450800D03*
X104864001Y-103352600D03*
X161391600Y-146964400D03*
X215087200Y-108996400D03*
X171196000Y-134620000D03*
X177038000Y-82219900D03*
X141730000Y-145290000D03*
X153009600Y-143444000D03*
X87642801Y-84558200D03*
X141224000Y-88395800D03*
X215188800Y-103174800D03*
X180441600Y-87528400D03*
X170364400Y-139242800D03*
X132588000Y-142458400D03*
X153771600Y-147472400D03*
X146507200Y-145186400D03*
X120004066Y-73726557D03*
X187421600Y-127421600D03*
X187370800Y-129656800D03*
X149809200Y-145135600D03*
X134772400Y-142377200D03*
X115887601Y-98729800D03*
X88506401Y-100735400D03*
X89522401Y-64135000D03*
%TO.N,+12V*%
X127558800Y-101295200D03*
X135788400Y-109423200D03*
X132066401Y-80187800D03*
X126796800Y-101193600D03*
X81597601Y-92036400D03*
X79972001Y-100761800D03*
X80988001Y-64159400D03*
X135456540Y-112295060D03*
X76060401Y-83642200D03*
X81414801Y-72564600D03*
%TO.N,/BSPD/BRAKE*%
X87642801Y-86208200D03*
%TO.N,/BSPD/CURRENT*%
X103644801Y-92786200D03*
%TO.N,Net-(C4-Pad1)*%
X117450201Y-95123000D03*
X117449600Y-98755200D03*
%TO.N,/TSSI/GLV*%
X214782400Y-124663200D03*
X208686400Y-79908400D03*
%TO.N,Net-(BothThreshold1-A)*%
X106914001Y-103352600D03*
%TO.N,Net-(D2-K)*%
X138328400Y-95046800D03*
%TO.N,/LATCH/bspd_reset*%
X166420800Y-98348800D03*
X152806400Y-82245200D03*
%TO.N,Net-(D3-A)*%
X138938000Y-99415600D03*
X102819100Y-115210800D03*
%TO.N,/BSPD/BSPD_FAULT*%
X155600400Y-89103200D03*
%TO.N,/LATCH/bms_reset*%
X199652800Y-83874100D03*
X195817300Y-94694500D03*
%TO.N,Net-(D10-A)*%
X195021200Y-89357200D03*
X177698400Y-92760800D03*
%TO.N,Net-(Q6-G)*%
X175107600Y-86258400D03*
%TO.N,/BSPD/B_IN*%
X81928801Y-86182200D03*
X103385600Y-134162800D03*
%TO.N,/BSPD/C_IN*%
X75247601Y-75044800D03*
%TO.N,Net-(R6-Pad1)*%
X110299601Y-95580200D03*
%TO.N,Net-(R7-Pad1)*%
X109029601Y-95580200D03*
%TO.N,/BSPD/BRAKE_APPLIED*%
X96024801Y-91695000D03*
%TO.N,/BSPD/PEDAL_APPLIED*%
X111172801Y-96291400D03*
%TO.N,/BSPD/PEDAL_SHORT*%
X102679601Y-74904600D03*
%TO.N,/TSSI/RED_LED*%
X212697700Y-124561600D03*
%TO.N,/LATCH/IMDfault_LED*%
X150571200Y-107797600D03*
X171900000Y-114400000D03*
%TO.N,/BSPD/BOTH_ON*%
X112026801Y-74142600D03*
X112230001Y-70281800D03*
%TO.N,/BSPD/SHORT_CIRCUIT*%
X90284401Y-76225400D03*
X91503601Y-77597000D03*
%TO.N,/CCM Helper/APPS2 OUT*%
X103284000Y-146761200D03*
%TO.N,/CCM Helper/APPS1 OUT*%
X103385600Y-142494000D03*
%TO.N,/CCM Helper/BPS2 OUT*%
X103487200Y-138430000D03*
%TO.N,/CCM Helper/Wheel{slash}Shock2 OUT*%
X69502000Y-132080000D03*
%TO.N,/CCM Helper/Wheel{slash}Shock4 OUT*%
X69502000Y-140614400D03*
%TO.N,/CCM Helper/Wheel{slash}Shock3 OUT*%
X69603600Y-136296400D03*
%TO.N,/CCM Helper/Wheel{slash}Shock1 OUT*%
X69552800Y-127914400D03*
%TO.N,/CCM Helper/Speaker IN*%
X123494800Y-116636800D03*
%TO.N,/CCM Helper/CCM fdbk*%
X141224000Y-91951800D03*
%TO.N,/BMS FAULT*%
X199948800Y-91135200D03*
%TO.N,/5V*%
X165284400Y-137530000D03*
X165284400Y-138460000D03*
X165460400Y-139759600D03*
%TO.N,/IMD Fault*%
X184251600Y-101600000D03*
%TO.N,Net-(J4-Pin_1)*%
X203911200Y-64566800D03*
X204978000Y-65582800D03*
X204978000Y-64566800D03*
X204927200Y-63652400D03*
X205892400Y-64668400D03*
%TO.N,Net-(OutOfRange1-A)*%
X113356601Y-103555800D03*
%TO.N,Net-(Q5-G)*%
X147555200Y-91389200D03*
%TO.N,Net-(brkErr1-A)*%
X117703600Y-92964000D03*
%TD*%
D64*
%TO.N,GND*%
X97176800Y-115210800D02*
X96723200Y-114757200D01*
D65*
X166757600Y-134620000D02*
X167418000Y-134620000D01*
%TO.N,+12V*%
X152196800Y-102151200D02*
X153111200Y-103065600D01*
X152196800Y-96062000D02*
X152196800Y-102151200D01*
D64*
X98869601Y-62814200D02*
X100546001Y-62814200D01*
X98869601Y-62814200D02*
X96075601Y-62814200D01*
X100546001Y-62814200D02*
X101104801Y-62255400D01*
X111772801Y-62103000D02*
X113906401Y-62103000D01*
D65*
X135456540Y-112295060D02*
X137999860Y-112295060D01*
D64*
X108241601Y-100507800D02*
X106134001Y-100507800D01*
X96431201Y-79527400D02*
X95821601Y-78917800D01*
X127508000Y-82951400D02*
X130093800Y-82951400D01*
X99174401Y-93180400D02*
X100964601Y-93180400D01*
X98730201Y-61087000D02*
X98730201Y-62674800D01*
X99251201Y-91567000D02*
X99251201Y-93103600D01*
X113906401Y-62103000D02*
X113957201Y-62153800D01*
X99174401Y-79527400D02*
X96431201Y-79527400D01*
X99251201Y-77089000D02*
X101155601Y-77089000D01*
D65*
X142598400Y-101589600D02*
X140665200Y-103522800D01*
D64*
X96075601Y-62814200D02*
X95364401Y-62103000D01*
X130093800Y-82951400D02*
X130200400Y-83058000D01*
X106134001Y-100507800D02*
X105778401Y-100152200D01*
D65*
X137999860Y-112295060D02*
X149098000Y-123393200D01*
X135788400Y-109423200D02*
X127558800Y-101193600D01*
D64*
X101155601Y-77089000D02*
X101460401Y-77393800D01*
D65*
X164081200Y-104991200D02*
X165557200Y-103515200D01*
D64*
X99174401Y-93180400D02*
X96189401Y-93180400D01*
X99326801Y-79527400D02*
X101460401Y-77393800D01*
D65*
X127558800Y-101193600D02*
X126796800Y-101193600D01*
X151635200Y-101589600D02*
X142598400Y-101589600D01*
D64*
X99174401Y-79527400D02*
X99326801Y-79527400D01*
X98730201Y-62674800D02*
X98869601Y-62814200D01*
X100964601Y-93180400D02*
X101562001Y-92583000D01*
D65*
X153111200Y-103065600D02*
X155036800Y-104991200D01*
X153111200Y-103065600D02*
X151635200Y-101589600D01*
X187299600Y-123393200D02*
X190906400Y-119786400D01*
D64*
X96189401Y-93180400D02*
X96024801Y-93345000D01*
D65*
X155036800Y-104991200D02*
X164081200Y-104991200D01*
D64*
X99251201Y-93103600D02*
X99174401Y-93180400D01*
D65*
X149098000Y-123393200D02*
X187299600Y-123393200D01*
D64*
%TO.N,/BSPD/BRAKE*%
X87642801Y-86208200D02*
X87616801Y-86182200D01*
X83578801Y-86182200D02*
X87616801Y-86182200D01*
%TO.N,/BSPD/CURRENT*%
X92367201Y-78460600D02*
X93840401Y-79933800D01*
X78041601Y-78233000D02*
X78269201Y-78460600D01*
X78041601Y-78233000D02*
X75398401Y-78233000D01*
X75247601Y-76694800D02*
X75247601Y-78383800D01*
X78269201Y-78460600D02*
X92367201Y-78460600D01*
X101562001Y-100203000D02*
X103644801Y-98120200D01*
X75398401Y-78233000D02*
X75247601Y-78383800D01*
X103644801Y-98120200D02*
X103644801Y-92786200D01*
%TO.N,Net-(C4-Pad1)*%
X117437601Y-98743201D02*
X117449600Y-98755200D01*
X117513201Y-98818801D02*
X117449600Y-98755200D01*
X118847600Y-95123000D02*
X118847600Y-86790800D01*
X118847600Y-86790800D02*
X122580400Y-83058000D01*
X117513201Y-102692200D02*
X117513201Y-98818801D01*
X118847600Y-95123000D02*
X117450201Y-95123000D01*
X117437601Y-98729800D02*
X117437601Y-98743201D01*
D65*
%TO.N,/TSSI/GLV*%
X214330600Y-104860400D02*
X215036400Y-105566200D01*
X211547600Y-148959200D02*
X215747600Y-148959200D01*
X119818254Y-115214400D02*
X126799953Y-108232701D01*
X126799953Y-108232701D02*
X130857200Y-108232701D01*
X216753400Y-105566200D02*
X217323600Y-106136400D01*
X130857200Y-108232701D02*
X133509200Y-110884701D01*
X215036400Y-105566200D02*
X216753400Y-105566200D01*
X217088800Y-103174800D02*
X217088800Y-105901600D01*
X133509200Y-110884701D02*
X190401167Y-110884701D01*
X108411000Y-115214400D02*
X119818254Y-115214400D01*
X196425468Y-104860400D02*
X214330600Y-104860400D01*
X190401167Y-110884701D02*
X196425468Y-104860400D01*
X217088800Y-105901600D02*
X217323600Y-106136400D01*
D64*
%TO.N,Net-(BothThreshold1-A)*%
X107042001Y-103352600D02*
X106914001Y-103352600D01*
D65*
%TO.N,Net-(D2-K)*%
X205841600Y-86412000D02*
X205892400Y-86462800D01*
X140613600Y-97332000D02*
X138328400Y-95046800D01*
X141269000Y-97332000D02*
X141269000Y-98959600D01*
X210163400Y-92252800D02*
X210163400Y-90733800D01*
X141269000Y-98959600D02*
X140813000Y-99415600D01*
X210163400Y-90733800D02*
X205892400Y-86462800D01*
X141269000Y-97332000D02*
X140613600Y-97332000D01*
X205841600Y-81836900D02*
X205841600Y-86412000D01*
%TO.N,/LATCH/bms_imd_latch_only*%
X142291600Y-93776800D02*
X141224000Y-93776800D01*
X144576800Y-96062000D02*
X142291600Y-93776800D01*
X141269000Y-93821800D02*
X141224000Y-93776800D01*
X141269000Y-95457000D02*
X141269000Y-93821800D01*
D64*
%TO.N,Net-(D1-A)*%
X118122801Y-96748600D02*
X118872000Y-96748600D01*
X118872000Y-96748600D02*
X120497600Y-95123000D01*
%TO.N,Net-(D5-A)*%
X152806400Y-83820200D02*
X152806400Y-87832400D01*
X152806400Y-87832400D02*
X152196800Y-88442000D01*
X149555200Y-88798400D02*
X151840400Y-88798400D01*
X149555200Y-91389200D02*
X149555200Y-88798400D01*
X151840400Y-88798400D02*
X152196800Y-88442000D01*
D65*
%TO.N,/LATCH/bspd_reset*%
X152196000Y-78282800D02*
X152196800Y-78282000D01*
X149098200Y-78282800D02*
X152196000Y-78282800D01*
X162864800Y-94792800D02*
X166420800Y-98348800D01*
X162864800Y-92405200D02*
X162864800Y-94792800D01*
D64*
%TO.N,Net-(D1-K)*%
X115735201Y-95936000D02*
X116547801Y-96748600D01*
X115735201Y-95123000D02*
X113449201Y-95123000D01*
X115735201Y-95123000D02*
X115735201Y-95936000D01*
X113449201Y-95123000D02*
X113398401Y-95072200D01*
D65*
%TO.N,Net-(D3-A)*%
X102510800Y-115210800D02*
X99517200Y-112217200D01*
X102819100Y-115210800D02*
X102510800Y-115210800D01*
X99517200Y-112217200D02*
X96723200Y-112217200D01*
%TO.N,/BSPD/BSPD_FAULT*%
X144576800Y-78282000D02*
X132322201Y-78282000D01*
X124168001Y-78417400D02*
X125938401Y-80187800D01*
D64*
X155600400Y-89103200D02*
X155600400Y-89255600D01*
D65*
X144577600Y-78282800D02*
X144576800Y-78282000D01*
X147523200Y-78282800D02*
X144577600Y-78282800D01*
D64*
X155600400Y-89255600D02*
X155549600Y-89306400D01*
D65*
X125938401Y-80187800D02*
X130416401Y-80187800D01*
X132322201Y-78282000D02*
X130416401Y-80187800D01*
%TO.N,/LATCH/imd_reset*%
X189922400Y-102514400D02*
X190737596Y-102514400D01*
X186182000Y-90017600D02*
X182404000Y-93795600D01*
X187604400Y-83362800D02*
X181104400Y-83362800D01*
X177038000Y-78513300D02*
X177062800Y-78488500D01*
X182404000Y-93795600D02*
X182404000Y-94996000D01*
X182404000Y-94996000D02*
X189922400Y-102514400D01*
X177038000Y-80644900D02*
X177038000Y-78513300D01*
X177038000Y-86258400D02*
X177038000Y-88623700D01*
X177038000Y-88623700D02*
X177062800Y-88648500D01*
%TO.N,Net-(D6-K)*%
X157600400Y-89680800D02*
X160324800Y-92405200D01*
X157600400Y-89103200D02*
X157600400Y-89680800D01*
%TO.N,/LATCH/bms_reset*%
X199652800Y-83874100D02*
X199652800Y-78952000D01*
X199652800Y-78952000D02*
X199440800Y-78740000D01*
D64*
%TO.N,Net-(D8-K)*%
X180441600Y-89528400D02*
X183152800Y-89528400D01*
X183152800Y-89528400D02*
X183642000Y-90017600D01*
D65*
%TO.N,Net-(D10-A)*%
X197002400Y-87258400D02*
X197002400Y-87376000D01*
X197799200Y-87258400D02*
X199440800Y-88900000D01*
X199652800Y-88688000D02*
X199440800Y-88900000D01*
X197002400Y-87258400D02*
X197799200Y-87258400D01*
X199652800Y-85449100D02*
X199652800Y-88688000D01*
X197002400Y-87376000D02*
X195021200Y-89357200D01*
%TO.N,/BSPD/FAULT_SENSED*%
X121628001Y-77444600D02*
X113957201Y-69773800D01*
X121628001Y-78417400D02*
X121628001Y-77444600D01*
%TO.N,Net-(Q6-G)*%
X175038000Y-86258400D02*
X175107600Y-86258400D01*
D64*
%TO.N,/BSPD/B_IN*%
X103339599Y-134111502D02*
X103339599Y-134116799D01*
X103339599Y-134116799D02*
X103385600Y-134162800D01*
%TO.N,Net-(R4-Pad1)*%
X116066401Y-91313000D02*
X114617601Y-91313000D01*
X114617601Y-91313000D02*
X113398401Y-92532200D01*
D65*
%TO.N,Net-(D11-K)*%
X199948800Y-93135200D02*
X203518600Y-93135200D01*
X203518600Y-93135200D02*
X203855400Y-93472000D01*
D64*
%TO.N,Net-(R6-Pad1)*%
X111620401Y-97588943D02*
X111620401Y-100260360D01*
X110299601Y-95580200D02*
X110299601Y-96268143D01*
X114865041Y-103505000D02*
X115150001Y-103505000D01*
X111620401Y-100260360D02*
X114865041Y-103505000D01*
X110299601Y-96268143D02*
X111620401Y-97588943D01*
%TO.N,Net-(R7-Pad1)*%
X110858401Y-97409000D02*
X110858401Y-100666110D01*
X109029601Y-95580200D02*
X110858401Y-97409000D01*
X110858401Y-100666110D02*
X108692001Y-102832510D01*
X108692001Y-102832510D02*
X108692001Y-103352600D01*
D65*
%TO.N,Net-(VR1-CW)*%
X80988001Y-62509400D02*
X81089601Y-62509400D01*
X81089601Y-62509400D02*
X82766001Y-60833000D01*
%TO.N,Net-(VR1-CCW)*%
X89522401Y-62485000D02*
X89498001Y-62485000D01*
X89498001Y-62485000D02*
X87846001Y-60833000D01*
D64*
%TO.N,Net-(VR2-CW)*%
X81414801Y-70914600D02*
X81414801Y-70840600D01*
X81414801Y-70840600D02*
X83040401Y-69215000D01*
%TO.N,Net-(VR2-CCW)*%
X89858601Y-70953200D02*
X88120401Y-69215000D01*
X89949201Y-70953200D02*
X89858601Y-70953200D01*
%TO.N,Net-(VR3-CW)*%
X81597601Y-90360000D02*
X83324801Y-88632800D01*
X81597601Y-90386400D02*
X81597601Y-90360000D01*
%TO.N,Net-(VR3-CCW)*%
X90006001Y-90234000D02*
X88404801Y-88632800D01*
X90132001Y-90234000D02*
X90006001Y-90234000D01*
%TO.N,Net-(VR4-CW)*%
X80098001Y-99111800D02*
X81750001Y-97459800D01*
X79972001Y-99111800D02*
X80098001Y-99111800D01*
%TO.N,Net-(VR4-CCW)*%
X88455601Y-99085400D02*
X86830001Y-97459800D01*
X88506401Y-99085400D02*
X88455601Y-99085400D01*
%TO.N,/BSPD/BRAKE_SHORT*%
X95364401Y-60453000D02*
X95287201Y-60453000D01*
X95287201Y-60453000D02*
X93484801Y-62255400D01*
%TO.N,/BSPD/BRAKE_OPEN*%
X98869601Y-64464200D02*
X100773601Y-64464200D01*
X100773601Y-64464200D02*
X101104801Y-64795400D01*
%TO.N,/BSPD/BRAKE_APPLIED*%
X96024801Y-91695000D02*
X94830001Y-91695000D01*
X94830001Y-91695000D02*
X93942001Y-92583000D01*
%TO.N,/BSPD/PEDAL_APPLIED*%
X99174401Y-94830400D02*
X101269401Y-94830400D01*
X101269401Y-94830400D02*
X101562001Y-95123000D01*
X111172801Y-96291400D02*
X112077601Y-96291400D01*
X112077601Y-96291400D02*
X113398401Y-97612200D01*
%TO.N,/BSPD/PEDAL_SHORT*%
X104406801Y-74853800D02*
X106337201Y-74853800D01*
X95821601Y-77267800D02*
X93966401Y-77267800D01*
X104356001Y-74904600D02*
X104406801Y-74853800D01*
X93966401Y-77267800D02*
X93840401Y-77393800D01*
X102679601Y-74904600D02*
X104356001Y-74904600D01*
%TO.N,/BSPD/PEDAL_OPEN*%
X99174401Y-81177400D02*
X100216801Y-81177400D01*
X100216801Y-81177400D02*
X101460401Y-79933800D01*
D65*
%TO.N,/TSSI/GREEN_LED*%
X215747600Y-143459200D02*
X210861600Y-138573200D01*
X210861600Y-114914400D02*
X209703600Y-113756400D01*
X208686400Y-86208800D02*
X208432400Y-86462800D01*
X210861600Y-138573200D02*
X210861600Y-114914400D01*
X208686400Y-81733400D02*
X208686400Y-86208800D01*
%TO.N,/TSSI/RED_LED*%
X216611200Y-120599200D02*
X216611200Y-119074000D01*
X212697700Y-124512700D02*
X216611200Y-120599200D01*
X212697700Y-124561600D02*
X212697700Y-124512700D01*
%TO.N,/LATCH/IMDfault_LED*%
X171900000Y-114400000D02*
X179790000Y-114400000D01*
X179790000Y-114400000D02*
X180900000Y-115510000D01*
X150571200Y-103065600D02*
X150571200Y-107797600D01*
X180900000Y-115510000D02*
X180900000Y-116330000D01*
D64*
%TO.N,/BSPD/BOTH_ON*%
X105778401Y-97612200D02*
X103797201Y-99593400D01*
X112026801Y-74142600D02*
X112230001Y-73939400D01*
X117574401Y-104281000D02*
X106781337Y-104281000D01*
X119163201Y-102692200D02*
X117574401Y-104281000D01*
X103797201Y-99593400D02*
X103797201Y-99796600D01*
X106781337Y-104281000D02*
X103797201Y-101296864D01*
X120967601Y-102590600D02*
X119264801Y-102590600D01*
X112230001Y-73939400D02*
X112230001Y-70281800D01*
X103797201Y-101296864D02*
X103797201Y-99796600D01*
%TO.N,/BSPD/SHORT_CIRCUIT*%
X91503601Y-77444600D02*
X90284401Y-76225400D01*
X91503601Y-77597000D02*
X91503601Y-77444600D01*
%TO.N,/CCM Helper/APPS1 IN*%
X103034799Y-144643503D02*
X101514599Y-143123303D01*
X101514599Y-143123303D02*
X101514599Y-142544302D01*
X101514599Y-142544302D02*
X99960199Y-142544302D01*
D65*
%TO.N,/CCM Helper/CCMGND*%
X74928800Y-140546701D02*
X75023599Y-140546701D01*
X97534800Y-147235301D02*
X98060199Y-146709902D01*
D66*
X104515000Y-124042334D02*
X103182336Y-125374998D01*
X129531200Y-114638701D02*
X129531200Y-117178701D01*
D65*
X97534800Y-144643503D02*
X97534800Y-143069701D01*
X98060199Y-134111502D02*
X98060199Y-132568904D01*
X98060199Y-136768903D02*
X97534800Y-136243504D01*
D66*
X109967181Y-118536800D02*
X104515000Y-123988981D01*
D65*
X74928800Y-136330301D02*
X74928800Y-137871199D01*
X98060199Y-138327902D02*
X98060199Y-136768903D01*
D66*
X104515000Y-123988981D02*
X104515000Y-124042334D01*
D65*
X97534800Y-143069701D02*
X98060199Y-142544302D01*
X74827200Y-133772799D02*
X74600000Y-133999999D01*
D66*
X129531200Y-117178701D02*
X128173101Y-118536800D01*
D65*
X98060199Y-132568904D02*
X97534800Y-132043505D01*
D66*
X123494800Y-118536800D02*
X109967181Y-118536800D01*
X102225002Y-125374998D02*
X97534800Y-130065200D01*
D65*
X74878000Y-129852001D02*
X74709999Y-130020002D01*
X74878000Y-127897501D02*
X74878000Y-129852001D01*
X74827200Y-132063101D02*
X74827200Y-133772799D01*
D66*
X97534800Y-130065200D02*
X97534800Y-132043505D01*
X128173101Y-118536800D02*
X123494800Y-118536800D01*
X103182336Y-125374998D02*
X102225002Y-125374998D01*
D65*
X74928800Y-142071198D02*
X74600000Y-142399998D01*
X97534800Y-148843502D02*
X97534800Y-147235301D01*
X74928800Y-140546701D02*
X74928800Y-142071198D01*
X74928800Y-137871199D02*
X74600000Y-138199999D01*
D64*
%TO.N,/CCM Helper/BPS2 IN*%
X101518399Y-138327902D02*
X99960199Y-138327902D01*
X101518399Y-137759904D02*
X101518399Y-138327902D01*
X103034799Y-136243504D02*
X101518399Y-137759904D01*
%TO.N,/CCM Helper/BPS1 IN*%
X101514599Y-134111502D02*
X101514599Y-133563705D01*
X101514599Y-134111502D02*
X99960199Y-134111502D01*
X101514599Y-133563705D02*
X103034799Y-132043505D01*
%TO.N,/CCM Helper/Wheel{slash}Shock2 IN*%
X71350500Y-132063101D02*
X72927200Y-132063101D01*
X71350500Y-132063101D02*
X71336899Y-132063101D01*
X71336899Y-132063101D02*
X69400000Y-134000000D01*
%TO.N,/CCM Helper/Wheel{slash}Shock4 IN*%
X71504800Y-140546701D02*
X71253298Y-140546701D01*
X73028800Y-140546701D02*
X71504800Y-140546701D01*
X71253298Y-140546701D02*
X69400000Y-142399999D01*
%TO.N,/CCM Helper/APPS2 IN*%
X101514599Y-147323302D02*
X101514599Y-146709902D01*
X103034799Y-148843502D02*
X101514599Y-147323302D01*
X101514599Y-146709902D02*
X99960199Y-146709902D01*
%TO.N,/CCM Helper/Wheel{slash}Shock3 IN*%
X73028800Y-136330301D02*
X71470600Y-136330301D01*
X71269699Y-136330301D02*
X69400000Y-138200000D01*
X71470600Y-136330301D02*
X71269699Y-136330301D01*
%TO.N,/CCM Helper/Wheel{slash}Shock1 IN*%
X71302500Y-127897501D02*
X69400000Y-129800001D01*
X71403200Y-127897501D02*
X71302500Y-127897501D01*
X72978000Y-127897501D02*
X71403200Y-127897501D01*
D67*
%TO.N,/CCM Helper/12V*%
X164896800Y-160883600D02*
X165557200Y-160223200D01*
X86073416Y-153095899D02*
X93861117Y-160883600D01*
X93861117Y-160883600D02*
X164896800Y-160883600D01*
X165557200Y-160223200D02*
X164795200Y-160985200D01*
X84008401Y-153095899D02*
X86073416Y-153095899D01*
D64*
%TO.N,/CCM Helper/APPS2 OUT*%
X103339599Y-146709902D02*
X103335298Y-146709902D01*
X103335298Y-146709902D02*
X103284000Y-146761200D01*
%TO.N,/CCM Helper/APPS1 OUT*%
X103339599Y-142540001D02*
X103385600Y-142494000D01*
X103339599Y-142544302D02*
X103339599Y-142540001D01*
%TO.N,/CCM Helper/BPS2 OUT*%
X103385102Y-138327902D02*
X103487200Y-138430000D01*
X103343399Y-138327902D02*
X103385102Y-138327902D01*
%TO.N,/CCM Helper/Wheel{slash}Shock2 OUT*%
X69518899Y-132063101D02*
X69502000Y-132080000D01*
X69525500Y-132063101D02*
X69518899Y-132063101D01*
%TO.N,/CCM Helper/Wheel{slash}Shock4 OUT*%
X69569699Y-140546701D02*
X69502000Y-140614400D01*
X69679800Y-140546701D02*
X69569699Y-140546701D01*
%TO.N,/CCM Helper/Wheel{slash}Shock3 OUT*%
X69637501Y-136330301D02*
X69603600Y-136296400D01*
X69645600Y-136330301D02*
X69637501Y-136330301D01*
%TO.N,/CCM Helper/Wheel{slash}Shock1 OUT*%
X69569699Y-127897501D02*
X69552800Y-127914400D01*
X69578200Y-127897501D02*
X69569699Y-127897501D01*
%TO.N,/CCM Helper/Speaker IN*%
X123494800Y-115109000D02*
X123494800Y-116636800D01*
D65*
%TO.N,Net-(D4-A)*%
X211988400Y-92252800D02*
X211988400Y-94640400D01*
X211988400Y-94640400D02*
X213715600Y-96367600D01*
%TO.N,/CCM Helper/CCM fdbk*%
X141224000Y-90220800D02*
X141224000Y-91951800D01*
D64*
%TO.N,/CCM Helper/Speaker LPF'd*%
X123494800Y-113284000D02*
X128345901Y-113284000D01*
X128345901Y-113284000D02*
X129531200Y-112098701D01*
D65*
%TO.N,/BMS FAULT*%
X197392300Y-94694500D02*
X197392300Y-93691700D01*
X197392300Y-93691700D02*
X199948800Y-91135200D01*
%TO.N,/12V*%
X181955000Y-137617200D02*
X181955000Y-133341800D01*
X185552000Y-129575600D02*
X185470800Y-129656800D01*
X185369200Y-130657600D02*
X184639200Y-130657600D01*
X185552000Y-125084800D02*
X185552000Y-129575600D01*
X184639200Y-130657600D02*
X183064400Y-132232400D01*
X181955000Y-133341800D02*
X183064400Y-132232400D01*
X185470800Y-129656800D02*
X185369200Y-130657600D01*
X185369200Y-130657600D02*
X185470800Y-130556000D01*
D68*
%TO.N,/5V*%
X183692800Y-150829200D02*
X182520400Y-149656800D01*
X173130400Y-149656800D02*
X171704000Y-151083200D01*
D65*
X165284400Y-132232400D02*
X165284400Y-137530000D01*
X165284400Y-139047800D02*
X165089400Y-139242800D01*
X165284400Y-137530000D02*
X165284400Y-138460000D01*
D68*
X171704000Y-146003200D02*
X171704000Y-151083200D01*
X182520400Y-149656800D02*
X173130400Y-149656800D01*
D65*
X165284400Y-138460000D02*
X165284400Y-139047800D01*
%TO.N,/24V*%
X134772400Y-140477200D02*
X131184701Y-140477200D01*
X131184701Y-140477200D02*
X130405200Y-139697699D01*
%TO.N,/IMD Fault*%
X178920100Y-96268500D02*
X177062800Y-96268500D01*
X184251600Y-101600000D02*
X178920100Y-96268500D01*
%TO.N,Net-(U8-THR)*%
X215087200Y-110896400D02*
X217003600Y-110896400D01*
X217003600Y-110896400D02*
X217323600Y-111216400D01*
X213563200Y-110896400D02*
X212445600Y-109778800D01*
X210806000Y-109778800D02*
X209703600Y-108676400D01*
X215087200Y-110896400D02*
X213563200Y-110896400D01*
X212445600Y-109778800D02*
X210806000Y-109778800D01*
%TO.N,Net-(U8-CV)*%
X215087200Y-114350800D02*
X216729200Y-114350800D01*
X216729200Y-114350800D02*
X217323600Y-113756400D01*
D67*
%TO.N,Net-(J4-Pin_1)*%
X200745800Y-64195400D02*
X180114601Y-64195400D01*
X203758800Y-64414400D02*
X200964800Y-64414400D01*
X206298800Y-64414400D02*
X206349600Y-64465200D01*
X178663600Y-65646401D02*
X178663600Y-67296400D01*
X180114601Y-64195400D02*
X178663600Y-65646401D01*
X200964800Y-64414400D02*
X200745800Y-64195400D01*
X200964800Y-64414400D02*
X206298800Y-64414400D01*
%TO.N,Net-(J1-Pin_2)*%
X144190000Y-66660000D02*
X150720000Y-66660000D01*
X150720000Y-66660000D02*
X155610000Y-71550000D01*
D65*
%TO.N,Net-(Q7-G)*%
X161953200Y-102039200D02*
X160477200Y-103515200D01*
X168420000Y-102039200D02*
X161953200Y-102039200D01*
X175698400Y-94760800D02*
X168420000Y-102039200D01*
X175698400Y-92760800D02*
X175698400Y-94760800D01*
D69*
%TO.N,/CCM Helper/5V*%
X84008401Y-123695904D02*
X79036802Y-123695904D01*
X77132701Y-125600005D02*
X74899999Y-125600005D01*
X79036802Y-123695904D02*
X77132701Y-125600005D01*
D67*
%TO.N,Net-(J6-Pin_1)*%
X114770000Y-135230000D02*
X109510000Y-129970000D01*
X114770000Y-136370000D02*
X114770000Y-135230000D01*
D65*
%TO.N,Net-(U8-DIS)*%
X215036400Y-107391200D02*
X216038400Y-107391200D01*
X216038400Y-107391200D02*
X217323600Y-108676400D01*
X215036400Y-107391200D02*
X213008200Y-107391200D01*
X213008200Y-107391200D02*
X212445600Y-107953800D01*
%TO.N,Net-(PS1-TRIM)*%
X161391600Y-145139400D02*
X159976901Y-145139400D01*
X159976901Y-145139400D02*
X158345200Y-143507699D01*
%TO.N,Net-(U9-TRIM)*%
X167824400Y-132232400D02*
X167824400Y-133248400D01*
X167824400Y-133248400D02*
X169196000Y-134620000D01*
D67*
%TO.N,Net-(PS1-SENSE+)*%
X158345200Y-132144400D02*
X158345200Y-139697699D01*
D65*
X153009600Y-141544000D02*
X155021200Y-141544000D01*
X147685000Y-140015000D02*
X141730000Y-140015000D01*
X149530000Y-136585000D02*
X142130000Y-136585000D01*
X156519299Y-141523600D02*
X158345200Y-139697699D01*
D67*
X171807600Y-127153200D02*
X163336400Y-127153200D01*
D65*
X148132800Y-137982200D02*
X149530000Y-136585000D01*
X142130000Y-136585000D02*
X141740000Y-136975000D01*
X147781600Y-139918400D02*
X147685000Y-140015000D01*
X157647899Y-136585000D02*
X158345200Y-135887699D01*
X151384000Y-139918400D02*
X153009600Y-141544000D01*
X148132800Y-139918400D02*
X151384000Y-139918400D01*
X149530000Y-136585000D02*
X157647899Y-136585000D01*
D67*
X163336400Y-127153200D02*
X158345200Y-132144400D01*
D65*
X155021200Y-141544000D02*
X155041600Y-141523600D01*
X155041600Y-141523600D02*
X156519299Y-141523600D01*
X148132800Y-139918400D02*
X147781600Y-139918400D01*
X148132800Y-139918400D02*
X148132800Y-137982200D01*
D64*
%TO.N,Net-(OutOfRange1-A)*%
X113500001Y-103505000D02*
X113407401Y-103505000D01*
X113407401Y-103505000D02*
X113356601Y-103555800D01*
D67*
%TO.N,Net-(J7-Pin_1)*%
X109780000Y-145370000D02*
X109780000Y-145830000D01*
X109780000Y-145830000D02*
X114950000Y-151000000D01*
D65*
%TO.N,Net-(PS1-CURRENT_LIMIT_(OCP)_ADJUST)*%
X158190499Y-147472400D02*
X158345200Y-147317699D01*
X155596600Y-147472400D02*
X158190499Y-147472400D01*
D67*
%TO.N,Net-(J8-Pin_1)*%
X177190400Y-160223200D02*
X177800000Y-159613600D01*
X171704000Y-155143200D02*
X171704000Y-159675600D01*
X171704000Y-160223200D02*
X177190400Y-160223200D01*
%TO.N,Net-(J2-Pin_2)*%
X209050600Y-64981800D02*
X209050600Y-63346410D01*
X207417590Y-61713400D02*
X205782200Y-61713400D01*
X161026000Y-66050000D02*
X155610000Y-66050000D01*
X209050600Y-63346410D02*
X207417590Y-61713400D01*
X205563200Y-61494400D02*
X165581600Y-61494400D01*
X216675600Y-156718000D02*
X221217800Y-152175800D01*
X205782200Y-61713400D02*
X205563200Y-61494400D01*
X221217800Y-77149000D02*
X209050600Y-64981800D01*
X221217800Y-152175800D02*
X221217800Y-77149000D01*
X165581600Y-61494400D02*
X161026000Y-66050000D01*
D65*
%TO.N,Net-(R26-Pad2)*%
X104644100Y-115210800D02*
X106582400Y-115210800D01*
D64*
%TO.N,Net-(U1-Pad4)*%
X123681400Y-101526801D02*
X123681400Y-91779000D01*
X123681400Y-91779000D02*
X122580400Y-90678000D01*
X122617601Y-102590600D02*
X123681400Y-101526801D01*
D65*
%TO.N,Net-(brkErr1-A)*%
X117703600Y-92964000D02*
X117703600Y-91325801D01*
X117703600Y-93014800D02*
X117703600Y-92964000D01*
X117703600Y-91325801D02*
X117716401Y-91313000D01*
%TD*%
M02*
