%TF.GenerationSoftware,KiCad,Pcbnew,9.0.7*%
%TF.CreationDate,2026-04-05T23:28:33-07:00*%
%TF.ProjectId,SafetyBoard,53616665-7479-4426-9f61-72642e6b6963,rev?*%
%TF.SameCoordinates,Original*%
%TF.FileFunction,Soldermask,Bot*%
%TF.FilePolarity,Negative*%
%FSLAX46Y46*%
G04 Gerber Fmt 4.6, Leading zero omitted, Abs format (unit mm)*
G04 Created by KiCad (PCBNEW 9.0.7) date 2026-04-05 23:28:33*
%MOMM*%
%LPD*%
G01*
G04 APERTURE LIST*
G04 Aperture macros list*
%AMRoundRect*
0 Rectangle with rounded corners*
0 $1 Rounding radius*
0 $2 $3 $4 $5 $6 $7 $8 $9 X,Y pos of 4 corners*
0 Add a 4 corners polygon primitive as box body*
4,1,4,$2,$3,$4,$5,$6,$7,$8,$9,$2,$3,0*
0 Add four circle primitives for the rounded corners*
1,1,$1+$1,$2,$3*
1,1,$1+$1,$4,$5*
1,1,$1+$1,$6,$7*
1,1,$1+$1,$8,$9*
0 Add four rect primitives between the rounded corners*
20,1,$1+$1,$2,$3,$4,$5,0*
20,1,$1+$1,$4,$5,$6,$7,0*
20,1,$1+$1,$6,$7,$8,$9,0*
20,1,$1+$1,$8,$9,$2,$3,0*%
G04 Aperture macros list end*
%ADD10C,3.500000*%
%ADD11R,1.905000X2.000000*%
%ADD12O,1.905000X2.000000*%
%ADD13C,3.704000*%
%ADD14R,1.800000X1.800000*%
%ADD15C,1.800000*%
%ADD16C,1.955800*%
%ADD17C,1.440000*%
%ADD18C,3.000000*%
%ADD19R,1.700000X1.700000*%
%ADD20C,1.700000*%
%ADD21RoundRect,0.250001X-1.099999X-1.399999X1.099999X-1.399999X1.099999X1.399999X-1.099999X1.399999X0*%
%ADD22O,2.700000X3.300000*%
%ADD23C,2.000000*%
%ADD24RoundRect,0.250001X1.399999X-1.099999X1.399999X1.099999X-1.399999X1.099999X-1.399999X-1.099999X0*%
%ADD25O,3.300000X2.700000*%
%ADD26R,2.000000X1.905000*%
%ADD27O,2.000000X1.905000*%
%ADD28RoundRect,0.250000X0.550000X0.550000X-0.550000X0.550000X-0.550000X-0.550000X0.550000X-0.550000X0*%
%ADD29C,1.600000*%
%ADD30RoundRect,0.250001X1.099999X1.399999X-1.099999X1.399999X-1.099999X-1.399999X1.099999X-1.399999X0*%
%ADD31R,1.830000X1.830000*%
%ADD32C,1.830000*%
%ADD33C,2.655000*%
%ADD34RoundRect,0.250000X-0.550000X-0.550000X0.550000X-0.550000X0.550000X0.550000X-0.550000X0.550000X0*%
%ADD35C,1.608074*%
%ADD36RoundRect,0.250001X0.949999X-0.949999X0.949999X0.949999X-0.949999X0.949999X-0.949999X-0.949999X0*%
%ADD37C,2.400000*%
%ADD38C,1.632000*%
%ADD39C,3.520000*%
%ADD40RoundRect,0.250000X-0.450000X0.262500X-0.450000X-0.262500X0.450000X-0.262500X0.450000X0.262500X0*%
%ADD41RoundRect,0.250000X0.250000X0.475000X-0.250000X0.475000X-0.250000X-0.475000X0.250000X-0.475000X0*%
%ADD42RoundRect,0.218750X0.218750X0.256250X-0.218750X0.256250X-0.218750X-0.256250X0.218750X-0.256250X0*%
%ADD43RoundRect,0.250000X0.450000X-0.262500X0.450000X0.262500X-0.450000X0.262500X-0.450000X-0.262500X0*%
%ADD44RoundRect,0.200000X0.275000X-0.200000X0.275000X0.200000X-0.275000X0.200000X-0.275000X-0.200000X0*%
%ADD45RoundRect,0.250000X0.262500X0.450000X-0.262500X0.450000X-0.262500X-0.450000X0.262500X-0.450000X0*%
%ADD46RoundRect,0.250000X-0.250000X-0.475000X0.250000X-0.475000X0.250000X0.475000X-0.250000X0.475000X0*%
%ADD47RoundRect,0.200000X-0.275000X0.200000X-0.275000X-0.200000X0.275000X-0.200000X0.275000X0.200000X0*%
%ADD48RoundRect,0.218750X-0.218750X-0.256250X0.218750X-0.256250X0.218750X0.256250X-0.218750X0.256250X0*%
%ADD49RoundRect,0.218750X-0.256250X0.218750X-0.256250X-0.218750X0.256250X-0.218750X0.256250X0.218750X0*%
%ADD50RoundRect,0.250000X0.350000X0.450000X-0.350000X0.450000X-0.350000X-0.450000X0.350000X-0.450000X0*%
%ADD51RoundRect,0.250000X-0.262500X-0.450000X0.262500X-0.450000X0.262500X0.450000X-0.262500X0.450000X0*%
%ADD52RoundRect,0.250000X0.450000X-0.350000X0.450000X0.350000X-0.450000X0.350000X-0.450000X-0.350000X0*%
%ADD53RoundRect,0.225000X0.225000X0.250000X-0.225000X0.250000X-0.225000X-0.250000X0.225000X-0.250000X0*%
%ADD54RoundRect,0.250000X0.475000X-0.250000X0.475000X0.250000X-0.475000X0.250000X-0.475000X-0.250000X0*%
%ADD55RoundRect,0.249999X-0.737501X-2.450001X0.737501X-2.450001X0.737501X2.450001X-0.737501X2.450001X0*%
%ADD56RoundRect,0.225000X0.250000X-0.225000X0.250000X0.225000X-0.250000X0.225000X-0.250000X-0.225000X0*%
%ADD57RoundRect,0.200000X-0.200000X-0.275000X0.200000X-0.275000X0.200000X0.275000X-0.200000X0.275000X0*%
%ADD58RoundRect,0.250000X-0.350000X-0.450000X0.350000X-0.450000X0.350000X0.450000X-0.350000X0.450000X0*%
%ADD59RoundRect,0.225000X-0.225000X-0.250000X0.225000X-0.250000X0.225000X0.250000X-0.225000X0.250000X0*%
%ADD60RoundRect,0.200000X0.200000X0.275000X-0.200000X0.275000X-0.200000X-0.275000X0.200000X-0.275000X0*%
%ADD61RoundRect,0.225000X-0.250000X0.225000X-0.250000X-0.225000X0.250000X-0.225000X0.250000X0.225000X0*%
%ADD62RoundRect,0.250000X-0.475000X0.250000X-0.475000X-0.250000X0.475000X-0.250000X0.475000X0.250000X0*%
%ADD63RoundRect,0.249999X-2.450001X0.737501X-2.450001X-0.737501X2.450001X-0.737501X2.450001X0.737501X0*%
%ADD64RoundRect,0.249999X2.450001X-0.737501X2.450001X0.737501X-2.450001X0.737501X-2.450001X-0.737501X0*%
G04 APERTURE END LIST*
D10*
%TO.C,Q3*%
X208432400Y-70662800D03*
D11*
X205892400Y-86462800D03*
D12*
X208432400Y-86462800D03*
X210972400Y-86462800D03*
%TD*%
D13*
%TO.C,F12*%
X167070000Y-126630000D03*
X172150000Y-126630000D03*
X176210000Y-126630000D03*
X181290000Y-126630000D03*
%TD*%
%TO.C,F6*%
X198070000Y-146470000D03*
X198070000Y-151550000D03*
X198070000Y-155610000D03*
X198070000Y-160690000D03*
%TD*%
D14*
%TO.C,D4*%
X211124800Y-96520000D03*
D15*
X213664800Y-96520000D03*
%TD*%
D16*
%TO.C,J12*%
X194971995Y-108369999D03*
X190771995Y-108369999D03*
X186571999Y-108369999D03*
X182372000Y-108369999D03*
X178172000Y-108369999D03*
X173972001Y-108369999D03*
X194971995Y-102870000D03*
X190771995Y-102870000D03*
X186571999Y-102870000D03*
X182372000Y-102870000D03*
X178172000Y-102870000D03*
X173972001Y-102870000D03*
%TD*%
D17*
%TO.C,VR3*%
X88404801Y-88632800D03*
X85864801Y-91172800D03*
X83324801Y-88632800D03*
%TD*%
D18*
%TO.C,H1*%
X217322400Y-65024000D03*
%TD*%
D14*
%TO.C,D6*%
X160324800Y-92405200D03*
D15*
X162864800Y-92405200D03*
%TD*%
D19*
%TO.C,J19*%
X129531200Y-109558701D03*
D20*
X129531200Y-112098701D03*
X129531200Y-114638701D03*
X129531200Y-117178701D03*
%TD*%
D16*
%TO.C,J17*%
X74709999Y-121620006D03*
X74709999Y-125820006D03*
X74709999Y-130020002D03*
X74709999Y-134220001D03*
X74709999Y-138420001D03*
X74709999Y-142620000D03*
X69210000Y-121620006D03*
X69210000Y-125820006D03*
X69210000Y-130020002D03*
X69210000Y-134220001D03*
X69210000Y-138420001D03*
X69210000Y-142620000D03*
%TD*%
D17*
%TO.C,VR4*%
X86830001Y-97459800D03*
X84290001Y-99999800D03*
X81750001Y-97459800D03*
%TD*%
D13*
%TO.C,F8*%
X123910000Y-136370000D03*
X118830000Y-136370000D03*
X114770000Y-136370000D03*
X109690000Y-136370000D03*
%TD*%
D10*
%TO.C,Q1*%
X124168001Y-62617400D03*
D11*
X121628001Y-78417400D03*
D12*
X124168001Y-78417400D03*
X126708001Y-78417400D03*
%TD*%
D13*
%TO.C,F2*%
X196470000Y-139100000D03*
X196470000Y-134020000D03*
X196470000Y-129960000D03*
X196470000Y-124880000D03*
%TD*%
D21*
%TO.C,J5*%
X204317600Y-144830800D03*
D22*
X204317600Y-150330800D03*
%TD*%
D23*
%TO.C,SW1*%
X157996800Y-80978500D03*
X164496800Y-80978500D03*
X157996800Y-85478500D03*
X164496800Y-85478500D03*
%TD*%
D24*
%TO.C,J9*%
X69444800Y-70172000D03*
D25*
X69444800Y-65972000D03*
X74944800Y-70172000D03*
X74944800Y-65972000D03*
%TD*%
D16*
%TO.C,U9*%
X165284400Y-132232400D03*
X167824400Y-132232400D03*
X170364400Y-132232400D03*
X183064400Y-132232400D03*
X185604400Y-132232400D03*
%TD*%
D13*
%TO.C,F1*%
X190950000Y-134120000D03*
X190950000Y-129040000D03*
X190950000Y-124980000D03*
X190950000Y-119900000D03*
%TD*%
D17*
%TO.C,VR2*%
X88120401Y-69215000D03*
X85580401Y-71755000D03*
X83040401Y-69215000D03*
%TD*%
D13*
%TO.C,F5*%
X207710000Y-136380000D03*
X207710000Y-131300000D03*
X207710000Y-127240000D03*
X207710000Y-122160000D03*
%TD*%
D10*
%TO.C,U3*%
X86436801Y-80695800D03*
D26*
X69776801Y-78155800D03*
D27*
X69776801Y-80695800D03*
X69776801Y-83235800D03*
%TD*%
D10*
%TO.C,Q2*%
X112523200Y-112217200D03*
D26*
X96723200Y-109677200D03*
D27*
X96723200Y-112217200D03*
X96723200Y-114757200D03*
%TD*%
D17*
%TO.C,VR1*%
X87846001Y-60833000D03*
X85306001Y-63373000D03*
X82766001Y-60833000D03*
%TD*%
D13*
%TO.C,F11*%
X183620000Y-159940000D03*
X183620000Y-154860000D03*
X183620000Y-150800000D03*
X183620000Y-145720000D03*
%TD*%
D24*
%TO.C,J11*%
X175400000Y-120530000D03*
D25*
X175400000Y-116330000D03*
X180900000Y-120530000D03*
X180900000Y-116330000D03*
%TD*%
D24*
%TO.C,J7*%
X114950000Y-151000000D03*
D25*
X120450000Y-151000000D03*
%TD*%
D28*
%TO.C,U2*%
X113398401Y-100152200D03*
D29*
X113398401Y-97612200D03*
X113398401Y-95072200D03*
X113398401Y-92532200D03*
X113398401Y-89992200D03*
X113398401Y-87452200D03*
X113398401Y-84912200D03*
X105778401Y-84912200D03*
X105778401Y-87452200D03*
X105778401Y-89992200D03*
X105778401Y-92532200D03*
X105778401Y-95072200D03*
X105778401Y-97612200D03*
X105778401Y-100152200D03*
%TD*%
D30*
%TO.C,J1*%
X144190000Y-72160000D03*
D22*
X144190000Y-66660000D03*
%TD*%
D31*
%TO.C,PS1*%
X130405200Y-135887699D03*
D32*
X130405200Y-143507699D03*
X130405200Y-151127699D03*
D33*
X158345200Y-151127699D03*
D32*
X158345200Y-147317699D03*
X158345200Y-143507699D03*
X158345200Y-139697699D03*
D33*
X158345200Y-135887699D03*
D32*
X130405200Y-139697699D03*
X130405200Y-147317699D03*
D33*
X158345200Y-154937699D03*
X158345200Y-132077699D03*
%TD*%
D13*
%TO.C,F7*%
X202430000Y-124840000D03*
X202430000Y-129920000D03*
X202430000Y-133980000D03*
X202430000Y-139060000D03*
%TD*%
%TO.C,F4*%
X109490000Y-157030000D03*
X114570000Y-157030000D03*
X118630000Y-157030000D03*
X123710000Y-157030000D03*
%TD*%
%TO.C,F9*%
X124040000Y-145510000D03*
X118960000Y-145510000D03*
X114900000Y-145510000D03*
X109820000Y-145510000D03*
%TD*%
D34*
%TO.C,U8*%
X209703600Y-106136400D03*
D29*
X209703600Y-108676400D03*
X209703600Y-111216400D03*
X209703600Y-113756400D03*
X217323600Y-113756400D03*
X217323600Y-111216400D03*
X217323600Y-108676400D03*
X217323600Y-106136400D03*
%TD*%
D34*
%TO.C,U4*%
X93484801Y-62255400D03*
D29*
X93484801Y-64795400D03*
X93484801Y-67335400D03*
X93484801Y-69875400D03*
X101104801Y-69875400D03*
X101104801Y-67335400D03*
X101104801Y-64795400D03*
X101104801Y-62255400D03*
%TD*%
D21*
%TO.C,J4*%
X178663600Y-67616000D03*
D22*
X182863600Y-67616000D03*
X178663600Y-73116000D03*
X182863600Y-73116000D03*
%TD*%
D30*
%TO.C,J2*%
X155610000Y-71550000D03*
D22*
X155610000Y-66050000D03*
%TD*%
D18*
%TO.C,H3*%
X204390000Y-157420000D03*
%TD*%
%TO.C,H4*%
X71577200Y-158038800D03*
%TD*%
D35*
%TO.C,K1*%
X144576800Y-78282000D03*
X144576800Y-88442000D03*
X144576800Y-96062000D03*
X152196800Y-96062000D03*
X152196800Y-88442000D03*
X152196800Y-78282000D03*
%TD*%
D34*
%TO.C,U6*%
X106337201Y-62153800D03*
D29*
X106337201Y-64693800D03*
X106337201Y-67233800D03*
X106337201Y-69773800D03*
X106337201Y-72313800D03*
X106337201Y-74853800D03*
X106337201Y-77393800D03*
X113957201Y-77393800D03*
X113957201Y-74853800D03*
X113957201Y-72313800D03*
X113957201Y-69773800D03*
X113957201Y-67233800D03*
X113957201Y-64693800D03*
X113957201Y-62153800D03*
%TD*%
D24*
%TO.C,J16*%
X70866000Y-149809200D03*
D25*
X76366000Y-149809200D03*
%TD*%
D30*
%TO.C,J8*%
X177800000Y-159307600D03*
D22*
X177800000Y-153807600D03*
%TD*%
D36*
%TO.C,C21*%
X119720000Y-128200000D03*
D37*
X119720000Y-123200000D03*
%TD*%
D35*
%TO.C,K3*%
X191820800Y-78740000D03*
X191820800Y-88900000D03*
X191820800Y-96520000D03*
X199440800Y-96520000D03*
X199440800Y-88900000D03*
X199440800Y-78740000D03*
%TD*%
D13*
%TO.C,F3*%
X165557200Y-160223200D03*
X165557200Y-155143200D03*
X165557200Y-151083200D03*
X165557200Y-146003200D03*
%TD*%
D16*
%TO.C,J18*%
X90000000Y-115295905D03*
X90000000Y-119495905D03*
X90000000Y-123695904D03*
X90000000Y-127895903D03*
X90000000Y-132095902D03*
X90000000Y-136295902D03*
X90000000Y-140495901D03*
X90000000Y-144695900D03*
X90000000Y-148895899D03*
X90000000Y-153095899D03*
X84500001Y-115295905D03*
X84500001Y-119495905D03*
X84500001Y-123695904D03*
X84500001Y-127895903D03*
X84500001Y-132095902D03*
X84500001Y-136295902D03*
X84500001Y-140495901D03*
X84500001Y-144695900D03*
X84500001Y-148895899D03*
X84500001Y-153095899D03*
%TD*%
%TO.C,J14*%
X97200000Y-152999999D03*
X97200000Y-148800000D03*
X97200000Y-144600001D03*
X97200000Y-140400001D03*
X97200000Y-136200002D03*
X97200000Y-132000003D03*
X97200000Y-127800004D03*
X102699999Y-152999999D03*
X102699999Y-148800000D03*
X102699999Y-144600001D03*
X102699999Y-140400001D03*
X102699999Y-136200002D03*
X102699999Y-132000003D03*
X102699999Y-127800004D03*
%TD*%
D34*
%TO.C,U5*%
X93942001Y-92583000D03*
D29*
X93942001Y-95123000D03*
X93942001Y-97663000D03*
X93942001Y-100203000D03*
X101562001Y-100203000D03*
X101562001Y-97663000D03*
X101562001Y-95123000D03*
X101562001Y-92583000D03*
%TD*%
D14*
%TO.C,D8*%
X183642000Y-90017600D03*
D15*
X186182000Y-90017600D03*
%TD*%
D10*
%TO.C,Q4*%
X216052400Y-134766000D03*
D11*
X218592400Y-118966000D03*
D12*
X216052400Y-118966000D03*
X213512400Y-118966000D03*
%TD*%
D24*
%TO.C,J15*%
X69733600Y-111997101D03*
D25*
X75233600Y-111997101D03*
%TD*%
D38*
%TO.C,J13*%
X189820400Y-157779600D03*
X189820400Y-155279600D03*
X189820400Y-153279600D03*
X189820400Y-150779600D03*
D39*
X192530400Y-160849600D03*
X192530400Y-147709600D03*
%TD*%
D35*
%TO.C,K2*%
X169442800Y-78488500D03*
X169442800Y-88648500D03*
X169442800Y-96268500D03*
X177062800Y-96268500D03*
X177062800Y-88648500D03*
X177062800Y-78488500D03*
%TD*%
D14*
%TO.C,D11*%
X203855400Y-93472000D03*
D15*
X206395400Y-93472000D03*
%TD*%
D34*
%TO.C,U7*%
X93840401Y-77393800D03*
D29*
X93840401Y-79933800D03*
X93840401Y-82473800D03*
X93840401Y-85013800D03*
X101460401Y-85013800D03*
X101460401Y-82473800D03*
X101460401Y-79933800D03*
X101460401Y-77393800D03*
%TD*%
D23*
%TO.C,SW3*%
X192430400Y-70205600D03*
X198930400Y-70205600D03*
X192430400Y-74705600D03*
X198930400Y-74705600D03*
%TD*%
D34*
%TO.C,U1*%
X122580400Y-83058000D03*
D29*
X122580400Y-85598000D03*
X122580400Y-88138000D03*
X122580400Y-90678000D03*
X122580400Y-93218000D03*
X122580400Y-95758000D03*
X122580400Y-98298000D03*
X130200400Y-98298000D03*
X130200400Y-95758000D03*
X130200400Y-93218000D03*
X130200400Y-90678000D03*
X130200400Y-88138000D03*
X130200400Y-85598000D03*
X130200400Y-83058000D03*
%TD*%
D30*
%TO.C,J10*%
X215747600Y-148959200D03*
D22*
X211547600Y-148959200D03*
X215747600Y-143459200D03*
X211547600Y-143459200D03*
%TD*%
D24*
%TO.C,J3*%
X211175600Y-156718000D03*
D25*
X216675600Y-156718000D03*
%TD*%
D23*
%TO.C,SW2*%
X181090000Y-79680000D03*
X187590000Y-79680000D03*
X181090000Y-84180000D03*
X187590000Y-84180000D03*
%TD*%
D13*
%TO.C,F10*%
X171500000Y-145770000D03*
X171500000Y-150850000D03*
X171500000Y-154910000D03*
X171500000Y-159990000D03*
%TD*%
D18*
%TO.C,H2*%
X69980000Y-94660000D03*
%TD*%
D30*
%TO.C,J6*%
X109510000Y-129970000D03*
D22*
X109510000Y-124470000D03*
%TD*%
D40*
%TO.C,R33*%
X215036400Y-105566200D03*
X215036400Y-107391200D03*
%TD*%
D41*
%TO.C,C19*%
X99960199Y-138327902D03*
X98060199Y-138327902D03*
%TD*%
D42*
%TO.C,D7*%
X149148800Y-78232000D03*
X147573800Y-78232000D03*
%TD*%
D43*
%TO.C,R29*%
X205841600Y-81836900D03*
X205841600Y-80011900D03*
%TD*%
D44*
%TO.C,R10*%
X81414801Y-72564600D03*
X81414801Y-70914600D03*
%TD*%
D41*
%TO.C,C18*%
X99960199Y-134111502D03*
X98060199Y-134111502D03*
%TD*%
D45*
%TO.C,R27*%
X104644100Y-115210800D03*
X102819100Y-115210800D03*
%TD*%
D44*
%TO.C,R5*%
X75247601Y-76694800D03*
X75247601Y-75044800D03*
%TD*%
D46*
%TO.C,C32*%
X72920000Y-132150000D03*
X74820000Y-132150000D03*
%TD*%
D47*
%TO.C,R20*%
X96024801Y-91695000D03*
X96024801Y-93345000D03*
%TD*%
D48*
%TO.C,D1*%
X116547801Y-96748600D03*
X118122801Y-96748600D03*
%TD*%
D49*
%TO.C,D5*%
X152806400Y-82245200D03*
X152806400Y-83820200D03*
%TD*%
D50*
%TO.C,R38*%
X157600400Y-89103200D03*
X155600400Y-89103200D03*
%TD*%
D10*
%TO.C,Q5*%
X138125200Y-119322800D03*
D11*
X135585200Y-103522800D03*
D12*
X138125200Y-103522800D03*
X140665200Y-103522800D03*
%TD*%
D47*
%TO.C,R14*%
X90132001Y-90234000D03*
X90132001Y-91884000D03*
%TD*%
D51*
%TO.C,R31*%
X210163400Y-92252800D03*
X211988400Y-92252800D03*
%TD*%
D52*
%TO.C,R41*%
X180441600Y-89528400D03*
X180441600Y-87528400D03*
%TD*%
D43*
%TO.C,R30*%
X141224000Y-90220800D03*
X141224000Y-88395800D03*
%TD*%
%TO.C,R50*%
X123494800Y-115109000D03*
X123494800Y-113284000D03*
%TD*%
%TO.C,R28*%
X141224000Y-93776800D03*
X141224000Y-91951800D03*
%TD*%
D53*
%TO.C,C8*%
X99251201Y-77089000D03*
X97701201Y-77089000D03*
%TD*%
D49*
%TO.C,D10*%
X199652800Y-83874100D03*
X199652800Y-85449100D03*
%TD*%
D54*
%TO.C,C12*%
X215087200Y-114350800D03*
X215087200Y-112450800D03*
%TD*%
D55*
%TO.C,C16*%
X165435000Y-139360000D03*
X170710000Y-139360000D03*
%TD*%
D56*
%TO.C,C1*%
X76060401Y-83642200D03*
X76060401Y-82092200D03*
%TD*%
D47*
%TO.C,R16*%
X88506401Y-99085400D03*
X88506401Y-100735400D03*
%TD*%
D57*
%TO.C,R4*%
X116066401Y-91313000D03*
X117716401Y-91313000D03*
%TD*%
D40*
%TO.C,R32*%
X208686400Y-79908400D03*
X208686400Y-81733400D03*
%TD*%
D58*
%TO.C,R42*%
X175698400Y-92760800D03*
X177698400Y-92760800D03*
%TD*%
D50*
%TO.C,R37*%
X149555200Y-88798400D03*
X147555200Y-88798400D03*
%TD*%
D53*
%TO.C,C5*%
X127508000Y-82951400D03*
X125958000Y-82951400D03*
%TD*%
D40*
%TO.C,R52*%
X161391600Y-145139400D03*
X161391600Y-146964400D03*
%TD*%
D51*
%TO.C,R56*%
X69679800Y-140546701D03*
X71504800Y-140546701D03*
%TD*%
D47*
%TO.C,R1*%
X87642801Y-84558200D03*
X87642801Y-86208200D03*
%TD*%
%TO.C,R9*%
X89522401Y-62485000D03*
X89522401Y-64135000D03*
%TD*%
D59*
%TO.C,C6*%
X108241601Y-100507800D03*
X109791601Y-100507800D03*
%TD*%
D51*
%TO.C,R53*%
X69578200Y-127897501D03*
X71403200Y-127897501D03*
%TD*%
D47*
%TO.C,R11*%
X89949201Y-70953200D03*
X89949201Y-72603200D03*
%TD*%
D60*
%TO.C,R6*%
X115150001Y-103505000D03*
X113500001Y-103505000D03*
%TD*%
D46*
%TO.C,C34*%
X73028800Y-140546701D03*
X74928800Y-140546701D03*
%TD*%
D55*
%TO.C,C23*%
X182265000Y-137820000D03*
X187540000Y-137820000D03*
%TD*%
D58*
%TO.C,R39*%
X175038000Y-86258400D03*
X177038000Y-86258400D03*
%TD*%
D47*
%TO.C,R24*%
X95821601Y-77267800D03*
X95821601Y-78917800D03*
%TD*%
D44*
%TO.C,R19*%
X98869601Y-64464200D03*
X98869601Y-62814200D03*
%TD*%
D49*
%TO.C,D9*%
X177038000Y-80644900D03*
X177038000Y-82219900D03*
%TD*%
D54*
%TO.C,C11*%
X215087200Y-110896400D03*
X215087200Y-108996400D03*
%TD*%
D53*
%TO.C,C4*%
X117437601Y-98729800D03*
X115887601Y-98729800D03*
%TD*%
D44*
%TO.C,R2*%
X78041601Y-79883000D03*
X78041601Y-78233000D03*
%TD*%
D52*
%TO.C,R43*%
X197002400Y-87258400D03*
X197002400Y-85258400D03*
%TD*%
%TO.C,R44*%
X199948800Y-93135200D03*
X199948800Y-91135200D03*
%TD*%
D44*
%TO.C,R12*%
X120040400Y-75336400D03*
X120040400Y-73686400D03*
%TD*%
D61*
%TO.C,C3*%
X75247601Y-78383800D03*
X75247601Y-79933800D03*
%TD*%
D62*
%TO.C,C30*%
X155041600Y-141523600D03*
X155041600Y-143423600D03*
%TD*%
D10*
%TO.C,Q6*%
X150571200Y-118865600D03*
D11*
X148031200Y-103065600D03*
D12*
X150571200Y-103065600D03*
X153111200Y-103065600D03*
%TD*%
D63*
%TO.C,C29*%
X148132800Y-139918400D03*
X148132800Y-145193400D03*
%TD*%
D51*
%TO.C,R54*%
X69525500Y-132063101D03*
X71350500Y-132063101D03*
%TD*%
D60*
%TO.C,R7*%
X108692001Y-103352600D03*
X107042001Y-103352600D03*
%TD*%
D41*
%TO.C,C14*%
X99960199Y-146709902D03*
X98060199Y-146709902D03*
%TD*%
D60*
%TO.C,R23*%
X120497600Y-95123000D03*
X118847600Y-95123000D03*
%TD*%
D44*
%TO.C,R15*%
X79972001Y-100761800D03*
X79972001Y-99111800D03*
%TD*%
D62*
%TO.C,C22*%
X134772400Y-140477200D03*
X134772400Y-142377200D03*
%TD*%
D44*
%TO.C,R8*%
X80988001Y-64159400D03*
X80988001Y-62509400D03*
%TD*%
D60*
%TO.C,R17*%
X132066401Y-80187800D03*
X130416401Y-80187800D03*
%TD*%
D64*
%TO.C,C35*%
X149530000Y-136585000D03*
X149530000Y-131310000D03*
%TD*%
D10*
%TO.C,Q7*%
X163017200Y-119315200D03*
D11*
X160477200Y-103515200D03*
D12*
X163017200Y-103515200D03*
X165557200Y-103515200D03*
%TD*%
D51*
%TO.C,R46*%
X101514599Y-142544302D03*
X103339599Y-142544302D03*
%TD*%
D63*
%TO.C,C25*%
X141730000Y-140015000D03*
X141730000Y-145290000D03*
%TD*%
D58*
%TO.C,R36*%
X147555200Y-91389200D03*
X149555200Y-91389200D03*
%TD*%
D45*
%TO.C,R35*%
X214782400Y-124663200D03*
X212957400Y-124663200D03*
%TD*%
D57*
%TO.C,SchmittDis1*%
X117513201Y-102692200D03*
X119163201Y-102692200D03*
%TD*%
D41*
%TO.C,C15*%
X99960199Y-142544302D03*
X98060199Y-142544302D03*
%TD*%
D48*
%TO.C,D12*%
X195817300Y-94694500D03*
X197392300Y-94694500D03*
%TD*%
D45*
%TO.C,R26*%
X108411000Y-115214400D03*
X106586000Y-115214400D03*
%TD*%
%TO.C,R51*%
X155596600Y-147472400D03*
X153771600Y-147472400D03*
%TD*%
D64*
%TO.C,C28*%
X141740000Y-136975000D03*
X141740000Y-131700000D03*
%TD*%
D48*
%TO.C,D2*%
X139547400Y-95504000D03*
X141122400Y-95504000D03*
%TD*%
D58*
%TO.C,R40*%
X182404000Y-94996000D03*
X184404000Y-94996000D03*
%TD*%
D51*
%TO.C,R48*%
X101518399Y-138327902D03*
X103343399Y-138327902D03*
%TD*%
D56*
%TO.C,C2*%
X85763201Y-86157400D03*
X85763201Y-84607400D03*
%TD*%
D44*
%TO.C,R13*%
X81597601Y-92036400D03*
X81597601Y-90386400D03*
%TD*%
D57*
%TO.C,schmittEN1*%
X120967601Y-102590600D03*
X122617601Y-102590600D03*
%TD*%
D47*
%TO.C,R18*%
X95364401Y-60453000D03*
X95364401Y-62103000D03*
%TD*%
D46*
%TO.C,C33*%
X73028800Y-136330301D03*
X74928800Y-136330301D03*
%TD*%
D44*
%TO.C,R21*%
X99174401Y-94830400D03*
X99174401Y-93180400D03*
%TD*%
D53*
%TO.C,C9*%
X99251201Y-91567000D03*
X97701201Y-91567000D03*
%TD*%
D46*
%TO.C,C27*%
X185552000Y-125084800D03*
X187452000Y-125084800D03*
%TD*%
D51*
%TO.C,R45*%
X101514599Y-146709902D03*
X103339599Y-146709902D03*
%TD*%
D46*
%TO.C,C31*%
X72970000Y-127950000D03*
X74870000Y-127950000D03*
%TD*%
D58*
%TO.C,R49*%
X169196000Y-134620000D03*
X171196000Y-134620000D03*
%TD*%
D60*
%TO.C,R3*%
X83578801Y-86182200D03*
X81928801Y-86182200D03*
%TD*%
D51*
%TO.C,R55*%
X69645600Y-136330301D03*
X71470600Y-136330301D03*
%TD*%
D42*
%TO.C,D3*%
X140462000Y-99415600D03*
X138887000Y-99415600D03*
%TD*%
D62*
%TO.C,C20*%
X132588000Y-140558400D03*
X132588000Y-142458400D03*
%TD*%
D46*
%TO.C,C24*%
X185521600Y-127421600D03*
X187421600Y-127421600D03*
%TD*%
%TO.C,C17*%
X164857600Y-134620000D03*
X166757600Y-134620000D03*
%TD*%
D62*
%TO.C,C26*%
X123494800Y-116636800D03*
X123494800Y-118536800D03*
%TD*%
D57*
%TO.C,R22*%
X115735201Y-95123000D03*
X117385201Y-95123000D03*
%TD*%
D40*
%TO.C,R34*%
X212211510Y-107892502D03*
X212211510Y-109717502D03*
%TD*%
D44*
%TO.C,R25*%
X99174401Y-81177400D03*
X99174401Y-79527400D03*
%TD*%
D53*
%TO.C,C7*%
X111772801Y-62103000D03*
X110222801Y-62103000D03*
%TD*%
%TO.C,C10*%
X98730201Y-61087000D03*
X97180201Y-61087000D03*
%TD*%
D51*
%TO.C,R47*%
X101514599Y-134111502D03*
X103339599Y-134111502D03*
%TD*%
D41*
%TO.C,C13*%
X217088800Y-103174800D03*
X215188800Y-103174800D03*
%TD*%
M02*
