%TF.GenerationSoftware,KiCad,Pcbnew,9.0.7*%
%TF.CreationDate,2026-04-05T23:28:33-07:00*%
%TF.ProjectId,SafetyBoard,53616665-7479-4426-9f61-72642e6b6963,rev?*%
%TF.SameCoordinates,Original*%
%TF.FileFunction,Copper,L1,Top*%
%TF.FilePolarity,Positive*%
%FSLAX46Y46*%
G04 Gerber Fmt 4.6, Leading zero omitted, Abs format (unit mm)*
G04 Created by KiCad (PCBNEW 9.0.7) date 2026-04-05 23:28:33*
%MOMM*%
%LPD*%
G01*
G04 APERTURE LIST*
G04 Aperture macros list*
%AMRoundRect*
0 Rectangle with rounded corners*
0 $1 Rounding radius*
0 $2 $3 $4 $5 $6 $7 $8 $9 X,Y pos of 4 corners*
0 Add a 4 corners polygon primitive as box body*
4,1,4,$2,$3,$4,$5,$6,$7,$8,$9,$2,$3,0*
0 Add four circle primitives for the rounded corners*
1,1,$1+$1,$2,$3*
1,1,$1+$1,$4,$5*
1,1,$1+$1,$6,$7*
1,1,$1+$1,$8,$9*
0 Add four rect primitives between the rounded corners*
20,1,$1+$1,$2,$3,$4,$5,0*
20,1,$1+$1,$4,$5,$6,$7,0*
20,1,$1+$1,$6,$7,$8,$9,0*
20,1,$1+$1,$8,$9,$2,$3,0*%
G04 Aperture macros list end*
%TA.AperFunction,ComponentPad*%
%ADD10R,1.905000X2.000000*%
%TD*%
%TA.AperFunction,ComponentPad*%
%ADD11O,1.905000X2.000000*%
%TD*%
%TA.AperFunction,ComponentPad*%
%ADD12C,3.500000*%
%TD*%
%TA.AperFunction,ComponentPad*%
%ADD13R,1.800000X1.800000*%
%TD*%
%TA.AperFunction,ComponentPad*%
%ADD14C,1.800000*%
%TD*%
%TA.AperFunction,ComponentPad*%
%ADD15C,1.955800*%
%TD*%
%TA.AperFunction,ComponentPad*%
%ADD16C,1.440000*%
%TD*%
%TA.AperFunction,ComponentPad*%
%ADD17R,1.700000X1.700000*%
%TD*%
%TA.AperFunction,ComponentPad*%
%ADD18C,1.700000*%
%TD*%
%TA.AperFunction,SMDPad,CuDef*%
%ADD19RoundRect,0.250000X-0.325000X-0.450000X0.325000X-0.450000X0.325000X0.450000X-0.325000X0.450000X0*%
%TD*%
%TA.AperFunction,ComponentPad*%
%ADD20RoundRect,0.250001X-1.099999X-1.399999X1.099999X-1.399999X1.099999X1.399999X-1.099999X1.399999X0*%
%TD*%
%TA.AperFunction,ComponentPad*%
%ADD21O,2.700000X3.300000*%
%TD*%
%TA.AperFunction,ComponentPad*%
%ADD22C,2.000000*%
%TD*%
%TA.AperFunction,ComponentPad*%
%ADD23RoundRect,0.250001X1.399999X-1.099999X1.399999X1.099999X-1.399999X1.099999X-1.399999X-1.099999X0*%
%TD*%
%TA.AperFunction,ComponentPad*%
%ADD24O,3.300000X2.700000*%
%TD*%
%TA.AperFunction,ComponentPad*%
%ADD25R,2.000000X1.905000*%
%TD*%
%TA.AperFunction,ComponentPad*%
%ADD26O,2.000000X1.905000*%
%TD*%
%TA.AperFunction,ComponentPad*%
%ADD27RoundRect,0.250000X0.550000X0.550000X-0.550000X0.550000X-0.550000X-0.550000X0.550000X-0.550000X0*%
%TD*%
%TA.AperFunction,ComponentPad*%
%ADD28C,1.600000*%
%TD*%
%TA.AperFunction,ComponentPad*%
%ADD29RoundRect,0.250001X1.099999X1.399999X-1.099999X1.399999X-1.099999X-1.399999X1.099999X-1.399999X0*%
%TD*%
%TA.AperFunction,ComponentPad*%
%ADD30R,1.830000X1.830000*%
%TD*%
%TA.AperFunction,ComponentPad*%
%ADD31C,1.830000*%
%TD*%
%TA.AperFunction,ComponentPad*%
%ADD32C,2.655000*%
%TD*%
%TA.AperFunction,ComponentPad*%
%ADD33RoundRect,0.250000X-0.550000X-0.550000X0.550000X-0.550000X0.550000X0.550000X-0.550000X0.550000X0*%
%TD*%
%TA.AperFunction,ComponentPad*%
%ADD34C,1.608074*%
%TD*%
%TA.AperFunction,ComponentPad*%
%ADD35RoundRect,0.250001X0.949999X-0.949999X0.949999X0.949999X-0.949999X0.949999X-0.949999X-0.949999X0*%
%TD*%
%TA.AperFunction,ComponentPad*%
%ADD36C,2.400000*%
%TD*%
%TA.AperFunction,ComponentPad*%
%ADD37C,1.428000*%
%TD*%
%TA.AperFunction,ComponentPad*%
%ADD38C,3.316000*%
%TD*%
%TA.AperFunction,SMDPad,CuDef*%
%ADD39RoundRect,0.250000X0.325000X0.450000X-0.325000X0.450000X-0.325000X-0.450000X0.325000X-0.450000X0*%
%TD*%
%TA.AperFunction,ViaPad*%
%ADD40C,0.600000*%
%TD*%
%TA.AperFunction,Conductor*%
%ADD41C,0.550000*%
%TD*%
%TA.AperFunction,Conductor*%
%ADD42C,0.200000*%
%TD*%
%TA.AperFunction,Conductor*%
%ADD43C,2.500000*%
%TD*%
%TA.AperFunction,Conductor*%
%ADD44C,2.000000*%
%TD*%
%TA.AperFunction,Conductor*%
%ADD45C,1.500000*%
%TD*%
%TA.AperFunction,Conductor*%
%ADD46C,0.700000*%
%TD*%
%TA.AperFunction,Conductor*%
%ADD47C,1.000000*%
%TD*%
G04 APERTURE END LIST*
D10*
%TO.P,Q3,1,G*%
%TO.N,Net-(D2-K)*%
X205892400Y-86462800D03*
D11*
%TO.P,Q3,2,D*%
%TO.N,/TSSI/GREEN_LED*%
X208432400Y-86462800D03*
%TO.P,Q3,3,S*%
%TO.N,GND*%
X210972400Y-86462800D03*
%TD*%
D12*
%TO.P,F12,1*%
%TO.N,Net-(PS1-SENSE+)*%
X167070000Y-126630000D03*
X172150000Y-126630000D03*
%TO.P,F12,2*%
%TO.N,/12V*%
X176210000Y-126630000D03*
X181290000Y-126630000D03*
%TD*%
%TO.P,F6,1*%
%TO.N,/12V*%
X198070000Y-146470000D03*
X198070000Y-151550000D03*
%TO.P,F6,2*%
%TO.N,Net-(J4-Pin_1)*%
X198070000Y-155610000D03*
X198070000Y-160690000D03*
%TD*%
D13*
%TO.P,D4,1,K*%
%TO.N,GND*%
X211124800Y-96520000D03*
D14*
%TO.P,D4,2,A*%
%TO.N,Net-(D4-A)*%
X213664800Y-96520000D03*
%TD*%
D15*
%TO.P,J12,1,1*%
%TO.N,+12V*%
X194971995Y-108369999D03*
%TO.P,J12,2,2*%
%TO.N,/IMD Fault*%
X190771995Y-108369999D03*
%TO.P,J12,3,3*%
%TO.N,+12V*%
X186571999Y-108369999D03*
%TO.P,J12,4,4*%
%TO.N,GND*%
X182372000Y-108369999D03*
%TO.P,J12,5,5*%
X178172000Y-108369999D03*
%TO.P,J12,6,6*%
X173972001Y-108369999D03*
%TO.P,J12,7,7*%
%TO.N,/LATCH/bspd_reset*%
X194971995Y-102870000D03*
%TO.P,J12,8,8*%
%TO.N,/LATCH/imd_reset*%
X190771995Y-102870000D03*
%TO.P,J12,9,9*%
%TO.N,/LATCH/bms_reset*%
X186571999Y-102870000D03*
%TO.P,J12,10,10*%
%TO.N,/LATCH/BMSfault_LED*%
X182372000Y-102870000D03*
%TO.P,J12,11,11*%
%TO.N,/LATCH/IMDfault_LED*%
X178172000Y-102870000D03*
%TO.P,J12,12,12*%
%TO.N,/LATCH/BSPDfault_LED*%
X173972001Y-102870000D03*
%TD*%
D16*
%TO.P,VR3,1,CCW*%
%TO.N,Net-(VR3-CCW)*%
X88404801Y-88632800D03*
%TO.P,VR3,2,WIPER*%
%TO.N,/BSPD/BRAKE_THRESHOLD*%
X85864801Y-91172800D03*
%TO.P,VR3,3,CW*%
%TO.N,Net-(VR3-CW)*%
X83324801Y-88632800D03*
%TD*%
D13*
%TO.P,D6,1,K*%
%TO.N,Net-(D6-K)*%
X160324800Y-92405200D03*
D14*
%TO.P,D6,2,A*%
%TO.N,/LATCH/bspd_reset*%
X162864800Y-92405200D03*
%TD*%
D17*
%TO.P,J19,1,Pin_1*%
%TO.N,/CCM Helper/12V*%
X129531200Y-109558701D03*
D18*
%TO.P,J19,2,Pin_2*%
%TO.N,/CCM Helper/Speaker LPF'd*%
X129531200Y-112098701D03*
%TO.P,J19,3,Pin_3*%
%TO.N,/CCM Helper/CCMGND*%
X129531200Y-114638701D03*
%TO.P,J19,4,Pin_4*%
X129531200Y-117178701D03*
%TD*%
D15*
%TO.P,J17,1,1*%
%TO.N,/CCM Helper/5V*%
X74709999Y-121620006D03*
%TO.P,J17,2,2*%
X74709999Y-125820006D03*
%TO.P,J17,3,3*%
%TO.N,/CCM Helper/CCMGND*%
X74709999Y-130020002D03*
%TO.P,J17,4,4*%
X74709999Y-134220001D03*
%TO.P,J17,5,5*%
X74709999Y-138420001D03*
%TO.P,J17,6,6*%
X74709999Y-142620000D03*
%TO.P,J17,7,7*%
%TO.N,/CCM Helper/5V*%
X69210000Y-121620006D03*
%TO.P,J17,8,8*%
X69210000Y-125820006D03*
%TO.P,J17,9,9*%
%TO.N,/CCM Helper/Wheel{slash}Shock1 IN*%
X69210000Y-130020002D03*
%TO.P,J17,10,10*%
%TO.N,/CCM Helper/Wheel{slash}Shock2 IN*%
X69210000Y-134220001D03*
%TO.P,J17,11,11*%
%TO.N,/CCM Helper/Wheel{slash}Shock3 IN*%
X69210000Y-138420001D03*
%TO.P,J17,12,12*%
%TO.N,/CCM Helper/Wheel{slash}Shock4 IN*%
X69210000Y-142620000D03*
%TD*%
D16*
%TO.P,VR4,1,CCW*%
%TO.N,Net-(VR4-CCW)*%
X86830001Y-97459800D03*
%TO.P,VR4,2,WIPER*%
%TO.N,/BSPD/PEDAL_THRESHOLD*%
X84290001Y-99999800D03*
%TO.P,VR4,3,CW*%
%TO.N,Net-(VR4-CW)*%
X81750001Y-97459800D03*
%TD*%
D19*
%TO.P,OutOfRange1,1,K*%
%TO.N,GND*%
X111306601Y-103555800D03*
%TO.P,OutOfRange1,2,A*%
%TO.N,Net-(OutOfRange1-A)*%
X113356601Y-103555800D03*
%TD*%
D12*
%TO.P,F8,1*%
%TO.N,/24V*%
X123910000Y-136370000D03*
X118830000Y-136370000D03*
%TO.P,F8,2*%
%TO.N,Net-(J6-Pin_1)*%
X114770000Y-136370000D03*
X109690000Y-136370000D03*
%TD*%
D10*
%TO.P,Q1,1,G*%
%TO.N,/BSPD/FAULT_SENSED*%
X121628001Y-78417400D03*
D11*
%TO.P,Q1,2,D*%
%TO.N,/BSPD/BSPD_FAULT*%
X124168001Y-78417400D03*
%TO.P,Q1,3,S*%
%TO.N,GND*%
X126708001Y-78417400D03*
%TD*%
D12*
%TO.P,F2,1*%
%TO.N,/12V*%
X196470000Y-139100000D03*
X196470000Y-134020000D03*
%TO.P,F2,2*%
%TO.N,+12V*%
X196470000Y-129960000D03*
X196470000Y-124880000D03*
%TD*%
D20*
%TO.P,J5,1,Pin_1*%
%TO.N,Net-(J5-Pin_1)*%
X204317600Y-144830800D03*
D21*
%TO.P,J5,2,Pin_2*%
%TO.N,GND*%
X204317600Y-150330800D03*
%TD*%
D22*
%TO.P,SW1,1,1*%
%TO.N,+12V*%
X157996800Y-80978500D03*
X164496800Y-80978500D03*
%TO.P,SW1,2,2*%
%TO.N,/LATCH/bspd_reset*%
X157996800Y-85478500D03*
X164496800Y-85478500D03*
%TD*%
D23*
%TO.P,J9,1,Pin_1*%
%TO.N,+5V*%
X69444800Y-70172000D03*
D24*
%TO.P,J9,2,Pin_2*%
%TO.N,/BSPD/C_IN*%
X69444800Y-65972000D03*
%TO.P,J9,3,Pin_3*%
%TO.N,unconnected-(J9-Pin_3-Pad3)*%
X74944800Y-70172000D03*
%TO.P,J9,4,Pin_4*%
%TO.N,GND*%
X74944800Y-65972000D03*
%TD*%
D15*
%TO.P,U9,1,+VOUT*%
%TO.N,/5V*%
X165284400Y-132232400D03*
%TO.P,U9,2,TRIM*%
%TO.N,Net-(U9-TRIM)*%
X167824400Y-132232400D03*
%TO.P,U9,3,GND_COMMON*%
%TO.N,GND*%
X170364400Y-132232400D03*
%TO.P,U9,4,+VIN*%
%TO.N,/12V*%
X183064400Y-132232400D03*
%TO.P,U9,5,REMOTE_ON/OFF*%
%TO.N,GND*%
X185604400Y-132232400D03*
%TD*%
D12*
%TO.P,F1,1*%
%TO.N,/12V*%
X190950000Y-134120000D03*
X190950000Y-129040000D03*
%TO.P,F1,2*%
%TO.N,+12V*%
X190950000Y-124980000D03*
X190950000Y-119900000D03*
%TD*%
D16*
%TO.P,VR2,1,CCW*%
%TO.N,Net-(VR2-CCW)*%
X88120401Y-69215000D03*
%TO.P,VR2,2,WIPER*%
%TO.N,/BSPD/SHORT_CIRCUIT*%
X85580401Y-71755000D03*
%TO.P,VR2,3,CW*%
%TO.N,Net-(VR2-CW)*%
X83040401Y-69215000D03*
%TD*%
D12*
%TO.P,F5,1*%
%TO.N,/TSSI/GLV*%
X207710000Y-136380000D03*
X207710000Y-131300000D03*
%TO.P,F5,2*%
%TO.N,/12V*%
X207710000Y-127240000D03*
X207710000Y-122160000D03*
%TD*%
D25*
%TO.P,U3,1,GND*%
%TO.N,GND*%
X69776801Y-78155800D03*
D26*
%TO.P,U3,2,VO*%
%TO.N,+5V*%
X69776801Y-80695800D03*
%TO.P,U3,3,VI*%
%TO.N,+12V*%
X69776801Y-83235800D03*
%TD*%
D25*
%TO.P,Q2,1,G*%
%TO.N,/CCM Helper/TSSI BYP*%
X96723200Y-109677200D03*
D26*
%TO.P,Q2,2,D*%
%TO.N,Net-(D3-A)*%
X96723200Y-112217200D03*
%TO.P,Q2,3,S*%
%TO.N,GND*%
X96723200Y-114757200D03*
%TD*%
D16*
%TO.P,VR1,1,CCW*%
%TO.N,Net-(VR1-CCW)*%
X87846001Y-60833000D03*
%TO.P,VR1,2,WIPER*%
%TO.N,/BSPD/OPEN_CIRCUIT*%
X85306001Y-63373000D03*
%TO.P,VR1,3,CW*%
%TO.N,Net-(VR1-CW)*%
X82766001Y-60833000D03*
%TD*%
D12*
%TO.P,F11,1*%
%TO.N,Net-(J13-VBUS)*%
X183620000Y-159940000D03*
X183620000Y-154860000D03*
%TO.P,F11,2*%
%TO.N,/5V*%
X183620000Y-150800000D03*
X183620000Y-145720000D03*
%TD*%
D23*
%TO.P,J11,1,Pin_1*%
%TO.N,GND*%
X175400000Y-120530000D03*
D24*
%TO.P,J11,2,Pin_2*%
%TO.N,/LATCH/BSPDfault_LED*%
X175400000Y-116330000D03*
%TO.P,J11,3,Pin_3*%
%TO.N,/LATCH/BMSfault_LED*%
X180900000Y-120530000D03*
%TO.P,J11,4,Pin_4*%
%TO.N,/LATCH/IMDfault_LED*%
X180900000Y-116330000D03*
%TD*%
D23*
%TO.P,J7,1,Pin_1*%
%TO.N,Net-(J7-Pin_1)*%
X114950000Y-151000000D03*
D24*
%TO.P,J7,2,Pin_2*%
%TO.N,GND*%
X120450000Y-151000000D03*
%TD*%
D27*
%TO.P,U2,1*%
%TO.N,/BSPD/BRAKE_APPLIED*%
X113398401Y-100152200D03*
D28*
%TO.P,U2,2*%
%TO.N,/BSPD/PEDAL_APPLIED*%
X113398401Y-97612200D03*
%TO.P,U2,3*%
%TO.N,Net-(D1-K)*%
X113398401Y-95072200D03*
%TO.P,U2,4*%
%TO.N,Net-(R4-Pad1)*%
X113398401Y-92532200D03*
%TO.P,U2,5*%
%TO.N,+12V*%
X113398401Y-89992200D03*
%TO.P,U2,6*%
%TO.N,/BSPD/BRAKE_ERROR*%
X113398401Y-87452200D03*
%TO.P,U2,7,VSS*%
%TO.N,GND*%
X113398401Y-84912200D03*
%TO.P,U2,8*%
%TO.N,+12V*%
X105778401Y-84912200D03*
%TO.P,U2,9*%
%TO.N,/BSPD/PEDAL_ERROR*%
X105778401Y-87452200D03*
%TO.P,U2,10*%
%TO.N,Net-(R6-Pad1)*%
X105778401Y-89992200D03*
%TO.P,U2,11*%
%TO.N,Net-(R7-Pad1)*%
X105778401Y-92532200D03*
%TO.P,U2,12*%
%TO.N,+12V*%
X105778401Y-95072200D03*
%TO.P,U2,13*%
%TO.N,/BSPD/BOTH_ON*%
X105778401Y-97612200D03*
%TO.P,U2,14,VDD*%
%TO.N,+12V*%
X105778401Y-100152200D03*
%TD*%
D29*
%TO.P,J1,1,Pin_1*%
%TO.N,/LATCH/GVLM_OUTPUT*%
X144190000Y-72160000D03*
D21*
%TO.P,J1,2,Pin_2*%
%TO.N,Net-(J1-Pin_2)*%
X144190000Y-66660000D03*
%TD*%
D30*
%TO.P,PS1,1,VIN_(+)_1*%
%TO.N,/24V*%
X130405200Y-135887699D03*
D31*
%TO.P,PS1,2,ON/OFF*%
%TO.N,GND*%
X130405200Y-143507699D03*
%TO.P,PS1,3,VIN_(-)_/_GND_1*%
X130405200Y-151127699D03*
D32*
%TO.P,PS1,4,VOUT_(-)_/_GND_1*%
X158345200Y-151127699D03*
D31*
%TO.P,PS1,5,CURRENT_LIMIT_(OCP)_ADJUST*%
%TO.N,Net-(PS1-CURRENT_LIMIT_(OCP)_ADJUST)*%
X158345200Y-147317699D03*
%TO.P,PS1,6,TRIM*%
%TO.N,Net-(PS1-TRIM)*%
X158345200Y-143507699D03*
%TO.P,PS1,7,SENSE+*%
%TO.N,Net-(PS1-SENSE+)*%
X158345200Y-139697699D03*
D32*
%TO.P,PS1,8,VOUT_(+)_1*%
X158345200Y-135887699D03*
D31*
%TO.P,PS1,9,VIN_(+)_2*%
%TO.N,/24V*%
X130405200Y-139697699D03*
%TO.P,PS1,10,VIN_(-)_/_GND_2*%
%TO.N,GND*%
X130405200Y-147317699D03*
D32*
%TO.P,PS1,11,VOUT_(-)_/_GND_2*%
X158345200Y-154937699D03*
%TO.P,PS1,12,VOUT_(+)_2*%
%TO.N,Net-(PS1-SENSE+)*%
X158345200Y-132077699D03*
%TD*%
D12*
%TO.P,F7,1*%
%TO.N,/12V*%
X202430000Y-124840000D03*
X202430000Y-129920000D03*
%TO.P,F7,2*%
%TO.N,Net-(J5-Pin_1)*%
X202430000Y-133980000D03*
X202430000Y-139060000D03*
%TD*%
%TO.P,F4,1*%
%TO.N,/CCM Helper/24V*%
X109490000Y-157030000D03*
X114570000Y-157030000D03*
%TO.P,F4,2*%
%TO.N,/24V*%
X118630000Y-157030000D03*
X123710000Y-157030000D03*
%TD*%
D19*
%TO.P,BothThreshold1,1,K*%
%TO.N,GND*%
X104864001Y-103352600D03*
%TO.P,BothThreshold1,2,A*%
%TO.N,Net-(BothThreshold1-A)*%
X106914001Y-103352600D03*
%TD*%
D12*
%TO.P,F9,1*%
%TO.N,/24V*%
X124040000Y-145510000D03*
X118960000Y-145510000D03*
%TO.P,F9,2*%
%TO.N,Net-(J7-Pin_1)*%
X114900000Y-145510000D03*
X109820000Y-145510000D03*
%TD*%
D33*
%TO.P,U8,1,GND*%
%TO.N,GND*%
X209703600Y-106136400D03*
D28*
%TO.P,U8,2,TR*%
%TO.N,Net-(U8-THR)*%
X209703600Y-108676400D03*
%TO.P,U8,3,Q*%
%TO.N,Net-(Q4-G)*%
X209703600Y-111216400D03*
%TO.P,U8,4,R*%
%TO.N,/TSSI/GREEN_LED*%
X209703600Y-113756400D03*
%TO.P,U8,5,CV*%
%TO.N,Net-(U8-CV)*%
X217323600Y-113756400D03*
%TO.P,U8,6,THR*%
%TO.N,Net-(U8-THR)*%
X217323600Y-111216400D03*
%TO.P,U8,7,DIS*%
%TO.N,Net-(U8-DIS)*%
X217323600Y-108676400D03*
%TO.P,U8,8,VCC*%
%TO.N,/TSSI/GLV*%
X217323600Y-106136400D03*
%TD*%
D33*
%TO.P,U4,1*%
%TO.N,/BSPD/BRAKE_SHORT*%
X93484801Y-62255400D03*
D28*
%TO.P,U4,2,-*%
%TO.N,/BSPD/BRAKE*%
X93484801Y-64795400D03*
%TO.P,U4,3,+*%
%TO.N,/BSPD/SHORT_CIRCUIT*%
X93484801Y-67335400D03*
%TO.P,U4,4,V-*%
%TO.N,GND*%
X93484801Y-69875400D03*
%TO.P,U4,5,+*%
%TO.N,/BSPD/BRAKE*%
X101104801Y-69875400D03*
%TO.P,U4,6,-*%
%TO.N,/BSPD/OPEN_CIRCUIT*%
X101104801Y-67335400D03*
%TO.P,U4,7*%
%TO.N,/BSPD/BRAKE_OPEN*%
X101104801Y-64795400D03*
%TO.P,U4,8,V+*%
%TO.N,+12V*%
X101104801Y-62255400D03*
%TD*%
D20*
%TO.P,J4,1,Pin_1*%
%TO.N,Net-(J4-Pin_1)*%
X178663600Y-67616000D03*
D21*
%TO.P,J4,2,Pin_2*%
%TO.N,GND*%
X182863600Y-67616000D03*
%TO.P,J4,3,Pin_3*%
%TO.N,/IMD Fault*%
X178663600Y-73116000D03*
%TO.P,J4,4,Pin_4*%
%TO.N,/BMS FAULT*%
X182863600Y-73116000D03*
%TD*%
D29*
%TO.P,J2,1,Pin_1*%
%TO.N,Net-(J1-Pin_2)*%
X155610000Y-71550000D03*
D21*
%TO.P,J2,2,Pin_2*%
%TO.N,Net-(J2-Pin_2)*%
X155610000Y-66050000D03*
%TD*%
D34*
%TO.P,K1,1,1*%
%TO.N,/BSPD/BSPD_FAULT*%
X144576800Y-78282000D03*
%TO.P,K1,3,3*%
%TO.N,/LATCH/GVLM_OUTPUT*%
X144576800Y-88442000D03*
%TO.P,K1,4,4*%
%TO.N,/LATCH/bms_imd_latch_only*%
X144576800Y-96062000D03*
%TO.P,K1,5,5*%
%TO.N,+12V*%
X152196800Y-96062000D03*
%TO.P,K1,6,6*%
%TO.N,Net-(D5-A)*%
X152196800Y-88442000D03*
%TO.P,K1,8,8*%
%TO.N,/LATCH/bspd_reset*%
X152196800Y-78282000D03*
%TD*%
D33*
%TO.P,U6,1*%
%TO.N,/BSPD/BRAKE_OPEN*%
X106337201Y-62153800D03*
D28*
%TO.P,U6,2*%
%TO.N,/BSPD/BRAKE_SHORT*%
X106337201Y-64693800D03*
%TO.P,U6,3*%
%TO.N,/BSPD/BRAKE_ERROR*%
X106337201Y-67233800D03*
%TO.P,U6,4*%
%TO.N,/BSPD/PEDAL_ERROR*%
X106337201Y-69773800D03*
%TO.P,U6,5*%
%TO.N,/BSPD/PEDAL_OPEN*%
X106337201Y-72313800D03*
%TO.P,U6,6*%
%TO.N,/BSPD/PEDAL_SHORT*%
X106337201Y-74853800D03*
%TO.P,U6,7,VSS*%
%TO.N,GND*%
X106337201Y-77393800D03*
%TO.P,U6,8*%
%TO.N,/BSPD/BRAKE_ERROR*%
X113957201Y-77393800D03*
%TO.P,U6,9*%
%TO.N,/BSPD/PEDAL_ERROR*%
X113957201Y-74853800D03*
%TO.P,U6,10*%
%TO.N,Net-(U6-Pad10)*%
X113957201Y-72313800D03*
%TO.P,U6,11*%
%TO.N,/BSPD/FAULT_SENSED*%
X113957201Y-69773800D03*
%TO.P,U6,12*%
%TO.N,/BSPD/BOTH_ON*%
X113957201Y-67233800D03*
%TO.P,U6,13*%
%TO.N,Net-(U6-Pad10)*%
X113957201Y-64693800D03*
%TO.P,U6,14,VDD*%
%TO.N,+12V*%
X113957201Y-62153800D03*
%TD*%
D23*
%TO.P,J16,1,Pin_1*%
%TO.N,/CCM Helper/12V*%
X70866000Y-149809200D03*
D24*
%TO.P,J16,2,Pin_2*%
%TO.N,/CCM Helper/Brakelight*%
X76366000Y-149809200D03*
%TD*%
D29*
%TO.P,J8,1,Pin_1*%
%TO.N,Net-(J8-Pin_1)*%
X177800000Y-159307600D03*
D21*
%TO.P,J8,2,Pin_2*%
%TO.N,GND*%
X177800000Y-153807600D03*
%TD*%
D35*
%TO.P,C21,1*%
%TO.N,/24V*%
X119720000Y-128200000D03*
D36*
%TO.P,C21,2*%
%TO.N,GND*%
X119720000Y-123200000D03*
%TD*%
D34*
%TO.P,K3,1,1*%
%TO.N,/BMS FAULT*%
X191820800Y-78740000D03*
%TO.P,K3,3,3*%
%TO.N,+12V*%
X191820800Y-88900000D03*
%TO.P,K3,4,4*%
%TO.N,Net-(K2-Pad4)*%
X191820800Y-96520000D03*
%TO.P,K3,5,5*%
%TO.N,+12V*%
X199440800Y-96520000D03*
%TO.P,K3,6,6*%
%TO.N,Net-(D10-A)*%
X199440800Y-88900000D03*
%TO.P,K3,8,8*%
%TO.N,/LATCH/bms_reset*%
X199440800Y-78740000D03*
%TD*%
D12*
%TO.P,F3,1*%
%TO.N,/CCM Helper/12V*%
X165557200Y-160223200D03*
X165557200Y-155143200D03*
%TO.P,F3,2*%
%TO.N,/12V*%
X165557200Y-151083200D03*
X165557200Y-146003200D03*
%TD*%
D15*
%TO.P,J18,1,1*%
%TO.N,/CCM Helper/TSSI BYP*%
X90000000Y-115295905D03*
%TO.P,J18,2,2*%
%TO.N,/CCM Helper/CCM fdbk*%
X90000000Y-119495905D03*
%TO.P,J18,3,3*%
%TO.N,/CCM Helper/Speaker IN*%
X90000000Y-123695904D03*
%TO.P,J18,4,4*%
%TO.N,/CCM Helper/CCMGND*%
X90000000Y-127895903D03*
%TO.P,J18,5,5*%
%TO.N,/BSPD/B_IN*%
X90000000Y-132095902D03*
%TO.P,J18,6,6*%
%TO.N,/CCM Helper/BPS2 OUT*%
X90000000Y-136295902D03*
%TO.P,J18,7,7*%
%TO.N,/CCM Helper/CCM3v3*%
X90000000Y-140495901D03*
%TO.P,J18,8,8*%
%TO.N,/CCM Helper/APPS1 OUT*%
X90000000Y-144695900D03*
%TO.P,J18,9,9*%
%TO.N,/CCM Helper/APPS2 OUT*%
X90000000Y-148895899D03*
%TO.P,J18,10,10*%
%TO.N,/CCM Helper/24V*%
X90000000Y-153095899D03*
%TO.P,J18,11,11*%
%TO.N,/CCM Helper/RTDB*%
X84500001Y-115295905D03*
%TO.P,J18,12,12*%
%TO.N,GND*%
X84500001Y-119495905D03*
%TO.P,J18,13,13*%
%TO.N,/CCM Helper/5V*%
X84500001Y-123695904D03*
%TO.P,J18,14,14*%
%TO.N,/CCM Helper/Wheel{slash}Shock1 OUT*%
X84500001Y-127895903D03*
%TO.P,J18,15,15*%
%TO.N,/CCM Helper/Wheel{slash}Shock2 OUT*%
X84500001Y-132095902D03*
%TO.P,J18,16,16*%
%TO.N,/CCM Helper/Wheel{slash}Shock3 OUT*%
X84500001Y-136295902D03*
%TO.P,J18,17,17*%
%TO.N,/CCM Helper/Wheel{slash}Shock4 OUT*%
X84500001Y-140495901D03*
%TO.P,J18,18,18*%
%TO.N,unconnected-(J18-Pad18)*%
X84500001Y-144695900D03*
%TO.P,J18,19,19*%
%TO.N,/CCM Helper/Brakelight*%
X84500001Y-148895899D03*
%TO.P,J18,20,20*%
%TO.N,/CCM Helper/12V*%
X84500001Y-153095899D03*
%TD*%
%TO.P,J14,1,1*%
%TO.N,unconnected-(J14-Pad1)*%
X97200000Y-152999999D03*
%TO.P,J14,2,2*%
%TO.N,/CCM Helper/CCMGND*%
X97200000Y-148800000D03*
%TO.P,J14,3,3*%
X97200000Y-144600001D03*
%TO.P,J14,4,4*%
%TO.N,/CCM Helper/CCM3v3*%
X97200000Y-140400001D03*
%TO.P,J14,5,5*%
%TO.N,/CCM Helper/CCMGND*%
X97200000Y-136200002D03*
%TO.P,J14,6,6*%
X97200000Y-132000003D03*
%TO.P,J14,7,7*%
%TO.N,/CCM Helper/5V*%
X97200000Y-127800004D03*
%TO.P,J14,8,8*%
%TO.N,unconnected-(J14-Pad8)*%
X102699999Y-152999999D03*
%TO.P,J14,9,9*%
%TO.N,/CCM Helper/APPS2 IN*%
X102699999Y-148800000D03*
%TO.P,J14,10,10*%
%TO.N,/CCM Helper/APPS1 IN*%
X102699999Y-144600001D03*
%TO.P,J14,11,11*%
%TO.N,/CCM Helper/CCM3v3*%
X102699999Y-140400001D03*
%TO.P,J14,12,12*%
%TO.N,/CCM Helper/BPS2 IN*%
X102699999Y-136200002D03*
%TO.P,J14,13,13*%
%TO.N,/CCM Helper/BPS1 IN*%
X102699999Y-132000003D03*
%TO.P,J14,14,14*%
%TO.N,/CCM Helper/5V*%
X102699999Y-127800004D03*
%TD*%
D33*
%TO.P,U5,1*%
%TO.N,/BSPD/BRAKE_APPLIED*%
X93942001Y-92583000D03*
D28*
%TO.P,U5,2,-*%
%TO.N,/BSPD/BRAKE_THRESHOLD*%
X93942001Y-95123000D03*
%TO.P,U5,3,+*%
%TO.N,/BSPD/BRAKE*%
X93942001Y-97663000D03*
%TO.P,U5,4,V-*%
%TO.N,GND*%
X93942001Y-100203000D03*
%TO.P,U5,5,+*%
%TO.N,/BSPD/CURRENT*%
X101562001Y-100203000D03*
%TO.P,U5,6,-*%
%TO.N,/BSPD/PEDAL_THRESHOLD*%
X101562001Y-97663000D03*
%TO.P,U5,7*%
%TO.N,/BSPD/PEDAL_APPLIED*%
X101562001Y-95123000D03*
%TO.P,U5,8,V+*%
%TO.N,+12V*%
X101562001Y-92583000D03*
%TD*%
D13*
%TO.P,D8,1,K*%
%TO.N,Net-(D8-K)*%
X183642000Y-90017600D03*
D14*
%TO.P,D8,2,A*%
%TO.N,/LATCH/imd_reset*%
X186182000Y-90017600D03*
%TD*%
D10*
%TO.P,Q4,1,G*%
%TO.N,Net-(Q4-G)*%
X218592400Y-118966000D03*
D11*
%TO.P,Q4,2,D*%
%TO.N,/TSSI/RED_LED*%
X216052400Y-118966000D03*
%TO.P,Q4,3,S*%
%TO.N,GND*%
X213512400Y-118966000D03*
%TD*%
D23*
%TO.P,J15,1,Pin_1*%
%TO.N,/CCM Helper/CCM3v3*%
X69733600Y-111997101D03*
D24*
%TO.P,J15,2,Pin_2*%
%TO.N,/CCM Helper/RTDB*%
X75233600Y-111997101D03*
%TD*%
D37*
%TO.P,J13,1,VBUS*%
%TO.N,Net-(J13-VBUS)*%
X189820400Y-157779600D03*
%TO.P,J13,2,D-*%
%TO.N,unconnected-(J13-D--Pad2)*%
X189820400Y-155279600D03*
%TO.P,J13,3,D+*%
%TO.N,unconnected-(J13-D+-Pad3)*%
X189820400Y-153279600D03*
%TO.P,J13,4,GND*%
%TO.N,GND*%
X189820400Y-150779600D03*
D38*
%TO.P,J13,S1*%
X192530400Y-160849600D03*
%TO.P,J13,S2*%
X192530400Y-147709600D03*
%TD*%
D34*
%TO.P,K2,1,1*%
%TO.N,GND*%
X169442800Y-78488500D03*
%TO.P,K2,3,3*%
%TO.N,/LATCH/bms_imd_latch_only*%
X169442800Y-88648500D03*
%TO.P,K2,4,4*%
%TO.N,Net-(K2-Pad4)*%
X169442800Y-96268500D03*
%TO.P,K2,5,5*%
%TO.N,/IMD Fault*%
X177062800Y-96268500D03*
%TO.P,K2,6,6*%
%TO.N,/LATCH/imd_reset*%
X177062800Y-88648500D03*
%TO.P,K2,8,8*%
X177062800Y-78488500D03*
%TD*%
D13*
%TO.P,D11,1,K*%
%TO.N,Net-(D11-K)*%
X203855400Y-93472000D03*
D14*
%TO.P,D11,2,A*%
%TO.N,/LATCH/bms_reset*%
X206395400Y-93472000D03*
%TD*%
D33*
%TO.P,U7,1*%
%TO.N,/BSPD/PEDAL_SHORT*%
X93840401Y-77393800D03*
D28*
%TO.P,U7,2,-*%
%TO.N,/BSPD/CURRENT*%
X93840401Y-79933800D03*
%TO.P,U7,3,+*%
%TO.N,/BSPD/SHORT_CIRCUIT*%
X93840401Y-82473800D03*
%TO.P,U7,4,V-*%
%TO.N,GND*%
X93840401Y-85013800D03*
%TO.P,U7,5,+*%
%TO.N,/BSPD/CURRENT*%
X101460401Y-85013800D03*
%TO.P,U7,6,-*%
%TO.N,/BSPD/OPEN_CIRCUIT*%
X101460401Y-82473800D03*
%TO.P,U7,7*%
%TO.N,/BSPD/PEDAL_OPEN*%
X101460401Y-79933800D03*
%TO.P,U7,8,V+*%
%TO.N,+12V*%
X101460401Y-77393800D03*
%TD*%
D22*
%TO.P,SW3,1,1*%
%TO.N,+12V*%
X192430400Y-70205600D03*
X198930400Y-70205600D03*
%TO.P,SW3,2,2*%
%TO.N,/LATCH/bms_reset*%
X192430400Y-74705600D03*
X198930400Y-74705600D03*
%TD*%
D33*
%TO.P,U1,1*%
%TO.N,Net-(C4-Pad1)*%
X122580400Y-83058000D03*
D28*
%TO.P,U1,2*%
%TO.N,Net-(U1-Pad2)*%
X122580400Y-85598000D03*
%TO.P,U1,3*%
X122580400Y-88138000D03*
%TO.P,U1,4*%
%TO.N,Net-(U1-Pad4)*%
X122580400Y-90678000D03*
%TO.P,U1,5*%
%TO.N,GND*%
X122580400Y-93218000D03*
%TO.P,U1,6*%
%TO.N,unconnected-(U1-Pad6)*%
X122580400Y-95758000D03*
%TO.P,U1,7,VSS*%
%TO.N,GND*%
X122580400Y-98298000D03*
%TO.P,U1,8*%
%TO.N,unconnected-(U1-Pad8)*%
X130200400Y-98298000D03*
%TO.P,U1,9*%
%TO.N,GND*%
X130200400Y-95758000D03*
%TO.P,U1,10*%
%TO.N,unconnected-(U1-Pad10)*%
X130200400Y-93218000D03*
%TO.P,U1,11*%
%TO.N,GND*%
X130200400Y-90678000D03*
%TO.P,U1,12*%
%TO.N,unconnected-(U1-Pad12)*%
X130200400Y-88138000D03*
%TO.P,U1,13*%
%TO.N,GND*%
X130200400Y-85598000D03*
%TO.P,U1,14,VDD*%
%TO.N,+12V*%
X130200400Y-83058000D03*
%TD*%
D29*
%TO.P,J10,1,Pin_1*%
%TO.N,/TSSI/GLV*%
X215747600Y-148959200D03*
D21*
%TO.P,J10,2,Pin_2*%
X211547600Y-148959200D03*
%TO.P,J10,3,Pin_3*%
%TO.N,/TSSI/GREEN_LED*%
X215747600Y-143459200D03*
%TO.P,J10,4,Pin_4*%
%TO.N,/TSSI/RED_LED*%
X211547600Y-143459200D03*
%TD*%
D39*
%TO.P,brkErr1,1,K*%
%TO.N,GND*%
X119753600Y-93014800D03*
%TO.P,brkErr1,2,A*%
%TO.N,Net-(brkErr1-A)*%
X117703600Y-93014800D03*
%TD*%
D23*
%TO.P,J3,1,Pin_1*%
%TO.N,unconnected-(J3-Pin_1-Pad1)*%
X211175600Y-156718000D03*
D24*
%TO.P,J3,2,Pin_2*%
%TO.N,Net-(J2-Pin_2)*%
X216675600Y-156718000D03*
%TD*%
D22*
%TO.P,SW2,1,1*%
%TO.N,/IMD Fault*%
X181090000Y-79680000D03*
X187590000Y-79680000D03*
%TO.P,SW2,2,2*%
%TO.N,/LATCH/imd_reset*%
X181090000Y-84180000D03*
X187590000Y-84180000D03*
%TD*%
D12*
%TO.P,F10,1*%
%TO.N,/5V*%
X171500000Y-145770000D03*
X171500000Y-150850000D03*
%TO.P,F10,2*%
%TO.N,Net-(J8-Pin_1)*%
X171500000Y-154910000D03*
X171500000Y-159990000D03*
%TD*%
D29*
%TO.P,J6,1,Pin_1*%
%TO.N,Net-(J6-Pin_1)*%
X109510000Y-129970000D03*
D21*
%TO.P,J6,2,Pin_2*%
%TO.N,GND*%
X109510000Y-124470000D03*
%TD*%
D10*
%TO.P,Q5,1,G*%
%TO.N,Net-(Q5-G)*%
X135585200Y-103522800D03*
D11*
%TO.P,Q5,2,D*%
%TO.N,/LATCH/BSPDfault_LED*%
X138125200Y-103522800D03*
%TO.P,Q5,3,S*%
%TO.N,+12V*%
X140665200Y-103522800D03*
%TD*%
D10*
%TO.P,Q6,1,G*%
%TO.N,Net-(Q6-G)*%
X148031200Y-103065600D03*
D11*
%TO.P,Q6,2,D*%
%TO.N,/LATCH/IMDfault_LED*%
X150571200Y-103065600D03*
%TO.P,Q6,3,S*%
%TO.N,+12V*%
X153111200Y-103065600D03*
%TD*%
D10*
%TO.P,Q7,1,G*%
%TO.N,Net-(Q7-G)*%
X160477200Y-103515200D03*
D11*
%TO.P,Q7,2,D*%
%TO.N,/LATCH/BMSfault_LED*%
X163017200Y-103515200D03*
%TO.P,Q7,3,S*%
%TO.N,+12V*%
X165557200Y-103515200D03*
%TD*%
D40*
%TO.N,GND*%
X147540000Y-131320000D03*
X170484800Y-137515600D03*
X119753600Y-93014800D03*
X187179200Y-138988800D03*
X75247601Y-79933800D03*
X149530000Y-131310000D03*
X139430000Y-131640000D03*
X197002400Y-85258400D03*
X97180201Y-61087000D03*
X110222801Y-62103000D03*
X139550000Y-145200000D03*
X141740000Y-131700000D03*
X205841600Y-80011900D03*
X170586400Y-141173200D03*
X155041600Y-143423600D03*
X167418000Y-134620000D03*
X111306601Y-103555800D03*
X187230000Y-137617200D03*
X147555200Y-88798400D03*
X109791601Y-100507800D03*
X187452000Y-125084800D03*
X148132800Y-145193400D03*
X78041601Y-79883000D03*
X97701201Y-77089000D03*
X187230000Y-135788400D03*
X97701201Y-91567000D03*
X85763201Y-84607400D03*
X151200000Y-131320000D03*
X89949201Y-72603200D03*
X76060401Y-82092200D03*
X184404000Y-94996000D03*
X90132001Y-91884000D03*
X125958000Y-82951400D03*
X215087200Y-112450800D03*
X104864001Y-103352600D03*
X161391600Y-146964400D03*
X215087200Y-108996400D03*
X171196000Y-134620000D03*
X177038000Y-82219900D03*
X141730000Y-145290000D03*
X153009600Y-143444000D03*
X87642801Y-84558200D03*
X141224000Y-88395800D03*
X215188800Y-103174800D03*
X180441600Y-87528400D03*
X170364400Y-139242800D03*
X132588000Y-142458400D03*
X153771600Y-147472400D03*
X146507200Y-145186400D03*
X120004066Y-73726557D03*
X187421600Y-127421600D03*
X187370800Y-129656800D03*
X149809200Y-145135600D03*
X134772400Y-142377200D03*
X115887601Y-98729800D03*
X88506401Y-100735400D03*
X89522401Y-64135000D03*
%TO.N,+12V*%
X127558800Y-101295200D03*
X135788400Y-109423200D03*
X132066401Y-80187800D03*
X126796800Y-101193600D03*
X81597601Y-92036400D03*
X79972001Y-100761800D03*
X80988001Y-64159400D03*
X135456540Y-112295060D03*
X76060401Y-83642200D03*
X81414801Y-72564600D03*
%TO.N,/BSPD/BRAKE*%
X87642801Y-86208200D03*
%TO.N,/BSPD/CURRENT*%
X103644801Y-92786200D03*
%TO.N,Net-(C4-Pad1)*%
X117450201Y-95123000D03*
X117449600Y-98755200D03*
%TO.N,/TSSI/GLV*%
X214782400Y-124663200D03*
X208686400Y-79908400D03*
%TO.N,Net-(BothThreshold1-A)*%
X106914001Y-103352600D03*
%TO.N,Net-(D2-K)*%
X138328400Y-95046800D03*
%TO.N,/LATCH/bspd_reset*%
X166420800Y-98348800D03*
X152806400Y-82245200D03*
%TO.N,Net-(D3-A)*%
X138938000Y-99415600D03*
X102819100Y-115210800D03*
%TO.N,/BSPD/BSPD_FAULT*%
X155600400Y-89103200D03*
%TO.N,/LATCH/bms_reset*%
X199652800Y-83874100D03*
X195817300Y-94694500D03*
%TO.N,Net-(D10-A)*%
X195021200Y-89357200D03*
X177698400Y-92760800D03*
%TO.N,Net-(Q6-G)*%
X175107600Y-86258400D03*
%TO.N,/BSPD/B_IN*%
X81928801Y-86182200D03*
X103385600Y-134162800D03*
%TO.N,/BSPD/C_IN*%
X75247601Y-75044800D03*
%TO.N,Net-(R6-Pad1)*%
X110299601Y-95580200D03*
%TO.N,Net-(R7-Pad1)*%
X109029601Y-95580200D03*
%TO.N,/BSPD/BRAKE_APPLIED*%
X96024801Y-91695000D03*
%TO.N,/BSPD/PEDAL_APPLIED*%
X111172801Y-96291400D03*
%TO.N,/BSPD/PEDAL_SHORT*%
X102679601Y-74904600D03*
%TO.N,/TSSI/RED_LED*%
X212697700Y-124561600D03*
%TO.N,/LATCH/IMDfault_LED*%
X150571200Y-107797600D03*
X171900000Y-114400000D03*
%TO.N,/BSPD/BOTH_ON*%
X112026801Y-74142600D03*
X112230001Y-70281800D03*
%TO.N,/BSPD/SHORT_CIRCUIT*%
X90284401Y-76225400D03*
X91503601Y-77597000D03*
%TO.N,/CCM Helper/APPS2 OUT*%
X103284000Y-146761200D03*
%TO.N,/CCM Helper/APPS1 OUT*%
X103385600Y-142494000D03*
%TO.N,/CCM Helper/BPS2 OUT*%
X103487200Y-138430000D03*
%TO.N,/CCM Helper/Wheel{slash}Shock2 OUT*%
X69502000Y-132080000D03*
%TO.N,/CCM Helper/Wheel{slash}Shock4 OUT*%
X69502000Y-140614400D03*
%TO.N,/CCM Helper/Wheel{slash}Shock3 OUT*%
X69603600Y-136296400D03*
%TO.N,/CCM Helper/Wheel{slash}Shock1 OUT*%
X69552800Y-127914400D03*
%TO.N,/CCM Helper/Speaker IN*%
X123494800Y-116636800D03*
%TO.N,/CCM Helper/CCM fdbk*%
X141224000Y-91951800D03*
%TO.N,/BMS FAULT*%
X199948800Y-91135200D03*
%TO.N,/5V*%
X165284400Y-137530000D03*
X165284400Y-138460000D03*
X165460400Y-139759600D03*
%TO.N,/IMD Fault*%
X184251600Y-101600000D03*
%TO.N,Net-(J4-Pin_1)*%
X203911200Y-64566800D03*
X204978000Y-65582800D03*
X204978000Y-64566800D03*
X204927200Y-63652400D03*
X205892400Y-64668400D03*
%TO.N,Net-(OutOfRange1-A)*%
X113356601Y-103555800D03*
%TO.N,Net-(Q5-G)*%
X147555200Y-91389200D03*
%TO.N,Net-(brkErr1-A)*%
X117703600Y-92964000D03*
%TD*%
D41*
%TO.N,+12V*%
X135788400Y-111963200D02*
X135788400Y-109423200D01*
X205293358Y-96520000D02*
X207771400Y-94041958D01*
X194971995Y-108369999D02*
X193518095Y-109823899D01*
X207771400Y-94041958D02*
X207771400Y-91538130D01*
X198930400Y-70205600D02*
X192430400Y-70205600D01*
X165972800Y-82454500D02*
X165972800Y-91243158D01*
X199440800Y-103901194D02*
X199440800Y-96520000D01*
X165972800Y-91243158D02*
X161153958Y-96062000D01*
X135456540Y-112295060D02*
X135788400Y-111963200D01*
X193518095Y-109823899D02*
X188025899Y-109823899D01*
X200720837Y-84487567D02*
X200720837Y-71996037D01*
X207771400Y-91538130D02*
X200720837Y-84487567D01*
X175269700Y-70205600D02*
X164496800Y-80978500D01*
X164496800Y-80978500D02*
X157996800Y-80978500D01*
X200720837Y-71996037D02*
X198930400Y-70205600D01*
X199440800Y-96520000D02*
X205293358Y-96520000D01*
X194971995Y-108369999D02*
X199440800Y-103901194D01*
X188025899Y-109823899D02*
X186571999Y-108369999D01*
D42*
X130428000Y-82830400D02*
X130200400Y-83058000D01*
D41*
X164496800Y-80978500D02*
X165972800Y-82454500D01*
X161153958Y-96062000D02*
X152196800Y-96062000D01*
X190906400Y-124866400D02*
X190906400Y-119786400D01*
X192430400Y-70205600D02*
X175269700Y-70205600D01*
D42*
%TO.N,/BSPD/BRAKE*%
X95043001Y-89467600D02*
X90538401Y-84963000D01*
X97701201Y-69875400D02*
X101104801Y-69875400D01*
X93942001Y-97663000D02*
X95043001Y-96562000D01*
X95043001Y-96562000D02*
X95043001Y-89467600D01*
X90436801Y-84861400D02*
X90436801Y-77139800D01*
X90538401Y-84963000D02*
X89293201Y-86208200D01*
X90538401Y-84963000D02*
X90436801Y-84861400D01*
X93484801Y-64795400D02*
X98564801Y-69875400D01*
X90436801Y-77139800D02*
X97701201Y-69875400D01*
X89293201Y-86208200D02*
X87642801Y-86208200D01*
X98564801Y-69875400D02*
X101104801Y-69875400D01*
%TO.N,/BSPD/CURRENT*%
X103644801Y-92786200D02*
X103644801Y-87045800D01*
X103644801Y-87045800D02*
X101612801Y-85013800D01*
X98920401Y-85013800D02*
X93840401Y-79933800D01*
X101460401Y-85013800D02*
X98920401Y-85013800D01*
X101612801Y-85013800D02*
X101460401Y-85013800D01*
%TO.N,Net-(C4-Pad1)*%
X117449600Y-95123601D02*
X117450201Y-95123000D01*
X117449600Y-98755200D02*
X117449600Y-95123601D01*
D41*
%TO.N,Net-(D2-K)*%
X202895200Y-63601600D02*
X202895200Y-83465600D01*
X140716000Y-63601600D02*
X202895200Y-63601600D01*
X138328400Y-85397918D02*
X138315000Y-85384518D01*
X138328400Y-65989200D02*
X140716000Y-63601600D01*
X138328400Y-83942082D02*
X138328400Y-65989200D01*
X138328400Y-95046800D02*
X138328400Y-85397918D01*
X202895200Y-83465600D02*
X205892400Y-86462800D01*
X138315000Y-83955482D02*
X138328400Y-83942082D01*
X138315000Y-85384518D02*
X138315000Y-83955482D01*
D43*
%TO.N,/LATCH/bms_imd_latch_only*%
X144576800Y-96062000D02*
X147930400Y-99415600D01*
X169442800Y-91059600D02*
X169442800Y-88648500D01*
X161086800Y-99415600D02*
X169442800Y-91059600D01*
X147930400Y-99415600D02*
X161086800Y-99415600D01*
D41*
%TO.N,/LATCH/bspd_reset*%
X168452800Y-100380800D02*
X192803996Y-100380800D01*
X152196800Y-81635600D02*
X152806400Y-82245200D01*
X162864800Y-87110500D02*
X162864800Y-92405200D01*
X157996800Y-85478500D02*
X154763500Y-82245200D01*
X166420800Y-98348800D02*
X168452800Y-100380800D01*
X164496800Y-85478500D02*
X157996800Y-85478500D01*
X164496800Y-85478500D02*
X162864800Y-87110500D01*
X154763500Y-82245200D02*
X152806400Y-82245200D01*
X152196800Y-78282000D02*
X152196800Y-81635600D01*
X192803996Y-100380800D02*
X194937596Y-102514400D01*
%TO.N,Net-(D3-A)*%
X104640300Y-115210800D02*
X102819100Y-115210800D01*
X138938000Y-99415600D02*
X137131800Y-101221800D01*
X137131800Y-101221800D02*
X134998200Y-101221800D01*
X134998200Y-101221800D02*
X126430200Y-109789800D01*
X126430200Y-109789800D02*
X110061300Y-109789800D01*
X110061300Y-109789800D02*
X104640300Y-115210800D01*
%TO.N,/BSPD/BSPD_FAULT*%
X144576800Y-78282000D02*
X155398000Y-89103200D01*
X155398000Y-89103200D02*
X155600400Y-89103200D01*
%TO.N,/LATCH/imd_reset*%
X181104400Y-82530100D02*
X177062800Y-78488500D01*
X177062800Y-88648500D02*
X177062800Y-87404400D01*
X186182000Y-84785200D02*
X187604400Y-83362800D01*
X177062800Y-87404400D02*
X181104400Y-83362800D01*
X186182000Y-90017600D02*
X186182000Y-84785200D01*
X181104400Y-83362800D02*
X181104400Y-82530100D01*
%TO.N,/LATCH/bms_reset*%
X196425895Y-95303095D02*
X195817300Y-94694500D01*
X199652800Y-85403600D02*
X199652800Y-83874100D01*
X198930400Y-78229600D02*
X199440800Y-78740000D01*
X206395400Y-93472000D02*
X204627437Y-95239963D01*
X196362763Y-95239963D02*
X195817300Y-94694500D01*
X206395400Y-92146200D02*
X199652800Y-85403600D01*
X194945321Y-104952800D02*
X196425895Y-103472226D01*
X192430400Y-74705600D02*
X198930400Y-74705600D01*
X206395400Y-93472000D02*
X206395400Y-92146200D01*
X186537600Y-102514400D02*
X188976000Y-104952800D01*
X198930400Y-74705600D02*
X198930400Y-78229600D01*
X196425895Y-103472226D02*
X196425895Y-95303095D01*
X188976000Y-104952800D02*
X194945321Y-104952800D01*
X204627437Y-95239963D02*
X196362763Y-95239963D01*
%TO.N,Net-(D10-A)*%
X195021200Y-89357200D02*
X191617600Y-92760800D01*
X191617600Y-92760800D02*
X177698400Y-92760800D01*
%TO.N,Net-(Q4-G)*%
X218948000Y-119067600D02*
X211096800Y-111216400D01*
X211096800Y-111216400D02*
X209703600Y-111216400D01*
%TO.N,Net-(Q6-G)*%
X175107600Y-86258400D02*
X175107600Y-87835733D01*
X175107600Y-87835733D02*
X161353733Y-101589600D01*
X149507200Y-101589600D02*
X148031200Y-103065600D01*
X161353733Y-101589600D02*
X149507200Y-101589600D01*
D42*
%TO.N,/BSPD/B_IN*%
X85029739Y-114017005D02*
X84959405Y-114017005D01*
X83221101Y-124225642D02*
X83221101Y-118383443D01*
X89508400Y-132095902D02*
X89508400Y-130508400D01*
X84959405Y-114017005D02*
X74879200Y-103936800D01*
X85778901Y-115825643D02*
X85778901Y-114766167D01*
X74879200Y-93706801D02*
X81928801Y-86657200D01*
X85778901Y-114766167D02*
X85029739Y-114017005D01*
X103385600Y-134162800D02*
X91575298Y-134162800D01*
X91575298Y-134162800D02*
X89508400Y-132095902D01*
X74879200Y-103936800D02*
X74879200Y-93706801D01*
X88629500Y-129263814D02*
X84340490Y-124974804D01*
X83970263Y-124974804D02*
X83221101Y-124225642D01*
X88629500Y-129629500D02*
X88629500Y-129263814D01*
X81928801Y-86657200D02*
X81928801Y-86182200D01*
X84340490Y-124974804D02*
X83970263Y-124974804D01*
X89508400Y-130508400D02*
X88629500Y-129629500D01*
X83221101Y-118383443D02*
X85778901Y-115825643D01*
%TO.N,/BSPD/C_IN*%
X72288400Y-68478400D02*
X72288400Y-72085599D01*
X71395800Y-67923000D02*
X71733000Y-67923000D01*
X72288400Y-72085599D02*
X75247601Y-75044800D01*
X71733000Y-67923000D02*
X72288400Y-68478400D01*
X69444800Y-65972000D02*
X71395800Y-67923000D01*
%TO.N,Net-(R6-Pad1)*%
X110299601Y-94513400D02*
X110299601Y-95580200D01*
X105778401Y-89992200D02*
X110299601Y-94513400D01*
%TO.N,Net-(R7-Pad1)*%
X108826401Y-95580200D02*
X109029601Y-95580200D01*
X105778401Y-92532200D02*
X108826401Y-95580200D01*
%TO.N,/BSPD/BRAKE_SHORT*%
X100648751Y-65896400D02*
X97007751Y-62255400D01*
X105134601Y-65896400D02*
X100648751Y-65896400D01*
X106337201Y-64693800D02*
X105134601Y-65896400D01*
X97007751Y-62255400D02*
X93484801Y-62255400D01*
%TO.N,/BSPD/BRAKE_OPEN*%
X106337201Y-62153800D02*
X103746401Y-62153800D01*
X103746401Y-62153800D02*
X101104801Y-64795400D01*
%TO.N,/BSPD/BRAKE_APPLIED*%
X104474201Y-99051200D02*
X112297401Y-99051200D01*
X102018051Y-96562000D02*
X102663001Y-97206950D01*
X100891801Y-96562000D02*
X102018051Y-96562000D01*
X96024801Y-91695000D02*
X100891801Y-96562000D01*
X112297401Y-99051200D02*
X113398401Y-100152200D01*
X102663001Y-97240000D02*
X104474201Y-99051200D01*
X102663001Y-97206950D02*
X102663001Y-97240000D01*
%TO.N,/BSPD/PEDAL_APPLIED*%
X108877201Y-96291400D02*
X106388001Y-93802200D01*
X102882801Y-93802200D02*
X101562001Y-95123000D01*
X106388001Y-93802200D02*
X102882801Y-93802200D01*
X111172801Y-96291400D02*
X108877201Y-96291400D01*
%TO.N,/BSPD/PEDAL_SHORT*%
X102679601Y-74904600D02*
X96329601Y-74904600D01*
X96329601Y-74904600D02*
X93840401Y-77393800D01*
%TO.N,/BSPD/PEDAL_OPEN*%
X101460401Y-79933800D02*
X105236201Y-76158000D01*
X105236201Y-73414800D02*
X106337201Y-72313800D01*
X105236201Y-76158000D02*
X105236201Y-73414800D01*
D41*
%TO.N,/TSSI/GREEN_LED*%
X208522400Y-94353032D02*
X207924400Y-94951032D01*
X208522400Y-91227056D02*
X208522400Y-94353032D01*
X207924400Y-86970800D02*
X207924400Y-90629056D01*
X207924400Y-90629056D02*
X208522400Y-91227056D01*
X207924400Y-94951032D02*
X207924400Y-111977200D01*
X208432400Y-86462800D02*
X207924400Y-86970800D01*
X207924400Y-111977200D02*
X209703600Y-113756400D01*
%TO.N,/TSSI/RED_LED*%
X211547600Y-125711700D02*
X212697700Y-124561600D01*
X211547600Y-143459200D02*
X211547600Y-125711700D01*
%TO.N,/LATCH/BSPDfault_LED*%
X171843201Y-104998800D02*
X139601200Y-104998800D01*
X173972001Y-102870000D02*
X171843201Y-104998800D01*
X139601200Y-104998800D02*
X138125200Y-103522800D01*
X173972001Y-102870000D02*
X176054800Y-104952799D01*
X176054800Y-104952799D02*
X176054800Y-115607200D01*
D43*
%TO.N,/LATCH/GVLM_OUTPUT*%
X140411200Y-84276400D02*
X140411200Y-75938800D01*
X140411200Y-75938800D02*
X144190000Y-72160000D01*
X144576800Y-88442000D02*
X140411200Y-84276400D01*
D41*
%TO.N,/LATCH/IMDfault_LED*%
X150571200Y-107797600D02*
X165362846Y-107797600D01*
X171907246Y-114392754D02*
X171900000Y-114400000D01*
X178172000Y-102870000D02*
X180254800Y-104952800D01*
X165362846Y-107797600D02*
X171958000Y-114392754D01*
X180254800Y-104952800D02*
X180254800Y-115607200D01*
X171958000Y-114392754D02*
X171907246Y-114392754D01*
%TO.N,/LATCH/BMSfault_LED*%
X181118401Y-101295200D02*
X165237200Y-101295200D01*
X182372000Y-102870000D02*
X184454800Y-104952800D01*
X184454800Y-116975200D02*
X180900000Y-120530000D01*
X184454800Y-104952800D02*
X184454800Y-116975200D01*
X165237200Y-101295200D02*
X163017200Y-103515200D01*
X182337601Y-102514400D02*
X181118401Y-101295200D01*
D42*
%TO.N,/BSPD/BOTH_ON*%
X110700601Y-95131257D02*
X110900601Y-95331257D01*
X109423200Y-93069899D02*
X110700601Y-94347300D01*
X111421744Y-95690400D02*
X111773801Y-96042457D01*
X111421744Y-96892400D02*
X111256201Y-96892400D01*
X110900601Y-95713657D02*
X110923858Y-95690400D01*
X111366401Y-97002600D02*
X106388001Y-97002600D01*
X112230001Y-68961000D02*
X112230001Y-70281800D01*
X106388001Y-97002600D02*
X105778401Y-97612200D01*
X111773801Y-96042457D02*
X111773801Y-96540343D01*
X110900601Y-95331257D02*
X110900601Y-95713657D01*
X111773801Y-96540343D02*
X111421744Y-96892400D01*
X110923858Y-95690400D02*
X111421744Y-95690400D01*
X112026801Y-74142600D02*
X109423200Y-76746201D01*
X113957201Y-67233800D02*
X112230001Y-68961000D01*
X109423200Y-76746201D02*
X109423200Y-93069899D01*
X110700601Y-94347300D02*
X110700601Y-95131257D01*
X111256201Y-96892400D02*
X111366401Y-97002600D01*
%TO.N,/BSPD/SHORT_CIRCUIT*%
X91503601Y-80137000D02*
X91503601Y-77597000D01*
X90284401Y-76225400D02*
X90030401Y-75971400D01*
X89796801Y-75971400D02*
X85580401Y-71755000D01*
X93840401Y-82473800D02*
X91503601Y-80137000D01*
X90030401Y-75971400D02*
X89796801Y-75971400D01*
X85580401Y-71755000D02*
X89065201Y-71755000D01*
X89065201Y-71755000D02*
X93484801Y-67335400D01*
%TO.N,/BSPD/OPEN_CIRCUIT*%
X97142401Y-63373000D02*
X85306001Y-63373000D01*
X101104801Y-67335400D02*
X104835201Y-71065800D01*
X104835201Y-75914050D02*
X101916451Y-78832800D01*
X101004351Y-78832800D02*
X100359401Y-79477750D01*
X104835201Y-71065800D02*
X104835201Y-75914050D01*
X101916451Y-78832800D02*
X101004351Y-78832800D01*
X100359401Y-79477750D02*
X100359401Y-81372800D01*
X101104801Y-67335400D02*
X97142401Y-63373000D01*
X100359401Y-81372800D02*
X101460401Y-82473800D01*
%TO.N,/BSPD/BRAKE_THRESHOLD*%
X89815001Y-95123000D02*
X85864801Y-91172800D01*
X93942001Y-95123000D02*
X89815001Y-95123000D01*
%TO.N,/BSPD/PEDAL_THRESHOLD*%
X100123001Y-99102000D02*
X85187801Y-99102000D01*
X100123001Y-99102000D02*
X101562001Y-97663000D01*
X85187801Y-99102000D02*
X84290001Y-99999800D01*
%TO.N,/BSPD/BRAKE_ERROR*%
X109824200Y-85084600D02*
X112191800Y-87452200D01*
X115058201Y-74059750D02*
X114413251Y-73414800D01*
X113957201Y-77393800D02*
X110769400Y-77393800D01*
X113085301Y-73414800D02*
X106904301Y-67233800D01*
X115058201Y-76292800D02*
X115058201Y-74059750D01*
X110769400Y-77393800D02*
X109824200Y-78339000D01*
X113957201Y-77393800D02*
X115058201Y-76292800D01*
X106904301Y-67233800D02*
X106337201Y-67233800D01*
X112191800Y-87452200D02*
X113398401Y-87452200D01*
X114413251Y-73414800D02*
X113085301Y-73414800D01*
X109824200Y-78339000D02*
X109824200Y-85084600D01*
%TO.N,/BSPD/PEDAL_ERROR*%
X106337201Y-69773800D02*
X108877201Y-69773800D01*
X105778401Y-87452200D02*
X109016800Y-84213801D01*
X109016800Y-84213801D02*
X109016800Y-69913399D01*
X109016800Y-69913399D02*
X108877201Y-69773800D01*
X108877201Y-69773800D02*
X113957201Y-74853800D01*
%TO.N,Net-(U1-Pad2)*%
X122580400Y-88138000D02*
X122580400Y-85598000D01*
D43*
%TO.N,+5V*%
X72227801Y-80559300D02*
X72091301Y-80695800D01*
X69444800Y-72969299D02*
X72227801Y-75752300D01*
X72227801Y-75752300D02*
X72227801Y-80559300D01*
X69444800Y-70172000D02*
X69444800Y-72969299D01*
X72091301Y-80695800D02*
X69776801Y-80695800D01*
%TO.N,/CCM Helper/Brakelight*%
X84008401Y-148895899D02*
X77279301Y-148895899D01*
X77279301Y-148895899D02*
X76366000Y-149809200D01*
%TO.N,/CCM Helper/12V*%
X129531200Y-109558701D02*
X130245306Y-109558701D01*
X74152699Y-153095899D02*
X70866000Y-149809200D01*
D44*
X165557200Y-155143200D02*
X165557200Y-160223200D01*
D43*
X141366107Y-120679502D02*
X144272000Y-123585395D01*
X136768499Y-116081894D02*
X136778592Y-116071800D01*
X144424400Y-149301200D02*
X155346400Y-160223200D01*
X144272000Y-123585395D02*
X144272000Y-149301200D01*
X136778592Y-116071800D02*
X139471808Y-116071800D01*
X130245306Y-109558701D02*
X136768499Y-116081894D01*
X144272000Y-149301200D02*
X144424400Y-149301200D01*
X155346400Y-160223200D02*
X165557200Y-160223200D01*
X139471808Y-116071800D02*
X141376200Y-117976192D01*
X141376200Y-117976192D02*
X141376200Y-120669408D01*
X84008401Y-153095899D02*
X74152699Y-153095899D01*
X141376200Y-120669408D02*
X141366107Y-120679502D01*
D42*
%TO.N,/CCM Helper/CCM3v3*%
X69733600Y-111997101D02*
X83111303Y-125374804D01*
X83111303Y-125374804D02*
X84174804Y-125374804D01*
X88229500Y-129429500D02*
X88229500Y-139217001D01*
D45*
X103034799Y-140443504D02*
X89560797Y-140443504D01*
X89560797Y-140443504D02*
X89508400Y-140495901D01*
D42*
X88229500Y-139217001D02*
X89508400Y-140495901D01*
X84174804Y-125374804D02*
X88229500Y-129429500D01*
%TO.N,/CCM Helper/RTDB*%
X75233600Y-111997101D02*
X80709597Y-111997101D01*
X80709597Y-111997101D02*
X84008401Y-115295905D01*
%TO.N,/CCM Helper/APPS2 OUT*%
X91643099Y-146761200D02*
X89508400Y-148895899D01*
X103284000Y-146761200D02*
X91643099Y-146761200D01*
%TO.N,/CCM Helper/APPS1 OUT*%
X91710300Y-142494000D02*
X89508400Y-144695900D01*
X103385600Y-142494000D02*
X91710300Y-142494000D01*
%TO.N,/CCM Helper/BPS2 OUT*%
X90076000Y-138430000D02*
X89508400Y-137862400D01*
X103487200Y-138430000D02*
X90076000Y-138430000D01*
X89508400Y-137862400D02*
X89508400Y-136295902D01*
%TO.N,/CCM Helper/Wheel{slash}Shock2 OUT*%
X69517902Y-132095902D02*
X84008401Y-132095902D01*
X69502000Y-132080000D02*
X69517902Y-132095902D01*
%TO.N,/CCM Helper/Wheel{slash}Shock4 OUT*%
X69502000Y-140614400D02*
X69620499Y-140495901D01*
X69620499Y-140495901D02*
X84008401Y-140495901D01*
%TO.N,/CCM Helper/Wheel{slash}Shock3 OUT*%
X69603600Y-136296400D02*
X69604098Y-136295902D01*
X69604098Y-136295902D02*
X84008401Y-136295902D01*
%TO.N,/CCM Helper/Wheel{slash}Shock1 OUT*%
X69571297Y-127895903D02*
X84008401Y-127895903D01*
X69552800Y-127914400D02*
X69571297Y-127895903D01*
%TO.N,/CCM Helper/Speaker IN*%
X93047403Y-120156901D02*
X118153499Y-120156901D01*
X121673600Y-116636800D02*
X123494800Y-116636800D01*
X89508400Y-123695904D02*
X93047403Y-120156901D01*
X118153499Y-120156901D02*
X121673600Y-116636800D01*
D41*
%TO.N,/CCM Helper/CCM fdbk*%
X107893670Y-109038800D02*
X97436565Y-119495905D01*
X141224000Y-91951800D02*
X141224000Y-93929200D01*
X97436565Y-119495905D02*
X89508400Y-119495905D01*
X141224000Y-93929200D02*
X126114400Y-109038800D01*
X126114400Y-109038800D02*
X107893670Y-109038800D01*
%TO.N,/BMS FAULT*%
X191820800Y-83707200D02*
X199248800Y-91135200D01*
X191820800Y-78740000D02*
X191820800Y-83707200D01*
X186196800Y-73116000D02*
X182863600Y-73116000D01*
X191820800Y-78740000D02*
X186196800Y-73116000D01*
X199248800Y-91135200D02*
X199948800Y-91135200D01*
D43*
%TO.N,/12V*%
X205232000Y-127207200D02*
X202488800Y-129950400D01*
X207924400Y-122127200D02*
X205232000Y-122127200D01*
X205232000Y-122127200D02*
X202488800Y-124870400D01*
D44*
X165557200Y-151083200D02*
X165557200Y-146003200D01*
D43*
X207924400Y-127207200D02*
X205232000Y-127207200D01*
D44*
X176225200Y-126542800D02*
X181305200Y-126542800D01*
%TO.N,/5V*%
X171704000Y-146003200D02*
X183438800Y-146003200D01*
X165460400Y-139759600D02*
X165284400Y-139583600D01*
X171704000Y-146003200D02*
X165460400Y-139759600D01*
X165284400Y-139583600D02*
X165284400Y-132232400D01*
X183692800Y-150829200D02*
X183692800Y-145749200D01*
X183438800Y-146003200D02*
X183692800Y-145749200D01*
D43*
%TO.N,/24V*%
X130405200Y-135887699D02*
X130405200Y-139697699D01*
%TO.N,/CCM Helper/24V*%
X97529105Y-160725005D02*
X89899999Y-153095899D01*
X114570000Y-157030000D02*
X110874995Y-160725005D01*
X110874995Y-160725005D02*
X97529105Y-160725005D01*
D41*
%TO.N,/IMD Fault*%
X178663600Y-76422000D02*
X178663600Y-73116000D01*
X190737596Y-108014399D02*
X189354637Y-108014399D01*
X181104400Y-78862800D02*
X178663600Y-76422000D01*
X176885600Y-92476170D02*
X176885600Y-96091300D01*
X182580400Y-86781370D02*
X176885600Y-92476170D01*
X176885600Y-96091300D02*
X177062800Y-96268500D01*
X181104400Y-78862800D02*
X187604400Y-78862800D01*
X181104400Y-78862800D02*
X182580400Y-80338800D01*
X184251600Y-102911362D02*
X184251600Y-101600000D01*
X182580400Y-80338800D02*
X182580400Y-86781370D01*
X189354637Y-108014399D02*
X184251600Y-102911362D01*
D43*
%TO.N,Net-(J4-Pin_1)*%
X198272400Y-155596400D02*
X198272400Y-158952400D01*
X201145000Y-161825000D02*
X219158800Y-161825000D01*
X221217800Y-78774600D02*
X207111600Y-64668400D01*
X207111600Y-64668400D02*
X205892400Y-64668400D01*
X205892400Y-64668400D02*
X204825600Y-64668400D01*
X221217800Y-159766000D02*
X221217800Y-78774600D01*
X198272400Y-158952400D02*
X201145000Y-161825000D01*
X219158800Y-161825000D02*
X221217800Y-159766000D01*
D42*
%TO.N,/CCM Helper/TSSI BYP*%
X95127105Y-109677200D02*
X89508400Y-115295905D01*
X96723200Y-109677200D02*
X95127105Y-109677200D01*
D46*
%TO.N,/CCM Helper/5V*%
X97534800Y-127843506D02*
X94916098Y-125224804D01*
X85537301Y-125224804D02*
X84008401Y-123695904D01*
D41*
X69400000Y-125600005D02*
X69400000Y-121400005D01*
X74899999Y-125600005D02*
X69400000Y-125600005D01*
D46*
X94916098Y-125224804D02*
X85537301Y-125224804D01*
X103034799Y-127843506D02*
X97534800Y-127843506D01*
D41*
X69400000Y-121400005D02*
X74899999Y-121400005D01*
X74899999Y-121400005D02*
X74899999Y-125600005D01*
D43*
%TO.N,Net-(J5-Pin_1)*%
X202488800Y-134010400D02*
X202488800Y-143002000D01*
X202488800Y-143002000D02*
X204317600Y-144830800D01*
%TO.N,Net-(J6-Pin_1)*%
X109510000Y-136190000D02*
X109690000Y-136370000D01*
X109510000Y-129970000D02*
X109510000Y-136190000D01*
D42*
%TO.N,Net-(U6-Pad10)*%
X113957201Y-72313800D02*
X112839601Y-72313800D01*
X112839601Y-72313800D02*
X111417201Y-70891400D01*
X111417201Y-67233800D02*
X113957201Y-64693800D01*
X111417201Y-70891400D02*
X111417201Y-67233800D01*
D43*
%TO.N,Net-(PS1-SENSE+)*%
X166727600Y-127153200D02*
X171807600Y-127153200D01*
X166727600Y-127153200D02*
X163844400Y-127153200D01*
X163844400Y-127153200D02*
X158345200Y-132652400D01*
X158345200Y-132652400D02*
X158345200Y-139697699D01*
D41*
%TO.N,Net-(Q5-G)*%
X142697200Y-93980000D02*
X145288000Y-91389200D01*
X135585200Y-101972800D02*
X139428800Y-101972800D01*
X142697200Y-98704400D02*
X142697200Y-93980000D01*
X139428800Y-101972800D02*
X142697200Y-98704400D01*
X145288000Y-91389200D02*
X147555200Y-91389200D01*
X135585200Y-103522800D02*
X135585200Y-101972800D01*
D43*
%TO.N,Net-(J7-Pin_1)*%
X114860000Y-145370000D02*
X114860000Y-150910000D01*
X114860000Y-150910000D02*
X114950000Y-151000000D01*
%TO.N,Net-(K2-Pad4)*%
X171697837Y-98523537D02*
X189817263Y-98523537D01*
X189817263Y-98523537D02*
X191820800Y-96520000D01*
X169442800Y-96268500D02*
X171697837Y-98523537D01*
%TO.N,Net-(J8-Pin_1)*%
X171704000Y-155143200D02*
X171704000Y-160223200D01*
D47*
%TO.N,Net-(J13-VBUS)*%
X189820400Y-157779600D02*
X185882400Y-157779600D01*
X185882400Y-157779600D02*
X183692800Y-159969200D01*
X183692800Y-159969200D02*
X183692800Y-154889200D01*
%TD*%
%TA.AperFunction,Conductor*%
%TO.N,/12V*%
G36*
X204466317Y-121384390D02*
G01*
X204515332Y-121434183D01*
X204529709Y-121483760D01*
X204698495Y-123805503D01*
X204683723Y-123873793D01*
X204634375Y-123923257D01*
X204566120Y-123938188D01*
X204500627Y-123913848D01*
X204460259Y-123861945D01*
X204452294Y-123842715D01*
X204452290Y-123842707D01*
X204304825Y-123587292D01*
X204304819Y-123587284D01*
X204188221Y-123435331D01*
X203505895Y-124117657D01*
X203417770Y-123996364D01*
X203273636Y-123852230D01*
X203152341Y-123764104D01*
X203834667Y-123081777D01*
X203682715Y-122965180D01*
X203682707Y-122965174D01*
X203427292Y-122817709D01*
X203427281Y-122817704D01*
X203154800Y-122704838D01*
X203154790Y-122704835D01*
X202869897Y-122628499D01*
X202869884Y-122628496D01*
X202577483Y-122590001D01*
X202577466Y-122590000D01*
X202282534Y-122590000D01*
X202282516Y-122590001D01*
X201990115Y-122628496D01*
X201990102Y-122628499D01*
X201705209Y-122704835D01*
X201705199Y-122704838D01*
X201432718Y-122817704D01*
X201432707Y-122817709D01*
X201177292Y-122965174D01*
X201177276Y-122965185D01*
X201025331Y-123081775D01*
X201025331Y-123081777D01*
X201707658Y-123764104D01*
X201586364Y-123852230D01*
X201442230Y-123996364D01*
X201354104Y-124117658D01*
X200671777Y-123435331D01*
X200671775Y-123435331D01*
X200555185Y-123587276D01*
X200555174Y-123587292D01*
X200407709Y-123842707D01*
X200407704Y-123842718D01*
X200294838Y-124115199D01*
X200294835Y-124115209D01*
X200218499Y-124400102D01*
X200218496Y-124400115D01*
X200180001Y-124692516D01*
X200180000Y-124692533D01*
X200180000Y-124987466D01*
X200180001Y-124987483D01*
X200218496Y-125279884D01*
X200218499Y-125279897D01*
X200294835Y-125564790D01*
X200294838Y-125564800D01*
X200407704Y-125837281D01*
X200407709Y-125837292D01*
X200555174Y-126092707D01*
X200555180Y-126092715D01*
X200671777Y-126244667D01*
X201354103Y-125562340D01*
X201442230Y-125683636D01*
X201586364Y-125827770D01*
X201707657Y-125915895D01*
X201025331Y-126598221D01*
X201177284Y-126714819D01*
X201177292Y-126714825D01*
X201432707Y-126862290D01*
X201432718Y-126862295D01*
X201705199Y-126975161D01*
X201705209Y-126975164D01*
X201990102Y-127051500D01*
X201990115Y-127051503D01*
X202282516Y-127089998D01*
X202282534Y-127090000D01*
X202577466Y-127090000D01*
X202577483Y-127089998D01*
X202869884Y-127051503D01*
X202869897Y-127051500D01*
X203154790Y-126975164D01*
X203154800Y-126975161D01*
X203427281Y-126862295D01*
X203427292Y-126862290D01*
X203682707Y-126714825D01*
X203682725Y-126714813D01*
X203834667Y-126598222D01*
X203834667Y-126598220D01*
X203152342Y-125915895D01*
X203273636Y-125827770D01*
X203417770Y-125683636D01*
X203505895Y-125562342D01*
X204188220Y-126244667D01*
X204188222Y-126244667D01*
X204304813Y-126092725D01*
X204304825Y-126092707D01*
X204452290Y-125837292D01*
X204452295Y-125837281D01*
X204565161Y-125564800D01*
X204565167Y-125564783D01*
X204580469Y-125507672D01*
X204616832Y-125448011D01*
X204679679Y-125417480D01*
X204749055Y-125425774D01*
X204802933Y-125470258D01*
X204823918Y-125530772D01*
X205561493Y-135676532D01*
X205557594Y-135717616D01*
X205498009Y-135939996D01*
X205498007Y-135940008D01*
X205459500Y-136232486D01*
X205459500Y-136527513D01*
X205488248Y-136745864D01*
X205498007Y-136819993D01*
X205574361Y-137104951D01*
X205574364Y-137104961D01*
X205677041Y-137352845D01*
X205686154Y-137391307D01*
X206073740Y-142722766D01*
X206058968Y-142791056D01*
X206009620Y-142840520D01*
X205941365Y-142855451D01*
X205884969Y-142837295D01*
X205736937Y-142745987D01*
X205736935Y-142745986D01*
X205653665Y-142718393D01*
X205570397Y-142690801D01*
X205570395Y-142690800D01*
X205467615Y-142680300D01*
X205467608Y-142680300D01*
X204694043Y-142680300D01*
X204627004Y-142660615D01*
X204606362Y-142643981D01*
X204275619Y-142313238D01*
X204242134Y-142251915D01*
X204239300Y-142225557D01*
X204239300Y-140441017D01*
X204258985Y-140373978D01*
X204264914Y-140365544D01*
X204305238Y-140312994D01*
X204452743Y-140057507D01*
X204565639Y-139784952D01*
X204641993Y-139499993D01*
X204680500Y-139207506D01*
X204680500Y-138912494D01*
X204680165Y-138909953D01*
X204659805Y-138755303D01*
X204641993Y-138620007D01*
X204565639Y-138335048D01*
X204557790Y-138316100D01*
X204520051Y-138224990D01*
X204452743Y-138062493D01*
X204431611Y-138025892D01*
X204305238Y-137807006D01*
X204264924Y-137754467D01*
X204239730Y-137689298D01*
X204239300Y-137678981D01*
X204239300Y-135361017D01*
X204258985Y-135293978D01*
X204264914Y-135285544D01*
X204305238Y-135232994D01*
X204452743Y-134977507D01*
X204565639Y-134704952D01*
X204641993Y-134419993D01*
X204680500Y-134127506D01*
X204680500Y-133832494D01*
X204641993Y-133540007D01*
X204565639Y-133255048D01*
X204452743Y-132982493D01*
X204421559Y-132928481D01*
X204305238Y-132727006D01*
X204125647Y-132492959D01*
X204125641Y-132492952D01*
X203917047Y-132284358D01*
X203917040Y-132284352D01*
X203735674Y-132145185D01*
X203682994Y-132104762D01*
X203670300Y-132097433D01*
X203600437Y-132057097D01*
X203552221Y-132006530D01*
X203538999Y-131937923D01*
X203564967Y-131873058D01*
X203600438Y-131842322D01*
X203682713Y-131794821D01*
X203682725Y-131794813D01*
X203834667Y-131678222D01*
X203834667Y-131678220D01*
X203152342Y-130995895D01*
X203273636Y-130907770D01*
X203417770Y-130763636D01*
X203505895Y-130642342D01*
X204188220Y-131324667D01*
X204188222Y-131324667D01*
X204304813Y-131172725D01*
X204304825Y-131172707D01*
X204452290Y-130917292D01*
X204452295Y-130917281D01*
X204565161Y-130644800D01*
X204565164Y-130644790D01*
X204641500Y-130359897D01*
X204641503Y-130359884D01*
X204679998Y-130067483D01*
X204680000Y-130067466D01*
X204680000Y-129772533D01*
X204679998Y-129772516D01*
X204641503Y-129480115D01*
X204641500Y-129480102D01*
X204565164Y-129195209D01*
X204565161Y-129195199D01*
X204452295Y-128922718D01*
X204452290Y-128922707D01*
X204304825Y-128667292D01*
X204304819Y-128667284D01*
X204188221Y-128515331D01*
X203505895Y-129197657D01*
X203417770Y-129076364D01*
X203273636Y-128932230D01*
X203152341Y-128844104D01*
X203834667Y-128161777D01*
X203682715Y-128045180D01*
X203682707Y-128045174D01*
X203427292Y-127897709D01*
X203427281Y-127897704D01*
X203154800Y-127784838D01*
X203154790Y-127784835D01*
X202869897Y-127708499D01*
X202869884Y-127708496D01*
X202577483Y-127670001D01*
X202577466Y-127670000D01*
X202282534Y-127670000D01*
X202282516Y-127670001D01*
X201990115Y-127708496D01*
X201990102Y-127708499D01*
X201705209Y-127784835D01*
X201705199Y-127784838D01*
X201432718Y-127897704D01*
X201432707Y-127897709D01*
X201177292Y-128045174D01*
X201177276Y-128045185D01*
X201025331Y-128161775D01*
X201025331Y-128161777D01*
X201707658Y-128844104D01*
X201586364Y-128932230D01*
X201442230Y-129076364D01*
X201354104Y-129197658D01*
X200671777Y-128515331D01*
X200671775Y-128515331D01*
X200555185Y-128667276D01*
X200555174Y-128667292D01*
X200407709Y-128922707D01*
X200407704Y-128922718D01*
X200294838Y-129195199D01*
X200294835Y-129195209D01*
X200218499Y-129480102D01*
X200218496Y-129480115D01*
X200180001Y-129772516D01*
X200180000Y-129772533D01*
X200180000Y-130067466D01*
X200180001Y-130067483D01*
X200218496Y-130359884D01*
X200218499Y-130359897D01*
X200294835Y-130644790D01*
X200294838Y-130644800D01*
X200407704Y-130917281D01*
X200407709Y-130917292D01*
X200555174Y-131172707D01*
X200555180Y-131172715D01*
X200671777Y-131324667D01*
X201354103Y-130642340D01*
X201442230Y-130763636D01*
X201586364Y-130907770D01*
X201707657Y-130995895D01*
X201025331Y-131678221D01*
X201177284Y-131794819D01*
X201177297Y-131794829D01*
X201259561Y-131842323D01*
X201307777Y-131892889D01*
X201321001Y-131961496D01*
X201295033Y-132026361D01*
X201259563Y-132057097D01*
X201177004Y-132104763D01*
X200942959Y-132284352D01*
X200942952Y-132284358D01*
X200734358Y-132492952D01*
X200734352Y-132492959D01*
X200554761Y-132727006D01*
X200407258Y-132982489D01*
X200407254Y-132982499D01*
X200294364Y-133255038D01*
X200294361Y-133255048D01*
X200229574Y-133496840D01*
X200218008Y-133540004D01*
X200218006Y-133540015D01*
X200179500Y-133832486D01*
X200179500Y-134127513D01*
X200192433Y-134225744D01*
X200218007Y-134419993D01*
X200292725Y-134698846D01*
X200294361Y-134704951D01*
X200294364Y-134704961D01*
X200407254Y-134977500D01*
X200407258Y-134977510D01*
X200554758Y-135232989D01*
X200561508Y-135241786D01*
X200712676Y-135438791D01*
X200737870Y-135503960D01*
X200738300Y-135514277D01*
X200738300Y-137525722D01*
X200718615Y-137592761D01*
X200712676Y-137601208D01*
X200554761Y-137807006D01*
X200407258Y-138062489D01*
X200407254Y-138062499D01*
X200294364Y-138335038D01*
X200294361Y-138335048D01*
X200255921Y-138478511D01*
X200218008Y-138620004D01*
X200218006Y-138620015D01*
X200179500Y-138912486D01*
X200179500Y-139207513D01*
X200205270Y-139403246D01*
X200218007Y-139499993D01*
X200294361Y-139784951D01*
X200294364Y-139784961D01*
X200407254Y-140057500D01*
X200407258Y-140057510D01*
X200554758Y-140312989D01*
X200585235Y-140352707D01*
X200712676Y-140518791D01*
X200737870Y-140583960D01*
X200738300Y-140594277D01*
X200738300Y-143116741D01*
X200759532Y-143278003D01*
X200759532Y-143278004D01*
X200768251Y-143344235D01*
X200768254Y-143344248D01*
X200801815Y-143469499D01*
X200827642Y-143565887D01*
X200915453Y-143777881D01*
X200915457Y-143777891D01*
X201030189Y-143976612D01*
X201052138Y-144005217D01*
X201052143Y-144005222D01*
X201169878Y-144158659D01*
X201169884Y-144158666D01*
X202430781Y-145419562D01*
X202464266Y-145480885D01*
X202467100Y-145507243D01*
X202467100Y-146280815D01*
X202477600Y-146383595D01*
X202477601Y-146383597D01*
X202481034Y-146393957D01*
X202532786Y-146550135D01*
X202532787Y-146550137D01*
X202624886Y-146699451D01*
X202624889Y-146699455D01*
X202748944Y-146823510D01*
X202748948Y-146823513D01*
X202898262Y-146915612D01*
X202898264Y-146915613D01*
X202898266Y-146915614D01*
X203064803Y-146970799D01*
X203167592Y-146981300D01*
X203167597Y-146981300D01*
X205467603Y-146981300D01*
X205467608Y-146981300D01*
X205570397Y-146970799D01*
X205736934Y-146915614D01*
X205886255Y-146823511D01*
X206010311Y-146699455D01*
X206102414Y-146550134D01*
X206110918Y-146524468D01*
X206150688Y-146467024D01*
X206215203Y-146440199D01*
X206283979Y-146452512D01*
X206335180Y-146500054D01*
X206352298Y-146554480D01*
X206797143Y-152673566D01*
X206782371Y-152741856D01*
X206733023Y-152791320D01*
X206673615Y-152806557D01*
X200153077Y-152814258D01*
X200086015Y-152794653D01*
X200040198Y-152741903D01*
X200030172Y-152672756D01*
X200045544Y-152628257D01*
X200092293Y-152547285D01*
X200092295Y-152547281D01*
X200205161Y-152274800D01*
X200205164Y-152274790D01*
X200281500Y-151989897D01*
X200281503Y-151989884D01*
X200319998Y-151697483D01*
X200320000Y-151697466D01*
X200320000Y-151402533D01*
X200319998Y-151402516D01*
X200281503Y-151110115D01*
X200281500Y-151110102D01*
X200205164Y-150825209D01*
X200205161Y-150825199D01*
X200092295Y-150552718D01*
X200092290Y-150552707D01*
X199944825Y-150297292D01*
X199944819Y-150297284D01*
X199828221Y-150145331D01*
X199145894Y-150827657D01*
X199057770Y-150706364D01*
X198913636Y-150562230D01*
X198792341Y-150474104D01*
X199356934Y-149909511D01*
X202467100Y-149909511D01*
X202467100Y-150752088D01*
X202498761Y-150992585D01*
X202561547Y-151226904D01*
X202627632Y-151386446D01*
X202654376Y-151451012D01*
X202775664Y-151661089D01*
X202775666Y-151661092D01*
X202775667Y-151661093D01*
X202923333Y-151853536D01*
X202923339Y-151853543D01*
X203094856Y-152025060D01*
X203094863Y-152025066D01*
X203131260Y-152052994D01*
X203287311Y-152172736D01*
X203497388Y-152294024D01*
X203721500Y-152386854D01*
X203955811Y-152449638D01*
X204136186Y-152473384D01*
X204196311Y-152481300D01*
X204196312Y-152481300D01*
X204438889Y-152481300D01*
X204486988Y-152474967D01*
X204679389Y-152449638D01*
X204913700Y-152386854D01*
X205137812Y-152294024D01*
X205347889Y-152172736D01*
X205540338Y-152025065D01*
X205711865Y-151853538D01*
X205859536Y-151661089D01*
X205980824Y-151451012D01*
X206073654Y-151226900D01*
X206136438Y-150992589D01*
X206168100Y-150752088D01*
X206168100Y-149909512D01*
X206136438Y-149669011D01*
X206073654Y-149434700D01*
X205980824Y-149210588D01*
X205859536Y-149000511D01*
X205711865Y-148808062D01*
X205711860Y-148808056D01*
X205540343Y-148636539D01*
X205540336Y-148636533D01*
X205347893Y-148488867D01*
X205347892Y-148488866D01*
X205347889Y-148488864D01*
X205137812Y-148367576D01*
X205137805Y-148367573D01*
X204913704Y-148274747D01*
X204796544Y-148243354D01*
X204679389Y-148211962D01*
X204679388Y-148211961D01*
X204679385Y-148211961D01*
X204438889Y-148180300D01*
X204438888Y-148180300D01*
X204196312Y-148180300D01*
X204196311Y-148180300D01*
X203955814Y-148211961D01*
X203721495Y-148274747D01*
X203497394Y-148367573D01*
X203497385Y-148367577D01*
X203287306Y-148488867D01*
X203094863Y-148636533D01*
X203094856Y-148636539D01*
X202923339Y-148808056D01*
X202923333Y-148808063D01*
X202775667Y-149000506D01*
X202654377Y-149210585D01*
X202654373Y-149210594D01*
X202561547Y-149434695D01*
X202498761Y-149669014D01*
X202467100Y-149909511D01*
X199356934Y-149909511D01*
X199448673Y-149817772D01*
X199474667Y-149791777D01*
X199322715Y-149675180D01*
X199322707Y-149675174D01*
X199067292Y-149527709D01*
X199067281Y-149527704D01*
X198794800Y-149414838D01*
X198794790Y-149414835D01*
X198509897Y-149338499D01*
X198509884Y-149338496D01*
X198217483Y-149300001D01*
X198217466Y-149300000D01*
X197922534Y-149300000D01*
X197922516Y-149300001D01*
X197630115Y-149338496D01*
X197630102Y-149338499D01*
X197345209Y-149414835D01*
X197345199Y-149414838D01*
X197072718Y-149527704D01*
X197072707Y-149527709D01*
X196817292Y-149675174D01*
X196817276Y-149675185D01*
X196665331Y-149791775D01*
X196665331Y-149791777D01*
X197347658Y-150474104D01*
X197226364Y-150562230D01*
X197082230Y-150706364D01*
X196994104Y-150827658D01*
X196311777Y-150145331D01*
X196311775Y-150145331D01*
X196195185Y-150297276D01*
X196195174Y-150297292D01*
X196047709Y-150552707D01*
X196047704Y-150552718D01*
X195934838Y-150825199D01*
X195934835Y-150825209D01*
X195858499Y-151110102D01*
X195858496Y-151110115D01*
X195820001Y-151402516D01*
X195820000Y-151402533D01*
X195820000Y-151697466D01*
X195820001Y-151697483D01*
X195858496Y-151989884D01*
X195858499Y-151989897D01*
X195934835Y-152274790D01*
X195934838Y-152274800D01*
X196047704Y-152547281D01*
X196047706Y-152547285D01*
X196097294Y-152633173D01*
X196113767Y-152701074D01*
X196090915Y-152767101D01*
X196035994Y-152810291D01*
X195990053Y-152819174D01*
X191027985Y-152825035D01*
X190960923Y-152805430D01*
X190917355Y-152757331D01*
X190859133Y-152643064D01*
X190746768Y-152488407D01*
X190611593Y-152353232D01*
X190456936Y-152240867D01*
X190286606Y-152154079D01*
X190266450Y-152147530D01*
X190208777Y-152108094D01*
X190181578Y-152043735D01*
X190193492Y-151974889D01*
X190240736Y-151923413D01*
X190266448Y-151911670D01*
X190286606Y-151905121D01*
X190456936Y-151818333D01*
X190611593Y-151705968D01*
X190746768Y-151570793D01*
X190859133Y-151416136D01*
X190945921Y-151245806D01*
X191004995Y-151063996D01*
X191023445Y-150947506D01*
X191034900Y-150875188D01*
X191034900Y-150684011D01*
X191004995Y-150495207D01*
X191004995Y-150495204D01*
X190945921Y-150313394D01*
X190859133Y-150143064D01*
X190746768Y-149988407D01*
X190611593Y-149853232D01*
X190456936Y-149740867D01*
X190286606Y-149654079D01*
X190104796Y-149595005D01*
X190104794Y-149595004D01*
X190104792Y-149595004D01*
X189915988Y-149565100D01*
X189915983Y-149565100D01*
X189724817Y-149565100D01*
X189724812Y-149565100D01*
X189536007Y-149595004D01*
X189354191Y-149654080D01*
X189183863Y-149740867D01*
X189160373Y-149757934D01*
X189029207Y-149853232D01*
X189029205Y-149853234D01*
X189029204Y-149853234D01*
X188894034Y-149988404D01*
X188894034Y-149988405D01*
X188894032Y-149988407D01*
X188845775Y-150054826D01*
X188781667Y-150143063D01*
X188694880Y-150313391D01*
X188635804Y-150495207D01*
X188605900Y-150684011D01*
X188605900Y-150875188D01*
X188625274Y-150997506D01*
X188635805Y-151063996D01*
X188694879Y-151245806D01*
X188781667Y-151416136D01*
X188894032Y-151570793D01*
X189029207Y-151705968D01*
X189183864Y-151818333D01*
X189354194Y-151905121D01*
X189374349Y-151911669D01*
X189432023Y-151951107D01*
X189459221Y-152015466D01*
X189447306Y-152084312D01*
X189400061Y-152135788D01*
X189374351Y-152147529D01*
X189362035Y-152151531D01*
X189354190Y-152154080D01*
X189183863Y-152240867D01*
X189110702Y-152294022D01*
X189029207Y-152353232D01*
X189029205Y-152353234D01*
X189029204Y-152353234D01*
X188894034Y-152488404D01*
X188894034Y-152488405D01*
X188894032Y-152488407D01*
X188888773Y-152495646D01*
X188781665Y-152643065D01*
X188721990Y-152760184D01*
X188674016Y-152810979D01*
X188611652Y-152827888D01*
X185033986Y-152832114D01*
X184966924Y-152812509D01*
X184921107Y-152759759D01*
X184911081Y-152690612D01*
X184940031Y-152627022D01*
X184958349Y-152609741D01*
X185107042Y-152495646D01*
X185315646Y-152287042D01*
X185495238Y-152052994D01*
X185642743Y-151797507D01*
X185755639Y-151524952D01*
X185831993Y-151239993D01*
X185870500Y-150947506D01*
X185870500Y-150652494D01*
X185831993Y-150360007D01*
X185755639Y-150075048D01*
X185642743Y-149802493D01*
X185607163Y-149740867D01*
X185495238Y-149547006D01*
X185315647Y-149312959D01*
X185315641Y-149312952D01*
X185229619Y-149226930D01*
X185196134Y-149165607D01*
X185193300Y-149139249D01*
X185193300Y-147568116D01*
X190371900Y-147568116D01*
X190371900Y-147851083D01*
X190394205Y-148020499D01*
X190408833Y-148131606D01*
X190430364Y-148211961D01*
X190482065Y-148404914D01*
X190590344Y-148666321D01*
X190590348Y-148666331D01*
X190731821Y-148911370D01*
X190904070Y-149135849D01*
X190904076Y-149135856D01*
X191104143Y-149335923D01*
X191104150Y-149335929D01*
X191328629Y-149508178D01*
X191573668Y-149649651D01*
X191573669Y-149649651D01*
X191573672Y-149649653D01*
X191835084Y-149757934D01*
X192108394Y-149831167D01*
X192388924Y-149868100D01*
X192388931Y-149868100D01*
X192671869Y-149868100D01*
X192671876Y-149868100D01*
X192952406Y-149831167D01*
X193225716Y-149757934D01*
X193487128Y-149649653D01*
X193732171Y-149508178D01*
X193956651Y-149335928D01*
X194156728Y-149135851D01*
X194328978Y-148911371D01*
X194470453Y-148666328D01*
X194578734Y-148404916D01*
X194651967Y-148131606D01*
X194688900Y-147851076D01*
X194688900Y-147568124D01*
X194651967Y-147287594D01*
X194578734Y-147014284D01*
X194470453Y-146752872D01*
X194457773Y-146730910D01*
X194328978Y-146507829D01*
X194241601Y-146393957D01*
X194241599Y-146393955D01*
X194233650Y-146383596D01*
X194186795Y-146322533D01*
X195820000Y-146322533D01*
X195820000Y-146617466D01*
X195820001Y-146617483D01*
X195858496Y-146909884D01*
X195858499Y-146909897D01*
X195934835Y-147194790D01*
X195934838Y-147194800D01*
X196047704Y-147467281D01*
X196047709Y-147467292D01*
X196195174Y-147722707D01*
X196195180Y-147722715D01*
X196311777Y-147874667D01*
X196994103Y-147192340D01*
X197082230Y-147313636D01*
X197226364Y-147457770D01*
X197347657Y-147545895D01*
X196665331Y-148228221D01*
X196817284Y-148344819D01*
X196817292Y-148344825D01*
X197072707Y-148492290D01*
X197072718Y-148492295D01*
X197345199Y-148605161D01*
X197345209Y-148605164D01*
X197630102Y-148681500D01*
X197630115Y-148681503D01*
X197922516Y-148719998D01*
X197922534Y-148720000D01*
X198217466Y-148720000D01*
X198217483Y-148719998D01*
X198509884Y-148681503D01*
X198509897Y-148681500D01*
X198794790Y-148605164D01*
X198794800Y-148605161D01*
X199067281Y-148492295D01*
X199067292Y-148492290D01*
X199322707Y-148344825D01*
X199322725Y-148344813D01*
X199474667Y-148228222D01*
X199474667Y-148228220D01*
X198792342Y-147545895D01*
X198913636Y-147457770D01*
X199057770Y-147313636D01*
X199145895Y-147192342D01*
X199828220Y-147874667D01*
X199828222Y-147874667D01*
X199944813Y-147722725D01*
X199944825Y-147722707D01*
X200092290Y-147467292D01*
X200092295Y-147467281D01*
X200205161Y-147194800D01*
X200205164Y-147194790D01*
X200281500Y-146909897D01*
X200281503Y-146909884D01*
X200319998Y-146617483D01*
X200320000Y-146617466D01*
X200320000Y-146322533D01*
X200319998Y-146322516D01*
X200281503Y-146030115D01*
X200281500Y-146030102D01*
X200205164Y-145745209D01*
X200205161Y-145745199D01*
X200092295Y-145472718D01*
X200092290Y-145472707D01*
X199944825Y-145217292D01*
X199944819Y-145217284D01*
X199828221Y-145065331D01*
X199145895Y-145747657D01*
X199057770Y-145626364D01*
X198913636Y-145482230D01*
X198792341Y-145394104D01*
X199474667Y-144711777D01*
X199322715Y-144595180D01*
X199322707Y-144595174D01*
X199067292Y-144447709D01*
X199067281Y-144447704D01*
X198794800Y-144334838D01*
X198794790Y-144334835D01*
X198509897Y-144258499D01*
X198509884Y-144258496D01*
X198217483Y-144220001D01*
X198217466Y-144220000D01*
X197922534Y-144220000D01*
X197922516Y-144220001D01*
X197630115Y-144258496D01*
X197630102Y-144258499D01*
X197345209Y-144334835D01*
X197345199Y-144334838D01*
X197072718Y-144447704D01*
X197072707Y-144447709D01*
X196817292Y-144595174D01*
X196817276Y-144595185D01*
X196665331Y-144711775D01*
X196665331Y-144711777D01*
X197347658Y-145394104D01*
X197226364Y-145482230D01*
X197082230Y-145626364D01*
X196994104Y-145747658D01*
X196311777Y-145065331D01*
X196311775Y-145065331D01*
X196195185Y-145217276D01*
X196195174Y-145217292D01*
X196047709Y-145472707D01*
X196047704Y-145472718D01*
X195934838Y-145745199D01*
X195934835Y-145745209D01*
X195858499Y-146030102D01*
X195858496Y-146030115D01*
X195820001Y-146322516D01*
X195820000Y-146322533D01*
X194186795Y-146322533D01*
X194156728Y-146283349D01*
X194156726Y-146283347D01*
X194156723Y-146283343D01*
X193956656Y-146083276D01*
X193956649Y-146083270D01*
X193732170Y-145911021D01*
X193487131Y-145769548D01*
X193487121Y-145769544D01*
X193225714Y-145661265D01*
X193052442Y-145614837D01*
X192952406Y-145588033D01*
X192917339Y-145583416D01*
X192671883Y-145551100D01*
X192671876Y-145551100D01*
X192388924Y-145551100D01*
X192388916Y-145551100D01*
X192108394Y-145588033D01*
X191835085Y-145661265D01*
X191573678Y-145769544D01*
X191573668Y-145769548D01*
X191328629Y-145911021D01*
X191104150Y-146083270D01*
X191104143Y-146083276D01*
X190904076Y-146283343D01*
X190904070Y-146283350D01*
X190731821Y-146507829D01*
X190590348Y-146752868D01*
X190590344Y-146752878D01*
X190482065Y-147014285D01*
X190408833Y-147287594D01*
X190371900Y-147568116D01*
X185193300Y-147568116D01*
X185193300Y-147380750D01*
X185212985Y-147313711D01*
X185229614Y-147293073D01*
X185315646Y-147207042D01*
X185495238Y-146972994D01*
X185642743Y-146717507D01*
X185755639Y-146444952D01*
X185831993Y-146159993D01*
X185870500Y-145867506D01*
X185870500Y-145572494D01*
X185831993Y-145280007D01*
X185755639Y-144995048D01*
X185755635Y-144995038D01*
X185677823Y-144807183D01*
X185666009Y-144778664D01*
X185642743Y-144722493D01*
X185495238Y-144467006D01*
X185393819Y-144334835D01*
X185315647Y-144232959D01*
X185315641Y-144232952D01*
X185107047Y-144024358D01*
X185107040Y-144024352D01*
X184872993Y-143844761D01*
X184617510Y-143697258D01*
X184617500Y-143697254D01*
X184344961Y-143584364D01*
X184344954Y-143584362D01*
X184344952Y-143584361D01*
X184059993Y-143508007D01*
X184011113Y-143501571D01*
X183767513Y-143469500D01*
X183767506Y-143469500D01*
X183472494Y-143469500D01*
X183472486Y-143469500D01*
X183194085Y-143506153D01*
X183180007Y-143508007D01*
X182895048Y-143584361D01*
X182895038Y-143584364D01*
X182622499Y-143697254D01*
X182622489Y-143697258D01*
X182367006Y-143844761D01*
X182132959Y-144024352D01*
X182132952Y-144024358D01*
X181924358Y-144232952D01*
X181924352Y-144232959D01*
X181754599Y-144454186D01*
X181698171Y-144495389D01*
X181656223Y-144502700D01*
X173425411Y-144502700D01*
X173358372Y-144483015D01*
X173327036Y-144454187D01*
X173195645Y-144282957D01*
X173195638Y-144282949D01*
X172987047Y-144074358D01*
X172987040Y-144074352D01*
X172752993Y-143894761D01*
X172497510Y-143747258D01*
X172497500Y-143747254D01*
X172224961Y-143634364D01*
X172224954Y-143634362D01*
X172224952Y-143634361D01*
X171939993Y-143558007D01*
X171891113Y-143551571D01*
X171647513Y-143519500D01*
X171647506Y-143519500D01*
X171393690Y-143519500D01*
X171326651Y-143499815D01*
X171306009Y-143483181D01*
X168917181Y-141094353D01*
X169785900Y-141094353D01*
X169785900Y-141252046D01*
X169816661Y-141406689D01*
X169816664Y-141406701D01*
X169877002Y-141552372D01*
X169877009Y-141552385D01*
X169964610Y-141683488D01*
X169964613Y-141683492D01*
X170076107Y-141794986D01*
X170076111Y-141794989D01*
X170207214Y-141882590D01*
X170207227Y-141882597D01*
X170352898Y-141942935D01*
X170352903Y-141942937D01*
X170507553Y-141973699D01*
X170507556Y-141973700D01*
X170507558Y-141973700D01*
X170665244Y-141973700D01*
X170665245Y-141973699D01*
X170819897Y-141942937D01*
X170965579Y-141882594D01*
X171096689Y-141794989D01*
X171208189Y-141683489D01*
X171295794Y-141552379D01*
X171356137Y-141406697D01*
X171386900Y-141252042D01*
X171386900Y-141094358D01*
X171386900Y-141094355D01*
X171386899Y-141094353D01*
X171356138Y-140939710D01*
X171356137Y-140939703D01*
X171343187Y-140908438D01*
X171322180Y-140857721D01*
X171295795Y-140794023D01*
X171295790Y-140794014D01*
X171208189Y-140662911D01*
X171208186Y-140662907D01*
X171096692Y-140551413D01*
X171096688Y-140551410D01*
X170965585Y-140463809D01*
X170965572Y-140463802D01*
X170819901Y-140403464D01*
X170819889Y-140403461D01*
X170665245Y-140372700D01*
X170665242Y-140372700D01*
X170507558Y-140372700D01*
X170507555Y-140372700D01*
X170352910Y-140403461D01*
X170352898Y-140403464D01*
X170207227Y-140463802D01*
X170207214Y-140463809D01*
X170076111Y-140551410D01*
X170076107Y-140551413D01*
X169964613Y-140662907D01*
X169964610Y-140662911D01*
X169877009Y-140794014D01*
X169877002Y-140794027D01*
X169816664Y-140939698D01*
X169816661Y-140939710D01*
X169785900Y-141094353D01*
X168917181Y-141094353D01*
X166986781Y-139163953D01*
X169563900Y-139163953D01*
X169563900Y-139321646D01*
X169594661Y-139476289D01*
X169594664Y-139476301D01*
X169655002Y-139621972D01*
X169655009Y-139621985D01*
X169742610Y-139753088D01*
X169742613Y-139753092D01*
X169854107Y-139864586D01*
X169854111Y-139864589D01*
X169985214Y-139952190D01*
X169985227Y-139952197D01*
X170130898Y-140012535D01*
X170130903Y-140012537D01*
X170285553Y-140043299D01*
X170285556Y-140043300D01*
X170285558Y-140043300D01*
X170443244Y-140043300D01*
X170443245Y-140043299D01*
X170597897Y-140012537D01*
X170743579Y-139952194D01*
X170874689Y-139864589D01*
X170986189Y-139753089D01*
X171073794Y-139621979D01*
X171134137Y-139476297D01*
X171164900Y-139321642D01*
X171164900Y-139163958D01*
X171164900Y-139163955D01*
X171164899Y-139163953D01*
X171134138Y-139009310D01*
X171134137Y-139009303D01*
X171092985Y-138909953D01*
X186378700Y-138909953D01*
X186378700Y-139067646D01*
X186409461Y-139222289D01*
X186409464Y-139222301D01*
X186469802Y-139367972D01*
X186469809Y-139367985D01*
X186557410Y-139499088D01*
X186557413Y-139499092D01*
X186668907Y-139610586D01*
X186668911Y-139610589D01*
X186800014Y-139698190D01*
X186800027Y-139698197D01*
X186945698Y-139758535D01*
X186945703Y-139758537D01*
X187078545Y-139784961D01*
X187100353Y-139789299D01*
X187100356Y-139789300D01*
X187100358Y-139789300D01*
X187258044Y-139789300D01*
X187258045Y-139789299D01*
X187412697Y-139758537D01*
X187558379Y-139698194D01*
X187689489Y-139610589D01*
X187800989Y-139499089D01*
X187888594Y-139367979D01*
X187948937Y-139222297D01*
X187979700Y-139067642D01*
X187979700Y-138952533D01*
X194220000Y-138952533D01*
X194220000Y-139247466D01*
X194220001Y-139247483D01*
X194258496Y-139539884D01*
X194258499Y-139539897D01*
X194334835Y-139824790D01*
X194334838Y-139824800D01*
X194447704Y-140097281D01*
X194447709Y-140097292D01*
X194595174Y-140352707D01*
X194595180Y-140352715D01*
X194711777Y-140504667D01*
X195394103Y-139822340D01*
X195482230Y-139943636D01*
X195626364Y-140087770D01*
X195747657Y-140175895D01*
X195065331Y-140858221D01*
X195217284Y-140974819D01*
X195217292Y-140974825D01*
X195472707Y-141122290D01*
X195472718Y-141122295D01*
X195745199Y-141235161D01*
X195745209Y-141235164D01*
X196030102Y-141311500D01*
X196030115Y-141311503D01*
X196322516Y-141349998D01*
X196322534Y-141350000D01*
X196617466Y-141350000D01*
X196617483Y-141349998D01*
X196909884Y-141311503D01*
X196909897Y-141311500D01*
X197194790Y-141235164D01*
X197194800Y-141235161D01*
X197467281Y-141122295D01*
X197467292Y-141122290D01*
X197722707Y-140974825D01*
X197722725Y-140974813D01*
X197874667Y-140858222D01*
X197874667Y-140858220D01*
X197192342Y-140175895D01*
X197313636Y-140087770D01*
X197457770Y-139943636D01*
X197545895Y-139822342D01*
X198228220Y-140504667D01*
X198228222Y-140504667D01*
X198344813Y-140352725D01*
X198344825Y-140352707D01*
X198492290Y-140097292D01*
X198492295Y-140097281D01*
X198605161Y-139824800D01*
X198605164Y-139824790D01*
X198681500Y-139539897D01*
X198681503Y-139539884D01*
X198719998Y-139247483D01*
X198720000Y-139247466D01*
X198720000Y-138952533D01*
X198719998Y-138952516D01*
X198681503Y-138660115D01*
X198681500Y-138660102D01*
X198605164Y-138375209D01*
X198605161Y-138375199D01*
X198492295Y-138102718D01*
X198492290Y-138102707D01*
X198344825Y-137847292D01*
X198344819Y-137847284D01*
X198228221Y-137695331D01*
X197545895Y-138377657D01*
X197457770Y-138256364D01*
X197313636Y-138112230D01*
X197192341Y-138024104D01*
X197874667Y-137341777D01*
X197722715Y-137225180D01*
X197722707Y-137225174D01*
X197467292Y-137077709D01*
X197467281Y-137077704D01*
X197194800Y-136964838D01*
X197194790Y-136964835D01*
X196909897Y-136888499D01*
X196909884Y-136888496D01*
X196617483Y-136850001D01*
X196617466Y-136850000D01*
X196322534Y-136850000D01*
X196322516Y-136850001D01*
X196030115Y-136888496D01*
X196030102Y-136888499D01*
X195745209Y-136964835D01*
X195745199Y-136964838D01*
X195472718Y-137077704D01*
X195472707Y-137077709D01*
X195217292Y-137225174D01*
X195217276Y-137225185D01*
X195065331Y-137341775D01*
X195065331Y-137341777D01*
X195747658Y-138024104D01*
X195626364Y-138112230D01*
X195482230Y-138256364D01*
X195394104Y-138377658D01*
X194711777Y-137695331D01*
X194711775Y-137695331D01*
X194595185Y-137847276D01*
X194595174Y-137847292D01*
X194447709Y-138102707D01*
X194447704Y-138102718D01*
X194334838Y-138375199D01*
X194334835Y-138375209D01*
X194258499Y-138660102D01*
X194258496Y-138660115D01*
X194220001Y-138952516D01*
X194220000Y-138952533D01*
X187979700Y-138952533D01*
X187979700Y-138909958D01*
X187979700Y-138909955D01*
X187979699Y-138909953D01*
X187970483Y-138863621D01*
X187948937Y-138755303D01*
X187939495Y-138732507D01*
X187888597Y-138609627D01*
X187888590Y-138609614D01*
X187800989Y-138478511D01*
X187800986Y-138478507D01*
X187738560Y-138416081D01*
X187705075Y-138354758D01*
X187710059Y-138285066D01*
X187738560Y-138240719D01*
X187851786Y-138127492D01*
X187851789Y-138127489D01*
X187939394Y-137996379D01*
X187999737Y-137850697D01*
X188030500Y-137696042D01*
X188030500Y-137538358D01*
X188030500Y-137538355D01*
X188005748Y-137413922D01*
X188005747Y-137413921D01*
X187999737Y-137383703D01*
X187982370Y-137341775D01*
X187939397Y-137238027D01*
X187939390Y-137238014D01*
X187851789Y-137106911D01*
X187851786Y-137106907D01*
X187740292Y-136995413D01*
X187740288Y-136995410D01*
X187609185Y-136907809D01*
X187609172Y-136907802D01*
X187463501Y-136847464D01*
X187463489Y-136847461D01*
X187347640Y-136824417D01*
X187285729Y-136792032D01*
X187251155Y-136731316D01*
X187254894Y-136661547D01*
X187295761Y-136604875D01*
X187347640Y-136581183D01*
X187397966Y-136571172D01*
X187463497Y-136558137D01*
X187609179Y-136497794D01*
X187740289Y-136410189D01*
X187851789Y-136298689D01*
X187939394Y-136167579D01*
X187999737Y-136021897D01*
X188030500Y-135867242D01*
X188030500Y-135709558D01*
X188030500Y-135709555D01*
X188030499Y-135709553D01*
X187999738Y-135554910D01*
X187999737Y-135554903D01*
X187944066Y-135420500D01*
X187939397Y-135409227D01*
X187939390Y-135409214D01*
X187851789Y-135278111D01*
X187851786Y-135278107D01*
X187740292Y-135166613D01*
X187740288Y-135166610D01*
X187609185Y-135079009D01*
X187609172Y-135079002D01*
X187463501Y-135018664D01*
X187463489Y-135018661D01*
X187308845Y-134987900D01*
X187308842Y-134987900D01*
X187151158Y-134987900D01*
X187151155Y-134987900D01*
X186996510Y-135018661D01*
X186996498Y-135018664D01*
X186850827Y-135079002D01*
X186850814Y-135079009D01*
X186719711Y-135166610D01*
X186719707Y-135166613D01*
X186608213Y-135278107D01*
X186608210Y-135278111D01*
X186520609Y-135409214D01*
X186520602Y-135409227D01*
X186460264Y-135554898D01*
X186460261Y-135554910D01*
X186429500Y-135709553D01*
X186429500Y-135867246D01*
X186460261Y-136021889D01*
X186460264Y-136021901D01*
X186520602Y-136167572D01*
X186520609Y-136167585D01*
X186608210Y-136298688D01*
X186608213Y-136298692D01*
X186719707Y-136410186D01*
X186719711Y-136410189D01*
X186850814Y-136497790D01*
X186850827Y-136497797D01*
X186996498Y-136558135D01*
X186996503Y-136558137D01*
X187039991Y-136566787D01*
X187112359Y-136581183D01*
X187174270Y-136613568D01*
X187208845Y-136674284D01*
X187205105Y-136744053D01*
X187164238Y-136800725D01*
X187112359Y-136824417D01*
X186996510Y-136847461D01*
X186996498Y-136847464D01*
X186850827Y-136907802D01*
X186850814Y-136907809D01*
X186719711Y-136995410D01*
X186719707Y-136995413D01*
X186608213Y-137106907D01*
X186608210Y-137106911D01*
X186520609Y-137238014D01*
X186520602Y-137238027D01*
X186460264Y-137383698D01*
X186460261Y-137383710D01*
X186429500Y-137538353D01*
X186429500Y-137696046D01*
X186460261Y-137850689D01*
X186460264Y-137850701D01*
X186520602Y-137996372D01*
X186520609Y-137996385D01*
X186608210Y-138127488D01*
X186608213Y-138127492D01*
X186670640Y-138189919D01*
X186704125Y-138251242D01*
X186699141Y-138320934D01*
X186670640Y-138365281D01*
X186557413Y-138478507D01*
X186557410Y-138478511D01*
X186469809Y-138609614D01*
X186469802Y-138609627D01*
X186409464Y-138755298D01*
X186409461Y-138755310D01*
X186378700Y-138909953D01*
X171092985Y-138909953D01*
X171073797Y-138863626D01*
X171073790Y-138863614D01*
X170986189Y-138732511D01*
X170986186Y-138732507D01*
X170874692Y-138621013D01*
X170874688Y-138621010D01*
X170743585Y-138533409D01*
X170743579Y-138533406D01*
X170707354Y-138518401D01*
X170652951Y-138474559D01*
X170630887Y-138408265D01*
X170648167Y-138340566D01*
X170699304Y-138292956D01*
X170715147Y-138286641D01*
X170718293Y-138285337D01*
X170718297Y-138285337D01*
X170863979Y-138224994D01*
X170995089Y-138137389D01*
X171106589Y-138025889D01*
X171194194Y-137894779D01*
X171254537Y-137749097D01*
X171285300Y-137594442D01*
X171285300Y-137436758D01*
X171285300Y-137436755D01*
X171285299Y-137436753D01*
X171274748Y-137383710D01*
X171254537Y-137282103D01*
X171230959Y-137225180D01*
X171194197Y-137136427D01*
X171194190Y-137136414D01*
X171106589Y-137005311D01*
X171106586Y-137005307D01*
X170995092Y-136893813D01*
X170995088Y-136893810D01*
X170863985Y-136806209D01*
X170863972Y-136806202D01*
X170718301Y-136745864D01*
X170718289Y-136745861D01*
X170563645Y-136715100D01*
X170563642Y-136715100D01*
X170405958Y-136715100D01*
X170405955Y-136715100D01*
X170251310Y-136745861D01*
X170251298Y-136745864D01*
X170105627Y-136806202D01*
X170105614Y-136806209D01*
X169974511Y-136893810D01*
X169974507Y-136893813D01*
X169863013Y-137005307D01*
X169863010Y-137005311D01*
X169775409Y-137136414D01*
X169775402Y-137136427D01*
X169715064Y-137282098D01*
X169715061Y-137282110D01*
X169684300Y-137436753D01*
X169684300Y-137594446D01*
X169715061Y-137749089D01*
X169715064Y-137749101D01*
X169775402Y-137894772D01*
X169775409Y-137894785D01*
X169863010Y-138025888D01*
X169863013Y-138025892D01*
X169974507Y-138137386D01*
X169974511Y-138137389D01*
X170105614Y-138224990D01*
X170105627Y-138224997D01*
X170141843Y-138239998D01*
X170196247Y-138283838D01*
X170218312Y-138350133D01*
X170201033Y-138417832D01*
X170149896Y-138465443D01*
X170133993Y-138471782D01*
X169985227Y-138533402D01*
X169985214Y-138533409D01*
X169854111Y-138621010D01*
X169854107Y-138621013D01*
X169742613Y-138732507D01*
X169742610Y-138732511D01*
X169655009Y-138863614D01*
X169655002Y-138863627D01*
X169594664Y-139009298D01*
X169594661Y-139009310D01*
X169563900Y-139163953D01*
X166986781Y-139163953D01*
X166821219Y-138998391D01*
X166787734Y-138937068D01*
X166784900Y-138910710D01*
X166784900Y-135391717D01*
X166804585Y-135324678D01*
X166857389Y-135278923D01*
X166926547Y-135268979D01*
X166977790Y-135288614D01*
X167038821Y-135329394D01*
X167038823Y-135329395D01*
X167038827Y-135329397D01*
X167184498Y-135389735D01*
X167184503Y-135389737D01*
X167311508Y-135415000D01*
X167339153Y-135420499D01*
X167339156Y-135420500D01*
X167339158Y-135420500D01*
X167496844Y-135420500D01*
X167496845Y-135420499D01*
X167651497Y-135389737D01*
X167797179Y-135329394D01*
X167928289Y-135241789D01*
X168039789Y-135130289D01*
X168127394Y-134999179D01*
X168187737Y-134853497D01*
X168218500Y-134698842D01*
X168218500Y-134541158D01*
X168218500Y-134541155D01*
X168218499Y-134541153D01*
X170395500Y-134541153D01*
X170395500Y-134698846D01*
X170426261Y-134853489D01*
X170426264Y-134853501D01*
X170486602Y-134999172D01*
X170486609Y-134999185D01*
X170574210Y-135130288D01*
X170574213Y-135130292D01*
X170685707Y-135241786D01*
X170685711Y-135241789D01*
X170816814Y-135329390D01*
X170816827Y-135329397D01*
X170962498Y-135389735D01*
X170962503Y-135389737D01*
X171089508Y-135415000D01*
X171117153Y-135420499D01*
X171117156Y-135420500D01*
X171117158Y-135420500D01*
X171274844Y-135420500D01*
X171274845Y-135420499D01*
X171429497Y-135389737D01*
X171575179Y-135329394D01*
X171706289Y-135241789D01*
X171817789Y-135130289D01*
X171905394Y-134999179D01*
X171965737Y-134853497D01*
X171996500Y-134698842D01*
X171996500Y-134541158D01*
X171996500Y-134541155D01*
X171996499Y-134541153D01*
X171989260Y-134504762D01*
X171965737Y-134386503D01*
X171953623Y-134357257D01*
X171905397Y-134240827D01*
X171905390Y-134240814D01*
X171817789Y-134109711D01*
X171817786Y-134109707D01*
X171706292Y-133998213D01*
X171706288Y-133998210D01*
X171667860Y-133972533D01*
X188700000Y-133972533D01*
X188700000Y-134267466D01*
X188700001Y-134267483D01*
X188738496Y-134559884D01*
X188738499Y-134559897D01*
X188814835Y-134844790D01*
X188814838Y-134844800D01*
X188927704Y-135117281D01*
X188927709Y-135117292D01*
X189075174Y-135372707D01*
X189075180Y-135372715D01*
X189191777Y-135524667D01*
X189874103Y-134842340D01*
X189962230Y-134963636D01*
X190106364Y-135107770D01*
X190227657Y-135195895D01*
X189545331Y-135878221D01*
X189697284Y-135994819D01*
X189697292Y-135994825D01*
X189952707Y-136142290D01*
X189952718Y-136142295D01*
X190225199Y-136255161D01*
X190225209Y-136255164D01*
X190510102Y-136331500D01*
X190510115Y-136331503D01*
X190802516Y-136369998D01*
X190802534Y-136370000D01*
X191097466Y-136370000D01*
X191097483Y-136369998D01*
X191389884Y-136331503D01*
X191389897Y-136331500D01*
X191674790Y-136255164D01*
X191674800Y-136255161D01*
X191947281Y-136142295D01*
X191947292Y-136142290D01*
X192202707Y-135994825D01*
X192202725Y-135994813D01*
X192354667Y-135878222D01*
X192354667Y-135878220D01*
X192294396Y-135817949D01*
X191672342Y-135195895D01*
X191793636Y-135107770D01*
X191937770Y-134963636D01*
X192025895Y-134842342D01*
X192708220Y-135524667D01*
X192708222Y-135524667D01*
X192824813Y-135372725D01*
X192824825Y-135372707D01*
X192972290Y-135117292D01*
X192972295Y-135117281D01*
X193085161Y-134844800D01*
X193085164Y-134844790D01*
X193161500Y-134559897D01*
X193161503Y-134559884D01*
X193199998Y-134267483D01*
X193200000Y-134267466D01*
X193200000Y-133972533D01*
X193199999Y-133972519D01*
X193188431Y-133884654D01*
X193188431Y-133884653D01*
X193161503Y-133680115D01*
X193161500Y-133680102D01*
X193085164Y-133395209D01*
X193085161Y-133395199D01*
X192972295Y-133122718D01*
X192972290Y-133122707D01*
X192824825Y-132867292D01*
X192824819Y-132867284D01*
X192708221Y-132715331D01*
X192025895Y-133397657D01*
X191937770Y-133276364D01*
X191793636Y-133132230D01*
X191672341Y-133044104D01*
X192354667Y-132361777D01*
X192202715Y-132245180D01*
X192202707Y-132245174D01*
X191947292Y-132097709D01*
X191947281Y-132097704D01*
X191674800Y-131984838D01*
X191674790Y-131984835D01*
X191389897Y-131908499D01*
X191389884Y-131908496D01*
X191097483Y-131870001D01*
X191097466Y-131870000D01*
X190802534Y-131870000D01*
X190802516Y-131870001D01*
X190510115Y-131908496D01*
X190510102Y-131908499D01*
X190225209Y-131984835D01*
X190225199Y-131984838D01*
X189952718Y-132097704D01*
X189952707Y-132097709D01*
X189697292Y-132245174D01*
X189697276Y-132245185D01*
X189545331Y-132361775D01*
X189545331Y-132361777D01*
X190227658Y-133044104D01*
X190106364Y-133132230D01*
X189962230Y-133276364D01*
X189874104Y-133397658D01*
X189191777Y-132715331D01*
X189191775Y-132715331D01*
X189075185Y-132867276D01*
X189075174Y-132867292D01*
X188927709Y-133122707D01*
X188927704Y-133122718D01*
X188814838Y-133395199D01*
X188814835Y-133395209D01*
X188738499Y-133680102D01*
X188738496Y-133680115D01*
X188700001Y-133972516D01*
X188700000Y-133972533D01*
X171667860Y-133972533D01*
X171575185Y-133910609D01*
X171575172Y-133910602D01*
X171429501Y-133850264D01*
X171429489Y-133850261D01*
X171274845Y-133819500D01*
X171274842Y-133819500D01*
X171117158Y-133819500D01*
X171117153Y-133819500D01*
X170986678Y-133845452D01*
X170986660Y-133845457D01*
X170962503Y-133850263D01*
X170928415Y-133864382D01*
X170928389Y-133864391D01*
X170816824Y-133910604D01*
X170816814Y-133910609D01*
X170685711Y-133998210D01*
X170685707Y-133998213D01*
X170574213Y-134109707D01*
X170574210Y-134109711D01*
X170486609Y-134240814D01*
X170486602Y-134240827D01*
X170426264Y-134386498D01*
X170426261Y-134386510D01*
X170395500Y-134541153D01*
X168218499Y-134541153D01*
X168211260Y-134504762D01*
X168187737Y-134386503D01*
X168175623Y-134357257D01*
X168127397Y-134240827D01*
X168127390Y-134240814D01*
X168039789Y-134109711D01*
X168039786Y-134109707D01*
X167928292Y-133998213D01*
X167928288Y-133998210D01*
X167838031Y-133937902D01*
X167793226Y-133884290D01*
X167784519Y-133814965D01*
X167814673Y-133751937D01*
X167874117Y-133715218D01*
X167906922Y-133710800D01*
X167940758Y-133710800D01*
X168170593Y-133674397D01*
X168172098Y-133673908D01*
X168391909Y-133602487D01*
X168599251Y-133496841D01*
X168787513Y-133360061D01*
X168952061Y-133195513D01*
X168994081Y-133137676D01*
X169049411Y-133095010D01*
X169119024Y-133089030D01*
X169180819Y-133121636D01*
X169194719Y-133137677D01*
X169236735Y-133195509D01*
X169401288Y-133360062D01*
X169401293Y-133360066D01*
X169521785Y-133447608D01*
X169589549Y-133496841D01*
X169674283Y-133540015D01*
X169796886Y-133602485D01*
X169796888Y-133602485D01*
X169796891Y-133602487D01*
X169881678Y-133630036D01*
X170018206Y-133674397D01*
X170248042Y-133710800D01*
X170248047Y-133710800D01*
X170480758Y-133710800D01*
X170710593Y-133674397D01*
X170712098Y-133673908D01*
X170931909Y-133602487D01*
X171139251Y-133496841D01*
X171327513Y-133360061D01*
X171492061Y-133195513D01*
X171628841Y-133007251D01*
X171734487Y-132799909D01*
X171806397Y-132578593D01*
X171806919Y-132575295D01*
X171842800Y-132348758D01*
X171842800Y-132116087D01*
X181586500Y-132116087D01*
X181586500Y-132348712D01*
X181622891Y-132578477D01*
X181694774Y-132799714D01*
X181800389Y-133006991D01*
X181857561Y-133085682D01*
X181857562Y-133085683D01*
X182406797Y-132536448D01*
X182422888Y-132575295D01*
X182502110Y-132693860D01*
X182602940Y-132794690D01*
X182721505Y-132873912D01*
X182760350Y-132890002D01*
X182211115Y-133439236D01*
X182289811Y-133496412D01*
X182497085Y-133602025D01*
X182718322Y-133673908D01*
X182948088Y-133710300D01*
X183180712Y-133710300D01*
X183410477Y-133673908D01*
X183631714Y-133602025D01*
X183838980Y-133496416D01*
X183838986Y-133496412D01*
X183917682Y-133439236D01*
X183917683Y-133439236D01*
X183368448Y-132890002D01*
X183407295Y-132873912D01*
X183525860Y-132794690D01*
X183626690Y-132693860D01*
X183705912Y-132575295D01*
X183722002Y-132536448D01*
X184271235Y-133085682D01*
X184320914Y-133081773D01*
X184389291Y-133096137D01*
X184430961Y-133132506D01*
X184476733Y-133195506D01*
X184476737Y-133195511D01*
X184641288Y-133360062D01*
X184641293Y-133360066D01*
X184761785Y-133447608D01*
X184829549Y-133496841D01*
X184914283Y-133540015D01*
X185036886Y-133602485D01*
X185036888Y-133602485D01*
X185036891Y-133602487D01*
X185121678Y-133630036D01*
X185258206Y-133674397D01*
X185488042Y-133710800D01*
X185488047Y-133710800D01*
X185720758Y-133710800D01*
X185950593Y-133674397D01*
X185952098Y-133673908D01*
X186171909Y-133602487D01*
X186379251Y-133496841D01*
X186567513Y-133360061D01*
X186732061Y-133195513D01*
X186868841Y-133007251D01*
X186974487Y-132799909D01*
X187046397Y-132578593D01*
X187046919Y-132575295D01*
X187076215Y-132390332D01*
X187076215Y-132390331D01*
X187082800Y-132348757D01*
X187082800Y-132116041D01*
X187046397Y-131886206D01*
X186995480Y-131729500D01*
X186974487Y-131664891D01*
X186974485Y-131664888D01*
X186974485Y-131664886D01*
X186908976Y-131536319D01*
X186868841Y-131457549D01*
X186809423Y-131375767D01*
X186732066Y-131269293D01*
X186732062Y-131269288D01*
X186567511Y-131104737D01*
X186567506Y-131104733D01*
X186379254Y-130967961D01*
X186379253Y-130967960D01*
X186379251Y-130967959D01*
X186274946Y-130914813D01*
X186171914Y-130862315D01*
X186171911Y-130862314D01*
X186171909Y-130862313D01*
X186108875Y-130841832D01*
X185950593Y-130790402D01*
X185720758Y-130754000D01*
X185720753Y-130754000D01*
X185488047Y-130754000D01*
X185488042Y-130754000D01*
X185258206Y-130790402D01*
X185036886Y-130862314D01*
X184829545Y-130967961D01*
X184641293Y-131104733D01*
X184641288Y-131104737D01*
X184476737Y-131269288D01*
X184430962Y-131332293D01*
X184375632Y-131374958D01*
X184320916Y-131383025D01*
X184271236Y-131379115D01*
X183722002Y-131928350D01*
X183705912Y-131889505D01*
X183626690Y-131770940D01*
X183525860Y-131670110D01*
X183407295Y-131590888D01*
X183368448Y-131574797D01*
X183917683Y-131025562D01*
X183917682Y-131025561D01*
X183838991Y-130968389D01*
X183631714Y-130862774D01*
X183410477Y-130790891D01*
X183180712Y-130754500D01*
X182948088Y-130754500D01*
X182718322Y-130790891D01*
X182497085Y-130862774D01*
X182289815Y-130968385D01*
X182211116Y-131025562D01*
X182760351Y-131574797D01*
X182721505Y-131590888D01*
X182602940Y-131670110D01*
X182502110Y-131770940D01*
X182422888Y-131889505D01*
X182406797Y-131928351D01*
X181857562Y-131379116D01*
X181800385Y-131457815D01*
X181694774Y-131665085D01*
X181622891Y-131886322D01*
X181586500Y-132116087D01*
X171842800Y-132116087D01*
X171842800Y-132116041D01*
X171806397Y-131886206D01*
X171755480Y-131729500D01*
X171734487Y-131664891D01*
X171734485Y-131664888D01*
X171734485Y-131664886D01*
X171668976Y-131536319D01*
X171628841Y-131457549D01*
X171569423Y-131375767D01*
X171492066Y-131269293D01*
X171492062Y-131269288D01*
X171327511Y-131104737D01*
X171327506Y-131104733D01*
X171139254Y-130967961D01*
X171139253Y-130967960D01*
X171139251Y-130967959D01*
X171074501Y-130934967D01*
X170931913Y-130862314D01*
X170710593Y-130790402D01*
X170480758Y-130754000D01*
X170480753Y-130754000D01*
X170248047Y-130754000D01*
X170248042Y-130754000D01*
X170018206Y-130790402D01*
X169796886Y-130862314D01*
X169589545Y-130967961D01*
X169401293Y-131104733D01*
X169401288Y-131104737D01*
X169236737Y-131269288D01*
X169194718Y-131327123D01*
X169139388Y-131369788D01*
X169069774Y-131375767D01*
X169007979Y-131343161D01*
X168994082Y-131327123D01*
X168952062Y-131269288D01*
X168787511Y-131104737D01*
X168787506Y-131104733D01*
X168599254Y-130967961D01*
X168599253Y-130967960D01*
X168599251Y-130967959D01*
X168534501Y-130934967D01*
X168391913Y-130862314D01*
X168170593Y-130790402D01*
X167940758Y-130754000D01*
X167940753Y-130754000D01*
X167708047Y-130754000D01*
X167708042Y-130754000D01*
X167478206Y-130790402D01*
X167256886Y-130862314D01*
X167049545Y-130967961D01*
X166861293Y-131104733D01*
X166861288Y-131104737D01*
X166696738Y-131269287D01*
X166668375Y-131308326D01*
X166613045Y-131350991D01*
X166543431Y-131356969D01*
X166481636Y-131324362D01*
X166467741Y-131308325D01*
X166428921Y-131254896D01*
X166428917Y-131254890D01*
X166261910Y-131087883D01*
X166070833Y-130949057D01*
X166008491Y-130917292D01*
X165860396Y-130841833D01*
X165635768Y-130768846D01*
X165402497Y-130731900D01*
X165402492Y-130731900D01*
X165166308Y-130731900D01*
X165166303Y-130731900D01*
X164933031Y-130768846D01*
X164708403Y-130841833D01*
X164497966Y-130949057D01*
X164392669Y-131025561D01*
X164306890Y-131087883D01*
X164306888Y-131087885D01*
X164306887Y-131087885D01*
X164139885Y-131254887D01*
X164139885Y-131254888D01*
X164139883Y-131254890D01*
X164083646Y-131332293D01*
X164001057Y-131445966D01*
X163893833Y-131656403D01*
X163820846Y-131881031D01*
X163783900Y-132114302D01*
X163783900Y-139701697D01*
X163820846Y-139934968D01*
X163893833Y-140159596D01*
X163992238Y-140352725D01*
X164001057Y-140370034D01*
X164132835Y-140551410D01*
X164139884Y-140561111D01*
X164139886Y-140561113D01*
X164487209Y-140908438D01*
X164487231Y-140908458D01*
X169213181Y-145634408D01*
X169246666Y-145695731D01*
X169249500Y-145722089D01*
X169249500Y-145917513D01*
X169271324Y-146083276D01*
X169288007Y-146209993D01*
X169353417Y-146454107D01*
X169364361Y-146494951D01*
X169364364Y-146494961D01*
X169477254Y-146767500D01*
X169477258Y-146767510D01*
X169624761Y-147022993D01*
X169804352Y-147257040D01*
X169804358Y-147257047D01*
X170012952Y-147465641D01*
X170012959Y-147465647D01*
X170247006Y-147645238D01*
X170502489Y-147792741D01*
X170502490Y-147792741D01*
X170502493Y-147792743D01*
X170775048Y-147905639D01*
X171060007Y-147981993D01*
X171352494Y-148020500D01*
X171352501Y-148020500D01*
X171647499Y-148020500D01*
X171647506Y-148020500D01*
X171939993Y-147981993D01*
X172224952Y-147905639D01*
X172497507Y-147792743D01*
X172752994Y-147645238D01*
X172904055Y-147529323D01*
X172969225Y-147504130D01*
X172979542Y-147503700D01*
X182068300Y-147503700D01*
X182135339Y-147523385D01*
X182181094Y-147576189D01*
X182192300Y-147627700D01*
X182192300Y-148997669D01*
X182172615Y-149064708D01*
X182143790Y-149096042D01*
X182132956Y-149104355D01*
X182132949Y-149104362D01*
X181924358Y-149312952D01*
X181924352Y-149312959D01*
X181744761Y-149547006D01*
X181597258Y-149802489D01*
X181597254Y-149802499D01*
X181484364Y-150075038D01*
X181484361Y-150075048D01*
X181424814Y-150297284D01*
X181408008Y-150360004D01*
X181408006Y-150360015D01*
X181369500Y-150652486D01*
X181369500Y-150947513D01*
X181390906Y-151110102D01*
X181408007Y-151239993D01*
X181483864Y-151523097D01*
X181484361Y-151524951D01*
X181484364Y-151524961D01*
X181597254Y-151797500D01*
X181597258Y-151797510D01*
X181744761Y-152052993D01*
X181924352Y-152287040D01*
X181924358Y-152287047D01*
X182132952Y-152495641D01*
X182132959Y-152495647D01*
X182285990Y-152613072D01*
X182327193Y-152669500D01*
X182331348Y-152739246D01*
X182297136Y-152800166D01*
X182235418Y-152832919D01*
X182210651Y-152835448D01*
X179608826Y-152838522D01*
X179541763Y-152818917D01*
X179495946Y-152766167D01*
X179494137Y-152762020D01*
X179463224Y-152687388D01*
X179341936Y-152477311D01*
X179194265Y-152284862D01*
X179194260Y-152284856D01*
X179022743Y-152113339D01*
X179022736Y-152113333D01*
X178830293Y-151965667D01*
X178830292Y-151965666D01*
X178830289Y-151965664D01*
X178620212Y-151844376D01*
X178620205Y-151844373D01*
X178396104Y-151751547D01*
X178161785Y-151688761D01*
X177921289Y-151657100D01*
X177921288Y-151657100D01*
X177678712Y-151657100D01*
X177678711Y-151657100D01*
X177438214Y-151688761D01*
X177203895Y-151751547D01*
X176979794Y-151844373D01*
X176979785Y-151844377D01*
X176863233Y-151911669D01*
X176772256Y-151964195D01*
X176769706Y-151965667D01*
X176577263Y-152113333D01*
X176577256Y-152113339D01*
X176405739Y-152284856D01*
X176405733Y-152284863D01*
X176258067Y-152477306D01*
X176258064Y-152477310D01*
X176258064Y-152477311D01*
X176251659Y-152488404D01*
X176136781Y-152687377D01*
X176136774Y-152687391D01*
X176104108Y-152766251D01*
X176060266Y-152820654D01*
X175993971Y-152842717D01*
X175989694Y-152842796D01*
X172960563Y-152846374D01*
X172893501Y-152826769D01*
X172847684Y-152774019D01*
X172837658Y-152704872D01*
X172866608Y-152641282D01*
X172884926Y-152624002D01*
X172987042Y-152545646D01*
X173195646Y-152337042D01*
X173375238Y-152102994D01*
X173522743Y-151847507D01*
X173635639Y-151574952D01*
X173711993Y-151289993D01*
X173750500Y-150997506D01*
X173750500Y-150702494D01*
X173711993Y-150410007D01*
X173635639Y-150125048D01*
X173522743Y-149852493D01*
X173510430Y-149831167D01*
X173375238Y-149597006D01*
X173195647Y-149362959D01*
X173195641Y-149362952D01*
X172987047Y-149154358D01*
X172987040Y-149154352D01*
X172752993Y-148974761D01*
X172497510Y-148827258D01*
X172497500Y-148827254D01*
X172224961Y-148714364D01*
X172224954Y-148714362D01*
X172224952Y-148714361D01*
X171939993Y-148638007D01*
X171891113Y-148631571D01*
X171647513Y-148599500D01*
X171647506Y-148599500D01*
X171352494Y-148599500D01*
X171352486Y-148599500D01*
X171074085Y-148636153D01*
X171060007Y-148638007D01*
X170954337Y-148666321D01*
X170775048Y-148714361D01*
X170775038Y-148714364D01*
X170502499Y-148827254D01*
X170502489Y-148827258D01*
X170247006Y-148974761D01*
X170012959Y-149154352D01*
X170012952Y-149154358D01*
X169804358Y-149362952D01*
X169804352Y-149362959D01*
X169624761Y-149597006D01*
X169477258Y-149852489D01*
X169477254Y-149852499D01*
X169364364Y-150125038D01*
X169364361Y-150125048D01*
X169301405Y-150360007D01*
X169288008Y-150410004D01*
X169288006Y-150410015D01*
X169249500Y-150702486D01*
X169249500Y-150997513D01*
X169264325Y-151110115D01*
X169288007Y-151289993D01*
X169350964Y-151524952D01*
X169364361Y-151574951D01*
X169364364Y-151574961D01*
X169477254Y-151847500D01*
X169477258Y-151847510D01*
X169624761Y-152102993D01*
X169804352Y-152337040D01*
X169804358Y-152337047D01*
X170012952Y-152545641D01*
X170012956Y-152545644D01*
X170012958Y-152545646D01*
X170015089Y-152547281D01*
X170119558Y-152627443D01*
X170160760Y-152683871D01*
X170164915Y-152753617D01*
X170130703Y-152814537D01*
X170068985Y-152847290D01*
X170044217Y-152849819D01*
X167152993Y-152853233D01*
X167152991Y-152853234D01*
X167152989Y-152853235D01*
X166973892Y-152853446D01*
X166279541Y-152159095D01*
X166400836Y-152070970D01*
X166544970Y-151926836D01*
X166633095Y-151805542D01*
X167315420Y-152487867D01*
X167315422Y-152487867D01*
X167432013Y-152335925D01*
X167432025Y-152335907D01*
X167579490Y-152080492D01*
X167579495Y-152080481D01*
X167692361Y-151808000D01*
X167692364Y-151807990D01*
X167768700Y-151523097D01*
X167768703Y-151523084D01*
X167807198Y-151230683D01*
X167807200Y-151230666D01*
X167807200Y-150935733D01*
X167807198Y-150935716D01*
X167768703Y-150643315D01*
X167768700Y-150643302D01*
X167692364Y-150358409D01*
X167692361Y-150358399D01*
X167579495Y-150085918D01*
X167579490Y-150085907D01*
X167432025Y-149830492D01*
X167432019Y-149830484D01*
X167315421Y-149678531D01*
X166633095Y-150360857D01*
X166544970Y-150239564D01*
X166400836Y-150095430D01*
X166279541Y-150007304D01*
X166961867Y-149324977D01*
X166809915Y-149208380D01*
X166809907Y-149208374D01*
X166554492Y-149060909D01*
X166554481Y-149060904D01*
X166282000Y-148948038D01*
X166281990Y-148948035D01*
X165997097Y-148871699D01*
X165997084Y-148871696D01*
X165704683Y-148833201D01*
X165704666Y-148833200D01*
X165409734Y-148833200D01*
X165409716Y-148833201D01*
X165117315Y-148871696D01*
X165117302Y-148871699D01*
X164832409Y-148948035D01*
X164832399Y-148948038D01*
X164559918Y-149060904D01*
X164559907Y-149060909D01*
X164304492Y-149208374D01*
X164304476Y-149208385D01*
X164152531Y-149324975D01*
X164152531Y-149324977D01*
X164834858Y-150007304D01*
X164713564Y-150095430D01*
X164569430Y-150239564D01*
X164481304Y-150360858D01*
X163798977Y-149678531D01*
X163798975Y-149678531D01*
X163682385Y-149830476D01*
X163682374Y-149830492D01*
X163534909Y-150085907D01*
X163534904Y-150085918D01*
X163422038Y-150358399D01*
X163422035Y-150358409D01*
X163345699Y-150643302D01*
X163345696Y-150643315D01*
X163307201Y-150935716D01*
X163307200Y-150935733D01*
X163307200Y-151230666D01*
X163307201Y-151230683D01*
X163345696Y-151523084D01*
X163345699Y-151523097D01*
X163422035Y-151807990D01*
X163422038Y-151808000D01*
X163534904Y-152080481D01*
X163534909Y-152080492D01*
X163682374Y-152335907D01*
X163682380Y-152335915D01*
X163798977Y-152487867D01*
X164481303Y-151805540D01*
X164569430Y-151926836D01*
X164713564Y-152070970D01*
X164834857Y-152159095D01*
X164138743Y-152855209D01*
X164135831Y-152856798D01*
X163965173Y-152857000D01*
X163965170Y-152856999D01*
X162223286Y-152859057D01*
X162156224Y-152839452D01*
X162110407Y-152786702D01*
X162099195Y-152738769D01*
X161945341Y-147597859D01*
X161963011Y-147530265D01*
X161981601Y-147506476D01*
X162013389Y-147474689D01*
X162100994Y-147343579D01*
X162161337Y-147197897D01*
X162192100Y-147043242D01*
X162192100Y-146885558D01*
X162192100Y-146885555D01*
X162192099Y-146885553D01*
X162184398Y-146846836D01*
X162161337Y-146730903D01*
X162160130Y-146727990D01*
X162100997Y-146585227D01*
X162100990Y-146585214D01*
X162013389Y-146454111D01*
X162013386Y-146454107D01*
X161942748Y-146383469D01*
X161909263Y-146322146D01*
X161906484Y-146299497D01*
X161903805Y-146209984D01*
X161893203Y-145855733D01*
X163307200Y-145855733D01*
X163307200Y-146150666D01*
X163307201Y-146150683D01*
X163345696Y-146443084D01*
X163345699Y-146443097D01*
X163422035Y-146727990D01*
X163422038Y-146728000D01*
X163534904Y-147000481D01*
X163534909Y-147000492D01*
X163682374Y-147255907D01*
X163682380Y-147255915D01*
X163798977Y-147407867D01*
X164481303Y-146725540D01*
X164569430Y-146846836D01*
X164713564Y-146990970D01*
X164834857Y-147079095D01*
X164152531Y-147761421D01*
X164304484Y-147878019D01*
X164304492Y-147878025D01*
X164559907Y-148025490D01*
X164559918Y-148025495D01*
X164832399Y-148138361D01*
X164832409Y-148138364D01*
X165117302Y-148214700D01*
X165117315Y-148214703D01*
X165409716Y-148253198D01*
X165409734Y-148253200D01*
X165704666Y-148253200D01*
X165704683Y-148253198D01*
X165997084Y-148214703D01*
X165997097Y-148214700D01*
X166281990Y-148138364D01*
X166282000Y-148138361D01*
X166554481Y-148025495D01*
X166554492Y-148025490D01*
X166809907Y-147878025D01*
X166809925Y-147878013D01*
X166961867Y-147761422D01*
X166961867Y-147761420D01*
X166279542Y-147079095D01*
X166400836Y-146990970D01*
X166544970Y-146846836D01*
X166633095Y-146725542D01*
X167315420Y-147407867D01*
X167315422Y-147407867D01*
X167432013Y-147255925D01*
X167432025Y-147255907D01*
X167579490Y-147000492D01*
X167579495Y-147000481D01*
X167692361Y-146728000D01*
X167692364Y-146727990D01*
X167768700Y-146443097D01*
X167768703Y-146443084D01*
X167807198Y-146150683D01*
X167807200Y-146150666D01*
X167807200Y-145855733D01*
X167807198Y-145855716D01*
X167768703Y-145563315D01*
X167768700Y-145563302D01*
X167692364Y-145278409D01*
X167692361Y-145278399D01*
X167579495Y-145005918D01*
X167579490Y-145005907D01*
X167432025Y-144750492D01*
X167432019Y-144750484D01*
X167315421Y-144598531D01*
X166633095Y-145280857D01*
X166544970Y-145159564D01*
X166400836Y-145015430D01*
X166279541Y-144927304D01*
X166961867Y-144244977D01*
X166809915Y-144128380D01*
X166809907Y-144128374D01*
X166554492Y-143980909D01*
X166554481Y-143980904D01*
X166282000Y-143868038D01*
X166281990Y-143868035D01*
X165997097Y-143791699D01*
X165997084Y-143791696D01*
X165704683Y-143753201D01*
X165704666Y-143753200D01*
X165409734Y-143753200D01*
X165409716Y-143753201D01*
X165117315Y-143791696D01*
X165117302Y-143791699D01*
X164832409Y-143868035D01*
X164832399Y-143868038D01*
X164559918Y-143980904D01*
X164559907Y-143980909D01*
X164304492Y-144128374D01*
X164304476Y-144128385D01*
X164152531Y-144244975D01*
X164152531Y-144244977D01*
X164834858Y-144927304D01*
X164713564Y-145015430D01*
X164569430Y-145159564D01*
X164481304Y-145280858D01*
X163798977Y-144598531D01*
X163798975Y-144598531D01*
X163682385Y-144750476D01*
X163682374Y-144750492D01*
X163534909Y-145005907D01*
X163534904Y-145005918D01*
X163422038Y-145278399D01*
X163422035Y-145278409D01*
X163345699Y-145563302D01*
X163345696Y-145563315D01*
X163307201Y-145855716D01*
X163307200Y-145855733D01*
X161893203Y-145855733D01*
X161846134Y-144282957D01*
X161816059Y-143278003D01*
X161479982Y-132048319D01*
X161497652Y-131980726D01*
X161516239Y-131956941D01*
X163895226Y-129577953D01*
X186570300Y-129577953D01*
X186570300Y-129735646D01*
X186601061Y-129890289D01*
X186601064Y-129890301D01*
X186661402Y-130035972D01*
X186661409Y-130035985D01*
X186749010Y-130167088D01*
X186749013Y-130167092D01*
X186860507Y-130278586D01*
X186860511Y-130278589D01*
X186991614Y-130366190D01*
X186991627Y-130366197D01*
X187137298Y-130426535D01*
X187137303Y-130426537D01*
X187291953Y-130457299D01*
X187291956Y-130457300D01*
X187291958Y-130457300D01*
X187449644Y-130457300D01*
X187449645Y-130457299D01*
X187604297Y-130426537D01*
X187749979Y-130366194D01*
X187881089Y-130278589D01*
X187992589Y-130167089D01*
X188080194Y-130035979D01*
X188140537Y-129890297D01*
X188171300Y-129735642D01*
X188171300Y-129577958D01*
X188171300Y-129577955D01*
X188171299Y-129577953D01*
X188152647Y-129484185D01*
X188140537Y-129423303D01*
X188107377Y-129343246D01*
X188080197Y-129277627D01*
X188080190Y-129277614D01*
X187992589Y-129146511D01*
X187992586Y-129146507D01*
X187881092Y-129035013D01*
X187881088Y-129035010D01*
X187816076Y-128991570D01*
X187749985Y-128947409D01*
X187749972Y-128947402D01*
X187604301Y-128887064D01*
X187604289Y-128887061D01*
X187449645Y-128856300D01*
X187449642Y-128856300D01*
X187291958Y-128856300D01*
X187291955Y-128856300D01*
X187137310Y-128887061D01*
X187137298Y-128887064D01*
X186991627Y-128947402D01*
X186991614Y-128947409D01*
X186860511Y-129035010D01*
X186860507Y-129035013D01*
X186749013Y-129146507D01*
X186749010Y-129146511D01*
X186661409Y-129277614D01*
X186661402Y-129277627D01*
X186601064Y-129423298D01*
X186601061Y-129423310D01*
X186570300Y-129577953D01*
X163895226Y-129577953D01*
X164533161Y-128940018D01*
X164594484Y-128906534D01*
X164620842Y-128903700D01*
X171922327Y-128903700D01*
X171922334Y-128903700D01*
X172090493Y-128881560D01*
X172106679Y-128880500D01*
X172297499Y-128880500D01*
X172297506Y-128880500D01*
X172589993Y-128841993D01*
X172874952Y-128765639D01*
X173147507Y-128652743D01*
X173402994Y-128505238D01*
X173637042Y-128325646D01*
X173647489Y-128315199D01*
X173710101Y-128252588D01*
X173845641Y-128117047D01*
X173845646Y-128117042D01*
X174025238Y-127882994D01*
X174072902Y-127800436D01*
X174123468Y-127752222D01*
X174192075Y-127738998D01*
X174256940Y-127764966D01*
X174287676Y-127800437D01*
X174335175Y-127882708D01*
X174335180Y-127882715D01*
X174451777Y-128034667D01*
X175134103Y-127352340D01*
X175222230Y-127473636D01*
X175366364Y-127617770D01*
X175487657Y-127705895D01*
X174805331Y-128388221D01*
X174957284Y-128504819D01*
X174957292Y-128504825D01*
X175212707Y-128652290D01*
X175212718Y-128652295D01*
X175485199Y-128765161D01*
X175485209Y-128765164D01*
X175770102Y-128841500D01*
X175770115Y-128841503D01*
X176062516Y-128879998D01*
X176062534Y-128880000D01*
X176357466Y-128880000D01*
X176357483Y-128879998D01*
X176649884Y-128841503D01*
X176649897Y-128841500D01*
X176934790Y-128765164D01*
X176934800Y-128765161D01*
X177207281Y-128652295D01*
X177207292Y-128652290D01*
X177462707Y-128504825D01*
X177462725Y-128504813D01*
X177614667Y-128388222D01*
X177614667Y-128388220D01*
X176932342Y-127705895D01*
X177053636Y-127617770D01*
X177197770Y-127473636D01*
X177285895Y-127352342D01*
X177968220Y-128034667D01*
X177968222Y-128034667D01*
X178084813Y-127882725D01*
X178084825Y-127882707D01*
X178232290Y-127627292D01*
X178232295Y-127627281D01*
X178345161Y-127354800D01*
X178345164Y-127354790D01*
X178421500Y-127069897D01*
X178421503Y-127069884D01*
X178459998Y-126777483D01*
X178460000Y-126777466D01*
X178460000Y-126482533D01*
X179040000Y-126482533D01*
X179040000Y-126777466D01*
X179040001Y-126777483D01*
X179078496Y-127069884D01*
X179078499Y-127069897D01*
X179154835Y-127354790D01*
X179154838Y-127354800D01*
X179267704Y-127627281D01*
X179267709Y-127627292D01*
X179415174Y-127882707D01*
X179415180Y-127882715D01*
X179531777Y-128034667D01*
X180214103Y-127352340D01*
X180302230Y-127473636D01*
X180446364Y-127617770D01*
X180567657Y-127705895D01*
X179885331Y-128388221D01*
X180037284Y-128504819D01*
X180037292Y-128504825D01*
X180292707Y-128652290D01*
X180292718Y-128652295D01*
X180565199Y-128765161D01*
X180565209Y-128765164D01*
X180850102Y-128841500D01*
X180850115Y-128841503D01*
X181142516Y-128879998D01*
X181142534Y-128880000D01*
X181437466Y-128880000D01*
X181437483Y-128879998D01*
X181729884Y-128841503D01*
X181729897Y-128841500D01*
X182014790Y-128765164D01*
X182014800Y-128765161D01*
X182287281Y-128652295D01*
X182287292Y-128652290D01*
X182542707Y-128504825D01*
X182542725Y-128504813D01*
X182694667Y-128388222D01*
X182694667Y-128388220D01*
X182012342Y-127705895D01*
X182133636Y-127617770D01*
X182277770Y-127473636D01*
X182365895Y-127352342D01*
X183048220Y-128034667D01*
X183048222Y-128034667D01*
X183164813Y-127882725D01*
X183164825Y-127882707D01*
X183312290Y-127627292D01*
X183312295Y-127627281D01*
X183425161Y-127354800D01*
X183425164Y-127354790D01*
X183428389Y-127342753D01*
X186621100Y-127342753D01*
X186621100Y-127500446D01*
X186651861Y-127655089D01*
X186651864Y-127655101D01*
X186712202Y-127800772D01*
X186712209Y-127800785D01*
X186799810Y-127931888D01*
X186799813Y-127931892D01*
X186911307Y-128043386D01*
X186911311Y-128043389D01*
X187042414Y-128130990D01*
X187042427Y-128130997D01*
X187116733Y-128161775D01*
X187188103Y-128191337D01*
X187342753Y-128222099D01*
X187342756Y-128222100D01*
X187342758Y-128222100D01*
X187500444Y-128222100D01*
X187500445Y-128222099D01*
X187655097Y-128191337D01*
X187800779Y-128130994D01*
X187931889Y-128043389D01*
X188043389Y-127931889D01*
X188130994Y-127800779D01*
X188136581Y-127787292D01*
X188169217Y-127708499D01*
X188191337Y-127655097D01*
X188222100Y-127500442D01*
X188222100Y-127342758D01*
X188222100Y-127342755D01*
X188222099Y-127342753D01*
X188209970Y-127281777D01*
X188191337Y-127188103D01*
X188166072Y-127127107D01*
X188130997Y-127042427D01*
X188130990Y-127042414D01*
X188043389Y-126911311D01*
X188043386Y-126911307D01*
X187931892Y-126799813D01*
X187931888Y-126799810D01*
X187800785Y-126712209D01*
X187800772Y-126712202D01*
X187655101Y-126651864D01*
X187655089Y-126651861D01*
X187500445Y-126621100D01*
X187500442Y-126621100D01*
X187342758Y-126621100D01*
X187342755Y-126621100D01*
X187188110Y-126651861D01*
X187188098Y-126651864D01*
X187042427Y-126712202D01*
X187042414Y-126712209D01*
X186911311Y-126799810D01*
X186911307Y-126799813D01*
X186799813Y-126911307D01*
X186799810Y-126911311D01*
X186712209Y-127042414D01*
X186712202Y-127042427D01*
X186651864Y-127188098D01*
X186651861Y-127188110D01*
X186621100Y-127342753D01*
X183428389Y-127342753D01*
X183438620Y-127304573D01*
X183501500Y-127069897D01*
X183501503Y-127069884D01*
X183539998Y-126777483D01*
X183540000Y-126777466D01*
X183540000Y-126482533D01*
X183539998Y-126482516D01*
X183501503Y-126190115D01*
X183501500Y-126190102D01*
X183425164Y-125905209D01*
X183425161Y-125905199D01*
X183312295Y-125632718D01*
X183312290Y-125632707D01*
X183164825Y-125377292D01*
X183164819Y-125377284D01*
X183048221Y-125225331D01*
X182365895Y-125907657D01*
X182277770Y-125786364D01*
X182133636Y-125642230D01*
X182012341Y-125554104D01*
X182560492Y-125005953D01*
X186651500Y-125005953D01*
X186651500Y-125163646D01*
X186682261Y-125318289D01*
X186682264Y-125318301D01*
X186742602Y-125463972D01*
X186742609Y-125463985D01*
X186830210Y-125595088D01*
X186830213Y-125595092D01*
X186941707Y-125706586D01*
X186941711Y-125706589D01*
X187072814Y-125794190D01*
X187072827Y-125794197D01*
X187218498Y-125854535D01*
X187218503Y-125854537D01*
X187373153Y-125885299D01*
X187373156Y-125885300D01*
X187373158Y-125885300D01*
X187530844Y-125885300D01*
X187530845Y-125885299D01*
X187685497Y-125854537D01*
X187831179Y-125794194D01*
X187962289Y-125706589D01*
X188073789Y-125595089D01*
X188161394Y-125463979D01*
X188221737Y-125318297D01*
X188252500Y-125163642D01*
X188252500Y-125005958D01*
X188252500Y-125005955D01*
X188252499Y-125005953D01*
X188238257Y-124934354D01*
X188221737Y-124851303D01*
X188181922Y-124755180D01*
X188161397Y-124705627D01*
X188161390Y-124705614D01*
X188073789Y-124574511D01*
X188073786Y-124574507D01*
X187962292Y-124463013D01*
X187962288Y-124463010D01*
X187831185Y-124375409D01*
X187831172Y-124375402D01*
X187685501Y-124315064D01*
X187685489Y-124315061D01*
X187530845Y-124284300D01*
X187530842Y-124284300D01*
X187373158Y-124284300D01*
X187373155Y-124284300D01*
X187218510Y-124315061D01*
X187218498Y-124315064D01*
X187072827Y-124375402D01*
X187072814Y-124375409D01*
X186941711Y-124463010D01*
X186941707Y-124463013D01*
X186830213Y-124574507D01*
X186830210Y-124574511D01*
X186742609Y-124705614D01*
X186742602Y-124705627D01*
X186682264Y-124851298D01*
X186682261Y-124851310D01*
X186651500Y-125005953D01*
X182560492Y-125005953D01*
X182654260Y-124912185D01*
X182694667Y-124871777D01*
X182542715Y-124755180D01*
X182542707Y-124755174D01*
X182287292Y-124607709D01*
X182287281Y-124607704D01*
X182014800Y-124494838D01*
X182014790Y-124494835D01*
X181729897Y-124418499D01*
X181729884Y-124418496D01*
X181437483Y-124380001D01*
X181437466Y-124380000D01*
X181142534Y-124380000D01*
X181142516Y-124380001D01*
X180850115Y-124418496D01*
X180850102Y-124418499D01*
X180565209Y-124494835D01*
X180565199Y-124494838D01*
X180292718Y-124607704D01*
X180292707Y-124607709D01*
X180037292Y-124755174D01*
X180037276Y-124755185D01*
X179885331Y-124871775D01*
X179885331Y-124871777D01*
X180567658Y-125554104D01*
X180446364Y-125642230D01*
X180302230Y-125786364D01*
X180214104Y-125907658D01*
X179531777Y-125225331D01*
X179531775Y-125225331D01*
X179415185Y-125377276D01*
X179415174Y-125377292D01*
X179267709Y-125632707D01*
X179267704Y-125632718D01*
X179154838Y-125905199D01*
X179154835Y-125905209D01*
X179078499Y-126190102D01*
X179078496Y-126190115D01*
X179040001Y-126482516D01*
X179040000Y-126482533D01*
X178460000Y-126482533D01*
X178459998Y-126482516D01*
X178421503Y-126190115D01*
X178421500Y-126190102D01*
X178345164Y-125905209D01*
X178345161Y-125905199D01*
X178232295Y-125632718D01*
X178232290Y-125632707D01*
X178084825Y-125377292D01*
X178084819Y-125377284D01*
X177968221Y-125225331D01*
X177285895Y-125907657D01*
X177197770Y-125786364D01*
X177053636Y-125642230D01*
X176932341Y-125554104D01*
X177614667Y-124871777D01*
X177462715Y-124755180D01*
X177462707Y-124755174D01*
X177207292Y-124607709D01*
X177207281Y-124607704D01*
X176934800Y-124494838D01*
X176934790Y-124494835D01*
X176649897Y-124418499D01*
X176649884Y-124418496D01*
X176357483Y-124380001D01*
X176357466Y-124380000D01*
X176062534Y-124380000D01*
X176062516Y-124380001D01*
X175770115Y-124418496D01*
X175770102Y-124418499D01*
X175485209Y-124494835D01*
X175485199Y-124494838D01*
X175212718Y-124607704D01*
X175212707Y-124607709D01*
X174957292Y-124755174D01*
X174957276Y-124755185D01*
X174805331Y-124871775D01*
X174805331Y-124871777D01*
X175487658Y-125554104D01*
X175366364Y-125642230D01*
X175222230Y-125786364D01*
X175134104Y-125907658D01*
X174451777Y-125225331D01*
X174451775Y-125225331D01*
X174335185Y-125377276D01*
X174335174Y-125377292D01*
X174287676Y-125459562D01*
X174237109Y-125507778D01*
X174168502Y-125521000D01*
X174103637Y-125495032D01*
X174072902Y-125459562D01*
X174025238Y-125377006D01*
X173845647Y-125142959D01*
X173845641Y-125142952D01*
X173637047Y-124934358D01*
X173637040Y-124934352D01*
X173402993Y-124754761D01*
X173147510Y-124607258D01*
X173147500Y-124607254D01*
X172874961Y-124494364D01*
X172874954Y-124494362D01*
X172874952Y-124494361D01*
X172589993Y-124418007D01*
X172541113Y-124411571D01*
X172297513Y-124379500D01*
X172297506Y-124379500D01*
X172002494Y-124379500D01*
X172002486Y-124379500D01*
X171724085Y-124416153D01*
X171710007Y-124418007D01*
X171542049Y-124463011D01*
X171425048Y-124494361D01*
X171425038Y-124494364D01*
X171152499Y-124607254D01*
X171152489Y-124607258D01*
X170897006Y-124754761D01*
X170662959Y-124934352D01*
X170662952Y-124934358D01*
X170454358Y-125142952D01*
X170349287Y-125279884D01*
X170306995Y-125335000D01*
X170292272Y-125354187D01*
X170235844Y-125395389D01*
X170193896Y-125402700D01*
X169026104Y-125402700D01*
X168959065Y-125383015D01*
X168927728Y-125354187D01*
X168914622Y-125337107D01*
X168765646Y-125142958D01*
X168765644Y-125142956D01*
X168765641Y-125142952D01*
X168557047Y-124934358D01*
X168557040Y-124934352D01*
X168322993Y-124754761D01*
X168067510Y-124607258D01*
X168067500Y-124607254D01*
X167794961Y-124494364D01*
X167794954Y-124494362D01*
X167794952Y-124494361D01*
X167509993Y-124418007D01*
X167461113Y-124411571D01*
X167217513Y-124379500D01*
X167217506Y-124379500D01*
X166922494Y-124379500D01*
X166922486Y-124379500D01*
X166644085Y-124416153D01*
X166630007Y-124418007D01*
X166462049Y-124463011D01*
X166345048Y-124494361D01*
X166345038Y-124494364D01*
X166072499Y-124607254D01*
X166072489Y-124607258D01*
X165817006Y-124754761D01*
X165582959Y-124934352D01*
X165582952Y-124934358D01*
X165374358Y-125142952D01*
X165269287Y-125279884D01*
X165226995Y-125335000D01*
X165212272Y-125354187D01*
X165155844Y-125395389D01*
X165113896Y-125402700D01*
X163729666Y-125402700D01*
X163729660Y-125402700D01*
X163729655Y-125402701D01*
X163528628Y-125429166D01*
X163528628Y-125429167D01*
X163524615Y-125429695D01*
X163502163Y-125432651D01*
X163367366Y-125468769D01*
X163367366Y-125468770D01*
X163280513Y-125492042D01*
X163280511Y-125492042D01*
X163280510Y-125492043D01*
X163068523Y-125579850D01*
X163068508Y-125579857D01*
X162869788Y-125694588D01*
X162739981Y-125794192D01*
X162739982Y-125794193D01*
X162687731Y-125834287D01*
X161537546Y-126984472D01*
X161476223Y-127017957D01*
X161406531Y-127012973D01*
X161350598Y-126971101D01*
X161326181Y-126905637D01*
X161325922Y-126900544D01*
X161242907Y-124126693D01*
X161260578Y-124059099D01*
X161311989Y-124011785D01*
X161363093Y-123999045D01*
X164592000Y-123901200D01*
X189999030Y-122284976D01*
X190067182Y-122300365D01*
X190116197Y-122350158D01*
X190130900Y-122408726D01*
X190130900Y-122800503D01*
X190111215Y-122867542D01*
X190058411Y-122913297D01*
X190054354Y-122915064D01*
X189952494Y-122957256D01*
X189952489Y-122957258D01*
X189697006Y-123104761D01*
X189462959Y-123284352D01*
X189462952Y-123284358D01*
X189254358Y-123492952D01*
X189254352Y-123492959D01*
X189074761Y-123727006D01*
X188927258Y-123982489D01*
X188927254Y-123982499D01*
X188814364Y-124255038D01*
X188814361Y-124255048D01*
X188780881Y-124380000D01*
X188738008Y-124540004D01*
X188738006Y-124540015D01*
X188699500Y-124832486D01*
X188699500Y-125127513D01*
X188724842Y-125319995D01*
X188738007Y-125419993D01*
X188814361Y-125704951D01*
X188814364Y-125704961D01*
X188927254Y-125977500D01*
X188927258Y-125977510D01*
X189074761Y-126232993D01*
X189254352Y-126467040D01*
X189254358Y-126467047D01*
X189462952Y-126675641D01*
X189462959Y-126675647D01*
X189697006Y-126855238D01*
X189779562Y-126902902D01*
X189827778Y-126953469D01*
X189841001Y-127022076D01*
X189815033Y-127086941D01*
X189779562Y-127117676D01*
X189697292Y-127165174D01*
X189697276Y-127165185D01*
X189545331Y-127281775D01*
X189545331Y-127281777D01*
X190227658Y-127964104D01*
X190106364Y-128052230D01*
X189962230Y-128196364D01*
X189874104Y-128317658D01*
X189191777Y-127635331D01*
X189191775Y-127635331D01*
X189075185Y-127787276D01*
X189075174Y-127787292D01*
X188927709Y-128042707D01*
X188927709Y-128042708D01*
X188814838Y-128315199D01*
X188814835Y-128315209D01*
X188738499Y-128600102D01*
X188738496Y-128600115D01*
X188700001Y-128892516D01*
X188700000Y-128892533D01*
X188700000Y-129187466D01*
X188700001Y-129187483D01*
X188738496Y-129479884D01*
X188738499Y-129479897D01*
X188814835Y-129764790D01*
X188814838Y-129764800D01*
X188927704Y-130037281D01*
X188927709Y-130037292D01*
X189075174Y-130292707D01*
X189075180Y-130292715D01*
X189191777Y-130444667D01*
X189874103Y-129762340D01*
X189962230Y-129883636D01*
X190106364Y-130027770D01*
X190227657Y-130115895D01*
X189545331Y-130798221D01*
X189697284Y-130914819D01*
X189697292Y-130914825D01*
X189952707Y-131062290D01*
X189952718Y-131062295D01*
X190225199Y-131175161D01*
X190225209Y-131175164D01*
X190510102Y-131251500D01*
X190510115Y-131251503D01*
X190802516Y-131289998D01*
X190802534Y-131290000D01*
X191097466Y-131290000D01*
X191097483Y-131289998D01*
X191389884Y-131251503D01*
X191389897Y-131251500D01*
X191674790Y-131175164D01*
X191674800Y-131175161D01*
X191947281Y-131062295D01*
X191947292Y-131062290D01*
X192202707Y-130914825D01*
X192202725Y-130914813D01*
X192354667Y-130798222D01*
X192354667Y-130798220D01*
X191672342Y-130115895D01*
X191793636Y-130027770D01*
X191937770Y-129883636D01*
X192025895Y-129762342D01*
X192708220Y-130444667D01*
X192708222Y-130444667D01*
X192824813Y-130292725D01*
X192824825Y-130292707D01*
X192972290Y-130037292D01*
X192972295Y-130037281D01*
X193065409Y-129812486D01*
X194219500Y-129812486D01*
X194219500Y-130107513D01*
X194243882Y-130292707D01*
X194258007Y-130399993D01*
X194334361Y-130684951D01*
X194334364Y-130684961D01*
X194447254Y-130957500D01*
X194447258Y-130957510D01*
X194594761Y-131212993D01*
X194774352Y-131447040D01*
X194774358Y-131447047D01*
X194982952Y-131655641D01*
X194982959Y-131655647D01*
X195217006Y-131835238D01*
X195299562Y-131882902D01*
X195347778Y-131933469D01*
X195361001Y-132002076D01*
X195335033Y-132066941D01*
X195299562Y-132097676D01*
X195217292Y-132145174D01*
X195217276Y-132145185D01*
X195065331Y-132261775D01*
X195065331Y-132261777D01*
X195747658Y-132944104D01*
X195626364Y-133032230D01*
X195482230Y-133176364D01*
X195394104Y-133297658D01*
X194711777Y-132615331D01*
X194711775Y-132615331D01*
X194595185Y-132767276D01*
X194595174Y-132767292D01*
X194447709Y-133022707D01*
X194447704Y-133022718D01*
X194334838Y-133295199D01*
X194334835Y-133295209D01*
X194258499Y-133580102D01*
X194258496Y-133580115D01*
X194220001Y-133872516D01*
X194220000Y-133872533D01*
X194220000Y-134167466D01*
X194220001Y-134167483D01*
X194258496Y-134459884D01*
X194258499Y-134459897D01*
X194334835Y-134744790D01*
X194334838Y-134744800D01*
X194447704Y-135017281D01*
X194447709Y-135017292D01*
X194595174Y-135272707D01*
X194595180Y-135272715D01*
X194711777Y-135424667D01*
X195394103Y-134742340D01*
X195482230Y-134863636D01*
X195626364Y-135007770D01*
X195747657Y-135095895D01*
X195065331Y-135778221D01*
X195217284Y-135894819D01*
X195217292Y-135894825D01*
X195472707Y-136042290D01*
X195472718Y-136042295D01*
X195745199Y-136155161D01*
X195745209Y-136155164D01*
X196030102Y-136231500D01*
X196030115Y-136231503D01*
X196322516Y-136269998D01*
X196322534Y-136270000D01*
X196617466Y-136270000D01*
X196617483Y-136269998D01*
X196909884Y-136231503D01*
X196909897Y-136231500D01*
X197194790Y-136155164D01*
X197194800Y-136155161D01*
X197467281Y-136042295D01*
X197467292Y-136042290D01*
X197722707Y-135894825D01*
X197722725Y-135894813D01*
X197874667Y-135778222D01*
X197874667Y-135778220D01*
X197192342Y-135095895D01*
X197313636Y-135007770D01*
X197457770Y-134863636D01*
X197545895Y-134742342D01*
X198228220Y-135424667D01*
X198228222Y-135424667D01*
X198344813Y-135272725D01*
X198344825Y-135272707D01*
X198492290Y-135017292D01*
X198492295Y-135017281D01*
X198605161Y-134744800D01*
X198605164Y-134744790D01*
X198681500Y-134459897D01*
X198681503Y-134459884D01*
X198719998Y-134167483D01*
X198720000Y-134167466D01*
X198720000Y-133872533D01*
X198719998Y-133872516D01*
X198681503Y-133580115D01*
X198681500Y-133580102D01*
X198605164Y-133295209D01*
X198605161Y-133295199D01*
X198492295Y-133022718D01*
X198492290Y-133022707D01*
X198344825Y-132767292D01*
X198344819Y-132767284D01*
X198228221Y-132615331D01*
X197545895Y-133297657D01*
X197457770Y-133176364D01*
X197313636Y-133032230D01*
X197192341Y-132944104D01*
X197874667Y-132261777D01*
X197722715Y-132145180D01*
X197722708Y-132145175D01*
X197640437Y-132097676D01*
X197592221Y-132047109D01*
X197578998Y-131978502D01*
X197604966Y-131913637D01*
X197640436Y-131882902D01*
X197722994Y-131835238D01*
X197957042Y-131655646D01*
X198165646Y-131447042D01*
X198345238Y-131212994D01*
X198492743Y-130957507D01*
X198605639Y-130684952D01*
X198681993Y-130399993D01*
X198720500Y-130107506D01*
X198720500Y-129812494D01*
X198714220Y-129764795D01*
X198694730Y-129616754D01*
X198681993Y-129520007D01*
X198605639Y-129235048D01*
X198492743Y-128962493D01*
X198484034Y-128947409D01*
X198345238Y-128707006D01*
X198165647Y-128472959D01*
X198165641Y-128472952D01*
X197957047Y-128264358D01*
X197957040Y-128264352D01*
X197722993Y-128084761D01*
X197467510Y-127937258D01*
X197467500Y-127937254D01*
X197194961Y-127824364D01*
X197194954Y-127824362D01*
X197194952Y-127824361D01*
X196909993Y-127748007D01*
X196861113Y-127741571D01*
X196617513Y-127709500D01*
X196617506Y-127709500D01*
X196322494Y-127709500D01*
X196322486Y-127709500D01*
X196052847Y-127745000D01*
X196030007Y-127748007D01*
X195745048Y-127824361D01*
X195745038Y-127824364D01*
X195472499Y-127937254D01*
X195472489Y-127937258D01*
X195217006Y-128084761D01*
X194982959Y-128264352D01*
X194982952Y-128264358D01*
X194774358Y-128472952D01*
X194774352Y-128472959D01*
X194594761Y-128707006D01*
X194447258Y-128962489D01*
X194447254Y-128962499D01*
X194334364Y-129235038D01*
X194334361Y-129235048D01*
X194267606Y-129484185D01*
X194258008Y-129520004D01*
X194258006Y-129520015D01*
X194219500Y-129812486D01*
X193065409Y-129812486D01*
X193085163Y-129764795D01*
X193161500Y-129479897D01*
X193161503Y-129479884D01*
X193199998Y-129187483D01*
X193200000Y-129187466D01*
X193200000Y-128892533D01*
X193199998Y-128892516D01*
X193161503Y-128600115D01*
X193161500Y-128600102D01*
X193085164Y-128315209D01*
X193085161Y-128315199D01*
X192972291Y-128042708D01*
X192972290Y-128042707D01*
X192824825Y-127787292D01*
X192824819Y-127787284D01*
X192708221Y-127635331D01*
X192025895Y-128317657D01*
X191937770Y-128196364D01*
X191793636Y-128052230D01*
X191672341Y-127964104D01*
X192354667Y-127281777D01*
X192202715Y-127165180D01*
X192202708Y-127165175D01*
X192120437Y-127117676D01*
X192072221Y-127067109D01*
X192058998Y-126998502D01*
X192084966Y-126933637D01*
X192120436Y-126902902D01*
X192202994Y-126855238D01*
X192437042Y-126675646D01*
X192645646Y-126467042D01*
X192825238Y-126232994D01*
X192972743Y-125977507D01*
X193085639Y-125704952D01*
X193161993Y-125419993D01*
X193200500Y-125127506D01*
X193200500Y-124832494D01*
X193187334Y-124732486D01*
X194219500Y-124732486D01*
X194219500Y-125027513D01*
X194237423Y-125163644D01*
X194258007Y-125319993D01*
X194331719Y-125595092D01*
X194334361Y-125604951D01*
X194334364Y-125604961D01*
X194447254Y-125877500D01*
X194447258Y-125877510D01*
X194594761Y-126132993D01*
X194774352Y-126367040D01*
X194774358Y-126367047D01*
X194982952Y-126575641D01*
X194982959Y-126575647D01*
X195217006Y-126755238D01*
X195472489Y-126902741D01*
X195472490Y-126902741D01*
X195472493Y-126902743D01*
X195647333Y-126975164D01*
X195738611Y-127012973D01*
X195745048Y-127015639D01*
X196030007Y-127091993D01*
X196322494Y-127130500D01*
X196322501Y-127130500D01*
X196617499Y-127130500D01*
X196617506Y-127130500D01*
X196909993Y-127091993D01*
X197194952Y-127015639D01*
X197467507Y-126902743D01*
X197722994Y-126755238D01*
X197957042Y-126575646D01*
X198004607Y-126528081D01*
X198070101Y-126462588D01*
X198165641Y-126367047D01*
X198165646Y-126367042D01*
X198345238Y-126132994D01*
X198492743Y-125877507D01*
X198605639Y-125604952D01*
X198681993Y-125319993D01*
X198720500Y-125027506D01*
X198720500Y-124732494D01*
X198681993Y-124440007D01*
X198605639Y-124155048D01*
X198492743Y-123882493D01*
X198345238Y-123627006D01*
X198242379Y-123492958D01*
X198165647Y-123392959D01*
X198165641Y-123392952D01*
X197957047Y-123184358D01*
X197957040Y-123184352D01*
X197722993Y-123004761D01*
X197467510Y-122857258D01*
X197467500Y-122857254D01*
X197194961Y-122744364D01*
X197194954Y-122744362D01*
X197194952Y-122744361D01*
X196909993Y-122668007D01*
X196861113Y-122661571D01*
X196617513Y-122629500D01*
X196617506Y-122629500D01*
X196322494Y-122629500D01*
X196322486Y-122629500D01*
X196044085Y-122666153D01*
X196030007Y-122668007D01*
X195892562Y-122704835D01*
X195745048Y-122744361D01*
X195745038Y-122744364D01*
X195472499Y-122857254D01*
X195472489Y-122857258D01*
X195217006Y-123004761D01*
X194982959Y-123184352D01*
X194982952Y-123184358D01*
X194774358Y-123392952D01*
X194774352Y-123392959D01*
X194594761Y-123627006D01*
X194447258Y-123882489D01*
X194447254Y-123882499D01*
X194334364Y-124155038D01*
X194334361Y-124155048D01*
X194268700Y-124400102D01*
X194258008Y-124440004D01*
X194258006Y-124440015D01*
X194219500Y-124732486D01*
X193187334Y-124732486D01*
X193161993Y-124540007D01*
X193085639Y-124255048D01*
X192972743Y-123982493D01*
X192892042Y-123842715D01*
X192825238Y-123727006D01*
X192645647Y-123492959D01*
X192645641Y-123492952D01*
X192437047Y-123284358D01*
X192437040Y-123284352D01*
X192202993Y-123104761D01*
X191947510Y-122957258D01*
X191947500Y-122957253D01*
X191758447Y-122878944D01*
X191704043Y-122835102D01*
X191681979Y-122768808D01*
X191681900Y-122764383D01*
X191681900Y-122294285D01*
X191701585Y-122227246D01*
X191754389Y-122181491D01*
X191798019Y-122170537D01*
X204398164Y-121369001D01*
X204466317Y-121384390D01*
G37*
%TD.AperFunction*%
%TD*%
M02*
