M48
; DRILL file {KiCad 9.0.7} date 2026-04-05T23:28:36-0700
; FORMAT={-:-/ absolute / metric / decimal}
; #@! TF.CreationDate,2026-04-05T23:28:36-07:00
; #@! TF.GenerationSoftware,Kicad,Pcbnew,9.0.7
; #@! TF.FileFunction,Plated,1,4,PTH
FMAT,2
METRIC
; #@! TA.AperFunction,Plated,PTH,ViaDrill
T1C0.300
; #@! TA.AperFunction,Plated,PTH,ComponentDrill
T2C0.800
; #@! TA.AperFunction,Plated,PTH,ComponentDrill
T3C0.900
; #@! TA.AperFunction,Plated,PTH,ComponentDrill
T4C0.920
; #@! TA.AperFunction,Plated,PTH,ComponentDrill
T5C1.000
; #@! TA.AperFunction,Plated,PTH,ComponentDrill
T6C1.092
; #@! TA.AperFunction,Plated,PTH,ComponentDrill
T7C1.100
; #@! TA.AperFunction,Plated,PTH,ComponentDrill
T8C1.200
; #@! TA.AperFunction,Plated,PTH,ComponentDrill
T9C1.220
; #@! TA.AperFunction,Plated,PTH,ComponentDrill
T10C1.400
; #@! TA.AperFunction,Plated,PTH,ComponentDrill
T11C1.448
; #@! TA.AperFunction,Plated,PTH,ComponentDrill
T12C1.770
; #@! TA.AperFunction,Plated,PTH,ComponentDrill
T13C2.300
; #@! TA.AperFunction,Plated,PTH,ComponentDrill
T14C2.590
%
G90
G05
T1
X69.502Y-132.08
X69.502Y-140.614
X69.553Y-127.914
X69.604Y-136.296
X75.248Y-75.045
X75.248Y-79.934
X76.06Y-82.092
X76.06Y-83.642
X78.042Y-79.883
X79.972Y-100.762
X80.988Y-64.159
X81.415Y-72.565
X81.598Y-92.036
X81.929Y-86.182
X85.763Y-84.607
X87.643Y-84.558
X87.643Y-86.208
X88.506Y-100.735
X89.522Y-64.135
X89.949Y-72.603
X90.132Y-91.884
X90.284Y-76.225
X91.504Y-77.597
X96.025Y-91.695
X97.18Y-61.087
X97.701Y-77.089
X97.701Y-91.567
X102.68Y-74.905
X102.819Y-115.211
X103.284Y-146.761
X103.386Y-134.163
X103.386Y-142.494
X103.487Y-138.43
X103.645Y-92.786
X104.864Y-103.353
X106.914Y-103.353
X109.03Y-95.58
X109.792Y-100.508
X110.223Y-62.103
X110.3Y-95.58
X111.173Y-96.291
X111.307Y-103.556
X112.027Y-74.143
X112.23Y-70.282
X113.357Y-103.556
X115.888Y-98.73
X117.45Y-98.755
X117.45Y-95.123
X117.704Y-92.964
X119.754Y-93.015
X120.004Y-73.727
X123.495Y-116.637
X125.958Y-82.951
X126.797Y-101.194
X127.559Y-101.295
X132.066Y-80.188
X132.588Y-142.458
X134.772Y-142.377
X135.457Y-112.295
X135.788Y-109.423
X138.328Y-95.047
X138.938Y-99.416
X139.43Y-131.64
X139.55Y-145.2
X141.224Y-88.396
X141.224Y-91.952
X141.73Y-145.29
X141.74Y-131.7
X146.507Y-145.186
X147.54Y-131.32
X147.555Y-88.798
X147.555Y-91.389
X148.133Y-145.193
X149.53Y-131.31
X149.809Y-145.136
X150.571Y-107.798
X151.2Y-131.32
X152.806Y-82.245
X153.01Y-143.444
X153.772Y-147.472
X155.042Y-143.424
X155.6Y-89.103
X161.392Y-146.964
X165.284Y-137.53
X165.284Y-138.46
X165.46Y-139.76
X166.421Y-98.349
X167.418Y-134.62
X170.364Y-139.243
X170.485Y-137.516
X170.586Y-141.173
X171.196Y-134.62
X171.9Y-114.4
X175.108Y-86.258
X177.038Y-82.22
X177.698Y-92.761
X180.442Y-87.528
X184.252Y-101.6
X184.404Y-94.996
X187.179Y-138.989
X187.23Y-135.788
X187.23Y-137.617
X187.371Y-129.657
X187.422Y-127.422
X187.452Y-125.085
X195.021Y-89.357
X195.817Y-94.694
X197.002Y-85.258
X199.653Y-83.874
X199.949Y-91.135
X203.911Y-64.567
X204.927Y-63.652
X204.978Y-64.567
X204.978Y-65.583
X205.842Y-80.012
X205.892Y-64.668
X208.686Y-79.908
X212.698Y-124.562
X214.782Y-124.663
X215.087Y-108.996
X215.087Y-112.451
X215.189Y-103.175
T2
X81.75Y-97.46
X82.766Y-60.833
X83.04Y-69.215
X83.325Y-88.633
X84.29Y-100.0
X85.306Y-63.373
X85.58Y-71.755
X85.865Y-91.173
X86.83Y-97.46
X87.846Y-60.833
X88.12Y-69.215
X88.405Y-88.633
X93.485Y-62.255
X93.485Y-64.795
X93.485Y-67.335
X93.485Y-69.875
X93.84Y-77.394
X93.84Y-79.934
X93.84Y-82.474
X93.84Y-85.014
X93.942Y-92.583
X93.942Y-95.123
X93.942Y-97.663
X93.942Y-100.203
X101.105Y-62.255
X101.105Y-64.795
X101.105Y-67.335
X101.105Y-69.875
X101.46Y-77.394
X101.46Y-79.934
X101.46Y-82.474
X101.46Y-85.014
X101.562Y-92.583
X101.562Y-95.123
X101.562Y-97.663
X101.562Y-100.203
X105.778Y-84.912
X105.778Y-87.452
X105.778Y-89.992
X105.778Y-92.532
X105.778Y-95.072
X105.778Y-97.612
X105.778Y-100.152
X106.337Y-62.154
X106.337Y-64.694
X106.337Y-67.234
X106.337Y-69.774
X106.337Y-72.314
X106.337Y-74.854
X106.337Y-77.394
X113.398Y-84.912
X113.398Y-87.452
X113.398Y-89.992
X113.398Y-92.532
X113.398Y-95.072
X113.398Y-97.612
X113.398Y-100.152
X113.957Y-62.154
X113.957Y-64.694
X113.957Y-67.234
X113.957Y-69.774
X113.957Y-72.314
X113.957Y-74.854
X113.957Y-77.394
X122.58Y-83.058
X122.58Y-85.598
X122.58Y-88.138
X122.58Y-90.678
X122.58Y-93.218
X122.58Y-95.758
X122.58Y-98.298
X130.2Y-83.058
X130.2Y-85.598
X130.2Y-88.138
X130.2Y-90.678
X130.2Y-93.218
X130.2Y-95.758
X130.2Y-98.298
X209.704Y-106.136
X209.704Y-108.676
X209.704Y-111.216
X209.704Y-113.756
X217.324Y-106.136
X217.324Y-108.676
X217.324Y-111.216
X217.324Y-113.756
T3
X160.325Y-92.405
X162.865Y-92.405
X183.642Y-90.018
X186.182Y-90.018
X203.855Y-93.472
X206.395Y-93.472
X211.125Y-96.52
X213.665Y-96.52
T4
X189.82Y-150.78
X189.82Y-153.28
X189.82Y-155.28
X189.82Y-157.78
T5
X129.531Y-109.559
X129.531Y-112.099
X129.531Y-114.639
X129.531Y-117.179
T6
X144.577Y-78.282
X144.577Y-88.442
X144.577Y-96.062
X152.197Y-78.282
X152.197Y-88.442
X152.197Y-96.062
X169.443Y-78.489
X169.443Y-88.648
X169.443Y-96.268
X177.063Y-78.489
X177.063Y-88.648
X177.063Y-96.268
X191.821Y-78.74
X191.821Y-88.9
X191.821Y-96.52
X199.441Y-78.74
X199.441Y-88.9
X199.441Y-96.52
T7
X69.777Y-78.156
X69.777Y-80.696
X69.777Y-83.236
X157.997Y-80.978
X157.997Y-85.478
X164.497Y-80.978
X164.497Y-85.478
X181.09Y-79.68
X181.09Y-84.18
X187.59Y-79.68
X187.59Y-84.18
X192.43Y-70.206
X192.43Y-74.706
X198.93Y-70.206
X198.93Y-74.706
T8
X96.723Y-109.677
X96.723Y-112.217
X96.723Y-114.757
X119.72Y-123.2
X119.72Y-128.2
X121.628Y-78.417
X124.168Y-78.417
X126.708Y-78.417
X135.585Y-103.523
X138.125Y-103.523
X140.665Y-103.523
X148.031Y-103.066
X150.571Y-103.066
X153.111Y-103.066
X160.477Y-103.515
X163.017Y-103.515
X165.557Y-103.515
X205.892Y-86.463
X208.432Y-86.463
X210.972Y-86.463
X213.512Y-118.966
X216.052Y-118.966
X218.592Y-118.966
T9
X130.405Y-135.888
X130.405Y-139.698
X130.405Y-143.508
X130.405Y-147.318
X130.405Y-151.128
X158.345Y-139.698
X158.345Y-143.508
X158.345Y-147.318
T10
X69.445Y-65.972
X69.445Y-70.172
X69.734Y-111.997
X70.866Y-149.809
X74.945Y-65.972
X74.945Y-70.172
X75.234Y-111.997
X76.366Y-149.809
X109.51Y-124.47
X109.51Y-129.97
X114.95Y-151.0
X120.45Y-151.0
X144.19Y-66.66
X144.19Y-72.16
X155.61Y-66.05
X155.61Y-71.55
X175.4Y-116.33
X175.4Y-120.53
X177.8Y-153.808
X177.8Y-159.308
X178.664Y-67.616
X178.664Y-73.116
X180.9Y-116.33
X180.9Y-120.53
X182.864Y-67.616
X182.864Y-73.116
X204.318Y-144.831
X204.318Y-150.331
X211.176Y-156.718
X211.548Y-143.459
X211.548Y-148.959
X215.748Y-143.459
X215.748Y-148.959
X216.676Y-156.718
T11
X69.21Y-121.62
X69.21Y-125.82
X69.21Y-130.02
X69.21Y-134.22
X69.21Y-138.42
X69.21Y-142.62
X74.71Y-121.62
X74.71Y-125.82
X74.71Y-130.02
X74.71Y-134.22
X74.71Y-138.42
X74.71Y-142.62
X84.5Y-115.296
X84.5Y-119.496
X84.5Y-123.696
X84.5Y-127.896
X84.5Y-132.096
X84.5Y-136.296
X84.5Y-140.496
X84.5Y-144.696
X84.5Y-148.896
X84.5Y-153.096
X90.0Y-115.296
X90.0Y-119.496
X90.0Y-123.696
X90.0Y-127.896
X90.0Y-132.096
X90.0Y-136.296
X90.0Y-140.496
X90.0Y-144.696
X90.0Y-148.896
X90.0Y-153.096
X97.2Y-127.8
X97.2Y-132.0
X97.2Y-136.2
X97.2Y-140.4
X97.2Y-144.6
X97.2Y-148.8
X97.2Y-153.0
X102.7Y-127.8
X102.7Y-132.0
X102.7Y-136.2
X102.7Y-140.4
X102.7Y-144.6
X102.7Y-148.8
X102.7Y-153.0
X165.284Y-132.232
X167.824Y-132.232
X170.364Y-132.232
X173.972Y-102.87
X173.972Y-108.37
X178.172Y-102.87
X178.172Y-108.37
X182.372Y-102.87
X182.372Y-108.37
X183.064Y-132.232
X185.604Y-132.232
X186.572Y-102.87
X186.572Y-108.37
X190.772Y-102.87
X190.772Y-108.37
X194.972Y-102.87
X194.972Y-108.37
T12
X158.345Y-132.078
X158.345Y-135.888
X158.345Y-151.128
X158.345Y-154.938
T13
X192.53Y-147.71
X192.53Y-160.85
T14
X109.49Y-157.03
X109.69Y-136.37
X109.82Y-145.51
X114.57Y-157.03
X114.77Y-136.37
X114.9Y-145.51
X118.63Y-157.03
X118.83Y-136.37
X118.96Y-145.51
X123.71Y-157.03
X123.91Y-136.37
X124.04Y-145.51
X165.557Y-146.003
X165.557Y-151.083
X165.557Y-155.143
X165.557Y-160.223
X167.07Y-126.63
X171.5Y-145.77
X171.5Y-150.85
X171.5Y-154.91
X171.5Y-159.99
X172.15Y-126.63
X176.21Y-126.63
X181.29Y-126.63
X183.62Y-145.72
X183.62Y-150.8
X183.62Y-154.86
X183.62Y-159.94
X190.95Y-119.9
X190.95Y-124.98
X190.95Y-129.04
X190.95Y-134.12
X196.47Y-124.88
X196.47Y-129.96
X196.47Y-134.02
X196.47Y-139.1
X198.07Y-146.47
X198.07Y-151.55
X198.07Y-155.61
X198.07Y-160.69
X202.43Y-124.84
X202.43Y-129.92
X202.43Y-133.98
X202.43Y-139.06
X207.71Y-122.16
X207.71Y-127.24
X207.71Y-131.3
X207.71Y-136.38
M30
