%TF.GenerationSoftware,KiCad,Pcbnew,8.0.4*%
%TF.CreationDate,2025-05-16T23:00:12-07:00*%
%TF.ProjectId,pcc_v0.1,7063635f-7630-42e3-912e-6b696361645f,rev?*%
%TF.SameCoordinates,Original*%
%TF.FileFunction,Copper,L2,Bot*%
%TF.FilePolarity,Positive*%
%FSLAX46Y46*%
G04 Gerber Fmt 4.6, Leading zero omitted, Abs format (unit mm)*
G04 Created by KiCad (PCBNEW 8.0.4) date 2025-05-16 23:00:12*
%MOMM*%
%LPD*%
G01*
G04 APERTURE LIST*
G04 Aperture macros list*
%AMRoundRect*
0 Rectangle with rounded corners*
0 $1 Rounding radius*
0 $2 $3 $4 $5 $6 $7 $8 $9 X,Y pos of 4 corners*
0 Add a 4 corners polygon primitive as box body*
4,1,4,$2,$3,$4,$5,$6,$7,$8,$9,$2,$3,0*
0 Add four circle primitives for the rounded corners*
1,1,$1+$1,$2,$3*
1,1,$1+$1,$4,$5*
1,1,$1+$1,$6,$7*
1,1,$1+$1,$8,$9*
0 Add four rect primitives between the rounded corners*
20,1,$1+$1,$2,$3,$4,$5,0*
20,1,$1+$1,$4,$5,$6,$7,0*
20,1,$1+$1,$6,$7,$8,$9,0*
20,1,$1+$1,$8,$9,$2,$3,0*%
G04 Aperture macros list end*
%TA.AperFunction,ComponentPad*%
%ADD10R,3.200000X3.200000*%
%TD*%
%TA.AperFunction,ComponentPad*%
%ADD11O,3.200000X3.200000*%
%TD*%
%TA.AperFunction,ComponentPad*%
%ADD12C,1.524000*%
%TD*%
%TA.AperFunction,ComponentPad*%
%ADD13C,1.727200*%
%TD*%
%TA.AperFunction,ComponentPad*%
%ADD14C,2.500000*%
%TD*%
%TA.AperFunction,ComponentPad*%
%ADD15RoundRect,0.250001X-1.399999X1.099999X-1.399999X-1.099999X1.399999X-1.099999X1.399999X1.099999X0*%
%TD*%
%TA.AperFunction,ComponentPad*%
%ADD16O,3.300000X2.700000*%
%TD*%
%TA.AperFunction,ComponentPad*%
%ADD17R,1.600000X1.600000*%
%TD*%
%TA.AperFunction,ComponentPad*%
%ADD18O,1.600000X1.600000*%
%TD*%
%TA.AperFunction,ComponentPad*%
%ADD19RoundRect,0.250001X1.099999X1.399999X-1.099999X1.399999X-1.099999X-1.399999X1.099999X-1.399999X0*%
%TD*%
%TA.AperFunction,ComponentPad*%
%ADD20O,2.700000X3.300000*%
%TD*%
%TA.AperFunction,ComponentPad*%
%ADD21R,1.450000X1.450000*%
%TD*%
%TA.AperFunction,ComponentPad*%
%ADD22C,1.450000*%
%TD*%
%TA.AperFunction,ComponentPad*%
%ADD23R,2.000000X1.905000*%
%TD*%
%TA.AperFunction,ComponentPad*%
%ADD24O,2.000000X1.905000*%
%TD*%
%TA.AperFunction,ViaPad*%
%ADD25C,0.600000*%
%TD*%
%TA.AperFunction,Conductor*%
%ADD26C,0.200000*%
%TD*%
%TA.AperFunction,Conductor*%
%ADD27C,1.000000*%
%TD*%
G04 APERTURE END LIST*
D10*
%TO.P,D1,1,K*%
%TO.N,Shutdown_in*%
X77400000Y-131200000D03*
D11*
%TO.P,D1,2,A*%
%TO.N,GLV-*%
X77400000Y-138820000D03*
%TD*%
D12*
%TO.P,K3,1,1*%
%TO.N,+12V*%
X73800253Y-93010253D03*
%TO.P,K3,2,2*%
%TO.N,Net-(U5-S)*%
X73800253Y-95550253D03*
D13*
%TO.P,K3,3,3*%
%TO.N,IR+_GND*%
X73800253Y-103170253D03*
%TO.P,K3,4,4*%
%TO.N,GLV-*%
X73800253Y-110790253D03*
%TD*%
D14*
%TO.P,R28,1*%
%TO.N,TS-*%
X129800000Y-136500000D03*
%TO.P,R28,2*%
%TO.N,Net-(R28-Pad2)*%
X217800000Y-136500000D03*
%TD*%
D15*
%TO.P,J7,1,Pin_1*%
%TO.N,GLV-*%
X64000000Y-117750000D03*
D16*
%TO.P,J7,2,Pin_2*%
%TO.N,unconnected-(J7-Pin_2-Pad2)*%
X64000000Y-121950000D03*
%TO.P,J7,3,Pin_3*%
%TO.N,CANL*%
X58500000Y-117750000D03*
%TO.P,J7,4,Pin_4*%
%TO.N,CANH*%
X58500000Y-121950000D03*
%TD*%
D17*
%TO.P,J4,1,Pin_1*%
%TO.N,GLV-*%
X74175000Y-38125000D03*
D18*
%TO.P,J4,2,Pin_2*%
%TO.N,CANRX*%
X74175000Y-40665000D03*
%TO.P,J4,3,Pin_3*%
%TO.N,CANTX*%
X74175000Y-43205000D03*
%TO.P,J4,4,Pin_4*%
%TO.N,unconnected-(J4-Pin_4-Pad4)*%
X74175000Y-45745000D03*
%TO.P,J4,5,Pin_5*%
%TO.N,unconnected-(J4-Pin_5-Pad5)*%
X74175000Y-48285000D03*
%TO.P,J4,6,Pin_6*%
%TO.N,unconnected-(J4-Pin_6-Pad6)*%
X74175000Y-50825000D03*
%TO.P,J4,7,Pin_7*%
%TO.N,unconnected-(J4-Pin_7-Pad7)*%
X74175000Y-53365000D03*
%TO.P,J4,8,Pin_8*%
%TO.N,unconnected-(J4-Pin_8-Pad8)*%
X74175000Y-55905000D03*
%TO.P,J4,9,Pin_9*%
%TO.N,unconnected-(J4-Pin_9-Pad9)*%
X74175000Y-58445000D03*
%TO.P,J4,10,Pin_10*%
%TO.N,unconnected-(J4-Pin_10-Pad10)*%
X74175000Y-60985000D03*
%TO.P,J4,11,Pin_11*%
%TO.N,unconnected-(J4-Pin_11-Pad11)*%
X74175000Y-63525000D03*
%TO.P,J4,12,Pin_12*%
%TO.N,unconnected-(J4-Pin_12-Pad12)*%
X74175000Y-66065000D03*
%TO.P,J4,13,Pin_13*%
%TO.N,IR+*%
X74175000Y-68605000D03*
%TO.P,J4,14,Pin_14*%
%TO.N,unconnected-(J4-Pin_14-Pad14)*%
X74175000Y-71145000D03*
%TO.P,J4,15,Pin_15*%
%TO.N,unconnected-(J4-Pin_15-Pad15)*%
X89415000Y-71145000D03*
%TO.P,J4,16,Pin_16*%
%TO.N,Freq_Accumulator*%
X89415000Y-68605000D03*
%TO.P,J4,17,Pin_17*%
%TO.N,Freq_TS*%
X89415000Y-66065000D03*
%TO.P,J4,18,Pin_18*%
%TO.N,unconnected-(J4-Pin_18-Pad18)*%
X89415000Y-63525000D03*
%TO.P,J4,19,Pin_19*%
%TO.N,unconnected-(J4-Pin_19-Pad19)*%
X89415000Y-60985000D03*
%TO.P,J4,20,Pin_20*%
%TO.N,unconnected-(J4-Pin_20-Pad20)*%
X89415000Y-58445000D03*
%TO.P,J4,21,Pin_21*%
%TO.N,unconnected-(J4-Pin_21-Pad21)*%
X89415000Y-55905000D03*
%TO.P,J4,22,Pin_22*%
%TO.N,unconnected-(J4-Pin_22-Pad22)*%
X89415000Y-53365000D03*
%TO.P,J4,23,Pin_23*%
%TO.N,unconnected-(J4-Pin_23-Pad23)*%
X89415000Y-50825000D03*
%TO.P,J4,24,Pin_24*%
%TO.N,unconnected-(J4-Pin_24-Pad24)*%
X89415000Y-48285000D03*
%TO.P,J4,25,Pin_25*%
%TO.N,unconnected-(J4-Pin_25-Pad25)*%
X89415000Y-45745000D03*
%TO.P,J4,26,Pin_26*%
%TO.N,+3.3V*%
X89415000Y-43205000D03*
%TO.P,J4,27,Pin_27*%
%TO.N,GLV-*%
X89415000Y-40665000D03*
%TO.P,J4,28,Pin_28*%
%TO.N,+5V*%
X89415000Y-38125000D03*
%TD*%
D15*
%TO.P,J8,1,Pin_1*%
%TO.N,GLV-*%
X64040000Y-136800000D03*
D16*
%TO.P,J8,2,Pin_2*%
%TO.N,Shutdown_in*%
X58540000Y-136800000D03*
%TD*%
D19*
%TO.P,J6,1,Pin_1*%
%TO.N,GNDS*%
X196500000Y-32050000D03*
D20*
%TO.P,J6,2,Pin_2*%
%TO.N,B+_in*%
X192300000Y-32050000D03*
%TO.P,J6,3,Pin_3*%
%TO.N,TS-*%
X196500000Y-26550000D03*
%TO.P,J6,4,Pin_4*%
%TO.N,TS+*%
X192300000Y-26550000D03*
%TD*%
D21*
%TO.P,U6,1,-Vin*%
%TO.N,GLV-*%
X94850000Y-24400000D03*
D22*
%TO.P,U6,2,+Vin*%
%TO.N,+12V*%
X97390000Y-24400000D03*
%TO.P,U6,6,+Vout*%
%TO.N,+12P*%
X107550000Y-24400000D03*
%TO.P,U6,7,-Vout*%
%TO.N,GNDS*%
X110090000Y-24400000D03*
%TO.P,U6,8,NC*%
%TO.N,unconnected-(U6-NC-Pad8)*%
X112630000Y-24400000D03*
%TD*%
D15*
%TO.P,J3,1,Pin_1*%
%TO.N,IR+_GND*%
X64000000Y-152500000D03*
D16*
%TO.P,J3,2,Pin_2*%
%TO.N,Shutdown_in*%
X58500000Y-152500000D03*
%TD*%
D15*
%TO.P,J2,1,Pin_1*%
%TO.N,GLV-*%
X64840000Y-39250000D03*
D16*
%TO.P,J2,2,Pin_2*%
%TO.N,+12V*%
X64840000Y-43450000D03*
%TO.P,J2,3,Pin_3*%
%TO.N,Shutdown_in*%
X59340000Y-39250000D03*
%TO.P,J2,4,Pin_4*%
%TO.N,unconnected-(J2-Pin_4-Pad4)*%
X59340000Y-43450000D03*
%TD*%
D14*
%TO.P,R29,1*%
%TO.N,Net-(R28-Pad2)*%
X218200000Y-85100000D03*
%TO.P,R29,2*%
%TO.N,Vin_Accu*%
X130200000Y-85100000D03*
%TD*%
D17*
%TO.P,U2,1*%
%TO.N,Net-(R26-Pad2)*%
X104020253Y-41630253D03*
D18*
%TO.P,U2,2*%
%TO.N,Net-(U1-FOUT)*%
X104020253Y-39090253D03*
%TO.P,U2,3,NC*%
%TO.N,unconnected-(U2-NC-Pad3)*%
X104020253Y-36550253D03*
%TO.P,U2,4*%
%TO.N,GLV-*%
X96400253Y-36550253D03*
%TO.P,U2,5*%
%TO.N,Freq_Accumulator*%
X96400253Y-39090253D03*
%TO.P,U2,6*%
%TO.N,unconnected-(U2-Pad6)*%
X96400253Y-41630253D03*
%TD*%
D17*
%TO.P,U1,1,IOUT*%
%TO.N,Net-(U1-IOUT)*%
X132430000Y-23860000D03*
D18*
%TO.P,U1,2,IREF*%
%TO.N,Net-(U1-IREF)*%
X132430000Y-26400000D03*
%TO.P,U1,3,FOUT*%
%TO.N,Net-(U1-FOUT)*%
X132430000Y-28940000D03*
%TO.P,U1,4,GND*%
%TO.N,GNDS*%
X132430000Y-31480000D03*
%TO.P,U1,5,RC*%
%TO.N,Net-(U1-RC)*%
X140050000Y-31480000D03*
%TO.P,U1,6,THRESH*%
%TO.N,Net-(U1-IOUT)*%
X140050000Y-28940000D03*
%TO.P,U1,7,COMPIN*%
%TO.N,Net-(U1-COMPIN)*%
X140050000Y-26400000D03*
%TO.P,U1,8,VS*%
%TO.N,+12P*%
X140050000Y-23860000D03*
%TD*%
D17*
%TO.P,U3,1*%
%TO.N,Net-(R14-Pad2)*%
X104020253Y-52130253D03*
D18*
%TO.P,U3,2*%
%TO.N,Net-(U4-FOUT)*%
X104020253Y-49590253D03*
%TO.P,U3,3,NC*%
%TO.N,unconnected-(U3-NC-Pad3)*%
X104020253Y-47050253D03*
%TO.P,U3,4*%
%TO.N,GLV-*%
X96400253Y-47050253D03*
%TO.P,U3,5*%
%TO.N,Freq_TS*%
X96400253Y-49590253D03*
%TO.P,U3,6*%
%TO.N,unconnected-(U3-Pad6)*%
X96400253Y-52130253D03*
%TD*%
D17*
%TO.P,U4,1,IOUT*%
%TO.N,Net-(U4-IOUT)*%
X132730000Y-40160000D03*
D18*
%TO.P,U4,2,IREF*%
%TO.N,Net-(U4-IREF)*%
X132730000Y-42700000D03*
%TO.P,U4,3,FOUT*%
%TO.N,Net-(U4-FOUT)*%
X132730000Y-45240000D03*
%TO.P,U4,4,GND*%
%TO.N,GNDS*%
X132730000Y-47780000D03*
%TO.P,U4,5,RC*%
%TO.N,Net-(U4-RC)*%
X140350000Y-47780000D03*
%TO.P,U4,6,THRESH*%
%TO.N,Net-(U4-IOUT)*%
X140350000Y-45240000D03*
%TO.P,U4,7,COMPIN*%
%TO.N,Net-(U4-COMPIN)*%
X140350000Y-42700000D03*
%TO.P,U4,8,VS*%
%TO.N,+12P*%
X140350000Y-40160000D03*
%TD*%
D14*
%TO.P,K4,11*%
%TO.N,Vin_Accu*%
X106900000Y-134800000D03*
%TO.P,K4,12*%
%TO.N,TS+*%
X106900000Y-125800000D03*
%TO.P,K4,14*%
%TO.N,B+_in*%
X106900000Y-143800000D03*
%TO.P,K4,A1*%
%TO.N,Shutdown_in*%
X77400000Y-125800000D03*
%TO.P,K4,A2*%
%TO.N,GLV-*%
X77400000Y-143800000D03*
%TD*%
D23*
%TO.P,U9,1,GND*%
%TO.N,GLV-*%
X89530000Y-30440000D03*
D24*
%TO.P,U9,2,VO*%
%TO.N,+5V*%
X89530000Y-27900000D03*
%TO.P,U9,3,VI*%
%TO.N,+12V*%
X89530000Y-25360000D03*
%TD*%
D25*
%TO.N,+12P*%
X136750253Y-50900253D03*
%TO.N,GLV-*%
X93600000Y-47000000D03*
X86150253Y-79700253D03*
X71000000Y-83600000D03*
X79550253Y-85400253D03*
%TO.N,Net-(R19-Pad2)*%
X155400253Y-25950253D03*
X148800253Y-44150253D03*
%TO.N,Freq_Accumulator*%
X98400253Y-28750253D03*
%TO.N,Net-(U1-FOUT)*%
X130874265Y-29075735D03*
%TO.N,CANRX*%
X90150253Y-75900253D03*
%TO.N,CANTX*%
X89950253Y-81500253D03*
%TO.N,IR+*%
X75800253Y-86350253D03*
%TO.N,GNDS*%
X140050000Y-37650000D03*
X152200253Y-29950253D03*
%TD*%
D26*
%TO.N,+12P*%
X136750253Y-49824112D02*
X140074112Y-46500253D01*
X141450000Y-45695635D02*
X141450000Y-41260000D01*
X140074112Y-46500253D02*
X140645382Y-46500253D01*
X140645382Y-46500253D02*
X141450000Y-45695635D01*
X141450000Y-41260000D02*
X140350000Y-40160000D01*
X136750253Y-50900253D02*
X136750253Y-49824112D01*
%TO.N,Net-(R19-Pad2)*%
X155400253Y-37550253D02*
X148800253Y-44150253D01*
X155400253Y-25950253D02*
X155400253Y-37550253D01*
%TO.N,Freq_Accumulator*%
X88959365Y-59885000D02*
X89665506Y-59885000D01*
X89665506Y-59885000D02*
X95300253Y-54250253D01*
X95300253Y-54250253D02*
X95300253Y-40190253D01*
X98400253Y-37090253D02*
X96400253Y-39090253D01*
X88315000Y-60529365D02*
X88959365Y-59885000D01*
X98400253Y-28750253D02*
X98400253Y-37090253D01*
X88315000Y-67505000D02*
X88315000Y-60529365D01*
X89415000Y-68605000D02*
X88315000Y-67505000D01*
X95300253Y-40190253D02*
X96400253Y-39090253D01*
%TO.N,Net-(U1-FOUT)*%
X130874265Y-29075735D02*
X120859747Y-39090253D01*
X120859747Y-39090253D02*
X104020253Y-39090253D01*
%TO.N,CANRX*%
X90150253Y-75900253D02*
X87915000Y-73665000D01*
X87915000Y-73665000D02*
X87915000Y-54405000D01*
X87915000Y-54405000D02*
X74175000Y-40665000D01*
%TO.N,CANTX*%
X87515000Y-56545000D02*
X74175000Y-43205000D01*
X89950253Y-81500253D02*
X87515000Y-79065000D01*
X87515000Y-79065000D02*
X87515000Y-56545000D01*
D27*
%TO.N,B+_in*%
X192300000Y-58400000D02*
X192300000Y-32050000D01*
X106900000Y-143800000D02*
X192300000Y-58400000D01*
D26*
%TO.N,IR+*%
X76200253Y-70630253D02*
X74175000Y-68605000D01*
X75800253Y-86350253D02*
X76200253Y-85950253D01*
X76200253Y-85950253D02*
X76200253Y-70630253D01*
D27*
%TO.N,IR+_GND*%
X72236653Y-144263347D02*
X72236653Y-104733853D01*
X72236653Y-104733853D02*
X73800253Y-103170253D01*
X64000000Y-152500000D02*
X72236653Y-144263347D01*
%TO.N,Shutdown_in*%
X61690000Y-44299138D02*
X72150253Y-54759391D01*
X56750000Y-144750001D02*
X56710000Y-144790001D01*
X59340000Y-39250000D02*
X61690000Y-41600000D01*
X58540000Y-136800000D02*
X56750000Y-138590000D01*
X74136039Y-81600253D02*
X74136039Y-86100253D01*
X61250000Y-98986292D02*
X74136039Y-86100253D01*
X56710000Y-144790001D02*
X56710000Y-150710000D01*
X56710000Y-150710000D02*
X58500000Y-152500000D01*
X61690000Y-41600000D02*
X61690000Y-44299138D01*
X58540000Y-136800000D02*
X61250000Y-134090000D01*
X56750000Y-138590000D02*
X56750000Y-144750001D01*
X72150253Y-79614467D02*
X74136039Y-81600253D01*
X72150253Y-54759391D02*
X72150253Y-79614467D01*
X61250000Y-134090000D02*
X61250000Y-98986292D01*
%TO.N,TS-*%
X199350000Y-29400000D02*
X196500000Y-26550000D01*
X129800000Y-136500000D02*
X199350000Y-66950000D01*
X199350000Y-66950000D02*
X199350000Y-29400000D01*
D26*
%TO.N,TS+*%
X189850000Y-29000000D02*
X192300000Y-26550000D01*
D27*
X106900000Y-125800000D02*
X189850000Y-42850000D01*
D26*
X189850000Y-42850000D02*
X189850000Y-29000000D01*
D27*
%TO.N,Net-(R28-Pad2)*%
X218200000Y-136100000D02*
X217800000Y-136500000D01*
X218200000Y-85100000D02*
X218200000Y-136100000D01*
D26*
%TO.N,GNDS*%
X134130000Y-29780000D02*
X132430000Y-31480000D01*
X112330000Y-22160000D02*
X134130000Y-22160000D01*
X152200253Y-29950253D02*
X144500506Y-37650000D01*
X110090000Y-24400000D02*
X112330000Y-22160000D01*
X134130000Y-22160000D02*
X134130000Y-29780000D01*
X144500506Y-37650000D02*
X140050000Y-37650000D01*
%TD*%
%TA.AperFunction,Conductor*%
%TO.N,GLV-*%
G36*
X97943039Y-21170185D02*
G01*
X97988794Y-21222989D01*
X98000000Y-21274500D01*
X98000000Y-22614422D01*
X97980315Y-22681461D01*
X97927511Y-22727216D01*
X97858353Y-22737160D01*
X97839452Y-22732913D01*
X97775052Y-22713049D01*
X97775042Y-22713046D01*
X97775036Y-22713045D01*
X97652025Y-22694504D01*
X97519313Y-22674500D01*
X97519308Y-22674500D01*
X97260692Y-22674500D01*
X97260686Y-22674500D01*
X97101430Y-22698504D01*
X97004964Y-22713045D01*
X97004961Y-22713046D01*
X97004955Y-22713047D01*
X96757833Y-22789275D01*
X96524838Y-22901478D01*
X96524837Y-22901479D01*
X96311151Y-23047167D01*
X96121574Y-23223067D01*
X96078449Y-23277145D01*
X96021261Y-23317285D01*
X95951449Y-23320134D01*
X95907192Y-23299098D01*
X95817088Y-23231647D01*
X95817086Y-23231645D01*
X95682379Y-23181403D01*
X95682372Y-23181401D01*
X95622844Y-23175000D01*
X95100000Y-23175000D01*
X95100000Y-24053590D01*
X95014044Y-24003963D01*
X94905952Y-23975000D01*
X94794048Y-23975000D01*
X94685956Y-24003963D01*
X94600000Y-24053590D01*
X94600000Y-23175000D01*
X94077155Y-23175000D01*
X94017627Y-23181401D01*
X94017620Y-23181403D01*
X93882913Y-23231645D01*
X93882906Y-23231649D01*
X93767812Y-23317809D01*
X93767809Y-23317812D01*
X93681649Y-23432906D01*
X93681645Y-23432913D01*
X93631403Y-23567620D01*
X93631401Y-23567627D01*
X93625000Y-23627155D01*
X93625000Y-24150000D01*
X94503590Y-24150000D01*
X94453963Y-24235956D01*
X94425000Y-24344048D01*
X94425000Y-24455952D01*
X94453963Y-24564044D01*
X94503590Y-24650000D01*
X93625000Y-24650000D01*
X93625000Y-25172844D01*
X93631401Y-25232372D01*
X93631403Y-25232379D01*
X93681645Y-25367086D01*
X93681649Y-25367093D01*
X93767809Y-25482187D01*
X93767812Y-25482190D01*
X93882906Y-25568350D01*
X93882913Y-25568354D01*
X94017620Y-25618596D01*
X94017627Y-25618598D01*
X94077155Y-25624999D01*
X94077172Y-25625000D01*
X94600000Y-25625000D01*
X94600000Y-24746409D01*
X94685956Y-24796037D01*
X94794048Y-24825000D01*
X94905952Y-24825000D01*
X95014044Y-24796037D01*
X95100000Y-24746409D01*
X95100000Y-25625000D01*
X95622828Y-25625000D01*
X95622844Y-25624999D01*
X95682372Y-25618598D01*
X95682379Y-25618596D01*
X95817086Y-25568354D01*
X95817089Y-25568352D01*
X95907191Y-25500902D01*
X95972656Y-25476484D01*
X96040929Y-25491335D01*
X96078449Y-25522854D01*
X96121572Y-25576929D01*
X96121573Y-25576930D01*
X96121572Y-25576930D01*
X96173379Y-25624999D01*
X96311152Y-25752833D01*
X96524831Y-25898517D01*
X96524836Y-25898519D01*
X96524837Y-25898520D01*
X96524838Y-25898521D01*
X96597952Y-25933730D01*
X96757833Y-26010724D01*
X96757834Y-26010724D01*
X96757837Y-26010726D01*
X97004964Y-26086955D01*
X97260692Y-26125500D01*
X97260693Y-26125500D01*
X97519307Y-26125500D01*
X97519308Y-26125500D01*
X97775036Y-26086955D01*
X97839449Y-26067085D01*
X97909312Y-26066134D01*
X97968599Y-26103105D01*
X97998486Y-26166259D01*
X98000000Y-26185576D01*
X98000000Y-27422954D01*
X97980315Y-27489993D01*
X97928405Y-27535336D01*
X97747520Y-27619684D01*
X97747518Y-27619685D01*
X97561111Y-27750207D01*
X97400207Y-27911111D01*
X97269685Y-28097518D01*
X97269684Y-28097520D01*
X97173514Y-28303755D01*
X97173511Y-28303764D01*
X97114619Y-28523555D01*
X97114617Y-28523566D01*
X97094785Y-28750251D01*
X97094785Y-28750254D01*
X97114617Y-28976939D01*
X97114619Y-28976950D01*
X97173511Y-29196741D01*
X97173513Y-29196745D01*
X97173514Y-29196749D01*
X97185224Y-29221860D01*
X97269684Y-29402986D01*
X97277326Y-29413899D01*
X97299655Y-29480105D01*
X97299753Y-29485025D01*
X97299753Y-35354880D01*
X97280068Y-35421919D01*
X97227264Y-35467674D01*
X97158106Y-35477618D01*
X97104630Y-35456455D01*
X97052740Y-35420121D01*
X97052736Y-35420119D01*
X96846581Y-35323987D01*
X96650253Y-35271380D01*
X96650253Y-36234567D01*
X96645859Y-36230173D01*
X96554647Y-36177512D01*
X96452914Y-36150253D01*
X96347592Y-36150253D01*
X96245859Y-36177512D01*
X96154647Y-36230173D01*
X96150253Y-36234567D01*
X96150253Y-35271380D01*
X95953924Y-35323987D01*
X95747770Y-35420118D01*
X95561432Y-35550595D01*
X95400595Y-35711432D01*
X95270118Y-35897770D01*
X95173987Y-36103926D01*
X95173983Y-36103935D01*
X95121380Y-36300252D01*
X95121381Y-36300253D01*
X96084567Y-36300253D01*
X96080173Y-36304647D01*
X96027512Y-36395859D01*
X96000253Y-36497592D01*
X96000253Y-36602914D01*
X96027512Y-36704647D01*
X96080173Y-36795859D01*
X96084567Y-36800253D01*
X95121381Y-36800253D01*
X95173983Y-36996570D01*
X95173987Y-36996579D01*
X95270118Y-37202735D01*
X95400595Y-37389073D01*
X95415819Y-37404297D01*
X95449304Y-37465620D01*
X95444320Y-37535312D01*
X95402448Y-37591245D01*
X95397990Y-37594431D01*
X95274515Y-37678615D01*
X95076695Y-37862163D01*
X94908438Y-38073151D01*
X94773511Y-38306852D01*
X94773509Y-38306856D01*
X94674919Y-38558057D01*
X94674917Y-38558064D01*
X94614869Y-38821151D01*
X94594704Y-39090248D01*
X94594704Y-39090257D01*
X94607826Y-39265362D01*
X94593207Y-39333685D01*
X94571855Y-39362309D01*
X94460838Y-39473326D01*
X94359021Y-39613464D01*
X94280381Y-39767805D01*
X94226850Y-39932555D01*
X94199753Y-40103642D01*
X94199753Y-53743048D01*
X94180068Y-53810087D01*
X94163434Y-53830729D01*
X91291411Y-56702751D01*
X91230088Y-56736236D01*
X91160396Y-56731252D01*
X91104463Y-56689380D01*
X91080046Y-56623916D01*
X91088301Y-56569770D01*
X91140334Y-56437195D01*
X91200383Y-56174103D01*
X91220549Y-55905000D01*
X91200383Y-55635897D01*
X91140334Y-55372805D01*
X91041743Y-55121602D01*
X90906815Y-54887898D01*
X90766787Y-54712310D01*
X90740381Y-54647627D01*
X90753136Y-54578931D01*
X90766784Y-54557693D01*
X90906815Y-54382102D01*
X91041743Y-54148398D01*
X91140334Y-53897195D01*
X91200383Y-53634103D01*
X91207293Y-53541887D01*
X91220549Y-53365004D01*
X91220549Y-53364995D01*
X91200383Y-53095898D01*
X91200383Y-53095897D01*
X91140334Y-52832805D01*
X91041743Y-52581602D01*
X90906815Y-52347898D01*
X90766787Y-52172310D01*
X90740381Y-52107627D01*
X90753136Y-52038931D01*
X90766784Y-52017693D01*
X90906815Y-51842102D01*
X91041743Y-51608398D01*
X91140334Y-51357195D01*
X91200383Y-51094103D01*
X91220549Y-50825000D01*
X91200383Y-50555897D01*
X91140334Y-50292805D01*
X91041743Y-50041602D01*
X90906815Y-49807898D01*
X90766787Y-49632310D01*
X90740381Y-49567627D01*
X90753136Y-49498931D01*
X90766784Y-49477693D01*
X90906815Y-49302102D01*
X91041743Y-49068398D01*
X91140334Y-48817195D01*
X91200383Y-48554103D01*
X91207105Y-48464402D01*
X91220549Y-48285004D01*
X91220549Y-48284995D01*
X91200383Y-48015898D01*
X91152879Y-47807770D01*
X91140334Y-47752805D01*
X91041743Y-47501602D01*
X90906815Y-47267898D01*
X90766787Y-47092310D01*
X90740381Y-47027627D01*
X90753136Y-46958931D01*
X90766784Y-46937693D01*
X90906815Y-46762102D01*
X91041743Y-46528398D01*
X91140334Y-46277195D01*
X91200383Y-46014103D01*
X91216390Y-45800498D01*
X91220549Y-45745004D01*
X91220549Y-45744995D01*
X91200383Y-45475898D01*
X91185013Y-45408558D01*
X91140334Y-45212805D01*
X91041743Y-44961602D01*
X90906815Y-44727898D01*
X90766787Y-44552310D01*
X90740381Y-44487627D01*
X90753136Y-44418931D01*
X90766784Y-44397693D01*
X90906815Y-44222102D01*
X91041743Y-43988398D01*
X91140334Y-43737195D01*
X91200383Y-43474103D01*
X91212606Y-43310991D01*
X91220549Y-43205004D01*
X91220549Y-43204995D01*
X91200383Y-42935898D01*
X91184517Y-42866383D01*
X91140334Y-42672805D01*
X91041743Y-42421602D01*
X90906815Y-42187898D01*
X90738561Y-41976915D01*
X90738560Y-41976914D01*
X90738557Y-41976910D01*
X90540741Y-41793365D01*
X90540737Y-41793362D01*
X90417260Y-41709177D01*
X90372960Y-41655150D01*
X90364901Y-41585746D01*
X90395644Y-41523004D01*
X90399435Y-41519041D01*
X90414660Y-41503816D01*
X90545134Y-41317482D01*
X90641265Y-41111326D01*
X90641269Y-41111317D01*
X90693872Y-40915000D01*
X89730686Y-40915000D01*
X89735080Y-40910606D01*
X89787741Y-40819394D01*
X89815000Y-40717661D01*
X89815000Y-40612339D01*
X89787741Y-40510606D01*
X89735080Y-40419394D01*
X89730686Y-40415000D01*
X90693872Y-40415000D01*
X90693872Y-40414999D01*
X90641269Y-40218682D01*
X90641265Y-40218673D01*
X90545134Y-40012517D01*
X90414657Y-39826179D01*
X90399433Y-39810955D01*
X90365948Y-39749632D01*
X90370932Y-39679940D01*
X90412804Y-39624007D01*
X90417230Y-39620843D01*
X90540741Y-39536635D01*
X90728620Y-39362309D01*
X90738557Y-39353089D01*
X90738557Y-39353087D01*
X90738561Y-39353085D01*
X90906815Y-39142102D01*
X91041743Y-38908398D01*
X91140334Y-38657195D01*
X91200383Y-38394103D01*
X91214316Y-38208173D01*
X91220549Y-38125004D01*
X91220549Y-38124995D01*
X91202144Y-37879394D01*
X91200383Y-37855897D01*
X91140334Y-37592805D01*
X91041743Y-37341602D01*
X90906815Y-37107898D01*
X90738561Y-36896915D01*
X90738560Y-36896914D01*
X90738557Y-36896910D01*
X90540741Y-36713365D01*
X90486308Y-36676253D01*
X90317775Y-36561349D01*
X90317769Y-36561346D01*
X90317768Y-36561345D01*
X90317767Y-36561344D01*
X90074643Y-36444263D01*
X90074645Y-36444263D01*
X89816773Y-36364720D01*
X89816767Y-36364718D01*
X89549936Y-36324500D01*
X89549929Y-36324500D01*
X89280071Y-36324500D01*
X89280063Y-36324500D01*
X89013232Y-36364718D01*
X89013226Y-36364720D01*
X88755358Y-36444262D01*
X88512230Y-36561346D01*
X88289258Y-36713365D01*
X88091442Y-36896910D01*
X87923185Y-37107898D01*
X87788258Y-37341599D01*
X87788256Y-37341603D01*
X87689666Y-37592804D01*
X87689664Y-37592811D01*
X87629616Y-37855898D01*
X87609451Y-38124995D01*
X87609451Y-38125004D01*
X87629616Y-38394101D01*
X87689664Y-38657188D01*
X87689666Y-38657195D01*
X87788256Y-38908396D01*
X87788258Y-38908400D01*
X87816770Y-38957784D01*
X87923185Y-39142102D01*
X88021482Y-39265362D01*
X88091442Y-39353089D01*
X88181781Y-39436910D01*
X88289259Y-39536635D01*
X88412737Y-39620821D01*
X88457038Y-39674847D01*
X88465098Y-39744251D01*
X88434355Y-39806994D01*
X88430569Y-39810952D01*
X88415339Y-39826182D01*
X88284866Y-40012517D01*
X88188734Y-40218673D01*
X88188730Y-40218682D01*
X88136127Y-40414999D01*
X88136128Y-40415000D01*
X89099314Y-40415000D01*
X89094920Y-40419394D01*
X89042259Y-40510606D01*
X89015000Y-40612339D01*
X89015000Y-40717661D01*
X89042259Y-40819394D01*
X89094920Y-40910606D01*
X89099314Y-40915000D01*
X88136128Y-40915000D01*
X88188730Y-41111317D01*
X88188734Y-41111326D01*
X88284865Y-41317482D01*
X88415342Y-41503820D01*
X88430566Y-41519044D01*
X88464051Y-41580367D01*
X88459067Y-41650059D01*
X88417195Y-41705992D01*
X88412737Y-41709178D01*
X88289262Y-41793362D01*
X88091442Y-41976910D01*
X87923185Y-42187898D01*
X87788258Y-42421599D01*
X87788256Y-42421603D01*
X87689666Y-42672804D01*
X87689664Y-42672811D01*
X87629616Y-42935898D01*
X87609451Y-43204995D01*
X87609451Y-43205004D01*
X87629616Y-43474101D01*
X87689664Y-43737188D01*
X87689666Y-43737195D01*
X87788257Y-43988398D01*
X87923185Y-44222102D01*
X88063210Y-44397687D01*
X88089618Y-44462374D01*
X88076862Y-44531069D01*
X88063210Y-44552313D01*
X87923185Y-44727898D01*
X87788258Y-44961599D01*
X87788256Y-44961603D01*
X87689666Y-45212804D01*
X87689664Y-45212811D01*
X87629616Y-45475898D01*
X87609451Y-45744995D01*
X87609451Y-45745004D01*
X87629616Y-46014101D01*
X87689664Y-46277188D01*
X87689666Y-46277195D01*
X87784157Y-46517953D01*
X87788257Y-46528398D01*
X87923185Y-46762102D01*
X87978201Y-46831089D01*
X88063210Y-46937687D01*
X88089618Y-47002374D01*
X88076862Y-47071069D01*
X88063210Y-47092313D01*
X87923185Y-47267898D01*
X87788258Y-47501599D01*
X87788256Y-47501603D01*
X87689666Y-47752804D01*
X87689664Y-47752811D01*
X87629616Y-48015898D01*
X87609451Y-48284995D01*
X87609451Y-48285004D01*
X87629616Y-48554101D01*
X87687306Y-48806855D01*
X87689666Y-48817195D01*
X87788257Y-49068398D01*
X87923185Y-49302102D01*
X88056211Y-49468911D01*
X88063210Y-49477687D01*
X88089618Y-49542374D01*
X88076862Y-49611069D01*
X88063210Y-49632313D01*
X87923185Y-49807898D01*
X87788258Y-50041599D01*
X87788256Y-50041603D01*
X87689666Y-50292804D01*
X87689664Y-50292811D01*
X87629616Y-50555898D01*
X87609451Y-50824995D01*
X87609451Y-50825004D01*
X87629616Y-51094101D01*
X87687306Y-51346855D01*
X87689666Y-51357195D01*
X87788257Y-51608398D01*
X87923185Y-51842102D01*
X88063210Y-52017687D01*
X88089618Y-52082374D01*
X88076862Y-52151069D01*
X88063210Y-52172313D01*
X87923185Y-52347898D01*
X87817698Y-52530607D01*
X87767131Y-52578823D01*
X87698524Y-52592046D01*
X87633659Y-52566078D01*
X87622630Y-52556288D01*
X76003398Y-40937056D01*
X75969913Y-40875733D01*
X75967426Y-40840108D01*
X75980549Y-40665003D01*
X75980549Y-40664995D01*
X75962144Y-40419394D01*
X75960383Y-40395897D01*
X75900334Y-40132805D01*
X75801743Y-39881602D01*
X75666815Y-39647898D01*
X75498561Y-39436915D01*
X75498555Y-39436909D01*
X75498552Y-39436906D01*
X75413822Y-39358288D01*
X75378067Y-39298260D01*
X75380442Y-39228431D01*
X75398898Y-39193077D01*
X75418352Y-39167090D01*
X75418354Y-39167086D01*
X75468596Y-39032379D01*
X75468598Y-39032372D01*
X75474999Y-38972844D01*
X75475000Y-38972827D01*
X75475000Y-38375000D01*
X74490686Y-38375000D01*
X74495080Y-38370606D01*
X74547741Y-38279394D01*
X74575000Y-38177661D01*
X74575000Y-38072339D01*
X74547741Y-37970606D01*
X74495080Y-37879394D01*
X74490686Y-37875000D01*
X75475000Y-37875000D01*
X75475000Y-37277172D01*
X75474999Y-37277155D01*
X75468598Y-37217627D01*
X75468596Y-37217620D01*
X75418354Y-37082913D01*
X75418350Y-37082906D01*
X75332190Y-36967812D01*
X75332187Y-36967809D01*
X75217093Y-36881649D01*
X75217086Y-36881645D01*
X75082379Y-36831403D01*
X75082372Y-36831401D01*
X75022844Y-36825000D01*
X74425000Y-36825000D01*
X74425000Y-37809314D01*
X74420606Y-37804920D01*
X74329394Y-37752259D01*
X74227661Y-37725000D01*
X74122339Y-37725000D01*
X74020606Y-37752259D01*
X73929394Y-37804920D01*
X73925000Y-37809314D01*
X73925000Y-36825000D01*
X73327155Y-36825000D01*
X73267627Y-36831401D01*
X73267620Y-36831403D01*
X73132913Y-36881645D01*
X73132906Y-36881649D01*
X73017812Y-36967809D01*
X73017809Y-36967812D01*
X72931649Y-37082906D01*
X72931645Y-37082913D01*
X72881403Y-37217620D01*
X72881401Y-37217627D01*
X72875000Y-37277155D01*
X72875000Y-37875000D01*
X73859314Y-37875000D01*
X73854920Y-37879394D01*
X73802259Y-37970606D01*
X73775000Y-38072339D01*
X73775000Y-38177661D01*
X73802259Y-38279394D01*
X73854920Y-38370606D01*
X73859314Y-38375000D01*
X72875000Y-38375000D01*
X72875000Y-38972844D01*
X72881401Y-39032372D01*
X72881403Y-39032379D01*
X72931645Y-39167086D01*
X72931647Y-39167089D01*
X72951102Y-39193077D01*
X72975520Y-39258541D01*
X72960669Y-39326814D01*
X72936178Y-39358287D01*
X72851443Y-39436910D01*
X72683185Y-39647898D01*
X72548258Y-39881599D01*
X72548256Y-39881603D01*
X72449666Y-40132804D01*
X72449664Y-40132811D01*
X72389616Y-40395898D01*
X72369451Y-40664995D01*
X72369451Y-40665004D01*
X72389616Y-40934101D01*
X72449664Y-41197188D01*
X72449666Y-41197195D01*
X72504685Y-41337381D01*
X72548257Y-41448398D01*
X72683185Y-41682102D01*
X72771915Y-41793365D01*
X72823210Y-41857687D01*
X72849618Y-41922374D01*
X72836862Y-41991069D01*
X72823210Y-42012313D01*
X72683185Y-42187898D01*
X72548258Y-42421599D01*
X72548256Y-42421603D01*
X72449666Y-42672804D01*
X72449664Y-42672811D01*
X72389616Y-42935898D01*
X72369451Y-43204995D01*
X72369451Y-43205004D01*
X72389616Y-43474101D01*
X72449664Y-43737188D01*
X72449666Y-43737195D01*
X72548257Y-43988398D01*
X72683185Y-44222102D01*
X72823210Y-44397687D01*
X72849618Y-44462374D01*
X72836862Y-44531069D01*
X72823210Y-44552313D01*
X72683185Y-44727898D01*
X72548258Y-44961599D01*
X72548256Y-44961603D01*
X72449666Y-45212804D01*
X72449664Y-45212811D01*
X72389616Y-45475898D01*
X72369451Y-45744995D01*
X72369451Y-45745004D01*
X72389616Y-46014101D01*
X72449664Y-46277188D01*
X72449666Y-46277195D01*
X72544157Y-46517953D01*
X72548257Y-46528398D01*
X72683185Y-46762102D01*
X72738201Y-46831089D01*
X72823210Y-46937687D01*
X72849618Y-47002374D01*
X72836862Y-47071069D01*
X72823210Y-47092313D01*
X72683185Y-47267898D01*
X72548258Y-47501599D01*
X72548256Y-47501603D01*
X72449666Y-47752804D01*
X72449664Y-47752811D01*
X72389616Y-48015898D01*
X72369451Y-48284995D01*
X72369451Y-48285004D01*
X72389616Y-48554101D01*
X72447306Y-48806855D01*
X72449666Y-48817195D01*
X72548257Y-49068398D01*
X72683185Y-49302102D01*
X72816211Y-49468911D01*
X72823210Y-49477687D01*
X72849618Y-49542374D01*
X72836862Y-49611069D01*
X72823210Y-49632313D01*
X72683185Y-49807898D01*
X72548258Y-50041599D01*
X72548256Y-50041603D01*
X72449666Y-50292804D01*
X72449664Y-50292811D01*
X72389616Y-50555898D01*
X72369451Y-50824995D01*
X72369451Y-50825004D01*
X72389616Y-51094101D01*
X72447306Y-51346855D01*
X72449666Y-51357195D01*
X72548257Y-51608398D01*
X72683185Y-51842102D01*
X72823210Y-52017687D01*
X72849618Y-52082374D01*
X72836862Y-52151069D01*
X72823210Y-52172313D01*
X72683185Y-52347898D01*
X72548258Y-52581599D01*
X72548256Y-52581603D01*
X72489552Y-52731175D01*
X72446735Y-52786389D01*
X72380865Y-52809689D01*
X72312855Y-52793678D01*
X72286443Y-52773553D01*
X65488939Y-45976050D01*
X65455454Y-45914727D01*
X65460438Y-45845035D01*
X65502310Y-45789102D01*
X65560435Y-45765430D01*
X65599544Y-45760282D01*
X65897164Y-45680535D01*
X66181830Y-45562622D01*
X66448670Y-45408562D01*
X66693117Y-45220991D01*
X66910991Y-45003117D01*
X67098562Y-44758670D01*
X67252622Y-44491830D01*
X67370535Y-44207164D01*
X67450282Y-43909544D01*
X67490500Y-43604060D01*
X67490500Y-43295940D01*
X67450282Y-42990456D01*
X67370535Y-42692836D01*
X67252622Y-42408170D01*
X67252620Y-42408167D01*
X67252618Y-42408162D01*
X67197578Y-42312830D01*
X67098562Y-42141330D01*
X66910991Y-41896883D01*
X66910986Y-41896877D01*
X66693122Y-41679013D01*
X66693115Y-41679007D01*
X66448674Y-41491441D01*
X66448673Y-41491440D01*
X66448670Y-41491438D01*
X66298089Y-41404500D01*
X66181837Y-41337381D01*
X66178190Y-41335583D01*
X66178985Y-41333969D01*
X66130277Y-41294710D01*
X66108219Y-41228413D01*
X66125505Y-41160716D01*
X66176647Y-41113110D01*
X66232140Y-41100000D01*
X66289973Y-41100000D01*
X66289985Y-41099999D01*
X66392689Y-41089506D01*
X66392696Y-41089505D01*
X66559118Y-41034358D01*
X66559123Y-41034356D01*
X66708344Y-40942315D01*
X66832315Y-40818344D01*
X66924356Y-40669123D01*
X66924358Y-40669118D01*
X66979505Y-40502696D01*
X66979506Y-40502689D01*
X66989999Y-40399985D01*
X66990000Y-40399972D01*
X66990000Y-39500000D01*
X65494121Y-39500000D01*
X65513099Y-39454182D01*
X65540000Y-39318944D01*
X65540000Y-39181056D01*
X65513099Y-39045818D01*
X65494121Y-39000000D01*
X66990000Y-39000000D01*
X66990000Y-38100027D01*
X66989999Y-38100014D01*
X66979506Y-37997310D01*
X66979505Y-37997303D01*
X66924358Y-37830881D01*
X66924356Y-37830876D01*
X66832315Y-37681655D01*
X66708344Y-37557684D01*
X66559123Y-37465643D01*
X66559118Y-37465641D01*
X66392696Y-37410494D01*
X66392689Y-37410493D01*
X66289985Y-37400000D01*
X65090000Y-37400000D01*
X65090000Y-38595879D01*
X65044182Y-38576901D01*
X64908944Y-38550000D01*
X64771056Y-38550000D01*
X64635818Y-38576901D01*
X64590000Y-38595879D01*
X64590000Y-37400000D01*
X63390014Y-37400000D01*
X63287310Y-37410493D01*
X63287303Y-37410494D01*
X63120881Y-37465641D01*
X63120876Y-37465643D01*
X62971655Y-37557684D01*
X62847684Y-37681655D01*
X62755643Y-37830876D01*
X62755641Y-37830881D01*
X62700494Y-37997303D01*
X62700493Y-37997310D01*
X62690000Y-38100014D01*
X62690000Y-39000000D01*
X64185879Y-39000000D01*
X64166901Y-39045818D01*
X64140000Y-39181056D01*
X64140000Y-39318944D01*
X64166901Y-39454182D01*
X64185879Y-39500000D01*
X62690000Y-39500000D01*
X62690000Y-40178611D01*
X62670315Y-40245650D01*
X62617511Y-40291405D01*
X62548353Y-40301349D01*
X62484797Y-40272324D01*
X62478319Y-40266292D01*
X61990181Y-39778154D01*
X61956696Y-39716831D01*
X61954923Y-39674291D01*
X61990500Y-39404060D01*
X61990500Y-39095940D01*
X61950282Y-38790456D01*
X61870535Y-38492836D01*
X61752622Y-38208170D01*
X61752620Y-38208167D01*
X61752618Y-38208162D01*
X61674200Y-38072339D01*
X61598562Y-37941330D01*
X61410991Y-37696883D01*
X61410986Y-37696877D01*
X61193122Y-37479013D01*
X61193115Y-37479007D01*
X60948674Y-37291441D01*
X60948673Y-37291440D01*
X60948670Y-37291438D01*
X60842280Y-37230014D01*
X60681837Y-37137381D01*
X60681826Y-37137376D01*
X60397162Y-37019464D01*
X60099542Y-36939717D01*
X59794069Y-36899501D01*
X59794066Y-36899500D01*
X59794060Y-36899500D01*
X58885940Y-36899500D01*
X58885934Y-36899500D01*
X58885930Y-36899501D01*
X58580457Y-36939717D01*
X58282837Y-37019464D01*
X57998173Y-37137376D01*
X57998162Y-37137381D01*
X57731325Y-37291441D01*
X57486884Y-37479007D01*
X57486877Y-37479013D01*
X57269013Y-37696877D01*
X57269007Y-37696884D01*
X57081441Y-37941325D01*
X56927381Y-38208162D01*
X56927376Y-38208173D01*
X56809464Y-38492837D01*
X56729717Y-38790457D01*
X56689501Y-39095930D01*
X56689500Y-39095946D01*
X56689500Y-39404053D01*
X56689501Y-39404069D01*
X56729717Y-39709542D01*
X56809464Y-40007162D01*
X56927376Y-40291826D01*
X56927381Y-40291837D01*
X56998490Y-40415000D01*
X57081438Y-40558670D01*
X57081440Y-40558673D01*
X57081441Y-40558674D01*
X57269007Y-40803115D01*
X57269013Y-40803122D01*
X57486877Y-41020986D01*
X57486884Y-41020992D01*
X57641611Y-41139718D01*
X57731330Y-41208562D01*
X57790310Y-41242614D01*
X57838524Y-41293181D01*
X57851746Y-41361788D01*
X57825778Y-41426652D01*
X57790310Y-41457385D01*
X57731330Y-41491438D01*
X57731327Y-41491439D01*
X57731322Y-41491443D01*
X57486884Y-41679007D01*
X57486877Y-41679013D01*
X57269013Y-41896877D01*
X57269007Y-41896884D01*
X57081441Y-42141325D01*
X56927381Y-42408162D01*
X56927376Y-42408173D01*
X56809464Y-42692837D01*
X56729717Y-42990457D01*
X56689501Y-43295930D01*
X56689500Y-43295946D01*
X56689500Y-43604053D01*
X56689501Y-43604069D01*
X56729717Y-43909542D01*
X56809464Y-44207162D01*
X56927376Y-44491826D01*
X56927381Y-44491837D01*
X57020014Y-44652280D01*
X57081438Y-44758670D01*
X57081440Y-44758673D01*
X57081441Y-44758674D01*
X57269007Y-45003115D01*
X57269013Y-45003122D01*
X57486877Y-45220986D01*
X57486883Y-45220991D01*
X57731330Y-45408562D01*
X57902830Y-45507578D01*
X57998162Y-45562618D01*
X57998167Y-45562620D01*
X57998170Y-45562622D01*
X58282836Y-45680535D01*
X58580456Y-45760282D01*
X58885940Y-45800500D01*
X58885947Y-45800500D01*
X59794053Y-45800500D01*
X59794060Y-45800500D01*
X60099544Y-45760282D01*
X60397164Y-45680535D01*
X60681830Y-45562622D01*
X60694286Y-45555430D01*
X60762182Y-45538955D01*
X60828210Y-45561804D01*
X60843969Y-45575134D01*
X70613434Y-55344599D01*
X70646919Y-55405922D01*
X70649753Y-55432280D01*
X70649753Y-79732564D01*
X70686699Y-79965835D01*
X70759686Y-80190463D01*
X70866910Y-80400901D01*
X71005737Y-80591978D01*
X72599220Y-82185461D01*
X72632705Y-82246784D01*
X72635539Y-82273142D01*
X72635539Y-85427364D01*
X72615854Y-85494403D01*
X72599220Y-85515045D01*
X60105485Y-98008779D01*
X60105484Y-98008780D01*
X59966657Y-98199857D01*
X59859433Y-98410295D01*
X59786446Y-98634923D01*
X59749500Y-98868194D01*
X59749500Y-111296715D01*
X59729815Y-111363754D01*
X59677011Y-111409509D01*
X59607853Y-111419453D01*
X59578048Y-111411276D01*
X59523887Y-111388842D01*
X59430256Y-111363754D01*
X59302238Y-111329452D01*
X59264215Y-111324446D01*
X59074741Y-111299500D01*
X59074734Y-111299500D01*
X58845266Y-111299500D01*
X58845258Y-111299500D01*
X58628715Y-111328009D01*
X58617762Y-111329452D01*
X58524076Y-111354554D01*
X58396112Y-111388842D01*
X58184123Y-111476650D01*
X58184109Y-111476657D01*
X57985382Y-111591392D01*
X57803338Y-111731081D01*
X57641081Y-111893338D01*
X57501392Y-112075382D01*
X57386657Y-112274109D01*
X57386650Y-112274123D01*
X57298842Y-112486112D01*
X57239453Y-112707759D01*
X57239451Y-112707770D01*
X57209500Y-112935258D01*
X57209500Y-113164741D01*
X57234446Y-113354215D01*
X57239452Y-113392238D01*
X57239453Y-113392240D01*
X57298842Y-113613887D01*
X57386650Y-113825876D01*
X57386657Y-113825890D01*
X57501392Y-114024617D01*
X57641081Y-114206661D01*
X57641089Y-114206670D01*
X57803330Y-114368911D01*
X57803338Y-114368918D01*
X57985382Y-114508607D01*
X57985385Y-114508608D01*
X57985388Y-114508611D01*
X58184112Y-114623344D01*
X58184117Y-114623346D01*
X58184123Y-114623349D01*
X58275480Y-114661190D01*
X58396113Y-114711158D01*
X58617762Y-114770548D01*
X58845266Y-114800500D01*
X58845273Y-114800500D01*
X59074727Y-114800500D01*
X59074734Y-114800500D01*
X59302238Y-114770548D01*
X59523887Y-114711158D01*
X59578050Y-114688722D01*
X59647516Y-114681254D01*
X59709995Y-114712528D01*
X59745648Y-114772617D01*
X59749500Y-114803284D01*
X59749500Y-115413553D01*
X59729815Y-115480592D01*
X59677011Y-115526347D01*
X59607853Y-115536291D01*
X59578050Y-115528115D01*
X59557169Y-115519466D01*
X59259542Y-115439717D01*
X58954069Y-115399501D01*
X58954066Y-115399500D01*
X58954060Y-115399500D01*
X58045940Y-115399500D01*
X58045934Y-115399500D01*
X58045930Y-115399501D01*
X57740457Y-115439717D01*
X57442837Y-115519464D01*
X57158173Y-115637376D01*
X57158162Y-115637381D01*
X56891325Y-115791441D01*
X56646884Y-115979007D01*
X56646877Y-115979013D01*
X56429013Y-116196877D01*
X56429007Y-116196884D01*
X56241441Y-116441325D01*
X56087381Y-116708162D01*
X56087376Y-116708173D01*
X55969464Y-116992837D01*
X55889717Y-117290457D01*
X55849501Y-117595930D01*
X55849500Y-117595946D01*
X55849500Y-117904053D01*
X55849501Y-117904069D01*
X55889717Y-118209542D01*
X55969464Y-118507162D01*
X56087376Y-118791826D01*
X56087381Y-118791837D01*
X56149821Y-118899985D01*
X56241438Y-119058670D01*
X56241440Y-119058673D01*
X56241441Y-119058674D01*
X56429007Y-119303115D01*
X56429013Y-119303122D01*
X56646877Y-119520986D01*
X56646884Y-119520992D01*
X56801611Y-119639718D01*
X56891330Y-119708562D01*
X56950310Y-119742614D01*
X56998524Y-119793181D01*
X57011746Y-119861788D01*
X56985778Y-119926652D01*
X56950310Y-119957385D01*
X56891330Y-119991438D01*
X56891327Y-119991439D01*
X56891322Y-119991443D01*
X56646884Y-120179007D01*
X56646877Y-120179013D01*
X56429013Y-120396877D01*
X56429007Y-120396884D01*
X56241441Y-120641325D01*
X56087381Y-120908162D01*
X56087376Y-120908173D01*
X55969464Y-121192837D01*
X55889717Y-121490457D01*
X55849501Y-121795930D01*
X55849500Y-121795946D01*
X55849500Y-122104053D01*
X55849501Y-122104069D01*
X55889717Y-122409542D01*
X55969464Y-122707162D01*
X56087376Y-122991826D01*
X56087381Y-122991837D01*
X56180014Y-123152280D01*
X56241438Y-123258670D01*
X56241440Y-123258673D01*
X56241441Y-123258674D01*
X56429007Y-123503115D01*
X56429013Y-123503122D01*
X56646877Y-123720986D01*
X56646883Y-123720991D01*
X56891330Y-123908562D01*
X57062830Y-124007578D01*
X57158162Y-124062618D01*
X57158167Y-124062620D01*
X57158170Y-124062622D01*
X57442836Y-124180535D01*
X57740456Y-124260282D01*
X58045940Y-124300500D01*
X58045947Y-124300500D01*
X58954053Y-124300500D01*
X58954060Y-124300500D01*
X59259544Y-124260282D01*
X59557164Y-124180535D01*
X59578047Y-124171884D01*
X59647514Y-124164415D01*
X59709994Y-124195688D01*
X59745648Y-124255776D01*
X59749500Y-124286445D01*
X59749500Y-124896715D01*
X59729815Y-124963754D01*
X59677011Y-125009509D01*
X59607853Y-125019453D01*
X59578048Y-125011276D01*
X59523887Y-124988842D01*
X59430256Y-124963754D01*
X59302238Y-124929452D01*
X59264215Y-124924446D01*
X59074741Y-124899500D01*
X59074734Y-124899500D01*
X58845266Y-124899500D01*
X58845258Y-124899500D01*
X58628715Y-124928009D01*
X58617762Y-124929452D01*
X58589880Y-124936923D01*
X58396112Y-124988842D01*
X58184123Y-125076650D01*
X58184109Y-125076657D01*
X57985382Y-125191392D01*
X57803338Y-125331081D01*
X57641081Y-125493338D01*
X57501392Y-125675382D01*
X57386657Y-125874109D01*
X57386650Y-125874123D01*
X57298842Y-126086112D01*
X57239453Y-126307759D01*
X57239451Y-126307770D01*
X57209500Y-126535258D01*
X57209500Y-126764741D01*
X57230950Y-126927660D01*
X57239452Y-126992238D01*
X57287875Y-127172957D01*
X57298842Y-127213887D01*
X57386650Y-127425876D01*
X57386657Y-127425890D01*
X57501392Y-127624617D01*
X57641081Y-127806661D01*
X57641089Y-127806670D01*
X57803330Y-127968911D01*
X57803338Y-127968918D01*
X57803339Y-127968919D01*
X57853962Y-128007764D01*
X57985382Y-128108607D01*
X57985385Y-128108608D01*
X57985388Y-128108611D01*
X58184112Y-128223344D01*
X58184117Y-128223346D01*
X58184123Y-128223349D01*
X58275480Y-128261190D01*
X58396113Y-128311158D01*
X58617762Y-128370548D01*
X58845266Y-128400500D01*
X58845273Y-128400500D01*
X59074727Y-128400500D01*
X59074734Y-128400500D01*
X59302238Y-128370548D01*
X59523887Y-128311158D01*
X59578050Y-128288722D01*
X59647516Y-128281254D01*
X59709995Y-128312528D01*
X59745648Y-128372617D01*
X59749500Y-128403284D01*
X59749500Y-130330145D01*
X59729815Y-130397184D01*
X59677011Y-130442939D01*
X59607853Y-130452883D01*
X59578053Y-130444708D01*
X59563905Y-130438848D01*
X59563890Y-130438843D01*
X59563887Y-130438842D01*
X59342238Y-130379452D01*
X59304215Y-130374446D01*
X59114741Y-130349500D01*
X59114734Y-130349500D01*
X58885266Y-130349500D01*
X58885258Y-130349500D01*
X58668715Y-130378009D01*
X58657762Y-130379452D01*
X58591585Y-130397184D01*
X58436112Y-130438842D01*
X58224123Y-130526650D01*
X58224109Y-130526657D01*
X58025382Y-130641392D01*
X57843338Y-130781081D01*
X57681081Y-130943338D01*
X57541392Y-131125382D01*
X57426657Y-131324109D01*
X57426650Y-131324123D01*
X57338842Y-131536112D01*
X57279453Y-131757759D01*
X57279451Y-131757770D01*
X57249500Y-131985258D01*
X57249500Y-132214741D01*
X57274446Y-132404215D01*
X57279452Y-132442238D01*
X57279453Y-132442240D01*
X57338842Y-132663887D01*
X57426650Y-132875876D01*
X57426657Y-132875890D01*
X57541392Y-133074617D01*
X57681081Y-133256661D01*
X57681089Y-133256670D01*
X57843330Y-133418911D01*
X57843338Y-133418918D01*
X58025382Y-133558607D01*
X58025385Y-133558608D01*
X58025388Y-133558611D01*
X58224112Y-133673344D01*
X58224117Y-133673346D01*
X58224123Y-133673349D01*
X58315480Y-133711190D01*
X58436113Y-133761158D01*
X58657762Y-133820548D01*
X58885266Y-133850500D01*
X58885273Y-133850500D01*
X59068110Y-133850500D01*
X59135149Y-133870185D01*
X59180904Y-133922989D01*
X59190848Y-133992147D01*
X59161823Y-134055703D01*
X59155791Y-134062181D01*
X58804792Y-134413181D01*
X58743469Y-134446666D01*
X58717111Y-134449500D01*
X58085940Y-134449500D01*
X58085934Y-134449500D01*
X58085930Y-134449501D01*
X57780457Y-134489717D01*
X57482837Y-134569464D01*
X57198173Y-134687376D01*
X57198162Y-134687381D01*
X56931325Y-134841441D01*
X56686884Y-135029007D01*
X56686877Y-135029013D01*
X56469013Y-135246877D01*
X56469007Y-135246884D01*
X56281441Y-135491325D01*
X56127381Y-135758162D01*
X56127376Y-135758173D01*
X56009464Y-136042837D01*
X55929717Y-136340457D01*
X55889501Y-136645930D01*
X55889500Y-136645946D01*
X55889500Y-136954053D01*
X55889501Y-136954070D01*
X55925076Y-137224287D01*
X55914310Y-137293322D01*
X55889819Y-137328153D01*
X55605482Y-137612491D01*
X55466659Y-137803562D01*
X55466658Y-137803564D01*
X55447161Y-137841830D01*
X55359433Y-138014003D01*
X55286446Y-138238631D01*
X55249500Y-138471902D01*
X55249500Y-144411241D01*
X55246834Y-144433762D01*
X55247209Y-144433822D01*
X55209500Y-144671903D01*
X55209500Y-150828097D01*
X55246446Y-151061368D01*
X55319433Y-151285996D01*
X55426657Y-151496434D01*
X55565484Y-151687511D01*
X55849818Y-151971845D01*
X55883303Y-152033168D01*
X55885076Y-152075711D01*
X55849501Y-152345929D01*
X55849500Y-152345946D01*
X55849500Y-152654053D01*
X55849501Y-152654069D01*
X55889717Y-152959542D01*
X55969464Y-153257162D01*
X56087376Y-153541826D01*
X56087381Y-153541837D01*
X56158040Y-153664221D01*
X56241438Y-153808670D01*
X56241440Y-153808673D01*
X56241441Y-153808674D01*
X56429007Y-154053115D01*
X56429013Y-154053122D01*
X56646877Y-154270986D01*
X56646883Y-154270991D01*
X56891330Y-154458562D01*
X57062830Y-154557578D01*
X57158162Y-154612618D01*
X57158167Y-154612620D01*
X57158170Y-154612622D01*
X57442836Y-154730535D01*
X57740456Y-154810282D01*
X58045940Y-154850500D01*
X58045947Y-154850500D01*
X58954053Y-154850500D01*
X58954060Y-154850500D01*
X59259544Y-154810282D01*
X59557164Y-154730535D01*
X59841830Y-154612622D01*
X60108670Y-154458562D01*
X60353117Y-154270991D01*
X60570991Y-154053117D01*
X60758562Y-153808670D01*
X60912622Y-153541830D01*
X61030535Y-153257164D01*
X61105725Y-152976547D01*
X61142090Y-152916888D01*
X61204937Y-152886359D01*
X61274312Y-152894654D01*
X61328190Y-152939139D01*
X61349465Y-153005691D01*
X61349500Y-153008642D01*
X61349500Y-153664221D01*
X61359904Y-153796412D01*
X61359905Y-153796419D01*
X61414902Y-154014678D01*
X61414903Y-154014681D01*
X61507991Y-154219622D01*
X61507997Y-154219632D01*
X61636174Y-154404645D01*
X61636178Y-154404650D01*
X61636181Y-154404654D01*
X61795346Y-154563819D01*
X61795350Y-154563822D01*
X61795354Y-154563825D01*
X61865790Y-154612623D01*
X61980374Y-154692007D01*
X62185317Y-154785096D01*
X62185321Y-154785097D01*
X62403580Y-154840094D01*
X62403582Y-154840094D01*
X62403589Y-154840096D01*
X62535784Y-154850500D01*
X62535792Y-154850500D01*
X65464208Y-154850500D01*
X65464216Y-154850500D01*
X65596411Y-154840096D01*
X65814683Y-154785096D01*
X66019626Y-154692007D01*
X66204654Y-154563819D01*
X66363819Y-154404654D01*
X66492007Y-154219626D01*
X66585096Y-154014683D01*
X66640096Y-153796411D01*
X66650500Y-153664216D01*
X66650500Y-152022889D01*
X66670185Y-151955850D01*
X66686819Y-151935208D01*
X69847415Y-148774612D01*
X73381170Y-145240857D01*
X73519996Y-145049781D01*
X73627221Y-144839339D01*
X73694619Y-144631909D01*
X73694620Y-144631909D01*
X73694620Y-144631904D01*
X73700206Y-144614715D01*
X73723975Y-144464641D01*
X73737153Y-144381444D01*
X73737153Y-143799995D01*
X75645093Y-143799995D01*
X75645093Y-143800004D01*
X75664692Y-144061545D01*
X75664693Y-144061550D01*
X75723058Y-144317270D01*
X75818883Y-144561426D01*
X75818882Y-144561426D01*
X75950027Y-144788573D01*
X75997874Y-144848571D01*
X76722421Y-144124024D01*
X76735359Y-144155258D01*
X76817437Y-144278097D01*
X76921903Y-144382563D01*
X77044742Y-144464641D01*
X77075974Y-144477577D01*
X76350830Y-145202720D01*
X76522546Y-145319793D01*
X76522550Y-145319795D01*
X76758854Y-145433594D01*
X76758858Y-145433595D01*
X77009494Y-145510907D01*
X77009500Y-145510909D01*
X77268848Y-145549999D01*
X77268857Y-145550000D01*
X77531143Y-145550000D01*
X77531151Y-145549999D01*
X77790499Y-145510909D01*
X77790505Y-145510907D01*
X78041143Y-145433595D01*
X78277445Y-145319798D01*
X78277447Y-145319797D01*
X78449168Y-145202720D01*
X77724025Y-144477578D01*
X77755258Y-144464641D01*
X77878097Y-144382563D01*
X77982563Y-144278097D01*
X78064641Y-144155258D01*
X78077578Y-144124025D01*
X78802125Y-144848572D01*
X78849971Y-144788573D01*
X78981116Y-144561426D01*
X79076941Y-144317270D01*
X79135306Y-144061550D01*
X79135307Y-144061545D01*
X79154907Y-143800004D01*
X79154907Y-143799995D01*
X79135307Y-143538454D01*
X79135306Y-143538449D01*
X79076941Y-143282729D01*
X78981116Y-143038573D01*
X78981117Y-143038573D01*
X78849972Y-142811426D01*
X78802124Y-142751427D01*
X78077577Y-143475973D01*
X78064641Y-143444742D01*
X77982563Y-143321903D01*
X77878097Y-143217437D01*
X77755258Y-143135359D01*
X77724025Y-143122421D01*
X78449168Y-142397278D01*
X78277454Y-142280206D01*
X78277445Y-142280201D01*
X78041142Y-142166404D01*
X78041144Y-142166404D01*
X77790505Y-142089092D01*
X77790499Y-142089090D01*
X77531151Y-142050000D01*
X77268848Y-142050000D01*
X77009500Y-142089090D01*
X77009494Y-142089092D01*
X76758858Y-142166404D01*
X76758854Y-142166405D01*
X76522547Y-142280205D01*
X76522539Y-142280210D01*
X76350830Y-142397277D01*
X77075974Y-143122421D01*
X77044742Y-143135359D01*
X76921903Y-143217437D01*
X76817437Y-143321903D01*
X76735359Y-143444742D01*
X76722422Y-143475974D01*
X75997874Y-142751427D01*
X75950028Y-142811425D01*
X75818883Y-143038573D01*
X75723058Y-143282729D01*
X75664693Y-143538449D01*
X75664692Y-143538454D01*
X75645093Y-143799995D01*
X73737153Y-143799995D01*
X73737153Y-138569999D01*
X75312192Y-138569999D01*
X75312193Y-138570000D01*
X76637639Y-138570000D01*
X76630743Y-138586649D01*
X76600000Y-138741207D01*
X76600000Y-138898793D01*
X76630743Y-139053351D01*
X76637639Y-139070000D01*
X75312193Y-139070000D01*
X75314697Y-139106619D01*
X75373146Y-139387888D01*
X75373150Y-139387902D01*
X75469355Y-139658595D01*
X75601527Y-139913676D01*
X75767204Y-140148385D01*
X75767204Y-140148386D01*
X75963288Y-140358341D01*
X76186135Y-140539641D01*
X76186146Y-140539648D01*
X76431607Y-140688917D01*
X76695108Y-140803371D01*
X76971737Y-140880879D01*
X76971746Y-140880881D01*
X77149999Y-140905380D01*
X77150000Y-140905380D01*
X77150000Y-139582360D01*
X77166649Y-139589257D01*
X77321207Y-139620000D01*
X77478793Y-139620000D01*
X77633351Y-139589257D01*
X77650000Y-139582360D01*
X77650000Y-140905380D01*
X77828253Y-140880881D01*
X77828262Y-140880879D01*
X78104891Y-140803371D01*
X78368392Y-140688917D01*
X78613853Y-140539648D01*
X78613864Y-140539641D01*
X78836711Y-140358341D01*
X79032795Y-140148386D01*
X79032795Y-140148385D01*
X79198472Y-139913676D01*
X79330644Y-139658595D01*
X79426849Y-139387902D01*
X79426853Y-139387888D01*
X79485302Y-139106619D01*
X79487807Y-139070000D01*
X78162361Y-139070000D01*
X78169257Y-139053351D01*
X78200000Y-138898793D01*
X78200000Y-138741207D01*
X78169257Y-138586649D01*
X78162361Y-138570000D01*
X79487807Y-138570000D01*
X79487807Y-138569999D01*
X79485302Y-138533380D01*
X79426853Y-138252111D01*
X79426849Y-138252097D01*
X79330644Y-137981404D01*
X79198472Y-137726323D01*
X79032795Y-137491614D01*
X79032795Y-137491613D01*
X78836711Y-137281658D01*
X78613864Y-137100358D01*
X78613853Y-137100351D01*
X78368392Y-136951082D01*
X78104891Y-136836628D01*
X77828262Y-136759120D01*
X77828255Y-136759119D01*
X77650000Y-136734618D01*
X77650000Y-138057639D01*
X77633351Y-138050743D01*
X77478793Y-138020000D01*
X77321207Y-138020000D01*
X77166649Y-138050743D01*
X77150000Y-138057639D01*
X77150000Y-136734618D01*
X76971744Y-136759119D01*
X76971737Y-136759120D01*
X76695108Y-136836628D01*
X76431607Y-136951082D01*
X76186146Y-137100351D01*
X76186135Y-137100358D01*
X75963288Y-137281658D01*
X75767204Y-137491613D01*
X75767204Y-137491614D01*
X75601527Y-137726323D01*
X75469355Y-137981404D01*
X75373150Y-138252097D01*
X75373146Y-138252111D01*
X75314697Y-138533380D01*
X75312192Y-138569999D01*
X73737153Y-138569999D01*
X73737153Y-134605683D01*
X86949500Y-134605683D01*
X86949500Y-134994316D01*
X86983371Y-135381462D01*
X86983371Y-135381466D01*
X87050853Y-135764172D01*
X87050857Y-135764189D01*
X87151435Y-136139555D01*
X87151438Y-136139565D01*
X87151439Y-136139566D01*
X87271134Y-136468426D01*
X87284362Y-136504768D01*
X87448587Y-136856952D01*
X87448600Y-136856976D01*
X87642905Y-137193521D01*
X87642914Y-137193536D01*
X87865821Y-137511880D01*
X88045761Y-137726323D01*
X88115621Y-137809579D01*
X88390421Y-138084379D01*
X88419370Y-138108670D01*
X88688119Y-138334178D01*
X88688125Y-138334182D01*
X88688126Y-138334183D01*
X89006470Y-138557090D01*
X89167395Y-138650000D01*
X89343023Y-138751399D01*
X89343047Y-138751412D01*
X89695231Y-138915637D01*
X89695236Y-138915638D01*
X89695245Y-138915643D01*
X90060434Y-139048561D01*
X90060440Y-139048562D01*
X90060444Y-139048564D01*
X90078310Y-139053351D01*
X90435818Y-139149145D01*
X90818540Y-139216629D01*
X91205685Y-139250499D01*
X91205686Y-139250500D01*
X91205687Y-139250500D01*
X91594314Y-139250500D01*
X91594314Y-139250499D01*
X91981460Y-139216629D01*
X92364182Y-139149145D01*
X92739566Y-139048561D01*
X93104755Y-138915643D01*
X93104768Y-138915637D01*
X93456952Y-138751412D01*
X93456960Y-138751407D01*
X93456970Y-138751403D01*
X93793530Y-138557090D01*
X94111874Y-138334183D01*
X94409579Y-138084379D01*
X94684379Y-137809579D01*
X94934183Y-137511874D01*
X95157090Y-137193530D01*
X95351403Y-136856970D01*
X95351407Y-136856960D01*
X95351412Y-136856952D01*
X95515637Y-136504768D01*
X95515637Y-136504767D01*
X95515643Y-136504755D01*
X95648561Y-136139566D01*
X95749145Y-135764182D01*
X95816629Y-135381460D01*
X95850500Y-134994313D01*
X95850500Y-134605687D01*
X95816629Y-134218540D01*
X95749145Y-133835818D01*
X95675954Y-133562666D01*
X95648564Y-133460444D01*
X95648562Y-133460440D01*
X95648561Y-133460434D01*
X95515643Y-133095245D01*
X95515638Y-133095236D01*
X95515637Y-133095231D01*
X95351412Y-132743047D01*
X95351399Y-132743023D01*
X95305710Y-132663887D01*
X95157090Y-132406470D01*
X94934183Y-132088126D01*
X94934182Y-132088125D01*
X94934178Y-132088119D01*
X94684376Y-131790418D01*
X94409581Y-131515623D01*
X94111880Y-131265821D01*
X93793536Y-131042914D01*
X93793533Y-131042912D01*
X93793530Y-131042910D01*
X93621066Y-130943338D01*
X93456976Y-130848600D01*
X93456952Y-130848587D01*
X93104768Y-130684362D01*
X93104757Y-130684358D01*
X93104755Y-130684357D01*
X92739566Y-130551439D01*
X92739565Y-130551438D01*
X92739555Y-130551435D01*
X92403850Y-130461484D01*
X92364182Y-130450855D01*
X92364176Y-130450853D01*
X92364172Y-130450853D01*
X91981464Y-130383371D01*
X91594316Y-130349500D01*
X91594313Y-130349500D01*
X91205687Y-130349500D01*
X91205683Y-130349500D01*
X90818537Y-130383371D01*
X90818533Y-130383371D01*
X90435827Y-130450853D01*
X90435810Y-130450857D01*
X90060444Y-130551435D01*
X89695231Y-130684362D01*
X89343047Y-130848587D01*
X89343023Y-130848600D01*
X89006478Y-131042905D01*
X89006463Y-131042914D01*
X88688119Y-131265821D01*
X88390418Y-131515623D01*
X88115623Y-131790418D01*
X87865821Y-132088119D01*
X87642914Y-132406463D01*
X87642905Y-132406478D01*
X87448600Y-132743023D01*
X87448587Y-132743047D01*
X87284362Y-133095231D01*
X87151435Y-133460444D01*
X87050857Y-133835810D01*
X87050853Y-133835827D01*
X86983371Y-134218533D01*
X86983371Y-134218537D01*
X86949500Y-134605683D01*
X73737153Y-134605683D01*
X73737153Y-129541966D01*
X74799500Y-129541966D01*
X74799500Y-132858028D01*
X74799501Y-132858034D01*
X74810113Y-132977415D01*
X74866089Y-133173045D01*
X74866090Y-133173048D01*
X74866091Y-133173049D01*
X74960302Y-133353407D01*
X74960304Y-133353409D01*
X75088890Y-133511109D01*
X75182803Y-133587684D01*
X75246593Y-133639698D01*
X75426951Y-133733909D01*
X75622582Y-133789886D01*
X75741963Y-133800500D01*
X79058036Y-133800499D01*
X79177418Y-133789886D01*
X79373049Y-133733909D01*
X79553407Y-133639698D01*
X79711109Y-133511109D01*
X79839698Y-133353407D01*
X79933909Y-133173049D01*
X79989886Y-132977418D01*
X80000500Y-132858037D01*
X80000499Y-129541964D01*
X79989886Y-129422582D01*
X79933909Y-129226951D01*
X79839698Y-129046593D01*
X79787684Y-128982803D01*
X79711109Y-128888890D01*
X79553409Y-128760304D01*
X79553410Y-128760304D01*
X79553407Y-128760302D01*
X79373049Y-128666091D01*
X79373048Y-128666090D01*
X79373045Y-128666089D01*
X79255829Y-128632550D01*
X79177418Y-128610114D01*
X79177415Y-128610113D01*
X79177413Y-128610113D01*
X79111102Y-128604217D01*
X79058037Y-128599500D01*
X79058032Y-128599500D01*
X75741971Y-128599500D01*
X75741965Y-128599500D01*
X75741964Y-128599501D01*
X75730316Y-128600536D01*
X75622584Y-128610113D01*
X75426954Y-128666089D01*
X75336772Y-128713196D01*
X75246593Y-128760302D01*
X75246591Y-128760303D01*
X75246590Y-128760304D01*
X75088890Y-128888890D01*
X74960304Y-129046590D01*
X74866089Y-129226954D01*
X74810114Y-129422583D01*
X74810113Y-129422586D01*
X74799500Y-129541966D01*
X73737153Y-129541966D01*
X73737153Y-125799992D01*
X75144671Y-125799992D01*
X75144671Y-125800007D01*
X75163964Y-126094363D01*
X75163965Y-126094373D01*
X75163966Y-126094380D01*
X75206411Y-126307770D01*
X75221518Y-126383716D01*
X75221521Y-126383730D01*
X75316349Y-126663080D01*
X75446825Y-126927660D01*
X75446829Y-126927667D01*
X75610725Y-127172955D01*
X75805241Y-127394758D01*
X76027044Y-127589274D01*
X76079939Y-127624617D01*
X76272335Y-127753172D01*
X76536923Y-127883652D01*
X76816278Y-127978481D01*
X77105620Y-128036034D01*
X77133888Y-128037886D01*
X77399993Y-128055329D01*
X77400000Y-128055329D01*
X77400007Y-128055329D01*
X77635675Y-128039881D01*
X77694380Y-128036034D01*
X77983722Y-127978481D01*
X78263077Y-127883652D01*
X78527665Y-127753172D01*
X78772957Y-127589273D01*
X78994758Y-127394758D01*
X79189273Y-127172957D01*
X79353172Y-126927665D01*
X79483652Y-126663077D01*
X79578481Y-126383722D01*
X79636034Y-126094380D01*
X79650471Y-125874123D01*
X79655329Y-125800007D01*
X79655329Y-125799992D01*
X79636035Y-125505636D01*
X79636034Y-125505620D01*
X79578481Y-125216278D01*
X79483652Y-124936923D01*
X79353172Y-124672336D01*
X79189273Y-124427043D01*
X79146655Y-124378447D01*
X78994758Y-124205241D01*
X78772955Y-124010725D01*
X78527667Y-123846829D01*
X78527660Y-123846825D01*
X78263080Y-123716349D01*
X77983730Y-123621521D01*
X77983724Y-123621519D01*
X77983722Y-123621519D01*
X77694380Y-123563966D01*
X77694373Y-123563965D01*
X77694363Y-123563964D01*
X77400007Y-123544671D01*
X77399993Y-123544671D01*
X77105636Y-123563964D01*
X77105624Y-123563965D01*
X77105620Y-123563966D01*
X77105612Y-123563967D01*
X77105609Y-123563968D01*
X76816283Y-123621518D01*
X76816269Y-123621521D01*
X76536919Y-123716349D01*
X76272334Y-123846828D01*
X76027041Y-124010728D01*
X75805241Y-124205241D01*
X75610728Y-124427041D01*
X75446828Y-124672334D01*
X75316349Y-124936919D01*
X75221521Y-125216269D01*
X75221518Y-125216283D01*
X75163968Y-125505609D01*
X75163964Y-125505636D01*
X75144671Y-125799992D01*
X73737153Y-125799992D01*
X73737153Y-112277853D01*
X73756838Y-112210814D01*
X73809642Y-112165059D01*
X73861153Y-112153853D01*
X73913243Y-112153853D01*
X74136146Y-112116656D01*
X74349877Y-112043282D01*
X74349892Y-112043275D01*
X74548620Y-111935728D01*
X74548630Y-111935721D01*
X74573112Y-111916666D01*
X74573113Y-111916665D01*
X74016822Y-111360374D01*
X74089007Y-111330474D01*
X74188851Y-111263761D01*
X74273761Y-111178851D01*
X74340474Y-111079007D01*
X74370374Y-111006822D01*
X74925140Y-111561588D01*
X75003612Y-111441480D01*
X75094389Y-111234531D01*
X75149864Y-111015466D01*
X75149866Y-111015455D01*
X75168526Y-110790259D01*
X75168526Y-110790246D01*
X75149866Y-110565050D01*
X75149864Y-110565039D01*
X75094389Y-110345974D01*
X75003614Y-110139030D01*
X74925140Y-110018916D01*
X74370373Y-110573683D01*
X74340474Y-110501499D01*
X74273761Y-110401655D01*
X74188851Y-110316745D01*
X74089007Y-110250032D01*
X74016820Y-110220131D01*
X74573112Y-109663839D01*
X74573112Y-109663837D01*
X74548635Y-109644786D01*
X74548629Y-109644782D01*
X74349883Y-109537225D01*
X74349877Y-109537223D01*
X74136146Y-109463849D01*
X73913243Y-109426653D01*
X73861153Y-109426653D01*
X73794114Y-109406968D01*
X73748359Y-109354164D01*
X73737153Y-109302653D01*
X73737153Y-105406741D01*
X73756838Y-105339702D01*
X73773468Y-105319064D01*
X74048425Y-105044106D01*
X74109743Y-105010624D01*
X74326772Y-104963413D01*
X74576606Y-104870230D01*
X74810636Y-104742440D01*
X75024097Y-104582645D01*
X75212645Y-104394097D01*
X75372440Y-104180636D01*
X75500230Y-103946606D01*
X75593413Y-103696772D01*
X75650093Y-103436220D01*
X75669115Y-103170253D01*
X75650093Y-102904286D01*
X75593413Y-102643734D01*
X75500230Y-102393900D01*
X75372440Y-102159870D01*
X75372438Y-102159867D01*
X75212651Y-101946416D01*
X75212635Y-101946398D01*
X75024107Y-101757870D01*
X75024089Y-101757854D01*
X74810638Y-101598067D01*
X74810630Y-101598062D01*
X74576611Y-101470278D01*
X74576607Y-101470276D01*
X74481890Y-101434948D01*
X74326772Y-101377093D01*
X74326768Y-101377092D01*
X74326765Y-101377091D01*
X74066225Y-101320413D01*
X73800254Y-101301391D01*
X73800252Y-101301391D01*
X73534280Y-101320413D01*
X73273740Y-101377091D01*
X73273735Y-101377092D01*
X73273734Y-101377093D01*
X73213331Y-101399621D01*
X73023898Y-101470276D01*
X73023894Y-101470278D01*
X72789875Y-101598062D01*
X72789867Y-101598067D01*
X72576416Y-101757854D01*
X72576398Y-101757870D01*
X72387870Y-101946398D01*
X72387854Y-101946416D01*
X72228067Y-102159867D01*
X72228062Y-102159875D01*
X72100278Y-102393894D01*
X72100276Y-102393898D01*
X72007091Y-102643739D01*
X71959881Y-102860759D01*
X71926396Y-102922081D01*
X71092138Y-103756340D01*
X71092137Y-103756341D01*
X70953310Y-103947418D01*
X70953307Y-103947423D01*
X70948588Y-103956686D01*
X70948588Y-103956687D01*
X70846086Y-104157856D01*
X70773099Y-104382484D01*
X70736153Y-104615755D01*
X70736153Y-143590458D01*
X70716468Y-143657497D01*
X70699834Y-143678139D01*
X64264792Y-150113181D01*
X64203469Y-150146666D01*
X64177111Y-150149500D01*
X62535778Y-150149500D01*
X62403587Y-150159904D01*
X62403580Y-150159905D01*
X62185321Y-150214902D01*
X62185318Y-150214903D01*
X61980377Y-150307991D01*
X61980367Y-150307997D01*
X61795354Y-150436174D01*
X61795342Y-150436184D01*
X61636184Y-150595342D01*
X61636174Y-150595354D01*
X61507997Y-150780367D01*
X61507991Y-150780377D01*
X61414903Y-150985318D01*
X61414902Y-150985321D01*
X61359905Y-151203580D01*
X61359904Y-151203587D01*
X61349500Y-151335778D01*
X61349500Y-151991357D01*
X61329815Y-152058396D01*
X61277011Y-152104151D01*
X61207853Y-152114095D01*
X61144297Y-152085070D01*
X61106523Y-152026292D01*
X61105725Y-152023450D01*
X61105575Y-152022889D01*
X61030535Y-151742836D01*
X60912622Y-151458170D01*
X60912620Y-151458167D01*
X60912618Y-151458162D01*
X60813215Y-151285992D01*
X60758562Y-151191330D01*
X60600483Y-150985318D01*
X60570992Y-150946884D01*
X60570986Y-150946877D01*
X60353122Y-150729013D01*
X60353115Y-150729007D01*
X60108674Y-150541441D01*
X60108673Y-150541440D01*
X60108670Y-150541438D01*
X59926365Y-150436184D01*
X59841837Y-150387381D01*
X59841826Y-150387376D01*
X59557162Y-150269464D01*
X59259542Y-150189717D01*
X58954069Y-150149501D01*
X58954066Y-150149500D01*
X58954060Y-150149500D01*
X58954053Y-150149500D01*
X58334500Y-150149500D01*
X58267461Y-150129815D01*
X58221706Y-150077011D01*
X58210500Y-150025500D01*
X58210500Y-149569853D01*
X58230185Y-149502814D01*
X58282989Y-149457059D01*
X58352147Y-149447115D01*
X58381951Y-149455291D01*
X58396113Y-149461158D01*
X58617762Y-149520548D01*
X58845266Y-149550500D01*
X58845273Y-149550500D01*
X59074727Y-149550500D01*
X59074734Y-149550500D01*
X59302238Y-149520548D01*
X59523887Y-149461158D01*
X59735888Y-149373344D01*
X59934612Y-149258611D01*
X60116661Y-149118919D01*
X60116665Y-149118914D01*
X60116670Y-149118911D01*
X60278911Y-148956670D01*
X60278914Y-148956665D01*
X60278919Y-148956661D01*
X60418611Y-148774612D01*
X60533344Y-148575888D01*
X60621158Y-148363887D01*
X60680548Y-148142238D01*
X60710500Y-147914734D01*
X60710500Y-147685266D01*
X60680548Y-147457762D01*
X60621158Y-147236113D01*
X60533344Y-147024112D01*
X60418611Y-146825388D01*
X60418608Y-146825385D01*
X60418607Y-146825382D01*
X60278918Y-146643338D01*
X60278911Y-146643330D01*
X60116670Y-146481089D01*
X60116661Y-146481081D01*
X59934617Y-146341392D01*
X59735890Y-146226657D01*
X59735876Y-146226650D01*
X59523887Y-146138842D01*
X59302238Y-146079452D01*
X59264215Y-146074446D01*
X59074741Y-146049500D01*
X59074734Y-146049500D01*
X58845266Y-146049500D01*
X58845258Y-146049500D01*
X58628715Y-146078009D01*
X58617762Y-146079452D01*
X58463089Y-146120896D01*
X58396113Y-146138842D01*
X58396094Y-146138848D01*
X58381947Y-146144708D01*
X58312478Y-146152174D01*
X58250000Y-146120896D01*
X58214350Y-146060805D01*
X58210500Y-146030145D01*
X58210500Y-145128760D01*
X58213166Y-145106240D01*
X58212791Y-145106181D01*
X58250500Y-144868097D01*
X58250500Y-143269853D01*
X58270185Y-143202814D01*
X58322989Y-143157059D01*
X58392147Y-143147115D01*
X58421951Y-143155291D01*
X58436113Y-143161158D01*
X58657762Y-143220548D01*
X58885266Y-143250500D01*
X58885273Y-143250500D01*
X59114727Y-143250500D01*
X59114734Y-143250500D01*
X59342238Y-143220548D01*
X59563887Y-143161158D01*
X59775888Y-143073344D01*
X59974612Y-142958611D01*
X60156661Y-142818919D01*
X60156665Y-142818914D01*
X60156670Y-142818911D01*
X60318911Y-142656670D01*
X60318914Y-142656665D01*
X60318919Y-142656661D01*
X60458611Y-142474612D01*
X60573344Y-142275888D01*
X60661158Y-142063887D01*
X60720548Y-141842238D01*
X60750500Y-141614734D01*
X60750500Y-141385266D01*
X60720548Y-141157762D01*
X60661158Y-140936113D01*
X60573344Y-140724112D01*
X60458611Y-140525388D01*
X60458608Y-140525385D01*
X60458607Y-140525382D01*
X60357764Y-140393962D01*
X60318919Y-140343339D01*
X60318918Y-140343338D01*
X60318911Y-140343330D01*
X60156670Y-140181089D01*
X60156661Y-140181081D01*
X59974617Y-140041392D01*
X59775890Y-139926657D01*
X59775876Y-139926650D01*
X59563887Y-139838842D01*
X59342238Y-139779452D01*
X59304215Y-139774446D01*
X59114741Y-139749500D01*
X59114734Y-139749500D01*
X58885266Y-139749500D01*
X58885258Y-139749500D01*
X58668715Y-139778009D01*
X58657762Y-139779452D01*
X58503089Y-139820896D01*
X58436113Y-139838842D01*
X58436094Y-139838848D01*
X58421947Y-139844708D01*
X58352478Y-139852174D01*
X58290000Y-139820896D01*
X58254350Y-139760805D01*
X58250500Y-139730145D01*
X58250500Y-139274500D01*
X58270185Y-139207461D01*
X58322989Y-139161706D01*
X58374500Y-139150500D01*
X58994053Y-139150500D01*
X58994060Y-139150500D01*
X59299544Y-139110282D01*
X59597164Y-139030535D01*
X59881830Y-138912622D01*
X60148670Y-138758562D01*
X60393117Y-138570991D01*
X60610991Y-138353117D01*
X60798562Y-138108670D01*
X60952622Y-137841830D01*
X61070535Y-137557164D01*
X61150282Y-137259544D01*
X61190500Y-136954060D01*
X61190500Y-136645940D01*
X61154923Y-136375709D01*
X61165688Y-136306675D01*
X61190178Y-136271847D01*
X61678320Y-135783705D01*
X61739642Y-135750222D01*
X61809334Y-135755206D01*
X61865267Y-135797078D01*
X61889684Y-135862542D01*
X61890000Y-135871388D01*
X61890000Y-136550000D01*
X63385879Y-136550000D01*
X63366901Y-136595818D01*
X63340000Y-136731056D01*
X63340000Y-136868944D01*
X63366901Y-137004182D01*
X63385879Y-137050000D01*
X61890000Y-137050000D01*
X61890000Y-137949985D01*
X61900493Y-138052689D01*
X61900494Y-138052696D01*
X61955641Y-138219118D01*
X61955643Y-138219123D01*
X62047684Y-138368344D01*
X62171655Y-138492315D01*
X62320876Y-138584356D01*
X62320881Y-138584358D01*
X62487303Y-138639505D01*
X62487310Y-138639506D01*
X62590014Y-138649999D01*
X62590027Y-138650000D01*
X63790000Y-138650000D01*
X63790000Y-137454120D01*
X63835818Y-137473099D01*
X63971056Y-137500000D01*
X64108944Y-137500000D01*
X64244182Y-137473099D01*
X64290000Y-137454120D01*
X64290000Y-138650000D01*
X65489973Y-138650000D01*
X65489985Y-138649999D01*
X65592689Y-138639506D01*
X65592696Y-138639505D01*
X65759118Y-138584358D01*
X65759123Y-138584356D01*
X65908344Y-138492315D01*
X66032315Y-138368344D01*
X66124356Y-138219123D01*
X66124358Y-138219118D01*
X66179505Y-138052696D01*
X66179506Y-138052689D01*
X66189999Y-137949985D01*
X66190000Y-137949972D01*
X66190000Y-137050000D01*
X64694121Y-137050000D01*
X64713099Y-137004182D01*
X64740000Y-136868944D01*
X64740000Y-136731056D01*
X64713099Y-136595818D01*
X64694121Y-136550000D01*
X66190000Y-136550000D01*
X66190000Y-135650027D01*
X66189999Y-135650014D01*
X66179506Y-135547310D01*
X66179505Y-135547303D01*
X66124358Y-135380881D01*
X66124356Y-135380876D01*
X66032315Y-135231655D01*
X65908344Y-135107684D01*
X65759123Y-135015643D01*
X65759118Y-135015641D01*
X65592696Y-134960494D01*
X65592689Y-134960493D01*
X65489985Y-134950000D01*
X64290000Y-134950000D01*
X64290000Y-136145879D01*
X64244182Y-136126901D01*
X64108944Y-136100000D01*
X63971056Y-136100000D01*
X63835818Y-136126901D01*
X63790000Y-136145879D01*
X63790000Y-134950000D01*
X62698209Y-134950000D01*
X62631170Y-134930315D01*
X62585415Y-134877511D01*
X62575471Y-134808353D01*
X62587724Y-134769705D01*
X62602987Y-134739748D01*
X62640568Y-134665992D01*
X62713553Y-134441368D01*
X62718017Y-134413181D01*
X62750500Y-134208097D01*
X62750500Y-124286445D01*
X62770185Y-124219406D01*
X62822989Y-124173651D01*
X62892147Y-124163707D01*
X62921949Y-124171883D01*
X62942836Y-124180535D01*
X63240456Y-124260282D01*
X63545940Y-124300500D01*
X63545947Y-124300500D01*
X64454053Y-124300500D01*
X64454060Y-124300500D01*
X64759544Y-124260282D01*
X65057164Y-124180535D01*
X65341830Y-124062622D01*
X65608670Y-123908562D01*
X65853117Y-123720991D01*
X66070991Y-123503117D01*
X66258562Y-123258670D01*
X66412622Y-122991830D01*
X66530535Y-122707164D01*
X66610282Y-122409544D01*
X66650500Y-122104060D01*
X66650500Y-121795940D01*
X66610282Y-121490456D01*
X66530535Y-121192836D01*
X66412622Y-120908170D01*
X66412620Y-120908167D01*
X66412618Y-120908162D01*
X66357578Y-120812830D01*
X66258562Y-120641330D01*
X66070991Y-120396883D01*
X66070986Y-120396877D01*
X65853122Y-120179013D01*
X65853115Y-120179007D01*
X65608674Y-119991441D01*
X65608673Y-119991440D01*
X65608670Y-119991438D01*
X65496457Y-119926652D01*
X65341837Y-119837381D01*
X65338190Y-119835583D01*
X65338985Y-119833969D01*
X65290277Y-119794710D01*
X65268219Y-119728413D01*
X65285505Y-119660716D01*
X65336647Y-119613110D01*
X65392140Y-119600000D01*
X65449973Y-119600000D01*
X65449985Y-119599999D01*
X65552689Y-119589506D01*
X65552696Y-119589505D01*
X65719118Y-119534358D01*
X65719123Y-119534356D01*
X65868344Y-119442315D01*
X65992315Y-119318344D01*
X66084356Y-119169123D01*
X66084358Y-119169118D01*
X66139505Y-119002696D01*
X66139506Y-119002689D01*
X66149999Y-118899985D01*
X66150000Y-118899972D01*
X66150000Y-118000000D01*
X64654121Y-118000000D01*
X64673099Y-117954182D01*
X64700000Y-117818944D01*
X64700000Y-117681056D01*
X64673099Y-117545818D01*
X64654121Y-117500000D01*
X66150000Y-117500000D01*
X66150000Y-116600027D01*
X66149999Y-116600014D01*
X66139506Y-116497310D01*
X66139505Y-116497303D01*
X66084358Y-116330881D01*
X66084356Y-116330876D01*
X65992315Y-116181655D01*
X65868344Y-116057684D01*
X65719123Y-115965643D01*
X65719118Y-115965641D01*
X65552696Y-115910494D01*
X65552689Y-115910493D01*
X65449985Y-115900000D01*
X64250000Y-115900000D01*
X64250000Y-117095879D01*
X64204182Y-117076901D01*
X64068944Y-117050000D01*
X63931056Y-117050000D01*
X63795818Y-117076901D01*
X63750000Y-117095879D01*
X63750000Y-115900000D01*
X62874500Y-115900000D01*
X62807461Y-115880315D01*
X62761706Y-115827511D01*
X62750500Y-115776000D01*
X62750500Y-99659180D01*
X62770185Y-99592141D01*
X62786814Y-99571504D01*
X69348069Y-93010248D01*
X72032811Y-93010248D01*
X72032811Y-93010257D01*
X72052551Y-93273675D01*
X72052551Y-93273677D01*
X72111330Y-93531206D01*
X72111333Y-93531216D01*
X72207843Y-93777117D01*
X72339924Y-94005889D01*
X72497067Y-94202940D01*
X72523476Y-94267627D01*
X72510719Y-94336322D01*
X72497067Y-94357566D01*
X72339924Y-94554617D01*
X72207844Y-94783386D01*
X72207842Y-94783390D01*
X72111333Y-95029289D01*
X72111330Y-95029299D01*
X72052551Y-95286828D01*
X72052551Y-95286830D01*
X72032811Y-95550248D01*
X72032811Y-95550257D01*
X72052551Y-95813675D01*
X72052551Y-95813677D01*
X72111330Y-96071206D01*
X72111333Y-96071216D01*
X72207843Y-96317117D01*
X72339924Y-96545889D01*
X72472952Y-96712702D01*
X72504629Y-96752423D01*
X72687429Y-96922035D01*
X72698271Y-96932095D01*
X72916532Y-97080903D01*
X72916537Y-97080905D01*
X72916538Y-97080906D01*
X72916539Y-97080907D01*
X73042941Y-97141778D01*
X73154530Y-97195516D01*
X73154531Y-97195516D01*
X73154534Y-97195518D01*
X73406960Y-97273382D01*
X73406961Y-97273382D01*
X73406964Y-97273383D01*
X73668164Y-97312752D01*
X73668169Y-97312752D01*
X73668172Y-97312753D01*
X73668173Y-97312753D01*
X73932333Y-97312753D01*
X73932334Y-97312753D01*
X73932341Y-97312752D01*
X74193541Y-97273383D01*
X74193542Y-97273382D01*
X74193546Y-97273382D01*
X74445972Y-97195518D01*
X74683974Y-97080903D01*
X74902235Y-96932095D01*
X75095880Y-96752419D01*
X75260582Y-96545889D01*
X75392663Y-96317117D01*
X75489173Y-96071216D01*
X75547954Y-95813677D01*
X75567695Y-95550253D01*
X75547954Y-95286829D01*
X75489173Y-95029290D01*
X75392663Y-94783389D01*
X75260582Y-94554617D01*
X75103436Y-94357562D01*
X75077030Y-94292879D01*
X75089785Y-94224184D01*
X75103432Y-94202948D01*
X75260582Y-94005889D01*
X75392663Y-93777117D01*
X75489173Y-93531216D01*
X75547954Y-93273677D01*
X75567695Y-93010253D01*
X75547954Y-92746829D01*
X75489173Y-92489290D01*
X75392663Y-92243389D01*
X75260582Y-92014617D01*
X75095880Y-91808087D01*
X75095879Y-91808086D01*
X75095876Y-91808082D01*
X74902235Y-91628411D01*
X74683974Y-91479603D01*
X74683970Y-91479601D01*
X74683967Y-91479599D01*
X74683966Y-91479598D01*
X74445974Y-91364989D01*
X74445976Y-91364989D01*
X74193547Y-91287124D01*
X74193541Y-91287122D01*
X73932341Y-91247753D01*
X73932334Y-91247753D01*
X73668172Y-91247753D01*
X73668164Y-91247753D01*
X73406964Y-91287122D01*
X73406958Y-91287124D01*
X73154530Y-91364989D01*
X72916539Y-91479598D01*
X72916538Y-91479599D01*
X72698270Y-91628411D01*
X72504629Y-91808082D01*
X72339924Y-92014617D01*
X72207844Y-92243386D01*
X72207842Y-92243390D01*
X72111333Y-92489289D01*
X72111330Y-92489299D01*
X72052551Y-92746828D01*
X72052551Y-92746830D01*
X72032811Y-93010248D01*
X69348069Y-93010248D01*
X74915130Y-87443187D01*
X74976451Y-87409704D01*
X75046143Y-87414688D01*
X75073928Y-87429293D01*
X75147519Y-87480821D01*
X75353757Y-87576992D01*
X75573561Y-87635888D01*
X75735483Y-87650054D01*
X75800251Y-87655721D01*
X75800253Y-87655721D01*
X75800255Y-87655721D01*
X75856926Y-87650762D01*
X76026945Y-87635888D01*
X76246749Y-87576992D01*
X76452987Y-87480821D01*
X76639392Y-87350300D01*
X76800300Y-87189392D01*
X76930821Y-87002987D01*
X77026992Y-86796749D01*
X77068640Y-86641313D01*
X77088097Y-86600523D01*
X77141482Y-86527045D01*
X77141481Y-86527045D01*
X77141485Y-86527041D01*
X77220126Y-86372699D01*
X77273655Y-86207954D01*
X77300753Y-86036864D01*
X77300753Y-85863643D01*
X77300753Y-70543642D01*
X77273655Y-70372552D01*
X77221633Y-70212446D01*
X77220571Y-70208680D01*
X77141484Y-70053464D01*
X77039667Y-69913325D01*
X76003398Y-68877056D01*
X75969913Y-68815733D01*
X75967426Y-68780108D01*
X75980549Y-68605003D01*
X75980549Y-68604995D01*
X75960383Y-68335898D01*
X75900335Y-68072811D01*
X75900334Y-68072805D01*
X75801743Y-67821602D01*
X75666815Y-67587898D01*
X75526787Y-67412310D01*
X75500381Y-67347627D01*
X75513136Y-67278931D01*
X75526784Y-67257693D01*
X75666815Y-67082102D01*
X75801743Y-66848398D01*
X75900334Y-66597195D01*
X75960383Y-66334103D01*
X75980549Y-66065000D01*
X75960383Y-65795897D01*
X75900334Y-65532805D01*
X75801743Y-65281602D01*
X75666815Y-65047898D01*
X75526787Y-64872310D01*
X75500381Y-64807627D01*
X75513136Y-64738931D01*
X75526784Y-64717693D01*
X75666815Y-64542102D01*
X75801743Y-64308398D01*
X75900334Y-64057195D01*
X75960383Y-63794103D01*
X75980549Y-63525000D01*
X75960383Y-63255897D01*
X75900334Y-62992805D01*
X75801743Y-62741602D01*
X75666815Y-62507898D01*
X75526787Y-62332310D01*
X75500381Y-62267627D01*
X75513136Y-62198931D01*
X75526784Y-62177693D01*
X75666815Y-62002102D01*
X75801743Y-61768398D01*
X75900334Y-61517195D01*
X75960383Y-61254103D01*
X75980549Y-60985000D01*
X75960383Y-60715897D01*
X75900334Y-60452805D01*
X75801743Y-60201602D01*
X75666815Y-59967898D01*
X75526787Y-59792310D01*
X75500381Y-59727627D01*
X75513136Y-59658931D01*
X75526784Y-59637693D01*
X75666815Y-59462102D01*
X75801743Y-59228398D01*
X75900334Y-58977195D01*
X75960383Y-58714103D01*
X75980549Y-58445000D01*
X75960383Y-58175897D01*
X75900334Y-57912805D01*
X75801743Y-57661602D01*
X75666815Y-57427898D01*
X75526787Y-57252310D01*
X75500381Y-57187627D01*
X75513136Y-57118931D01*
X75526784Y-57097693D01*
X75666815Y-56922102D01*
X75801743Y-56688398D01*
X75900334Y-56437195D01*
X75960383Y-56174103D01*
X75980549Y-55905000D01*
X75960383Y-55635897D01*
X75900334Y-55372805D01*
X75801743Y-55121602D01*
X75666815Y-54887898D01*
X75526787Y-54712310D01*
X75500381Y-54647627D01*
X75513136Y-54578931D01*
X75526784Y-54557693D01*
X75666815Y-54382102D01*
X75801743Y-54148398D01*
X75900334Y-53897195D01*
X75960383Y-53634103D01*
X75967293Y-53541887D01*
X75980549Y-53365004D01*
X75980549Y-53364995D01*
X75960383Y-53095898D01*
X75960383Y-53095897D01*
X75900334Y-52832805D01*
X75801743Y-52581602D01*
X75666815Y-52347898D01*
X75526787Y-52172310D01*
X75500381Y-52107627D01*
X75513136Y-52038931D01*
X75526784Y-52017693D01*
X75666815Y-51842102D01*
X75801743Y-51608398D01*
X75900334Y-51357195D01*
X75960383Y-51094103D01*
X75980549Y-50825000D01*
X75960383Y-50555897D01*
X75900334Y-50292805D01*
X75801743Y-50041602D01*
X75666815Y-49807898D01*
X75526787Y-49632310D01*
X75500381Y-49567627D01*
X75513136Y-49498931D01*
X75526784Y-49477693D01*
X75666815Y-49302102D01*
X75801743Y-49068398D01*
X75900334Y-48817195D01*
X75960383Y-48554103D01*
X75967105Y-48464402D01*
X75980549Y-48285004D01*
X75980549Y-48284995D01*
X75960383Y-48015898D01*
X75912879Y-47807770D01*
X75900334Y-47752805D01*
X75801743Y-47501602D01*
X75666815Y-47267898D01*
X75526787Y-47092310D01*
X75500381Y-47027627D01*
X75513136Y-46958931D01*
X75526784Y-46937693D01*
X75666815Y-46762102D01*
X75772302Y-46579390D01*
X75822867Y-46531177D01*
X75891474Y-46517953D01*
X75956339Y-46543921D01*
X75967369Y-46553711D01*
X86378181Y-56964523D01*
X86411666Y-57025846D01*
X86414500Y-57052204D01*
X86414500Y-78978389D01*
X86414500Y-79151611D01*
X86441598Y-79322701D01*
X86495127Y-79487445D01*
X86573768Y-79641788D01*
X86675586Y-79781928D01*
X86675588Y-79781930D01*
X88657233Y-81763575D01*
X88689327Y-81819162D01*
X88723512Y-81946744D01*
X88723514Y-81946750D01*
X88819684Y-82152985D01*
X88819685Y-82152987D01*
X88950207Y-82339394D01*
X89111111Y-82500298D01*
X89111114Y-82500300D01*
X89297519Y-82630821D01*
X89503757Y-82726992D01*
X89723561Y-82785888D01*
X89885483Y-82800054D01*
X89950251Y-82805721D01*
X89950253Y-82805721D01*
X89950255Y-82805721D01*
X90006926Y-82800762D01*
X90176945Y-82785888D01*
X90396749Y-82726992D01*
X90602987Y-82630821D01*
X90789392Y-82500300D01*
X90950300Y-82339392D01*
X91080821Y-82152987D01*
X91176992Y-81946749D01*
X91235888Y-81726945D01*
X91255721Y-81500253D01*
X91235888Y-81273561D01*
X91176992Y-81053757D01*
X91080821Y-80847519D01*
X90950300Y-80661114D01*
X90950298Y-80661111D01*
X90789394Y-80500207D01*
X90602987Y-80369685D01*
X90602985Y-80369684D01*
X90396750Y-80273514D01*
X90396744Y-80273512D01*
X90269162Y-80239327D01*
X90213575Y-80207233D01*
X88651819Y-78645477D01*
X88618334Y-78584154D01*
X88615500Y-78557796D01*
X88615500Y-76221204D01*
X88635185Y-76154165D01*
X88687989Y-76108410D01*
X88757147Y-76098466D01*
X88820703Y-76127491D01*
X88827181Y-76133523D01*
X88857233Y-76163575D01*
X88889327Y-76219162D01*
X88923512Y-76346744D01*
X88923514Y-76346750D01*
X89019684Y-76552985D01*
X89019685Y-76552987D01*
X89150207Y-76739394D01*
X89311111Y-76900298D01*
X89311114Y-76900300D01*
X89497519Y-77030821D01*
X89703757Y-77126992D01*
X89923561Y-77185888D01*
X90085483Y-77200054D01*
X90150251Y-77205721D01*
X90150253Y-77205721D01*
X90150255Y-77205721D01*
X90206926Y-77200762D01*
X90376945Y-77185888D01*
X90596749Y-77126992D01*
X90802987Y-77030821D01*
X90989392Y-76900300D01*
X91150300Y-76739392D01*
X91280821Y-76552987D01*
X91376992Y-76346749D01*
X91435888Y-76126945D01*
X91455721Y-75900253D01*
X91435888Y-75673561D01*
X91376992Y-75453757D01*
X91280821Y-75247519D01*
X91150300Y-75061114D01*
X91150298Y-75061111D01*
X90989394Y-74900207D01*
X90802987Y-74769685D01*
X90802985Y-74769684D01*
X90596750Y-74673514D01*
X90596744Y-74673512D01*
X90469162Y-74639327D01*
X90413575Y-74607233D01*
X89051819Y-73245477D01*
X89018334Y-73184154D01*
X89015500Y-73157796D01*
X89015500Y-73049712D01*
X89035185Y-72982673D01*
X89087989Y-72936918D01*
X89157147Y-72926974D01*
X89157694Y-72927054D01*
X89280071Y-72945500D01*
X89280072Y-72945500D01*
X89549928Y-72945500D01*
X89549929Y-72945500D01*
X89549936Y-72945499D01*
X89816767Y-72905281D01*
X89816768Y-72905280D01*
X89816772Y-72905280D01*
X90074641Y-72825738D01*
X90317775Y-72708651D01*
X90540741Y-72556635D01*
X90738561Y-72373085D01*
X90906815Y-72162102D01*
X91041743Y-71928398D01*
X91140334Y-71677195D01*
X91200383Y-71414103D01*
X91220549Y-71145000D01*
X91200383Y-70875897D01*
X91140334Y-70612805D01*
X91041743Y-70361602D01*
X90906815Y-70127898D01*
X90766787Y-69952310D01*
X90740381Y-69887627D01*
X90753136Y-69818931D01*
X90766784Y-69797693D01*
X90906815Y-69622102D01*
X91041743Y-69388398D01*
X91140334Y-69137195D01*
X91200383Y-68874103D01*
X91220549Y-68605000D01*
X91200383Y-68335897D01*
X91140334Y-68072805D01*
X91041743Y-67821602D01*
X90906815Y-67587898D01*
X90766787Y-67412310D01*
X90740381Y-67347627D01*
X90753136Y-67278931D01*
X90766784Y-67257693D01*
X90906815Y-67082102D01*
X91041743Y-66848398D01*
X91140334Y-66597195D01*
X91200383Y-66334103D01*
X91220549Y-66065000D01*
X91200383Y-65795897D01*
X91140334Y-65532805D01*
X91041743Y-65281602D01*
X90906815Y-65047898D01*
X90766787Y-64872310D01*
X90740381Y-64807627D01*
X90753136Y-64738931D01*
X90766784Y-64717693D01*
X90906815Y-64542102D01*
X91041743Y-64308398D01*
X91140334Y-64057195D01*
X91200383Y-63794103D01*
X91220549Y-63525000D01*
X91200383Y-63255897D01*
X91140334Y-62992805D01*
X91041743Y-62741602D01*
X90906815Y-62507898D01*
X90766787Y-62332310D01*
X90740381Y-62267627D01*
X90753136Y-62198931D01*
X90766784Y-62177693D01*
X90906815Y-62002102D01*
X91041743Y-61768398D01*
X91140334Y-61517195D01*
X91200383Y-61254103D01*
X91220549Y-60985000D01*
X91200383Y-60715897D01*
X91140334Y-60452805D01*
X91041743Y-60201602D01*
X91039355Y-60197466D01*
X91022882Y-60129569D01*
X91045733Y-60063542D01*
X91059055Y-60047791D01*
X96139668Y-54967181D01*
X96241136Y-54827520D01*
X96241212Y-54827461D01*
X96241191Y-54827446D01*
X96241481Y-54827046D01*
X96241485Y-54827041D01*
X96320126Y-54672698D01*
X96373655Y-54507954D01*
X96400753Y-54336864D01*
X96400753Y-54054753D01*
X96420438Y-53987714D01*
X96473242Y-53941959D01*
X96524753Y-53930753D01*
X96535181Y-53930753D01*
X96535182Y-53930753D01*
X96535189Y-53930752D01*
X96802020Y-53890534D01*
X96802021Y-53890533D01*
X96802025Y-53890533D01*
X97059894Y-53810991D01*
X97303028Y-53693904D01*
X97525994Y-53541888D01*
X97716634Y-53365000D01*
X97723810Y-53358342D01*
X97723810Y-53358340D01*
X97723814Y-53358338D01*
X97779054Y-53289069D01*
X97836242Y-53248930D01*
X97906053Y-53246080D01*
X97966323Y-53281426D01*
X97997916Y-53343745D01*
X98000000Y-53366383D01*
X98000000Y-171725753D01*
X97980315Y-171792792D01*
X97927511Y-171838547D01*
X97876000Y-171849753D01*
X59802565Y-171849753D01*
X59797928Y-171849666D01*
X59319181Y-171831752D01*
X59309934Y-171831059D01*
X58836163Y-171777678D01*
X58826994Y-171776296D01*
X58358540Y-171687660D01*
X58349502Y-171685597D01*
X58125945Y-171625696D01*
X57888975Y-171562200D01*
X57880115Y-171559467D01*
X57430101Y-171402001D01*
X57421468Y-171398613D01*
X56984468Y-171207951D01*
X56976114Y-171203927D01*
X56554612Y-170981157D01*
X56546581Y-170976521D01*
X56142882Y-170722860D01*
X56135221Y-170717636D01*
X55751612Y-170434521D01*
X55744361Y-170428739D01*
X55382985Y-170117748D01*
X55376188Y-170111441D01*
X55039065Y-169774318D01*
X55032758Y-169767521D01*
X54721763Y-169406139D01*
X54715986Y-169398894D01*
X54432871Y-169015285D01*
X54427647Y-169007624D01*
X54173986Y-168603925D01*
X54169350Y-168595894D01*
X54115184Y-168493408D01*
X53946570Y-168174374D01*
X53942559Y-168166046D01*
X53751897Y-167729042D01*
X53748511Y-167720415D01*
X53591040Y-167270388D01*
X53588307Y-167261527D01*
X53563539Y-167169091D01*
X53464906Y-166800984D01*
X53462851Y-166791981D01*
X53374210Y-166323501D01*
X53372830Y-166314343D01*
X53356619Y-166170467D01*
X53319448Y-165840560D01*
X53318756Y-165831324D01*
X53310343Y-165606477D01*
X53300839Y-165352468D01*
X53300753Y-165347840D01*
X53300753Y-165259924D01*
X53300751Y-165259803D01*
X53300751Y-165228964D01*
X57949753Y-165228964D01*
X57949753Y-165471541D01*
X57981414Y-165712038D01*
X58044200Y-165946357D01*
X58115186Y-166117732D01*
X58137029Y-166170465D01*
X58258317Y-166380542D01*
X58258319Y-166380545D01*
X58258320Y-166380546D01*
X58405986Y-166572989D01*
X58405992Y-166572996D01*
X58577509Y-166744513D01*
X58577515Y-166744518D01*
X58769964Y-166892189D01*
X58980041Y-167013477D01*
X59204153Y-167106307D01*
X59438464Y-167169091D01*
X59618839Y-167192837D01*
X59678964Y-167200753D01*
X59678965Y-167200753D01*
X59921542Y-167200753D01*
X59969641Y-167194420D01*
X60162042Y-167169091D01*
X60396353Y-167106307D01*
X60620465Y-167013477D01*
X60830542Y-166892189D01*
X61022991Y-166744518D01*
X61194518Y-166572991D01*
X61342189Y-166380542D01*
X61463477Y-166170465D01*
X61556307Y-165946353D01*
X61619091Y-165712042D01*
X61650753Y-165471541D01*
X61650753Y-165228965D01*
X61619091Y-164988464D01*
X61556307Y-164754153D01*
X61463477Y-164530041D01*
X61342189Y-164319964D01*
X61194518Y-164127515D01*
X61194513Y-164127509D01*
X61022996Y-163955992D01*
X61022989Y-163955986D01*
X60830546Y-163808320D01*
X60830545Y-163808319D01*
X60830542Y-163808317D01*
X60620465Y-163687029D01*
X60620458Y-163687026D01*
X60396357Y-163594200D01*
X60162038Y-163531414D01*
X59921542Y-163499753D01*
X59921541Y-163499753D01*
X59678965Y-163499753D01*
X59678964Y-163499753D01*
X59438467Y-163531414D01*
X59204148Y-163594200D01*
X58980047Y-163687026D01*
X58980038Y-163687030D01*
X58769959Y-163808320D01*
X58577516Y-163955986D01*
X58577509Y-163955992D01*
X58405992Y-164127509D01*
X58405986Y-164127516D01*
X58258320Y-164319959D01*
X58137030Y-164530038D01*
X58137026Y-164530047D01*
X58044200Y-164754148D01*
X57981414Y-164988467D01*
X57949753Y-165228964D01*
X53300751Y-165228964D01*
X53300736Y-157085258D01*
X57209500Y-157085258D01*
X57209500Y-157314741D01*
X57234446Y-157504215D01*
X57239452Y-157542238D01*
X57239453Y-157542240D01*
X57298842Y-157763887D01*
X57386650Y-157975876D01*
X57386657Y-157975890D01*
X57501392Y-158174617D01*
X57641081Y-158356661D01*
X57641089Y-158356670D01*
X57803330Y-158518911D01*
X57803338Y-158518918D01*
X57985382Y-158658607D01*
X57985385Y-158658608D01*
X57985388Y-158658611D01*
X58184112Y-158773344D01*
X58184117Y-158773346D01*
X58184123Y-158773349D01*
X58275480Y-158811190D01*
X58396113Y-158861158D01*
X58617762Y-158920548D01*
X58845266Y-158950500D01*
X58845273Y-158950500D01*
X59074727Y-158950500D01*
X59074734Y-158950500D01*
X59302238Y-158920548D01*
X59523887Y-158861158D01*
X59735888Y-158773344D01*
X59934612Y-158658611D01*
X60116661Y-158518919D01*
X60116665Y-158518914D01*
X60116670Y-158518911D01*
X60278911Y-158356670D01*
X60278914Y-158356665D01*
X60278919Y-158356661D01*
X60418611Y-158174612D01*
X60533344Y-157975888D01*
X60621158Y-157763887D01*
X60680548Y-157542238D01*
X60710500Y-157314734D01*
X60710500Y-157085266D01*
X60680548Y-156857762D01*
X60621158Y-156636113D01*
X60533344Y-156424112D01*
X60418611Y-156225388D01*
X60418608Y-156225385D01*
X60418607Y-156225382D01*
X60278918Y-156043338D01*
X60278911Y-156043330D01*
X60116670Y-155881089D01*
X60116661Y-155881081D01*
X59934617Y-155741392D01*
X59735890Y-155626657D01*
X59735876Y-155626650D01*
X59523887Y-155538842D01*
X59302238Y-155479452D01*
X59264215Y-155474446D01*
X59074741Y-155449500D01*
X59074734Y-155449500D01*
X58845266Y-155449500D01*
X58845258Y-155449500D01*
X58628715Y-155478009D01*
X58617762Y-155479452D01*
X58524076Y-155504554D01*
X58396112Y-155538842D01*
X58184123Y-155626650D01*
X58184109Y-155626657D01*
X57985382Y-155741392D01*
X57803338Y-155881081D01*
X57641081Y-156043338D01*
X57501392Y-156225382D01*
X57386657Y-156424109D01*
X57386650Y-156424123D01*
X57298842Y-156636112D01*
X57239453Y-156857759D01*
X57239451Y-156857770D01*
X57209500Y-157085258D01*
X53300736Y-157085258D01*
X53300537Y-48035258D01*
X58049500Y-48035258D01*
X58049500Y-48264741D01*
X58070094Y-48421161D01*
X58079452Y-48492238D01*
X58138842Y-48713887D01*
X58226650Y-48925876D01*
X58226657Y-48925890D01*
X58341392Y-49124617D01*
X58481081Y-49306661D01*
X58481089Y-49306670D01*
X58643330Y-49468911D01*
X58643338Y-49468918D01*
X58825382Y-49608607D01*
X58825385Y-49608608D01*
X58825388Y-49608611D01*
X59024112Y-49723344D01*
X59024117Y-49723346D01*
X59024123Y-49723349D01*
X59115480Y-49761190D01*
X59236113Y-49811158D01*
X59457762Y-49870548D01*
X59685266Y-49900500D01*
X59685273Y-49900500D01*
X59914727Y-49900500D01*
X59914734Y-49900500D01*
X60142238Y-49870548D01*
X60363887Y-49811158D01*
X60575888Y-49723344D01*
X60774612Y-49608611D01*
X60956661Y-49468919D01*
X60956665Y-49468914D01*
X60956670Y-49468911D01*
X61118911Y-49306670D01*
X61118914Y-49306665D01*
X61118919Y-49306661D01*
X61258611Y-49124612D01*
X61373344Y-48925888D01*
X61461158Y-48713887D01*
X61520548Y-48492238D01*
X61550500Y-48264734D01*
X61550500Y-48035266D01*
X61520548Y-47807762D01*
X61461158Y-47586113D01*
X61373344Y-47374112D01*
X61258611Y-47175388D01*
X61258608Y-47175385D01*
X61258607Y-47175382D01*
X61118918Y-46993338D01*
X61118911Y-46993330D01*
X60956670Y-46831089D01*
X60956661Y-46831081D01*
X60774617Y-46691392D01*
X60575890Y-46576657D01*
X60575876Y-46576650D01*
X60363887Y-46488842D01*
X60142238Y-46429452D01*
X60104215Y-46424446D01*
X59914741Y-46399500D01*
X59914734Y-46399500D01*
X59685266Y-46399500D01*
X59685258Y-46399500D01*
X59471586Y-46427632D01*
X59457762Y-46429452D01*
X59364076Y-46454554D01*
X59236112Y-46488842D01*
X59024123Y-46576650D01*
X59024109Y-46576657D01*
X58825382Y-46691392D01*
X58643338Y-46831081D01*
X58481081Y-46993338D01*
X58341392Y-47175382D01*
X58226657Y-47374109D01*
X58226650Y-47374123D01*
X58138842Y-47586112D01*
X58138842Y-47586113D01*
X58084278Y-47789753D01*
X58079453Y-47807759D01*
X58079451Y-47807770D01*
X58049500Y-48035258D01*
X53300537Y-48035258D01*
X53300512Y-34435258D01*
X58049500Y-34435258D01*
X58049500Y-34664741D01*
X58074446Y-34854215D01*
X58079452Y-34892238D01*
X58079453Y-34892240D01*
X58138842Y-35113887D01*
X58226650Y-35325876D01*
X58226657Y-35325890D01*
X58341392Y-35524617D01*
X58481081Y-35706661D01*
X58481089Y-35706670D01*
X58643330Y-35868911D01*
X58643338Y-35868918D01*
X58825382Y-36008607D01*
X58825385Y-36008608D01*
X58825388Y-36008611D01*
X59024112Y-36123344D01*
X59024117Y-36123346D01*
X59024123Y-36123349D01*
X59089076Y-36150253D01*
X59236113Y-36211158D01*
X59457762Y-36270548D01*
X59685266Y-36300500D01*
X59685273Y-36300500D01*
X59914727Y-36300500D01*
X59914734Y-36300500D01*
X60142238Y-36270548D01*
X60363887Y-36211158D01*
X60575888Y-36123344D01*
X60774612Y-36008611D01*
X60956661Y-35868919D01*
X60956665Y-35868914D01*
X60956670Y-35868911D01*
X61118911Y-35706670D01*
X61118914Y-35706665D01*
X61118919Y-35706661D01*
X61258611Y-35524612D01*
X61373344Y-35325888D01*
X61461158Y-35113887D01*
X61520548Y-34892238D01*
X61550500Y-34664734D01*
X61550500Y-34435266D01*
X61520548Y-34207762D01*
X61461158Y-33986113D01*
X61373344Y-33774112D01*
X61258611Y-33575388D01*
X61258608Y-33575385D01*
X61258607Y-33575382D01*
X61118918Y-33393338D01*
X61118911Y-33393330D01*
X60956670Y-33231089D01*
X60956661Y-33231081D01*
X60774617Y-33091392D01*
X60575890Y-32976657D01*
X60575876Y-32976650D01*
X60363887Y-32888842D01*
X60142238Y-32829452D01*
X60104215Y-32824446D01*
X59914741Y-32799500D01*
X59914734Y-32799500D01*
X59685266Y-32799500D01*
X59685258Y-32799500D01*
X59468715Y-32828009D01*
X59457762Y-32829452D01*
X59364076Y-32854554D01*
X59236112Y-32888842D01*
X59024123Y-32976650D01*
X59024109Y-32976657D01*
X58825382Y-33091392D01*
X58643338Y-33231081D01*
X58481081Y-33393338D01*
X58341392Y-33575382D01*
X58226657Y-33774109D01*
X58226650Y-33774123D01*
X58138842Y-33986112D01*
X58079453Y-34207759D01*
X58079451Y-34207770D01*
X58049500Y-34435258D01*
X53300512Y-34435258D01*
X53300500Y-27652306D01*
X53300587Y-27647671D01*
X53305039Y-27528711D01*
X57949500Y-27528711D01*
X57949500Y-27771288D01*
X57967907Y-27911111D01*
X57981162Y-28011789D01*
X58004134Y-28097520D01*
X58043947Y-28246104D01*
X58058745Y-28281829D01*
X58136776Y-28470212D01*
X58258064Y-28680289D01*
X58258066Y-28680292D01*
X58258067Y-28680293D01*
X58405733Y-28872736D01*
X58405739Y-28872743D01*
X58577256Y-29044260D01*
X58577262Y-29044265D01*
X58769711Y-29191936D01*
X58979788Y-29313224D01*
X59120462Y-29371493D01*
X59196495Y-29402987D01*
X59203900Y-29406054D01*
X59438211Y-29468838D01*
X59618586Y-29492584D01*
X59678711Y-29500500D01*
X59678712Y-29500500D01*
X59921289Y-29500500D01*
X59969388Y-29494167D01*
X60161789Y-29468838D01*
X60396100Y-29406054D01*
X60620212Y-29313224D01*
X60830289Y-29191936D01*
X61022738Y-29044265D01*
X61194265Y-28872738D01*
X61341936Y-28680289D01*
X61463224Y-28470212D01*
X61556054Y-28246100D01*
X61618838Y-28011789D01*
X61650500Y-27771288D01*
X61650500Y-27768872D01*
X70869500Y-27768872D01*
X70869500Y-28031127D01*
X70896123Y-28233339D01*
X70903730Y-28291116D01*
X70967502Y-28529116D01*
X70971602Y-28544418D01*
X70971605Y-28544428D01*
X71071953Y-28786690D01*
X71071958Y-28786700D01*
X71203075Y-29013803D01*
X71362718Y-29221851D01*
X71362726Y-29221860D01*
X71548140Y-29407274D01*
X71548148Y-29407281D01*
X71548149Y-29407282D01*
X71590338Y-29439655D01*
X71756196Y-29566924D01*
X71983299Y-29698041D01*
X71983309Y-29698046D01*
X72225571Y-29798394D01*
X72225581Y-29798398D01*
X72478884Y-29866270D01*
X72738880Y-29900500D01*
X72738887Y-29900500D01*
X73001113Y-29900500D01*
X73001120Y-29900500D01*
X73261116Y-29866270D01*
X73514419Y-29798398D01*
X73756697Y-29698043D01*
X73983803Y-29566924D01*
X74191851Y-29407282D01*
X74191855Y-29407277D01*
X74191860Y-29407274D01*
X74377274Y-29221860D01*
X74377277Y-29221855D01*
X74377282Y-29221851D01*
X74536924Y-29013803D01*
X74668043Y-28786697D01*
X74768398Y-28544419D01*
X74836270Y-28291116D01*
X74870500Y-28031120D01*
X74870500Y-27768880D01*
X74836270Y-27508884D01*
X74768398Y-27255581D01*
X74684857Y-27053895D01*
X74668046Y-27013309D01*
X74668041Y-27013299D01*
X74536924Y-26786196D01*
X74377281Y-26578148D01*
X74377274Y-26578140D01*
X74191860Y-26392726D01*
X74191851Y-26392718D01*
X73983803Y-26233075D01*
X73756700Y-26101958D01*
X73756690Y-26101953D01*
X73514428Y-26001605D01*
X73514421Y-26001603D01*
X73514419Y-26001602D01*
X73261116Y-25933730D01*
X73203339Y-25926123D01*
X73001127Y-25899500D01*
X73001120Y-25899500D01*
X72738880Y-25899500D01*
X72738872Y-25899500D01*
X72507772Y-25929926D01*
X72478884Y-25933730D01*
X72280924Y-25986773D01*
X72225581Y-26001602D01*
X72225571Y-26001605D01*
X71983309Y-26101953D01*
X71983299Y-26101958D01*
X71756196Y-26233075D01*
X71548148Y-26392718D01*
X71362718Y-26578148D01*
X71203075Y-26786196D01*
X71071958Y-27013299D01*
X71071953Y-27013309D01*
X70971605Y-27255571D01*
X70971602Y-27255581D01*
X70903730Y-27508885D01*
X70869500Y-27768872D01*
X61650500Y-27768872D01*
X61650500Y-27528712D01*
X61649112Y-27518172D01*
X61636577Y-27422954D01*
X61618838Y-27288211D01*
X61556054Y-27053900D01*
X61463224Y-26829788D01*
X61341936Y-26619711D01*
X61281018Y-26540321D01*
X61194266Y-26427263D01*
X61194260Y-26427256D01*
X61022743Y-26255739D01*
X61022736Y-26255733D01*
X60830293Y-26108067D01*
X60830292Y-26108066D01*
X60830289Y-26108064D01*
X60645891Y-26001602D01*
X60620214Y-25986777D01*
X60620205Y-25986773D01*
X60396104Y-25893947D01*
X60161785Y-25831161D01*
X59921289Y-25799500D01*
X59921288Y-25799500D01*
X59678712Y-25799500D01*
X59678711Y-25799500D01*
X59438214Y-25831161D01*
X59203895Y-25893947D01*
X58979794Y-25986773D01*
X58979785Y-25986777D01*
X58769706Y-26108067D01*
X58577263Y-26255733D01*
X58577256Y-26255739D01*
X58405739Y-26427256D01*
X58405733Y-26427263D01*
X58258067Y-26619706D01*
X58136777Y-26829785D01*
X58136773Y-26829794D01*
X58043947Y-27053895D01*
X57981161Y-27288214D01*
X57949500Y-27528711D01*
X53305039Y-27528711D01*
X53305233Y-27523514D01*
X53318500Y-27168915D01*
X53319191Y-27159695D01*
X53372576Y-26685894D01*
X53373953Y-26676756D01*
X53462592Y-26208289D01*
X53464655Y-26199250D01*
X53484417Y-26125499D01*
X53588058Y-25738704D01*
X53590782Y-25729874D01*
X53748258Y-25279832D01*
X53751633Y-25271230D01*
X53768755Y-25231986D01*
X87529500Y-25231986D01*
X87529500Y-25488013D01*
X87547536Y-25625000D01*
X87562917Y-25741829D01*
X87586854Y-25831162D01*
X87629177Y-25989116D01*
X87727144Y-26225631D01*
X87727151Y-26225646D01*
X87855155Y-26447356D01*
X87937380Y-26554514D01*
X87962574Y-26619683D01*
X87948536Y-26688128D01*
X87937380Y-26705486D01*
X87855155Y-26812643D01*
X87727151Y-27034353D01*
X87727144Y-27034368D01*
X87629177Y-27270883D01*
X87596249Y-27393775D01*
X87565406Y-27508884D01*
X87562917Y-27518172D01*
X87529500Y-27771986D01*
X87529500Y-28028013D01*
X87555491Y-28225423D01*
X87562917Y-28281829D01*
X87598425Y-28414349D01*
X87629177Y-28529116D01*
X87727144Y-28765631D01*
X87727151Y-28765646D01*
X87855152Y-28987352D01*
X88011011Y-29190470D01*
X88024675Y-29204134D01*
X88058160Y-29265457D01*
X88053176Y-29335147D01*
X88036404Y-29380116D01*
X88036401Y-29380127D01*
X88030000Y-29439655D01*
X88030000Y-30190000D01*
X89039252Y-30190000D01*
X89017482Y-30227708D01*
X88980000Y-30367591D01*
X88980000Y-30512409D01*
X89017482Y-30652292D01*
X89039252Y-30690000D01*
X88030000Y-30690000D01*
X88030000Y-31440344D01*
X88036401Y-31499872D01*
X88036403Y-31499879D01*
X88086645Y-31634586D01*
X88086649Y-31634593D01*
X88172809Y-31749687D01*
X88172812Y-31749690D01*
X88287906Y-31835850D01*
X88287913Y-31835854D01*
X88422620Y-31886096D01*
X88422627Y-31886098D01*
X88482155Y-31892499D01*
X88482172Y-31892500D01*
X89280000Y-31892500D01*
X89280000Y-30930747D01*
X89317708Y-30952518D01*
X89457591Y-30990000D01*
X89602409Y-30990000D01*
X89742292Y-30952518D01*
X89780000Y-30930747D01*
X89780000Y-31892500D01*
X90577828Y-31892500D01*
X90577844Y-31892499D01*
X90637372Y-31886098D01*
X90637379Y-31886096D01*
X90772086Y-31835854D01*
X90772093Y-31835850D01*
X90887187Y-31749690D01*
X90887190Y-31749687D01*
X90973350Y-31634593D01*
X90973354Y-31634586D01*
X91023596Y-31499879D01*
X91023598Y-31499872D01*
X91029999Y-31440344D01*
X91030000Y-31440327D01*
X91030000Y-30690000D01*
X90020748Y-30690000D01*
X90042518Y-30652292D01*
X90080000Y-30512409D01*
X90080000Y-30367591D01*
X90042518Y-30227708D01*
X90020748Y-30190000D01*
X91030000Y-30190000D01*
X91030000Y-29439672D01*
X91029999Y-29439655D01*
X91023598Y-29380123D01*
X91006823Y-29335148D01*
X91001839Y-29265456D01*
X91035322Y-29204135D01*
X91048993Y-29190465D01*
X91204844Y-28987357D01*
X91332850Y-28765643D01*
X91430822Y-28529118D01*
X91497083Y-28281829D01*
X91530500Y-28028006D01*
X91530500Y-27771994D01*
X91497083Y-27518171D01*
X91430822Y-27270882D01*
X91332850Y-27034357D01*
X91320695Y-27013303D01*
X91204844Y-26812642D01*
X91122620Y-26705487D01*
X91097425Y-26640318D01*
X91111463Y-26571873D01*
X91122620Y-26554513D01*
X91204844Y-26447357D01*
X91315476Y-26255735D01*
X91332850Y-26225643D01*
X91430822Y-25989118D01*
X91497083Y-25741829D01*
X91530500Y-25488006D01*
X91530500Y-25231994D01*
X91497083Y-24978171D01*
X91430822Y-24730882D01*
X91383518Y-24616682D01*
X91332855Y-24494368D01*
X91332848Y-24494353D01*
X91204847Y-24272647D01*
X91110736Y-24150000D01*
X91048993Y-24069535D01*
X91048991Y-24069533D01*
X91048988Y-24069529D01*
X90867970Y-23888511D01*
X90664852Y-23732652D01*
X90443146Y-23604651D01*
X90443131Y-23604644D01*
X90206616Y-23506677D01*
X90091849Y-23475925D01*
X89959329Y-23440417D01*
X89902278Y-23432906D01*
X89705513Y-23407000D01*
X89705506Y-23407000D01*
X89354494Y-23407000D01*
X89354486Y-23407000D01*
X89128873Y-23436704D01*
X89100671Y-23440417D01*
X89034411Y-23458171D01*
X88853383Y-23506677D01*
X88616868Y-23604644D01*
X88616853Y-23604651D01*
X88395147Y-23732652D01*
X88192029Y-23888511D01*
X88011011Y-24069529D01*
X87855152Y-24272647D01*
X87727151Y-24494353D01*
X87727144Y-24494368D01*
X87629177Y-24730883D01*
X87562917Y-24978172D01*
X87529500Y-25231986D01*
X53768755Y-25231986D01*
X53942304Y-24834209D01*
X53946326Y-24825861D01*
X53946781Y-24825000D01*
X54169099Y-24404352D01*
X54173732Y-24396328D01*
X54251446Y-24272647D01*
X54427399Y-23992618D01*
X54432610Y-23984975D01*
X54715742Y-23601345D01*
X54721508Y-23594116D01*
X54796755Y-23506678D01*
X55032511Y-23232724D01*
X55038805Y-23225940D01*
X55375940Y-22888805D01*
X55382724Y-22882511D01*
X55574158Y-22717769D01*
X55744121Y-22571503D01*
X55751345Y-22565742D01*
X56134975Y-22282610D01*
X56142618Y-22277399D01*
X56546334Y-22023728D01*
X56554352Y-22019099D01*
X56975866Y-21796323D01*
X56984209Y-21792304D01*
X57421230Y-21601633D01*
X57429832Y-21598258D01*
X57879874Y-21440782D01*
X57888704Y-21438058D01*
X58349251Y-21314654D01*
X58358291Y-21312592D01*
X58826756Y-21223953D01*
X58835894Y-21222576D01*
X59309695Y-21169191D01*
X59318915Y-21168500D01*
X59760526Y-21151977D01*
X59797676Y-21150587D01*
X59802312Y-21150500D01*
X97876000Y-21150500D01*
X97943039Y-21170185D01*
G37*
%TD.AperFunction*%
%TA.AperFunction,Conductor*%
G36*
X97966323Y-42781426D02*
G01*
X97997916Y-42843745D01*
X98000000Y-42866383D01*
X98000000Y-48354122D01*
X97980315Y-48421161D01*
X97927511Y-48466916D01*
X97858353Y-48476860D01*
X97794797Y-48447835D01*
X97779054Y-48431436D01*
X97723811Y-48362164D01*
X97525994Y-48178618D01*
X97402513Y-48094430D01*
X97358213Y-48040403D01*
X97350154Y-47970999D01*
X97380897Y-47908257D01*
X97384688Y-47904294D01*
X97399913Y-47889069D01*
X97530387Y-47702735D01*
X97626518Y-47496579D01*
X97626522Y-47496570D01*
X97679125Y-47300253D01*
X96715939Y-47300253D01*
X96720333Y-47295859D01*
X96772994Y-47204647D01*
X96800253Y-47102914D01*
X96800253Y-46997592D01*
X96772994Y-46895859D01*
X96720333Y-46804647D01*
X96715939Y-46800253D01*
X97679125Y-46800253D01*
X97679125Y-46800252D01*
X97626522Y-46603935D01*
X97626518Y-46603926D01*
X97530387Y-46397770D01*
X97399910Y-46211432D01*
X97239073Y-46050595D01*
X97052735Y-45920118D01*
X96846579Y-45823987D01*
X96846570Y-45823983D01*
X96626863Y-45765113D01*
X96626853Y-45765111D01*
X96513945Y-45755233D01*
X96448876Y-45729780D01*
X96407898Y-45673189D01*
X96400753Y-45631705D01*
X96400753Y-43554753D01*
X96420438Y-43487714D01*
X96473242Y-43441959D01*
X96524753Y-43430753D01*
X96535181Y-43430753D01*
X96535182Y-43430753D01*
X96535189Y-43430752D01*
X96802020Y-43390534D01*
X96802021Y-43390533D01*
X96802025Y-43390533D01*
X97059894Y-43310991D01*
X97303028Y-43193904D01*
X97525994Y-43041888D01*
X97723814Y-42858338D01*
X97779054Y-42789069D01*
X97836242Y-42748930D01*
X97906053Y-42746080D01*
X97966323Y-42781426D01*
G37*
%TD.AperFunction*%
%TD*%
M02*
