%TF.GenerationSoftware,KiCad,Pcbnew,8.0.4*%
%TF.CreationDate,2025-05-16T23:00:13-07:00*%
%TF.ProjectId,pcc_v0.1,7063635f-7630-42e3-912e-6b696361645f,rev?*%
%TF.SameCoordinates,Original*%
%TF.FileFunction,Profile,NP*%
%FSLAX46Y46*%
G04 Gerber Fmt 4.6, Leading zero omitted, Abs format (unit mm)*
G04 Created by KiCad (PCBNEW 8.0.4) date 2025-05-16 23:00:13*
%MOMM*%
%LPD*%
G01*
G04 APERTURE LIST*
%TA.AperFunction,Profile*%
%ADD10C,0.050000*%
%TD*%
G04 APERTURE END LIST*
D10*
X59800253Y-172350253D02*
G75*
G02*
X52800257Y-165350253I-3J6999993D01*
G01*
X52800000Y-27650000D02*
X52800253Y-165350253D01*
X59800000Y-20650000D02*
X216050000Y-20650000D01*
X223050253Y-165350253D02*
G75*
G02*
X216050253Y-172350253I-7000003J3D01*
G01*
X52800000Y-27650000D02*
G75*
G02*
X59800000Y-20650000I7000000J0D01*
G01*
X216050000Y-20650000D02*
G75*
G02*
X223050000Y-27650000I-100J-7000100D01*
G01*
X223050000Y-27650000D02*
X223050253Y-165350253D01*
X59800253Y-172350253D02*
X216050253Y-172350253D01*
%TO.C,R28*%
X158800000Y-118000000D02*
G75*
G02*
X154400000Y-118000000I-2200000J0D01*
G01*
X154400000Y-118000000D02*
G75*
G02*
X158800000Y-118000000I2200000J0D01*
G01*
X158800000Y-155000000D02*
G75*
G02*
X154400000Y-155000000I-2200000J0D01*
G01*
X154400000Y-155000000D02*
G75*
G02*
X158800000Y-155000000I2200000J0D01*
G01*
X193800000Y-118000000D02*
G75*
G02*
X189400000Y-118000000I-2200000J0D01*
G01*
X189400000Y-118000000D02*
G75*
G02*
X193800000Y-118000000I2200000J0D01*
G01*
X193800000Y-155000000D02*
G75*
G02*
X189400000Y-155000000I-2200000J0D01*
G01*
X189400000Y-155000000D02*
G75*
G02*
X193800000Y-155000000I2200000J0D01*
G01*
%TO.C,R29*%
X158600000Y-66600000D02*
G75*
G02*
X154200000Y-66600000I-2200000J0D01*
G01*
X154200000Y-66600000D02*
G75*
G02*
X158600000Y-66600000I2200000J0D01*
G01*
X158600000Y-103600000D02*
G75*
G02*
X154200000Y-103600000I-2200000J0D01*
G01*
X154200000Y-103600000D02*
G75*
G02*
X158600000Y-103600000I2200000J0D01*
G01*
X193600000Y-66600000D02*
G75*
G02*
X189200000Y-66600000I-2200000J0D01*
G01*
X189200000Y-66600000D02*
G75*
G02*
X193600000Y-66600000I2200000J0D01*
G01*
X193600000Y-103600000D02*
G75*
G02*
X189200000Y-103600000I-2200000J0D01*
G01*
X189200000Y-103600000D02*
G75*
G02*
X193600000Y-103600000I2200000J0D01*
G01*
%TD*%
M02*
