%TF.GenerationSoftware,KiCad,Pcbnew,8.0.4*%
%TF.CreationDate,2025-05-16T23:00:13-07:00*%
%TF.ProjectId,pcc_v0.1,7063635f-7630-42e3-912e-6b696361645f,rev?*%
%TF.SameCoordinates,Original*%
%TF.FileFunction,Soldermask,Bot*%
%TF.FilePolarity,Negative*%
%FSLAX46Y46*%
G04 Gerber Fmt 4.6, Leading zero omitted, Abs format (unit mm)*
G04 Created by KiCad (PCBNEW 8.0.4) date 2025-05-16 23:00:13*
%MOMM*%
%LPD*%
G01*
G04 APERTURE LIST*
G04 Aperture macros list*
%AMRoundRect*
0 Rectangle with rounded corners*
0 $1 Rounding radius*
0 $2 $3 $4 $5 $6 $7 $8 $9 X,Y pos of 4 corners*
0 Add a 4 corners polygon primitive as box body*
4,1,4,$2,$3,$4,$5,$6,$7,$8,$9,$2,$3,0*
0 Add four circle primitives for the rounded corners*
1,1,$1+$1,$2,$3*
1,1,$1+$1,$4,$5*
1,1,$1+$1,$6,$7*
1,1,$1+$1,$8,$9*
0 Add four rect primitives between the rounded corners*
20,1,$1+$1,$2,$3,$4,$5,0*
20,1,$1+$1,$4,$5,$6,$7,0*
20,1,$1+$1,$6,$7,$8,$9,0*
20,1,$1+$1,$8,$9,$2,$3,0*%
G04 Aperture macros list end*
%ADD10R,3.200000X3.200000*%
%ADD11O,3.200000X3.200000*%
%ADD12C,1.524000*%
%ADD13C,1.727200*%
%ADD14C,2.500000*%
%ADD15C,3.200000*%
%ADD16C,3.000000*%
%ADD17RoundRect,0.250001X-1.399999X1.099999X-1.399999X-1.099999X1.399999X-1.099999X1.399999X1.099999X0*%
%ADD18O,3.300000X2.700000*%
%ADD19R,1.600000X1.600000*%
%ADD20O,1.600000X1.600000*%
%ADD21RoundRect,0.250001X1.099999X1.399999X-1.099999X1.399999X-1.099999X-1.399999X1.099999X-1.399999X0*%
%ADD22O,2.700000X3.300000*%
%ADD23R,1.450000X1.450000*%
%ADD24C,1.450000*%
%ADD25C,8.400000*%
%ADD26O,3.500000X3.500000*%
%ADD27R,2.000000X1.905000*%
%ADD28O,2.000000X1.905000*%
G04 APERTURE END LIST*
D10*
%TO.C,D1*%
X77400000Y-131200000D03*
D11*
X77400000Y-138820000D03*
%TD*%
D12*
%TO.C,K3*%
X73800253Y-93010253D03*
X73800253Y-95550253D03*
D13*
X73800253Y-103170253D03*
X73800253Y-110790253D03*
%TD*%
D14*
%TO.C,R28*%
X129800000Y-136500000D03*
X217800000Y-136500000D03*
%TD*%
D15*
%TO.C,REF\u002A\u002A*%
X216050253Y-165350253D03*
%TD*%
D16*
%TO.C,J7*%
X58960000Y-113050000D03*
X58960000Y-126650000D03*
D17*
X64000000Y-117750000D03*
D18*
X64000000Y-121950000D03*
X58500000Y-117750000D03*
X58500000Y-121950000D03*
%TD*%
D19*
%TO.C,J4*%
X74175000Y-38125000D03*
D20*
X74175000Y-40665000D03*
X74175000Y-43205000D03*
X74175000Y-45745000D03*
X74175000Y-48285000D03*
X74175000Y-50825000D03*
X74175000Y-53365000D03*
X74175000Y-55905000D03*
X74175000Y-58445000D03*
X74175000Y-60985000D03*
X74175000Y-63525000D03*
X74175000Y-66065000D03*
X74175000Y-68605000D03*
X74175000Y-71145000D03*
X89415000Y-71145000D03*
X89415000Y-68605000D03*
X89415000Y-66065000D03*
X89415000Y-63525000D03*
X89415000Y-60985000D03*
X89415000Y-58445000D03*
X89415000Y-55905000D03*
X89415000Y-53365000D03*
X89415000Y-50825000D03*
X89415000Y-48285000D03*
X89415000Y-45745000D03*
X89415000Y-43205000D03*
X89415000Y-40665000D03*
X89415000Y-38125000D03*
%TD*%
D16*
%TO.C,J8*%
X59000000Y-132100000D03*
X59000000Y-141500000D03*
D17*
X64040000Y-136800000D03*
D18*
X58540000Y-136800000D03*
%TD*%
D16*
%TO.C,J6*%
X201200000Y-27010000D03*
X187600000Y-27010000D03*
D21*
X196500000Y-32050000D03*
D22*
X192300000Y-32050000D03*
X196500000Y-26550000D03*
X192300000Y-26550000D03*
%TD*%
D15*
%TO.C,REF\u002A\u002A*%
X59800253Y-165350253D03*
%TD*%
D23*
%TO.C,U6*%
X94850000Y-24400000D03*
D24*
X97390000Y-24400000D03*
X107550000Y-24400000D03*
X110090000Y-24400000D03*
X112630000Y-24400000D03*
%TD*%
D16*
%TO.C,J3*%
X58960000Y-147800000D03*
X58960000Y-157200000D03*
D17*
X64000000Y-152500000D03*
D18*
X58500000Y-152500000D03*
%TD*%
D15*
%TO.C,REF\u002A\u002A*%
X59800000Y-27650000D03*
%TD*%
D16*
%TO.C,J2*%
X59800000Y-34550000D03*
X59800000Y-48150000D03*
D17*
X64840000Y-39250000D03*
D18*
X64840000Y-43450000D03*
X59340000Y-39250000D03*
X59340000Y-43450000D03*
%TD*%
D14*
%TO.C,R29*%
X218200000Y-85100000D03*
X130200000Y-85100000D03*
%TD*%
D19*
%TO.C,U2*%
X104020253Y-41630253D03*
D20*
X104020253Y-39090253D03*
X104020253Y-36550253D03*
X96400253Y-36550253D03*
X96400253Y-39090253D03*
X96400253Y-41630253D03*
%TD*%
D19*
%TO.C,U1*%
X132430000Y-23860000D03*
D20*
X132430000Y-26400000D03*
X132430000Y-28940000D03*
X132430000Y-31480000D03*
X140050000Y-31480000D03*
X140050000Y-28940000D03*
X140050000Y-26400000D03*
X140050000Y-23860000D03*
%TD*%
D19*
%TO.C,U3*%
X104020253Y-52130253D03*
D20*
X104020253Y-49590253D03*
X104020253Y-47050253D03*
X96400253Y-47050253D03*
X96400253Y-49590253D03*
X96400253Y-52130253D03*
%TD*%
D19*
%TO.C,U4*%
X132730000Y-40160000D03*
D20*
X132730000Y-42700000D03*
X132730000Y-45240000D03*
X132730000Y-47780000D03*
X140350000Y-47780000D03*
X140350000Y-45240000D03*
X140350000Y-42700000D03*
X140350000Y-40160000D03*
%TD*%
D15*
%TO.C,REF\u002A\u002A*%
X216050000Y-27650000D03*
%TD*%
D25*
%TO.C,K4*%
X91400000Y-134800000D03*
D14*
X106900000Y-134800000D03*
X106900000Y-125800000D03*
X106900000Y-143800000D03*
X77400000Y-125800000D03*
X77400000Y-143800000D03*
%TD*%
D26*
%TO.C,U9*%
X72870000Y-27900000D03*
D27*
X89530000Y-30440000D03*
D28*
X89530000Y-27900000D03*
X89530000Y-25360000D03*
%TD*%
M02*
