%TF.GenerationSoftware,KiCad,Pcbnew,8.0.4*%
%TF.CreationDate,2025-05-16T23:00:12-07:00*%
%TF.ProjectId,pcc_v0.1,7063635f-7630-42e3-912e-6b696361645f,rev?*%
%TF.SameCoordinates,Original*%
%TF.FileFunction,Paste,Top*%
%TF.FilePolarity,Positive*%
%FSLAX46Y46*%
G04 Gerber Fmt 4.6, Leading zero omitted, Abs format (unit mm)*
G04 Created by KiCad (PCBNEW 8.0.4) date 2025-05-16 23:00:12*
%MOMM*%
%LPD*%
G01*
G04 APERTURE LIST*
G04 Aperture macros list*
%AMRoundRect*
0 Rectangle with rounded corners*
0 $1 Rounding radius*
0 $2 $3 $4 $5 $6 $7 $8 $9 X,Y pos of 4 corners*
0 Add a 4 corners polygon primitive as box body*
4,1,4,$2,$3,$4,$5,$6,$7,$8,$9,$2,$3,0*
0 Add four circle primitives for the rounded corners*
1,1,$1+$1,$2,$3*
1,1,$1+$1,$4,$5*
1,1,$1+$1,$6,$7*
1,1,$1+$1,$8,$9*
0 Add four rect primitives between the rounded corners*
20,1,$1+$1,$2,$3,$4,$5,0*
20,1,$1+$1,$4,$5,$6,$7,0*
20,1,$1+$1,$6,$7,$8,$9,0*
20,1,$1+$1,$8,$9,$2,$3,0*%
G04 Aperture macros list end*
%ADD10RoundRect,0.250000X-0.475000X0.250000X-0.475000X-0.250000X0.475000X-0.250000X0.475000X0.250000X0*%
%ADD11RoundRect,0.250000X-0.262500X-0.450000X0.262500X-0.450000X0.262500X0.450000X-0.262500X0.450000X0*%
%ADD12RoundRect,0.250000X0.262500X0.450000X-0.262500X0.450000X-0.262500X-0.450000X0.262500X-0.450000X0*%
%ADD13RoundRect,0.250000X-0.250000X-0.475000X0.250000X-0.475000X0.250000X0.475000X-0.250000X0.475000X0*%
%ADD14R,0.558800X1.270000*%
%ADD15RoundRect,0.150000X0.825000X0.150000X-0.825000X0.150000X-0.825000X-0.150000X0.825000X-0.150000X0*%
%ADD16RoundRect,0.250000X0.250000X0.475000X-0.250000X0.475000X-0.250000X-0.475000X0.250000X-0.475000X0*%
%ADD17RoundRect,0.250000X-0.450000X0.262500X-0.450000X-0.262500X0.450000X-0.262500X0.450000X0.262500X0*%
G04 APERTURE END LIST*
D10*
%TO.C,C6*%
X133230000Y-52210000D03*
X133230000Y-54110000D03*
%TD*%
D11*
%TO.C,R19*%
X145730000Y-44160000D03*
X147555000Y-44160000D03*
%TD*%
D12*
%TO.C,R21*%
X175012753Y-24750253D03*
X173187753Y-24750253D03*
%TD*%
%TO.C,R4*%
X159512753Y-30000253D03*
X157687753Y-30000253D03*
%TD*%
D11*
%TO.C,R33*%
X75900253Y-78190253D03*
X77725253Y-78190253D03*
%TD*%
D13*
%TO.C,C5*%
X120850000Y-44650000D03*
X122750000Y-44650000D03*
%TD*%
D12*
%TO.C,R30*%
X88800253Y-75890253D03*
X86975253Y-75890253D03*
%TD*%
%TO.C,R16*%
X128462500Y-27400000D03*
X126637500Y-27400000D03*
%TD*%
%TO.C,R12*%
X97025253Y-28750253D03*
X95200253Y-28750253D03*
%TD*%
D10*
%TO.C,C1*%
X140050000Y-34150000D03*
X140050000Y-36050000D03*
%TD*%
%TO.C,C10*%
X87200253Y-77790253D03*
X87200253Y-79690253D03*
%TD*%
D12*
%TO.C,R5*%
X159425253Y-24750253D03*
X157600253Y-24750253D03*
%TD*%
%TO.C,R2*%
X171425253Y-30000253D03*
X169600253Y-30000253D03*
%TD*%
D13*
%TO.C,C4*%
X120580000Y-27410000D03*
X122480000Y-27410000D03*
%TD*%
D14*
%TO.C,U5*%
X74600253Y-86350253D03*
X72770255Y-86350253D03*
X73685254Y-88280653D03*
%TD*%
D12*
%TO.C,R18*%
X147462500Y-40900000D03*
X145637500Y-40900000D03*
%TD*%
%TO.C,R1*%
X175100253Y-30000253D03*
X173275253Y-30000253D03*
%TD*%
D11*
%TO.C,R31*%
X86987753Y-81590253D03*
X88812753Y-81590253D03*
%TD*%
D15*
%TO.C,U8*%
X84800253Y-81000253D03*
X84800253Y-79730253D03*
X84800253Y-78460253D03*
X84800253Y-77190253D03*
X79850253Y-77190253D03*
X79850253Y-78460253D03*
X79850253Y-79730253D03*
X79850253Y-81000253D03*
%TD*%
D12*
%TO.C,R26*%
X117212500Y-33650000D03*
X115387500Y-33650000D03*
%TD*%
D11*
%TO.C,R7*%
X145317500Y-27660000D03*
X147142500Y-27660000D03*
%TD*%
D12*
%TO.C,R25*%
X163512753Y-30000253D03*
X161687753Y-30000253D03*
%TD*%
%TO.C,R3*%
X167425253Y-30000253D03*
X165600253Y-30000253D03*
%TD*%
D10*
%TO.C,C3*%
X133300000Y-34200000D03*
X133300000Y-36100000D03*
%TD*%
D12*
%TO.C,R23*%
X167337753Y-24750253D03*
X165512753Y-24750253D03*
%TD*%
D16*
%TO.C,C9*%
X110130000Y-29110000D03*
X108230000Y-29110000D03*
%TD*%
D10*
%TO.C,C8*%
X140250253Y-52200253D03*
X140250253Y-54100253D03*
%TD*%
%TO.C,C7*%
X136730000Y-52210000D03*
X136730000Y-54110000D03*
%TD*%
D16*
%TO.C,C12*%
X74100253Y-79190253D03*
X72200253Y-79190253D03*
%TD*%
D11*
%TO.C,R8*%
X120567500Y-23910000D03*
X122392500Y-23910000D03*
%TD*%
D12*
%TO.C,R13*%
X97025253Y-32250253D03*
X95200253Y-32250253D03*
%TD*%
D17*
%TO.C,R32*%
X79550253Y-82660253D03*
X79550253Y-84485253D03*
%TD*%
D12*
%TO.C,R24*%
X163425253Y-24750253D03*
X161600253Y-24750253D03*
%TD*%
%TO.C,R14*%
X116962500Y-47400000D03*
X115137500Y-47400000D03*
%TD*%
D11*
%TO.C,R11*%
X126567500Y-24160000D03*
X128392500Y-24160000D03*
%TD*%
D10*
%TO.C,C2*%
X136620000Y-34240000D03*
X136620000Y-36140000D03*
%TD*%
D12*
%TO.C,R10*%
X128200000Y-44650000D03*
X126375000Y-44650000D03*
%TD*%
D11*
%TO.C,R17*%
X120905000Y-42160000D03*
X122730000Y-42160000D03*
%TD*%
D12*
%TO.C,R20*%
X155425253Y-24750253D03*
X153600253Y-24750253D03*
%TD*%
%TO.C,R6*%
X155425253Y-30000253D03*
X153600253Y-30000253D03*
%TD*%
D11*
%TO.C,R15*%
X126317500Y-42160000D03*
X128142500Y-42160000D03*
%TD*%
D12*
%TO.C,R22*%
X171337753Y-24750253D03*
X169512753Y-24750253D03*
%TD*%
%TO.C,R9*%
X147125000Y-24400000D03*
X145300000Y-24400000D03*
%TD*%
%TO.C,R27*%
X77725253Y-80190253D03*
X75900253Y-80190253D03*
%TD*%
M02*
