%TF.GenerationSoftware,KiCad,Pcbnew,9.0.5*%
%TF.CreationDate,2026-03-25T14:34:15-07:00*%
%TF.ProjectId,Hi_board_bbc1,48695f62-6f61-4726-945f-626263312e6b,rev?*%
%TF.SameCoordinates,Original*%
%TF.FileFunction,Legend,Top*%
%TF.FilePolarity,Positive*%
%FSLAX46Y46*%
G04 Gerber Fmt 4.6, Leading zero omitted, Abs format (unit mm)*
G04 Created by KiCad (PCBNEW 9.0.5) date 2026-03-25 14:34:15*
%MOMM*%
%LPD*%
G01*
G04 APERTURE LIST*
%ADD10C,0.100000*%
%ADD11C,0.150000*%
%ADD12C,0.120000*%
G04 APERTURE END LIST*
D10*
X136896895Y-146815163D02*
X136096895Y-146815163D01*
X136896895Y-146577068D02*
X136096895Y-146577068D01*
X136096895Y-146577068D02*
X136668323Y-146410401D01*
X136668323Y-146410401D02*
X136096895Y-146243735D01*
X136096895Y-146243735D02*
X136896895Y-146243735D01*
X136896895Y-146005639D02*
X136096895Y-146005639D01*
X136096895Y-146005639D02*
X136096895Y-145886591D01*
X136096895Y-145886591D02*
X136134990Y-145815163D01*
X136134990Y-145815163D02*
X136211180Y-145767544D01*
X136211180Y-145767544D02*
X136287371Y-145743734D01*
X136287371Y-145743734D02*
X136439752Y-145719925D01*
X136439752Y-145719925D02*
X136554038Y-145719925D01*
X136554038Y-145719925D02*
X136706419Y-145743734D01*
X136706419Y-145743734D02*
X136782609Y-145767544D01*
X136782609Y-145767544D02*
X136858800Y-145815163D01*
X136858800Y-145815163D02*
X136896895Y-145886591D01*
X136896895Y-145886591D02*
X136896895Y-146005639D01*
X136973085Y-145624687D02*
X136973085Y-145243734D01*
X136896895Y-144838973D02*
X136515942Y-145005639D01*
X136896895Y-145124687D02*
X136096895Y-145124687D01*
X136096895Y-145124687D02*
X136096895Y-144934211D01*
X136096895Y-144934211D02*
X136134990Y-144886592D01*
X136134990Y-144886592D02*
X136173085Y-144862782D01*
X136173085Y-144862782D02*
X136249276Y-144838973D01*
X136249276Y-144838973D02*
X136363561Y-144838973D01*
X136363561Y-144838973D02*
X136439752Y-144862782D01*
X136439752Y-144862782D02*
X136477847Y-144886592D01*
X136477847Y-144886592D02*
X136515942Y-144934211D01*
X136515942Y-144934211D02*
X136515942Y-145124687D01*
X136858800Y-144434211D02*
X136896895Y-144481830D01*
X136896895Y-144481830D02*
X136896895Y-144577068D01*
X136896895Y-144577068D02*
X136858800Y-144624687D01*
X136858800Y-144624687D02*
X136782609Y-144648496D01*
X136782609Y-144648496D02*
X136477847Y-144648496D01*
X136477847Y-144648496D02*
X136401657Y-144624687D01*
X136401657Y-144624687D02*
X136363561Y-144577068D01*
X136363561Y-144577068D02*
X136363561Y-144481830D01*
X136363561Y-144481830D02*
X136401657Y-144434211D01*
X136401657Y-144434211D02*
X136477847Y-144410401D01*
X136477847Y-144410401D02*
X136554038Y-144410401D01*
X136554038Y-144410401D02*
X136630228Y-144648496D01*
X136858800Y-144219925D02*
X136896895Y-144172306D01*
X136896895Y-144172306D02*
X136896895Y-144077068D01*
X136896895Y-144077068D02*
X136858800Y-144029449D01*
X136858800Y-144029449D02*
X136782609Y-144005640D01*
X136782609Y-144005640D02*
X136744514Y-144005640D01*
X136744514Y-144005640D02*
X136668323Y-144029449D01*
X136668323Y-144029449D02*
X136630228Y-144077068D01*
X136630228Y-144077068D02*
X136630228Y-144148497D01*
X136630228Y-144148497D02*
X136592133Y-144196116D01*
X136592133Y-144196116D02*
X136515942Y-144219925D01*
X136515942Y-144219925D02*
X136477847Y-144219925D01*
X136477847Y-144219925D02*
X136401657Y-144196116D01*
X136401657Y-144196116D02*
X136363561Y-144148497D01*
X136363561Y-144148497D02*
X136363561Y-144077068D01*
X136363561Y-144077068D02*
X136401657Y-144029449D01*
X136858800Y-143600878D02*
X136896895Y-143648497D01*
X136896895Y-143648497D02*
X136896895Y-143743735D01*
X136896895Y-143743735D02*
X136858800Y-143791354D01*
X136858800Y-143791354D02*
X136782609Y-143815163D01*
X136782609Y-143815163D02*
X136477847Y-143815163D01*
X136477847Y-143815163D02*
X136401657Y-143791354D01*
X136401657Y-143791354D02*
X136363561Y-143743735D01*
X136363561Y-143743735D02*
X136363561Y-143648497D01*
X136363561Y-143648497D02*
X136401657Y-143600878D01*
X136401657Y-143600878D02*
X136477847Y-143577068D01*
X136477847Y-143577068D02*
X136554038Y-143577068D01*
X136554038Y-143577068D02*
X136630228Y-143815163D01*
X136363561Y-143434211D02*
X136363561Y-143243735D01*
X136096895Y-143362783D02*
X136782609Y-143362783D01*
X136782609Y-143362783D02*
X136858800Y-143338973D01*
X136858800Y-143338973D02*
X136896895Y-143291354D01*
X136896895Y-143291354D02*
X136896895Y-143243735D01*
X136973085Y-143196117D02*
X136973085Y-142815164D01*
X136896895Y-142624688D02*
X136858800Y-142672307D01*
X136858800Y-142672307D02*
X136820704Y-142696117D01*
X136820704Y-142696117D02*
X136744514Y-142719926D01*
X136744514Y-142719926D02*
X136515942Y-142719926D01*
X136515942Y-142719926D02*
X136439752Y-142696117D01*
X136439752Y-142696117D02*
X136401657Y-142672307D01*
X136401657Y-142672307D02*
X136363561Y-142624688D01*
X136363561Y-142624688D02*
X136363561Y-142553260D01*
X136363561Y-142553260D02*
X136401657Y-142505641D01*
X136401657Y-142505641D02*
X136439752Y-142481831D01*
X136439752Y-142481831D02*
X136515942Y-142458022D01*
X136515942Y-142458022D02*
X136744514Y-142458022D01*
X136744514Y-142458022D02*
X136820704Y-142481831D01*
X136820704Y-142481831D02*
X136858800Y-142505641D01*
X136858800Y-142505641D02*
X136896895Y-142553260D01*
X136896895Y-142553260D02*
X136896895Y-142624688D01*
X136363561Y-142029450D02*
X136896895Y-142029450D01*
X136363561Y-142243736D02*
X136782609Y-142243736D01*
X136782609Y-142243736D02*
X136858800Y-142219926D01*
X136858800Y-142219926D02*
X136896895Y-142172307D01*
X136896895Y-142172307D02*
X136896895Y-142100879D01*
X136896895Y-142100879D02*
X136858800Y-142053260D01*
X136858800Y-142053260D02*
X136820704Y-142029450D01*
X136363561Y-141862783D02*
X136363561Y-141672307D01*
X136096895Y-141791355D02*
X136782609Y-141791355D01*
X136782609Y-141791355D02*
X136858800Y-141767545D01*
X136858800Y-141767545D02*
X136896895Y-141719926D01*
X136896895Y-141719926D02*
X136896895Y-141672307D01*
X128407866Y-143684836D02*
X128407866Y-144065789D01*
X128103104Y-143875312D02*
X128712628Y-143875312D01*
X128103104Y-144565789D02*
X128103104Y-144280075D01*
X128103104Y-144422932D02*
X128903104Y-144422932D01*
X128903104Y-144422932D02*
X128788819Y-144375313D01*
X128788819Y-144375313D02*
X128712628Y-144327694D01*
X128712628Y-144327694D02*
X128674533Y-144280075D01*
X128826914Y-144756265D02*
X128865009Y-144780074D01*
X128865009Y-144780074D02*
X128903104Y-144827693D01*
X128903104Y-144827693D02*
X128903104Y-144946741D01*
X128903104Y-144946741D02*
X128865009Y-144994360D01*
X128865009Y-144994360D02*
X128826914Y-145018169D01*
X128826914Y-145018169D02*
X128750723Y-145041979D01*
X128750723Y-145041979D02*
X128674533Y-145041979D01*
X128674533Y-145041979D02*
X128560247Y-145018169D01*
X128560247Y-145018169D02*
X128103104Y-144732455D01*
X128103104Y-144732455D02*
X128103104Y-145041979D01*
X128903104Y-145184836D02*
X128103104Y-145351502D01*
X128103104Y-145351502D02*
X128903104Y-145518169D01*
X153977847Y-146148496D02*
X154015942Y-146077068D01*
X154015942Y-146077068D02*
X154054038Y-146053258D01*
X154054038Y-146053258D02*
X154130228Y-146029449D01*
X154130228Y-146029449D02*
X154244514Y-146029449D01*
X154244514Y-146029449D02*
X154320704Y-146053258D01*
X154320704Y-146053258D02*
X154358800Y-146077068D01*
X154358800Y-146077068D02*
X154396895Y-146124687D01*
X154396895Y-146124687D02*
X154396895Y-146315163D01*
X154396895Y-146315163D02*
X153596895Y-146315163D01*
X153596895Y-146315163D02*
X153596895Y-146148496D01*
X153596895Y-146148496D02*
X153634990Y-146100877D01*
X153634990Y-146100877D02*
X153673085Y-146077068D01*
X153673085Y-146077068D02*
X153749276Y-146053258D01*
X153749276Y-146053258D02*
X153825466Y-146053258D01*
X153825466Y-146053258D02*
X153901657Y-146077068D01*
X153901657Y-146077068D02*
X153939752Y-146100877D01*
X153939752Y-146100877D02*
X153977847Y-146148496D01*
X153977847Y-146148496D02*
X153977847Y-146315163D01*
X154396895Y-145815163D02*
X153596895Y-145815163D01*
X153596895Y-145815163D02*
X154168323Y-145648496D01*
X154168323Y-145648496D02*
X153596895Y-145481830D01*
X153596895Y-145481830D02*
X154396895Y-145481830D01*
X154358800Y-145267543D02*
X154396895Y-145196115D01*
X154396895Y-145196115D02*
X154396895Y-145077067D01*
X154396895Y-145077067D02*
X154358800Y-145029448D01*
X154358800Y-145029448D02*
X154320704Y-145005639D01*
X154320704Y-145005639D02*
X154244514Y-144981829D01*
X154244514Y-144981829D02*
X154168323Y-144981829D01*
X154168323Y-144981829D02*
X154092133Y-145005639D01*
X154092133Y-145005639D02*
X154054038Y-145029448D01*
X154054038Y-145029448D02*
X154015942Y-145077067D01*
X154015942Y-145077067D02*
X153977847Y-145172305D01*
X153977847Y-145172305D02*
X153939752Y-145219924D01*
X153939752Y-145219924D02*
X153901657Y-145243734D01*
X153901657Y-145243734D02*
X153825466Y-145267543D01*
X153825466Y-145267543D02*
X153749276Y-145267543D01*
X153749276Y-145267543D02*
X153673085Y-145243734D01*
X153673085Y-145243734D02*
X153634990Y-145219924D01*
X153634990Y-145219924D02*
X153596895Y-145172305D01*
X153596895Y-145172305D02*
X153596895Y-145053258D01*
X153596895Y-145053258D02*
X153634990Y-144981829D01*
X154473085Y-144886592D02*
X154473085Y-144505639D01*
X154396895Y-144100878D02*
X154015942Y-144267544D01*
X154396895Y-144386592D02*
X153596895Y-144386592D01*
X153596895Y-144386592D02*
X153596895Y-144196116D01*
X153596895Y-144196116D02*
X153634990Y-144148497D01*
X153634990Y-144148497D02*
X153673085Y-144124687D01*
X153673085Y-144124687D02*
X153749276Y-144100878D01*
X153749276Y-144100878D02*
X153863561Y-144100878D01*
X153863561Y-144100878D02*
X153939752Y-144124687D01*
X153939752Y-144124687D02*
X153977847Y-144148497D01*
X153977847Y-144148497D02*
X154015942Y-144196116D01*
X154015942Y-144196116D02*
X154015942Y-144386592D01*
X154358800Y-143696116D02*
X154396895Y-143743735D01*
X154396895Y-143743735D02*
X154396895Y-143838973D01*
X154396895Y-143838973D02*
X154358800Y-143886592D01*
X154358800Y-143886592D02*
X154282609Y-143910401D01*
X154282609Y-143910401D02*
X153977847Y-143910401D01*
X153977847Y-143910401D02*
X153901657Y-143886592D01*
X153901657Y-143886592D02*
X153863561Y-143838973D01*
X153863561Y-143838973D02*
X153863561Y-143743735D01*
X153863561Y-143743735D02*
X153901657Y-143696116D01*
X153901657Y-143696116D02*
X153977847Y-143672306D01*
X153977847Y-143672306D02*
X154054038Y-143672306D01*
X154054038Y-143672306D02*
X154130228Y-143910401D01*
X154358800Y-143481830D02*
X154396895Y-143434211D01*
X154396895Y-143434211D02*
X154396895Y-143338973D01*
X154396895Y-143338973D02*
X154358800Y-143291354D01*
X154358800Y-143291354D02*
X154282609Y-143267545D01*
X154282609Y-143267545D02*
X154244514Y-143267545D01*
X154244514Y-143267545D02*
X154168323Y-143291354D01*
X154168323Y-143291354D02*
X154130228Y-143338973D01*
X154130228Y-143338973D02*
X154130228Y-143410402D01*
X154130228Y-143410402D02*
X154092133Y-143458021D01*
X154092133Y-143458021D02*
X154015942Y-143481830D01*
X154015942Y-143481830D02*
X153977847Y-143481830D01*
X153977847Y-143481830D02*
X153901657Y-143458021D01*
X153901657Y-143458021D02*
X153863561Y-143410402D01*
X153863561Y-143410402D02*
X153863561Y-143338973D01*
X153863561Y-143338973D02*
X153901657Y-143291354D01*
X154358800Y-142862783D02*
X154396895Y-142910402D01*
X154396895Y-142910402D02*
X154396895Y-143005640D01*
X154396895Y-143005640D02*
X154358800Y-143053259D01*
X154358800Y-143053259D02*
X154282609Y-143077068D01*
X154282609Y-143077068D02*
X153977847Y-143077068D01*
X153977847Y-143077068D02*
X153901657Y-143053259D01*
X153901657Y-143053259D02*
X153863561Y-143005640D01*
X153863561Y-143005640D02*
X153863561Y-142910402D01*
X153863561Y-142910402D02*
X153901657Y-142862783D01*
X153901657Y-142862783D02*
X153977847Y-142838973D01*
X153977847Y-142838973D02*
X154054038Y-142838973D01*
X154054038Y-142838973D02*
X154130228Y-143077068D01*
X153863561Y-142696116D02*
X153863561Y-142505640D01*
X153596895Y-142624688D02*
X154282609Y-142624688D01*
X154282609Y-142624688D02*
X154358800Y-142600878D01*
X154358800Y-142600878D02*
X154396895Y-142553259D01*
X154396895Y-142553259D02*
X154396895Y-142505640D01*
X163407866Y-143684836D02*
X163407866Y-144065789D01*
X163103104Y-143875312D02*
X163712628Y-143875312D01*
X163103104Y-144565789D02*
X163103104Y-144280075D01*
X163103104Y-144422932D02*
X163903104Y-144422932D01*
X163903104Y-144422932D02*
X163788819Y-144375313D01*
X163788819Y-144375313D02*
X163712628Y-144327694D01*
X163712628Y-144327694D02*
X163674533Y-144280075D01*
X163826914Y-144756265D02*
X163865009Y-144780074D01*
X163865009Y-144780074D02*
X163903104Y-144827693D01*
X163903104Y-144827693D02*
X163903104Y-144946741D01*
X163903104Y-144946741D02*
X163865009Y-144994360D01*
X163865009Y-144994360D02*
X163826914Y-145018169D01*
X163826914Y-145018169D02*
X163750723Y-145041979D01*
X163750723Y-145041979D02*
X163674533Y-145041979D01*
X163674533Y-145041979D02*
X163560247Y-145018169D01*
X163560247Y-145018169D02*
X163103104Y-144732455D01*
X163103104Y-144732455D02*
X163103104Y-145041979D01*
X163903104Y-145184836D02*
X163103104Y-145351502D01*
X163103104Y-145351502D02*
X163903104Y-145518169D01*
X145603104Y-142184836D02*
X146403104Y-142184836D01*
X145603104Y-142422931D02*
X146403104Y-142422931D01*
X146403104Y-142422931D02*
X145831676Y-142589598D01*
X145831676Y-142589598D02*
X146403104Y-142756264D01*
X146403104Y-142756264D02*
X145603104Y-142756264D01*
X145603104Y-142994360D02*
X146403104Y-142994360D01*
X146403104Y-142994360D02*
X146403104Y-143113408D01*
X146403104Y-143113408D02*
X146365009Y-143184836D01*
X146365009Y-143184836D02*
X146288819Y-143232455D01*
X146288819Y-143232455D02*
X146212628Y-143256265D01*
X146212628Y-143256265D02*
X146060247Y-143280074D01*
X146060247Y-143280074D02*
X145945961Y-143280074D01*
X145945961Y-143280074D02*
X145793580Y-143256265D01*
X145793580Y-143256265D02*
X145717390Y-143232455D01*
X145717390Y-143232455D02*
X145641200Y-143184836D01*
X145641200Y-143184836D02*
X145603104Y-143113408D01*
X145603104Y-143113408D02*
X145603104Y-142994360D01*
X145526914Y-143375313D02*
X145526914Y-143756265D01*
X145603104Y-144161026D02*
X145984057Y-143994360D01*
X145603104Y-143875312D02*
X146403104Y-143875312D01*
X146403104Y-143875312D02*
X146403104Y-144065788D01*
X146403104Y-144065788D02*
X146365009Y-144113407D01*
X146365009Y-144113407D02*
X146326914Y-144137217D01*
X146326914Y-144137217D02*
X146250723Y-144161026D01*
X146250723Y-144161026D02*
X146136438Y-144161026D01*
X146136438Y-144161026D02*
X146060247Y-144137217D01*
X146060247Y-144137217D02*
X146022152Y-144113407D01*
X146022152Y-144113407D02*
X145984057Y-144065788D01*
X145984057Y-144065788D02*
X145984057Y-143875312D01*
X145641200Y-144565788D02*
X145603104Y-144518169D01*
X145603104Y-144518169D02*
X145603104Y-144422931D01*
X145603104Y-144422931D02*
X145641200Y-144375312D01*
X145641200Y-144375312D02*
X145717390Y-144351503D01*
X145717390Y-144351503D02*
X146022152Y-144351503D01*
X146022152Y-144351503D02*
X146098342Y-144375312D01*
X146098342Y-144375312D02*
X146136438Y-144422931D01*
X146136438Y-144422931D02*
X146136438Y-144518169D01*
X146136438Y-144518169D02*
X146098342Y-144565788D01*
X146098342Y-144565788D02*
X146022152Y-144589598D01*
X146022152Y-144589598D02*
X145945961Y-144589598D01*
X145945961Y-144589598D02*
X145869771Y-144351503D01*
X145641200Y-144780074D02*
X145603104Y-144827693D01*
X145603104Y-144827693D02*
X145603104Y-144922931D01*
X145603104Y-144922931D02*
X145641200Y-144970550D01*
X145641200Y-144970550D02*
X145717390Y-144994359D01*
X145717390Y-144994359D02*
X145755485Y-144994359D01*
X145755485Y-144994359D02*
X145831676Y-144970550D01*
X145831676Y-144970550D02*
X145869771Y-144922931D01*
X145869771Y-144922931D02*
X145869771Y-144851502D01*
X145869771Y-144851502D02*
X145907866Y-144803883D01*
X145907866Y-144803883D02*
X145984057Y-144780074D01*
X145984057Y-144780074D02*
X146022152Y-144780074D01*
X146022152Y-144780074D02*
X146098342Y-144803883D01*
X146098342Y-144803883D02*
X146136438Y-144851502D01*
X146136438Y-144851502D02*
X146136438Y-144922931D01*
X146136438Y-144922931D02*
X146098342Y-144970550D01*
X145641200Y-145399121D02*
X145603104Y-145351502D01*
X145603104Y-145351502D02*
X145603104Y-145256264D01*
X145603104Y-145256264D02*
X145641200Y-145208645D01*
X145641200Y-145208645D02*
X145717390Y-145184836D01*
X145717390Y-145184836D02*
X146022152Y-145184836D01*
X146022152Y-145184836D02*
X146098342Y-145208645D01*
X146098342Y-145208645D02*
X146136438Y-145256264D01*
X146136438Y-145256264D02*
X146136438Y-145351502D01*
X146136438Y-145351502D02*
X146098342Y-145399121D01*
X146098342Y-145399121D02*
X146022152Y-145422931D01*
X146022152Y-145422931D02*
X145945961Y-145422931D01*
X145945961Y-145422931D02*
X145869771Y-145184836D01*
X146136438Y-145565788D02*
X146136438Y-145756264D01*
X146403104Y-145637216D02*
X145717390Y-145637216D01*
X145717390Y-145637216D02*
X145641200Y-145661026D01*
X145641200Y-145661026D02*
X145603104Y-145708645D01*
X145603104Y-145708645D02*
X145603104Y-145756264D01*
X145526914Y-145803883D02*
X145526914Y-146184835D01*
X145603104Y-146303882D02*
X146136438Y-146303882D01*
X146403104Y-146303882D02*
X146365009Y-146280073D01*
X146365009Y-146280073D02*
X146326914Y-146303882D01*
X146326914Y-146303882D02*
X146365009Y-146327692D01*
X146365009Y-146327692D02*
X146403104Y-146303882D01*
X146403104Y-146303882D02*
X146326914Y-146303882D01*
X146136438Y-146541977D02*
X145603104Y-146541977D01*
X146060247Y-146541977D02*
X146098342Y-146565787D01*
X146098342Y-146565787D02*
X146136438Y-146613406D01*
X146136438Y-146613406D02*
X146136438Y-146684834D01*
X146136438Y-146684834D02*
X146098342Y-146732453D01*
X146098342Y-146732453D02*
X146022152Y-146756263D01*
X146022152Y-146756263D02*
X145603104Y-146756263D01*
X118977847Y-146148496D02*
X119015942Y-146077068D01*
X119015942Y-146077068D02*
X119054038Y-146053258D01*
X119054038Y-146053258D02*
X119130228Y-146029449D01*
X119130228Y-146029449D02*
X119244514Y-146029449D01*
X119244514Y-146029449D02*
X119320704Y-146053258D01*
X119320704Y-146053258D02*
X119358800Y-146077068D01*
X119358800Y-146077068D02*
X119396895Y-146124687D01*
X119396895Y-146124687D02*
X119396895Y-146315163D01*
X119396895Y-146315163D02*
X118596895Y-146315163D01*
X118596895Y-146315163D02*
X118596895Y-146148496D01*
X118596895Y-146148496D02*
X118634990Y-146100877D01*
X118634990Y-146100877D02*
X118673085Y-146077068D01*
X118673085Y-146077068D02*
X118749276Y-146053258D01*
X118749276Y-146053258D02*
X118825466Y-146053258D01*
X118825466Y-146053258D02*
X118901657Y-146077068D01*
X118901657Y-146077068D02*
X118939752Y-146100877D01*
X118939752Y-146100877D02*
X118977847Y-146148496D01*
X118977847Y-146148496D02*
X118977847Y-146315163D01*
X119358800Y-145838972D02*
X119396895Y-145767544D01*
X119396895Y-145767544D02*
X119396895Y-145648496D01*
X119396895Y-145648496D02*
X119358800Y-145600877D01*
X119358800Y-145600877D02*
X119320704Y-145577068D01*
X119320704Y-145577068D02*
X119244514Y-145553258D01*
X119244514Y-145553258D02*
X119168323Y-145553258D01*
X119168323Y-145553258D02*
X119092133Y-145577068D01*
X119092133Y-145577068D02*
X119054038Y-145600877D01*
X119054038Y-145600877D02*
X119015942Y-145648496D01*
X119015942Y-145648496D02*
X118977847Y-145743734D01*
X118977847Y-145743734D02*
X118939752Y-145791353D01*
X118939752Y-145791353D02*
X118901657Y-145815163D01*
X118901657Y-145815163D02*
X118825466Y-145838972D01*
X118825466Y-145838972D02*
X118749276Y-145838972D01*
X118749276Y-145838972D02*
X118673085Y-145815163D01*
X118673085Y-145815163D02*
X118634990Y-145791353D01*
X118634990Y-145791353D02*
X118596895Y-145743734D01*
X118596895Y-145743734D02*
X118596895Y-145624687D01*
X118596895Y-145624687D02*
X118634990Y-145553258D01*
X119396895Y-145338973D02*
X118596895Y-145338973D01*
X118596895Y-145338973D02*
X118596895Y-145148497D01*
X118596895Y-145148497D02*
X118634990Y-145100878D01*
X118634990Y-145100878D02*
X118673085Y-145077068D01*
X118673085Y-145077068D02*
X118749276Y-145053259D01*
X118749276Y-145053259D02*
X118863561Y-145053259D01*
X118863561Y-145053259D02*
X118939752Y-145077068D01*
X118939752Y-145077068D02*
X118977847Y-145100878D01*
X118977847Y-145100878D02*
X119015942Y-145148497D01*
X119015942Y-145148497D02*
X119015942Y-145338973D01*
X119396895Y-144838973D02*
X118596895Y-144838973D01*
X118596895Y-144838973D02*
X118596895Y-144719925D01*
X118596895Y-144719925D02*
X118634990Y-144648497D01*
X118634990Y-144648497D02*
X118711180Y-144600878D01*
X118711180Y-144600878D02*
X118787371Y-144577068D01*
X118787371Y-144577068D02*
X118939752Y-144553259D01*
X118939752Y-144553259D02*
X119054038Y-144553259D01*
X119054038Y-144553259D02*
X119206419Y-144577068D01*
X119206419Y-144577068D02*
X119282609Y-144600878D01*
X119282609Y-144600878D02*
X119358800Y-144648497D01*
X119358800Y-144648497D02*
X119396895Y-144719925D01*
X119396895Y-144719925D02*
X119396895Y-144838973D01*
X119473085Y-144458021D02*
X119473085Y-144077068D01*
X119396895Y-143672307D02*
X119015942Y-143838973D01*
X119396895Y-143958021D02*
X118596895Y-143958021D01*
X118596895Y-143958021D02*
X118596895Y-143767545D01*
X118596895Y-143767545D02*
X118634990Y-143719926D01*
X118634990Y-143719926D02*
X118673085Y-143696116D01*
X118673085Y-143696116D02*
X118749276Y-143672307D01*
X118749276Y-143672307D02*
X118863561Y-143672307D01*
X118863561Y-143672307D02*
X118939752Y-143696116D01*
X118939752Y-143696116D02*
X118977847Y-143719926D01*
X118977847Y-143719926D02*
X119015942Y-143767545D01*
X119015942Y-143767545D02*
X119015942Y-143958021D01*
X119358800Y-143267545D02*
X119396895Y-143315164D01*
X119396895Y-143315164D02*
X119396895Y-143410402D01*
X119396895Y-143410402D02*
X119358800Y-143458021D01*
X119358800Y-143458021D02*
X119282609Y-143481830D01*
X119282609Y-143481830D02*
X118977847Y-143481830D01*
X118977847Y-143481830D02*
X118901657Y-143458021D01*
X118901657Y-143458021D02*
X118863561Y-143410402D01*
X118863561Y-143410402D02*
X118863561Y-143315164D01*
X118863561Y-143315164D02*
X118901657Y-143267545D01*
X118901657Y-143267545D02*
X118977847Y-143243735D01*
X118977847Y-143243735D02*
X119054038Y-143243735D01*
X119054038Y-143243735D02*
X119130228Y-143481830D01*
X119358800Y-143053259D02*
X119396895Y-143005640D01*
X119396895Y-143005640D02*
X119396895Y-142910402D01*
X119396895Y-142910402D02*
X119358800Y-142862783D01*
X119358800Y-142862783D02*
X119282609Y-142838974D01*
X119282609Y-142838974D02*
X119244514Y-142838974D01*
X119244514Y-142838974D02*
X119168323Y-142862783D01*
X119168323Y-142862783D02*
X119130228Y-142910402D01*
X119130228Y-142910402D02*
X119130228Y-142981831D01*
X119130228Y-142981831D02*
X119092133Y-143029450D01*
X119092133Y-143029450D02*
X119015942Y-143053259D01*
X119015942Y-143053259D02*
X118977847Y-143053259D01*
X118977847Y-143053259D02*
X118901657Y-143029450D01*
X118901657Y-143029450D02*
X118863561Y-142981831D01*
X118863561Y-142981831D02*
X118863561Y-142910402D01*
X118863561Y-142910402D02*
X118901657Y-142862783D01*
X119358800Y-142434212D02*
X119396895Y-142481831D01*
X119396895Y-142481831D02*
X119396895Y-142577069D01*
X119396895Y-142577069D02*
X119358800Y-142624688D01*
X119358800Y-142624688D02*
X119282609Y-142648497D01*
X119282609Y-142648497D02*
X118977847Y-142648497D01*
X118977847Y-142648497D02*
X118901657Y-142624688D01*
X118901657Y-142624688D02*
X118863561Y-142577069D01*
X118863561Y-142577069D02*
X118863561Y-142481831D01*
X118863561Y-142481831D02*
X118901657Y-142434212D01*
X118901657Y-142434212D02*
X118977847Y-142410402D01*
X118977847Y-142410402D02*
X119054038Y-142410402D01*
X119054038Y-142410402D02*
X119130228Y-142648497D01*
X118863561Y-142267545D02*
X118863561Y-142077069D01*
X118596895Y-142196117D02*
X119282609Y-142196117D01*
X119282609Y-142196117D02*
X119358800Y-142172307D01*
X119358800Y-142172307D02*
X119396895Y-142124688D01*
X119396895Y-142124688D02*
X119396895Y-142077069D01*
D11*
X141161638Y-139242171D02*
X141304495Y-139289790D01*
X141304495Y-139289790D02*
X141542590Y-139289790D01*
X141542590Y-139289790D02*
X141637828Y-139242171D01*
X141637828Y-139242171D02*
X141685447Y-139194551D01*
X141685447Y-139194551D02*
X141733066Y-139099313D01*
X141733066Y-139099313D02*
X141733066Y-139004075D01*
X141733066Y-139004075D02*
X141685447Y-138908837D01*
X141685447Y-138908837D02*
X141637828Y-138861218D01*
X141637828Y-138861218D02*
X141542590Y-138813599D01*
X141542590Y-138813599D02*
X141352114Y-138765980D01*
X141352114Y-138765980D02*
X141256876Y-138718361D01*
X141256876Y-138718361D02*
X141209257Y-138670742D01*
X141209257Y-138670742D02*
X141161638Y-138575504D01*
X141161638Y-138575504D02*
X141161638Y-138480266D01*
X141161638Y-138480266D02*
X141209257Y-138385028D01*
X141209257Y-138385028D02*
X141256876Y-138337409D01*
X141256876Y-138337409D02*
X141352114Y-138289790D01*
X141352114Y-138289790D02*
X141590209Y-138289790D01*
X141590209Y-138289790D02*
X141733066Y-138337409D01*
X142066400Y-138289790D02*
X142304495Y-139289790D01*
X142304495Y-139289790D02*
X142494971Y-138575504D01*
X142494971Y-138575504D02*
X142685447Y-139289790D01*
X142685447Y-139289790D02*
X142923543Y-138289790D01*
X143256876Y-138385028D02*
X143304495Y-138337409D01*
X143304495Y-138337409D02*
X143399733Y-138289790D01*
X143399733Y-138289790D02*
X143637828Y-138289790D01*
X143637828Y-138289790D02*
X143733066Y-138337409D01*
X143733066Y-138337409D02*
X143780685Y-138385028D01*
X143780685Y-138385028D02*
X143828304Y-138480266D01*
X143828304Y-138480266D02*
X143828304Y-138575504D01*
X143828304Y-138575504D02*
X143780685Y-138718361D01*
X143780685Y-138718361D02*
X143209257Y-139289790D01*
X143209257Y-139289790D02*
X143828304Y-139289790D01*
X137780685Y-151289790D02*
X137780685Y-150289790D01*
X138256875Y-151289790D02*
X138256875Y-150289790D01*
X138256875Y-150289790D02*
X138590208Y-151004075D01*
X138590208Y-151004075D02*
X138923541Y-150289790D01*
X138923541Y-150289790D02*
X138923541Y-151289790D01*
X139399732Y-151289790D02*
X139399732Y-150289790D01*
X139399732Y-150289790D02*
X139637827Y-150289790D01*
X139637827Y-150289790D02*
X139780684Y-150337409D01*
X139780684Y-150337409D02*
X139875922Y-150432647D01*
X139875922Y-150432647D02*
X139923541Y-150527885D01*
X139923541Y-150527885D02*
X139971160Y-150718361D01*
X139971160Y-150718361D02*
X139971160Y-150861218D01*
X139971160Y-150861218D02*
X139923541Y-151051694D01*
X139923541Y-151051694D02*
X139875922Y-151146932D01*
X139875922Y-151146932D02*
X139780684Y-151242171D01*
X139780684Y-151242171D02*
X139637827Y-151289790D01*
X139637827Y-151289790D02*
X139399732Y-151289790D01*
X140161637Y-151385028D02*
X140923541Y-151385028D01*
X141733065Y-151289790D02*
X141399732Y-150813599D01*
X141161637Y-151289790D02*
X141161637Y-150289790D01*
X141161637Y-150289790D02*
X141542589Y-150289790D01*
X141542589Y-150289790D02*
X141637827Y-150337409D01*
X141637827Y-150337409D02*
X141685446Y-150385028D01*
X141685446Y-150385028D02*
X141733065Y-150480266D01*
X141733065Y-150480266D02*
X141733065Y-150623123D01*
X141733065Y-150623123D02*
X141685446Y-150718361D01*
X141685446Y-150718361D02*
X141637827Y-150765980D01*
X141637827Y-150765980D02*
X141542589Y-150813599D01*
X141542589Y-150813599D02*
X141161637Y-150813599D01*
X142161637Y-150765980D02*
X142494970Y-150765980D01*
X142637827Y-151289790D02*
X142161637Y-151289790D01*
X142161637Y-151289790D02*
X142161637Y-150289790D01*
X142161637Y-150289790D02*
X142637827Y-150289790D01*
X143018780Y-151242171D02*
X143161637Y-151289790D01*
X143161637Y-151289790D02*
X143399732Y-151289790D01*
X143399732Y-151289790D02*
X143494970Y-151242171D01*
X143494970Y-151242171D02*
X143542589Y-151194551D01*
X143542589Y-151194551D02*
X143590208Y-151099313D01*
X143590208Y-151099313D02*
X143590208Y-151004075D01*
X143590208Y-151004075D02*
X143542589Y-150908837D01*
X143542589Y-150908837D02*
X143494970Y-150861218D01*
X143494970Y-150861218D02*
X143399732Y-150813599D01*
X143399732Y-150813599D02*
X143209256Y-150765980D01*
X143209256Y-150765980D02*
X143114018Y-150718361D01*
X143114018Y-150718361D02*
X143066399Y-150670742D01*
X143066399Y-150670742D02*
X143018780Y-150575504D01*
X143018780Y-150575504D02*
X143018780Y-150480266D01*
X143018780Y-150480266D02*
X143066399Y-150385028D01*
X143066399Y-150385028D02*
X143114018Y-150337409D01*
X143114018Y-150337409D02*
X143209256Y-150289790D01*
X143209256Y-150289790D02*
X143447351Y-150289790D01*
X143447351Y-150289790D02*
X143590208Y-150337409D01*
X144018780Y-150765980D02*
X144352113Y-150765980D01*
X144494970Y-151289790D02*
X144018780Y-151289790D01*
X144018780Y-151289790D02*
X144018780Y-150289790D01*
X144018780Y-150289790D02*
X144494970Y-150289790D01*
X144780685Y-150289790D02*
X145352113Y-150289790D01*
X145066399Y-151289790D02*
X145066399Y-150289790D01*
X140201905Y-118414819D02*
X140201905Y-117414819D01*
X140201905Y-117414819D02*
X140440000Y-117414819D01*
X140440000Y-117414819D02*
X140582857Y-117462438D01*
X140582857Y-117462438D02*
X140678095Y-117557676D01*
X140678095Y-117557676D02*
X140725714Y-117652914D01*
X140725714Y-117652914D02*
X140773333Y-117843390D01*
X140773333Y-117843390D02*
X140773333Y-117986247D01*
X140773333Y-117986247D02*
X140725714Y-118176723D01*
X140725714Y-118176723D02*
X140678095Y-118271961D01*
X140678095Y-118271961D02*
X140582857Y-118367200D01*
X140582857Y-118367200D02*
X140440000Y-118414819D01*
X140440000Y-118414819D02*
X140201905Y-118414819D01*
X141154286Y-117510057D02*
X141201905Y-117462438D01*
X141201905Y-117462438D02*
X141297143Y-117414819D01*
X141297143Y-117414819D02*
X141535238Y-117414819D01*
X141535238Y-117414819D02*
X141630476Y-117462438D01*
X141630476Y-117462438D02*
X141678095Y-117510057D01*
X141678095Y-117510057D02*
X141725714Y-117605295D01*
X141725714Y-117605295D02*
X141725714Y-117700533D01*
X141725714Y-117700533D02*
X141678095Y-117843390D01*
X141678095Y-117843390D02*
X141106667Y-118414819D01*
X141106667Y-118414819D02*
X141725714Y-118414819D01*
X138130476Y-126334819D02*
X138130476Y-125334819D01*
X138606666Y-126334819D02*
X138606666Y-125334819D01*
X138606666Y-125334819D02*
X138939999Y-126049104D01*
X138939999Y-126049104D02*
X139273332Y-125334819D01*
X139273332Y-125334819D02*
X139273332Y-126334819D01*
X139749523Y-126334819D02*
X139749523Y-125334819D01*
X139749523Y-125334819D02*
X139987618Y-125334819D01*
X139987618Y-125334819D02*
X140130475Y-125382438D01*
X140130475Y-125382438D02*
X140225713Y-125477676D01*
X140225713Y-125477676D02*
X140273332Y-125572914D01*
X140273332Y-125572914D02*
X140320951Y-125763390D01*
X140320951Y-125763390D02*
X140320951Y-125906247D01*
X140320951Y-125906247D02*
X140273332Y-126096723D01*
X140273332Y-126096723D02*
X140225713Y-126191961D01*
X140225713Y-126191961D02*
X140130475Y-126287200D01*
X140130475Y-126287200D02*
X139987618Y-126334819D01*
X139987618Y-126334819D02*
X139749523Y-126334819D01*
X140511428Y-126430057D02*
X141273332Y-126430057D01*
X141987618Y-126334819D02*
X141511428Y-126334819D01*
X141511428Y-126334819D02*
X141511428Y-125334819D01*
X142320952Y-125811009D02*
X142654285Y-125811009D01*
X142797142Y-126334819D02*
X142320952Y-126334819D01*
X142320952Y-126334819D02*
X142320952Y-125334819D01*
X142320952Y-125334819D02*
X142797142Y-125334819D01*
X143225714Y-126334819D02*
X143225714Y-125334819D01*
X143225714Y-125334819D02*
X143463809Y-125334819D01*
X143463809Y-125334819D02*
X143606666Y-125382438D01*
X143606666Y-125382438D02*
X143701904Y-125477676D01*
X143701904Y-125477676D02*
X143749523Y-125572914D01*
X143749523Y-125572914D02*
X143797142Y-125763390D01*
X143797142Y-125763390D02*
X143797142Y-125906247D01*
X143797142Y-125906247D02*
X143749523Y-126096723D01*
X143749523Y-126096723D02*
X143701904Y-126191961D01*
X143701904Y-126191961D02*
X143606666Y-126287200D01*
X143606666Y-126287200D02*
X143463809Y-126334819D01*
X143463809Y-126334819D02*
X143225714Y-126334819D01*
X152408333Y-115294819D02*
X152075000Y-114818628D01*
X151836905Y-115294819D02*
X151836905Y-114294819D01*
X151836905Y-114294819D02*
X152217857Y-114294819D01*
X152217857Y-114294819D02*
X152313095Y-114342438D01*
X152313095Y-114342438D02*
X152360714Y-114390057D01*
X152360714Y-114390057D02*
X152408333Y-114485295D01*
X152408333Y-114485295D02*
X152408333Y-114628152D01*
X152408333Y-114628152D02*
X152360714Y-114723390D01*
X152360714Y-114723390D02*
X152313095Y-114771009D01*
X152313095Y-114771009D02*
X152217857Y-114818628D01*
X152217857Y-114818628D02*
X151836905Y-114818628D01*
X153313095Y-114294819D02*
X152836905Y-114294819D01*
X152836905Y-114294819D02*
X152789286Y-114771009D01*
X152789286Y-114771009D02*
X152836905Y-114723390D01*
X152836905Y-114723390D02*
X152932143Y-114675771D01*
X152932143Y-114675771D02*
X153170238Y-114675771D01*
X153170238Y-114675771D02*
X153265476Y-114723390D01*
X153265476Y-114723390D02*
X153313095Y-114771009D01*
X153313095Y-114771009D02*
X153360714Y-114866247D01*
X153360714Y-114866247D02*
X153360714Y-115104342D01*
X153360714Y-115104342D02*
X153313095Y-115199580D01*
X153313095Y-115199580D02*
X153265476Y-115247200D01*
X153265476Y-115247200D02*
X153170238Y-115294819D01*
X153170238Y-115294819D02*
X152932143Y-115294819D01*
X152932143Y-115294819D02*
X152836905Y-115247200D01*
X152836905Y-115247200D02*
X152789286Y-115199580D01*
X147328333Y-115294819D02*
X146995000Y-114818628D01*
X146756905Y-115294819D02*
X146756905Y-114294819D01*
X146756905Y-114294819D02*
X147137857Y-114294819D01*
X147137857Y-114294819D02*
X147233095Y-114342438D01*
X147233095Y-114342438D02*
X147280714Y-114390057D01*
X147280714Y-114390057D02*
X147328333Y-114485295D01*
X147328333Y-114485295D02*
X147328333Y-114628152D01*
X147328333Y-114628152D02*
X147280714Y-114723390D01*
X147280714Y-114723390D02*
X147233095Y-114771009D01*
X147233095Y-114771009D02*
X147137857Y-114818628D01*
X147137857Y-114818628D02*
X146756905Y-114818628D01*
X148185476Y-114628152D02*
X148185476Y-115294819D01*
X147947381Y-114247200D02*
X147709286Y-114961485D01*
X147709286Y-114961485D02*
X148328333Y-114961485D01*
X116673333Y-115294819D02*
X116340000Y-114818628D01*
X116101905Y-115294819D02*
X116101905Y-114294819D01*
X116101905Y-114294819D02*
X116482857Y-114294819D01*
X116482857Y-114294819D02*
X116578095Y-114342438D01*
X116578095Y-114342438D02*
X116625714Y-114390057D01*
X116625714Y-114390057D02*
X116673333Y-114485295D01*
X116673333Y-114485295D02*
X116673333Y-114628152D01*
X116673333Y-114628152D02*
X116625714Y-114723390D01*
X116625714Y-114723390D02*
X116578095Y-114771009D01*
X116578095Y-114771009D02*
X116482857Y-114818628D01*
X116482857Y-114818628D02*
X116101905Y-114818628D01*
X117625714Y-115294819D02*
X117054286Y-115294819D01*
X117340000Y-115294819D02*
X117340000Y-114294819D01*
X117340000Y-114294819D02*
X117244762Y-114437676D01*
X117244762Y-114437676D02*
X117149524Y-114532914D01*
X117149524Y-114532914D02*
X117054286Y-114580533D01*
X122661638Y-139242171D02*
X122804495Y-139289790D01*
X122804495Y-139289790D02*
X123042590Y-139289790D01*
X123042590Y-139289790D02*
X123137828Y-139242171D01*
X123137828Y-139242171D02*
X123185447Y-139194551D01*
X123185447Y-139194551D02*
X123233066Y-139099313D01*
X123233066Y-139099313D02*
X123233066Y-139004075D01*
X123233066Y-139004075D02*
X123185447Y-138908837D01*
X123185447Y-138908837D02*
X123137828Y-138861218D01*
X123137828Y-138861218D02*
X123042590Y-138813599D01*
X123042590Y-138813599D02*
X122852114Y-138765980D01*
X122852114Y-138765980D02*
X122756876Y-138718361D01*
X122756876Y-138718361D02*
X122709257Y-138670742D01*
X122709257Y-138670742D02*
X122661638Y-138575504D01*
X122661638Y-138575504D02*
X122661638Y-138480266D01*
X122661638Y-138480266D02*
X122709257Y-138385028D01*
X122709257Y-138385028D02*
X122756876Y-138337409D01*
X122756876Y-138337409D02*
X122852114Y-138289790D01*
X122852114Y-138289790D02*
X123090209Y-138289790D01*
X123090209Y-138289790D02*
X123233066Y-138337409D01*
X123566400Y-138289790D02*
X123804495Y-139289790D01*
X123804495Y-139289790D02*
X123994971Y-138575504D01*
X123994971Y-138575504D02*
X124185447Y-139289790D01*
X124185447Y-139289790D02*
X124423543Y-138289790D01*
X125328304Y-139289790D02*
X124756876Y-139289790D01*
X125042590Y-139289790D02*
X125042590Y-138289790D01*
X125042590Y-138289790D02*
X124947352Y-138432647D01*
X124947352Y-138432647D02*
X124852114Y-138527885D01*
X124852114Y-138527885D02*
X124756876Y-138575504D01*
X120242380Y-150631009D02*
X120385237Y-150678628D01*
X120385237Y-150678628D02*
X120432856Y-150726247D01*
X120432856Y-150726247D02*
X120480475Y-150821485D01*
X120480475Y-150821485D02*
X120480475Y-150964342D01*
X120480475Y-150964342D02*
X120432856Y-151059580D01*
X120432856Y-151059580D02*
X120385237Y-151107200D01*
X120385237Y-151107200D02*
X120289999Y-151154819D01*
X120289999Y-151154819D02*
X119909047Y-151154819D01*
X119909047Y-151154819D02*
X119909047Y-150154819D01*
X119909047Y-150154819D02*
X120242380Y-150154819D01*
X120242380Y-150154819D02*
X120337618Y-150202438D01*
X120337618Y-150202438D02*
X120385237Y-150250057D01*
X120385237Y-150250057D02*
X120432856Y-150345295D01*
X120432856Y-150345295D02*
X120432856Y-150440533D01*
X120432856Y-150440533D02*
X120385237Y-150535771D01*
X120385237Y-150535771D02*
X120337618Y-150583390D01*
X120337618Y-150583390D02*
X120242380Y-150631009D01*
X120242380Y-150631009D02*
X119909047Y-150631009D01*
X120861428Y-151107200D02*
X121004285Y-151154819D01*
X121004285Y-151154819D02*
X121242380Y-151154819D01*
X121242380Y-151154819D02*
X121337618Y-151107200D01*
X121337618Y-151107200D02*
X121385237Y-151059580D01*
X121385237Y-151059580D02*
X121432856Y-150964342D01*
X121432856Y-150964342D02*
X121432856Y-150869104D01*
X121432856Y-150869104D02*
X121385237Y-150773866D01*
X121385237Y-150773866D02*
X121337618Y-150726247D01*
X121337618Y-150726247D02*
X121242380Y-150678628D01*
X121242380Y-150678628D02*
X121051904Y-150631009D01*
X121051904Y-150631009D02*
X120956666Y-150583390D01*
X120956666Y-150583390D02*
X120909047Y-150535771D01*
X120909047Y-150535771D02*
X120861428Y-150440533D01*
X120861428Y-150440533D02*
X120861428Y-150345295D01*
X120861428Y-150345295D02*
X120909047Y-150250057D01*
X120909047Y-150250057D02*
X120956666Y-150202438D01*
X120956666Y-150202438D02*
X121051904Y-150154819D01*
X121051904Y-150154819D02*
X121289999Y-150154819D01*
X121289999Y-150154819D02*
X121432856Y-150202438D01*
X121861428Y-151154819D02*
X121861428Y-150154819D01*
X121861428Y-150154819D02*
X122242380Y-150154819D01*
X122242380Y-150154819D02*
X122337618Y-150202438D01*
X122337618Y-150202438D02*
X122385237Y-150250057D01*
X122385237Y-150250057D02*
X122432856Y-150345295D01*
X122432856Y-150345295D02*
X122432856Y-150488152D01*
X122432856Y-150488152D02*
X122385237Y-150583390D01*
X122385237Y-150583390D02*
X122337618Y-150631009D01*
X122337618Y-150631009D02*
X122242380Y-150678628D01*
X122242380Y-150678628D02*
X121861428Y-150678628D01*
X122861428Y-151154819D02*
X122861428Y-150154819D01*
X122861428Y-150154819D02*
X123099523Y-150154819D01*
X123099523Y-150154819D02*
X123242380Y-150202438D01*
X123242380Y-150202438D02*
X123337618Y-150297676D01*
X123337618Y-150297676D02*
X123385237Y-150392914D01*
X123385237Y-150392914D02*
X123432856Y-150583390D01*
X123432856Y-150583390D02*
X123432856Y-150726247D01*
X123432856Y-150726247D02*
X123385237Y-150916723D01*
X123385237Y-150916723D02*
X123337618Y-151011961D01*
X123337618Y-151011961D02*
X123242380Y-151107200D01*
X123242380Y-151107200D02*
X123099523Y-151154819D01*
X123099523Y-151154819D02*
X122861428Y-151154819D01*
X123623333Y-151250057D02*
X124385237Y-151250057D01*
X125194761Y-151154819D02*
X124861428Y-150678628D01*
X124623333Y-151154819D02*
X124623333Y-150154819D01*
X124623333Y-150154819D02*
X125004285Y-150154819D01*
X125004285Y-150154819D02*
X125099523Y-150202438D01*
X125099523Y-150202438D02*
X125147142Y-150250057D01*
X125147142Y-150250057D02*
X125194761Y-150345295D01*
X125194761Y-150345295D02*
X125194761Y-150488152D01*
X125194761Y-150488152D02*
X125147142Y-150583390D01*
X125147142Y-150583390D02*
X125099523Y-150631009D01*
X125099523Y-150631009D02*
X125004285Y-150678628D01*
X125004285Y-150678628D02*
X124623333Y-150678628D01*
X125623333Y-150631009D02*
X125956666Y-150631009D01*
X126099523Y-151154819D02*
X125623333Y-151154819D01*
X125623333Y-151154819D02*
X125623333Y-150154819D01*
X125623333Y-150154819D02*
X126099523Y-150154819D01*
X126480476Y-151107200D02*
X126623333Y-151154819D01*
X126623333Y-151154819D02*
X126861428Y-151154819D01*
X126861428Y-151154819D02*
X126956666Y-151107200D01*
X126956666Y-151107200D02*
X127004285Y-151059580D01*
X127004285Y-151059580D02*
X127051904Y-150964342D01*
X127051904Y-150964342D02*
X127051904Y-150869104D01*
X127051904Y-150869104D02*
X127004285Y-150773866D01*
X127004285Y-150773866D02*
X126956666Y-150726247D01*
X126956666Y-150726247D02*
X126861428Y-150678628D01*
X126861428Y-150678628D02*
X126670952Y-150631009D01*
X126670952Y-150631009D02*
X126575714Y-150583390D01*
X126575714Y-150583390D02*
X126528095Y-150535771D01*
X126528095Y-150535771D02*
X126480476Y-150440533D01*
X126480476Y-150440533D02*
X126480476Y-150345295D01*
X126480476Y-150345295D02*
X126528095Y-150250057D01*
X126528095Y-150250057D02*
X126575714Y-150202438D01*
X126575714Y-150202438D02*
X126670952Y-150154819D01*
X126670952Y-150154819D02*
X126909047Y-150154819D01*
X126909047Y-150154819D02*
X127051904Y-150202438D01*
X127480476Y-150631009D02*
X127813809Y-150631009D01*
X127956666Y-151154819D02*
X127480476Y-151154819D01*
X127480476Y-151154819D02*
X127480476Y-150154819D01*
X127480476Y-150154819D02*
X127956666Y-150154819D01*
X128242381Y-150154819D02*
X128813809Y-150154819D01*
X128528095Y-151154819D02*
X128528095Y-150154819D01*
X129373333Y-115294819D02*
X129040000Y-114818628D01*
X128801905Y-115294819D02*
X128801905Y-114294819D01*
X128801905Y-114294819D02*
X129182857Y-114294819D01*
X129182857Y-114294819D02*
X129278095Y-114342438D01*
X129278095Y-114342438D02*
X129325714Y-114390057D01*
X129325714Y-114390057D02*
X129373333Y-114485295D01*
X129373333Y-114485295D02*
X129373333Y-114628152D01*
X129373333Y-114628152D02*
X129325714Y-114723390D01*
X129325714Y-114723390D02*
X129278095Y-114771009D01*
X129278095Y-114771009D02*
X129182857Y-114818628D01*
X129182857Y-114818628D02*
X128801905Y-114818628D01*
X129754286Y-114390057D02*
X129801905Y-114342438D01*
X129801905Y-114342438D02*
X129897143Y-114294819D01*
X129897143Y-114294819D02*
X130135238Y-114294819D01*
X130135238Y-114294819D02*
X130230476Y-114342438D01*
X130230476Y-114342438D02*
X130278095Y-114390057D01*
X130278095Y-114390057D02*
X130325714Y-114485295D01*
X130325714Y-114485295D02*
X130325714Y-114580533D01*
X130325714Y-114580533D02*
X130278095Y-114723390D01*
X130278095Y-114723390D02*
X129706667Y-115294819D01*
X129706667Y-115294819D02*
X130325714Y-115294819D01*
X165108333Y-115294819D02*
X164775000Y-114818628D01*
X164536905Y-115294819D02*
X164536905Y-114294819D01*
X164536905Y-114294819D02*
X164917857Y-114294819D01*
X164917857Y-114294819D02*
X165013095Y-114342438D01*
X165013095Y-114342438D02*
X165060714Y-114390057D01*
X165060714Y-114390057D02*
X165108333Y-114485295D01*
X165108333Y-114485295D02*
X165108333Y-114628152D01*
X165108333Y-114628152D02*
X165060714Y-114723390D01*
X165060714Y-114723390D02*
X165013095Y-114771009D01*
X165013095Y-114771009D02*
X164917857Y-114818628D01*
X164917857Y-114818628D02*
X164536905Y-114818628D01*
X165965476Y-114294819D02*
X165775000Y-114294819D01*
X165775000Y-114294819D02*
X165679762Y-114342438D01*
X165679762Y-114342438D02*
X165632143Y-114390057D01*
X165632143Y-114390057D02*
X165536905Y-114532914D01*
X165536905Y-114532914D02*
X165489286Y-114723390D01*
X165489286Y-114723390D02*
X165489286Y-115104342D01*
X165489286Y-115104342D02*
X165536905Y-115199580D01*
X165536905Y-115199580D02*
X165584524Y-115247200D01*
X165584524Y-115247200D02*
X165679762Y-115294819D01*
X165679762Y-115294819D02*
X165870238Y-115294819D01*
X165870238Y-115294819D02*
X165965476Y-115247200D01*
X165965476Y-115247200D02*
X166013095Y-115199580D01*
X166013095Y-115199580D02*
X166060714Y-115104342D01*
X166060714Y-115104342D02*
X166060714Y-114866247D01*
X166060714Y-114866247D02*
X166013095Y-114771009D01*
X166013095Y-114771009D02*
X165965476Y-114723390D01*
X165965476Y-114723390D02*
X165870238Y-114675771D01*
X165870238Y-114675771D02*
X165679762Y-114675771D01*
X165679762Y-114675771D02*
X165584524Y-114723390D01*
X165584524Y-114723390D02*
X165536905Y-114771009D01*
X165536905Y-114771009D02*
X165489286Y-114866247D01*
X157582955Y-139163488D02*
X157725812Y-139211107D01*
X157725812Y-139211107D02*
X157963907Y-139211107D01*
X157963907Y-139211107D02*
X158059145Y-139163488D01*
X158059145Y-139163488D02*
X158106764Y-139115868D01*
X158106764Y-139115868D02*
X158154383Y-139020630D01*
X158154383Y-139020630D02*
X158154383Y-138925392D01*
X158154383Y-138925392D02*
X158106764Y-138830154D01*
X158106764Y-138830154D02*
X158059145Y-138782535D01*
X158059145Y-138782535D02*
X157963907Y-138734916D01*
X157963907Y-138734916D02*
X157773431Y-138687297D01*
X157773431Y-138687297D02*
X157678193Y-138639678D01*
X157678193Y-138639678D02*
X157630574Y-138592059D01*
X157630574Y-138592059D02*
X157582955Y-138496821D01*
X157582955Y-138496821D02*
X157582955Y-138401583D01*
X157582955Y-138401583D02*
X157630574Y-138306345D01*
X157630574Y-138306345D02*
X157678193Y-138258726D01*
X157678193Y-138258726D02*
X157773431Y-138211107D01*
X157773431Y-138211107D02*
X158011526Y-138211107D01*
X158011526Y-138211107D02*
X158154383Y-138258726D01*
X158487717Y-138211107D02*
X158725812Y-139211107D01*
X158725812Y-139211107D02*
X158916288Y-138496821D01*
X158916288Y-138496821D02*
X159106764Y-139211107D01*
X159106764Y-139211107D02*
X159344860Y-138211107D01*
X159630574Y-138211107D02*
X160249621Y-138211107D01*
X160249621Y-138211107D02*
X159916288Y-138592059D01*
X159916288Y-138592059D02*
X160059145Y-138592059D01*
X160059145Y-138592059D02*
X160154383Y-138639678D01*
X160154383Y-138639678D02*
X160202002Y-138687297D01*
X160202002Y-138687297D02*
X160249621Y-138782535D01*
X160249621Y-138782535D02*
X160249621Y-139020630D01*
X160249621Y-139020630D02*
X160202002Y-139115868D01*
X160202002Y-139115868D02*
X160154383Y-139163488D01*
X160154383Y-139163488D02*
X160059145Y-139211107D01*
X160059145Y-139211107D02*
X159773431Y-139211107D01*
X159773431Y-139211107D02*
X159678193Y-139163488D01*
X159678193Y-139163488D02*
X159630574Y-139115868D01*
X154880952Y-150581009D02*
X155023809Y-150628628D01*
X155023809Y-150628628D02*
X155071428Y-150676247D01*
X155071428Y-150676247D02*
X155119047Y-150771485D01*
X155119047Y-150771485D02*
X155119047Y-150914342D01*
X155119047Y-150914342D02*
X155071428Y-151009580D01*
X155071428Y-151009580D02*
X155023809Y-151057200D01*
X155023809Y-151057200D02*
X154928571Y-151104819D01*
X154928571Y-151104819D02*
X154547619Y-151104819D01*
X154547619Y-151104819D02*
X154547619Y-150104819D01*
X154547619Y-150104819D02*
X154880952Y-150104819D01*
X154880952Y-150104819D02*
X154976190Y-150152438D01*
X154976190Y-150152438D02*
X155023809Y-150200057D01*
X155023809Y-150200057D02*
X155071428Y-150295295D01*
X155071428Y-150295295D02*
X155071428Y-150390533D01*
X155071428Y-150390533D02*
X155023809Y-150485771D01*
X155023809Y-150485771D02*
X154976190Y-150533390D01*
X154976190Y-150533390D02*
X154880952Y-150581009D01*
X154880952Y-150581009D02*
X154547619Y-150581009D01*
X155547619Y-151104819D02*
X155547619Y-150104819D01*
X155547619Y-150104819D02*
X155880952Y-150819104D01*
X155880952Y-150819104D02*
X156214285Y-150104819D01*
X156214285Y-150104819D02*
X156214285Y-151104819D01*
X156642857Y-151057200D02*
X156785714Y-151104819D01*
X156785714Y-151104819D02*
X157023809Y-151104819D01*
X157023809Y-151104819D02*
X157119047Y-151057200D01*
X157119047Y-151057200D02*
X157166666Y-151009580D01*
X157166666Y-151009580D02*
X157214285Y-150914342D01*
X157214285Y-150914342D02*
X157214285Y-150819104D01*
X157214285Y-150819104D02*
X157166666Y-150723866D01*
X157166666Y-150723866D02*
X157119047Y-150676247D01*
X157119047Y-150676247D02*
X157023809Y-150628628D01*
X157023809Y-150628628D02*
X156833333Y-150581009D01*
X156833333Y-150581009D02*
X156738095Y-150533390D01*
X156738095Y-150533390D02*
X156690476Y-150485771D01*
X156690476Y-150485771D02*
X156642857Y-150390533D01*
X156642857Y-150390533D02*
X156642857Y-150295295D01*
X156642857Y-150295295D02*
X156690476Y-150200057D01*
X156690476Y-150200057D02*
X156738095Y-150152438D01*
X156738095Y-150152438D02*
X156833333Y-150104819D01*
X156833333Y-150104819D02*
X157071428Y-150104819D01*
X157071428Y-150104819D02*
X157214285Y-150152438D01*
X157404762Y-151200057D02*
X158166666Y-151200057D01*
X158976190Y-151104819D02*
X158642857Y-150628628D01*
X158404762Y-151104819D02*
X158404762Y-150104819D01*
X158404762Y-150104819D02*
X158785714Y-150104819D01*
X158785714Y-150104819D02*
X158880952Y-150152438D01*
X158880952Y-150152438D02*
X158928571Y-150200057D01*
X158928571Y-150200057D02*
X158976190Y-150295295D01*
X158976190Y-150295295D02*
X158976190Y-150438152D01*
X158976190Y-150438152D02*
X158928571Y-150533390D01*
X158928571Y-150533390D02*
X158880952Y-150581009D01*
X158880952Y-150581009D02*
X158785714Y-150628628D01*
X158785714Y-150628628D02*
X158404762Y-150628628D01*
X159404762Y-150581009D02*
X159738095Y-150581009D01*
X159880952Y-151104819D02*
X159404762Y-151104819D01*
X159404762Y-151104819D02*
X159404762Y-150104819D01*
X159404762Y-150104819D02*
X159880952Y-150104819D01*
X160261905Y-151057200D02*
X160404762Y-151104819D01*
X160404762Y-151104819D02*
X160642857Y-151104819D01*
X160642857Y-151104819D02*
X160738095Y-151057200D01*
X160738095Y-151057200D02*
X160785714Y-151009580D01*
X160785714Y-151009580D02*
X160833333Y-150914342D01*
X160833333Y-150914342D02*
X160833333Y-150819104D01*
X160833333Y-150819104D02*
X160785714Y-150723866D01*
X160785714Y-150723866D02*
X160738095Y-150676247D01*
X160738095Y-150676247D02*
X160642857Y-150628628D01*
X160642857Y-150628628D02*
X160452381Y-150581009D01*
X160452381Y-150581009D02*
X160357143Y-150533390D01*
X160357143Y-150533390D02*
X160309524Y-150485771D01*
X160309524Y-150485771D02*
X160261905Y-150390533D01*
X160261905Y-150390533D02*
X160261905Y-150295295D01*
X160261905Y-150295295D02*
X160309524Y-150200057D01*
X160309524Y-150200057D02*
X160357143Y-150152438D01*
X160357143Y-150152438D02*
X160452381Y-150104819D01*
X160452381Y-150104819D02*
X160690476Y-150104819D01*
X160690476Y-150104819D02*
X160833333Y-150152438D01*
X161261905Y-150581009D02*
X161595238Y-150581009D01*
X161738095Y-151104819D02*
X161261905Y-151104819D01*
X161261905Y-151104819D02*
X161261905Y-150104819D01*
X161261905Y-150104819D02*
X161738095Y-150104819D01*
X162023810Y-150104819D02*
X162595238Y-150104819D01*
X162309524Y-151104819D02*
X162309524Y-150104819D01*
X157681905Y-118374819D02*
X157681905Y-117374819D01*
X157681905Y-117374819D02*
X157920000Y-117374819D01*
X157920000Y-117374819D02*
X158062857Y-117422438D01*
X158062857Y-117422438D02*
X158158095Y-117517676D01*
X158158095Y-117517676D02*
X158205714Y-117612914D01*
X158205714Y-117612914D02*
X158253333Y-117803390D01*
X158253333Y-117803390D02*
X158253333Y-117946247D01*
X158253333Y-117946247D02*
X158205714Y-118136723D01*
X158205714Y-118136723D02*
X158158095Y-118231961D01*
X158158095Y-118231961D02*
X158062857Y-118327200D01*
X158062857Y-118327200D02*
X157920000Y-118374819D01*
X157920000Y-118374819D02*
X157681905Y-118374819D01*
X158586667Y-117374819D02*
X159205714Y-117374819D01*
X159205714Y-117374819D02*
X158872381Y-117755771D01*
X158872381Y-117755771D02*
X159015238Y-117755771D01*
X159015238Y-117755771D02*
X159110476Y-117803390D01*
X159110476Y-117803390D02*
X159158095Y-117851009D01*
X159158095Y-117851009D02*
X159205714Y-117946247D01*
X159205714Y-117946247D02*
X159205714Y-118184342D01*
X159205714Y-118184342D02*
X159158095Y-118279580D01*
X159158095Y-118279580D02*
X159110476Y-118327200D01*
X159110476Y-118327200D02*
X159015238Y-118374819D01*
X159015238Y-118374819D02*
X158729524Y-118374819D01*
X158729524Y-118374819D02*
X158634286Y-118327200D01*
X158634286Y-118327200D02*
X158586667Y-118279580D01*
X155975714Y-125811009D02*
X156118571Y-125858628D01*
X156118571Y-125858628D02*
X156166190Y-125906247D01*
X156166190Y-125906247D02*
X156213809Y-126001485D01*
X156213809Y-126001485D02*
X156213809Y-126144342D01*
X156213809Y-126144342D02*
X156166190Y-126239580D01*
X156166190Y-126239580D02*
X156118571Y-126287200D01*
X156118571Y-126287200D02*
X156023333Y-126334819D01*
X156023333Y-126334819D02*
X155642381Y-126334819D01*
X155642381Y-126334819D02*
X155642381Y-125334819D01*
X155642381Y-125334819D02*
X155975714Y-125334819D01*
X155975714Y-125334819D02*
X156070952Y-125382438D01*
X156070952Y-125382438D02*
X156118571Y-125430057D01*
X156118571Y-125430057D02*
X156166190Y-125525295D01*
X156166190Y-125525295D02*
X156166190Y-125620533D01*
X156166190Y-125620533D02*
X156118571Y-125715771D01*
X156118571Y-125715771D02*
X156070952Y-125763390D01*
X156070952Y-125763390D02*
X155975714Y-125811009D01*
X155975714Y-125811009D02*
X155642381Y-125811009D01*
X156642381Y-126334819D02*
X156642381Y-125334819D01*
X156642381Y-125334819D02*
X156975714Y-126049104D01*
X156975714Y-126049104D02*
X157309047Y-125334819D01*
X157309047Y-125334819D02*
X157309047Y-126334819D01*
X157737619Y-126287200D02*
X157880476Y-126334819D01*
X157880476Y-126334819D02*
X158118571Y-126334819D01*
X158118571Y-126334819D02*
X158213809Y-126287200D01*
X158213809Y-126287200D02*
X158261428Y-126239580D01*
X158261428Y-126239580D02*
X158309047Y-126144342D01*
X158309047Y-126144342D02*
X158309047Y-126049104D01*
X158309047Y-126049104D02*
X158261428Y-125953866D01*
X158261428Y-125953866D02*
X158213809Y-125906247D01*
X158213809Y-125906247D02*
X158118571Y-125858628D01*
X158118571Y-125858628D02*
X157928095Y-125811009D01*
X157928095Y-125811009D02*
X157832857Y-125763390D01*
X157832857Y-125763390D02*
X157785238Y-125715771D01*
X157785238Y-125715771D02*
X157737619Y-125620533D01*
X157737619Y-125620533D02*
X157737619Y-125525295D01*
X157737619Y-125525295D02*
X157785238Y-125430057D01*
X157785238Y-125430057D02*
X157832857Y-125382438D01*
X157832857Y-125382438D02*
X157928095Y-125334819D01*
X157928095Y-125334819D02*
X158166190Y-125334819D01*
X158166190Y-125334819D02*
X158309047Y-125382438D01*
X158499524Y-126430057D02*
X159261428Y-126430057D01*
X159975714Y-126334819D02*
X159499524Y-126334819D01*
X159499524Y-126334819D02*
X159499524Y-125334819D01*
X160309048Y-125811009D02*
X160642381Y-125811009D01*
X160785238Y-126334819D02*
X160309048Y-126334819D01*
X160309048Y-126334819D02*
X160309048Y-125334819D01*
X160309048Y-125334819D02*
X160785238Y-125334819D01*
X161213810Y-126334819D02*
X161213810Y-125334819D01*
X161213810Y-125334819D02*
X161451905Y-125334819D01*
X161451905Y-125334819D02*
X161594762Y-125382438D01*
X161594762Y-125382438D02*
X161690000Y-125477676D01*
X161690000Y-125477676D02*
X161737619Y-125572914D01*
X161737619Y-125572914D02*
X161785238Y-125763390D01*
X161785238Y-125763390D02*
X161785238Y-125906247D01*
X161785238Y-125906247D02*
X161737619Y-126096723D01*
X161737619Y-126096723D02*
X161690000Y-126191961D01*
X161690000Y-126191961D02*
X161594762Y-126287200D01*
X161594762Y-126287200D02*
X161451905Y-126334819D01*
X161451905Y-126334819D02*
X161213810Y-126334819D01*
X122451905Y-118414819D02*
X122451905Y-117414819D01*
X122451905Y-117414819D02*
X122690000Y-117414819D01*
X122690000Y-117414819D02*
X122832857Y-117462438D01*
X122832857Y-117462438D02*
X122928095Y-117557676D01*
X122928095Y-117557676D02*
X122975714Y-117652914D01*
X122975714Y-117652914D02*
X123023333Y-117843390D01*
X123023333Y-117843390D02*
X123023333Y-117986247D01*
X123023333Y-117986247D02*
X122975714Y-118176723D01*
X122975714Y-118176723D02*
X122928095Y-118271961D01*
X122928095Y-118271961D02*
X122832857Y-118367200D01*
X122832857Y-118367200D02*
X122690000Y-118414819D01*
X122690000Y-118414819D02*
X122451905Y-118414819D01*
X123975714Y-118414819D02*
X123404286Y-118414819D01*
X123690000Y-118414819D02*
X123690000Y-117414819D01*
X123690000Y-117414819D02*
X123594762Y-117557676D01*
X123594762Y-117557676D02*
X123499524Y-117652914D01*
X123499524Y-117652914D02*
X123404286Y-117700533D01*
X120047142Y-125811009D02*
X120189999Y-125858628D01*
X120189999Y-125858628D02*
X120237618Y-125906247D01*
X120237618Y-125906247D02*
X120285237Y-126001485D01*
X120285237Y-126001485D02*
X120285237Y-126144342D01*
X120285237Y-126144342D02*
X120237618Y-126239580D01*
X120237618Y-126239580D02*
X120189999Y-126287200D01*
X120189999Y-126287200D02*
X120094761Y-126334819D01*
X120094761Y-126334819D02*
X119713809Y-126334819D01*
X119713809Y-126334819D02*
X119713809Y-125334819D01*
X119713809Y-125334819D02*
X120047142Y-125334819D01*
X120047142Y-125334819D02*
X120142380Y-125382438D01*
X120142380Y-125382438D02*
X120189999Y-125430057D01*
X120189999Y-125430057D02*
X120237618Y-125525295D01*
X120237618Y-125525295D02*
X120237618Y-125620533D01*
X120237618Y-125620533D02*
X120189999Y-125715771D01*
X120189999Y-125715771D02*
X120142380Y-125763390D01*
X120142380Y-125763390D02*
X120047142Y-125811009D01*
X120047142Y-125811009D02*
X119713809Y-125811009D01*
X120666190Y-126287200D02*
X120809047Y-126334819D01*
X120809047Y-126334819D02*
X121047142Y-126334819D01*
X121047142Y-126334819D02*
X121142380Y-126287200D01*
X121142380Y-126287200D02*
X121189999Y-126239580D01*
X121189999Y-126239580D02*
X121237618Y-126144342D01*
X121237618Y-126144342D02*
X121237618Y-126049104D01*
X121237618Y-126049104D02*
X121189999Y-125953866D01*
X121189999Y-125953866D02*
X121142380Y-125906247D01*
X121142380Y-125906247D02*
X121047142Y-125858628D01*
X121047142Y-125858628D02*
X120856666Y-125811009D01*
X120856666Y-125811009D02*
X120761428Y-125763390D01*
X120761428Y-125763390D02*
X120713809Y-125715771D01*
X120713809Y-125715771D02*
X120666190Y-125620533D01*
X120666190Y-125620533D02*
X120666190Y-125525295D01*
X120666190Y-125525295D02*
X120713809Y-125430057D01*
X120713809Y-125430057D02*
X120761428Y-125382438D01*
X120761428Y-125382438D02*
X120856666Y-125334819D01*
X120856666Y-125334819D02*
X121094761Y-125334819D01*
X121094761Y-125334819D02*
X121237618Y-125382438D01*
X121666190Y-126334819D02*
X121666190Y-125334819D01*
X121666190Y-125334819D02*
X122047142Y-125334819D01*
X122047142Y-125334819D02*
X122142380Y-125382438D01*
X122142380Y-125382438D02*
X122189999Y-125430057D01*
X122189999Y-125430057D02*
X122237618Y-125525295D01*
X122237618Y-125525295D02*
X122237618Y-125668152D01*
X122237618Y-125668152D02*
X122189999Y-125763390D01*
X122189999Y-125763390D02*
X122142380Y-125811009D01*
X122142380Y-125811009D02*
X122047142Y-125858628D01*
X122047142Y-125858628D02*
X121666190Y-125858628D01*
X122666190Y-126334819D02*
X122666190Y-125334819D01*
X122666190Y-125334819D02*
X122904285Y-125334819D01*
X122904285Y-125334819D02*
X123047142Y-125382438D01*
X123047142Y-125382438D02*
X123142380Y-125477676D01*
X123142380Y-125477676D02*
X123189999Y-125572914D01*
X123189999Y-125572914D02*
X123237618Y-125763390D01*
X123237618Y-125763390D02*
X123237618Y-125906247D01*
X123237618Y-125906247D02*
X123189999Y-126096723D01*
X123189999Y-126096723D02*
X123142380Y-126191961D01*
X123142380Y-126191961D02*
X123047142Y-126287200D01*
X123047142Y-126287200D02*
X122904285Y-126334819D01*
X122904285Y-126334819D02*
X122666190Y-126334819D01*
X123428095Y-126430057D02*
X124189999Y-126430057D01*
X124904285Y-126334819D02*
X124428095Y-126334819D01*
X124428095Y-126334819D02*
X124428095Y-125334819D01*
X125237619Y-125811009D02*
X125570952Y-125811009D01*
X125713809Y-126334819D02*
X125237619Y-126334819D01*
X125237619Y-126334819D02*
X125237619Y-125334819D01*
X125237619Y-125334819D02*
X125713809Y-125334819D01*
X126142381Y-126334819D02*
X126142381Y-125334819D01*
X126142381Y-125334819D02*
X126380476Y-125334819D01*
X126380476Y-125334819D02*
X126523333Y-125382438D01*
X126523333Y-125382438D02*
X126618571Y-125477676D01*
X126618571Y-125477676D02*
X126666190Y-125572914D01*
X126666190Y-125572914D02*
X126713809Y-125763390D01*
X126713809Y-125763390D02*
X126713809Y-125906247D01*
X126713809Y-125906247D02*
X126666190Y-126096723D01*
X126666190Y-126096723D02*
X126618571Y-126191961D01*
X126618571Y-126191961D02*
X126523333Y-126287200D01*
X126523333Y-126287200D02*
X126380476Y-126334819D01*
X126380476Y-126334819D02*
X126142381Y-126334819D01*
X134628333Y-115294819D02*
X134295000Y-114818628D01*
X134056905Y-115294819D02*
X134056905Y-114294819D01*
X134056905Y-114294819D02*
X134437857Y-114294819D01*
X134437857Y-114294819D02*
X134533095Y-114342438D01*
X134533095Y-114342438D02*
X134580714Y-114390057D01*
X134580714Y-114390057D02*
X134628333Y-114485295D01*
X134628333Y-114485295D02*
X134628333Y-114628152D01*
X134628333Y-114628152D02*
X134580714Y-114723390D01*
X134580714Y-114723390D02*
X134533095Y-114771009D01*
X134533095Y-114771009D02*
X134437857Y-114818628D01*
X134437857Y-114818628D02*
X134056905Y-114818628D01*
X134961667Y-114294819D02*
X135580714Y-114294819D01*
X135580714Y-114294819D02*
X135247381Y-114675771D01*
X135247381Y-114675771D02*
X135390238Y-114675771D01*
X135390238Y-114675771D02*
X135485476Y-114723390D01*
X135485476Y-114723390D02*
X135533095Y-114771009D01*
X135533095Y-114771009D02*
X135580714Y-114866247D01*
X135580714Y-114866247D02*
X135580714Y-115104342D01*
X135580714Y-115104342D02*
X135533095Y-115199580D01*
X135533095Y-115199580D02*
X135485476Y-115247200D01*
X135485476Y-115247200D02*
X135390238Y-115294819D01*
X135390238Y-115294819D02*
X135104524Y-115294819D01*
X135104524Y-115294819D02*
X135009286Y-115247200D01*
X135009286Y-115247200D02*
X134961667Y-115199580D01*
D10*
X139333333Y-95064895D02*
X139333333Y-95636323D01*
X139333333Y-95636323D02*
X139295238Y-95750609D01*
X139295238Y-95750609D02*
X139219047Y-95826800D01*
X139219047Y-95826800D02*
X139104762Y-95864895D01*
X139104762Y-95864895D02*
X139028571Y-95864895D01*
X139638095Y-95064895D02*
X140133333Y-95064895D01*
X140133333Y-95064895D02*
X139866667Y-95369657D01*
X139866667Y-95369657D02*
X139980952Y-95369657D01*
X139980952Y-95369657D02*
X140057143Y-95407752D01*
X140057143Y-95407752D02*
X140095238Y-95445847D01*
X140095238Y-95445847D02*
X140133333Y-95522038D01*
X140133333Y-95522038D02*
X140133333Y-95712514D01*
X140133333Y-95712514D02*
X140095238Y-95788704D01*
X140095238Y-95788704D02*
X140057143Y-95826800D01*
X140057143Y-95826800D02*
X139980952Y-95864895D01*
X139980952Y-95864895D02*
X139752381Y-95864895D01*
X139752381Y-95864895D02*
X139676190Y-95826800D01*
X139676190Y-95826800D02*
X139638095Y-95788704D01*
D11*
X138285714Y-96600390D02*
X138209524Y-96562295D01*
X138209524Y-96562295D02*
X138095238Y-96562295D01*
X138095238Y-96562295D02*
X137980952Y-96600390D01*
X137980952Y-96600390D02*
X137904762Y-96676580D01*
X137904762Y-96676580D02*
X137866667Y-96752771D01*
X137866667Y-96752771D02*
X137828571Y-96905152D01*
X137828571Y-96905152D02*
X137828571Y-97019438D01*
X137828571Y-97019438D02*
X137866667Y-97171819D01*
X137866667Y-97171819D02*
X137904762Y-97248009D01*
X137904762Y-97248009D02*
X137980952Y-97324200D01*
X137980952Y-97324200D02*
X138095238Y-97362295D01*
X138095238Y-97362295D02*
X138171429Y-97362295D01*
X138171429Y-97362295D02*
X138285714Y-97324200D01*
X138285714Y-97324200D02*
X138323810Y-97286104D01*
X138323810Y-97286104D02*
X138323810Y-97019438D01*
X138323810Y-97019438D02*
X138171429Y-97019438D01*
X139047619Y-97362295D02*
X138666667Y-97362295D01*
X138666667Y-97362295D02*
X138666667Y-96562295D01*
X139200000Y-96562295D02*
X139466667Y-97362295D01*
X139466667Y-97362295D02*
X139733333Y-96562295D01*
X140000000Y-97362295D02*
X140000000Y-96562295D01*
X140000000Y-96562295D02*
X140266666Y-97133723D01*
X140266666Y-97133723D02*
X140533333Y-96562295D01*
X140533333Y-96562295D02*
X140533333Y-97362295D01*
X140914286Y-97362295D02*
X140914286Y-96562295D01*
X140914286Y-96562295D02*
X141219048Y-96562295D01*
X141219048Y-96562295D02*
X141295238Y-96600390D01*
X141295238Y-96600390D02*
X141333333Y-96638485D01*
X141333333Y-96638485D02*
X141371429Y-96714676D01*
X141371429Y-96714676D02*
X141371429Y-96828961D01*
X141371429Y-96828961D02*
X141333333Y-96905152D01*
X141333333Y-96905152D02*
X141295238Y-96943247D01*
X141295238Y-96943247D02*
X141219048Y-96981342D01*
X141219048Y-96981342D02*
X140914286Y-96981342D01*
D12*
%TO.C,SW2*%
X144500000Y-147150000D02*
X144500000Y-142650000D01*
X142000000Y-141400000D02*
X140500000Y-141400000D01*
X140500000Y-148400000D02*
X142000000Y-148400000D01*
X138000000Y-142650000D02*
X138000000Y-147150000D01*
%TO.C,D2*%
X143440000Y-121920000D02*
G75*
G02*
X138440000Y-121920000I-2500000J0D01*
G01*
X138440000Y-121920000D02*
G75*
G02*
X143440000Y-121920000I2500000J0D01*
G01*
X143930000Y-121920000D02*
G75*
G02*
X138380000Y-123464830I-2990000J0D01*
G01*
X138380000Y-120375170D02*
G75*
G02*
X143930000Y-121920000I2560000J-1544830D01*
G01*
X138380000Y-120375000D02*
X138380000Y-123465000D01*
%TO.C,R5*%
X152400000Y-117880000D02*
X152400000Y-118650000D01*
X152400000Y-125960000D02*
X152400000Y-125190000D01*
X151030000Y-125190000D02*
X153770000Y-125190000D01*
X153770000Y-118650000D01*
X151030000Y-118650000D01*
X151030000Y-125190000D01*
%TO.C,R4*%
X147320000Y-117880000D02*
X147320000Y-118650000D01*
X147320000Y-125960000D02*
X147320000Y-125190000D01*
X145950000Y-125190000D02*
X148690000Y-125190000D01*
X148690000Y-118650000D01*
X145950000Y-118650000D01*
X145950000Y-125190000D01*
%TO.C,R1*%
X116840000Y-117880000D02*
X116840000Y-118650000D01*
X116840000Y-125960000D02*
X116840000Y-125190000D01*
X118210000Y-118650000D02*
X115470000Y-118650000D01*
X115470000Y-125190000D01*
X118210000Y-125190000D01*
X118210000Y-118650000D01*
%TO.C,SW1*%
X120500000Y-142650000D02*
X120500000Y-147150000D01*
X123000000Y-148400000D02*
X124500000Y-148400000D01*
X124500000Y-141400000D02*
X123000000Y-141400000D01*
X127000000Y-147150000D02*
X127000000Y-142650000D01*
%TO.C,R2*%
X129540000Y-117880000D02*
X129540000Y-118650000D01*
X129540000Y-125960000D02*
X129540000Y-125190000D01*
X128170000Y-125190000D02*
X130910000Y-125190000D01*
X130910000Y-118650000D01*
X128170000Y-118650000D01*
X128170000Y-125190000D01*
%TO.C,R6*%
X165100000Y-117880000D02*
X165100000Y-118650000D01*
X165100000Y-125960000D02*
X165100000Y-125190000D01*
X166470000Y-118650000D02*
X163730000Y-118650000D01*
X163730000Y-125190000D01*
X166470000Y-125190000D01*
X166470000Y-118650000D01*
%TO.C,SW3*%
X155500000Y-142650000D02*
X155500000Y-147150000D01*
X158000000Y-148400000D02*
X159500000Y-148400000D01*
X159500000Y-141400000D02*
X158000000Y-141400000D01*
X162000000Y-147150000D02*
X162000000Y-142650000D01*
%TO.C,D3*%
X156130000Y-120375000D02*
X156130000Y-123465000D01*
X156130000Y-120375170D02*
G75*
G02*
X161680000Y-121920000I2560000J-1544830D01*
G01*
X161680000Y-121920000D02*
G75*
G02*
X156130000Y-123464830I-2990000J0D01*
G01*
X161190000Y-121920000D02*
G75*
G02*
X156190000Y-121920000I-2500000J0D01*
G01*
X156190000Y-121920000D02*
G75*
G02*
X161190000Y-121920000I2500000J0D01*
G01*
%TO.C,D1*%
X120630000Y-120375000D02*
X120630000Y-123465000D01*
X120630000Y-120375170D02*
G75*
G02*
X126180000Y-121920000I2560000J-1544830D01*
G01*
X126180000Y-121920000D02*
G75*
G02*
X120630000Y-123464830I-2990000J0D01*
G01*
X125690000Y-121920000D02*
G75*
G02*
X120690000Y-121920000I-2500000J0D01*
G01*
X120690000Y-121920000D02*
G75*
G02*
X125690000Y-121920000I2500000J0D01*
G01*
%TO.C,R3*%
X134620000Y-117880000D02*
X134620000Y-118650000D01*
X134620000Y-125960000D02*
X134620000Y-125190000D01*
X135990000Y-118650000D02*
X133250000Y-118650000D01*
X133250000Y-125190000D01*
X135990000Y-125190000D01*
X135990000Y-118650000D01*
D10*
%TO.C,J3*%
X146100000Y-104800000D02*
G75*
G02*
X133100000Y-104800000I-6500000J0D01*
G01*
X133100000Y-104800000D02*
G75*
G02*
X146100000Y-104800000I6500000J0D01*
G01*
%TD*%
M02*
