%TF.GenerationSoftware,KiCad,Pcbnew,9.0.5*%
%TF.CreationDate,2026-03-25T14:34:15-07:00*%
%TF.ProjectId,Hi_board_bbc1,48695f62-6f61-4726-945f-626263312e6b,rev?*%
%TF.SameCoordinates,Original*%
%TF.FileFunction,Copper,L1,Top*%
%TF.FilePolarity,Positive*%
%FSLAX46Y46*%
G04 Gerber Fmt 4.6, Leading zero omitted, Abs format (unit mm)*
G04 Created by KiCad (PCBNEW 9.0.5) date 2026-03-25 14:34:15*
%MOMM*%
%LPD*%
G01*
G04 APERTURE LIST*
G04 Aperture macros list*
%AMRoundRect*
0 Rectangle with rounded corners*
0 $1 Rounding radius*
0 $2 $3 $4 $5 $6 $7 $8 $9 X,Y pos of 4 corners*
0 Add a 4 corners polygon primitive as box body*
4,1,4,$2,$3,$4,$5,$6,$7,$8,$9,$2,$3,0*
0 Add four circle primitives for the rounded corners*
1,1,$1+$1,$2,$3*
1,1,$1+$1,$4,$5*
1,1,$1+$1,$6,$7*
1,1,$1+$1,$8,$9*
0 Add four rect primitives between the rounded corners*
20,1,$1+$1,$2,$3,$4,$5,0*
20,1,$1+$1,$4,$5,$6,$7,0*
20,1,$1+$1,$6,$7,$8,$9,0*
20,1,$1+$1,$8,$9,$2,$3,0*%
G04 Aperture macros list end*
%TA.AperFunction,ComponentPad*%
%ADD10C,2.000000*%
%TD*%
%TA.AperFunction,ComponentPad*%
%ADD11C,1.800000*%
%TD*%
%TA.AperFunction,ComponentPad*%
%ADD12R,1.800000X1.800000*%
%TD*%
%TA.AperFunction,ComponentPad*%
%ADD13RoundRect,0.250001X1.099999X1.399999X-1.099999X1.399999X-1.099999X-1.399999X1.099999X-1.399999X0*%
%TD*%
%TA.AperFunction,ComponentPad*%
%ADD14O,2.700000X3.300000*%
%TD*%
%TA.AperFunction,ComponentPad*%
%ADD15C,1.600000*%
%TD*%
%TA.AperFunction,ComponentPad*%
%ADD16C,3.000000*%
%TD*%
%TA.AperFunction,Conductor*%
%ADD17C,0.800000*%
%TD*%
G04 APERTURE END LIST*
D10*
%TO.P,SW2,2,2*%
%TO.N,Net-(J1-Pin_2)*%
X143500000Y-141650000D03*
X143500000Y-148150000D03*
%TO.P,SW2,1,1*%
%TO.N,IMD_RESET*%
X139000000Y-141650000D03*
X139000000Y-148150000D03*
%TD*%
D11*
%TO.P,D2,2,A*%
%TO.N,Net-(D2-A)*%
X142210000Y-121920000D03*
D12*
%TO.P,D2,1,K*%
%TO.N,0*%
X139670000Y-121920000D03*
%TD*%
D13*
%TO.P,J1,1,Pin_1*%
%TO.N,BSPD_RESET*%
X158100000Y-101750000D03*
D14*
%TO.P,J1,2,Pin_2*%
%TO.N,Net-(J1-Pin_2)*%
X153900000Y-101750000D03*
%TO.P,J1,3,Pin_3*%
%TO.N,BMS_RESET*%
X158100000Y-107250000D03*
%TO.P,J1,4,Pin_4*%
%TO.N,IMD_RESET*%
X153900000Y-107250000D03*
%TD*%
D15*
%TO.P,R5,1*%
%TO.N,Net-(R5-Pad1)*%
X152400000Y-127000000D03*
%TO.P,R5,2*%
%TO.N,Net-(D3-A)*%
X152400000Y-116840000D03*
%TD*%
%TO.P,R4,1*%
%TO.N,IMD_LED*%
X147320000Y-127000000D03*
%TO.P,R4,2*%
%TO.N,Net-(R3-Pad1)*%
X147320000Y-116840000D03*
%TD*%
%TO.P,R1,1*%
%TO.N,Net-(R1-Pad1)*%
X116840000Y-116840000D03*
%TO.P,R1,2*%
%TO.N,Net-(D1-A)*%
X116840000Y-127000000D03*
%TD*%
D10*
%TO.P,SW1,1,1*%
%TO.N,BSPD_RESET*%
X121500000Y-148150000D03*
X121500000Y-141650000D03*
%TO.P,SW1,2,2*%
%TO.N,+12V*%
X126000000Y-148150000D03*
X126000000Y-141650000D03*
%TD*%
D15*
%TO.P,R2,1*%
%TO.N,BSPD_LED*%
X129540000Y-127000000D03*
%TO.P,R2,2*%
%TO.N,Net-(R1-Pad1)*%
X129540000Y-116840000D03*
%TD*%
%TO.P,R6,1*%
%TO.N,BMS_LED*%
X165100000Y-116840000D03*
%TO.P,R6,2*%
%TO.N,Net-(R5-Pad1)*%
X165100000Y-127000000D03*
%TD*%
D10*
%TO.P,SW3,1,1*%
%TO.N,BMS_RESET*%
X156500000Y-148150000D03*
X156500000Y-141650000D03*
%TO.P,SW3,2,2*%
%TO.N,+12V*%
X161000000Y-148150000D03*
X161000000Y-141650000D03*
%TD*%
D12*
%TO.P,D3,1,K*%
%TO.N,0*%
X157420000Y-121920000D03*
D11*
%TO.P,D3,2,A*%
%TO.N,Net-(D3-A)*%
X159960000Y-121920000D03*
%TD*%
D12*
%TO.P,D1,1,K*%
%TO.N,0*%
X121920000Y-121920000D03*
D11*
%TO.P,D1,2,A*%
%TO.N,Net-(D1-A)*%
X124460000Y-121920000D03*
%TD*%
D15*
%TO.P,R3,1*%
%TO.N,Net-(R3-Pad1)*%
X134620000Y-116840000D03*
%TO.P,R3,2*%
%TO.N,Net-(D2-A)*%
X134620000Y-127000000D03*
%TD*%
D16*
%TO.P,J3,1,GND*%
%TO.N,0*%
X139600000Y-104800000D03*
%TD*%
D13*
%TO.P,J2,1,Pin_1*%
%TO.N,0*%
X128660000Y-101600000D03*
D14*
%TO.P,J2,2,Pin_2*%
X124460000Y-101600000D03*
%TO.P,J2,3,Pin_3*%
%TO.N,+12V*%
X120260000Y-101600000D03*
%TO.P,J2,4,Pin_4*%
%TO.N,BSPD_LED*%
X128660000Y-107100000D03*
%TO.P,J2,5,Pin_5*%
%TO.N,IMD_LED*%
X124460000Y-107100000D03*
%TO.P,J2,6,Pin_6*%
%TO.N,BMS_LED*%
X120260000Y-107100000D03*
%TD*%
D17*
%TO.N,Net-(J1-Pin_2)*%
X153900000Y-103400000D02*
X153900000Y-101750000D01*
X161901000Y-114401000D02*
X155949000Y-108449000D01*
X161901000Y-137723206D02*
X161901000Y-114401000D01*
X160124206Y-139500000D02*
X161901000Y-137723206D01*
X155949000Y-108449000D02*
X155949000Y-105449000D01*
X148948942Y-139500000D02*
X160124206Y-139500000D01*
X146798942Y-141650000D02*
X148948942Y-139500000D01*
X143500000Y-141650000D02*
X146798942Y-141650000D01*
X155949000Y-105449000D02*
X153900000Y-103400000D01*
%TO.N,BSPD_RESET*%
X158100000Y-100600000D02*
X158100000Y-101750000D01*
X156000000Y-98500000D02*
X158100000Y-100600000D01*
X153000000Y-98500000D02*
X156000000Y-98500000D01*
X149399000Y-102101000D02*
X153000000Y-98500000D01*
X149399000Y-128801000D02*
X149399000Y-102101000D01*
X137500000Y-131500000D02*
X146700000Y-131500000D01*
X134900000Y-134100000D02*
X137500000Y-131500000D01*
X134900000Y-137400000D02*
X134900000Y-134100000D01*
X146700000Y-131500000D02*
X149399000Y-128801000D01*
X132450000Y-139850000D02*
X134900000Y-137400000D01*
X123300000Y-139850000D02*
X132450000Y-139850000D01*
X121500000Y-141650000D02*
X123300000Y-139850000D01*
%TO.N,Net-(D2-A)*%
X138500000Y-127000000D02*
X142210000Y-123290000D01*
X142210000Y-123290000D02*
X142210000Y-121920000D01*
X134620000Y-127000000D02*
X138500000Y-127000000D01*
%TO.N,Net-(D1-A)*%
X116840000Y-127000000D02*
X120000000Y-127000000D01*
X120000000Y-127000000D02*
X124460000Y-122540000D01*
X124460000Y-122540000D02*
X124460000Y-121920000D01*
%TO.N,0*%
X122500000Y-108392867D02*
X118609000Y-112283867D01*
X122500000Y-103560000D02*
X122500000Y-108392867D01*
X118609000Y-118609000D02*
X121920000Y-121920000D01*
X124460000Y-101600000D02*
X122500000Y-103560000D01*
X118609000Y-112283867D02*
X118609000Y-118609000D01*
%TO.N,IMD_RESET*%
X147049206Y-139075000D02*
X149000000Y-137124206D01*
X141575000Y-139075000D02*
X147049206Y-139075000D01*
X150400000Y-132100000D02*
X150400000Y-113600000D01*
X149000000Y-137124206D02*
X149000000Y-133500000D01*
X149000000Y-133500000D02*
X150400000Y-132100000D01*
X150400000Y-113600000D02*
X153900000Y-110100000D01*
X153900000Y-110100000D02*
X153900000Y-107250000D01*
%TO.N,0*%
X139670000Y-112610000D02*
X128660000Y-101600000D01*
X139670000Y-121920000D02*
X139670000Y-112610000D01*
%TO.N,BMS_RESET*%
X158100000Y-107250000D02*
X158450000Y-107250000D01*
%TO.N,BSPD_LED*%
X128660000Y-107100000D02*
X128660000Y-111660000D01*
X132000000Y-123000000D02*
X129540000Y-125460000D01*
X128660000Y-111660000D02*
X132000000Y-115000000D01*
X132000000Y-115000000D02*
X132000000Y-123000000D01*
X129540000Y-125460000D02*
X129540000Y-127000000D01*
%TO.N,IMD_LED*%
X126600000Y-109240000D02*
X126600000Y-126400000D01*
X145920000Y-128400000D02*
X147320000Y-127000000D01*
X124460000Y-107100000D02*
X126600000Y-109240000D01*
X126600000Y-126400000D02*
X128600000Y-128400000D01*
X128600000Y-128400000D02*
X145920000Y-128400000D01*
%TO.N,+12V*%
X161000000Y-141650000D02*
X161000000Y-148150000D01*
X126000000Y-141650000D02*
X126000000Y-148150000D01*
X156900000Y-152250000D02*
X161000000Y-148150000D01*
X130100000Y-152250000D02*
X156900000Y-152250000D01*
X126000000Y-148150000D02*
X130100000Y-152250000D01*
%TO.N,BSPD_RESET*%
X121500000Y-141650000D02*
X121500000Y-148150000D01*
%TO.N,BMS_RESET*%
X156500000Y-141650000D02*
X156500000Y-148150000D01*
%TO.N,Net-(J1-Pin_2)*%
X143500000Y-141650000D02*
X143500000Y-148150000D01*
%TO.N,IMD_RESET*%
X139000000Y-141650000D02*
X141575000Y-139075000D01*
X139000000Y-141650000D02*
X139000000Y-148150000D01*
%TO.N,0*%
X136400000Y-101600000D02*
X128660000Y-101600000D01*
X124460000Y-101600000D02*
X128660000Y-101600000D01*
X139600000Y-104800000D02*
X136400000Y-101600000D01*
%TD*%
M02*
