%TF.GenerationSoftware,KiCad,Pcbnew,9.0.5*%
%TF.CreationDate,2026-03-25T14:34:15-07:00*%
%TF.ProjectId,Hi_board_bbc1,48695f62-6f61-4726-945f-626263312e6b,rev?*%
%TF.SameCoordinates,Original*%
%TF.FileFunction,Copper,L2,Bot*%
%TF.FilePolarity,Positive*%
%FSLAX46Y46*%
G04 Gerber Fmt 4.6, Leading zero omitted, Abs format (unit mm)*
G04 Created by KiCad (PCBNEW 9.0.5) date 2026-03-25 14:34:15*
%MOMM*%
%LPD*%
G01*
G04 APERTURE LIST*
G04 Aperture macros list*
%AMRoundRect*
0 Rectangle with rounded corners*
0 $1 Rounding radius*
0 $2 $3 $4 $5 $6 $7 $8 $9 X,Y pos of 4 corners*
0 Add a 4 corners polygon primitive as box body*
4,1,4,$2,$3,$4,$5,$6,$7,$8,$9,$2,$3,0*
0 Add four circle primitives for the rounded corners*
1,1,$1+$1,$2,$3*
1,1,$1+$1,$4,$5*
1,1,$1+$1,$6,$7*
1,1,$1+$1,$8,$9*
0 Add four rect primitives between the rounded corners*
20,1,$1+$1,$2,$3,$4,$5,0*
20,1,$1+$1,$4,$5,$6,$7,0*
20,1,$1+$1,$6,$7,$8,$9,0*
20,1,$1+$1,$8,$9,$2,$3,0*%
G04 Aperture macros list end*
%TA.AperFunction,ComponentPad*%
%ADD10C,2.000000*%
%TD*%
%TA.AperFunction,ComponentPad*%
%ADD11C,1.800000*%
%TD*%
%TA.AperFunction,ComponentPad*%
%ADD12R,1.800000X1.800000*%
%TD*%
%TA.AperFunction,ComponentPad*%
%ADD13RoundRect,0.250001X1.099999X1.399999X-1.099999X1.399999X-1.099999X-1.399999X1.099999X-1.399999X0*%
%TD*%
%TA.AperFunction,ComponentPad*%
%ADD14O,2.700000X3.300000*%
%TD*%
%TA.AperFunction,ComponentPad*%
%ADD15C,1.600000*%
%TD*%
%TA.AperFunction,ComponentPad*%
%ADD16C,3.000000*%
%TD*%
%TA.AperFunction,Conductor*%
%ADD17C,0.800000*%
%TD*%
G04 APERTURE END LIST*
D10*
%TO.P,SW2,2,2*%
%TO.N,Net-(J1-Pin_2)*%
X143500000Y-141650000D03*
X143500000Y-148150000D03*
%TO.P,SW2,1,1*%
%TO.N,IMD_RESET*%
X139000000Y-141650000D03*
X139000000Y-148150000D03*
%TD*%
D11*
%TO.P,D2,2,A*%
%TO.N,Net-(D2-A)*%
X142210000Y-121920000D03*
D12*
%TO.P,D2,1,K*%
%TO.N,0*%
X139670000Y-121920000D03*
%TD*%
D13*
%TO.P,J1,1,Pin_1*%
%TO.N,BSPD_RESET*%
X158100000Y-101750000D03*
D14*
%TO.P,J1,2,Pin_2*%
%TO.N,Net-(J1-Pin_2)*%
X153900000Y-101750000D03*
%TO.P,J1,3,Pin_3*%
%TO.N,BMS_RESET*%
X158100000Y-107250000D03*
%TO.P,J1,4,Pin_4*%
%TO.N,IMD_RESET*%
X153900000Y-107250000D03*
%TD*%
D15*
%TO.P,R5,1*%
%TO.N,Net-(R5-Pad1)*%
X152400000Y-127000000D03*
%TO.P,R5,2*%
%TO.N,Net-(D3-A)*%
X152400000Y-116840000D03*
%TD*%
%TO.P,R4,1*%
%TO.N,IMD_LED*%
X147320000Y-127000000D03*
%TO.P,R4,2*%
%TO.N,Net-(R3-Pad1)*%
X147320000Y-116840000D03*
%TD*%
%TO.P,R1,1*%
%TO.N,Net-(R1-Pad1)*%
X116840000Y-116840000D03*
%TO.P,R1,2*%
%TO.N,Net-(D1-A)*%
X116840000Y-127000000D03*
%TD*%
D10*
%TO.P,SW1,1,1*%
%TO.N,BSPD_RESET*%
X121500000Y-148150000D03*
X121500000Y-141650000D03*
%TO.P,SW1,2,2*%
%TO.N,+12V*%
X126000000Y-148150000D03*
X126000000Y-141650000D03*
%TD*%
D15*
%TO.P,R2,1*%
%TO.N,BSPD_LED*%
X129540000Y-127000000D03*
%TO.P,R2,2*%
%TO.N,Net-(R1-Pad1)*%
X129540000Y-116840000D03*
%TD*%
%TO.P,R6,1*%
%TO.N,BMS_LED*%
X165100000Y-116840000D03*
%TO.P,R6,2*%
%TO.N,Net-(R5-Pad1)*%
X165100000Y-127000000D03*
%TD*%
D10*
%TO.P,SW3,1,1*%
%TO.N,BMS_RESET*%
X156500000Y-148150000D03*
X156500000Y-141650000D03*
%TO.P,SW3,2,2*%
%TO.N,+12V*%
X161000000Y-148150000D03*
X161000000Y-141650000D03*
%TD*%
D12*
%TO.P,D3,1,K*%
%TO.N,0*%
X157420000Y-121920000D03*
D11*
%TO.P,D3,2,A*%
%TO.N,Net-(D3-A)*%
X159960000Y-121920000D03*
%TD*%
D12*
%TO.P,D1,1,K*%
%TO.N,0*%
X121920000Y-121920000D03*
D11*
%TO.P,D1,2,A*%
%TO.N,Net-(D1-A)*%
X124460000Y-121920000D03*
%TD*%
D15*
%TO.P,R3,1*%
%TO.N,Net-(R3-Pad1)*%
X134620000Y-116840000D03*
%TO.P,R3,2*%
%TO.N,Net-(D2-A)*%
X134620000Y-127000000D03*
%TD*%
D16*
%TO.P,J3,1,GND*%
%TO.N,0*%
X139600000Y-104800000D03*
%TD*%
D13*
%TO.P,J2,1,Pin_1*%
%TO.N,0*%
X128660000Y-101600000D03*
D14*
%TO.P,J2,2,Pin_2*%
X124460000Y-101600000D03*
%TO.P,J2,3,Pin_3*%
%TO.N,+12V*%
X120260000Y-101600000D03*
%TO.P,J2,4,Pin_4*%
%TO.N,BSPD_LED*%
X128660000Y-107100000D03*
%TO.P,J2,5,Pin_5*%
%TO.N,IMD_LED*%
X124460000Y-107100000D03*
%TO.P,J2,6,Pin_6*%
%TO.N,BMS_LED*%
X120260000Y-107100000D03*
%TD*%
D17*
%TO.N,Net-(D3-A)*%
X159960000Y-119460000D02*
X159960000Y-121920000D01*
X157340000Y-116840000D02*
X159960000Y-119460000D01*
X152400000Y-116840000D02*
X157340000Y-116840000D01*
%TO.N,+12V*%
X135500000Y-139000000D02*
X132850000Y-141650000D01*
X132850000Y-141650000D02*
X126000000Y-141650000D01*
X135500000Y-131500000D02*
X135500000Y-139000000D01*
X132500000Y-128500000D02*
X135500000Y-131500000D01*
X130500000Y-115000000D02*
X132500000Y-117000000D01*
X124000000Y-115000000D02*
X130500000Y-115000000D01*
X118000000Y-109000000D02*
X124000000Y-115000000D01*
X132500000Y-117000000D02*
X132500000Y-128500000D01*
X118000000Y-103860000D02*
X118000000Y-109000000D01*
X120260000Y-101600000D02*
X118000000Y-103860000D01*
%TO.N,BMS_RESET*%
X160250000Y-107250000D02*
X158100000Y-107250000D01*
X167000000Y-114000000D02*
X160250000Y-107250000D01*
X167000000Y-127081314D02*
X167000000Y-114000000D01*
X164132341Y-128500000D02*
X165581314Y-128500000D01*
X162389000Y-130243341D02*
X164132341Y-128500000D01*
X162389000Y-137235206D02*
X162389000Y-130243341D01*
X157974206Y-141650000D02*
X162389000Y-137235206D01*
X156500000Y-141650000D02*
X157974206Y-141650000D01*
X165581314Y-128500000D02*
X167000000Y-127081314D01*
%TO.N,Net-(R1-Pad1)*%
X116840000Y-116840000D02*
X129540000Y-116840000D01*
%TO.N,Net-(R3-Pad1)*%
X134620000Y-116840000D02*
X147320000Y-116840000D01*
%TO.N,BMS_LED*%
X163200000Y-113600000D02*
X165100000Y-115500000D01*
X124400000Y-113600000D02*
X163200000Y-113600000D01*
X120260000Y-109460000D02*
X124400000Y-113600000D01*
X120260000Y-107100000D02*
X120260000Y-109460000D01*
X165100000Y-115500000D02*
X165100000Y-116840000D01*
%TO.N,Net-(R5-Pad1)*%
X152400000Y-127000000D02*
X165100000Y-127000000D01*
%TO.N,0*%
X157420000Y-122580000D02*
X154400000Y-125600000D01*
X154400000Y-125600000D02*
X143350000Y-125600000D01*
X143350000Y-125600000D02*
X139670000Y-121920000D01*
X157420000Y-121920000D02*
X157420000Y-122580000D01*
%TD*%
M02*
