<svg version="1.1" id="Layer_1" xmlns="http://www.w3.org/2000/svg" xmlns:xlink="http://www.w3.org/1999/xlink" x="0px" y="0px"
	 width="100%" viewBox="0 0 704 704" enable-background="new 0 0 704 704" xml:space="preserve">
<path fill="#000000" opacity="1.000000" stroke="none" 
	d="
M523.348816,598.826355 
	C523.346802,599.802673 523.365173,600.303650 523.339844,600.802368 
	C522.875671,609.946594 519.065613,612.637024 510.788574,608.854187 
	C497.518250,602.789307 484.473694,596.230774 471.325073,589.898804 
	C466.091949,587.378723 460.898926,584.761108 455.574341,582.448792 
	C448.687195,579.457825 445.272552,574.555786 445.595062,566.891846 
	C445.868103,560.404114 445.602386,553.895264 445.666687,547.396667 
	C445.804291,533.496826 442.643036,520.069397 439.511017,506.696106 
	C436.768829,494.987549 431.563599,484.186279 425.358154,473.890686 
	C424.423859,472.340607 423.764740,470.541138 421.642548,470.078583 
	C420.038971,470.959747 421.200836,472.243378 421.446106,473.113403 
	C426.731964,491.863647 429.121216,510.992920 430.661285,530.405090 
	C431.499634,540.972473 430.185272,551.274475 430.235382,561.698669 
	C430.261780,567.193115 426.782166,568.847900 421.166870,566.243652 
	C413.325134,562.606873 405.780548,558.378113 397.800049,554.984863 
	C384.538147,549.345947 371.490906,543.204041 358.282745,537.435425 
	C353.835968,535.493286 350.667603,532.635071 351.801605,527.613831 
	C354.137054,517.272400 352.116821,506.992737 351.365936,496.822144 
	C350.319977,482.654663 348.190887,468.484985 343.744598,454.855164 
	C340.398987,444.599518 336.803680,434.429230 330.305908,425.610870 
	C329.720367,424.816193 329.081635,424.054169 328.401093,423.340424 
	C328.223938,423.154633 327.795685,423.208282 326.997803,423.064697 
	C327.935913,427.498322 328.407471,431.899109 329.820587,435.973297 
	C333.229095,445.800507 333.731140,456.105194 335.199860,466.227844 
	C337.397980,481.377930 337.624725,496.676544 337.329285,511.972626 
	C337.303558,513.305115 337.413116,514.655518 337.235565,515.967163 
	C336.150482,523.983459 333.228394,526.102295 325.798737,522.889038 
	C304.923218,513.860474 283.522186,506.176147 262.462738,497.625854 
	C259.191589,496.297729 257.979004,493.885803 257.934540,490.642120 
	C257.800903,480.889496 258.351044,471.075836 257.438995,461.398651 
	C256.290649,449.214478 254.074097,437.106384 250.562836,425.330841 
	C246.659393,412.240051 241.024353,399.974945 232.116119,389.317566 
	C234.361679,396.657654 235.884338,404.131592 237.540726,411.569611 
	C240.206512,423.540436 241.025696,435.765656 242.444305,447.915588 
	C243.666824,458.386139 243.225632,468.843872 243.316269,479.309875 
	C243.379150,486.570740 241.649750,487.650055 234.934814,484.605316 
	C209.433350,473.042450 185.333786,459.118408 163.409180,441.611938 
	C141.500656,424.118378 121.853065,404.530334 107.696930,380.037292 
	C97.380470,362.187622 89.711349,343.225616 87.783440,322.597931 
	C85.585648,299.082520 85.276924,275.510620 90.679436,252.224411 
	C92.916641,242.581512 95.036949,240.194778 104.673302,240.805115 
	C121.136559,241.847855 137.621506,241.019943 154.051376,241.813477 
	C170.635452,242.614441 187.264389,242.543686 203.796936,243.825348 
	C216.982147,244.847519 230.231979,245.438507 243.352829,247.445099 
	C247.688293,248.108124 252.197372,247.696274 256.724396,248.627151 
	C257.647888,244.362534 255.919128,241.215744 254.734238,238.044144 
	C251.136963,228.415344 247.274384,218.884964 243.731445,209.236832 
	C241.746674,203.831863 242.672791,202.391220 248.399017,202.736832 
	C261.447113,203.524368 274.439301,204.925262 287.343170,207.148392 
	C318.442749,212.506378 348.367279,222.271851 378.511292,231.224808 
	C385.441162,233.283035 387.006866,232.135071 385.460724,224.696579 
	C383.538300,215.448013 380.863647,206.352493 378.402283,197.220963 
	C377.448242,193.681534 376.579315,190.199829 376.639526,186.466263 
	C376.705231,182.390717 378.364288,180.903122 382.256592,182.181946 
	C397.226349,187.100281 412.206268,191.948700 426.381805,199.005646 
	C441.411591,206.487869 456.237274,214.337341 469.712372,224.376038 
	C476.790802,229.649368 481.446320,237.338974 486.627319,244.385391 
	C499.233795,261.530792 508.584869,280.422943 515.218750,300.571075 
	C519.571045,313.789886 522.105225,327.442932 523.516663,341.368561 
	C524.484070,350.913940 525.481018,360.417938 525.301392,370.002563 
	C525.217712,374.470032 524.878174,378.969147 524.164368,383.374451 
	C523.750183,385.930603 522.355469,388.224915 519.911194,389.785065 
	C514.150208,393.462097 508.004333,395.555176 501.098907,395.361847 
	C491.660492,395.097656 482.142578,396.216156 472.919159,392.983429 
	C466.819702,390.845551 465.951172,389.094055 470.238129,384.416656 
	C475.917084,378.220551 475.865540,371.605927 473.542664,364.103333 
	C468.908325,349.134857 459.008423,337.482056 449.863708,325.345428 
	C440.034912,312.300934 428.858368,300.469513 416.473816,289.833984 
	C403.395630,278.602783 390.018311,267.744415 375.066101,259.004150 
	C373.799438,258.263763 372.709106,257.650330 371.424133,258.477753 
	C361.900665,264.610138 350.849792,267.659119 341.176788,273.499817 
	C339.048920,274.784637 338.000397,276.225952 338.611420,278.774719 
	C342.512177,295.045929 339.659760,310.723480 334.331787,326.165955 
	C332.074982,332.707031 332.223724,332.449066 338.531708,336.752930 
	C356.450836,348.978882 374.930756,360.346222 392.656525,372.882812 
	C413.853668,387.874512 433.812134,404.278137 452.053528,422.701935 
	C472.392242,443.244080 489.303223,466.404602 501.708649,492.549957 
	C510.694061,511.487396 517.022644,531.503723 520.072266,552.241150 
	C522.310425,567.460510 524.017822,582.857483 523.348816,598.826355 
z"/>
<path fill="#000000" opacity="1.000000" stroke="none" 
	d="
M159.000519,174.335831 
	C153.503372,174.334091 148.497406,174.497650 143.510956,174.256714 
	C141.121262,174.141251 138.017548,173.992096 137.237640,171.224976 
	C136.556519,168.808380 138.775864,167.058121 140.490891,165.446823 
	C158.377716,148.641846 178.210556,134.635941 199.967377,123.229942 
	C220.911270,112.250122 242.789047,103.680084 265.516083,97.395088 
	C286.570526,91.572639 307.982086,87.739510 329.798126,85.395325 
	C355.749268,82.606812 381.728333,82.905144 407.553040,84.091438 
	C436.273987,85.410782 464.614075,90.837051 492.048584,100.313393 
	C511.695648,107.099815 530.612244,115.191177 547.707153,126.985001 
	C550.006104,125.067375 549.844116,122.516205 550.508545,120.380814 
	C551.361145,117.641129 552.411682,115.055412 554.162842,112.821281 
	C556.678528,109.611771 559.449707,106.481766 564.140686,107.929665 
	C568.812683,109.371689 570.579468,113.106369 571.413025,117.681175 
	C572.405457,123.127510 572.847107,128.658081 572.182251,134.041580 
	C570.925903,144.214386 575.237427,151.833481 581.442993,159.245850 
	C599.564697,180.891586 613.622437,205.081223 624.988525,230.854004 
	C634.965698,253.477234 643.595337,276.592834 649.564636,300.631622 
	C651.193054,307.189362 650.309021,313.889374 650.138550,320.509918 
	C650.071045,323.131927 648.056335,325.351501 645.965088,327.063568 
	C641.446045,330.763336 635.985718,332.308807 630.395325,333.218781 
	C625.785645,333.969116 623.424622,330.104919 621.316101,327.211487 
	C611.239868,313.384033 602.705139,298.536621 593.495056,284.133148 
	C580.536987,263.868378 564.750854,246.521042 543.346863,234.693451 
	C526.672119,225.479141 509.008789,220.862076 490.014313,221.394821 
	C486.053467,221.505905 482.002289,221.833160 478.191345,222.824326 
	C474.831909,223.698074 472.777435,222.900787 471.126770,220.107071 
	C456.447083,195.261765 434.370758,178.204819 410.920135,162.463379 
	C393.206116,150.572662 374.696136,140.114395 355.296539,131.382065 
	C341.084991,124.985039 326.100403,120.614555 310.274323,118.918434 
	C308.810822,121.608940 310.351074,123.838196 311.142609,126.040413 
	C314.568512,135.571487 318.044952,145.088257 320.638275,154.885849 
	C322.375946,161.450882 320.571930,163.194260 313.866028,161.530029 
	C294.080139,156.619720 274.023193,153.003830 253.821564,150.614182 
	C238.716080,148.827332 223.621323,146.573166 208.335831,146.223587 
	C203.741608,146.118515 199.111649,145.401688 194.458344,145.273132 
	C188.802017,145.116898 186.759537,147.373657 188.118317,152.985672 
	C189.249878,157.659302 190.618240,162.276001 191.729752,166.954010 
	C193.083145,172.650009 191.075577,175.385162 185.367691,175.314850 
	C176.740097,175.208572 168.159729,173.722961 159.000519,174.335831 
z"/>
</svg>