M48
; DRILL file {KiCad 9.0.7} date 2026-02-13T10:39:20-0800
; FORMAT={-:-/ absolute / metric / decimal}
; #@! TF.CreationDate,2026-02-13T10:39:20-08:00
; #@! TF.GenerationSoftware,Kicad,Pcbnew,9.0.7
; #@! TF.FileFunction,Plated,1,2,PTH
FMAT,2
METRIC
; #@! TA.AperFunction,Plated,PTH,ViaDrill
T1C0.300
; #@! TA.AperFunction,Plated,PTH,ComponentDrill
T2C0.500
; #@! TA.AperFunction,Plated,PTH,ComponentDrill
T3C0.800
; #@! TA.AperFunction,Plated,PTH,ComponentDrill
T4C0.900
; #@! TA.AperFunction,Plated,PTH,ComponentDrill
T5C1.016
; #@! TA.AperFunction,Plated,PTH,ComponentDrill
T6C1.400
%
G90
G05
T1
X51.25Y-86.0
X52.0Y-75.0
X53.0Y-81.5
X55.0Y-56.5
X55.0Y-75.0
X55.0Y-86.0
X57.25Y-60.25
X58.0Y-61.25
X58.75Y-69.75
X59.25Y-78.75
X63.75Y-67.25
X65.5Y-67.25
X65.5Y-73.0
X65.5Y-78.0
X65.5Y-83.5
X66.542Y-67.222
X67.25Y-87.5
X68.25Y-60.75
X70.25Y-72.75
X71.0Y-74.5
X71.25Y-77.0
X72.25Y-82.0
X73.0Y-78.5
X73.0Y-81.0
X75.25Y-76.0
X75.75Y-79.5
T2
X56.0Y-77.0
X56.0Y-80.5
X56.0Y-84.0
X56.0Y-87.5
T3
X59.69Y-57.185
X59.69Y-64.805
X62.23Y-57.185
X62.23Y-64.805
X64.77Y-57.185
X64.77Y-64.805
X67.31Y-57.185
X67.31Y-64.805
T4
X49.21Y-61.75
X51.75Y-61.75
T5
X62.293Y-68.92
X62.293Y-71.46
X62.293Y-74.0
X62.293Y-79.5
X62.293Y-82.04
X62.293Y-84.58
X68.5Y-68.92
X68.5Y-71.46
X68.5Y-74.0
X68.5Y-79.5
X68.5Y-82.04
X68.5Y-84.58
T6
X44.0Y-69.3
X44.0Y-73.5
X44.25Y-80.25
X49.5Y-69.3
X49.5Y-73.5
X49.75Y-80.25
M30
