%TF.GenerationSoftware,KiCad,Pcbnew,10.0.1*%
%TF.CreationDate,2026-05-07T11:07:10-07:00*%
%TF.ProjectId,PCC,5043432e-6b69-4636-9164-5f7063625858,rev?*%
%TF.SameCoordinates,Original*%
%TF.FileFunction,Soldermask,Top*%
%TF.FilePolarity,Negative*%
%FSLAX46Y46*%
G04 Gerber Fmt 4.6, Leading zero omitted, Abs format (unit mm)*
G04 Created by KiCad (PCBNEW 10.0.1) date 2026-05-07 11:07:10*
%MOMM*%
%LPD*%
G01*
G04 APERTURE LIST*
G04 Aperture macros list*
%AMRoundRect*
0 Rectangle with rounded corners*
0 $1 Rounding radius*
0 $2 $3 $4 $5 $6 $7 $8 $9 X,Y pos of 4 corners*
0 Add a 4 corners polygon primitive as box body*
4,1,4,$2,$3,$4,$5,$6,$7,$8,$9,$2,$3,0*
0 Add four circle primitives for the rounded corners*
1,1,$1+$1,$2,$3*
1,1,$1+$1,$4,$5*
1,1,$1+$1,$6,$7*
1,1,$1+$1,$8,$9*
0 Add four rect primitives between the rounded corners*
20,1,$1+$1,$2,$3,$4,$5,0*
20,1,$1+$1,$4,$5,$6,$7,0*
20,1,$1+$1,$6,$7,$8,$9,0*
20,1,$1+$1,$8,$9,$2,$3,0*%
G04 Aperture macros list end*
%ADD10O,3.300000X2.700000*%
%ADD11RoundRect,0.250001X1.399999X-1.099999X1.399999X1.099999X-1.399999X1.099999X-1.399999X-1.099999X0*%
%ADD12C,3.000000*%
%ADD13C,2.500000*%
%ADD14C,6.900000*%
%ADD15C,2.000000*%
%ADD16R,2.000000X2.000000*%
%ADD17C,3.890000*%
%ADD18R,1.350000X1.350000*%
%ADD19C,1.350000*%
%ADD20RoundRect,0.250000X0.550000X-0.550000X0.550000X0.550000X-0.550000X0.550000X-0.550000X-0.550000X0*%
%ADD21C,1.600000*%
%ADD22RoundRect,0.150000X-0.150000X0.512500X-0.150000X-0.512500X0.150000X-0.512500X0.150000X0.512500X0*%
%ADD23C,1.440000*%
%ADD24C,1.304000*%
%ADD25R,6.000000X6.000000*%
%ADD26RoundRect,0.250000X-0.262500X-0.450000X0.262500X-0.450000X0.262500X0.450000X-0.262500X0.450000X0*%
%ADD27C,3.500000*%
%ADD28R,1.905000X2.000000*%
%ADD29O,1.905000X2.000000*%
%ADD30C,3.022600*%
%ADD31C,2.362200*%
%ADD32C,3.524000*%
%ADD33RoundRect,0.250000X-0.550000X-0.550000X0.550000X-0.550000X0.550000X0.550000X-0.550000X0.550000X0*%
%ADD34RoundRect,0.250001X-1.099999X-1.399999X1.099999X-1.399999X1.099999X1.399999X-1.099999X1.399999X0*%
%ADD35O,2.700000X3.300000*%
%ADD36C,1.955800*%
%ADD37RoundRect,0.150000X-0.150000X0.825000X-0.150000X-0.825000X0.150000X-0.825000X0.150000X0.825000X0*%
%ADD38R,2.000000X4.000000*%
%ADD39RoundRect,0.250000X0.262500X0.450000X-0.262500X0.450000X-0.262500X-0.450000X0.262500X-0.450000X0*%
%ADD40C,3.600000*%
%ADD41C,5.600000*%
%ADD42R,1.450000X1.450000*%
%ADD43C,1.450000*%
%ADD44R,1.371600X1.371600*%
%ADD45C,1.371600*%
%ADD46RoundRect,0.250000X0.550000X0.550000X-0.550000X0.550000X-0.550000X-0.550000X0.550000X-0.550000X0*%
%ADD47R,1.800000X1.800000*%
%ADD48C,1.800000*%
%ADD49RoundRect,0.249999X-0.772684X0.920849X-0.920849X-0.772684X0.772684X-0.920849X0.920849X0.772684X0*%
%ADD50C,2.200000*%
%ADD51R,2.000000X1.905000*%
%ADD52O,2.000000X1.905000*%
G04 APERTURE END LIST*
D10*
%TO.C,SDC1*%
X68750000Y-103750000D03*
D11*
X63250000Y-103750000D03*
D12*
X68290000Y-99050000D03*
X68290000Y-108450000D03*
%TD*%
D13*
%TO.C,K1*%
X73629262Y-153787738D03*
X74287115Y-146268460D03*
X107770738Y-149352486D03*
X106945374Y-158786449D03*
X104914939Y-152736463D03*
D14*
X84718207Y-161569816D03*
X86558936Y-140530184D03*
%TD*%
D15*
%TO.C,R6*%
X123840000Y-134800000D03*
D16*
X118760000Y-134800000D03*
%TD*%
D17*
%TO.C,HS2*%
X133950000Y-129850000D03*
X108550000Y-129850000D03*
%TD*%
D18*
%TO.C,R29*%
X92250000Y-82000000D03*
D19*
X92250000Y-80000000D03*
%TD*%
D20*
%TO.C,U11*%
X78800000Y-132970000D03*
D21*
X81340000Y-132970000D03*
X83880000Y-132970000D03*
X86420000Y-132970000D03*
X86420000Y-125350000D03*
X83880000Y-125350000D03*
X81340000Y-125350000D03*
X78800000Y-125350000D03*
%TD*%
D22*
%TO.C,D3*%
X61275000Y-56012500D03*
X59375000Y-56012500D03*
X60325000Y-58287500D03*
%TD*%
D23*
%TO.C,RV1*%
X118690000Y-101620000D03*
X116150000Y-104160000D03*
X113610000Y-101620000D03*
%TD*%
D24*
%TO.C,C9*%
X125500000Y-25000000D03*
X125500000Y-30000000D03*
%TD*%
D25*
%TO.C,F20*%
X156100000Y-21250000D03*
X139100000Y-21250000D03*
%TD*%
D26*
%TO.C,J11*%
X119337500Y-55750000D03*
X121162500Y-55750000D03*
%TD*%
D27*
%TO.C,Q1*%
X89509600Y-86700000D03*
D28*
X86969600Y-103360000D03*
D29*
X89509600Y-103360000D03*
X92049600Y-103360000D03*
%TD*%
D30*
%TO.C,J3*%
X70037800Y-71868797D03*
D31*
X65337799Y-76259798D03*
X61137800Y-76259798D03*
X56937801Y-76259798D03*
X65337799Y-72059800D03*
X61137800Y-72059800D03*
X56937801Y-72059800D03*
%TD*%
D32*
%TO.C,HS4*%
X127418999Y-141564999D03*
X151618999Y-141564999D03*
%TD*%
D33*
%TO.C,J4*%
X66875000Y-31535000D03*
D21*
X66875000Y-34075000D03*
X66875000Y-36615000D03*
X66875000Y-39155000D03*
X66875000Y-41695000D03*
X66875000Y-44235000D03*
X66875000Y-46775000D03*
X66875000Y-49315000D03*
X66875000Y-51855000D03*
X66875000Y-54395000D03*
X66875000Y-56935000D03*
X66875000Y-59475000D03*
X66875000Y-62015000D03*
X66875000Y-64555000D03*
X82115000Y-64555000D03*
X82115000Y-62015000D03*
X82115000Y-59475000D03*
X82115000Y-56935000D03*
X82115000Y-54395000D03*
X82115000Y-51855000D03*
X82115000Y-49315000D03*
X82115000Y-46775000D03*
X82115000Y-44235000D03*
X82115000Y-41695000D03*
X82115000Y-39155000D03*
X82115000Y-36615000D03*
X82115000Y-34075000D03*
X82115000Y-31535000D03*
%TD*%
D25*
%TO.C,F26*%
X153100000Y-106000000D03*
X136100000Y-106000000D03*
%TD*%
D12*
%TO.C,J8*%
X52500000Y-129340000D03*
X66100000Y-129340000D03*
D34*
X57200000Y-124300000D03*
D35*
X61400000Y-124300000D03*
X57200000Y-129800000D03*
X61400000Y-129800000D03*
%TD*%
D36*
%TO.C,J2*%
X153549999Y-37950000D03*
X153549999Y-42150000D03*
X153549999Y-46349996D03*
X153549999Y-50549995D03*
X153549999Y-54749995D03*
X153549999Y-58949994D03*
X148050000Y-37950000D03*
X148050000Y-42150000D03*
X148050000Y-46349996D03*
X148050000Y-50549995D03*
X148050000Y-54749995D03*
X148050000Y-58949994D03*
%TD*%
D37*
%TO.C,U1*%
X60655000Y-40762500D03*
X59385000Y-40762500D03*
X58115000Y-40762500D03*
X56845000Y-40762500D03*
X56845000Y-45712500D03*
X58115000Y-45712500D03*
X59385000Y-45712500D03*
X60655000Y-45712500D03*
%TD*%
D38*
%TO.C,R2*%
X139748999Y-160112499D03*
X134668999Y-160112499D03*
%TD*%
D39*
%TO.C,J12*%
X116162500Y-55750000D03*
X114337500Y-55750000D03*
%TD*%
D40*
%TO.C,H2*%
X163800000Y-156750000D03*
D41*
X163800000Y-156750000D03*
%TD*%
D42*
%TO.C,U6*%
X92025000Y-17810000D03*
D43*
X94565000Y-17810000D03*
X104725000Y-17810000D03*
X107265000Y-17810000D03*
X109805000Y-17810000D03*
%TD*%
D18*
%TO.C,R25*%
X92250000Y-76500000D03*
D19*
X92250000Y-74500000D03*
%TD*%
D25*
%TO.C,F23*%
X149300000Y-86700000D03*
X149300000Y-69700000D03*
%TD*%
D17*
%TO.C,HS1*%
X108950000Y-83900000D03*
X134350000Y-83900000D03*
%TD*%
D12*
%TO.C,J6*%
X51850000Y-114740000D03*
X65450000Y-114740000D03*
D34*
X56550000Y-109700000D03*
D35*
X60750000Y-109700000D03*
X56550000Y-115200000D03*
X60750000Y-115200000D03*
%TD*%
D30*
%TO.C,J5*%
X70200001Y-88108999D03*
D31*
X65500000Y-92500000D03*
X61300001Y-92500000D03*
X57100002Y-92500000D03*
X65500000Y-88300002D03*
X61300001Y-88300002D03*
X57100002Y-88300002D03*
%TD*%
D24*
%TO.C,C10*%
X127750000Y-39130000D03*
X127750000Y-44130000D03*
%TD*%
D12*
%TO.C,J10*%
X53900000Y-160700000D03*
X67500000Y-160700000D03*
D34*
X58600000Y-155660000D03*
D35*
X62800000Y-155660000D03*
X58600000Y-161160000D03*
X62800000Y-161160000D03*
%TD*%
D44*
%TO.C,U7*%
X121120000Y-67667500D03*
D45*
X121120000Y-65127500D03*
X121120000Y-62587500D03*
X121120000Y-60047500D03*
X113500000Y-60047500D03*
X113500000Y-62587500D03*
X113500000Y-65127500D03*
X113500000Y-67667500D03*
%TD*%
D30*
%TO.C,J13*%
X114958999Y-145849999D03*
D31*
X119350000Y-150550000D03*
X119350000Y-154749999D03*
X119350000Y-158949998D03*
X115150002Y-150550000D03*
X115150002Y-154749999D03*
X115150002Y-158949998D03*
%TD*%
D12*
%TO.C,J9*%
X52300000Y-143580000D03*
X65900000Y-143580000D03*
D34*
X57000000Y-138540000D03*
D35*
X61200000Y-138540000D03*
X57000000Y-144040000D03*
X61200000Y-144040000D03*
%TD*%
D44*
%TO.C,U9*%
X112440000Y-107490000D03*
D45*
X112440000Y-110030000D03*
X112440000Y-112570000D03*
X112440000Y-115110000D03*
X120060000Y-115110000D03*
X120060000Y-112570000D03*
X120060000Y-110030000D03*
X120060000Y-107490000D03*
%TD*%
D40*
%TO.C,H1*%
X166100000Y-22850000D03*
D41*
X166100000Y-22850000D03*
%TD*%
D46*
%TO.C,U2*%
X101195253Y-35040253D03*
D21*
X101195253Y-32500253D03*
X101195253Y-29960253D03*
X93575253Y-29960253D03*
X93575253Y-32500253D03*
X93575253Y-35040253D03*
%TD*%
D46*
%TO.C,U10*%
X101105000Y-115490000D03*
D21*
X101105000Y-112950000D03*
X101105000Y-110410000D03*
X93485000Y-110410000D03*
X93485000Y-112950000D03*
X93485000Y-115490000D03*
%TD*%
D46*
%TO.C,U3*%
X101195253Y-45540253D03*
D21*
X101195253Y-43000253D03*
X101195253Y-40460253D03*
X93575253Y-40460253D03*
X93575253Y-43000253D03*
X93575253Y-45540253D03*
%TD*%
D47*
%TO.C,DEBUG_2*%
X93300000Y-123550000D03*
D48*
X90760000Y-123550000D03*
%TD*%
D33*
%TO.C,U4*%
X113500000Y-26460000D03*
D21*
X113500000Y-29000000D03*
X113500000Y-31540000D03*
X113500000Y-34080000D03*
X121120000Y-34080000D03*
X121120000Y-31540000D03*
X121120000Y-29000000D03*
X121120000Y-26460000D03*
%TD*%
D27*
%TO.C,Q2*%
X78250000Y-87683200D03*
D28*
X75710000Y-104343200D03*
D29*
X78250000Y-104343200D03*
X80790000Y-104343200D03*
%TD*%
D33*
%TO.C,U5*%
X113690000Y-39230000D03*
D21*
X113690000Y-41770000D03*
X113690000Y-44310000D03*
X113690000Y-46850000D03*
X121310000Y-46850000D03*
X121310000Y-44310000D03*
X121310000Y-41770000D03*
X121310000Y-39230000D03*
%TD*%
D38*
%TO.C,R1*%
X142058999Y-146449999D03*
X136978999Y-146449999D03*
%TD*%
D49*
%TO.C,D1*%
X71385502Y-144328662D03*
D50*
X70500000Y-154450000D03*
%TD*%
D32*
%TO.C,HS3*%
X125108999Y-154974999D03*
X149308999Y-154974999D03*
%TD*%
D40*
%TO.C,H3*%
X57025000Y-20700000D03*
D41*
X57025000Y-20700000D03*
%TD*%
D27*
%TO.C,U8*%
X64239000Y-23749000D03*
D51*
X80899000Y-26289000D03*
D52*
X80899000Y-23749000D03*
X80899000Y-21209000D03*
%TD*%
D42*
%TO.C,U12*%
X91660000Y-107050000D03*
D43*
X94200000Y-107050000D03*
X104360000Y-107050000D03*
X106900000Y-107050000D03*
X109440000Y-107050000D03*
%TD*%
D25*
%TO.C,F19*%
X161400000Y-86600000D03*
X161400000Y-69600000D03*
%TD*%
D16*
%TO.C,R3*%
X124190000Y-79750000D03*
D15*
X119110000Y-79750000D03*
%TD*%
D12*
%TO.C,J1*%
X72950000Y-117040000D03*
X86550000Y-117040000D03*
D34*
X77650000Y-112000000D03*
D35*
X81850000Y-112000000D03*
X77650000Y-117500000D03*
X81850000Y-117500000D03*
%TD*%
M02*
