%TF.GenerationSoftware,KiCad,Pcbnew,10.0.1*%
%TF.CreationDate,2026-05-07T11:07:10-07:00*%
%TF.ProjectId,PCC,5043432e-6b69-4636-9164-5f7063625858,rev?*%
%TF.SameCoordinates,Original*%
%TF.FileFunction,Profile,NP*%
%FSLAX46Y46*%
G04 Gerber Fmt 4.6, Leading zero omitted, Abs format (unit mm)*
G04 Created by KiCad (PCBNEW 10.0.1) date 2026-05-07 11:07:10*
%MOMM*%
%LPD*%
G01*
G04 APERTURE LIST*
%TA.AperFunction,Profile*%
%ADD10C,0.050000*%
%TD*%
G04 APERTURE END LIST*
D10*
X49975000Y-21060000D02*
X49975253Y-158760253D01*
X49975000Y-21060000D02*
G75*
G02*
X56975000Y-14060000I7000000J0D01*
G01*
X56975000Y-14060000D02*
X166450300Y-14749748D01*
X56975253Y-165760253D02*
G75*
G02*
X49975257Y-158760253I-3J6999993D01*
G01*
X56975253Y-165760253D02*
X166400253Y-165760253D01*
X128750000Y-152650000D02*
X136150000Y-152650000D01*
X136150000Y-154350000D01*
X128750000Y-154350000D01*
X128750000Y-152650000D01*
X128899986Y-147106029D02*
X130499986Y-148706029D01*
X129700000Y-103350000D02*
X131750000Y-103350000D01*
X131750000Y-108950000D01*
X129700000Y-108950000D01*
X129700000Y-103350000D01*
X129799986Y-146206029D02*
X128899986Y-147106029D01*
X130499986Y-148706029D02*
X131399986Y-147806029D01*
X131399986Y-147806029D02*
X129799986Y-146206029D01*
X138550000Y-65200000D02*
X140250000Y-65200000D01*
X140250000Y-69650000D01*
X138550000Y-69650000D01*
X138550000Y-65200000D01*
X145000000Y-27550000D02*
X151300000Y-27550000D01*
X151300000Y-29250000D01*
X145000000Y-29250000D01*
X145000000Y-27550000D01*
X146300000Y-92450000D02*
X150750000Y-92450000D01*
X150750000Y-94150000D01*
X146300000Y-94150000D01*
X146300000Y-92450000D01*
X153934778Y-128850000D02*
G75*
G02*
X150665222Y-128850000I-1634778J0D01*
G01*
X150665222Y-128850000D02*
G75*
G02*
X153934778Y-128850000I1634778J0D01*
G01*
X159200000Y-92500000D02*
X163650000Y-92500000D01*
X163650000Y-94200000D01*
X159200000Y-94200000D01*
X159200000Y-92500000D01*
X160834778Y-110250000D02*
G75*
G02*
X157565222Y-110250000I-1634778J0D01*
G01*
X157565222Y-110250000D02*
G75*
G02*
X160834778Y-110250000I1634778J0D01*
G01*
X161084778Y-101450000D02*
G75*
G02*
X157815222Y-101450000I-1634778J0D01*
G01*
X157815222Y-101450000D02*
G75*
G02*
X161084778Y-101450000I1634778J0D01*
G01*
X160100000Y-57550000D02*
X163800000Y-57550000D01*
X163800000Y-59250000D01*
X160100000Y-59250000D01*
X160100000Y-57550000D01*
X160600000Y-30100000D02*
X164900000Y-30100000D01*
X164900000Y-31800000D01*
X160600000Y-31800000D01*
X160600000Y-30100000D01*
X161575000Y-62550000D02*
X166025000Y-62550000D01*
X166025000Y-64250000D01*
X161575000Y-64250000D01*
X161575000Y-62550000D01*
X166450253Y-14749748D02*
G75*
G02*
X173450252Y-21749747I47J-6999952D01*
G01*
X173410253Y-158750253D02*
G75*
G02*
X166400253Y-165760253I-7010003J3D01*
G01*
X173450252Y-21749700D02*
X173410252Y-158750253D01*
M02*
