%TF.GenerationSoftware,KiCad,Pcbnew,9.0.7*%
%TF.CreationDate,2026-04-05T23:17:13-07:00*%
%TF.ProjectId,ChargeBoardMaster,43686172-6765-4426-9f61-72644d617374,rev?*%
%TF.SameCoordinates,Original*%
%TF.FileFunction,Copper,L1,Top*%
%TF.FilePolarity,Positive*%
%FSLAX46Y46*%
G04 Gerber Fmt 4.6, Leading zero omitted, Abs format (unit mm)*
G04 Created by KiCad (PCBNEW 9.0.7) date 2026-04-05 23:17:13*
%MOMM*%
%LPD*%
G01*
G04 APERTURE LIST*
G04 Aperture macros list*
%AMRoundRect*
0 Rectangle with rounded corners*
0 $1 Rounding radius*
0 $2 $3 $4 $5 $6 $7 $8 $9 X,Y pos of 4 corners*
0 Add a 4 corners polygon primitive as box body*
4,1,4,$2,$3,$4,$5,$6,$7,$8,$9,$2,$3,0*
0 Add four circle primitives for the rounded corners*
1,1,$1+$1,$2,$3*
1,1,$1+$1,$4,$5*
1,1,$1+$1,$6,$7*
1,1,$1+$1,$8,$9*
0 Add four rect primitives between the rounded corners*
20,1,$1+$1,$2,$3,$4,$5,0*
20,1,$1+$1,$4,$5,$6,$7,0*
20,1,$1+$1,$6,$7,$8,$9,0*
20,1,$1+$1,$8,$9,$2,$3,0*%
G04 Aperture macros list end*
%TA.AperFunction,ComponentPad*%
%ADD10C,1.608074*%
%TD*%
%TA.AperFunction,ComponentPad*%
%ADD11C,1.600000*%
%TD*%
%TA.AperFunction,ComponentPad*%
%ADD12RoundRect,0.250000X1.050000X1.050000X-1.050000X1.050000X-1.050000X-1.050000X1.050000X-1.050000X0*%
%TD*%
%TA.AperFunction,ComponentPad*%
%ADD13C,2.600000*%
%TD*%
%TA.AperFunction,ComponentPad*%
%ADD14R,1.800000X1.800000*%
%TD*%
%TA.AperFunction,ComponentPad*%
%ADD15C,1.800000*%
%TD*%
%TA.AperFunction,ComponentPad*%
%ADD16C,1.955800*%
%TD*%
%TA.AperFunction,ComponentPad*%
%ADD17R,2.000000X1.905000*%
%TD*%
%TA.AperFunction,ComponentPad*%
%ADD18O,2.000000X1.905000*%
%TD*%
%TA.AperFunction,ComponentPad*%
%ADD19R,2.300000X2.300000*%
%TD*%
%TA.AperFunction,ComponentPad*%
%ADD20C,2.300000*%
%TD*%
%TA.AperFunction,ComponentPad*%
%ADD21RoundRect,0.250000X-1.050000X1.050000X-1.050000X-1.050000X1.050000X-1.050000X1.050000X1.050000X0*%
%TD*%
%TA.AperFunction,ComponentPad*%
%ADD22O,7.700000X3.800000*%
%TD*%
%TA.AperFunction,ComponentPad*%
%ADD23O,7.700000X3.900000*%
%TD*%
%TA.AperFunction,ComponentPad*%
%ADD24C,2.000000*%
%TD*%
%TA.AperFunction,ComponentPad*%
%ADD25R,2.655000X2.655000*%
%TD*%
%TA.AperFunction,ComponentPad*%
%ADD26C,2.655000*%
%TD*%
%TA.AperFunction,ViaPad*%
%ADD27C,0.600000*%
%TD*%
%TA.AperFunction,Conductor*%
%ADD28C,0.500000*%
%TD*%
%TA.AperFunction,Conductor*%
%ADD29C,2.500000*%
%TD*%
G04 APERTURE END LIST*
D10*
%TO.P,K1,1,1*%
%TO.N,GND*%
X162712400Y-104577350D03*
%TO.P,K1,3,3*%
%TO.N,/Latch_Out*%
X162712400Y-114737350D03*
%TO.P,K1,4,4*%
%TO.N,Net-(K1-Pad4)*%
X162712400Y-122357350D03*
%TO.P,K1,5,5*%
%TO.N,/IMD_FAULT*%
X170332400Y-122357350D03*
%TO.P,K1,6,6*%
%TO.N,/Latch/imd_reset*%
X170332400Y-114737350D03*
%TO.P,K1,8,8*%
X170332400Y-104577350D03*
%TD*%
D11*
%TO.P,R5,1*%
%TO.N,/LED_GND*%
X119278400Y-141408150D03*
%TO.P,R5,2*%
%TO.N,Net-(D5-K)*%
X119278400Y-151568150D03*
%TD*%
D12*
%TO.P,D2,1,K*%
%TO.N,/Latch/imd_reset*%
X174244000Y-98075750D03*
D13*
%TO.P,D2,2,A*%
%TO.N,GND*%
X159004000Y-98075750D03*
%TD*%
D11*
%TO.P,R8,1*%
%TO.N,Net-(Q1-G)*%
X176682400Y-122561350D03*
%TO.P,R8,2*%
%TO.N,/Latch/imd_reset*%
X176682400Y-112401350D03*
%TD*%
D14*
%TO.P,D7,1,K*%
%TO.N,Net-(D7-K)*%
X185364200Y-58858150D03*
D15*
%TO.P,D7,2,A*%
%TO.N,/SDC_return*%
X187904200Y-58858150D03*
%TD*%
D16*
%TO.P,J7,1,1*%
%TO.N,Net-(JP3-B)*%
X102412800Y-79533750D03*
%TO.P,J7,2,2*%
%TO.N,Net-(JP1-A)*%
X96912801Y-79533750D03*
%TD*%
D11*
%TO.P,R10,1*%
%TO.N,/Latch/imd_reset*%
X170840400Y-138715750D03*
%TO.P,R10,2*%
%TO.N,GND*%
X181000400Y-138715750D03*
%TD*%
%TO.P,R1,1*%
%TO.N,/Latch/IMDfault_LED*%
X161594800Y-143592550D03*
%TO.P,R1,2*%
%TO.N,Net-(D1-A)*%
X161594800Y-153752550D03*
%TD*%
D17*
%TO.P,Q1,1,G*%
%TO.N,Net-(Q1-G)*%
X161559600Y-128098550D03*
D18*
%TO.P,Q1,2,D*%
%TO.N,/Latch/IMDfault_LED*%
X161559600Y-130638550D03*
%TO.P,Q1,3,S*%
%TO.N,+12V*%
X161559600Y-133178550D03*
%TD*%
D11*
%TO.P,R12,1*%
%TO.N,Net-(D8-A)*%
X141782800Y-138614150D03*
%TO.P,R12,2*%
%TO.N,GND*%
X131622800Y-138614150D03*
%TD*%
%TO.P,R3,1*%
%TO.N,/LED_GND*%
X115163600Y-131451350D03*
%TO.P,R3,2*%
%TO.N,Net-(D4-K)*%
X115163600Y-141611350D03*
%TD*%
D19*
%TO.P,J8,1,1*%
%TO.N,/CP (valeo)*%
X104241600Y-122662950D03*
D20*
%TO.P,J8,2,2*%
%TO.N,/LED_GND*%
X104241600Y-118462950D03*
%TO.P,J8,3,3*%
%TO.N,/CC (valeo)*%
X104241600Y-114262950D03*
%TO.P,J8,4,4*%
%TO.N,/LED2*%
X104241600Y-110062950D03*
%TO.P,J8,5,5*%
%TO.N,/LED1*%
X104241600Y-105862950D03*
%TO.P,J8,6,6*%
%TO.N,/SDC_return*%
X108441600Y-122662950D03*
%TO.P,J8,7,7*%
%TO.N,GND*%
X108441600Y-118462950D03*
%TO.P,J8,8,8*%
%TO.N,unconnected-(J8-Pad8)*%
X108441600Y-114262950D03*
%TO.P,J8,9,9*%
%TO.N,/CANL*%
X108441600Y-110062950D03*
%TO.P,J8,10,10*%
%TO.N,/CANH*%
X108441600Y-105862950D03*
%TD*%
D16*
%TO.P,J5,1,1*%
%TO.N,+12V*%
X198082799Y-120122950D03*
%TO.P,J5,2,2*%
%TO.N,GND*%
X192582800Y-120122950D03*
%TD*%
D21*
%TO.P,D8,1,K*%
%TO.N,/Latch/bms_reset*%
X148488400Y-102952550D03*
D13*
%TO.P,D8,2,A*%
%TO.N,Net-(D8-A)*%
X148488400Y-118192550D03*
%TD*%
D12*
%TO.P,D3,1,K*%
%TO.N,/Latch/bms_reset*%
X147218400Y-97212150D03*
D13*
%TO.P,D3,2,A*%
%TO.N,/BMS_FAULT*%
X131978400Y-97212150D03*
%TD*%
D17*
%TO.P,Q3,1,G*%
%TO.N,Net-(Q3-G)*%
X147304400Y-132975350D03*
D18*
%TO.P,Q3,2,D*%
%TO.N,/Latch/BMSfault_LED*%
X147304400Y-130435350D03*
%TO.P,Q3,3,S*%
%TO.N,+12V*%
X147304400Y-127895350D03*
%TD*%
D10*
%TO.P,K2,1,1*%
%TO.N,/BMS_FAULT*%
X135636000Y-104119349D03*
%TO.P,K2,3,3*%
%TO.N,+12V*%
X135636000Y-114279349D03*
%TO.P,K2,4,4*%
%TO.N,Net-(K1-Pad4)*%
X135636000Y-121899349D03*
%TO.P,K2,5,5*%
%TO.N,+12V*%
X143256000Y-121899349D03*
%TO.P,K2,6,6*%
%TO.N,Net-(D8-A)*%
X143256000Y-114279349D03*
%TO.P,K2,8,8*%
%TO.N,/Latch/bms_reset*%
X143256000Y-104119349D03*
%TD*%
D16*
%TO.P,J3,1,1*%
%TO.N,/SDC_Out*%
X196291200Y-71646151D03*
%TO.P,J3,2,2*%
%TO.N,Net-(J2-Pad1)*%
X196291200Y-77146150D03*
%TD*%
D11*
%TO.P,R2,1*%
%TO.N,/Latch/BMSfault_LED*%
X148386800Y-143744950D03*
%TO.P,R2,2*%
%TO.N,Net-(D6-A)*%
X148386800Y-153904950D03*
%TD*%
D16*
%TO.P,J2,1,1*%
%TO.N,Net-(J2-Pad1)*%
X194411600Y-88257751D03*
%TO.P,J2,2,2*%
%TO.N,/Latch_Out*%
X194411600Y-93757750D03*
%TD*%
D11*
%TO.P,R11,1*%
%TO.N,Net-(Q3-G)*%
X152400000Y-134296150D03*
%TO.P,R11,2*%
%TO.N,Net-(D8-A)*%
X152400000Y-124136150D03*
%TD*%
%TO.P,R6,1*%
%TO.N,GND*%
X186791600Y-77196950D03*
%TO.P,R6,2*%
%TO.N,Net-(D7-K)*%
X186791600Y-67036950D03*
%TD*%
D16*
%TO.P,J4,1,1*%
%TO.N,Net-(J4-Pad1)*%
X187984900Y-160031900D03*
%TO.P,J4,2,2*%
%TO.N,GND*%
X182484901Y-160031900D03*
%TD*%
D22*
%TO.P,S1,1*%
%TO.N,+12V*%
X195224400Y-128352400D03*
D23*
%TO.P,S1,3*%
%TO.N,Net-(J4-Pad1)*%
X195224400Y-152552400D03*
%TD*%
D14*
%TO.P,D6,1,K*%
%TO.N,GND*%
X135636000Y-162744150D03*
D15*
%TO.P,D6,2,A*%
%TO.N,Net-(D6-A)*%
X138176000Y-162744150D03*
%TD*%
D24*
%TO.P,SW3,1,1*%
%TO.N,+12V*%
X139374000Y-153295350D03*
X139374000Y-146795350D03*
%TO.P,SW3,2,2*%
%TO.N,/Latch/bms_reset*%
X134874000Y-153295350D03*
X134874000Y-146795350D03*
%TD*%
D11*
%TO.P,R9,1*%
%TO.N,/CANL*%
X124256800Y-113772950D03*
%TO.P,R9,2*%
%TO.N,/CANH*%
X124256800Y-103612950D03*
%TD*%
D14*
%TO.P,D5,1,K*%
%TO.N,Net-(D5-K)*%
X106730800Y-151618950D03*
D15*
%TO.P,D5,2,A*%
%TO.N,/LED2*%
X106730800Y-149078950D03*
%TD*%
D25*
%TO.P,J1,1,1*%
%TO.N,/SDC_Out*%
X137697200Y-73576150D03*
D26*
%TO.P,J1,2,2*%
%TO.N,+12V*%
X142142200Y-73576150D03*
%TO.P,J1,3,3*%
%TO.N,GND*%
X146587200Y-73576150D03*
%TO.P,J1,4,4*%
%TO.N,/IMD_FAULT*%
X151037200Y-73576150D03*
%TO.P,J1,5,5*%
%TO.N,/BMS_FAULT*%
X155482200Y-73576150D03*
%TO.P,J1,6,6*%
%TO.N,unconnected-(J1-Pad6)*%
X159927200Y-73576150D03*
%TO.P,J1,7,7*%
%TO.N,unconnected-(J1-Pad7)*%
X159927200Y-64456150D03*
%TO.P,J1,8,8*%
%TO.N,unconnected-(J1-Pad8)*%
X155482200Y-64456150D03*
%TO.P,J1,9,9*%
%TO.N,unconnected-(J1-Pad9)*%
X151037200Y-64456150D03*
%TO.P,J1,10,10*%
%TO.N,/SDC_return*%
X146587200Y-64456150D03*
%TO.P,J1,11,11*%
%TO.N,/CP (orion)*%
X142142200Y-64456150D03*
%TO.P,J1,12,12*%
%TO.N,/CC (orion)*%
X137697200Y-64456150D03*
%TD*%
D14*
%TO.P,D1,1,K*%
%TO.N,GND*%
X169824400Y-161423350D03*
D15*
%TO.P,D1,2,A*%
%TO.N,Net-(D1-A)*%
X172364400Y-161423350D03*
%TD*%
D24*
%TO.P,SW2,1,1*%
%TO.N,/IMD_FAULT*%
X174548800Y-152939750D03*
X174548800Y-146439750D03*
%TO.P,SW2,2,2*%
%TO.N,/Latch/imd_reset*%
X170048800Y-152939750D03*
X170048800Y-146439750D03*
%TD*%
D14*
%TO.P,D4,1,K*%
%TO.N,Net-(D4-K)*%
X107137200Y-137552350D03*
D15*
%TO.P,D4,2,A*%
%TO.N,/LED1*%
X107137200Y-135012350D03*
%TD*%
D27*
%TO.N,GND*%
X189992000Y-104273350D03*
X155448000Y-131502150D03*
X110337600Y-130943350D03*
X169722800Y-83851750D03*
X126542800Y-72777350D03*
X150215600Y-109708950D03*
X144336603Y-142964119D03*
X104648000Y-72980550D03*
X138226800Y-81819750D03*
X145440400Y-87153750D03*
X140055600Y-134346950D03*
X89814400Y-95840550D03*
X100482400Y-116058950D03*
X99009200Y-114788950D03*
X150440800Y-81943350D03*
X107391200Y-127133350D03*
X159385562Y-76320750D03*
X156362400Y-125152150D03*
X135026400Y-66935350D03*
X116586000Y-115754150D03*
X147421600Y-136632950D03*
X177901600Y-91217750D03*
X165506400Y-138715750D03*
X176174400Y-142017750D03*
X108254800Y-98329750D03*
X120853200Y-89642950D03*
X202184000Y-120072150D03*
X196037200Y-110318550D03*
X162966400Y-109048550D03*
X126288800Y-86036150D03*
X160883600Y-86340950D03*
X91643200Y-74860150D03*
X147878800Y-76231750D03*
X111506000Y-124745750D03*
X147127753Y-84361369D03*
X168198800Y-107219750D03*
X149402800Y-85070950D03*
X145053400Y-135515350D03*
X92913200Y-114839750D03*
X154330400Y-114636550D03*
X94589600Y-116668550D03*
X110693200Y-116363750D03*
X176479200Y-125914150D03*
X147063246Y-77886150D03*
X176174400Y-134245350D03*
X134315200Y-76434950D03*
X144167607Y-84381750D03*
X141884400Y-116211350D03*
X139090400Y-92081350D03*
X153517600Y-89896950D03*
X115570000Y-81870550D03*
X175920400Y-105492550D03*
X180695600Y-111842550D03*
X160121600Y-139020550D03*
X156718000Y-114128550D03*
X151231600Y-138868150D03*
X104343200Y-125456950D03*
X199085200Y-114382550D03*
X115519200Y-119767350D03*
X138125200Y-76587350D03*
X183134000Y-95992950D03*
X129540000Y-83445350D03*
X165506400Y-142678150D03*
X149504400Y-110064550D03*
X132384800Y-67748150D03*
X153517600Y-85578950D03*
X149402800Y-90455750D03*
X113741200Y-122764550D03*
X110083600Y-91420950D03*
X97536000Y-120224550D03*
X99364800Y-89388950D03*
X125577600Y-64090550D03*
X116586000Y-117735350D03*
X129184400Y-70084950D03*
X134924800Y-140188950D03*
X100482400Y-114026950D03*
X123799600Y-75418950D03*
X98907600Y-103562150D03*
X173075600Y-119716550D03*
X158140400Y-108134150D03*
X133959600Y-91217750D03*
X98907600Y-110572550D03*
X166420800Y-124034550D03*
X155244800Y-105644950D03*
X202895200Y-127793750D03*
X156870400Y-82276950D03*
X159308800Y-117024150D03*
X90068400Y-88118950D03*
X172720000Y-132518150D03*
X166827200Y-90354150D03*
X100380800Y-67189350D03*
X100634800Y-86239350D03*
X167436800Y-116719350D03*
X116687600Y-107524550D03*
X138734800Y-66935350D03*
X138277600Y-83953350D03*
X154006292Y-76108150D03*
X141732000Y-125507750D03*
X134823200Y-126777750D03*
X147421600Y-139782550D03*
X149148800Y-96551750D03*
X114960400Y-65360550D03*
X99161600Y-96602550D03*
X183845200Y-108743750D03*
X107746800Y-130384550D03*
X193548000Y-107778550D03*
X103987600Y-128504950D03*
X110947200Y-115042950D03*
X133654800Y-117938550D03*
X150181477Y-77886150D03*
X91998800Y-113163350D03*
X100685600Y-125101350D03*
X179628800Y-103714550D03*
X140258800Y-111639350D03*
X138125200Y-79330550D03*
X152603200Y-95789750D03*
X172262800Y-142830550D03*
X116535200Y-97770950D03*
X116687600Y-110724950D03*
X137922000Y-88271350D03*
%TO.N,/Latch/imd_reset*%
X168960800Y-123983750D03*
X170586400Y-126218950D03*
%TO.N,/Latch/bms_reset*%
X137923698Y-117844312D03*
X138176000Y-125202950D03*
%TO.N,/BMS_FAULT*%
X148981980Y-76701008D03*
%TO.N,/IMD_FAULT*%
X171856400Y-125202950D03*
%TD*%
D28*
%TO.N,Net-(D1-A)*%
X161594800Y-153752550D02*
X164693600Y-153752550D01*
X164693600Y-153752550D02*
X172364400Y-161423350D01*
%TO.N,/Latch/imd_reset*%
X170332400Y-101987350D02*
X174244000Y-98075750D01*
X170332400Y-106051350D02*
X176682400Y-112401350D01*
X170840400Y-138715750D02*
X170840400Y-126472950D01*
X168960800Y-123983750D02*
X168960800Y-116108950D01*
X170048800Y-139507350D02*
X170840400Y-138715750D01*
X170332400Y-104577350D02*
X170332400Y-106051350D01*
X170332400Y-114737350D02*
X174346400Y-114737350D01*
X168960800Y-116108950D02*
X170332400Y-114737350D01*
X170332400Y-104577350D02*
X170332400Y-101987350D01*
X170048800Y-152939750D02*
X170048800Y-146439750D01*
X174346400Y-114737350D02*
X176682400Y-112401350D01*
X170840400Y-126472950D02*
X170586400Y-126218950D01*
X170048800Y-146439750D02*
X170048800Y-139507350D01*
%TO.N,/Latch/bms_reset*%
X143256000Y-104119349D02*
X137923698Y-109451651D01*
X147218400Y-97212150D02*
X147218400Y-100156949D01*
X138176000Y-143493350D02*
X134874000Y-146795350D01*
X148488400Y-102952550D02*
X144422799Y-102952550D01*
X144422799Y-102952550D02*
X143256000Y-104119349D01*
X134874000Y-153295350D02*
X134874000Y-146795350D01*
X137923698Y-109451651D02*
X137923698Y-117844312D01*
X138176000Y-125202950D02*
X138176000Y-143493350D01*
X147218400Y-100156949D02*
X143256000Y-104119349D01*
%TO.N,/BMS_FAULT*%
X131978400Y-97212150D02*
X135636000Y-100869750D01*
X135636000Y-100869750D02*
X135636000Y-104119349D01*
X149906209Y-75776779D02*
X148981980Y-76701008D01*
X153604832Y-73576150D02*
X151404203Y-75776779D01*
X151404203Y-75776779D02*
X149906209Y-75776779D01*
X155482200Y-73576150D02*
X153604832Y-73576150D01*
%TO.N,Net-(D6-A)*%
X147015200Y-153904950D02*
X138176000Y-162744150D01*
X148386800Y-153904950D02*
X147015200Y-153904950D01*
%TO.N,/Latch/IMDfault_LED*%
X163010600Y-132089550D02*
X163010600Y-142176750D01*
X163010600Y-142176750D02*
X161594800Y-143592550D01*
X163010600Y-132089550D02*
X161559600Y-130638550D01*
%TO.N,/Latch/BMSfault_LED*%
X149186799Y-142944951D02*
X149186799Y-132003249D01*
X147618900Y-130435350D02*
X147304400Y-130435350D01*
X149186799Y-132003249D02*
X147618900Y-130435350D01*
X148386800Y-143744950D02*
X149186799Y-142944951D01*
%TO.N,/IMD_FAULT*%
X174548800Y-146439750D02*
X174548800Y-152939750D01*
X174548800Y-127895350D02*
X171856400Y-125202950D01*
X174548800Y-146439750D02*
X174548800Y-127895350D01*
%TO.N,Net-(D8-A)*%
X144575199Y-114279349D02*
X143256000Y-114279349D01*
X141782800Y-131384601D02*
X149031251Y-124136150D01*
X149031251Y-124136150D02*
X152400000Y-124136150D01*
X141782800Y-138614150D02*
X141782800Y-131384601D01*
X148488400Y-118192550D02*
X144575199Y-114279349D01*
%TO.N,+12V*%
X147304400Y-127895350D02*
X156276400Y-127895350D01*
D29*
X195224400Y-122981349D02*
X198082799Y-120122950D01*
X142142200Y-100802253D02*
X135636000Y-107308453D01*
D28*
X139374000Y-153295350D02*
X139374000Y-146795350D01*
D29*
X142142200Y-73576150D02*
X142142200Y-79686150D01*
X195224400Y-128352400D02*
X195224400Y-122981349D01*
X198082799Y-120122950D02*
X198082799Y-117402045D01*
X142142200Y-79686150D02*
X142142200Y-100802253D01*
X198082799Y-117402045D02*
X160366904Y-79686150D01*
D28*
X156276400Y-127895350D02*
X161559600Y-133178550D01*
D29*
X160366904Y-79686150D02*
X142142200Y-79686150D01*
X135636000Y-107308453D02*
X135636000Y-114279349D01*
D28*
%TO.N,Net-(D4-K)*%
X107137200Y-137552350D02*
X111104600Y-137552350D01*
X111104600Y-137552350D02*
X115163600Y-141611350D01*
%TO.N,/LED2*%
X102640600Y-127336550D02*
X102640600Y-144988750D01*
X104241600Y-110062950D02*
X102640600Y-111663950D01*
X102640600Y-144988750D02*
X106730800Y-149078950D01*
X102640600Y-111663950D02*
X102640600Y-127336550D01*
%TO.N,Net-(D5-K)*%
X106730800Y-151618950D02*
X119227600Y-151618950D01*
X119227600Y-151618950D02*
X119278400Y-151568150D01*
%TO.N,Net-(D7-K)*%
X185364200Y-65609550D02*
X186791600Y-67036950D01*
X185364200Y-58858150D02*
X185364200Y-65609550D01*
D29*
%TO.N,/SDC_Out*%
X140475700Y-70797650D02*
X137697200Y-73576150D01*
X195442699Y-70797650D02*
X140475700Y-70797650D01*
X196291200Y-71646151D02*
X195442699Y-70797650D01*
%TO.N,Net-(J2-Pad1)*%
X196291200Y-86378151D02*
X194411600Y-88257751D01*
X196291200Y-77146150D02*
X196291200Y-86378151D01*
%TO.N,Net-(J4-Pad1)*%
X187984900Y-159791900D02*
X195224400Y-152552400D01*
X187984900Y-160031900D02*
X187984900Y-159791900D01*
D28*
%TO.N,/CANH*%
X120700800Y-103612950D02*
X124256800Y-103612950D01*
X120650000Y-103663750D02*
X120700800Y-103612950D01*
X108441600Y-105862950D02*
X110640800Y-103663750D01*
X110640800Y-103663750D02*
X120650000Y-103663750D01*
%TO.N,/CANL*%
X112202400Y-113823750D02*
X120650000Y-113823750D01*
X108441600Y-110062950D02*
X112202400Y-113823750D01*
X120700800Y-113772950D02*
X124256800Y-113772950D01*
X120650000Y-113823750D02*
X120700800Y-113772950D01*
%TO.N,/LED_GND*%
X119278400Y-135566150D02*
X115163600Y-131451350D01*
X105842600Y-120063950D02*
X105842600Y-123261720D01*
X105842600Y-123261720D02*
X114032230Y-131451350D01*
X119278400Y-141408150D02*
X119278400Y-135566150D01*
X104241600Y-118462950D02*
X105842600Y-120063950D01*
X114032230Y-131451350D02*
X115163600Y-131451350D01*
D29*
%TO.N,Net-(K1-Pad4)*%
X137891037Y-119644312D02*
X135636000Y-121899349D01*
X161320332Y-120965282D02*
X145511037Y-120965282D01*
X162712400Y-122357350D02*
X161320332Y-120965282D01*
X144190067Y-119644312D02*
X137891037Y-119644312D01*
X145511037Y-120965282D02*
X144190067Y-119644312D01*
D28*
%TO.N,Net-(Q1-G)*%
X170891200Y-124339350D02*
X167132000Y-128098550D01*
X167132000Y-128098550D02*
X161559600Y-128098550D01*
X176682400Y-122561350D02*
X174904400Y-124339350D01*
X174904400Y-124339350D02*
X170891200Y-124339350D01*
%TD*%
%TA.AperFunction,Conductor*%
%TO.N,GND*%
G36*
X159657500Y-81456335D02*
G01*
X159678142Y-81472969D01*
X174268742Y-96063569D01*
X174302227Y-96124892D01*
X174297243Y-96194584D01*
X174255371Y-96250517D01*
X174189907Y-96274934D01*
X174181061Y-96275250D01*
X173143998Y-96275250D01*
X173143981Y-96275251D01*
X173041203Y-96285750D01*
X173041200Y-96285751D01*
X172874668Y-96340935D01*
X172874663Y-96340937D01*
X172725342Y-96433039D01*
X172601289Y-96557092D01*
X172509187Y-96706413D01*
X172509186Y-96706416D01*
X172454001Y-96872953D01*
X172454001Y-96872954D01*
X172454000Y-96872954D01*
X172443500Y-96975733D01*
X172443500Y-98763519D01*
X172423815Y-98830558D01*
X172407181Y-98851200D01*
X169749445Y-101508936D01*
X169732142Y-101534835D01*
X169732141Y-101534836D01*
X169667316Y-101631853D01*
X169667314Y-101631856D01*
X169610743Y-101768432D01*
X169610740Y-101768442D01*
X169581900Y-101913429D01*
X169581900Y-103446942D01*
X169562215Y-103513981D01*
X169530787Y-103547259D01*
X169482551Y-103582304D01*
X169337353Y-103727502D01*
X169337349Y-103727507D01*
X169216662Y-103893620D01*
X169123439Y-104076577D01*
X169059984Y-104271869D01*
X169027863Y-104474675D01*
X169027863Y-104680024D01*
X169059984Y-104882830D01*
X169123439Y-105078122D01*
X169187548Y-105203942D01*
X169216529Y-105260819D01*
X169216662Y-105261079D01*
X169337349Y-105427192D01*
X169337353Y-105427197D01*
X169482554Y-105572398D01*
X169530784Y-105607438D01*
X169573451Y-105662767D01*
X169581900Y-105707757D01*
X169581900Y-106125268D01*
X169581900Y-106125270D01*
X169581899Y-106125270D01*
X169610740Y-106270257D01*
X169610743Y-106270267D01*
X169667312Y-106406838D01*
X169667320Y-106406852D01*
X169693411Y-106445899D01*
X169693412Y-106445902D01*
X169749446Y-106529764D01*
X169749452Y-106529771D01*
X175355926Y-112136243D01*
X175389411Y-112197566D01*
X175390718Y-112243321D01*
X175381900Y-112298997D01*
X175381900Y-112503701D01*
X175390718Y-112559375D01*
X175381764Y-112628668D01*
X175355926Y-112666454D01*
X174071851Y-113950531D01*
X174010528Y-113984016D01*
X173984170Y-113986850D01*
X171462807Y-113986850D01*
X171395768Y-113967165D01*
X171362488Y-113935734D01*
X171327448Y-113887504D01*
X171182247Y-113742303D01*
X171182242Y-113742299D01*
X171016129Y-113621612D01*
X171016128Y-113621611D01*
X171016126Y-113621610D01*
X170958992Y-113592498D01*
X170833172Y-113528389D01*
X170637880Y-113464934D01*
X170435074Y-113432813D01*
X170435069Y-113432813D01*
X170229731Y-113432813D01*
X170229726Y-113432813D01*
X170026919Y-113464934D01*
X169831627Y-113528389D01*
X169648670Y-113621612D01*
X169482557Y-113742299D01*
X169482552Y-113742303D01*
X169337353Y-113887502D01*
X169337349Y-113887507D01*
X169216662Y-114053620D01*
X169123439Y-114236577D01*
X169059984Y-114431869D01*
X169027863Y-114634675D01*
X169027863Y-114840024D01*
X169037189Y-114898905D01*
X169028235Y-114968198D01*
X169002397Y-115005984D01*
X168377850Y-115630530D01*
X168377844Y-115630538D01*
X168328612Y-115704218D01*
X168328613Y-115704219D01*
X168295721Y-115753446D01*
X168295714Y-115753458D01*
X168239142Y-115890036D01*
X168239140Y-115890042D01*
X168210300Y-116035029D01*
X168210300Y-123679146D01*
X168200862Y-123726594D01*
X168191889Y-123748259D01*
X168191062Y-123750256D01*
X168191060Y-123750261D01*
X168160300Y-123904903D01*
X168160300Y-124062596D01*
X168191061Y-124217239D01*
X168191064Y-124217251D01*
X168251402Y-124362922D01*
X168251409Y-124362935D01*
X168339010Y-124494038D01*
X168339013Y-124494042D01*
X168450507Y-124605536D01*
X168450511Y-124605539D01*
X168581614Y-124693140D01*
X168581627Y-124693147D01*
X168727298Y-124753485D01*
X168727303Y-124753487D01*
X168881953Y-124784249D01*
X168881956Y-124784250D01*
X168881958Y-124784250D01*
X169039642Y-124784250D01*
X169069749Y-124778261D01*
X169139339Y-124784487D01*
X169194517Y-124827349D01*
X169217763Y-124893238D01*
X169201697Y-124961236D01*
X169181622Y-124987559D01*
X166857451Y-127311731D01*
X166796128Y-127345216D01*
X166769770Y-127348050D01*
X163184099Y-127348050D01*
X163117060Y-127328365D01*
X163071305Y-127275561D01*
X163060099Y-127224050D01*
X163060099Y-127098179D01*
X163060098Y-127098173D01*
X163060097Y-127098166D01*
X163053691Y-127038567D01*
X163020203Y-126948782D01*
X163003397Y-126903721D01*
X163003393Y-126903714D01*
X162917147Y-126788505D01*
X162917144Y-126788502D01*
X162801935Y-126702256D01*
X162801928Y-126702252D01*
X162667082Y-126651958D01*
X162667083Y-126651958D01*
X162607483Y-126645551D01*
X162607481Y-126645550D01*
X162607473Y-126645550D01*
X162607464Y-126645550D01*
X160511729Y-126645550D01*
X160511723Y-126645551D01*
X160452116Y-126651958D01*
X160317271Y-126702252D01*
X160317264Y-126702256D01*
X160202055Y-126788502D01*
X160202052Y-126788505D01*
X160115806Y-126903714D01*
X160115802Y-126903721D01*
X160065508Y-127038567D01*
X160059577Y-127093736D01*
X160059101Y-127098173D01*
X160059100Y-127098185D01*
X160059100Y-129098920D01*
X160059101Y-129098926D01*
X160065508Y-129158533D01*
X160115802Y-129293378D01*
X160115806Y-129293385D01*
X160202052Y-129408594D01*
X160202055Y-129408597D01*
X160317264Y-129494843D01*
X160317269Y-129494846D01*
X160345139Y-129505240D01*
X160401073Y-129547111D01*
X160425491Y-129612574D01*
X160410640Y-129680848D01*
X160402125Y-129694309D01*
X160269383Y-129877011D01*
X160165550Y-130080794D01*
X160094878Y-130298300D01*
X160094878Y-130298303D01*
X160084525Y-130363670D01*
X160054596Y-130426805D01*
X159995284Y-130463736D01*
X159925422Y-130462738D01*
X159874371Y-130431953D01*
X156754813Y-127312395D01*
X156699684Y-127275561D01*
X156680334Y-127262632D01*
X156631895Y-127230266D01*
X156631888Y-127230262D01*
X156495317Y-127173693D01*
X156495307Y-127173690D01*
X156350320Y-127144850D01*
X156350318Y-127144850D01*
X148665818Y-127144850D01*
X148598779Y-127125165D01*
X148565500Y-127093736D01*
X148525417Y-127038567D01*
X148460186Y-126948784D01*
X148298466Y-126787064D01*
X148113438Y-126652633D01*
X148099537Y-126645550D01*
X147909565Y-126548754D01*
X147858769Y-126500779D01*
X147841974Y-126432958D01*
X147864512Y-126366823D01*
X147878173Y-126350594D01*
X149305800Y-124922969D01*
X149367123Y-124889484D01*
X149393481Y-124886650D01*
X151274582Y-124886650D01*
X151341621Y-124906335D01*
X151374900Y-124937765D01*
X151408028Y-124983362D01*
X151408032Y-124983367D01*
X151552786Y-125128121D01*
X151701295Y-125236017D01*
X151718390Y-125248437D01*
X151783861Y-125281796D01*
X151900776Y-125341368D01*
X151900778Y-125341368D01*
X151900781Y-125341370D01*
X152005137Y-125375277D01*
X152095465Y-125404627D01*
X152196557Y-125420638D01*
X152297648Y-125436650D01*
X152297649Y-125436650D01*
X152502351Y-125436650D01*
X152502352Y-125436650D01*
X152704534Y-125404627D01*
X152899219Y-125341370D01*
X153081610Y-125248437D01*
X153188860Y-125170516D01*
X153247213Y-125128121D01*
X153247215Y-125128118D01*
X153247219Y-125128116D01*
X153391966Y-124983369D01*
X153391968Y-124983365D01*
X153391971Y-124983363D01*
X153507915Y-124823777D01*
X153512287Y-124817760D01*
X153605220Y-124635369D01*
X153668477Y-124440684D01*
X153700500Y-124238502D01*
X153700500Y-124033798D01*
X153682773Y-123921878D01*
X153668477Y-123831615D01*
X153634354Y-123726597D01*
X153605220Y-123636931D01*
X153605218Y-123636928D01*
X153605218Y-123636926D01*
X153566279Y-123560506D01*
X153512287Y-123454540D01*
X153483190Y-123414491D01*
X153391971Y-123288936D01*
X153247213Y-123144178D01*
X153081613Y-123023865D01*
X153081612Y-123023864D01*
X153081610Y-123023863D01*
X152937170Y-122950267D01*
X152886374Y-122902292D01*
X152869579Y-122834471D01*
X152892116Y-122768336D01*
X152946832Y-122724885D01*
X152993465Y-122715782D01*
X160543889Y-122715782D01*
X160610928Y-122735467D01*
X160631570Y-122752101D01*
X161555732Y-123676264D01*
X161555739Y-123676270D01*
X161636421Y-123738179D01*
X161737787Y-123815960D01*
X161737794Y-123815964D01*
X161936504Y-123930690D01*
X161936520Y-123930698D01*
X162050889Y-123978071D01*
X162148513Y-124018508D01*
X162370161Y-124077898D01*
X162530835Y-124099050D01*
X162597665Y-124107849D01*
X162597666Y-124107849D01*
X162827134Y-124107849D01*
X162878789Y-124101048D01*
X163054639Y-124077898D01*
X163276286Y-124018508D01*
X163435868Y-123952406D01*
X163488278Y-123930698D01*
X163488281Y-123930696D01*
X163488287Y-123930694D01*
X163687012Y-123815960D01*
X163869061Y-123676269D01*
X164031319Y-123514011D01*
X164171010Y-123331962D01*
X164285744Y-123133237D01*
X164373558Y-122921236D01*
X164432948Y-122699589D01*
X164462899Y-122472083D01*
X164462899Y-122242616D01*
X164432948Y-122015111D01*
X164373558Y-121793463D01*
X164293775Y-121600850D01*
X164285748Y-121581470D01*
X164285740Y-121581454D01*
X164171014Y-121382744D01*
X164171010Y-121382737D01*
X164031319Y-121200688D01*
X164031314Y-121200682D01*
X162476995Y-119646363D01*
X162476991Y-119646360D01*
X162358502Y-119555441D01*
X162358500Y-119555439D01*
X162294943Y-119506670D01*
X162096223Y-119391939D01*
X162096213Y-119391934D01*
X161884228Y-119304127D01*
X161884221Y-119304125D01*
X161884222Y-119304125D01*
X161884219Y-119304124D01*
X161876568Y-119302074D01*
X161662571Y-119244734D01*
X161662565Y-119244733D01*
X161662564Y-119244733D01*
X161652694Y-119243433D01*
X161636103Y-119241249D01*
X161636102Y-119241248D01*
X161435076Y-119214783D01*
X161435071Y-119214782D01*
X161435066Y-119214782D01*
X161435059Y-119214782D01*
X150192027Y-119214782D01*
X150124988Y-119195097D01*
X150079233Y-119142293D01*
X150069289Y-119073135D01*
X150084639Y-119028783D01*
X150093307Y-119013768D01*
X150106684Y-118990599D01*
X150197006Y-118772543D01*
X150258093Y-118544564D01*
X150288900Y-118310561D01*
X150288900Y-118074539D01*
X150258093Y-117840536D01*
X150197006Y-117612557D01*
X150106684Y-117394501D01*
X150106682Y-117394498D01*
X150106680Y-117394493D01*
X150044793Y-117287303D01*
X149988673Y-117190100D01*
X149888694Y-117059804D01*
X149844993Y-117002852D01*
X149844987Y-117002845D01*
X149678104Y-116835962D01*
X149678097Y-116835956D01*
X149490854Y-116692280D01*
X149490853Y-116692279D01*
X149490850Y-116692277D01*
X149376322Y-116626154D01*
X149286456Y-116574269D01*
X149286445Y-116574264D01*
X149068393Y-116483944D01*
X148840410Y-116422856D01*
X148606420Y-116392051D01*
X148606417Y-116392050D01*
X148606411Y-116392050D01*
X148370389Y-116392050D01*
X148370383Y-116392050D01*
X148370379Y-116392051D01*
X148136387Y-116422856D01*
X147924523Y-116479625D01*
X147854673Y-116477962D01*
X147804749Y-116447531D01*
X146074709Y-114717490D01*
X145991894Y-114634675D01*
X161407863Y-114634675D01*
X161407863Y-114840024D01*
X161439984Y-115042830D01*
X161503439Y-115238122D01*
X161545313Y-115320302D01*
X161587161Y-115402434D01*
X161596662Y-115421079D01*
X161717349Y-115587192D01*
X161717353Y-115587197D01*
X161862552Y-115732396D01*
X161862557Y-115732400D01*
X162007450Y-115837670D01*
X162028674Y-115853090D01*
X162145252Y-115912490D01*
X162211627Y-115946310D01*
X162211629Y-115946310D01*
X162211632Y-115946312D01*
X162316311Y-115980324D01*
X162406919Y-116009765D01*
X162609726Y-116041887D01*
X162609731Y-116041887D01*
X162815074Y-116041887D01*
X163017880Y-116009765D01*
X163213168Y-115946312D01*
X163396126Y-115853090D01*
X163562249Y-115732395D01*
X163707445Y-115587199D01*
X163828140Y-115421076D01*
X163921362Y-115238118D01*
X163984815Y-115042830D01*
X163995056Y-114978170D01*
X164016937Y-114840024D01*
X164016937Y-114634675D01*
X163984815Y-114431869D01*
X163921360Y-114236577D01*
X163840297Y-114077484D01*
X163828140Y-114053624D01*
X163753239Y-113950531D01*
X163707450Y-113887507D01*
X163707446Y-113887502D01*
X163562247Y-113742303D01*
X163562242Y-113742299D01*
X163396129Y-113621612D01*
X163396128Y-113621611D01*
X163396126Y-113621610D01*
X163338992Y-113592498D01*
X163213172Y-113528389D01*
X163017880Y-113464934D01*
X162815074Y-113432813D01*
X162815069Y-113432813D01*
X162609731Y-113432813D01*
X162609726Y-113432813D01*
X162406919Y-113464934D01*
X162211627Y-113528389D01*
X162028670Y-113621612D01*
X161862557Y-113742299D01*
X161862552Y-113742303D01*
X161717353Y-113887502D01*
X161717349Y-113887507D01*
X161596662Y-114053620D01*
X161503439Y-114236577D01*
X161439984Y-114431869D01*
X161407863Y-114634675D01*
X145991894Y-114634675D01*
X145053619Y-113696400D01*
X145033784Y-113683147D01*
X144953312Y-113629378D01*
X144953312Y-113629377D01*
X144930694Y-113614265D01*
X144930689Y-113614262D01*
X144794116Y-113557692D01*
X144794106Y-113557689D01*
X144649119Y-113528849D01*
X144649117Y-113528849D01*
X144386407Y-113528849D01*
X144319368Y-113509164D01*
X144286088Y-113477733D01*
X144251048Y-113429503D01*
X144105847Y-113284302D01*
X144105842Y-113284298D01*
X143939729Y-113163611D01*
X143939728Y-113163610D01*
X143939726Y-113163609D01*
X143882592Y-113134497D01*
X143756772Y-113070388D01*
X143561480Y-113006933D01*
X143358674Y-112974812D01*
X143358669Y-112974812D01*
X143153331Y-112974812D01*
X143153326Y-112974812D01*
X142950519Y-113006933D01*
X142755227Y-113070388D01*
X142572270Y-113163611D01*
X142406157Y-113284298D01*
X142406152Y-113284302D01*
X142260953Y-113429501D01*
X142260949Y-113429506D01*
X142140262Y-113595619D01*
X142047039Y-113778576D01*
X141983584Y-113973868D01*
X141951463Y-114176674D01*
X141951463Y-114382023D01*
X141983584Y-114584829D01*
X142047039Y-114780121D01*
X142107564Y-114898905D01*
X142139360Y-114961309D01*
X142140262Y-114963078D01*
X142260949Y-115129191D01*
X142260953Y-115129196D01*
X142406152Y-115274395D01*
X142406157Y-115274399D01*
X142521846Y-115358451D01*
X142572274Y-115395089D01*
X142688852Y-115454489D01*
X142755227Y-115488309D01*
X142755229Y-115488309D01*
X142755232Y-115488311D01*
X142842204Y-115516570D01*
X142950519Y-115551764D01*
X143153326Y-115583886D01*
X143153331Y-115583886D01*
X143358674Y-115583886D01*
X143561480Y-115551764D01*
X143600868Y-115538966D01*
X143756768Y-115488311D01*
X143939726Y-115395089D01*
X144105849Y-115274394D01*
X144219684Y-115160558D01*
X144281003Y-115127076D01*
X144350695Y-115132060D01*
X144395043Y-115160561D01*
X146743381Y-117508899D01*
X146776866Y-117570222D01*
X146775475Y-117628673D01*
X146718706Y-117840537D01*
X146687901Y-118074529D01*
X146687900Y-118074545D01*
X146687900Y-118310554D01*
X146687901Y-118310570D01*
X146718706Y-118544560D01*
X146779794Y-118772543D01*
X146870114Y-118990595D01*
X146870117Y-118990601D01*
X146892161Y-119028783D01*
X146908633Y-119096683D01*
X146885780Y-119162710D01*
X146830858Y-119205900D01*
X146784773Y-119214782D01*
X146287480Y-119214782D01*
X146220441Y-119195097D01*
X146199799Y-119178463D01*
X145346733Y-118325396D01*
X145346726Y-118325390D01*
X145240705Y-118244038D01*
X145240703Y-118244036D01*
X145164678Y-118185700D01*
X144965958Y-118070969D01*
X144965943Y-118070962D01*
X144753954Y-117983154D01*
X144684048Y-117964423D01*
X144532306Y-117923764D01*
X144532300Y-117923763D01*
X144532299Y-117923763D01*
X144522429Y-117922463D01*
X144505838Y-117920279D01*
X144505837Y-117920278D01*
X144304811Y-117893813D01*
X144304806Y-117893812D01*
X144304801Y-117893812D01*
X144304794Y-117893812D01*
X138848198Y-117893812D01*
X138781159Y-117874127D01*
X138735404Y-117821323D01*
X138727026Y-117796142D01*
X138724198Y-117783127D01*
X138724198Y-117765470D01*
X138693435Y-117610815D01*
X138679385Y-117576895D01*
X138677026Y-117566038D01*
X138677664Y-117557136D01*
X138674198Y-117539708D01*
X138674198Y-109813880D01*
X138693883Y-109746841D01*
X138710512Y-109726204D01*
X142987367Y-105449348D01*
X143048688Y-105415865D01*
X143094439Y-105414558D01*
X143153331Y-105423886D01*
X143153334Y-105423886D01*
X143358674Y-105423886D01*
X143561480Y-105391764D01*
X143756768Y-105328311D01*
X143939726Y-105235089D01*
X144105849Y-105114394D01*
X144251045Y-104969198D01*
X144371740Y-104803075D01*
X144464962Y-104620117D01*
X144528415Y-104424829D01*
X144534251Y-104387982D01*
X144560537Y-104222023D01*
X144560537Y-104016683D01*
X144560536Y-104016674D01*
X144551209Y-103957790D01*
X144551910Y-103952367D01*
X144549998Y-103947240D01*
X144556340Y-103918086D01*
X144560163Y-103888501D01*
X144563995Y-103882896D01*
X144564850Y-103878967D01*
X144585998Y-103850717D01*
X144697349Y-103739368D01*
X144758672Y-103705884D01*
X144785029Y-103703050D01*
X146563901Y-103703050D01*
X146630940Y-103722735D01*
X146676695Y-103775539D01*
X146687901Y-103827050D01*
X146687901Y-104052568D01*
X146698400Y-104155346D01*
X146698401Y-104155349D01*
X146737013Y-104271870D01*
X146753586Y-104321884D01*
X146845688Y-104471206D01*
X146969744Y-104595262D01*
X147119066Y-104687364D01*
X147285603Y-104742549D01*
X147388391Y-104753050D01*
X149588408Y-104753049D01*
X149691197Y-104742549D01*
X149857734Y-104687364D01*
X150007056Y-104595262D01*
X150127598Y-104474720D01*
X161408363Y-104474720D01*
X161408363Y-104679979D01*
X161440472Y-104882709D01*
X161503903Y-105077928D01*
X161597084Y-105260806D01*
X161597092Y-105260819D01*
X161630034Y-105306160D01*
X161630035Y-105306161D01*
X162191796Y-104744399D01*
X162203516Y-104788137D01*
X162275411Y-104912663D01*
X162377087Y-105014339D01*
X162501613Y-105086234D01*
X162545349Y-105097953D01*
X161983588Y-105659713D01*
X162028935Y-105692661D01*
X162211821Y-105785846D01*
X162407040Y-105849277D01*
X162609771Y-105881387D01*
X162815029Y-105881387D01*
X163017759Y-105849277D01*
X163212978Y-105785846D01*
X163395866Y-105692660D01*
X163395870Y-105692658D01*
X163441210Y-105659714D01*
X163441210Y-105659713D01*
X162879450Y-105097953D01*
X162923187Y-105086234D01*
X163047713Y-105014339D01*
X163149389Y-104912663D01*
X163221284Y-104788137D01*
X163233003Y-104744400D01*
X163794763Y-105306160D01*
X163794764Y-105306160D01*
X163827708Y-105260820D01*
X163827710Y-105260816D01*
X163920896Y-105077928D01*
X163984327Y-104882709D01*
X164016437Y-104679979D01*
X164016437Y-104474720D01*
X163984327Y-104271990D01*
X163920896Y-104076771D01*
X163827711Y-103893885D01*
X163794763Y-103848538D01*
X163233002Y-104410298D01*
X163221284Y-104366563D01*
X163149389Y-104242037D01*
X163047713Y-104140361D01*
X162923187Y-104068466D01*
X162879448Y-104056746D01*
X163441211Y-103494985D01*
X163441210Y-103494984D01*
X163395869Y-103462042D01*
X163395856Y-103462034D01*
X163212978Y-103368853D01*
X163017759Y-103305422D01*
X162815029Y-103273313D01*
X162609771Y-103273313D01*
X162407040Y-103305422D01*
X162211821Y-103368853D01*
X162028931Y-103462040D01*
X161983588Y-103494984D01*
X161983587Y-103494985D01*
X162545349Y-104056746D01*
X162501613Y-104068466D01*
X162377087Y-104140361D01*
X162275411Y-104242037D01*
X162203516Y-104366563D01*
X162191796Y-104410299D01*
X161630035Y-103848537D01*
X161630034Y-103848538D01*
X161597090Y-103893881D01*
X161503903Y-104076771D01*
X161440472Y-104271990D01*
X161408363Y-104474720D01*
X150127598Y-104474720D01*
X150131112Y-104471206D01*
X150223214Y-104321884D01*
X150278399Y-104155347D01*
X150288900Y-104052559D01*
X150288899Y-102942093D01*
X150288899Y-101852548D01*
X150288898Y-101852531D01*
X150278399Y-101749753D01*
X150278398Y-101749750D01*
X150272731Y-101732647D01*
X150223214Y-101583216D01*
X150131112Y-101433894D01*
X150007056Y-101309838D01*
X149857734Y-101217736D01*
X149691197Y-101162551D01*
X149691195Y-101162550D01*
X149588416Y-101152050D01*
X147584027Y-101152050D01*
X147516988Y-101132365D01*
X147471233Y-101079561D01*
X147461289Y-101010403D01*
X147490314Y-100946847D01*
X147496313Y-100940403D01*
X147801352Y-100635365D01*
X147882273Y-100514256D01*
X147882275Y-100514257D01*
X147882285Y-100514237D01*
X147883484Y-100512444D01*
X147940058Y-100375862D01*
X147968900Y-100230867D01*
X147968900Y-99136649D01*
X147988585Y-99069610D01*
X148041389Y-99023855D01*
X148092900Y-99012649D01*
X148318402Y-99012649D01*
X148318408Y-99012649D01*
X148421197Y-99002149D01*
X148587734Y-98946964D01*
X148737056Y-98854862D01*
X148861112Y-98730806D01*
X148953214Y-98581484D01*
X149008399Y-98414947D01*
X149018900Y-98312159D01*
X149018900Y-97957764D01*
X157204000Y-97957764D01*
X157204000Y-98193735D01*
X157234799Y-98427664D01*
X157295870Y-98655587D01*
X157386160Y-98873569D01*
X157386165Y-98873578D01*
X157504144Y-99077921D01*
X157504145Y-99077922D01*
X157566721Y-99159473D01*
X158402958Y-98323237D01*
X158427978Y-98383640D01*
X158499112Y-98490101D01*
X158589649Y-98580638D01*
X158696110Y-98651772D01*
X158756511Y-98676791D01*
X157920275Y-99513027D01*
X158001827Y-99575604D01*
X158001828Y-99575605D01*
X158206171Y-99693584D01*
X158206180Y-99693589D01*
X158424163Y-99783879D01*
X158424161Y-99783879D01*
X158652085Y-99844950D01*
X158886014Y-99875749D01*
X158886029Y-99875750D01*
X159121971Y-99875750D01*
X159121985Y-99875749D01*
X159355914Y-99844950D01*
X159583837Y-99783879D01*
X159801819Y-99693589D01*
X159801828Y-99693584D01*
X160006181Y-99575600D01*
X160087723Y-99513029D01*
X160087723Y-99513026D01*
X159251487Y-98676791D01*
X159311890Y-98651772D01*
X159418351Y-98580638D01*
X159508888Y-98490101D01*
X159580022Y-98383640D01*
X159605041Y-98323237D01*
X160441276Y-99159473D01*
X160441279Y-99159473D01*
X160503850Y-99077931D01*
X160621834Y-98873578D01*
X160621839Y-98873569D01*
X160712129Y-98655587D01*
X160773200Y-98427664D01*
X160803999Y-98193735D01*
X160804000Y-98193721D01*
X160804000Y-97957778D01*
X160803999Y-97957764D01*
X160773200Y-97723835D01*
X160712129Y-97495912D01*
X160621839Y-97277930D01*
X160621834Y-97277921D01*
X160503855Y-97073578D01*
X160503854Y-97073577D01*
X160441277Y-96992025D01*
X159605041Y-97828261D01*
X159580022Y-97767860D01*
X159508888Y-97661399D01*
X159418351Y-97570862D01*
X159311890Y-97499728D01*
X159251488Y-97474708D01*
X160087723Y-96638471D01*
X160006172Y-96575895D01*
X160006171Y-96575894D01*
X159801828Y-96457915D01*
X159801819Y-96457910D01*
X159583836Y-96367620D01*
X159583838Y-96367620D01*
X159355914Y-96306549D01*
X159121985Y-96275750D01*
X158886014Y-96275750D01*
X158652085Y-96306549D01*
X158424162Y-96367620D01*
X158206180Y-96457910D01*
X158206171Y-96457915D01*
X158001828Y-96575894D01*
X158001818Y-96575900D01*
X157920275Y-96638470D01*
X157920275Y-96638471D01*
X158756512Y-97474708D01*
X158696110Y-97499728D01*
X158589649Y-97570862D01*
X158499112Y-97661399D01*
X158427978Y-97767860D01*
X158402958Y-97828262D01*
X157566721Y-96992025D01*
X157566720Y-96992025D01*
X157504150Y-97073568D01*
X157504144Y-97073578D01*
X157386165Y-97277921D01*
X157386160Y-97277930D01*
X157295870Y-97495912D01*
X157234799Y-97723835D01*
X157204000Y-97957764D01*
X149018900Y-97957764D01*
X149018899Y-96112142D01*
X149008399Y-96009353D01*
X148953214Y-95842816D01*
X148861112Y-95693494D01*
X148737056Y-95569438D01*
X148587734Y-95477336D01*
X148421197Y-95422151D01*
X148421195Y-95422150D01*
X148318410Y-95411650D01*
X146118398Y-95411650D01*
X146118381Y-95411651D01*
X146015603Y-95422150D01*
X146015600Y-95422151D01*
X145849068Y-95477335D01*
X145849063Y-95477337D01*
X145699742Y-95569439D01*
X145575689Y-95693492D01*
X145483587Y-95842813D01*
X145483585Y-95842818D01*
X145479362Y-95855562D01*
X145428401Y-96009353D01*
X145428401Y-96009354D01*
X145428400Y-96009354D01*
X145417900Y-96112133D01*
X145417900Y-98312151D01*
X145417901Y-98312168D01*
X145428400Y-98414946D01*
X145428401Y-98414949D01*
X145479362Y-98568737D01*
X145483586Y-98581484D01*
X145575688Y-98730806D01*
X145699744Y-98854862D01*
X145849066Y-98946964D01*
X146015603Y-99002149D01*
X146118391Y-99012650D01*
X146343900Y-99012649D01*
X146410939Y-99032333D01*
X146456694Y-99085137D01*
X146467900Y-99136649D01*
X146467900Y-99794718D01*
X146448215Y-99861757D01*
X146431581Y-99882399D01*
X143524633Y-102789346D01*
X143463310Y-102822831D01*
X143417553Y-102824138D01*
X143358673Y-102814812D01*
X143358669Y-102814812D01*
X143153331Y-102814812D01*
X143153326Y-102814812D01*
X142950518Y-102846934D01*
X142950511Y-102846935D01*
X142882662Y-102868981D01*
X142812821Y-102870976D01*
X142752989Y-102834895D01*
X142722161Y-102772194D01*
X142730126Y-102702780D01*
X142756664Y-102663369D01*
X143461114Y-101958919D01*
X143461119Y-101958914D01*
X143516808Y-101886339D01*
X143600811Y-101776865D01*
X143715544Y-101578141D01*
X143803358Y-101366140D01*
X143857909Y-101162551D01*
X143862748Y-101144492D01*
X143870098Y-101088663D01*
X143892700Y-100916987D01*
X143892700Y-81560650D01*
X143912385Y-81493611D01*
X143965189Y-81447856D01*
X144016700Y-81436650D01*
X159590461Y-81436650D01*
X159657500Y-81456335D01*
G37*
%TD.AperFunction*%
%TA.AperFunction,Conductor*%
G36*
X206198539Y-47967385D02*
G01*
X206244294Y-48020189D01*
X206255500Y-48071700D01*
X206255500Y-167504450D01*
X206235815Y-167571489D01*
X206183011Y-167617244D01*
X206131500Y-167628450D01*
X84393700Y-167628450D01*
X84326661Y-167608765D01*
X84280906Y-167555961D01*
X84269700Y-167504450D01*
X84269700Y-160078711D01*
X89949500Y-160078711D01*
X89949500Y-160321288D01*
X89981161Y-160561785D01*
X90043947Y-160796104D01*
X90081078Y-160885746D01*
X90136776Y-161020212D01*
X90258064Y-161230289D01*
X90258066Y-161230292D01*
X90258067Y-161230293D01*
X90405733Y-161422736D01*
X90405739Y-161422743D01*
X90577256Y-161594260D01*
X90577263Y-161594266D01*
X90624209Y-161630289D01*
X90769711Y-161741936D01*
X90979788Y-161863224D01*
X91203900Y-161956054D01*
X91438211Y-162018838D01*
X91618586Y-162042584D01*
X91678711Y-162050500D01*
X91678712Y-162050500D01*
X91921289Y-162050500D01*
X91969388Y-162044167D01*
X92161789Y-162018838D01*
X92396100Y-161956054D01*
X92620212Y-161863224D01*
X92736119Y-161796305D01*
X134236000Y-161796305D01*
X134236000Y-162494150D01*
X135260722Y-162494150D01*
X135216667Y-162570456D01*
X135186000Y-162684906D01*
X135186000Y-162803394D01*
X135216667Y-162917844D01*
X135260722Y-162994150D01*
X134236000Y-162994150D01*
X134236000Y-163691994D01*
X134242401Y-163751522D01*
X134242403Y-163751529D01*
X134292645Y-163886236D01*
X134292649Y-163886243D01*
X134378809Y-164001337D01*
X134378812Y-164001340D01*
X134493906Y-164087500D01*
X134493913Y-164087504D01*
X134628620Y-164137746D01*
X134628627Y-164137748D01*
X134688155Y-164144149D01*
X134688172Y-164144150D01*
X135386000Y-164144150D01*
X135386000Y-163119427D01*
X135462306Y-163163483D01*
X135576756Y-163194150D01*
X135695244Y-163194150D01*
X135809694Y-163163483D01*
X135886000Y-163119427D01*
X135886000Y-164144150D01*
X136583828Y-164144150D01*
X136583844Y-164144149D01*
X136643372Y-164137748D01*
X136643379Y-164137746D01*
X136778086Y-164087504D01*
X136778093Y-164087500D01*
X136893187Y-164001340D01*
X136893190Y-164001337D01*
X136979350Y-163886243D01*
X136979354Y-163886236D01*
X137009213Y-163806181D01*
X137051084Y-163750247D01*
X137116548Y-163725830D01*
X137184821Y-163740681D01*
X137213076Y-163761833D01*
X137263636Y-163812393D01*
X137263641Y-163812397D01*
X137419192Y-163925410D01*
X137441978Y-163941965D01*
X137558501Y-164001337D01*
X137638393Y-164042045D01*
X137638396Y-164042046D01*
X137743221Y-164076105D01*
X137848049Y-164110165D01*
X138065778Y-164144650D01*
X138065779Y-164144650D01*
X138286221Y-164144650D01*
X138286222Y-164144650D01*
X138503951Y-164110165D01*
X138713606Y-164042045D01*
X138910022Y-163941965D01*
X139088365Y-163812392D01*
X139244242Y-163656515D01*
X139373815Y-163478172D01*
X139473895Y-163281756D01*
X139542015Y-163072101D01*
X139576500Y-162854372D01*
X139576500Y-162633928D01*
X139555084Y-162498716D01*
X139564038Y-162429426D01*
X139589873Y-162391643D01*
X147224411Y-154757104D01*
X147285732Y-154723621D01*
X147355424Y-154728605D01*
X147399771Y-154757106D01*
X147539586Y-154896921D01*
X147685455Y-155002899D01*
X147705190Y-155017237D01*
X147821407Y-155076453D01*
X147887576Y-155110168D01*
X147887578Y-155110168D01*
X147887581Y-155110170D01*
X147991937Y-155144077D01*
X148082265Y-155173427D01*
X148183357Y-155189438D01*
X148284448Y-155205450D01*
X148284449Y-155205450D01*
X148489151Y-155205450D01*
X148489152Y-155205450D01*
X148691334Y-155173427D01*
X148886019Y-155110170D01*
X149068410Y-155017237D01*
X149161390Y-154949682D01*
X149234013Y-154896921D01*
X149234015Y-154896918D01*
X149234019Y-154896916D01*
X149378766Y-154752169D01*
X149378768Y-154752165D01*
X149378771Y-154752163D01*
X149448404Y-154656320D01*
X149499087Y-154586560D01*
X149592020Y-154404169D01*
X149655277Y-154209484D01*
X149687300Y-154007302D01*
X149687300Y-153802598D01*
X149663162Y-153650198D01*
X160294300Y-153650198D01*
X160294300Y-153854901D01*
X160326322Y-154057084D01*
X160389581Y-154251773D01*
X160482515Y-154434163D01*
X160602828Y-154599763D01*
X160747586Y-154744521D01*
X160902549Y-154857106D01*
X160913190Y-154864837D01*
X161003464Y-154910834D01*
X161095576Y-154957768D01*
X161095578Y-154957768D01*
X161095581Y-154957770D01*
X161199937Y-154991677D01*
X161290265Y-155021027D01*
X161391357Y-155037038D01*
X161492448Y-155053050D01*
X161492449Y-155053050D01*
X161697151Y-155053050D01*
X161697152Y-155053050D01*
X161899334Y-155021027D01*
X162094019Y-154957770D01*
X162276410Y-154864837D01*
X162422217Y-154758903D01*
X162442013Y-154744521D01*
X162442015Y-154744518D01*
X162442019Y-154744516D01*
X162586766Y-154599769D01*
X162602079Y-154578693D01*
X162619900Y-154554165D01*
X162675229Y-154511499D01*
X162720218Y-154503050D01*
X164331370Y-154503050D01*
X164398409Y-154522735D01*
X164419051Y-154539369D01*
X169691352Y-159811669D01*
X169724837Y-159872992D01*
X169719853Y-159942684D01*
X169677981Y-159998617D01*
X169612517Y-160023034D01*
X169603671Y-160023350D01*
X168876555Y-160023350D01*
X168817027Y-160029751D01*
X168817020Y-160029753D01*
X168682313Y-160079995D01*
X168682306Y-160079999D01*
X168567212Y-160166159D01*
X168567209Y-160166162D01*
X168481049Y-160281256D01*
X168481045Y-160281263D01*
X168430803Y-160415970D01*
X168430801Y-160415977D01*
X168424400Y-160475505D01*
X168424400Y-161173350D01*
X169449122Y-161173350D01*
X169405067Y-161249656D01*
X169374400Y-161364106D01*
X169374400Y-161482594D01*
X169405067Y-161597044D01*
X169449122Y-161673350D01*
X168424400Y-161673350D01*
X168424400Y-162371194D01*
X168430801Y-162430722D01*
X168430803Y-162430729D01*
X168481045Y-162565436D01*
X168481049Y-162565443D01*
X168567209Y-162680537D01*
X168567212Y-162680540D01*
X168682306Y-162766700D01*
X168682313Y-162766704D01*
X168817020Y-162816946D01*
X168817027Y-162816948D01*
X168876555Y-162823349D01*
X168876572Y-162823350D01*
X169574400Y-162823350D01*
X169574400Y-161798627D01*
X169650706Y-161842683D01*
X169765156Y-161873350D01*
X169883644Y-161873350D01*
X169998094Y-161842683D01*
X170074400Y-161798627D01*
X170074400Y-162823350D01*
X170772228Y-162823350D01*
X170772244Y-162823349D01*
X170831772Y-162816948D01*
X170831779Y-162816946D01*
X170966486Y-162766704D01*
X170966493Y-162766700D01*
X171081587Y-162680540D01*
X171081590Y-162680537D01*
X171167750Y-162565443D01*
X171167754Y-162565436D01*
X171197613Y-162485381D01*
X171239484Y-162429447D01*
X171304948Y-162405030D01*
X171373221Y-162419881D01*
X171401476Y-162441033D01*
X171452036Y-162491593D01*
X171452041Y-162491597D01*
X171607592Y-162604610D01*
X171630378Y-162621165D01*
X171746901Y-162680537D01*
X171826793Y-162721245D01*
X171826796Y-162721246D01*
X171931621Y-162755305D01*
X172036449Y-162789365D01*
X172254178Y-162823850D01*
X172254179Y-162823850D01*
X172474621Y-162823850D01*
X172474622Y-162823850D01*
X172692351Y-162789365D01*
X172902006Y-162721245D01*
X173098422Y-162621165D01*
X173276765Y-162491592D01*
X173432642Y-162335715D01*
X173562215Y-162157372D01*
X173662295Y-161960956D01*
X173730415Y-161751301D01*
X173764900Y-161533572D01*
X173764900Y-161313128D01*
X173754847Y-161249656D01*
X173748705Y-161210874D01*
X173733601Y-161115515D01*
X173730415Y-161095399D01*
X173696355Y-160990571D01*
X173662296Y-160885746D01*
X173662295Y-160885743D01*
X173621911Y-160806486D01*
X173562215Y-160689328D01*
X173523877Y-160636560D01*
X173432647Y-160510991D01*
X173432643Y-160510986D01*
X173276763Y-160355106D01*
X173276758Y-160355102D01*
X173098425Y-160225537D01*
X173098424Y-160225536D01*
X173098422Y-160225535D01*
X173035496Y-160193472D01*
X172902006Y-160125454D01*
X172902003Y-160125453D01*
X172692352Y-160057335D01*
X172539893Y-160033188D01*
X172531755Y-160031899D01*
X172474622Y-160022850D01*
X172254178Y-160022850D01*
X172254173Y-160022850D01*
X172118968Y-160044264D01*
X172049674Y-160035309D01*
X172011889Y-160009472D01*
X171918004Y-159915587D01*
X181007001Y-159915587D01*
X181007001Y-160148212D01*
X181043392Y-160377977D01*
X181115275Y-160599214D01*
X181220890Y-160806491D01*
X181278062Y-160885182D01*
X181278063Y-160885183D01*
X181827298Y-160335948D01*
X181843389Y-160374795D01*
X181922611Y-160493360D01*
X182023441Y-160594190D01*
X182142006Y-160673412D01*
X182180851Y-160689502D01*
X181631616Y-161238736D01*
X181710312Y-161295912D01*
X181917586Y-161401525D01*
X182138823Y-161473408D01*
X182368589Y-161509800D01*
X182601213Y-161509800D01*
X182830978Y-161473408D01*
X183052215Y-161401525D01*
X183259481Y-161295916D01*
X183259487Y-161295912D01*
X183338183Y-161238736D01*
X183338184Y-161238736D01*
X182788949Y-160689502D01*
X182827796Y-160673412D01*
X182946361Y-160594190D01*
X183047191Y-160493360D01*
X183126413Y-160374795D01*
X183142503Y-160335948D01*
X183691737Y-160885183D01*
X183691737Y-160885182D01*
X183748913Y-160806486D01*
X183748917Y-160806480D01*
X183854526Y-160599214D01*
X183926409Y-160377977D01*
X183962801Y-160148212D01*
X183962801Y-159915587D01*
X183927468Y-159692505D01*
X183927467Y-159692502D01*
X183926408Y-159685818D01*
X183923594Y-159677158D01*
X186234400Y-159677158D01*
X186234400Y-160146641D01*
X186257394Y-160321288D01*
X186264352Y-160374138D01*
X186267791Y-160386972D01*
X186323742Y-160595787D01*
X186411550Y-160807776D01*
X186411557Y-160807790D01*
X186526292Y-161006517D01*
X186665981Y-161188561D01*
X186665989Y-161188570D01*
X186828230Y-161350811D01*
X186828238Y-161350818D01*
X186828239Y-161350819D01*
X186859684Y-161374948D01*
X187010282Y-161490507D01*
X187010285Y-161490508D01*
X187010288Y-161490511D01*
X187209012Y-161605244D01*
X187209017Y-161605246D01*
X187209023Y-161605249D01*
X187269485Y-161630293D01*
X187421013Y-161693058D01*
X187642662Y-161752448D01*
X187870166Y-161782400D01*
X187870173Y-161782400D01*
X188099627Y-161782400D01*
X188099634Y-161782400D01*
X188327138Y-161752448D01*
X188548787Y-161693058D01*
X188760788Y-161605244D01*
X188959512Y-161490511D01*
X189141561Y-161350819D01*
X189141565Y-161350814D01*
X189141570Y-161350811D01*
X189303811Y-161188570D01*
X189303814Y-161188565D01*
X189303819Y-161188561D01*
X189443511Y-161006512D01*
X189558244Y-160807788D01*
X189629169Y-160636558D01*
X189656045Y-160596334D01*
X189773668Y-160478711D01*
X195949500Y-160478711D01*
X195949500Y-160721288D01*
X195981161Y-160961785D01*
X196043947Y-161196104D01*
X196136773Y-161420205D01*
X196136776Y-161420212D01*
X196258064Y-161630289D01*
X196258066Y-161630292D01*
X196258067Y-161630293D01*
X196405733Y-161822736D01*
X196405739Y-161822743D01*
X196577256Y-161994260D01*
X196577262Y-161994265D01*
X196769711Y-162141936D01*
X196979788Y-162263224D01*
X197203900Y-162356054D01*
X197438211Y-162418838D01*
X197606802Y-162441033D01*
X197678711Y-162450500D01*
X197678712Y-162450500D01*
X197921289Y-162450500D01*
X197993198Y-162441033D01*
X198161789Y-162418838D01*
X198396100Y-162356054D01*
X198620212Y-162263224D01*
X198830289Y-162141936D01*
X199022738Y-161994265D01*
X199194265Y-161822738D01*
X199341936Y-161630289D01*
X199463224Y-161420212D01*
X199556054Y-161196100D01*
X199618838Y-160961789D01*
X199650500Y-160721288D01*
X199650500Y-160478712D01*
X199618838Y-160238211D01*
X199556054Y-160003900D01*
X199463224Y-159779788D01*
X199341936Y-159569711D01*
X199261270Y-159464585D01*
X199194266Y-159377263D01*
X199194260Y-159377256D01*
X199022743Y-159205739D01*
X199022736Y-159205733D01*
X198830293Y-159058067D01*
X198830292Y-159058066D01*
X198830289Y-159058064D01*
X198620212Y-158936776D01*
X198620205Y-158936773D01*
X198396104Y-158843947D01*
X198161785Y-158781161D01*
X197921289Y-158749500D01*
X197921288Y-158749500D01*
X197678712Y-158749500D01*
X197678711Y-158749500D01*
X197438214Y-158781161D01*
X197203895Y-158843947D01*
X196979794Y-158936773D01*
X196979785Y-158936777D01*
X196769706Y-159058067D01*
X196577263Y-159205733D01*
X196577256Y-159205739D01*
X196405739Y-159377256D01*
X196405733Y-159377263D01*
X196258067Y-159569706D01*
X196136777Y-159779785D01*
X196136773Y-159779794D01*
X196043947Y-160003895D01*
X195981161Y-160238214D01*
X195949500Y-160478711D01*
X189773668Y-160478711D01*
X195213162Y-155039219D01*
X195274485Y-155005734D01*
X195300843Y-155002900D01*
X197262021Y-155002900D01*
X197262021Y-155002899D01*
X197535521Y-154972083D01*
X197803854Y-154910838D01*
X198063643Y-154819934D01*
X198311621Y-154700514D01*
X198544668Y-154554081D01*
X198759855Y-154382475D01*
X198954475Y-154187855D01*
X199126081Y-153972668D01*
X199272514Y-153739621D01*
X199391934Y-153491643D01*
X199482838Y-153231854D01*
X199544083Y-152963521D01*
X199574900Y-152690017D01*
X199574900Y-152414783D01*
X199544083Y-152141279D01*
X199482838Y-151872946D01*
X199482746Y-151872684D01*
X199455645Y-151795233D01*
X199391934Y-151613157D01*
X199272514Y-151365179D01*
X199126081Y-151132132D01*
X198954475Y-150916945D01*
X198759855Y-150722325D01*
X198544668Y-150550719D01*
X198311621Y-150404286D01*
X198311618Y-150404284D01*
X198063646Y-150284867D01*
X197803865Y-150193965D01*
X197803853Y-150193961D01*
X197535524Y-150132717D01*
X197535508Y-150132715D01*
X197262021Y-150101900D01*
X197262017Y-150101900D01*
X193186783Y-150101900D01*
X193186779Y-150101900D01*
X192913291Y-150132715D01*
X192913275Y-150132717D01*
X192644946Y-150193961D01*
X192644934Y-150193965D01*
X192385153Y-150284867D01*
X192137181Y-150404284D01*
X191904133Y-150550718D01*
X191688945Y-150722324D01*
X191494324Y-150916945D01*
X191322718Y-151132133D01*
X191176284Y-151365181D01*
X191056867Y-151613153D01*
X190965965Y-151872934D01*
X190965961Y-151872946D01*
X190904717Y-152141275D01*
X190904715Y-152141291D01*
X190873900Y-152414778D01*
X190873900Y-152690021D01*
X190904715Y-152963508D01*
X190904717Y-152963524D01*
X190965961Y-153231853D01*
X190965965Y-153231865D01*
X191056867Y-153491646D01*
X191176284Y-153739618D01*
X191272358Y-153892519D01*
X191291358Y-153959756D01*
X191270990Y-154026591D01*
X191255045Y-154046172D01*
X186665984Y-158635233D01*
X186665978Y-158635240D01*
X186596135Y-158726263D01*
X186578305Y-158749500D01*
X186526285Y-158817292D01*
X186411557Y-159016008D01*
X186411550Y-159016023D01*
X186323742Y-159228012D01*
X186302310Y-159308000D01*
X186283075Y-159379788D01*
X186264353Y-159449659D01*
X186264351Y-159449670D01*
X186234400Y-159677158D01*
X183923594Y-159677158D01*
X183854526Y-159464585D01*
X183748913Y-159257311D01*
X183691737Y-159178616D01*
X183691737Y-159178615D01*
X183142503Y-159727850D01*
X183126413Y-159689005D01*
X183047191Y-159570440D01*
X182946361Y-159469610D01*
X182827796Y-159390388D01*
X182788949Y-159374297D01*
X183338184Y-158825062D01*
X183338183Y-158825061D01*
X183259492Y-158767889D01*
X183052215Y-158662274D01*
X182830978Y-158590391D01*
X182601213Y-158554000D01*
X182368589Y-158554000D01*
X182138823Y-158590391D01*
X181917586Y-158662274D01*
X181710316Y-158767885D01*
X181631617Y-158825062D01*
X182180852Y-159374297D01*
X182142006Y-159390388D01*
X182023441Y-159469610D01*
X181922611Y-159570440D01*
X181843389Y-159689005D01*
X181827298Y-159727851D01*
X181278063Y-159178616D01*
X181220886Y-159257315D01*
X181115275Y-159464585D01*
X181043392Y-159685822D01*
X181007001Y-159915587D01*
X171918004Y-159915587D01*
X170962419Y-158960002D01*
X165172021Y-153169602D01*
X165172020Y-153169601D01*
X165157929Y-153160186D01*
X165078235Y-153106937D01*
X165049095Y-153087466D01*
X165049093Y-153087465D01*
X165049090Y-153087463D01*
X164912517Y-153030893D01*
X164912507Y-153030890D01*
X164767520Y-153002050D01*
X164767518Y-153002050D01*
X162720218Y-153002050D01*
X162653179Y-152982365D01*
X162619900Y-152950935D01*
X162586771Y-152905337D01*
X162586767Y-152905332D01*
X162442013Y-152760578D01*
X162276413Y-152640265D01*
X162276412Y-152640264D01*
X162276410Y-152640263D01*
X162206123Y-152604450D01*
X162094023Y-152547331D01*
X161899334Y-152484072D01*
X161724795Y-152456428D01*
X161697152Y-152452050D01*
X161492448Y-152452050D01*
X161468129Y-152455901D01*
X161290265Y-152484072D01*
X161095576Y-152547331D01*
X160913186Y-152640265D01*
X160747586Y-152760578D01*
X160602828Y-152905336D01*
X160482515Y-153070936D01*
X160389581Y-153253326D01*
X160326322Y-153448015D01*
X160294300Y-153650198D01*
X149663162Y-153650198D01*
X149655277Y-153600416D01*
X149592020Y-153405731D01*
X149592018Y-153405728D01*
X149592018Y-153405726D01*
X149549356Y-153321998D01*
X149499087Y-153223340D01*
X149469990Y-153183291D01*
X149378771Y-153057736D01*
X149234013Y-152912978D01*
X149068413Y-152792665D01*
X149068412Y-152792664D01*
X149068410Y-152792663D01*
X149006827Y-152761285D01*
X148886023Y-152699731D01*
X148691334Y-152636472D01*
X148516795Y-152608828D01*
X148489152Y-152604450D01*
X148284448Y-152604450D01*
X148260129Y-152608301D01*
X148082265Y-152636472D01*
X147887576Y-152699731D01*
X147705186Y-152792665D01*
X147539586Y-152912978D01*
X147394832Y-153057732D01*
X147394828Y-153057737D01*
X147361700Y-153103335D01*
X147306371Y-153146001D01*
X147261382Y-153154450D01*
X146941276Y-153154450D01*
X146912442Y-153160184D01*
X146912443Y-153160185D01*
X146796293Y-153183289D01*
X146796283Y-153183292D01*
X146716281Y-153216429D01*
X146716282Y-153216430D01*
X146699601Y-153223340D01*
X146659705Y-153239866D01*
X146583001Y-153291118D01*
X146536782Y-153321999D01*
X146536779Y-153322002D01*
X138528508Y-161330272D01*
X138467185Y-161363757D01*
X138421429Y-161365064D01*
X138286227Y-161343650D01*
X138286222Y-161343650D01*
X138065778Y-161343650D01*
X138020515Y-161350819D01*
X137848047Y-161378135D01*
X137638396Y-161446253D01*
X137638393Y-161446254D01*
X137441974Y-161546337D01*
X137263641Y-161675902D01*
X137263636Y-161675906D01*
X137213075Y-161726467D01*
X137151752Y-161759951D01*
X137082060Y-161754966D01*
X137026127Y-161713095D01*
X137009213Y-161682118D01*
X136979354Y-161602063D01*
X136979350Y-161602056D01*
X136893190Y-161486962D01*
X136893187Y-161486959D01*
X136778093Y-161400799D01*
X136778086Y-161400795D01*
X136643379Y-161350553D01*
X136643372Y-161350551D01*
X136583844Y-161344150D01*
X135886000Y-161344150D01*
X135886000Y-162368872D01*
X135809694Y-162324817D01*
X135695244Y-162294150D01*
X135576756Y-162294150D01*
X135462306Y-162324817D01*
X135386000Y-162368872D01*
X135386000Y-161344150D01*
X134688155Y-161344150D01*
X134628627Y-161350551D01*
X134628620Y-161350553D01*
X134493913Y-161400795D01*
X134493906Y-161400799D01*
X134378812Y-161486959D01*
X134378809Y-161486962D01*
X134292649Y-161602056D01*
X134292645Y-161602063D01*
X134242403Y-161736770D01*
X134242401Y-161736777D01*
X134236000Y-161796305D01*
X92736119Y-161796305D01*
X92830289Y-161741936D01*
X93022738Y-161594265D01*
X93194265Y-161422738D01*
X93341936Y-161230289D01*
X93463224Y-161020212D01*
X93556054Y-160796100D01*
X93618838Y-160561789D01*
X93650500Y-160321288D01*
X93650500Y-160078712D01*
X93618838Y-159838211D01*
X93556054Y-159603900D01*
X93463224Y-159379788D01*
X93341936Y-159169711D01*
X93194265Y-158977262D01*
X93194260Y-158977256D01*
X93022743Y-158805739D01*
X93022736Y-158805733D01*
X92830293Y-158658067D01*
X92830292Y-158658066D01*
X92830289Y-158658064D01*
X92620212Y-158536776D01*
X92620205Y-158536773D01*
X92396104Y-158443947D01*
X92161785Y-158381161D01*
X91921289Y-158349500D01*
X91921288Y-158349500D01*
X91678712Y-158349500D01*
X91678711Y-158349500D01*
X91438214Y-158381161D01*
X91203895Y-158443947D01*
X90979794Y-158536773D01*
X90979785Y-158536777D01*
X90769706Y-158658067D01*
X90577263Y-158805733D01*
X90577256Y-158805739D01*
X90405739Y-158977256D01*
X90405733Y-158977263D01*
X90258067Y-159169706D01*
X90136777Y-159379785D01*
X90136773Y-159379794D01*
X90043947Y-159603895D01*
X89981161Y-159838214D01*
X89949500Y-160078711D01*
X84269700Y-160078711D01*
X84269700Y-145062670D01*
X101890099Y-145062670D01*
X101918940Y-145207657D01*
X101918943Y-145207667D01*
X101970359Y-145331796D01*
X101975516Y-145344245D01*
X101995652Y-145374381D01*
X102005586Y-145389249D01*
X102057649Y-145467168D01*
X102057652Y-145467171D01*
X105316922Y-148726439D01*
X105350407Y-148787762D01*
X105351714Y-148833518D01*
X105330300Y-148968722D01*
X105330300Y-149189171D01*
X105364785Y-149406902D01*
X105432903Y-149616553D01*
X105432904Y-149616556D01*
X105532987Y-149812975D01*
X105662552Y-149991308D01*
X105662556Y-149991313D01*
X105712728Y-150041485D01*
X105746213Y-150102808D01*
X105741229Y-150172500D01*
X105699357Y-150228433D01*
X105668381Y-150245348D01*
X105588469Y-150275153D01*
X105588464Y-150275156D01*
X105473255Y-150361402D01*
X105473252Y-150361405D01*
X105387006Y-150476614D01*
X105387002Y-150476621D01*
X105336708Y-150611467D01*
X105330301Y-150671066D01*
X105330301Y-150671073D01*
X105330300Y-150671085D01*
X105330300Y-152566820D01*
X105330301Y-152566826D01*
X105336708Y-152626433D01*
X105387002Y-152761278D01*
X105387006Y-152761285D01*
X105473252Y-152876494D01*
X105473255Y-152876497D01*
X105588464Y-152962743D01*
X105588471Y-152962747D01*
X105723317Y-153013041D01*
X105723316Y-153013041D01*
X105730244Y-153013785D01*
X105782927Y-153019450D01*
X107678672Y-153019449D01*
X107738283Y-153013041D01*
X107873131Y-152962746D01*
X107988346Y-152876496D01*
X108074596Y-152761281D01*
X108124891Y-152626433D01*
X108131300Y-152566823D01*
X108131300Y-152493450D01*
X108150985Y-152426411D01*
X108203789Y-152380656D01*
X108255300Y-152369450D01*
X118190050Y-152369450D01*
X118257089Y-152389135D01*
X118284332Y-152412908D01*
X118286436Y-152415371D01*
X118431186Y-152560121D01*
X118586149Y-152672706D01*
X118596790Y-152680437D01*
X118673167Y-152719353D01*
X118779176Y-152773368D01*
X118779178Y-152773368D01*
X118779181Y-152773370D01*
X118838559Y-152792663D01*
X118973865Y-152836627D01*
X119074957Y-152852638D01*
X119176048Y-152868650D01*
X119176049Y-152868650D01*
X119380751Y-152868650D01*
X119380752Y-152868650D01*
X119582934Y-152836627D01*
X119777619Y-152773370D01*
X119960010Y-152680437D01*
X120086714Y-152588382D01*
X120125613Y-152560121D01*
X120125615Y-152560118D01*
X120125619Y-152560116D01*
X120270366Y-152415369D01*
X120270368Y-152415365D01*
X120270371Y-152415363D01*
X120341226Y-152317838D01*
X120390687Y-152249760D01*
X120483620Y-152067369D01*
X120546877Y-151872684D01*
X120578900Y-151670502D01*
X120578900Y-151465798D01*
X120546877Y-151263616D01*
X120483620Y-151068931D01*
X120483618Y-151068928D01*
X120483618Y-151068926D01*
X120449903Y-151002757D01*
X120390687Y-150886540D01*
X120377544Y-150868450D01*
X120270371Y-150720936D01*
X120125613Y-150576178D01*
X119960013Y-150455865D01*
X119960012Y-150455864D01*
X119960010Y-150455863D01*
X119858781Y-150404284D01*
X119777623Y-150362931D01*
X119582934Y-150299672D01*
X119408395Y-150272028D01*
X119380752Y-150267650D01*
X119176048Y-150267650D01*
X119151729Y-150271501D01*
X118973865Y-150299672D01*
X118779176Y-150362931D01*
X118596786Y-150455865D01*
X118431186Y-150576178D01*
X118286430Y-150720934D01*
X118216394Y-150817334D01*
X118161064Y-150860001D01*
X118116075Y-150868450D01*
X108255299Y-150868450D01*
X108188260Y-150848765D01*
X108142505Y-150795961D01*
X108131299Y-150744450D01*
X108131299Y-150671079D01*
X108131298Y-150671073D01*
X108131297Y-150671066D01*
X108124891Y-150611467D01*
X108111731Y-150576184D01*
X108074597Y-150476621D01*
X108074593Y-150476614D01*
X107988347Y-150361405D01*
X107988344Y-150361402D01*
X107873135Y-150275156D01*
X107873128Y-150275152D01*
X107793219Y-150245348D01*
X107737285Y-150203477D01*
X107712868Y-150138012D01*
X107727720Y-150069739D01*
X107748869Y-150041487D01*
X107799042Y-149991315D01*
X107928615Y-149812972D01*
X108028695Y-149616556D01*
X108096815Y-149406901D01*
X108131300Y-149189172D01*
X108131300Y-148968728D01*
X108096815Y-148750999D01*
X108028695Y-148541344D01*
X108028695Y-148541343D01*
X107994037Y-148473325D01*
X107928615Y-148344928D01*
X107912060Y-148322142D01*
X107799047Y-148166591D01*
X107799043Y-148166586D01*
X107643163Y-148010706D01*
X107643158Y-148010702D01*
X107464825Y-147881137D01*
X107464824Y-147881136D01*
X107464822Y-147881135D01*
X107401896Y-147849072D01*
X107268406Y-147781054D01*
X107268403Y-147781053D01*
X107058752Y-147712935D01*
X106949886Y-147695692D01*
X106841022Y-147678450D01*
X106620578Y-147678450D01*
X106620573Y-147678450D01*
X106485368Y-147699864D01*
X106416074Y-147690909D01*
X106378289Y-147665072D01*
X105473284Y-146760067D01*
X105390469Y-146677252D01*
X133373500Y-146677252D01*
X133373500Y-146913447D01*
X133410446Y-147146718D01*
X133483433Y-147371346D01*
X133506829Y-147417262D01*
X133590657Y-147581783D01*
X133729483Y-147772860D01*
X133896490Y-147939867D01*
X134072386Y-148067663D01*
X134115051Y-148122993D01*
X134123500Y-148167981D01*
X134123500Y-151922718D01*
X134103815Y-151989757D01*
X134072386Y-152023036D01*
X133896488Y-152150834D01*
X133729485Y-152317837D01*
X133729485Y-152317838D01*
X133729483Y-152317840D01*
X133696125Y-152363753D01*
X133590657Y-152508916D01*
X133483433Y-152719353D01*
X133410446Y-152943981D01*
X133373500Y-153177252D01*
X133373500Y-153413447D01*
X133410446Y-153646718D01*
X133483433Y-153871346D01*
X133552707Y-154007302D01*
X133590657Y-154081783D01*
X133729483Y-154272860D01*
X133896490Y-154439867D01*
X134087567Y-154578693D01*
X134186991Y-154629352D01*
X134298003Y-154685916D01*
X134298005Y-154685916D01*
X134298008Y-154685918D01*
X134414046Y-154723621D01*
X134522631Y-154758903D01*
X134755903Y-154795850D01*
X134755908Y-154795850D01*
X134992097Y-154795850D01*
X135225368Y-154758903D01*
X135246093Y-154752169D01*
X135449992Y-154685918D01*
X135660433Y-154578693D01*
X135851510Y-154439867D01*
X136018517Y-154272860D01*
X136157343Y-154081783D01*
X136264568Y-153871342D01*
X136337553Y-153646718D01*
X136374500Y-153413447D01*
X136374500Y-153177252D01*
X136337553Y-152943981D01*
X136288386Y-152792663D01*
X136264568Y-152719358D01*
X136264566Y-152719355D01*
X136264566Y-152719353D01*
X136197832Y-152588381D01*
X136157343Y-152508917D01*
X136018517Y-152317840D01*
X135851510Y-152150833D01*
X135736632Y-152067369D01*
X135675614Y-152023036D01*
X135632949Y-151967705D01*
X135624500Y-151922718D01*
X135624500Y-148167981D01*
X135644185Y-148100942D01*
X135675614Y-148067663D01*
X135851510Y-147939867D01*
X136018517Y-147772860D01*
X136157343Y-147581783D01*
X136264568Y-147371342D01*
X136337553Y-147146718D01*
X136358297Y-147015746D01*
X136374500Y-146913447D01*
X136374500Y-146681941D01*
X136374500Y-146677258D01*
X136374499Y-146677252D01*
X137873500Y-146677252D01*
X137873500Y-146913447D01*
X137910446Y-147146718D01*
X137983433Y-147371346D01*
X138006829Y-147417262D01*
X138090657Y-147581783D01*
X138229483Y-147772860D01*
X138396490Y-147939867D01*
X138572386Y-148067663D01*
X138615051Y-148122993D01*
X138623500Y-148167981D01*
X138623500Y-151922718D01*
X138603815Y-151989757D01*
X138572386Y-152023036D01*
X138396488Y-152150834D01*
X138229485Y-152317837D01*
X138229485Y-152317838D01*
X138229483Y-152317840D01*
X138196125Y-152363753D01*
X138090657Y-152508916D01*
X137983433Y-152719353D01*
X137910446Y-152943981D01*
X137873500Y-153177252D01*
X137873500Y-153413447D01*
X137910446Y-153646718D01*
X137983433Y-153871346D01*
X138052707Y-154007302D01*
X138090657Y-154081783D01*
X138229483Y-154272860D01*
X138396490Y-154439867D01*
X138587567Y-154578693D01*
X138686991Y-154629352D01*
X138798003Y-154685916D01*
X138798005Y-154685916D01*
X138798008Y-154685918D01*
X138914046Y-154723621D01*
X139022631Y-154758903D01*
X139255903Y-154795850D01*
X139255908Y-154795850D01*
X139492097Y-154795850D01*
X139725368Y-154758903D01*
X139746093Y-154752169D01*
X139949992Y-154685918D01*
X140160433Y-154578693D01*
X140351510Y-154439867D01*
X140518517Y-154272860D01*
X140657343Y-154081783D01*
X140764568Y-153871342D01*
X140837553Y-153646718D01*
X140874500Y-153413447D01*
X140874500Y-153177252D01*
X140837553Y-152943981D01*
X140788386Y-152792663D01*
X140764568Y-152719358D01*
X140764566Y-152719355D01*
X140764566Y-152719353D01*
X140697832Y-152588381D01*
X140657343Y-152508917D01*
X140518517Y-152317840D01*
X140351510Y-152150833D01*
X140236632Y-152067369D01*
X140175614Y-152023036D01*
X140132949Y-151967705D01*
X140124500Y-151922718D01*
X140124500Y-148167981D01*
X140144185Y-148100942D01*
X140175614Y-148067663D01*
X140351510Y-147939867D01*
X140518517Y-147772860D01*
X140657343Y-147581783D01*
X140764568Y-147371342D01*
X140837553Y-147146718D01*
X140858297Y-147015746D01*
X140874500Y-146913447D01*
X140874500Y-146677252D01*
X140837553Y-146443981D01*
X140764566Y-146219353D01*
X140657342Y-146008916D01*
X140518517Y-145817840D01*
X140351510Y-145650833D01*
X140160433Y-145512007D01*
X139949996Y-145404783D01*
X139725368Y-145331796D01*
X139492097Y-145294850D01*
X139492092Y-145294850D01*
X139255908Y-145294850D01*
X139255903Y-145294850D01*
X139022631Y-145331796D01*
X138798003Y-145404783D01*
X138587566Y-145512007D01*
X138478550Y-145591212D01*
X138396490Y-145650833D01*
X138396488Y-145650835D01*
X138396487Y-145650835D01*
X138229485Y-145817837D01*
X138229485Y-145817838D01*
X138229483Y-145817840D01*
X138196125Y-145863753D01*
X138090657Y-146008916D01*
X137983433Y-146219353D01*
X137910446Y-146443981D01*
X137873500Y-146677252D01*
X136374499Y-146677252D01*
X136340424Y-146462109D01*
X136344987Y-146427696D01*
X136349442Y-146393222D01*
X136349586Y-146393010D01*
X136349608Y-146392848D01*
X136350072Y-146392299D01*
X136375277Y-146355439D01*
X138758951Y-143971766D01*
X138841084Y-143848845D01*
X138897658Y-143712263D01*
X138911516Y-143642598D01*
X138926500Y-143567270D01*
X138926500Y-125507554D01*
X138935939Y-125460101D01*
X138937682Y-125455893D01*
X138945737Y-125436447D01*
X138976500Y-125281792D01*
X138976500Y-125124108D01*
X138976500Y-125124105D01*
X138976499Y-125124103D01*
X138963949Y-125061009D01*
X138945737Y-124969453D01*
X138945735Y-124969448D01*
X138885397Y-124823777D01*
X138885390Y-124823764D01*
X138797789Y-124692661D01*
X138797786Y-124692657D01*
X138686292Y-124581163D01*
X138686288Y-124581160D01*
X138555185Y-124493559D01*
X138555172Y-124493552D01*
X138409501Y-124433214D01*
X138409489Y-124433211D01*
X138254845Y-124402450D01*
X138254842Y-124402450D01*
X138097158Y-124402450D01*
X138097155Y-124402450D01*
X137942510Y-124433211D01*
X137942498Y-124433214D01*
X137796827Y-124493552D01*
X137796814Y-124493559D01*
X137665711Y-124581160D01*
X137665707Y-124581163D01*
X137554213Y-124692657D01*
X137554210Y-124692661D01*
X137466609Y-124823764D01*
X137466602Y-124823777D01*
X137406264Y-124969448D01*
X137406261Y-124969460D01*
X137375500Y-125124103D01*
X137375500Y-125281796D01*
X137406261Y-125436439D01*
X137406263Y-125436447D01*
X137416061Y-125460101D01*
X137425500Y-125507554D01*
X137425500Y-143131119D01*
X137405815Y-143198158D01*
X137389181Y-143218800D01*
X135313911Y-145294069D01*
X135252588Y-145327554D01*
X135206832Y-145328861D01*
X134992097Y-145294850D01*
X134992092Y-145294850D01*
X134755908Y-145294850D01*
X134755903Y-145294850D01*
X134522631Y-145331796D01*
X134298003Y-145404783D01*
X134087566Y-145512007D01*
X133978550Y-145591212D01*
X133896490Y-145650833D01*
X133896488Y-145650835D01*
X133896487Y-145650835D01*
X133729485Y-145817837D01*
X133729485Y-145817838D01*
X133729483Y-145817840D01*
X133696125Y-145863753D01*
X133590657Y-146008916D01*
X133483433Y-146219353D01*
X133410446Y-146443981D01*
X133373500Y-146677252D01*
X105390469Y-146677252D01*
X104801599Y-146088382D01*
X103427419Y-144714201D01*
X103393934Y-144652878D01*
X103391100Y-144626520D01*
X103391100Y-134902128D01*
X105736700Y-134902128D01*
X105736700Y-135122571D01*
X105771185Y-135340302D01*
X105839303Y-135549953D01*
X105839304Y-135549956D01*
X105939387Y-135746375D01*
X106068952Y-135924708D01*
X106068956Y-135924713D01*
X106119128Y-135974885D01*
X106152613Y-136036208D01*
X106147629Y-136105900D01*
X106105757Y-136161833D01*
X106074781Y-136178748D01*
X105994869Y-136208553D01*
X105994864Y-136208556D01*
X105879655Y-136294802D01*
X105879652Y-136294805D01*
X105793406Y-136410014D01*
X105793402Y-136410021D01*
X105743108Y-136544867D01*
X105736701Y-136604466D01*
X105736701Y-136604473D01*
X105736700Y-136604485D01*
X105736700Y-138500220D01*
X105736701Y-138500226D01*
X105743108Y-138559833D01*
X105793402Y-138694678D01*
X105793406Y-138694685D01*
X105879652Y-138809894D01*
X105879655Y-138809897D01*
X105994864Y-138896143D01*
X105994871Y-138896147D01*
X106129717Y-138946441D01*
X106129716Y-138946441D01*
X106136644Y-138947185D01*
X106189327Y-138952850D01*
X108085072Y-138952849D01*
X108144683Y-138946441D01*
X108279531Y-138896146D01*
X108394746Y-138809896D01*
X108480996Y-138694681D01*
X108531291Y-138559833D01*
X108537700Y-138500223D01*
X108537700Y-138426850D01*
X108557385Y-138359811D01*
X108610189Y-138314056D01*
X108661700Y-138302850D01*
X110742370Y-138302850D01*
X110809409Y-138322535D01*
X110830051Y-138339169D01*
X113837126Y-141346244D01*
X113870611Y-141407567D01*
X113871918Y-141453322D01*
X113863100Y-141508997D01*
X113863100Y-141713701D01*
X113895122Y-141915884D01*
X113958381Y-142110573D01*
X114022291Y-142236003D01*
X114050849Y-142292050D01*
X114051315Y-142292963D01*
X114171628Y-142458563D01*
X114316386Y-142603321D01*
X114461362Y-142708650D01*
X114481990Y-142723637D01*
X114598207Y-142782853D01*
X114664376Y-142816568D01*
X114664378Y-142816568D01*
X114664381Y-142816570D01*
X114768737Y-142850477D01*
X114859065Y-142879827D01*
X114960157Y-142895838D01*
X115061248Y-142911850D01*
X115061249Y-142911850D01*
X115265951Y-142911850D01*
X115265952Y-142911850D01*
X115468134Y-142879827D01*
X115662819Y-142816570D01*
X115845210Y-142723637D01*
X115939454Y-142655165D01*
X116010813Y-142603321D01*
X116010815Y-142603318D01*
X116010819Y-142603316D01*
X116155566Y-142458569D01*
X116155568Y-142458565D01*
X116155571Y-142458563D01*
X116253282Y-142324073D01*
X116275887Y-142292960D01*
X116368820Y-142110569D01*
X116432077Y-141915884D01*
X116464100Y-141713702D01*
X116464100Y-141508998D01*
X116432077Y-141306816D01*
X116431746Y-141305798D01*
X116368818Y-141112126D01*
X116335103Y-141045957D01*
X116275887Y-140929740D01*
X116268156Y-140919099D01*
X116155571Y-140764136D01*
X116010813Y-140619378D01*
X115845213Y-140499065D01*
X115845212Y-140499064D01*
X115845210Y-140499063D01*
X115788253Y-140470041D01*
X115662823Y-140406131D01*
X115468134Y-140342872D01*
X115293595Y-140315228D01*
X115265952Y-140310850D01*
X115061248Y-140310850D01*
X115005572Y-140319668D01*
X114936279Y-140310713D01*
X114898494Y-140284876D01*
X111583021Y-136969402D01*
X111583014Y-136969396D01*
X111509329Y-136920162D01*
X111509329Y-136920163D01*
X111460091Y-136887263D01*
X111323517Y-136830693D01*
X111323507Y-136830690D01*
X111178520Y-136801850D01*
X111178518Y-136801850D01*
X108661699Y-136801850D01*
X108594660Y-136782165D01*
X108548905Y-136729361D01*
X108537699Y-136677850D01*
X108537699Y-136604479D01*
X108537698Y-136604473D01*
X108537697Y-136604466D01*
X108531291Y-136544867D01*
X108480996Y-136410019D01*
X108480995Y-136410018D01*
X108480993Y-136410014D01*
X108394747Y-136294805D01*
X108394744Y-136294802D01*
X108279535Y-136208556D01*
X108279528Y-136208552D01*
X108199619Y-136178748D01*
X108143685Y-136136877D01*
X108119268Y-136071412D01*
X108134120Y-136003139D01*
X108155269Y-135974887D01*
X108205442Y-135924715D01*
X108335015Y-135746372D01*
X108435095Y-135549956D01*
X108503215Y-135340301D01*
X108537700Y-135122572D01*
X108537700Y-134902128D01*
X108503215Y-134684399D01*
X108435095Y-134474744D01*
X108435095Y-134474743D01*
X108382562Y-134371643D01*
X108335015Y-134278328D01*
X108256440Y-134170178D01*
X108205447Y-134099991D01*
X108205443Y-134099986D01*
X108049563Y-133944106D01*
X108049558Y-133944102D01*
X107871225Y-133814537D01*
X107871224Y-133814536D01*
X107871222Y-133814535D01*
X107808296Y-133782472D01*
X107674806Y-133714454D01*
X107674803Y-133714453D01*
X107465152Y-133646335D01*
X107356286Y-133629092D01*
X107247422Y-133611850D01*
X107026978Y-133611850D01*
X106954401Y-133623345D01*
X106809247Y-133646335D01*
X106599596Y-133714453D01*
X106599593Y-133714454D01*
X106403174Y-133814537D01*
X106224841Y-133944102D01*
X106224836Y-133944106D01*
X106068956Y-134099986D01*
X106068952Y-134099991D01*
X105939387Y-134278324D01*
X105839304Y-134474743D01*
X105839303Y-134474746D01*
X105771185Y-134684397D01*
X105736700Y-134902128D01*
X103391100Y-134902128D01*
X103391100Y-124437449D01*
X103410785Y-124370410D01*
X103463589Y-124324655D01*
X103515100Y-124313449D01*
X105439471Y-124313449D01*
X105439472Y-124313449D01*
X105499083Y-124307041D01*
X105633931Y-124256746D01*
X105633935Y-124256742D01*
X105641718Y-124252494D01*
X105643118Y-124255059D01*
X105694743Y-124235789D01*
X105763020Y-124250624D01*
X105791302Y-124271790D01*
X113553808Y-132034297D01*
X113553815Y-132034303D01*
X113617961Y-132077163D01*
X113617963Y-132077164D01*
X113617966Y-132077166D01*
X113676735Y-132116434D01*
X113676736Y-132116434D01*
X113676737Y-132116435D01*
X113747708Y-132145832D01*
X113813317Y-132173008D01*
X113813321Y-132173008D01*
X113813322Y-132173009D01*
X113958309Y-132201850D01*
X113958312Y-132201850D01*
X113958313Y-132201850D01*
X114038182Y-132201850D01*
X114105221Y-132221535D01*
X114138500Y-132252965D01*
X114171628Y-132298562D01*
X114171632Y-132298567D01*
X114316386Y-132443321D01*
X114445250Y-132536944D01*
X114481990Y-132563637D01*
X114598207Y-132622853D01*
X114664376Y-132656568D01*
X114664378Y-132656568D01*
X114664381Y-132656570D01*
X114768737Y-132690477D01*
X114859065Y-132719827D01*
X114943164Y-132733147D01*
X115061248Y-132751850D01*
X115061249Y-132751850D01*
X115265950Y-132751850D01*
X115265952Y-132751850D01*
X115321626Y-132743031D01*
X115390918Y-132751985D01*
X115428705Y-132777823D01*
X118491581Y-135840699D01*
X118525066Y-135902022D01*
X118527900Y-135928380D01*
X118527900Y-140282732D01*
X118508215Y-140349771D01*
X118476785Y-140383050D01*
X118431187Y-140416178D01*
X118431182Y-140416182D01*
X118286428Y-140560936D01*
X118166115Y-140726536D01*
X118073181Y-140908926D01*
X118009922Y-141103615D01*
X117977900Y-141305798D01*
X117977900Y-141510501D01*
X118009922Y-141712684D01*
X118073181Y-141907373D01*
X118166115Y-142089763D01*
X118286428Y-142255363D01*
X118431186Y-142400121D01*
X118586149Y-142512706D01*
X118596790Y-142520437D01*
X118713007Y-142579653D01*
X118779176Y-142613368D01*
X118779178Y-142613368D01*
X118779181Y-142613370D01*
X118838559Y-142632663D01*
X118973865Y-142676627D01*
X119074957Y-142692638D01*
X119176048Y-142708650D01*
X119176049Y-142708650D01*
X119380751Y-142708650D01*
X119380752Y-142708650D01*
X119582934Y-142676627D01*
X119777619Y-142613370D01*
X119960010Y-142520437D01*
X120080022Y-142433244D01*
X120125613Y-142400121D01*
X120125615Y-142400118D01*
X120125619Y-142400116D01*
X120270366Y-142255369D01*
X120270368Y-142255365D01*
X120270371Y-142255363D01*
X120323132Y-142182740D01*
X120390687Y-142089760D01*
X120483620Y-141907369D01*
X120546877Y-141712684D01*
X120578900Y-141510502D01*
X120578900Y-141305798D01*
X120546877Y-141103616D01*
X120483620Y-140908931D01*
X120483618Y-140908928D01*
X120483618Y-140908926D01*
X120449903Y-140842757D01*
X120390687Y-140726540D01*
X120382956Y-140715899D01*
X120270371Y-140560936D01*
X120125617Y-140416182D01*
X120125612Y-140416178D01*
X120080015Y-140383050D01*
X120037349Y-140327721D01*
X120028900Y-140282732D01*
X120028900Y-138511832D01*
X130322800Y-138511832D01*
X130322800Y-138716467D01*
X130354809Y-138918567D01*
X130418044Y-139113181D01*
X130510941Y-139295500D01*
X130510947Y-139295509D01*
X130543323Y-139340071D01*
X130543324Y-139340072D01*
X131222800Y-138660596D01*
X131222800Y-138666811D01*
X131250059Y-138768544D01*
X131302720Y-138859756D01*
X131377194Y-138934230D01*
X131468406Y-138986891D01*
X131570139Y-139014150D01*
X131576353Y-139014150D01*
X130896876Y-139693624D01*
X130941450Y-139726009D01*
X131123768Y-139818905D01*
X131318382Y-139882140D01*
X131520483Y-139914150D01*
X131725117Y-139914150D01*
X131927217Y-139882140D01*
X132121831Y-139818905D01*
X132304149Y-139726009D01*
X132348721Y-139693624D01*
X131669247Y-139014150D01*
X131675461Y-139014150D01*
X131777194Y-138986891D01*
X131868406Y-138934230D01*
X131942880Y-138859756D01*
X131995541Y-138768544D01*
X132022800Y-138666811D01*
X132022800Y-138660597D01*
X132702274Y-139340071D01*
X132734659Y-139295499D01*
X132827555Y-139113181D01*
X132890790Y-138918567D01*
X132922800Y-138716467D01*
X132922800Y-138511832D01*
X132890790Y-138309732D01*
X132827555Y-138115118D01*
X132734659Y-137932800D01*
X132702274Y-137888227D01*
X132702274Y-137888226D01*
X132022800Y-138567701D01*
X132022800Y-138561489D01*
X131995541Y-138459756D01*
X131942880Y-138368544D01*
X131868406Y-138294070D01*
X131777194Y-138241409D01*
X131675461Y-138214150D01*
X131669246Y-138214150D01*
X132348722Y-137534674D01*
X132348721Y-137534673D01*
X132304159Y-137502297D01*
X132304150Y-137502291D01*
X132121831Y-137409394D01*
X131927217Y-137346159D01*
X131725117Y-137314150D01*
X131520483Y-137314150D01*
X131318382Y-137346159D01*
X131123768Y-137409394D01*
X130941444Y-137502293D01*
X130896877Y-137534673D01*
X130896877Y-137534674D01*
X131576354Y-138214150D01*
X131570139Y-138214150D01*
X131468406Y-138241409D01*
X131377194Y-138294070D01*
X131302720Y-138368544D01*
X131250059Y-138459756D01*
X131222800Y-138561489D01*
X131222800Y-138567703D01*
X130543324Y-137888227D01*
X130543323Y-137888227D01*
X130510943Y-137932794D01*
X130418044Y-138115118D01*
X130354809Y-138309732D01*
X130322800Y-138511832D01*
X120028900Y-138511832D01*
X120028900Y-135492229D01*
X120000059Y-135347242D01*
X120000058Y-135347241D01*
X120000058Y-135347237D01*
X120000056Y-135347232D01*
X119943485Y-135210657D01*
X119884630Y-135122574D01*
X119884630Y-135122573D01*
X119876870Y-135110959D01*
X119861352Y-135087734D01*
X116490073Y-131716455D01*
X116456588Y-131655132D01*
X116455281Y-131609377D01*
X116464100Y-131553702D01*
X116464100Y-131348998D01*
X116432077Y-131146816D01*
X116368820Y-130952131D01*
X116368818Y-130952128D01*
X116368818Y-130952126D01*
X116304789Y-130826464D01*
X116275887Y-130769740D01*
X116241720Y-130722713D01*
X116155571Y-130604136D01*
X116010817Y-130459382D01*
X116010812Y-130459378D01*
X115929781Y-130400505D01*
X115929758Y-130400490D01*
X115845209Y-130339062D01*
X115776832Y-130304222D01*
X128643900Y-130304222D01*
X128643900Y-130566477D01*
X128656571Y-130662715D01*
X128678130Y-130826466D01*
X128732577Y-131029666D01*
X128746002Y-131079768D01*
X128746005Y-131079778D01*
X128846353Y-131322040D01*
X128846358Y-131322050D01*
X128977475Y-131549153D01*
X129137118Y-131757201D01*
X129137126Y-131757210D01*
X129322540Y-131942624D01*
X129322548Y-131942631D01*
X129530596Y-132102274D01*
X129757699Y-132233391D01*
X129757709Y-132233396D01*
X129999971Y-132333744D01*
X129999981Y-132333748D01*
X130253284Y-132401620D01*
X130513280Y-132435850D01*
X130513287Y-132435850D01*
X130775513Y-132435850D01*
X130775520Y-132435850D01*
X131035516Y-132401620D01*
X131288819Y-132333748D01*
X131531097Y-132233393D01*
X131758203Y-132102274D01*
X131966251Y-131942632D01*
X131966255Y-131942627D01*
X131966260Y-131942624D01*
X132151674Y-131757210D01*
X132151677Y-131757205D01*
X132151682Y-131757201D01*
X132311324Y-131549153D01*
X132442443Y-131322047D01*
X132542798Y-131079769D01*
X132610670Y-130826466D01*
X132644900Y-130566470D01*
X132644900Y-130304230D01*
X132610670Y-130044234D01*
X132542798Y-129790931D01*
X132526614Y-129751859D01*
X132442446Y-129548659D01*
X132442441Y-129548649D01*
X132311324Y-129321546D01*
X132151681Y-129113498D01*
X132151674Y-129113490D01*
X131966260Y-128928076D01*
X131966251Y-128928068D01*
X131758203Y-128768425D01*
X131531100Y-128637308D01*
X131531090Y-128637303D01*
X131288828Y-128536955D01*
X131288821Y-128536953D01*
X131288819Y-128536952D01*
X131035516Y-128469080D01*
X130977739Y-128461473D01*
X130775527Y-128434850D01*
X130775520Y-128434850D01*
X130513280Y-128434850D01*
X130513272Y-128434850D01*
X130282172Y-128465276D01*
X130253284Y-128469080D01*
X130145599Y-128497934D01*
X129999981Y-128536952D01*
X129999971Y-128536955D01*
X129757709Y-128637303D01*
X129757699Y-128637308D01*
X129530596Y-128768425D01*
X129322548Y-128928068D01*
X129137118Y-129113498D01*
X128977475Y-129321546D01*
X128846358Y-129548649D01*
X128846353Y-129548659D01*
X128746005Y-129790921D01*
X128746002Y-129790931D01*
X128678130Y-130044235D01*
X128643900Y-130304222D01*
X115776832Y-130304222D01*
X115662823Y-130246131D01*
X115468134Y-130182872D01*
X115293595Y-130155228D01*
X115265952Y-130150850D01*
X115061248Y-130150850D01*
X115036929Y-130154701D01*
X114859065Y-130182872D01*
X114664376Y-130246131D01*
X114481986Y-130339065D01*
X114316381Y-130459383D01*
X114316373Y-130459389D01*
X114296682Y-130479080D01*
X114235358Y-130512562D01*
X114165666Y-130507575D01*
X114121324Y-130479076D01*
X108158556Y-124516308D01*
X108125071Y-124454985D01*
X108130055Y-124385293D01*
X108171927Y-124329360D01*
X108237391Y-124304943D01*
X108265636Y-124306154D01*
X108311699Y-124313450D01*
X108311703Y-124313450D01*
X108571502Y-124313450D01*
X108684898Y-124295489D01*
X108828093Y-124272810D01*
X109075172Y-124192529D01*
X109306651Y-124074584D01*
X109516829Y-123921881D01*
X109700531Y-123738179D01*
X109853234Y-123528001D01*
X109971179Y-123296522D01*
X110051460Y-123049443D01*
X110080418Y-122866607D01*
X110092100Y-122792852D01*
X110092100Y-122533047D01*
X110063298Y-122351200D01*
X110051460Y-122276457D01*
X109971179Y-122029378D01*
X109971177Y-122029375D01*
X109971177Y-122029373D01*
X109928387Y-121945395D01*
X109853234Y-121797899D01*
X109700531Y-121587721D01*
X109516829Y-121404019D01*
X109493352Y-121386962D01*
X109306654Y-121251318D01*
X109306653Y-121251317D01*
X109306651Y-121251316D01*
X109234364Y-121214484D01*
X109075176Y-121133372D01*
X108828093Y-121053090D01*
X108571502Y-121012450D01*
X108571497Y-121012450D01*
X108311703Y-121012450D01*
X108311698Y-121012450D01*
X108055106Y-121053090D01*
X107808023Y-121133372D01*
X107576545Y-121251318D01*
X107366374Y-121404016D01*
X107366368Y-121404021D01*
X107182671Y-121587718D01*
X107182666Y-121587724D01*
X107029968Y-121797895D01*
X106912022Y-122029373D01*
X106835031Y-122266327D01*
X106795593Y-122324002D01*
X106731234Y-122351200D01*
X106662388Y-122339285D01*
X106610912Y-122292041D01*
X106593100Y-122228008D01*
X106593100Y-119990029D01*
X106564259Y-119845042D01*
X106564258Y-119845041D01*
X106564258Y-119845037D01*
X106507684Y-119708455D01*
X106466195Y-119646362D01*
X106462504Y-119640838D01*
X106462501Y-119640832D01*
X106425555Y-119585539D01*
X106425552Y-119585534D01*
X105865462Y-119025444D01*
X105831977Y-118964121D01*
X105835212Y-118899445D01*
X105851460Y-118849443D01*
X105871095Y-118725470D01*
X105892100Y-118592852D01*
X105892100Y-118333092D01*
X106791600Y-118333092D01*
X106791600Y-118592807D01*
X106832229Y-118849327D01*
X106912483Y-119096327D01*
X107030396Y-119327741D01*
X107111551Y-119439442D01*
X107111552Y-119439443D01*
X107651121Y-118899873D01*
X107742524Y-119036667D01*
X107867883Y-119162026D01*
X108004675Y-119253427D01*
X107465105Y-119792996D01*
X107465106Y-119792998D01*
X107576808Y-119874153D01*
X107808222Y-119992066D01*
X108055222Y-120072320D01*
X108311743Y-120112950D01*
X108571457Y-120112950D01*
X108827977Y-120072320D01*
X109074977Y-119992066D01*
X109306388Y-119874155D01*
X109418092Y-119792996D01*
X109418093Y-119792996D01*
X108878524Y-119253427D01*
X109015317Y-119162026D01*
X109140676Y-119036667D01*
X109232077Y-118899874D01*
X109771646Y-119439443D01*
X109771646Y-119439442D01*
X109852805Y-119327738D01*
X109970716Y-119096327D01*
X110050970Y-118849327D01*
X110091600Y-118592807D01*
X110091600Y-118333092D01*
X110050970Y-118076572D01*
X109970716Y-117829572D01*
X109852803Y-117598158D01*
X109771648Y-117486456D01*
X109771646Y-117486455D01*
X109232077Y-118026024D01*
X109140676Y-117889233D01*
X109015317Y-117763874D01*
X108878524Y-117672472D01*
X109418093Y-117132902D01*
X109418092Y-117132901D01*
X109306391Y-117051746D01*
X109074977Y-116933833D01*
X108827977Y-116853579D01*
X108571457Y-116812950D01*
X108311743Y-116812950D01*
X108055222Y-116853579D01*
X107808222Y-116933833D01*
X107576815Y-117051742D01*
X107465106Y-117132902D01*
X108004676Y-117672472D01*
X107867883Y-117763874D01*
X107742524Y-117889233D01*
X107651122Y-118026026D01*
X107111552Y-117486456D01*
X107030392Y-117598165D01*
X106912483Y-117829572D01*
X106832229Y-118076572D01*
X106791600Y-118333092D01*
X105892100Y-118333092D01*
X105892100Y-118333047D01*
X105863445Y-118152129D01*
X105851460Y-118076457D01*
X105771179Y-117829378D01*
X105771177Y-117829375D01*
X105771177Y-117829373D01*
X105687617Y-117665380D01*
X105653234Y-117597899D01*
X105500531Y-117387721D01*
X105316829Y-117204019D01*
X105107243Y-117051746D01*
X105106654Y-117051318D01*
X105106653Y-117051317D01*
X105106651Y-117051316D01*
X105034364Y-117014484D01*
X104875176Y-116933372D01*
X104628093Y-116853090D01*
X104371502Y-116812450D01*
X104371497Y-116812450D01*
X104111703Y-116812450D01*
X104111698Y-116812450D01*
X103855106Y-116853090D01*
X103608020Y-116933373D01*
X103571394Y-116952036D01*
X103502725Y-116964932D01*
X103437985Y-116938655D01*
X103397728Y-116881549D01*
X103391100Y-116841551D01*
X103391100Y-115884348D01*
X103410785Y-115817309D01*
X103463589Y-115771554D01*
X103532747Y-115761610D01*
X103571396Y-115773864D01*
X103608021Y-115792526D01*
X103608024Y-115792526D01*
X103608028Y-115792529D01*
X103855107Y-115872810D01*
X103987306Y-115893747D01*
X104111698Y-115913450D01*
X104111703Y-115913450D01*
X104371502Y-115913450D01*
X104484898Y-115895489D01*
X104628093Y-115872810D01*
X104875172Y-115792529D01*
X105106651Y-115674584D01*
X105316829Y-115521881D01*
X105500531Y-115338179D01*
X105653234Y-115128001D01*
X105771179Y-114896522D01*
X105851460Y-114649443D01*
X105876897Y-114488837D01*
X105892100Y-114392852D01*
X105892100Y-114133047D01*
X106791100Y-114133047D01*
X106791100Y-114392852D01*
X106831740Y-114649443D01*
X106912022Y-114896526D01*
X106967795Y-115005984D01*
X107024790Y-115117843D01*
X107029968Y-115128004D01*
X107136327Y-115274395D01*
X107182669Y-115338179D01*
X107366371Y-115521881D01*
X107576549Y-115674584D01*
X107690009Y-115732395D01*
X107808023Y-115792527D01*
X107808025Y-115792527D01*
X107808028Y-115792529D01*
X108055107Y-115872810D01*
X108187306Y-115893747D01*
X108311698Y-115913450D01*
X108311703Y-115913450D01*
X108571502Y-115913450D01*
X108684898Y-115895489D01*
X108828093Y-115872810D01*
X109075172Y-115792529D01*
X109306651Y-115674584D01*
X109516829Y-115521881D01*
X109700531Y-115338179D01*
X109853234Y-115128001D01*
X109971179Y-114896522D01*
X110051460Y-114649443D01*
X110076897Y-114488837D01*
X110092100Y-114392852D01*
X110092100Y-114133047D01*
X110060848Y-113935734D01*
X110051460Y-113876457D01*
X109971179Y-113629378D01*
X109971177Y-113629375D01*
X109971177Y-113629373D01*
X109912204Y-113513634D01*
X109853234Y-113397899D01*
X109700531Y-113187721D01*
X109516829Y-113004019D01*
X109306651Y-112851316D01*
X109234364Y-112814484D01*
X109075176Y-112733372D01*
X108828093Y-112653090D01*
X108571502Y-112612450D01*
X108571497Y-112612450D01*
X108311703Y-112612450D01*
X108311698Y-112612450D01*
X108055106Y-112653090D01*
X107808023Y-112733372D01*
X107576545Y-112851318D01*
X107366374Y-113004016D01*
X107366368Y-113004021D01*
X107182671Y-113187718D01*
X107182666Y-113187724D01*
X107029968Y-113397895D01*
X106912022Y-113629373D01*
X106831740Y-113876456D01*
X106791100Y-114133047D01*
X105892100Y-114133047D01*
X105860848Y-113935734D01*
X105851460Y-113876457D01*
X105771179Y-113629378D01*
X105771177Y-113629375D01*
X105771177Y-113629373D01*
X105712204Y-113513634D01*
X105653234Y-113397899D01*
X105500531Y-113187721D01*
X105316829Y-113004019D01*
X105106651Y-112851316D01*
X105034364Y-112814484D01*
X104875176Y-112733372D01*
X104628093Y-112653090D01*
X104371502Y-112612450D01*
X104371497Y-112612450D01*
X104111703Y-112612450D01*
X104111698Y-112612450D01*
X103855106Y-112653090D01*
X103608020Y-112733373D01*
X103571394Y-112752036D01*
X103502725Y-112764932D01*
X103437985Y-112738655D01*
X103397728Y-112681549D01*
X103391100Y-112641551D01*
X103391100Y-112026179D01*
X103410785Y-111959140D01*
X103427415Y-111938502D01*
X103679106Y-111686810D01*
X103740427Y-111653327D01*
X103805101Y-111656561D01*
X103855107Y-111672810D01*
X103983405Y-111693130D01*
X104111698Y-111713450D01*
X104111703Y-111713450D01*
X104371502Y-111713450D01*
X104484898Y-111695489D01*
X104628093Y-111672810D01*
X104875172Y-111592529D01*
X105106651Y-111474584D01*
X105316829Y-111321881D01*
X105500531Y-111138179D01*
X105653234Y-110928001D01*
X105771179Y-110696522D01*
X105851460Y-110449443D01*
X105874139Y-110306248D01*
X105892100Y-110192852D01*
X105892100Y-109933047D01*
X106791100Y-109933047D01*
X106791100Y-110192852D01*
X106831740Y-110449443D01*
X106912022Y-110696526D01*
X107029968Y-110928004D01*
X107169136Y-111119552D01*
X107182669Y-111138179D01*
X107366371Y-111321881D01*
X107576549Y-111474584D01*
X107724045Y-111549737D01*
X107808023Y-111592527D01*
X107808025Y-111592527D01*
X107808028Y-111592529D01*
X108055107Y-111672810D01*
X108187306Y-111693747D01*
X108311698Y-111713450D01*
X108311703Y-111713450D01*
X108571502Y-111713450D01*
X108739686Y-111686812D01*
X108828093Y-111672810D01*
X108878094Y-111656562D01*
X108947934Y-111654566D01*
X109004094Y-111686812D01*
X111723980Y-114406698D01*
X111723984Y-114406701D01*
X111846898Y-114488830D01*
X111846911Y-114488837D01*
X111953263Y-114532889D01*
X111983487Y-114545408D01*
X111983491Y-114545408D01*
X111983492Y-114545409D01*
X112128479Y-114574250D01*
X112128482Y-114574250D01*
X120723920Y-114574250D01*
X120821462Y-114554846D01*
X120868913Y-114545408D01*
X120899136Y-114532888D01*
X120946589Y-114523450D01*
X123131382Y-114523450D01*
X123198421Y-114543135D01*
X123231700Y-114574565D01*
X123264828Y-114620162D01*
X123264832Y-114620167D01*
X123409586Y-114764921D01*
X123512952Y-114840019D01*
X123575190Y-114885237D01*
X123691407Y-114944453D01*
X123757576Y-114978168D01*
X123757578Y-114978168D01*
X123757581Y-114978170D01*
X123843184Y-115005984D01*
X123952265Y-115041427D01*
X124039470Y-115055239D01*
X124154448Y-115073450D01*
X124154449Y-115073450D01*
X124359151Y-115073450D01*
X124359152Y-115073450D01*
X124561334Y-115041427D01*
X124756019Y-114978170D01*
X124938410Y-114885237D01*
X125031390Y-114817682D01*
X125104013Y-114764921D01*
X125104015Y-114764918D01*
X125104019Y-114764916D01*
X125248766Y-114620169D01*
X125248768Y-114620165D01*
X125248771Y-114620163D01*
X125319036Y-114523450D01*
X125369087Y-114454560D01*
X125462020Y-114272169D01*
X125525277Y-114077484D01*
X125557300Y-113875302D01*
X125557300Y-113670598D01*
X125550771Y-113629377D01*
X125525277Y-113468415D01*
X125465455Y-113284304D01*
X125462020Y-113273731D01*
X125462018Y-113273728D01*
X125462018Y-113273726D01*
X125418197Y-113187724D01*
X125369087Y-113091340D01*
X125319036Y-113022450D01*
X125248771Y-112925736D01*
X125104013Y-112780978D01*
X124938413Y-112660665D01*
X124938412Y-112660664D01*
X124938410Y-112660663D01*
X124843787Y-112612450D01*
X124756023Y-112567731D01*
X124561334Y-112504472D01*
X124386795Y-112476828D01*
X124359152Y-112472450D01*
X124154448Y-112472450D01*
X124130129Y-112476301D01*
X123952265Y-112504472D01*
X123757576Y-112567731D01*
X123575186Y-112660665D01*
X123409586Y-112780978D01*
X123264832Y-112925732D01*
X123264828Y-112925737D01*
X123231700Y-112971335D01*
X123176371Y-113014001D01*
X123131382Y-113022450D01*
X120626880Y-113022450D01*
X120481892Y-113051290D01*
X120481886Y-113051292D01*
X120451664Y-113063811D01*
X120404211Y-113073250D01*
X112564629Y-113073250D01*
X112497590Y-113053565D01*
X112476948Y-113036931D01*
X110065462Y-110625444D01*
X110031977Y-110564121D01*
X110035212Y-110499445D01*
X110051460Y-110449443D01*
X110066700Y-110353219D01*
X110092100Y-110192852D01*
X110092100Y-109933047D01*
X110070547Y-109796971D01*
X110051460Y-109676457D01*
X109971179Y-109429378D01*
X109971177Y-109429375D01*
X109971177Y-109429373D01*
X109928387Y-109345395D01*
X109853234Y-109197899D01*
X109700531Y-108987721D01*
X109516829Y-108804019D01*
X109434633Y-108744300D01*
X109306654Y-108651318D01*
X109306653Y-108651317D01*
X109306651Y-108651316D01*
X109234364Y-108614484D01*
X109075176Y-108533372D01*
X108828093Y-108453090D01*
X108571502Y-108412450D01*
X108571497Y-108412450D01*
X108311703Y-108412450D01*
X108311698Y-108412450D01*
X108055106Y-108453090D01*
X107808023Y-108533372D01*
X107576545Y-108651318D01*
X107366374Y-108804016D01*
X107366368Y-108804021D01*
X107182671Y-108987718D01*
X107182666Y-108987724D01*
X107029968Y-109197895D01*
X106912022Y-109429373D01*
X106831740Y-109676456D01*
X106791100Y-109933047D01*
X105892100Y-109933047D01*
X105870547Y-109796971D01*
X105851460Y-109676457D01*
X105771179Y-109429378D01*
X105771177Y-109429375D01*
X105771177Y-109429373D01*
X105728387Y-109345395D01*
X105653234Y-109197899D01*
X105500531Y-108987721D01*
X105316829Y-108804019D01*
X105234633Y-108744300D01*
X105106654Y-108651318D01*
X105106653Y-108651317D01*
X105106651Y-108651316D01*
X105034364Y-108614484D01*
X104875176Y-108533372D01*
X104628093Y-108453090D01*
X104371502Y-108412450D01*
X104371497Y-108412450D01*
X104111703Y-108412450D01*
X104111698Y-108412450D01*
X103855106Y-108453090D01*
X103608023Y-108533372D01*
X103376545Y-108651318D01*
X103166374Y-108804016D01*
X103166368Y-108804021D01*
X102982671Y-108987718D01*
X102982666Y-108987724D01*
X102829968Y-109197895D01*
X102712022Y-109429373D01*
X102631740Y-109676456D01*
X102591100Y-109933047D01*
X102591100Y-110192852D01*
X102631740Y-110449444D01*
X102631740Y-110449447D01*
X102647986Y-110499445D01*
X102649981Y-110569286D01*
X102617736Y-110625444D01*
X102057649Y-111185531D01*
X102008412Y-111259221D01*
X101975521Y-111308446D01*
X101975514Y-111308458D01*
X101918942Y-111445036D01*
X101918940Y-111445042D01*
X101890100Y-111590029D01*
X101890100Y-111590032D01*
X101890100Y-127262632D01*
X101890100Y-145062668D01*
X101890100Y-145062670D01*
X101890099Y-145062670D01*
X84269700Y-145062670D01*
X84269700Y-105733047D01*
X102591100Y-105733047D01*
X102591100Y-105992852D01*
X102631740Y-106249443D01*
X102712022Y-106496526D01*
X102793134Y-106655714D01*
X102829966Y-106728001D01*
X102982669Y-106938179D01*
X103166371Y-107121881D01*
X103376549Y-107274584D01*
X103524045Y-107349737D01*
X103608023Y-107392527D01*
X103608025Y-107392527D01*
X103608028Y-107392529D01*
X103855107Y-107472810D01*
X103987306Y-107493747D01*
X104111698Y-107513450D01*
X104111703Y-107513450D01*
X104371502Y-107513450D01*
X104484898Y-107495489D01*
X104628093Y-107472810D01*
X104875172Y-107392529D01*
X105106651Y-107274584D01*
X105316829Y-107121881D01*
X105500531Y-106938179D01*
X105653234Y-106728001D01*
X105771179Y-106496522D01*
X105851460Y-106249443D01*
X105874139Y-106106248D01*
X105892100Y-105992852D01*
X105892100Y-105733047D01*
X106791100Y-105733047D01*
X106791100Y-105992852D01*
X106831740Y-106249443D01*
X106912022Y-106496526D01*
X106993134Y-106655714D01*
X107029966Y-106728001D01*
X107182669Y-106938179D01*
X107366371Y-107121881D01*
X107576549Y-107274584D01*
X107724045Y-107349737D01*
X107808023Y-107392527D01*
X107808025Y-107392527D01*
X107808028Y-107392529D01*
X108055107Y-107472810D01*
X108187306Y-107493747D01*
X108311698Y-107513450D01*
X108311703Y-107513450D01*
X108571502Y-107513450D01*
X108684898Y-107495489D01*
X108828093Y-107472810D01*
X109075172Y-107392529D01*
X109306651Y-107274584D01*
X109516829Y-107121881D01*
X109700531Y-106938179D01*
X109853234Y-106728001D01*
X109971179Y-106496522D01*
X110051460Y-106249443D01*
X110074139Y-106106248D01*
X110092100Y-105992852D01*
X110092100Y-105733047D01*
X110051460Y-105476460D01*
X110051460Y-105476457D01*
X110035211Y-105426451D01*
X110033217Y-105356611D01*
X110065460Y-105300455D01*
X110915348Y-104450569D01*
X110976671Y-104417084D01*
X111003029Y-104414250D01*
X120723920Y-104414250D01*
X120821462Y-104394846D01*
X120868913Y-104385408D01*
X120899136Y-104372888D01*
X120946589Y-104363450D01*
X123131382Y-104363450D01*
X123198421Y-104383135D01*
X123231700Y-104414565D01*
X123264828Y-104460162D01*
X123264832Y-104460167D01*
X123409586Y-104604921D01*
X123564549Y-104717506D01*
X123575190Y-104725237D01*
X123691407Y-104784453D01*
X123757576Y-104818168D01*
X123757578Y-104818168D01*
X123757581Y-104818170D01*
X123861937Y-104852077D01*
X123952265Y-104881427D01*
X124053357Y-104897438D01*
X124154448Y-104913450D01*
X124154449Y-104913450D01*
X124359151Y-104913450D01*
X124359152Y-104913450D01*
X124561334Y-104881427D01*
X124756019Y-104818170D01*
X124938410Y-104725237D01*
X125043005Y-104649245D01*
X125104013Y-104604921D01*
X125104015Y-104604918D01*
X125104019Y-104604916D01*
X125248766Y-104460169D01*
X125248768Y-104460165D01*
X125248771Y-104460163D01*
X125328665Y-104350196D01*
X125369087Y-104294560D01*
X125462020Y-104112169D01*
X125525277Y-103917484D01*
X125557300Y-103715302D01*
X125557300Y-103510598D01*
X125545424Y-103435619D01*
X125525277Y-103308415D01*
X125462018Y-103113726D01*
X125405910Y-103003609D01*
X125369087Y-102931340D01*
X125339989Y-102891290D01*
X125248771Y-102765736D01*
X125104013Y-102620978D01*
X124938413Y-102500665D01*
X124938412Y-102500664D01*
X124938410Y-102500663D01*
X124881453Y-102471641D01*
X124756023Y-102407731D01*
X124561334Y-102344472D01*
X124386795Y-102316828D01*
X124359152Y-102312450D01*
X124154448Y-102312450D01*
X124130129Y-102316301D01*
X123952265Y-102344472D01*
X123757576Y-102407731D01*
X123575186Y-102500665D01*
X123409586Y-102620978D01*
X123264832Y-102765732D01*
X123264828Y-102765737D01*
X123231700Y-102811335D01*
X123176371Y-102854001D01*
X123131382Y-102862450D01*
X120626880Y-102862450D01*
X120481892Y-102891290D01*
X120481886Y-102891292D01*
X120451664Y-102903811D01*
X120404211Y-102913250D01*
X110566880Y-102913250D01*
X110421892Y-102942090D01*
X110421882Y-102942093D01*
X110285311Y-102998662D01*
X110285298Y-102998669D01*
X110162384Y-103080798D01*
X110162380Y-103080801D01*
X109004095Y-104239086D01*
X108942772Y-104272571D01*
X108878097Y-104269336D01*
X108828096Y-104253090D01*
X108571502Y-104212450D01*
X108571497Y-104212450D01*
X108311703Y-104212450D01*
X108311698Y-104212450D01*
X108055106Y-104253090D01*
X107808023Y-104333372D01*
X107576545Y-104451318D01*
X107366374Y-104604016D01*
X107366368Y-104604021D01*
X107182671Y-104787718D01*
X107182666Y-104787724D01*
X107029968Y-104997895D01*
X106912022Y-105229373D01*
X106831740Y-105476456D01*
X106791100Y-105733047D01*
X105892100Y-105733047D01*
X105851460Y-105476460D01*
X105851460Y-105476457D01*
X105771179Y-105229378D01*
X105771177Y-105229375D01*
X105771177Y-105229373D01*
X105698243Y-105086234D01*
X105653234Y-104997899D01*
X105500531Y-104787721D01*
X105316829Y-104604019D01*
X105134029Y-104471207D01*
X105106654Y-104451318D01*
X105106653Y-104451317D01*
X105106651Y-104451316D01*
X105033905Y-104414250D01*
X104875176Y-104333372D01*
X104628093Y-104253090D01*
X104371502Y-104212450D01*
X104371497Y-104212450D01*
X104111703Y-104212450D01*
X104111698Y-104212450D01*
X103855106Y-104253090D01*
X103608023Y-104333372D01*
X103376545Y-104451318D01*
X103166374Y-104604016D01*
X103166368Y-104604021D01*
X102982671Y-104787718D01*
X102982666Y-104787724D01*
X102829968Y-104997895D01*
X102712022Y-105229373D01*
X102631740Y-105476456D01*
X102591100Y-105733047D01*
X84269700Y-105733047D01*
X84269700Y-97094145D01*
X130177900Y-97094145D01*
X130177900Y-97330154D01*
X130177901Y-97330170D01*
X130208706Y-97564160D01*
X130269794Y-97792143D01*
X130360114Y-98010195D01*
X130360119Y-98010206D01*
X130431077Y-98133107D01*
X130478127Y-98214600D01*
X130478129Y-98214603D01*
X130478130Y-98214604D01*
X130621806Y-98401847D01*
X130621812Y-98401854D01*
X130788695Y-98568737D01*
X130788702Y-98568743D01*
X130805309Y-98581486D01*
X130975950Y-98712423D01*
X131064451Y-98763519D01*
X131180343Y-98830430D01*
X131180348Y-98830432D01*
X131180351Y-98830434D01*
X131398407Y-98920756D01*
X131626386Y-98981843D01*
X131860389Y-99012650D01*
X131860396Y-99012650D01*
X132096404Y-99012650D01*
X132096411Y-99012650D01*
X132330414Y-98981843D01*
X132542277Y-98925074D01*
X132612125Y-98926737D01*
X132662050Y-98957168D01*
X134849181Y-101144298D01*
X134882666Y-101205621D01*
X134885500Y-101231979D01*
X134885500Y-102988941D01*
X134865815Y-103055980D01*
X134834387Y-103089258D01*
X134786151Y-103124303D01*
X134640953Y-103269501D01*
X134640949Y-103269506D01*
X134520262Y-103435619D01*
X134427039Y-103618576D01*
X134363584Y-103813868D01*
X134331463Y-104016674D01*
X134331463Y-104222023D01*
X134363584Y-104424829D01*
X134427039Y-104620121D01*
X134457562Y-104680024D01*
X134512438Y-104787724D01*
X134520262Y-104803078D01*
X134640949Y-104969191D01*
X134640953Y-104969196D01*
X134786152Y-105114395D01*
X134786157Y-105114399D01*
X134952272Y-105235088D01*
X134986693Y-105252627D01*
X135037488Y-105300601D01*
X135054283Y-105368422D01*
X135031745Y-105434557D01*
X135018078Y-105450792D01*
X134317079Y-106151791D01*
X134287070Y-106190899D01*
X134287071Y-106190900D01*
X134177388Y-106333841D01*
X134062657Y-106532561D01*
X134062650Y-106532576D01*
X133974842Y-106744565D01*
X133915453Y-106966212D01*
X133915451Y-106966223D01*
X133885500Y-107193711D01*
X133885500Y-114394090D01*
X133905423Y-114545409D01*
X133915452Y-114621587D01*
X133953858Y-114764921D01*
X133974842Y-114843236D01*
X134062650Y-115055225D01*
X134062657Y-115055239D01*
X134177392Y-115253966D01*
X134317081Y-115436010D01*
X134317089Y-115436019D01*
X134479330Y-115598260D01*
X134479338Y-115598267D01*
X134661382Y-115737956D01*
X134661385Y-115737957D01*
X134661388Y-115737960D01*
X134860112Y-115852693D01*
X134860117Y-115852695D01*
X134860123Y-115852698D01*
X134950266Y-115890036D01*
X135072113Y-115940507D01*
X135293762Y-115999897D01*
X135521266Y-116029849D01*
X135521273Y-116029849D01*
X135750727Y-116029849D01*
X135750734Y-116029849D01*
X135978238Y-115999897D01*
X136199887Y-115940507D01*
X136411888Y-115852693D01*
X136610612Y-115737960D01*
X136792661Y-115598268D01*
X136792665Y-115598263D01*
X136792670Y-115598260D01*
X136954913Y-115436016D01*
X136954919Y-115436010D01*
X136954924Y-115436003D01*
X136955959Y-115434824D01*
X136956361Y-115434568D01*
X136957790Y-115433140D01*
X136958109Y-115433459D01*
X137014955Y-115397392D01*
X137084824Y-115397798D01*
X137143381Y-115435913D01*
X137172036Y-115499637D01*
X137173198Y-115516570D01*
X137173198Y-117539708D01*
X137163760Y-117587156D01*
X137159313Y-117597895D01*
X137153960Y-117610818D01*
X137153958Y-117610823D01*
X137123198Y-117765465D01*
X137123198Y-117923158D01*
X137131406Y-117964423D01*
X137125179Y-118034015D01*
X137082315Y-118089192D01*
X137071789Y-118096001D01*
X136916425Y-118185700D01*
X136840398Y-118244038D01*
X136734377Y-118325390D01*
X136734370Y-118325396D01*
X134317084Y-120742682D01*
X134317078Y-120742689D01*
X134177396Y-120924727D01*
X134177390Y-120924737D01*
X134062656Y-121123460D01*
X134062651Y-121123469D01*
X133974842Y-121335461D01*
X133958939Y-121394812D01*
X133920986Y-121536459D01*
X133915453Y-121557107D01*
X133915450Y-121557120D01*
X133885501Y-121784614D01*
X133885501Y-122014083D01*
X133915450Y-122241577D01*
X133915451Y-122241582D01*
X133915452Y-122241588D01*
X133957931Y-122400121D01*
X133974842Y-122463236D01*
X134062651Y-122675228D01*
X134062656Y-122675237D01*
X134177390Y-122873961D01*
X134177392Y-122873964D01*
X134177396Y-122873970D01*
X134317078Y-123056008D01*
X134317084Y-123056015D01*
X134479333Y-123218264D01*
X134479340Y-123218270D01*
X134661378Y-123357952D01*
X134661382Y-123357954D01*
X134661388Y-123357959D01*
X134860112Y-123472693D01*
X134860115Y-123472694D01*
X134860120Y-123472697D01*
X134974489Y-123520070D01*
X135072113Y-123560507D01*
X135293761Y-123619897D01*
X135423112Y-123636926D01*
X135521265Y-123649848D01*
X135521266Y-123649848D01*
X135750735Y-123649848D01*
X135802389Y-123643047D01*
X135978239Y-123619897D01*
X136199887Y-123560507D01*
X136410930Y-123473090D01*
X136411879Y-123472697D01*
X136411880Y-123472695D01*
X136411888Y-123472693D01*
X136610612Y-123357959D01*
X136792661Y-123218269D01*
X138579799Y-121431131D01*
X138641122Y-121397646D01*
X138667480Y-121394812D01*
X141877591Y-121394812D01*
X141944630Y-121414497D01*
X141990385Y-121467301D01*
X142000329Y-121536459D01*
X141995522Y-121557131D01*
X141983584Y-121593868D01*
X141951463Y-121796674D01*
X141951463Y-122002023D01*
X141983584Y-122204829D01*
X142047039Y-122400121D01*
X142094922Y-122494095D01*
X142140259Y-122583074D01*
X142140262Y-122583078D01*
X142260949Y-122749191D01*
X142260953Y-122749196D01*
X142406152Y-122894395D01*
X142406157Y-122894399D01*
X142483859Y-122950852D01*
X142572274Y-123015089D01*
X142688852Y-123074489D01*
X142755227Y-123108309D01*
X142755229Y-123108309D01*
X142755232Y-123108311D01*
X142831968Y-123133244D01*
X142950519Y-123171764D01*
X143153326Y-123203886D01*
X143153331Y-123203886D01*
X143358674Y-123203886D01*
X143561480Y-123171764D01*
X143756768Y-123108311D01*
X143939726Y-123015089D01*
X144105849Y-122894394D01*
X144251045Y-122749198D01*
X144371740Y-122583075D01*
X144412523Y-122503033D01*
X144420964Y-122494095D01*
X144425536Y-122482677D01*
X144444505Y-122469168D01*
X144460495Y-122452238D01*
X144472432Y-122449281D01*
X144482450Y-122442148D01*
X144505712Y-122441039D01*
X144528316Y-122435442D01*
X144541664Y-122439326D01*
X144552241Y-122438823D01*
X144585004Y-122451939D01*
X144635787Y-122481259D01*
X144635788Y-122481260D01*
X144658019Y-122494095D01*
X144735149Y-122538627D01*
X144875197Y-122596636D01*
X144947150Y-122626440D01*
X144980093Y-122635267D01*
X145168798Y-122685831D01*
X145339426Y-122708294D01*
X145396302Y-122715782D01*
X145396303Y-122715782D01*
X145625771Y-122715782D01*
X151806535Y-122715782D01*
X151873574Y-122735467D01*
X151919329Y-122788271D01*
X151929273Y-122857429D01*
X151900248Y-122920985D01*
X151862830Y-122950267D01*
X151718386Y-123023865D01*
X151552786Y-123144178D01*
X151408032Y-123288932D01*
X151408028Y-123288937D01*
X151374900Y-123334535D01*
X151319571Y-123377201D01*
X151274582Y-123385650D01*
X148957327Y-123385650D01*
X148928493Y-123391384D01*
X148928494Y-123391385D01*
X148812344Y-123414489D01*
X148812334Y-123414492D01*
X148732332Y-123447629D01*
X148732333Y-123447630D01*
X148675753Y-123471067D01*
X148626520Y-123503963D01*
X148552839Y-123553194D01*
X148552831Y-123553200D01*
X141199847Y-130906185D01*
X141199845Y-130906187D01*
X141169151Y-130952128D01*
X141169149Y-130952131D01*
X141117719Y-131029100D01*
X141117712Y-131029112D01*
X141061143Y-131165683D01*
X141061140Y-131165693D01*
X141032300Y-131310680D01*
X141032300Y-137488732D01*
X141012615Y-137555771D01*
X140981185Y-137589050D01*
X140935587Y-137622178D01*
X140935582Y-137622182D01*
X140790828Y-137766936D01*
X140670515Y-137932536D01*
X140577581Y-138114926D01*
X140514322Y-138309615D01*
X140482300Y-138511798D01*
X140482300Y-138716501D01*
X140514322Y-138918684D01*
X140577581Y-139113373D01*
X140629252Y-139214781D01*
X140670385Y-139295509D01*
X140670515Y-139295763D01*
X140790828Y-139461363D01*
X140935586Y-139606121D01*
X141075429Y-139707721D01*
X141101190Y-139726437D01*
X141217407Y-139785653D01*
X141283576Y-139819368D01*
X141283578Y-139819368D01*
X141283581Y-139819370D01*
X141387937Y-139853277D01*
X141478265Y-139882627D01*
X141579357Y-139898638D01*
X141680448Y-139914650D01*
X141680449Y-139914650D01*
X141885151Y-139914650D01*
X141885152Y-139914650D01*
X142087334Y-139882627D01*
X142282019Y-139819370D01*
X142464410Y-139726437D01*
X142557390Y-139658882D01*
X142630013Y-139606121D01*
X142630015Y-139606118D01*
X142630019Y-139606116D01*
X142774766Y-139461369D01*
X142774768Y-139461365D01*
X142774771Y-139461363D01*
X142827532Y-139388740D01*
X142895087Y-139295760D01*
X142988020Y-139113369D01*
X143051277Y-138918684D01*
X143083300Y-138716502D01*
X143083300Y-138511798D01*
X143069845Y-138426850D01*
X143051277Y-138309615D01*
X143020258Y-138214150D01*
X142988020Y-138114931D01*
X142988018Y-138114928D01*
X142988018Y-138114926D01*
X142924276Y-137989827D01*
X142895087Y-137932540D01*
X142862892Y-137888227D01*
X142774771Y-137766936D01*
X142630017Y-137622182D01*
X142630012Y-137622178D01*
X142584415Y-137589050D01*
X142541749Y-137533721D01*
X142533300Y-137488732D01*
X142533300Y-131746830D01*
X142552985Y-131679791D01*
X142569614Y-131659154D01*
X145744205Y-128484562D01*
X145805528Y-128451078D01*
X145875220Y-128456062D01*
X145931153Y-128497934D01*
X145942371Y-128515949D01*
X146004585Y-128638050D01*
X146014183Y-128656888D01*
X146148614Y-128841916D01*
X146310334Y-129003636D01*
X146379823Y-129054123D01*
X146394838Y-129065032D01*
X146437503Y-129120363D01*
X146443482Y-129189976D01*
X146410876Y-129251771D01*
X146394838Y-129265668D01*
X146310332Y-129327065D01*
X146148616Y-129488781D01*
X146148616Y-129488782D01*
X146148614Y-129488784D01*
X146103012Y-129551550D01*
X146014183Y-129673811D01*
X145910350Y-129877594D01*
X145839678Y-130095100D01*
X145839678Y-130095103D01*
X145806555Y-130304236D01*
X145803900Y-130320996D01*
X145803900Y-130549704D01*
X145812521Y-130604136D01*
X145839678Y-130775596D01*
X145839678Y-130775599D01*
X145910350Y-130993105D01*
X145988670Y-131146816D01*
X146014183Y-131196888D01*
X146146925Y-131379592D01*
X146170405Y-131445396D01*
X146154580Y-131513450D01*
X146104474Y-131562145D01*
X146089941Y-131568658D01*
X146062070Y-131579053D01*
X146062064Y-131579056D01*
X145946855Y-131665302D01*
X145946854Y-131665304D01*
X145860606Y-131780514D01*
X145860602Y-131780521D01*
X145810308Y-131915367D01*
X145803901Y-131974966D01*
X145803900Y-131974985D01*
X145803900Y-133975720D01*
X145803901Y-133975726D01*
X145810308Y-134035333D01*
X145860602Y-134170178D01*
X145860606Y-134170185D01*
X145946852Y-134285394D01*
X145946855Y-134285397D01*
X146062064Y-134371643D01*
X146062071Y-134371647D01*
X146196917Y-134421941D01*
X146196916Y-134421941D01*
X146203844Y-134422685D01*
X146256527Y-134428350D01*
X148312299Y-134428349D01*
X148379338Y-134448034D01*
X148425093Y-134500837D01*
X148436299Y-134552349D01*
X148436299Y-142320450D01*
X148416614Y-142387489D01*
X148363810Y-142433244D01*
X148312299Y-142444450D01*
X148284448Y-142444450D01*
X148260129Y-142448301D01*
X148082265Y-142476472D01*
X147887576Y-142539731D01*
X147705186Y-142632665D01*
X147539586Y-142752978D01*
X147394828Y-142897736D01*
X147274515Y-143063336D01*
X147181581Y-143245726D01*
X147118322Y-143440415D01*
X147106093Y-143517630D01*
X147086300Y-143642598D01*
X147086300Y-143847302D01*
X147086545Y-143848851D01*
X147118322Y-144049484D01*
X147181581Y-144244173D01*
X147274515Y-144426563D01*
X147394828Y-144592163D01*
X147539586Y-144736921D01*
X147694549Y-144849506D01*
X147705190Y-144857237D01*
X147821407Y-144916453D01*
X147887576Y-144950168D01*
X147887578Y-144950168D01*
X147887581Y-144950170D01*
X147991937Y-144984077D01*
X148082265Y-145013427D01*
X148183357Y-145029438D01*
X148284448Y-145045450D01*
X148284449Y-145045450D01*
X148489151Y-145045450D01*
X148489152Y-145045450D01*
X148691334Y-145013427D01*
X148886019Y-144950170D01*
X149068410Y-144857237D01*
X149161390Y-144789682D01*
X149234013Y-144736921D01*
X149234015Y-144736918D01*
X149234019Y-144736916D01*
X149378766Y-144592169D01*
X149378768Y-144592165D01*
X149378771Y-144592163D01*
X149431532Y-144519540D01*
X149499087Y-144426560D01*
X149592020Y-144244169D01*
X149655277Y-144049484D01*
X149687300Y-143847302D01*
X149687300Y-143642598D01*
X149678481Y-143586921D01*
X149687435Y-143517630D01*
X149713269Y-143479846D01*
X149769750Y-143423367D01*
X149851883Y-143300446D01*
X149908457Y-143163864D01*
X149922487Y-143093331D01*
X149937299Y-143018869D01*
X149937299Y-134193798D01*
X151099500Y-134193798D01*
X151099500Y-134398501D01*
X151131522Y-134600684D01*
X151194781Y-134795373D01*
X151287715Y-134977763D01*
X151408028Y-135143363D01*
X151552786Y-135288121D01*
X151707749Y-135400706D01*
X151718390Y-135408437D01*
X151834607Y-135467653D01*
X151900776Y-135501368D01*
X151900778Y-135501368D01*
X151900781Y-135501370D01*
X152005137Y-135535277D01*
X152095465Y-135564627D01*
X152196557Y-135580638D01*
X152297648Y-135596650D01*
X152297649Y-135596650D01*
X152502351Y-135596650D01*
X152502352Y-135596650D01*
X152704534Y-135564627D01*
X152899219Y-135501370D01*
X153081610Y-135408437D01*
X153175392Y-135340301D01*
X153247213Y-135288121D01*
X153247215Y-135288118D01*
X153247219Y-135288116D01*
X153391966Y-135143369D01*
X153391968Y-135143365D01*
X153391971Y-135143363D01*
X153444732Y-135070740D01*
X153512287Y-134977760D01*
X153605220Y-134795369D01*
X153668477Y-134600684D01*
X153700500Y-134398502D01*
X153700500Y-134193798D01*
X153668477Y-133991616D01*
X153605220Y-133796931D01*
X153605218Y-133796928D01*
X153605218Y-133796926D01*
X153528487Y-133646335D01*
X153512287Y-133614540D01*
X153442728Y-133518799D01*
X153391971Y-133448936D01*
X153247213Y-133304178D01*
X153081613Y-133183865D01*
X153081612Y-133183864D01*
X153081610Y-133183863D01*
X153024653Y-133154841D01*
X152899223Y-133090931D01*
X152704534Y-133027672D01*
X152529995Y-133000028D01*
X152502352Y-132995650D01*
X152297648Y-132995650D01*
X152273329Y-132999501D01*
X152095465Y-133027672D01*
X151900776Y-133090931D01*
X151718386Y-133183865D01*
X151552786Y-133304178D01*
X151408028Y-133448936D01*
X151287715Y-133614536D01*
X151194781Y-133796926D01*
X151131522Y-133991615D01*
X151099500Y-134193798D01*
X149937299Y-134193798D01*
X149937299Y-131929331D01*
X149937299Y-131929328D01*
X149908458Y-131784341D01*
X149908457Y-131784340D01*
X149908457Y-131784336D01*
X149892922Y-131746830D01*
X149851886Y-131647760D01*
X149851884Y-131647756D01*
X149851883Y-131647754D01*
X149805979Y-131579054D01*
X149786001Y-131549153D01*
X149769753Y-131524835D01*
X148841219Y-130596301D01*
X148807734Y-130534978D01*
X148804900Y-130508620D01*
X148804900Y-130320996D01*
X148777951Y-130150850D01*
X148769122Y-130095105D01*
X148769121Y-130095101D01*
X148769121Y-130095100D01*
X148698449Y-129877594D01*
X148634381Y-129751853D01*
X148594617Y-129673812D01*
X148460186Y-129488784D01*
X148298466Y-129327064D01*
X148213959Y-129265666D01*
X148171296Y-129210338D01*
X148165317Y-129140725D01*
X148197923Y-129078930D01*
X148213956Y-129065035D01*
X148298466Y-129003636D01*
X148460186Y-128841916D01*
X148565500Y-128696963D01*
X148620830Y-128654299D01*
X148665818Y-128645850D01*
X155914170Y-128645850D01*
X155981209Y-128665535D01*
X156001851Y-128682169D01*
X160058831Y-132739149D01*
X160092316Y-132800472D01*
X160093623Y-132846228D01*
X160059100Y-133064196D01*
X160059100Y-133292903D01*
X160094878Y-133518796D01*
X160094878Y-133518799D01*
X160165550Y-133736305D01*
X160269383Y-133940088D01*
X160403814Y-134125116D01*
X160565534Y-134286836D01*
X160750562Y-134421267D01*
X160906727Y-134500837D01*
X160954344Y-134525099D01*
X161171851Y-134595771D01*
X161171852Y-134595771D01*
X161171855Y-134595772D01*
X161397746Y-134631550D01*
X161397747Y-134631550D01*
X161721453Y-134631550D01*
X161721454Y-134631550D01*
X161947345Y-134595772D01*
X162097782Y-134546891D01*
X162167623Y-134544897D01*
X162227456Y-134580977D01*
X162258284Y-134643678D01*
X162260100Y-134664823D01*
X162260100Y-141814520D01*
X162240415Y-141881559D01*
X162223781Y-141902201D01*
X161859905Y-142266076D01*
X161798582Y-142299561D01*
X161752826Y-142300868D01*
X161697152Y-142292050D01*
X161492448Y-142292050D01*
X161486703Y-142292960D01*
X161290265Y-142324072D01*
X161095576Y-142387331D01*
X160913186Y-142480265D01*
X160747586Y-142600578D01*
X160602828Y-142745336D01*
X160482515Y-142910936D01*
X160389581Y-143093326D01*
X160326322Y-143288015D01*
X160294300Y-143490198D01*
X160294300Y-143694901D01*
X160326322Y-143897084D01*
X160389581Y-144091773D01*
X160482515Y-144274163D01*
X160602828Y-144439763D01*
X160747586Y-144584521D01*
X160876089Y-144677882D01*
X160913190Y-144704837D01*
X161029407Y-144764053D01*
X161095576Y-144797768D01*
X161095578Y-144797768D01*
X161095581Y-144797770D01*
X161199937Y-144831677D01*
X161290265Y-144861027D01*
X161391357Y-144877038D01*
X161492448Y-144893050D01*
X161492449Y-144893050D01*
X161697151Y-144893050D01*
X161697152Y-144893050D01*
X161899334Y-144861027D01*
X162094019Y-144797770D01*
X162276410Y-144704837D01*
X162384205Y-144626520D01*
X162442013Y-144584521D01*
X162442015Y-144584518D01*
X162442019Y-144584516D01*
X162586766Y-144439769D01*
X162586768Y-144439765D01*
X162586771Y-144439763D01*
X162639532Y-144367140D01*
X162707087Y-144274160D01*
X162800020Y-144091769D01*
X162863277Y-143897084D01*
X162895300Y-143694902D01*
X162895300Y-143490198D01*
X162886481Y-143434521D01*
X162895435Y-143365229D01*
X162921270Y-143327445D01*
X163593552Y-142655165D01*
X163637456Y-142589457D01*
X163675684Y-142532245D01*
X163712050Y-142444450D01*
X163732259Y-142395662D01*
X163761100Y-142250667D01*
X163761100Y-142102832D01*
X163761100Y-132015632D01*
X163761100Y-132015629D01*
X163732259Y-131870642D01*
X163732258Y-131870641D01*
X163732258Y-131870637D01*
X163694928Y-131780514D01*
X163675687Y-131734061D01*
X163675685Y-131734057D01*
X163675684Y-131734055D01*
X163629746Y-131665304D01*
X163618016Y-131647748D01*
X163593554Y-131611136D01*
X163060369Y-131077951D01*
X163026884Y-131016628D01*
X163025577Y-130970872D01*
X163035822Y-130906185D01*
X163060100Y-130752904D01*
X163060100Y-130524196D01*
X163024322Y-130298305D01*
X163024321Y-130298301D01*
X163024321Y-130298300D01*
X162953649Y-130080794D01*
X162889291Y-129954484D01*
X162849817Y-129877012D01*
X162717072Y-129694305D01*
X162693594Y-129628503D01*
X162709419Y-129560449D01*
X162759525Y-129511754D01*
X162774055Y-129505242D01*
X162801931Y-129494846D01*
X162917146Y-129408596D01*
X163003396Y-129293381D01*
X163053691Y-129158533D01*
X163060100Y-129098923D01*
X163060100Y-128973050D01*
X163079785Y-128906011D01*
X163132589Y-128860256D01*
X163184100Y-128849050D01*
X167205920Y-128849050D01*
X167303462Y-128829646D01*
X167350913Y-128820208D01*
X167487495Y-128763634D01*
X167536729Y-128730736D01*
X167610416Y-128681502D01*
X169696780Y-126595136D01*
X169758101Y-126561653D01*
X169827793Y-126566637D01*
X169883726Y-126608509D01*
X169887561Y-126613928D01*
X169964609Y-126729237D01*
X169964610Y-126729238D01*
X169964611Y-126729239D01*
X170053582Y-126818210D01*
X170087066Y-126879531D01*
X170089900Y-126905890D01*
X170089900Y-137590332D01*
X170070215Y-137657371D01*
X170038785Y-137690650D01*
X169993187Y-137723778D01*
X169993182Y-137723782D01*
X169848428Y-137868536D01*
X169728115Y-138034136D01*
X169635181Y-138216526D01*
X169571922Y-138411215D01*
X169539900Y-138613398D01*
X169539900Y-138818101D01*
X169548718Y-138873776D01*
X169539763Y-138943070D01*
X169513926Y-138980855D01*
X169465850Y-139028930D01*
X169465844Y-139028938D01*
X169416612Y-139102618D01*
X169416613Y-139102619D01*
X169383721Y-139151846D01*
X169383714Y-139151858D01*
X169327142Y-139288436D01*
X169327140Y-139288442D01*
X169298300Y-139433429D01*
X169298300Y-145067118D01*
X169278615Y-145134157D01*
X169247186Y-145167436D01*
X169141841Y-145243973D01*
X169071290Y-145295233D01*
X169071287Y-145295235D01*
X168904285Y-145462237D01*
X168904285Y-145462238D01*
X168904283Y-145462240D01*
X168868125Y-145512007D01*
X168765457Y-145653316D01*
X168658233Y-145863753D01*
X168585246Y-146088381D01*
X168548300Y-146321652D01*
X168548300Y-146557847D01*
X168585246Y-146791118D01*
X168658233Y-147015746D01*
X168765457Y-147226183D01*
X168904283Y-147417260D01*
X169071290Y-147584267D01*
X169247186Y-147712063D01*
X169289851Y-147767393D01*
X169298300Y-147812381D01*
X169298300Y-151567118D01*
X169278615Y-151634157D01*
X169247186Y-151667436D01*
X169071288Y-151795234D01*
X168904285Y-151962237D01*
X168904285Y-151962238D01*
X168904283Y-151962240D01*
X168868125Y-152012007D01*
X168765457Y-152153316D01*
X168658233Y-152363753D01*
X168585246Y-152588381D01*
X168548300Y-152821652D01*
X168548300Y-153057847D01*
X168585246Y-153291118D01*
X168658233Y-153515746D01*
X168734142Y-153664724D01*
X168765457Y-153726183D01*
X168904283Y-153917260D01*
X169071290Y-154084267D01*
X169262367Y-154223093D01*
X169318647Y-154251769D01*
X169472803Y-154330316D01*
X169472805Y-154330316D01*
X169472808Y-154330318D01*
X169593212Y-154369439D01*
X169697431Y-154403303D01*
X169930703Y-154440250D01*
X169930708Y-154440250D01*
X170166897Y-154440250D01*
X170400168Y-154403303D01*
X170624792Y-154330318D01*
X170835233Y-154223093D01*
X171026310Y-154084267D01*
X171193317Y-153917260D01*
X171332143Y-153726183D01*
X171439368Y-153515742D01*
X171512353Y-153291118D01*
X171518339Y-153253326D01*
X171549300Y-153057847D01*
X171549300Y-152821652D01*
X171512353Y-152588381D01*
X171456137Y-152415369D01*
X171439368Y-152363758D01*
X171439366Y-152363755D01*
X171439366Y-152363753D01*
X171332142Y-152153316D01*
X171330338Y-152150833D01*
X171193317Y-151962240D01*
X171026310Y-151795233D01*
X170975679Y-151758447D01*
X170850414Y-151667436D01*
X170807749Y-151612105D01*
X170799300Y-151567118D01*
X170799300Y-147812381D01*
X170818985Y-147745342D01*
X170850414Y-147712063D01*
X171026310Y-147584267D01*
X171193317Y-147417260D01*
X171332143Y-147226183D01*
X171439368Y-147015742D01*
X171512353Y-146791118D01*
X171530387Y-146677258D01*
X171549300Y-146557847D01*
X171549300Y-146321652D01*
X171512353Y-146088381D01*
X171439366Y-145863753D01*
X171332142Y-145653316D01*
X171193317Y-145462240D01*
X171026310Y-145295233D01*
X170955758Y-145243973D01*
X170850414Y-145167436D01*
X170807749Y-145112105D01*
X170799300Y-145067118D01*
X170799300Y-140140250D01*
X170818985Y-140073211D01*
X170871789Y-140027456D01*
X170923300Y-140016250D01*
X170942751Y-140016250D01*
X170942752Y-140016250D01*
X171144934Y-139984227D01*
X171339619Y-139920970D01*
X171522010Y-139828037D01*
X171662441Y-139726009D01*
X171687613Y-139707721D01*
X171687615Y-139707718D01*
X171687619Y-139707716D01*
X171832366Y-139562969D01*
X171832368Y-139562965D01*
X171832371Y-139562963D01*
X171906186Y-139461363D01*
X171952687Y-139397360D01*
X172045620Y-139214969D01*
X172108877Y-139020284D01*
X172140900Y-138818102D01*
X172140900Y-138613398D01*
X172122973Y-138500214D01*
X172108877Y-138411215D01*
X172070814Y-138294070D01*
X172045620Y-138216531D01*
X172045618Y-138216528D01*
X172045618Y-138216526D01*
X171993852Y-138114931D01*
X171952687Y-138034140D01*
X171920492Y-137989827D01*
X171832371Y-137868536D01*
X171687617Y-137723782D01*
X171687612Y-137723778D01*
X171642015Y-137690650D01*
X171599349Y-137635321D01*
X171590900Y-137590332D01*
X171590900Y-126399029D01*
X171571273Y-126300362D01*
X171577500Y-126230770D01*
X171620362Y-126175593D01*
X171686252Y-126152348D01*
X171754249Y-126168415D01*
X171780571Y-126188489D01*
X173761981Y-128169898D01*
X173795466Y-128231221D01*
X173798300Y-128257579D01*
X173798300Y-145067118D01*
X173778615Y-145134157D01*
X173747186Y-145167436D01*
X173641841Y-145243973D01*
X173571290Y-145295233D01*
X173571287Y-145295235D01*
X173404285Y-145462237D01*
X173404285Y-145462238D01*
X173404283Y-145462240D01*
X173368125Y-145512007D01*
X173265457Y-145653316D01*
X173158233Y-145863753D01*
X173085246Y-146088381D01*
X173048300Y-146321652D01*
X173048300Y-146557847D01*
X173085246Y-146791118D01*
X173158233Y-147015746D01*
X173265457Y-147226183D01*
X173404283Y-147417260D01*
X173571290Y-147584267D01*
X173747186Y-147712063D01*
X173789851Y-147767393D01*
X173798300Y-147812381D01*
X173798300Y-151567118D01*
X173778615Y-151634157D01*
X173747186Y-151667436D01*
X173571288Y-151795234D01*
X173404285Y-151962237D01*
X173404285Y-151962238D01*
X173404283Y-151962240D01*
X173368125Y-152012007D01*
X173265457Y-152153316D01*
X173158233Y-152363753D01*
X173085246Y-152588381D01*
X173048300Y-152821652D01*
X173048300Y-153057847D01*
X173085246Y-153291118D01*
X173158233Y-153515746D01*
X173234142Y-153664724D01*
X173265457Y-153726183D01*
X173404283Y-153917260D01*
X173571290Y-154084267D01*
X173762367Y-154223093D01*
X173818647Y-154251769D01*
X173972803Y-154330316D01*
X173972805Y-154330316D01*
X173972808Y-154330318D01*
X174093212Y-154369439D01*
X174197431Y-154403303D01*
X174430703Y-154440250D01*
X174430708Y-154440250D01*
X174666897Y-154440250D01*
X174900168Y-154403303D01*
X175124792Y-154330318D01*
X175335233Y-154223093D01*
X175526310Y-154084267D01*
X175693317Y-153917260D01*
X175832143Y-153726183D01*
X175939368Y-153515742D01*
X176012353Y-153291118D01*
X176018339Y-153253326D01*
X176049300Y-153057847D01*
X176049300Y-152821652D01*
X176012353Y-152588381D01*
X175956137Y-152415369D01*
X175939368Y-152363758D01*
X175939366Y-152363755D01*
X175939366Y-152363753D01*
X175832142Y-152153316D01*
X175830338Y-152150833D01*
X175693317Y-151962240D01*
X175526310Y-151795233D01*
X175475679Y-151758447D01*
X175350414Y-151667436D01*
X175307749Y-151612105D01*
X175299300Y-151567118D01*
X175299300Y-147812381D01*
X175318985Y-147745342D01*
X175350414Y-147712063D01*
X175526310Y-147584267D01*
X175693317Y-147417260D01*
X175832143Y-147226183D01*
X175939368Y-147015742D01*
X176012353Y-146791118D01*
X176030387Y-146677258D01*
X176049300Y-146557847D01*
X176049300Y-146321652D01*
X176012353Y-146088381D01*
X175939366Y-145863753D01*
X175832142Y-145653316D01*
X175693317Y-145462240D01*
X175526310Y-145295233D01*
X175455758Y-145243973D01*
X175350414Y-145167436D01*
X175307749Y-145112105D01*
X175299300Y-145067118D01*
X175299300Y-138613432D01*
X179700400Y-138613432D01*
X179700400Y-138818067D01*
X179732409Y-139020167D01*
X179795644Y-139214781D01*
X179888541Y-139397100D01*
X179888547Y-139397109D01*
X179920923Y-139441671D01*
X179920924Y-139441672D01*
X180600400Y-138762196D01*
X180600400Y-138768411D01*
X180627659Y-138870144D01*
X180680320Y-138961356D01*
X180754794Y-139035830D01*
X180846006Y-139088491D01*
X180947739Y-139115750D01*
X180953953Y-139115750D01*
X180274476Y-139795224D01*
X180319050Y-139827609D01*
X180501368Y-139920505D01*
X180695982Y-139983740D01*
X180898083Y-140015750D01*
X181102717Y-140015750D01*
X181304817Y-139983740D01*
X181499431Y-139920505D01*
X181681749Y-139827609D01*
X181726321Y-139795224D01*
X181046847Y-139115750D01*
X181053061Y-139115750D01*
X181154794Y-139088491D01*
X181246006Y-139035830D01*
X181320480Y-138961356D01*
X181373141Y-138870144D01*
X181400400Y-138768411D01*
X181400400Y-138762197D01*
X182079874Y-139441671D01*
X182112259Y-139397099D01*
X182205155Y-139214781D01*
X182268390Y-139020167D01*
X182300400Y-138818067D01*
X182300400Y-138613432D01*
X182268390Y-138411332D01*
X182205155Y-138216718D01*
X182112259Y-138034400D01*
X182079874Y-137989827D01*
X182079874Y-137989826D01*
X181400400Y-138669301D01*
X181400400Y-138663089D01*
X181373141Y-138561356D01*
X181320480Y-138470144D01*
X181246006Y-138395670D01*
X181154794Y-138343009D01*
X181053061Y-138315750D01*
X181046846Y-138315750D01*
X181726322Y-137636274D01*
X181726321Y-137636273D01*
X181681759Y-137603897D01*
X181681750Y-137603891D01*
X181499431Y-137510994D01*
X181304817Y-137447759D01*
X181102717Y-137415750D01*
X180898083Y-137415750D01*
X180695982Y-137447759D01*
X180501368Y-137510994D01*
X180319044Y-137603893D01*
X180274477Y-137636273D01*
X180274477Y-137636274D01*
X180953954Y-138315750D01*
X180947739Y-138315750D01*
X180846006Y-138343009D01*
X180754794Y-138395670D01*
X180680320Y-138470144D01*
X180627659Y-138561356D01*
X180600400Y-138663089D01*
X180600400Y-138669303D01*
X179920924Y-137989827D01*
X179920923Y-137989827D01*
X179888543Y-138034394D01*
X179795644Y-138216718D01*
X179732409Y-138411332D01*
X179700400Y-138613432D01*
X175299300Y-138613432D01*
X175299300Y-130507422D01*
X176219100Y-130507422D01*
X176219100Y-130769677D01*
X176237073Y-130906185D01*
X176253330Y-131029666D01*
X176298137Y-131196888D01*
X176321202Y-131282968D01*
X176321205Y-131282978D01*
X176421553Y-131525240D01*
X176421558Y-131525250D01*
X176552675Y-131752353D01*
X176712318Y-131960401D01*
X176712326Y-131960410D01*
X176897740Y-132145824D01*
X176897748Y-132145831D01*
X176897749Y-132145832D01*
X176946154Y-132182974D01*
X177105796Y-132305474D01*
X177332899Y-132436591D01*
X177332909Y-132436596D01*
X177575171Y-132536944D01*
X177575181Y-132536948D01*
X177828484Y-132604820D01*
X178088480Y-132639050D01*
X178088487Y-132639050D01*
X178350713Y-132639050D01*
X178350720Y-132639050D01*
X178610716Y-132604820D01*
X178864019Y-132536948D01*
X179106297Y-132436593D01*
X179333403Y-132305474D01*
X179541451Y-132145832D01*
X179541455Y-132145827D01*
X179541460Y-132145824D01*
X179726874Y-131960410D01*
X179726877Y-131960405D01*
X179726882Y-131960401D01*
X179886524Y-131752353D01*
X180017643Y-131525247D01*
X180017815Y-131524833D01*
X180106518Y-131310683D01*
X180117998Y-131282969D01*
X180185870Y-131029666D01*
X180220100Y-130769670D01*
X180220100Y-130507430D01*
X180185870Y-130247434D01*
X180117998Y-129994131D01*
X180069486Y-129877012D01*
X180017646Y-129751859D01*
X180017641Y-129751849D01*
X179886524Y-129524746D01*
X179726881Y-129316698D01*
X179726874Y-129316690D01*
X179541460Y-129131276D01*
X179541451Y-129131268D01*
X179333403Y-128971625D01*
X179106300Y-128840508D01*
X179106290Y-128840503D01*
X178864028Y-128740155D01*
X178864021Y-128740153D01*
X178864019Y-128740152D01*
X178610716Y-128672280D01*
X178552939Y-128664673D01*
X178350727Y-128638050D01*
X178350720Y-128638050D01*
X178088480Y-128638050D01*
X178088472Y-128638050D01*
X177857372Y-128668476D01*
X177828484Y-128672280D01*
X177610311Y-128730739D01*
X177575181Y-128740152D01*
X177575171Y-128740155D01*
X177332909Y-128840503D01*
X177332899Y-128840508D01*
X177105796Y-128971625D01*
X176897748Y-129131268D01*
X176712318Y-129316698D01*
X176552675Y-129524746D01*
X176421558Y-129751849D01*
X176421553Y-129751859D01*
X176321205Y-129994121D01*
X176321202Y-129994131D01*
X176253680Y-130246130D01*
X176253330Y-130247435D01*
X176219100Y-130507422D01*
X175299300Y-130507422D01*
X175299300Y-127821429D01*
X175293521Y-127792382D01*
X175283710Y-127743056D01*
X175270459Y-127676438D01*
X175220349Y-127555463D01*
X175213884Y-127539855D01*
X175159005Y-127457723D01*
X175131752Y-127416935D01*
X174081640Y-126366823D01*
X173016349Y-125301531D01*
X172982864Y-125240208D01*
X172987848Y-125170516D01*
X173029720Y-125114583D01*
X173095184Y-125090166D01*
X173104030Y-125089850D01*
X174978320Y-125089850D01*
X175075862Y-125070446D01*
X175123313Y-125061008D01*
X175259895Y-125004434D01*
X175312248Y-124969453D01*
X175312248Y-124969452D01*
X175312250Y-124969452D01*
X175359673Y-124937765D01*
X175382816Y-124922302D01*
X176417295Y-123887821D01*
X176478616Y-123854338D01*
X176524371Y-123853031D01*
X176580048Y-123861850D01*
X176580049Y-123861850D01*
X176784751Y-123861850D01*
X176784752Y-123861850D01*
X176986934Y-123829827D01*
X177181619Y-123766570D01*
X177364010Y-123673637D01*
X177472815Y-123594586D01*
X177529613Y-123553321D01*
X177529615Y-123553318D01*
X177529619Y-123553316D01*
X177674366Y-123408569D01*
X177674368Y-123408565D01*
X177674371Y-123408563D01*
X177761283Y-123288937D01*
X177794687Y-123242960D01*
X177887620Y-123060569D01*
X177950877Y-122865884D01*
X177982900Y-122663702D01*
X177982900Y-122458998D01*
X177953988Y-122276456D01*
X177950877Y-122256815D01*
X177887618Y-122062126D01*
X177803107Y-121896266D01*
X177794687Y-121879740D01*
X177754690Y-121824688D01*
X177674371Y-121714136D01*
X177529613Y-121569378D01*
X177364013Y-121449065D01*
X177364012Y-121449064D01*
X177364010Y-121449063D01*
X177242138Y-121386966D01*
X177181623Y-121356131D01*
X176986934Y-121292872D01*
X176812395Y-121265228D01*
X176784752Y-121260850D01*
X176580048Y-121260850D01*
X176555729Y-121264701D01*
X176377865Y-121292872D01*
X176183176Y-121356131D01*
X176000786Y-121449065D01*
X175835186Y-121569378D01*
X175690428Y-121714136D01*
X175570115Y-121879736D01*
X175477181Y-122062126D01*
X175413922Y-122256815D01*
X175381900Y-122458998D01*
X175381900Y-122663701D01*
X175390718Y-122719375D01*
X175381764Y-122788668D01*
X175355926Y-122826454D01*
X174629851Y-123552531D01*
X174568528Y-123586016D01*
X174542170Y-123588850D01*
X171238430Y-123588850D01*
X171171391Y-123569165D01*
X171125636Y-123516361D01*
X171115692Y-123447203D01*
X171144717Y-123383647D01*
X171165545Y-123364531D01*
X171182249Y-123352395D01*
X171327445Y-123207199D01*
X171448140Y-123041076D01*
X171541362Y-122858118D01*
X171604815Y-122662830D01*
X171615299Y-122596636D01*
X171636937Y-122460024D01*
X171636937Y-122254675D01*
X171604815Y-122051869D01*
X171554256Y-121896265D01*
X171541362Y-121856582D01*
X171541360Y-121856579D01*
X171541360Y-121856577D01*
X171504692Y-121784614D01*
X171448140Y-121673624D01*
X171390194Y-121593868D01*
X171327450Y-121507507D01*
X171327446Y-121507502D01*
X171182247Y-121362303D01*
X171182242Y-121362299D01*
X171016129Y-121241612D01*
X171016128Y-121241611D01*
X171016126Y-121241610D01*
X170953499Y-121209700D01*
X170833172Y-121148389D01*
X170637880Y-121084934D01*
X170435074Y-121052813D01*
X170435069Y-121052813D01*
X170229731Y-121052813D01*
X170229726Y-121052813D01*
X170026919Y-121084934D01*
X169910584Y-121122734D01*
X169873617Y-121134746D01*
X169803777Y-121136741D01*
X169743944Y-121100661D01*
X169713116Y-121037960D01*
X169711300Y-121016815D01*
X169711300Y-120006637D01*
X191104900Y-120006637D01*
X191104900Y-120239262D01*
X191141291Y-120469027D01*
X191213174Y-120690264D01*
X191318789Y-120897541D01*
X191375961Y-120976232D01*
X191375962Y-120976233D01*
X191925197Y-120426998D01*
X191941288Y-120465845D01*
X192020510Y-120584410D01*
X192121340Y-120685240D01*
X192239905Y-120764462D01*
X192278750Y-120780552D01*
X191729515Y-121329786D01*
X191808211Y-121386962D01*
X192015485Y-121492575D01*
X192236722Y-121564458D01*
X192466488Y-121600850D01*
X192699112Y-121600850D01*
X192928877Y-121564458D01*
X193150114Y-121492575D01*
X193357380Y-121386966D01*
X193357386Y-121386962D01*
X193436082Y-121329786D01*
X193436083Y-121329786D01*
X192886848Y-120780552D01*
X192925695Y-120764462D01*
X193044260Y-120685240D01*
X193145090Y-120584410D01*
X193224312Y-120465845D01*
X193240402Y-120426999D01*
X193789636Y-120976233D01*
X193789636Y-120976232D01*
X193846812Y-120897536D01*
X193846816Y-120897530D01*
X193952425Y-120690264D01*
X194024308Y-120469027D01*
X194060700Y-120239262D01*
X194060700Y-120006637D01*
X194024308Y-119776872D01*
X193952425Y-119555635D01*
X193846812Y-119348361D01*
X193789636Y-119269666D01*
X193789636Y-119269665D01*
X193240402Y-119818900D01*
X193224312Y-119780055D01*
X193145090Y-119661490D01*
X193044260Y-119560660D01*
X192925695Y-119481438D01*
X192886848Y-119465347D01*
X193436083Y-118916112D01*
X193436082Y-118916111D01*
X193357391Y-118858939D01*
X193150114Y-118753324D01*
X192928877Y-118681441D01*
X192699112Y-118645050D01*
X192466488Y-118645050D01*
X192236722Y-118681441D01*
X192015485Y-118753324D01*
X191808215Y-118858935D01*
X191729516Y-118916112D01*
X192278751Y-119465347D01*
X192239905Y-119481438D01*
X192121340Y-119560660D01*
X192020510Y-119661490D01*
X191941288Y-119780055D01*
X191925197Y-119818900D01*
X191375962Y-119269666D01*
X191318785Y-119348365D01*
X191213174Y-119555635D01*
X191141291Y-119776872D01*
X191104900Y-120006637D01*
X169711300Y-120006637D01*
X169711300Y-116471178D01*
X169730985Y-116404139D01*
X169747615Y-116383501D01*
X170063766Y-116067349D01*
X170125087Y-116033866D01*
X170170838Y-116032559D01*
X170229731Y-116041887D01*
X170229734Y-116041887D01*
X170435074Y-116041887D01*
X170637880Y-116009765D01*
X170833168Y-115946312D01*
X171016126Y-115853090D01*
X171182249Y-115732395D01*
X171327445Y-115587199D01*
X171362488Y-115538965D01*
X171417817Y-115496299D01*
X171462807Y-115487850D01*
X174420320Y-115487850D01*
X174517862Y-115468446D01*
X174565313Y-115459008D01*
X174701895Y-115402434D01*
X174767722Y-115358450D01*
X174824816Y-115320302D01*
X176417295Y-113727821D01*
X176478616Y-113694338D01*
X176524371Y-113693031D01*
X176580048Y-113701850D01*
X176580049Y-113701850D01*
X176784751Y-113701850D01*
X176784752Y-113701850D01*
X176986934Y-113669827D01*
X177181619Y-113606570D01*
X177364010Y-113513637D01*
X177475256Y-113432813D01*
X177529613Y-113393321D01*
X177529615Y-113393318D01*
X177529619Y-113393316D01*
X177674366Y-113248569D01*
X177674368Y-113248565D01*
X177674371Y-113248563D01*
X177736091Y-113163611D01*
X177794687Y-113082960D01*
X177887620Y-112900569D01*
X177950877Y-112705884D01*
X177982900Y-112503702D01*
X177982900Y-112298998D01*
X177982900Y-112298997D01*
X177950877Y-112096815D01*
X177887618Y-111902126D01*
X177853903Y-111835957D01*
X177794687Y-111719740D01*
X177746436Y-111653327D01*
X177674371Y-111554136D01*
X177529613Y-111409378D01*
X177364013Y-111289065D01*
X177364012Y-111289064D01*
X177364010Y-111289063D01*
X177305440Y-111259220D01*
X177181623Y-111196131D01*
X176986934Y-111132872D01*
X176812395Y-111105228D01*
X176784752Y-111100850D01*
X176580048Y-111100850D01*
X176524371Y-111109668D01*
X176455078Y-111100713D01*
X176417293Y-111074876D01*
X171130013Y-105787595D01*
X171096528Y-105726272D01*
X171101512Y-105656580D01*
X171143384Y-105600647D01*
X171144705Y-105599671D01*
X171182249Y-105572395D01*
X171327445Y-105427199D01*
X171448140Y-105261076D01*
X171541362Y-105078118D01*
X171604815Y-104882830D01*
X171615056Y-104818170D01*
X171636937Y-104680024D01*
X171636937Y-104474675D01*
X171604815Y-104271869D01*
X171541360Y-104076577D01*
X171507540Y-104010202D01*
X171448140Y-103893624D01*
X171432720Y-103872400D01*
X171327450Y-103727507D01*
X171327446Y-103727502D01*
X171182248Y-103582304D01*
X171134013Y-103547259D01*
X171091348Y-103491929D01*
X171082900Y-103446942D01*
X171082900Y-102349579D01*
X171102585Y-102282540D01*
X171119214Y-102261903D01*
X173468549Y-99912567D01*
X173529872Y-99879083D01*
X173556230Y-99876249D01*
X175344002Y-99876249D01*
X175344008Y-99876249D01*
X175446797Y-99865749D01*
X175613334Y-99810564D01*
X175762656Y-99718462D01*
X175886712Y-99594406D01*
X175978814Y-99445084D01*
X176033999Y-99278547D01*
X176044500Y-99175759D01*
X176044499Y-98138686D01*
X176064183Y-98071648D01*
X176116987Y-98025893D01*
X176186146Y-98015949D01*
X176249702Y-98044974D01*
X176256180Y-98051006D01*
X196295980Y-118090806D01*
X196329465Y-118152129D01*
X196332299Y-118178487D01*
X196332299Y-119346506D01*
X196312614Y-119413545D01*
X196295980Y-119434187D01*
X193905487Y-121824679D01*
X193905480Y-121824687D01*
X193905480Y-121824688D01*
X193850557Y-121896266D01*
X193850556Y-121896265D01*
X193765795Y-122006728D01*
X193765785Y-122006743D01*
X193651529Y-122204641D01*
X193651056Y-122205459D01*
X193563245Y-122417452D01*
X193563242Y-122417462D01*
X193518867Y-122583074D01*
X193503852Y-122639111D01*
X193473900Y-122866607D01*
X193473900Y-125827900D01*
X193454215Y-125894939D01*
X193401411Y-125940694D01*
X193349900Y-125951900D01*
X193139586Y-125951900D01*
X192871680Y-125982086D01*
X192871668Y-125982088D01*
X192608805Y-126042084D01*
X192608797Y-126042087D01*
X192354317Y-126131134D01*
X192111405Y-126248114D01*
X191883112Y-126391561D01*
X191672315Y-126559665D01*
X191481665Y-126750315D01*
X191313561Y-126961112D01*
X191170114Y-127189405D01*
X191053134Y-127432317D01*
X190964087Y-127686797D01*
X190964084Y-127686805D01*
X190904088Y-127949668D01*
X190904086Y-127949680D01*
X190873900Y-128217586D01*
X190873900Y-128487213D01*
X190904086Y-128755119D01*
X190904087Y-128755128D01*
X190904088Y-128755132D01*
X190906029Y-128763634D01*
X190964084Y-129017994D01*
X190964087Y-129018002D01*
X191053134Y-129272482D01*
X191170114Y-129515394D01*
X191198424Y-129560449D01*
X191313562Y-129743689D01*
X191481666Y-129954485D01*
X191672315Y-130145134D01*
X191883111Y-130313238D01*
X192111403Y-130456684D01*
X192111405Y-130456685D01*
X192157909Y-130479080D01*
X192354321Y-130573667D01*
X192545449Y-130640545D01*
X192608797Y-130662712D01*
X192608805Y-130662715D01*
X192608808Y-130662715D01*
X192608809Y-130662716D01*
X192871668Y-130722712D01*
X193139587Y-130752899D01*
X193139588Y-130752900D01*
X193139591Y-130752900D01*
X197309212Y-130752900D01*
X197309212Y-130752899D01*
X197577132Y-130722712D01*
X197839991Y-130662716D01*
X198094479Y-130573667D01*
X198337397Y-130456684D01*
X198565689Y-130313238D01*
X198776485Y-130145134D01*
X198967134Y-129954485D01*
X199135238Y-129743689D01*
X199278684Y-129515397D01*
X199395667Y-129272479D01*
X199484716Y-129017991D01*
X199544712Y-128755132D01*
X199574900Y-128487209D01*
X199574900Y-128217591D01*
X199544712Y-127949668D01*
X199484716Y-127686809D01*
X199395667Y-127432321D01*
X199278684Y-127189403D01*
X199135238Y-126961111D01*
X198967134Y-126750315D01*
X198776485Y-126559666D01*
X198565689Y-126391562D01*
X198337397Y-126248116D01*
X198337394Y-126248114D01*
X198094482Y-126131134D01*
X197840002Y-126042087D01*
X197839994Y-126042084D01*
X197631661Y-125994534D01*
X197577132Y-125982088D01*
X197577128Y-125982087D01*
X197577119Y-125982086D01*
X197309213Y-125951900D01*
X197309209Y-125951900D01*
X197098900Y-125951900D01*
X197031861Y-125932215D01*
X196986106Y-125879411D01*
X196974900Y-125827900D01*
X196974900Y-123757792D01*
X196994585Y-123690753D01*
X197011219Y-123670111D01*
X199401714Y-121279616D01*
X199401719Y-121279611D01*
X199497026Y-121155404D01*
X199541410Y-121097562D01*
X199618966Y-120963231D01*
X199656144Y-120898838D01*
X199726478Y-120729034D01*
X199743957Y-120686837D01*
X199761050Y-120623044D01*
X199803348Y-120465189D01*
X199833299Y-120237683D01*
X199833299Y-120008216D01*
X199833299Y-117287311D01*
X199803347Y-117059807D01*
X199743957Y-116838158D01*
X199656143Y-116626157D01*
X199541410Y-116427433D01*
X199541407Y-116427430D01*
X199541406Y-116427427D01*
X199401717Y-116245383D01*
X199239460Y-116083126D01*
X193655777Y-110499443D01*
X176880542Y-93724206D01*
X176797727Y-93641391D01*
X192933200Y-93641391D01*
X192933200Y-93874108D01*
X192969602Y-94103943D01*
X193041514Y-94325263D01*
X193147161Y-94532604D01*
X193283933Y-94720856D01*
X193283937Y-94720861D01*
X193448488Y-94885412D01*
X193448493Y-94885416D01*
X193612697Y-95004716D01*
X193636749Y-95022191D01*
X193768866Y-95089508D01*
X193844086Y-95127835D01*
X193844088Y-95127835D01*
X193844091Y-95127837D01*
X193962722Y-95166382D01*
X194065406Y-95199747D01*
X194295242Y-95236150D01*
X194295247Y-95236150D01*
X194527958Y-95236150D01*
X194757793Y-95199747D01*
X194979109Y-95127837D01*
X195186451Y-95022191D01*
X195374713Y-94885411D01*
X195539261Y-94720863D01*
X195676041Y-94532601D01*
X195781687Y-94325259D01*
X195853597Y-94103943D01*
X195890000Y-93874108D01*
X195890000Y-93641391D01*
X195853597Y-93411556D01*
X195781685Y-93190236D01*
X195743358Y-93115016D01*
X195676041Y-92982899D01*
X195658566Y-92958847D01*
X195539266Y-92794643D01*
X195539262Y-92794638D01*
X195374711Y-92630087D01*
X195374706Y-92630083D01*
X195186454Y-92493311D01*
X195186453Y-92493310D01*
X195186451Y-92493309D01*
X195121701Y-92460317D01*
X194979113Y-92387664D01*
X194757793Y-92315752D01*
X194527958Y-92279350D01*
X194527953Y-92279350D01*
X194295247Y-92279350D01*
X194295242Y-92279350D01*
X194065406Y-92315752D01*
X193844086Y-92387664D01*
X193636745Y-92493311D01*
X193448493Y-92630083D01*
X193448488Y-92630087D01*
X193283937Y-92794638D01*
X193283933Y-92794643D01*
X193147161Y-92982895D01*
X193041514Y-93190236D01*
X192969602Y-93411556D01*
X192933200Y-93641391D01*
X176797727Y-93641391D01*
X171299352Y-88143016D01*
X192661101Y-88143016D01*
X192661101Y-88372485D01*
X192691050Y-88599979D01*
X192691051Y-88599984D01*
X192691052Y-88599990D01*
X192691053Y-88599992D01*
X192750442Y-88821638D01*
X192838251Y-89033630D01*
X192838256Y-89033639D01*
X192952990Y-89232363D01*
X192952992Y-89232366D01*
X192952996Y-89232372D01*
X193092678Y-89414410D01*
X193092684Y-89414417D01*
X193254933Y-89576666D01*
X193254940Y-89576672D01*
X193436978Y-89716354D01*
X193436982Y-89716356D01*
X193436988Y-89716361D01*
X193635712Y-89831095D01*
X193635715Y-89831096D01*
X193635720Y-89831099D01*
X193750089Y-89878472D01*
X193847713Y-89918909D01*
X194069361Y-89978299D01*
X194230035Y-89999451D01*
X194296865Y-90008250D01*
X194296866Y-90008250D01*
X194526335Y-90008250D01*
X194577989Y-90001449D01*
X194753839Y-89978299D01*
X194975487Y-89918909D01*
X195142138Y-89849879D01*
X195187479Y-89831099D01*
X195187480Y-89831097D01*
X195187488Y-89831095D01*
X195386212Y-89716361D01*
X195568261Y-89576671D01*
X197610120Y-87534812D01*
X197679965Y-87443787D01*
X197749811Y-87352763D01*
X197807177Y-87253401D01*
X197864545Y-87154039D01*
X197952358Y-86942037D01*
X198011749Y-86720390D01*
X198041700Y-86492885D01*
X198041700Y-86263417D01*
X198041700Y-77031416D01*
X198011748Y-76803912D01*
X197952358Y-76582263D01*
X197873913Y-76392881D01*
X197864549Y-76370273D01*
X197864546Y-76370267D01*
X197864544Y-76370262D01*
X197749811Y-76171538D01*
X197749808Y-76171535D01*
X197749807Y-76171532D01*
X197648964Y-76040112D01*
X197610119Y-75989489D01*
X197610118Y-75989488D01*
X197610111Y-75989480D01*
X197447870Y-75827239D01*
X197447861Y-75827231D01*
X197265817Y-75687542D01*
X197067090Y-75572807D01*
X197067076Y-75572800D01*
X196855087Y-75484992D01*
X196633438Y-75425602D01*
X196595415Y-75420596D01*
X196405941Y-75395650D01*
X196405934Y-75395650D01*
X196176466Y-75395650D01*
X196176458Y-75395650D01*
X195959915Y-75424159D01*
X195948962Y-75425602D01*
X195855276Y-75450704D01*
X195727312Y-75484992D01*
X195515323Y-75572800D01*
X195515309Y-75572807D01*
X195316582Y-75687542D01*
X195134538Y-75827231D01*
X194972281Y-75989488D01*
X194832592Y-76171532D01*
X194717857Y-76370259D01*
X194717850Y-76370273D01*
X194652817Y-76527279D01*
X194630042Y-76582263D01*
X194572518Y-76796950D01*
X194570653Y-76803909D01*
X194570651Y-76803920D01*
X194540700Y-77031408D01*
X194540700Y-85601707D01*
X194521015Y-85668746D01*
X194504381Y-85689388D01*
X193092684Y-87101084D01*
X193092678Y-87101091D01*
X192952996Y-87283129D01*
X192952990Y-87283139D01*
X192838256Y-87481862D01*
X192838251Y-87481871D01*
X192750442Y-87693863D01*
X192691053Y-87915509D01*
X192691050Y-87915522D01*
X192661101Y-88143016D01*
X171299352Y-88143016D01*
X162728086Y-79571750D01*
X164601700Y-79571750D01*
X164601700Y-79800549D01*
X164601701Y-79800565D01*
X164631565Y-80027407D01*
X164690787Y-80248426D01*
X164778348Y-80459817D01*
X164778353Y-80459828D01*
X164847143Y-80578974D01*
X164892756Y-80657978D01*
X164892758Y-80657981D01*
X164892759Y-80657982D01*
X165032046Y-80839505D01*
X165032052Y-80839512D01*
X165193837Y-81001297D01*
X165193843Y-81001302D01*
X165375372Y-81140594D01*
X165502727Y-81214122D01*
X165573521Y-81254996D01*
X165573526Y-81254998D01*
X165573529Y-81255000D01*
X165784924Y-81342563D01*
X166005939Y-81401784D01*
X166232794Y-81431650D01*
X166232801Y-81431650D01*
X166461599Y-81431650D01*
X166461606Y-81431650D01*
X166688461Y-81401784D01*
X166909476Y-81342563D01*
X167120871Y-81255000D01*
X167319028Y-81140594D01*
X167500557Y-81001302D01*
X167662352Y-80839507D01*
X167801644Y-80657978D01*
X167916050Y-80459821D01*
X168003613Y-80248426D01*
X168062834Y-80027411D01*
X168092700Y-79800556D01*
X168092700Y-79571744D01*
X168062834Y-79344889D01*
X168003613Y-79123874D01*
X167916050Y-78912479D01*
X167916048Y-78912476D01*
X167916046Y-78912471D01*
X167875172Y-78841677D01*
X167801644Y-78714322D01*
X167691395Y-78570643D01*
X167662353Y-78532794D01*
X167662347Y-78532787D01*
X167500562Y-78371002D01*
X167500555Y-78370996D01*
X167443923Y-78327541D01*
X167319032Y-78231709D01*
X167319031Y-78231708D01*
X167319028Y-78231706D01*
X167201176Y-78163664D01*
X167120878Y-78117303D01*
X167120867Y-78117298D01*
X166909476Y-78029737D01*
X166688457Y-77970515D01*
X166461615Y-77940651D01*
X166461612Y-77940650D01*
X166461606Y-77940650D01*
X166232794Y-77940650D01*
X166232788Y-77940650D01*
X166232784Y-77940651D01*
X166005942Y-77970515D01*
X165784923Y-78029737D01*
X165573532Y-78117298D01*
X165573521Y-78117303D01*
X165388323Y-78224228D01*
X165382590Y-78227539D01*
X165375367Y-78231709D01*
X165193844Y-78370996D01*
X165193837Y-78371002D01*
X165032052Y-78532787D01*
X165032046Y-78532794D01*
X164892759Y-78714317D01*
X164778353Y-78912471D01*
X164778348Y-78912482D01*
X164690787Y-79123873D01*
X164631565Y-79344892D01*
X164601701Y-79571734D01*
X164601700Y-79571750D01*
X162728086Y-79571750D01*
X161523572Y-78367236D01*
X161523567Y-78367232D01*
X161523566Y-78367231D01*
X161523565Y-78367230D01*
X161432540Y-78297385D01*
X161432539Y-78297384D01*
X161341526Y-78227546D01*
X161341520Y-78227542D01*
X161341516Y-78227539D01*
X161330862Y-78221388D01*
X161142795Y-78112807D01*
X161142780Y-78112800D01*
X160930793Y-78024993D01*
X160930794Y-78024993D01*
X160930791Y-78024992D01*
X160727482Y-77970516D01*
X160727480Y-77970515D01*
X160718969Y-77968234D01*
X160709143Y-77965602D01*
X160709137Y-77965601D01*
X160709136Y-77965601D01*
X160699266Y-77964301D01*
X160682675Y-77962117D01*
X160682674Y-77962116D01*
X160481648Y-77935651D01*
X160481643Y-77935650D01*
X160481638Y-77935650D01*
X160481631Y-77935650D01*
X144016700Y-77935650D01*
X143949661Y-77915965D01*
X143903906Y-77863161D01*
X143892700Y-77811650D01*
X143892700Y-74122368D01*
X143896925Y-74090275D01*
X143938922Y-73933540D01*
X143970200Y-73695963D01*
X143970200Y-73456337D01*
X143938922Y-73218760D01*
X143876902Y-72987298D01*
X143785201Y-72765912D01*
X143785199Y-72765909D01*
X143785197Y-72765904D01*
X143766864Y-72734150D01*
X143750391Y-72666249D01*
X143773244Y-72600223D01*
X143828165Y-72557032D01*
X143874251Y-72548150D01*
X144855726Y-72548150D01*
X144922765Y-72567835D01*
X144968520Y-72620639D01*
X144978464Y-72689797D01*
X144963113Y-72734150D01*
X144944651Y-72766125D01*
X144944646Y-72766136D01*
X144852972Y-72987456D01*
X144790968Y-73218858D01*
X144759701Y-73456359D01*
X144759700Y-73456375D01*
X144759700Y-73695924D01*
X144759701Y-73695940D01*
X144790968Y-73933441D01*
X144852972Y-74164843D01*
X144944646Y-74386163D01*
X144944651Y-74386174D01*
X145064424Y-74593625D01*
X145064430Y-74593633D01*
X145130308Y-74679487D01*
X145807536Y-74002259D01*
X145899776Y-74140305D01*
X146023045Y-74263574D01*
X146161089Y-74355812D01*
X145483861Y-75033039D01*
X145483861Y-75033040D01*
X145569716Y-75098919D01*
X145569724Y-75098925D01*
X145777175Y-75218698D01*
X145777186Y-75218703D01*
X145998506Y-75310377D01*
X146229908Y-75372381D01*
X146467409Y-75403648D01*
X146467426Y-75403650D01*
X146706974Y-75403650D01*
X146706990Y-75403648D01*
X146944491Y-75372381D01*
X147175893Y-75310377D01*
X147397213Y-75218703D01*
X147397224Y-75218698D01*
X147604689Y-75098917D01*
X147690537Y-75033042D01*
X147690537Y-75033039D01*
X147013310Y-74355812D01*
X147151355Y-74263574D01*
X147274624Y-74140305D01*
X147366862Y-74002260D01*
X148044089Y-74679487D01*
X148044092Y-74679487D01*
X148109967Y-74593639D01*
X148229748Y-74386174D01*
X148229753Y-74386163D01*
X148321427Y-74164843D01*
X148383431Y-73933441D01*
X148414698Y-73695940D01*
X148414700Y-73695924D01*
X148414700Y-73456375D01*
X148414698Y-73456359D01*
X148383431Y-73218858D01*
X148321427Y-72987456D01*
X148229753Y-72766136D01*
X148229748Y-72766125D01*
X148211287Y-72734150D01*
X148194814Y-72666250D01*
X148217666Y-72600223D01*
X148272587Y-72557033D01*
X148318674Y-72548150D01*
X149305149Y-72548150D01*
X149372188Y-72567835D01*
X149417943Y-72620639D01*
X149427887Y-72689797D01*
X149412536Y-72734150D01*
X149394202Y-72765904D01*
X149394197Y-72765915D01*
X149302498Y-72987295D01*
X149240478Y-73218761D01*
X149209200Y-73456329D01*
X149209200Y-73695970D01*
X149227412Y-73834295D01*
X149240478Y-73933540D01*
X149271488Y-74049271D01*
X149302498Y-74165004D01*
X149394197Y-74386384D01*
X149394202Y-74386395D01*
X149514008Y-74593903D01*
X149514019Y-74593919D01*
X149659886Y-74784018D01*
X149659892Y-74784025D01*
X149728388Y-74852521D01*
X149761873Y-74913844D01*
X149756889Y-74983536D01*
X149715017Y-75039469D01*
X149688160Y-75054763D01*
X149550716Y-75111693D01*
X149550707Y-75111698D01*
X149427793Y-75193827D01*
X149427789Y-75193830D01*
X148666684Y-75954935D01*
X148626458Y-75981814D01*
X148602806Y-75991611D01*
X148602794Y-75991617D01*
X148471691Y-76079218D01*
X148471687Y-76079221D01*
X148360193Y-76190715D01*
X148360190Y-76190719D01*
X148272589Y-76321822D01*
X148272582Y-76321835D01*
X148212244Y-76467506D01*
X148212241Y-76467518D01*
X148181480Y-76622161D01*
X148181480Y-76779854D01*
X148212241Y-76934497D01*
X148212244Y-76934509D01*
X148272582Y-77080180D01*
X148272589Y-77080193D01*
X148360190Y-77211296D01*
X148360193Y-77211300D01*
X148471687Y-77322794D01*
X148471691Y-77322797D01*
X148602794Y-77410398D01*
X148602807Y-77410405D01*
X148680428Y-77442556D01*
X148748483Y-77470745D01*
X148902429Y-77501367D01*
X148903133Y-77501507D01*
X148903136Y-77501508D01*
X148903138Y-77501508D01*
X149060824Y-77501508D01*
X149060825Y-77501507D01*
X149215477Y-77470745D01*
X149361159Y-77410402D01*
X149492269Y-77322797D01*
X149603769Y-77211297D01*
X149681722Y-77094632D01*
X185491600Y-77094632D01*
X185491600Y-77299267D01*
X185523609Y-77501367D01*
X185586844Y-77695981D01*
X185679741Y-77878300D01*
X185679747Y-77878309D01*
X185712123Y-77922871D01*
X185712124Y-77922872D01*
X186391600Y-77243396D01*
X186391600Y-77249611D01*
X186418859Y-77351344D01*
X186471520Y-77442556D01*
X186545994Y-77517030D01*
X186637206Y-77569691D01*
X186738939Y-77596950D01*
X186745153Y-77596950D01*
X186065676Y-78276424D01*
X186110250Y-78308809D01*
X186292568Y-78401705D01*
X186487182Y-78464940D01*
X186689283Y-78496950D01*
X186893917Y-78496950D01*
X187096017Y-78464940D01*
X187290631Y-78401705D01*
X187472949Y-78308809D01*
X187517521Y-78276424D01*
X186838047Y-77596950D01*
X186844261Y-77596950D01*
X186945994Y-77569691D01*
X187037206Y-77517030D01*
X187111680Y-77442556D01*
X187164341Y-77351344D01*
X187191600Y-77249611D01*
X187191600Y-77243398D01*
X187871074Y-77922872D01*
X187871074Y-77922871D01*
X187903459Y-77878299D01*
X187996355Y-77695981D01*
X188059590Y-77501367D01*
X188091600Y-77299267D01*
X188091600Y-77094632D01*
X188059590Y-76892532D01*
X187996355Y-76697918D01*
X187903459Y-76515600D01*
X187871074Y-76471027D01*
X187871074Y-76471026D01*
X187191600Y-77150501D01*
X187191600Y-77144289D01*
X187164341Y-77042556D01*
X187111680Y-76951344D01*
X187037206Y-76876870D01*
X186945994Y-76824209D01*
X186844261Y-76796950D01*
X186838046Y-76796950D01*
X187517522Y-76117474D01*
X187517521Y-76117473D01*
X187472959Y-76085097D01*
X187472950Y-76085091D01*
X187290631Y-75992194D01*
X187096017Y-75928959D01*
X186893917Y-75896950D01*
X186689283Y-75896950D01*
X186487182Y-75928959D01*
X186292568Y-75992194D01*
X186110244Y-76085093D01*
X186065677Y-76117473D01*
X186065677Y-76117474D01*
X186745154Y-76796950D01*
X186738939Y-76796950D01*
X186637206Y-76824209D01*
X186545994Y-76876870D01*
X186471520Y-76951344D01*
X186418859Y-77042556D01*
X186391600Y-77144289D01*
X186391600Y-77150503D01*
X185712124Y-76471027D01*
X185712123Y-76471027D01*
X185679743Y-76515594D01*
X185586844Y-76697918D01*
X185523609Y-76892532D01*
X185491600Y-77094632D01*
X149681722Y-77094632D01*
X149691374Y-77080187D01*
X149701172Y-77056529D01*
X149705803Y-77049598D01*
X149706901Y-77044555D01*
X149728048Y-77016305D01*
X150180757Y-76563598D01*
X150242080Y-76530113D01*
X150268438Y-76527279D01*
X151478123Y-76527279D01*
X151575665Y-76507875D01*
X151623116Y-76498437D01*
X151759698Y-76441863D01*
X151833005Y-76392881D01*
X151882619Y-76359731D01*
X152415111Y-75827239D01*
X153731066Y-74511282D01*
X153792389Y-74477797D01*
X153862080Y-74482781D01*
X153918014Y-74524653D01*
X153926133Y-74536962D01*
X153959013Y-74593911D01*
X153959018Y-74593917D01*
X153959019Y-74593919D01*
X154104886Y-74784018D01*
X154104892Y-74784025D01*
X154274324Y-74953457D01*
X154274331Y-74953463D01*
X154369227Y-75026279D01*
X154464439Y-75099337D01*
X154464446Y-75099341D01*
X154671954Y-75219147D01*
X154671959Y-75219149D01*
X154671962Y-75219151D01*
X154773463Y-75261194D01*
X154893345Y-75310851D01*
X154893346Y-75310851D01*
X154893348Y-75310852D01*
X155124810Y-75372872D01*
X155351705Y-75402743D01*
X155362371Y-75404148D01*
X155362387Y-75404150D01*
X155362394Y-75404150D01*
X155602006Y-75404150D01*
X155602013Y-75404150D01*
X155839590Y-75372872D01*
X156071052Y-75310852D01*
X156292438Y-75219151D01*
X156499961Y-75099337D01*
X156690070Y-74953462D01*
X156859512Y-74784020D01*
X157005387Y-74593911D01*
X157125201Y-74386388D01*
X157216902Y-74165002D01*
X157278922Y-73933540D01*
X157310200Y-73695963D01*
X157310200Y-73456337D01*
X157278922Y-73218760D01*
X157216902Y-72987298D01*
X157125201Y-72765912D01*
X157125199Y-72765909D01*
X157125197Y-72765904D01*
X157106864Y-72734150D01*
X157090391Y-72666249D01*
X157113244Y-72600223D01*
X157168165Y-72557032D01*
X157214251Y-72548150D01*
X158195149Y-72548150D01*
X158262188Y-72567835D01*
X158307943Y-72620639D01*
X158317887Y-72689797D01*
X158302536Y-72734150D01*
X158284202Y-72765904D01*
X158284197Y-72765915D01*
X158192498Y-72987295D01*
X158130478Y-73218761D01*
X158099200Y-73456329D01*
X158099200Y-73695970D01*
X158117412Y-73834295D01*
X158130478Y-73933540D01*
X158161488Y-74049271D01*
X158192498Y-74165004D01*
X158284197Y-74386384D01*
X158284202Y-74386395D01*
X158404008Y-74593903D01*
X158404019Y-74593919D01*
X158549886Y-74784018D01*
X158549892Y-74784025D01*
X158719324Y-74953457D01*
X158719331Y-74953463D01*
X158814227Y-75026279D01*
X158909439Y-75099337D01*
X158909446Y-75099341D01*
X159116954Y-75219147D01*
X159116959Y-75219149D01*
X159116962Y-75219151D01*
X159218463Y-75261194D01*
X159338345Y-75310851D01*
X159338346Y-75310851D01*
X159338348Y-75310852D01*
X159569810Y-75372872D01*
X159796705Y-75402743D01*
X159807371Y-75404148D01*
X159807387Y-75404150D01*
X159807394Y-75404150D01*
X160047006Y-75404150D01*
X160047013Y-75404150D01*
X160284590Y-75372872D01*
X160516052Y-75310852D01*
X160737438Y-75219151D01*
X160944961Y-75099337D01*
X161135070Y-74953462D01*
X161304512Y-74784020D01*
X161450387Y-74593911D01*
X161570201Y-74386388D01*
X161661902Y-74165002D01*
X161723922Y-73933540D01*
X161755200Y-73695963D01*
X161755200Y-73456337D01*
X161723922Y-73218760D01*
X161661902Y-72987298D01*
X161570201Y-72765912D01*
X161570199Y-72765909D01*
X161570197Y-72765904D01*
X161551864Y-72734150D01*
X161535391Y-72666249D01*
X161558244Y-72600223D01*
X161613165Y-72557032D01*
X161659251Y-72548150D01*
X194666256Y-72548150D01*
X194733295Y-72567835D01*
X194753937Y-72584469D01*
X195134533Y-72965066D01*
X195134540Y-72965072D01*
X195316578Y-73104754D01*
X195316582Y-73104756D01*
X195316588Y-73104761D01*
X195515313Y-73219496D01*
X195515316Y-73219497D01*
X195515321Y-73219500D01*
X195727306Y-73307306D01*
X195727308Y-73307306D01*
X195727314Y-73307309D01*
X195948961Y-73366700D01*
X196119590Y-73389163D01*
X196176466Y-73396651D01*
X196176467Y-73396651D01*
X196405935Y-73396651D01*
X196451435Y-73390660D01*
X196633439Y-73366700D01*
X196855087Y-73307309D01*
X196926073Y-73277906D01*
X197067079Y-73219500D01*
X197067080Y-73219498D01*
X197067088Y-73219496D01*
X197265813Y-73104761D01*
X197447861Y-72965071D01*
X197610120Y-72802812D01*
X197749810Y-72620764D01*
X197864545Y-72422039D01*
X197952358Y-72210038D01*
X198011749Y-71988390D01*
X198041700Y-71760885D01*
X198041700Y-71531418D01*
X198011749Y-71303912D01*
X197952358Y-71082265D01*
X197952355Y-71082257D01*
X197864549Y-70870272D01*
X197864544Y-70870263D01*
X197749810Y-70671539D01*
X197749805Y-70671533D01*
X197749803Y-70671529D01*
X197610121Y-70489491D01*
X197610115Y-70489484D01*
X196599367Y-69478736D01*
X196599362Y-69478732D01*
X196599361Y-69478731D01*
X196599360Y-69478730D01*
X196508335Y-69408885D01*
X196508334Y-69408884D01*
X196417321Y-69339046D01*
X196417312Y-69339040D01*
X196417311Y-69339039D01*
X196406657Y-69332888D01*
X196218590Y-69224307D01*
X196218575Y-69224300D01*
X196006586Y-69136492D01*
X195784938Y-69077102D01*
X195784932Y-69077101D01*
X195784931Y-69077101D01*
X195775061Y-69075801D01*
X195758470Y-69073617D01*
X195758469Y-69073616D01*
X195557443Y-69047151D01*
X195557438Y-69047150D01*
X195557433Y-69047150D01*
X140360966Y-69047150D01*
X140360960Y-69047150D01*
X140360955Y-69047151D01*
X140159928Y-69073616D01*
X140159928Y-69073617D01*
X140155915Y-69074145D01*
X140133463Y-69077101D01*
X139911812Y-69136492D01*
X139699823Y-69224300D01*
X139699808Y-69224307D01*
X139501090Y-69339037D01*
X139501087Y-69339040D01*
X139319039Y-69478729D01*
X139319032Y-69478735D01*
X137085936Y-71711831D01*
X137024613Y-71745316D01*
X136998255Y-71748150D01*
X136321829Y-71748150D01*
X136321823Y-71748151D01*
X136262216Y-71754558D01*
X136127371Y-71804852D01*
X136127364Y-71804856D01*
X136012155Y-71891102D01*
X136012152Y-71891105D01*
X135925906Y-72006314D01*
X135925902Y-72006321D01*
X135875608Y-72141167D01*
X135869201Y-72200766D01*
X135869200Y-72200785D01*
X135869200Y-74951520D01*
X135869201Y-74951526D01*
X135875608Y-75011133D01*
X135925902Y-75145978D01*
X135925906Y-75145985D01*
X136012152Y-75261194D01*
X136012155Y-75261197D01*
X136127364Y-75347443D01*
X136127371Y-75347447D01*
X136262217Y-75397741D01*
X136262216Y-75397741D01*
X136269144Y-75398485D01*
X136321827Y-75404150D01*
X139072572Y-75404149D01*
X139132183Y-75397741D01*
X139267031Y-75347446D01*
X139382246Y-75261196D01*
X139468496Y-75145981D01*
X139518791Y-75011133D01*
X139525200Y-74951523D01*
X139525199Y-74275091D01*
X139544883Y-74208053D01*
X139561513Y-74187416D01*
X140106011Y-73642918D01*
X140167332Y-73609435D01*
X140237024Y-73614419D01*
X140292957Y-73656291D01*
X140316629Y-73714415D01*
X140345478Y-73933540D01*
X140387475Y-74090275D01*
X140391700Y-74122368D01*
X140391700Y-100025809D01*
X140372015Y-100092848D01*
X140355381Y-100113490D01*
X136967443Y-103501427D01*
X136906120Y-103534912D01*
X136836428Y-103529928D01*
X136780495Y-103488056D01*
X136769278Y-103470042D01*
X136751739Y-103435621D01*
X136631050Y-103269506D01*
X136631046Y-103269501D01*
X136485848Y-103124303D01*
X136437613Y-103089258D01*
X136394948Y-103033928D01*
X136386500Y-102988941D01*
X136386500Y-100795829D01*
X136378952Y-100757887D01*
X136364955Y-100687519D01*
X136357659Y-100650838D01*
X136302270Y-100517119D01*
X136301423Y-100514762D01*
X136218954Y-100391338D01*
X136218953Y-100391337D01*
X136218951Y-100391334D01*
X136114416Y-100286799D01*
X134964266Y-99136649D01*
X133723418Y-97895800D01*
X133689933Y-97834477D01*
X133691323Y-97776028D01*
X133748093Y-97564164D01*
X133778900Y-97330161D01*
X133778900Y-97094139D01*
X133748093Y-96860136D01*
X133687006Y-96632157D01*
X133596684Y-96414101D01*
X133596682Y-96414098D01*
X133596680Y-96414093D01*
X133522580Y-96285750D01*
X133478673Y-96209700D01*
X133334992Y-96022451D01*
X133334987Y-96022445D01*
X133168104Y-95855562D01*
X133168097Y-95855556D01*
X132980854Y-95711880D01*
X132980853Y-95711879D01*
X132980850Y-95711877D01*
X132899357Y-95664827D01*
X132776456Y-95593869D01*
X132776445Y-95593864D01*
X132558393Y-95503544D01*
X132330410Y-95442456D01*
X132096420Y-95411651D01*
X132096417Y-95411650D01*
X132096411Y-95411650D01*
X131860389Y-95411650D01*
X131860383Y-95411650D01*
X131860379Y-95411651D01*
X131626389Y-95442456D01*
X131398406Y-95503544D01*
X131180354Y-95593864D01*
X131180343Y-95593869D01*
X130975945Y-95711880D01*
X130788702Y-95855556D01*
X130788695Y-95855562D01*
X130621812Y-96022445D01*
X130621806Y-96022452D01*
X130478130Y-96209695D01*
X130360119Y-96414093D01*
X130360114Y-96414104D01*
X130269794Y-96632156D01*
X130208706Y-96860139D01*
X130177901Y-97094129D01*
X130177900Y-97094145D01*
X84269700Y-97094145D01*
X84269700Y-79417391D01*
X95434401Y-79417391D01*
X95434401Y-79650108D01*
X95470803Y-79879943D01*
X95542715Y-80101263D01*
X95648362Y-80308604D01*
X95785134Y-80496856D01*
X95785138Y-80496861D01*
X95949689Y-80661412D01*
X95949694Y-80661416D01*
X96113898Y-80780716D01*
X96137950Y-80798191D01*
X96270067Y-80865508D01*
X96345287Y-80903835D01*
X96345289Y-80903835D01*
X96345292Y-80903837D01*
X96463923Y-80942382D01*
X96566607Y-80975747D01*
X96796443Y-81012150D01*
X96796448Y-81012150D01*
X97029159Y-81012150D01*
X97258994Y-80975747D01*
X97480310Y-80903837D01*
X97687652Y-80798191D01*
X97875914Y-80661411D01*
X98040462Y-80496863D01*
X98177242Y-80308601D01*
X98282888Y-80101259D01*
X98354798Y-79879943D01*
X98367373Y-79800549D01*
X98391201Y-79650108D01*
X98391201Y-79417391D01*
X100934400Y-79417391D01*
X100934400Y-79650108D01*
X100970802Y-79879943D01*
X101042714Y-80101263D01*
X101148361Y-80308604D01*
X101285133Y-80496856D01*
X101285137Y-80496861D01*
X101449688Y-80661412D01*
X101449693Y-80661416D01*
X101613897Y-80780716D01*
X101637949Y-80798191D01*
X101770066Y-80865508D01*
X101845286Y-80903835D01*
X101845288Y-80903835D01*
X101845291Y-80903837D01*
X101963922Y-80942382D01*
X102066606Y-80975747D01*
X102296442Y-81012150D01*
X102296447Y-81012150D01*
X102529158Y-81012150D01*
X102758993Y-80975747D01*
X102980309Y-80903837D01*
X103187651Y-80798191D01*
X103375913Y-80661411D01*
X103540461Y-80496863D01*
X103677241Y-80308601D01*
X103782887Y-80101259D01*
X103854797Y-79879943D01*
X103867372Y-79800549D01*
X103891200Y-79650108D01*
X103891200Y-79571750D01*
X129521700Y-79571750D01*
X129521700Y-79800549D01*
X129521701Y-79800565D01*
X129551565Y-80027407D01*
X129610787Y-80248426D01*
X129698348Y-80459817D01*
X129698353Y-80459828D01*
X129767143Y-80578974D01*
X129812756Y-80657978D01*
X129812758Y-80657981D01*
X129812759Y-80657982D01*
X129952046Y-80839505D01*
X129952052Y-80839512D01*
X130113837Y-81001297D01*
X130113843Y-81001302D01*
X130295372Y-81140594D01*
X130422727Y-81214122D01*
X130493521Y-81254996D01*
X130493526Y-81254998D01*
X130493529Y-81255000D01*
X130704924Y-81342563D01*
X130925939Y-81401784D01*
X131152794Y-81431650D01*
X131152801Y-81431650D01*
X131381599Y-81431650D01*
X131381606Y-81431650D01*
X131608461Y-81401784D01*
X131829476Y-81342563D01*
X132040871Y-81255000D01*
X132239028Y-81140594D01*
X132420557Y-81001302D01*
X132582352Y-80839507D01*
X132721644Y-80657978D01*
X132836050Y-80459821D01*
X132923613Y-80248426D01*
X132982834Y-80027411D01*
X133012700Y-79800556D01*
X133012700Y-79571744D01*
X132982834Y-79344889D01*
X132923613Y-79123874D01*
X132836050Y-78912479D01*
X132836048Y-78912476D01*
X132836046Y-78912471D01*
X132795172Y-78841677D01*
X132721644Y-78714322D01*
X132611395Y-78570643D01*
X132582353Y-78532794D01*
X132582347Y-78532787D01*
X132420562Y-78371002D01*
X132420555Y-78370996D01*
X132239032Y-78231709D01*
X132239031Y-78231708D01*
X132239028Y-78231706D01*
X132121176Y-78163664D01*
X132040878Y-78117303D01*
X132040867Y-78117298D01*
X131829476Y-78029737D01*
X131608457Y-77970515D01*
X131381615Y-77940651D01*
X131381612Y-77940650D01*
X131381606Y-77940650D01*
X131152794Y-77940650D01*
X131152788Y-77940650D01*
X131152784Y-77940651D01*
X130925942Y-77970515D01*
X130704923Y-78029737D01*
X130493532Y-78117298D01*
X130493521Y-78117303D01*
X130308323Y-78224228D01*
X130302590Y-78227539D01*
X130295367Y-78231709D01*
X130113844Y-78370996D01*
X130113837Y-78371002D01*
X129952052Y-78532787D01*
X129952046Y-78532794D01*
X129812759Y-78714317D01*
X129698353Y-78912471D01*
X129698348Y-78912482D01*
X129610787Y-79123873D01*
X129551565Y-79344892D01*
X129521701Y-79571734D01*
X129521700Y-79571750D01*
X103891200Y-79571750D01*
X103891200Y-79417391D01*
X103854797Y-79187556D01*
X103782885Y-78966236D01*
X103744558Y-78891016D01*
X103677241Y-78758899D01*
X103644850Y-78714317D01*
X103540466Y-78570643D01*
X103540462Y-78570638D01*
X103375911Y-78406087D01*
X103375906Y-78406083D01*
X103187654Y-78269311D01*
X103187653Y-78269310D01*
X103187651Y-78269309D01*
X103113851Y-78231706D01*
X102980313Y-78163664D01*
X102758993Y-78091752D01*
X102529158Y-78055350D01*
X102529153Y-78055350D01*
X102296447Y-78055350D01*
X102296442Y-78055350D01*
X102066606Y-78091752D01*
X101845286Y-78163664D01*
X101637945Y-78269311D01*
X101449693Y-78406083D01*
X101449688Y-78406087D01*
X101285137Y-78570638D01*
X101285133Y-78570643D01*
X101148361Y-78758895D01*
X101042714Y-78966236D01*
X100970802Y-79187556D01*
X100934400Y-79417391D01*
X98391201Y-79417391D01*
X98354798Y-79187556D01*
X98282886Y-78966236D01*
X98244559Y-78891016D01*
X98177242Y-78758899D01*
X98144851Y-78714317D01*
X98040467Y-78570643D01*
X98040463Y-78570638D01*
X97875912Y-78406087D01*
X97875907Y-78406083D01*
X97687655Y-78269311D01*
X97687654Y-78269310D01*
X97687652Y-78269309D01*
X97613852Y-78231706D01*
X97480314Y-78163664D01*
X97258994Y-78091752D01*
X97029159Y-78055350D01*
X97029154Y-78055350D01*
X96796448Y-78055350D01*
X96796443Y-78055350D01*
X96566607Y-78091752D01*
X96345287Y-78163664D01*
X96137946Y-78269311D01*
X95949694Y-78406083D01*
X95949689Y-78406087D01*
X95785138Y-78570638D01*
X95785134Y-78570643D01*
X95648362Y-78758895D01*
X95542715Y-78966236D01*
X95470803Y-79187556D01*
X95434401Y-79417391D01*
X84269700Y-79417391D01*
X84269700Y-64336329D01*
X135869200Y-64336329D01*
X135869200Y-64575970D01*
X135893527Y-64760745D01*
X135900478Y-64813540D01*
X135931488Y-64929271D01*
X135962498Y-65045004D01*
X136054197Y-65266384D01*
X136054202Y-65266395D01*
X136174008Y-65473903D01*
X136174019Y-65473919D01*
X136319886Y-65664018D01*
X136319892Y-65664025D01*
X136489324Y-65833457D01*
X136489330Y-65833462D01*
X136679439Y-65979337D01*
X136679441Y-65979338D01*
X136886954Y-66099147D01*
X136886959Y-66099149D01*
X136886962Y-66099151D01*
X136997655Y-66145001D01*
X137108345Y-66190851D01*
X137108346Y-66190851D01*
X137108348Y-66190852D01*
X137339810Y-66252872D01*
X137577387Y-66284150D01*
X137577394Y-66284150D01*
X137817006Y-66284150D01*
X137817013Y-66284150D01*
X138054590Y-66252872D01*
X138286052Y-66190852D01*
X138507438Y-66099151D01*
X138714961Y-65979337D01*
X138905070Y-65833462D01*
X139074512Y-65664020D01*
X139220387Y-65473911D01*
X139340201Y-65266388D01*
X139431902Y-65045002D01*
X139493922Y-64813540D01*
X139525200Y-64575963D01*
X139525200Y-64336337D01*
X139525199Y-64336329D01*
X140314200Y-64336329D01*
X140314200Y-64575970D01*
X140338527Y-64760745D01*
X140345478Y-64813540D01*
X140376488Y-64929271D01*
X140407498Y-65045004D01*
X140499197Y-65266384D01*
X140499202Y-65266395D01*
X140619008Y-65473903D01*
X140619019Y-65473919D01*
X140764886Y-65664018D01*
X140764892Y-65664025D01*
X140934324Y-65833457D01*
X140934330Y-65833462D01*
X141124439Y-65979337D01*
X141124441Y-65979338D01*
X141331954Y-66099147D01*
X141331959Y-66099149D01*
X141331962Y-66099151D01*
X141442655Y-66145001D01*
X141553345Y-66190851D01*
X141553346Y-66190851D01*
X141553348Y-66190852D01*
X141784810Y-66252872D01*
X142022387Y-66284150D01*
X142022394Y-66284150D01*
X142262006Y-66284150D01*
X142262013Y-66284150D01*
X142499590Y-66252872D01*
X142731052Y-66190852D01*
X142952438Y-66099151D01*
X143159961Y-65979337D01*
X143350070Y-65833462D01*
X143519512Y-65664020D01*
X143665387Y-65473911D01*
X143785201Y-65266388D01*
X143876902Y-65045002D01*
X143938922Y-64813540D01*
X143970200Y-64575963D01*
X143970200Y-64336337D01*
X143970199Y-64336329D01*
X144759200Y-64336329D01*
X144759200Y-64575970D01*
X144783527Y-64760745D01*
X144790478Y-64813540D01*
X144821488Y-64929271D01*
X144852498Y-65045004D01*
X144944197Y-65266384D01*
X144944202Y-65266395D01*
X145064008Y-65473903D01*
X145064019Y-65473919D01*
X145209886Y-65664018D01*
X145209892Y-65664025D01*
X145379324Y-65833457D01*
X145379330Y-65833462D01*
X145569439Y-65979337D01*
X145569441Y-65979338D01*
X145776954Y-66099147D01*
X145776959Y-66099149D01*
X145776962Y-66099151D01*
X145887655Y-66145001D01*
X145998345Y-66190851D01*
X145998346Y-66190851D01*
X145998348Y-66190852D01*
X146229810Y-66252872D01*
X146467387Y-66284150D01*
X146467394Y-66284150D01*
X146707006Y-66284150D01*
X146707013Y-66284150D01*
X146944590Y-66252872D01*
X147176052Y-66190852D01*
X147397438Y-66099151D01*
X147604961Y-65979337D01*
X147795070Y-65833462D01*
X147964512Y-65664020D01*
X148110387Y-65473911D01*
X148230201Y-65266388D01*
X148321902Y-65045002D01*
X148383922Y-64813540D01*
X148415200Y-64575963D01*
X148415200Y-64336337D01*
X148415199Y-64336329D01*
X149209200Y-64336329D01*
X149209200Y-64575970D01*
X149233527Y-64760745D01*
X149240478Y-64813540D01*
X149271488Y-64929271D01*
X149302498Y-65045004D01*
X149394197Y-65266384D01*
X149394202Y-65266395D01*
X149514008Y-65473903D01*
X149514019Y-65473919D01*
X149659886Y-65664018D01*
X149659892Y-65664025D01*
X149829324Y-65833457D01*
X149829330Y-65833462D01*
X150019439Y-65979337D01*
X150019441Y-65979338D01*
X150226954Y-66099147D01*
X150226959Y-66099149D01*
X150226962Y-66099151D01*
X150337655Y-66145001D01*
X150448345Y-66190851D01*
X150448346Y-66190851D01*
X150448348Y-66190852D01*
X150679810Y-66252872D01*
X150917387Y-66284150D01*
X150917394Y-66284150D01*
X151157006Y-66284150D01*
X151157013Y-66284150D01*
X151394590Y-66252872D01*
X151626052Y-66190852D01*
X151847438Y-66099151D01*
X152054961Y-65979337D01*
X152245070Y-65833462D01*
X152414512Y-65664020D01*
X152560387Y-65473911D01*
X152680201Y-65266388D01*
X152771902Y-65045002D01*
X152833922Y-64813540D01*
X152865200Y-64575963D01*
X152865200Y-64336337D01*
X152865199Y-64336329D01*
X153654200Y-64336329D01*
X153654200Y-64575970D01*
X153678527Y-64760745D01*
X153685478Y-64813540D01*
X153716488Y-64929271D01*
X153747498Y-65045004D01*
X153839197Y-65266384D01*
X153839202Y-65266395D01*
X153959008Y-65473903D01*
X153959019Y-65473919D01*
X154104886Y-65664018D01*
X154104892Y-65664025D01*
X154274324Y-65833457D01*
X154274330Y-65833462D01*
X154464439Y-65979337D01*
X154464441Y-65979338D01*
X154671954Y-66099147D01*
X154671959Y-66099149D01*
X154671962Y-66099151D01*
X154782655Y-66145001D01*
X154893345Y-66190851D01*
X154893346Y-66190851D01*
X154893348Y-66190852D01*
X155124810Y-66252872D01*
X155362387Y-66284150D01*
X155362394Y-66284150D01*
X155602006Y-66284150D01*
X155602013Y-66284150D01*
X155839590Y-66252872D01*
X156071052Y-66190852D01*
X156292438Y-66099151D01*
X156499961Y-65979337D01*
X156690070Y-65833462D01*
X156859512Y-65664020D01*
X157005387Y-65473911D01*
X157125201Y-65266388D01*
X157216902Y-65045002D01*
X157278922Y-64813540D01*
X157310200Y-64575963D01*
X157310200Y-64336337D01*
X157310199Y-64336329D01*
X158099200Y-64336329D01*
X158099200Y-64575970D01*
X158123527Y-64760745D01*
X158130478Y-64813540D01*
X158161488Y-64929271D01*
X158192498Y-65045004D01*
X158284197Y-65266384D01*
X158284202Y-65266395D01*
X158404008Y-65473903D01*
X158404019Y-65473919D01*
X158549886Y-65664018D01*
X158549892Y-65664025D01*
X158719324Y-65833457D01*
X158719330Y-65833462D01*
X158909439Y-65979337D01*
X158909441Y-65979338D01*
X159116954Y-66099147D01*
X159116959Y-66099149D01*
X159116962Y-66099151D01*
X159227655Y-66145001D01*
X159338345Y-66190851D01*
X159338346Y-66190851D01*
X159338348Y-66190852D01*
X159569810Y-66252872D01*
X159807387Y-66284150D01*
X159807394Y-66284150D01*
X160047006Y-66284150D01*
X160047013Y-66284150D01*
X160284590Y-66252872D01*
X160516052Y-66190852D01*
X160737438Y-66099151D01*
X160944961Y-65979337D01*
X161135070Y-65833462D01*
X161304512Y-65664020D01*
X161450387Y-65473911D01*
X161570201Y-65266388D01*
X161661902Y-65045002D01*
X161723922Y-64813540D01*
X161755200Y-64575963D01*
X161755200Y-64336337D01*
X161723922Y-64098760D01*
X161661902Y-63867298D01*
X161570201Y-63645912D01*
X161570199Y-63645909D01*
X161570197Y-63645904D01*
X161450391Y-63438396D01*
X161450387Y-63438389D01*
X161304512Y-63248280D01*
X161304507Y-63248274D01*
X161135075Y-63078842D01*
X161135068Y-63078836D01*
X160944969Y-62932969D01*
X160944967Y-62932967D01*
X160944961Y-62932963D01*
X160944956Y-62932960D01*
X160944953Y-62932958D01*
X160737445Y-62813152D01*
X160737434Y-62813147D01*
X160516054Y-62721448D01*
X160400321Y-62690438D01*
X160284590Y-62659428D01*
X160231795Y-62652477D01*
X160047020Y-62628150D01*
X160047013Y-62628150D01*
X159807387Y-62628150D01*
X159807379Y-62628150D01*
X159596207Y-62655952D01*
X159569810Y-62659428D01*
X159511944Y-62674933D01*
X159338345Y-62721448D01*
X159116965Y-62813147D01*
X159116954Y-62813152D01*
X158909446Y-62932958D01*
X158909430Y-62932969D01*
X158719331Y-63078836D01*
X158719324Y-63078842D01*
X158549892Y-63248274D01*
X158549886Y-63248281D01*
X158404019Y-63438380D01*
X158404008Y-63438396D01*
X158284202Y-63645904D01*
X158284197Y-63645915D01*
X158192498Y-63867295D01*
X158130478Y-64098761D01*
X158099200Y-64336329D01*
X157310199Y-64336329D01*
X157278922Y-64098760D01*
X157216902Y-63867298D01*
X157125201Y-63645912D01*
X157125199Y-63645909D01*
X157125197Y-63645904D01*
X157005391Y-63438396D01*
X157005387Y-63438389D01*
X156859512Y-63248280D01*
X156859507Y-63248274D01*
X156690075Y-63078842D01*
X156690068Y-63078836D01*
X156499969Y-62932969D01*
X156499967Y-62932967D01*
X156499961Y-62932963D01*
X156499956Y-62932960D01*
X156499953Y-62932958D01*
X156292445Y-62813152D01*
X156292434Y-62813147D01*
X156071054Y-62721448D01*
X155955321Y-62690438D01*
X155839590Y-62659428D01*
X155786795Y-62652477D01*
X155602020Y-62628150D01*
X155602013Y-62628150D01*
X155362387Y-62628150D01*
X155362379Y-62628150D01*
X155151207Y-62655952D01*
X155124810Y-62659428D01*
X155066944Y-62674933D01*
X154893345Y-62721448D01*
X154671965Y-62813147D01*
X154671954Y-62813152D01*
X154464446Y-62932958D01*
X154464430Y-62932969D01*
X154274331Y-63078836D01*
X154274324Y-63078842D01*
X154104892Y-63248274D01*
X154104886Y-63248281D01*
X153959019Y-63438380D01*
X153959008Y-63438396D01*
X153839202Y-63645904D01*
X153839197Y-63645915D01*
X153747498Y-63867295D01*
X153685478Y-64098761D01*
X153654200Y-64336329D01*
X152865199Y-64336329D01*
X152833922Y-64098760D01*
X152771902Y-63867298D01*
X152680201Y-63645912D01*
X152680199Y-63645909D01*
X152680197Y-63645904D01*
X152560391Y-63438396D01*
X152560387Y-63438389D01*
X152414512Y-63248280D01*
X152414507Y-63248274D01*
X152245075Y-63078842D01*
X152245068Y-63078836D01*
X152054969Y-62932969D01*
X152054967Y-62932967D01*
X152054961Y-62932963D01*
X152054956Y-62932960D01*
X152054953Y-62932958D01*
X151847445Y-62813152D01*
X151847434Y-62813147D01*
X151626054Y-62721448D01*
X151510321Y-62690438D01*
X151394590Y-62659428D01*
X151341795Y-62652477D01*
X151157020Y-62628150D01*
X151157013Y-62628150D01*
X150917387Y-62628150D01*
X150917379Y-62628150D01*
X150706207Y-62655952D01*
X150679810Y-62659428D01*
X150621944Y-62674933D01*
X150448345Y-62721448D01*
X150226965Y-62813147D01*
X150226954Y-62813152D01*
X150019446Y-62932958D01*
X150019430Y-62932969D01*
X149829331Y-63078836D01*
X149829324Y-63078842D01*
X149659892Y-63248274D01*
X149659886Y-63248281D01*
X149514019Y-63438380D01*
X149514008Y-63438396D01*
X149394202Y-63645904D01*
X149394197Y-63645915D01*
X149302498Y-63867295D01*
X149240478Y-64098761D01*
X149209200Y-64336329D01*
X148415199Y-64336329D01*
X148383922Y-64098760D01*
X148321902Y-63867298D01*
X148230201Y-63645912D01*
X148230199Y-63645909D01*
X148230197Y-63645904D01*
X148110391Y-63438396D01*
X148110387Y-63438389D01*
X147964512Y-63248280D01*
X147964507Y-63248274D01*
X147795075Y-63078842D01*
X147795068Y-63078836D01*
X147604969Y-62932969D01*
X147604967Y-62932967D01*
X147604961Y-62932963D01*
X147604956Y-62932960D01*
X147604953Y-62932958D01*
X147397445Y-62813152D01*
X147397434Y-62813147D01*
X147176054Y-62721448D01*
X147060321Y-62690438D01*
X146944590Y-62659428D01*
X146891795Y-62652477D01*
X146707020Y-62628150D01*
X146707013Y-62628150D01*
X146467387Y-62628150D01*
X146467379Y-62628150D01*
X146256207Y-62655952D01*
X146229810Y-62659428D01*
X146171944Y-62674933D01*
X145998345Y-62721448D01*
X145776965Y-62813147D01*
X145776954Y-62813152D01*
X145569446Y-62932958D01*
X145569430Y-62932969D01*
X145379331Y-63078836D01*
X145379324Y-63078842D01*
X145209892Y-63248274D01*
X145209886Y-63248281D01*
X145064019Y-63438380D01*
X145064008Y-63438396D01*
X144944202Y-63645904D01*
X144944197Y-63645915D01*
X144852498Y-63867295D01*
X144790478Y-64098761D01*
X144759200Y-64336329D01*
X143970199Y-64336329D01*
X143938922Y-64098760D01*
X143876902Y-63867298D01*
X143785201Y-63645912D01*
X143785199Y-63645909D01*
X143785197Y-63645904D01*
X143665391Y-63438396D01*
X143665387Y-63438389D01*
X143519512Y-63248280D01*
X143519507Y-63248274D01*
X143350075Y-63078842D01*
X143350068Y-63078836D01*
X143159969Y-62932969D01*
X143159967Y-62932967D01*
X143159961Y-62932963D01*
X143159956Y-62932960D01*
X143159953Y-62932958D01*
X142952445Y-62813152D01*
X142952434Y-62813147D01*
X142731054Y-62721448D01*
X142615321Y-62690438D01*
X142499590Y-62659428D01*
X142446795Y-62652477D01*
X142262020Y-62628150D01*
X142262013Y-62628150D01*
X142022387Y-62628150D01*
X142022379Y-62628150D01*
X141811207Y-62655952D01*
X141784810Y-62659428D01*
X141726944Y-62674933D01*
X141553345Y-62721448D01*
X141331965Y-62813147D01*
X141331954Y-62813152D01*
X141124446Y-62932958D01*
X141124430Y-62932969D01*
X140934331Y-63078836D01*
X140934324Y-63078842D01*
X140764892Y-63248274D01*
X140764886Y-63248281D01*
X140619019Y-63438380D01*
X140619008Y-63438396D01*
X140499202Y-63645904D01*
X140499197Y-63645915D01*
X140407498Y-63867295D01*
X140345478Y-64098761D01*
X140314200Y-64336329D01*
X139525199Y-64336329D01*
X139493922Y-64098760D01*
X139431902Y-63867298D01*
X139340201Y-63645912D01*
X139340199Y-63645909D01*
X139340197Y-63645904D01*
X139220391Y-63438396D01*
X139220387Y-63438389D01*
X139074512Y-63248280D01*
X139074507Y-63248274D01*
X138905075Y-63078842D01*
X138905068Y-63078836D01*
X138714969Y-62932969D01*
X138714967Y-62932967D01*
X138714961Y-62932963D01*
X138714956Y-62932960D01*
X138714953Y-62932958D01*
X138507445Y-62813152D01*
X138507434Y-62813147D01*
X138286054Y-62721448D01*
X138170321Y-62690438D01*
X138054590Y-62659428D01*
X138001795Y-62652477D01*
X137817020Y-62628150D01*
X137817013Y-62628150D01*
X137577387Y-62628150D01*
X137577379Y-62628150D01*
X137366207Y-62655952D01*
X137339810Y-62659428D01*
X137281944Y-62674933D01*
X137108345Y-62721448D01*
X136886965Y-62813147D01*
X136886954Y-62813152D01*
X136679446Y-62932958D01*
X136679430Y-62932969D01*
X136489331Y-63078836D01*
X136489324Y-63078842D01*
X136319892Y-63248274D01*
X136319886Y-63248281D01*
X136174019Y-63438380D01*
X136174008Y-63438396D01*
X136054202Y-63645904D01*
X136054197Y-63645915D01*
X135962498Y-63867295D01*
X135900478Y-64098761D01*
X135869200Y-64336329D01*
X84269700Y-64336329D01*
X84269700Y-56678711D01*
X92749500Y-56678711D01*
X92749500Y-56921288D01*
X92781161Y-57161785D01*
X92843947Y-57396104D01*
X92936773Y-57620205D01*
X92936776Y-57620212D01*
X93058064Y-57830289D01*
X93058066Y-57830292D01*
X93058067Y-57830293D01*
X93205733Y-58022736D01*
X93205739Y-58022743D01*
X93377256Y-58194260D01*
X93377263Y-58194266D01*
X93490321Y-58281018D01*
X93569711Y-58341936D01*
X93779788Y-58463224D01*
X94003900Y-58556054D01*
X94238211Y-58618838D01*
X94418586Y-58642584D01*
X94478711Y-58650500D01*
X94478712Y-58650500D01*
X94721289Y-58650500D01*
X94769388Y-58644167D01*
X94961789Y-58618838D01*
X95196100Y-58556054D01*
X95420212Y-58463224D01*
X95630289Y-58341936D01*
X95773886Y-58231750D01*
X129521700Y-58231750D01*
X129521700Y-58460549D01*
X129521701Y-58460565D01*
X129551565Y-58687407D01*
X129610787Y-58908426D01*
X129698348Y-59119817D01*
X129698353Y-59119828D01*
X129736617Y-59186102D01*
X129812756Y-59317978D01*
X129812758Y-59317981D01*
X129812759Y-59317982D01*
X129952046Y-59499505D01*
X129952052Y-59499512D01*
X130113837Y-59661297D01*
X130113843Y-59661302D01*
X130295372Y-59800594D01*
X130406296Y-59864636D01*
X130493521Y-59914996D01*
X130493526Y-59914998D01*
X130493529Y-59915000D01*
X130704924Y-60002563D01*
X130925939Y-60061784D01*
X131152794Y-60091650D01*
X131152801Y-60091650D01*
X131381599Y-60091650D01*
X131381606Y-60091650D01*
X131608461Y-60061784D01*
X131829476Y-60002563D01*
X132040871Y-59915000D01*
X132239028Y-59800594D01*
X132420557Y-59661302D01*
X132582352Y-59499507D01*
X132721644Y-59317978D01*
X132836050Y-59119821D01*
X132923613Y-58908426D01*
X132982834Y-58687411D01*
X133012700Y-58460556D01*
X133012700Y-58231750D01*
X164601700Y-58231750D01*
X164601700Y-58460549D01*
X164601701Y-58460565D01*
X164631565Y-58687407D01*
X164690787Y-58908426D01*
X164778348Y-59119817D01*
X164778353Y-59119828D01*
X164816617Y-59186102D01*
X164892756Y-59317978D01*
X164892758Y-59317981D01*
X164892759Y-59317982D01*
X165032046Y-59499505D01*
X165032052Y-59499512D01*
X165193837Y-59661297D01*
X165193843Y-59661302D01*
X165375372Y-59800594D01*
X165486296Y-59864636D01*
X165573521Y-59914996D01*
X165573526Y-59914998D01*
X165573529Y-59915000D01*
X165784924Y-60002563D01*
X166005939Y-60061784D01*
X166232794Y-60091650D01*
X166232801Y-60091650D01*
X166461599Y-60091650D01*
X166461606Y-60091650D01*
X166688461Y-60061784D01*
X166909476Y-60002563D01*
X167120871Y-59915000D01*
X167319028Y-59800594D01*
X167500557Y-59661302D01*
X167662352Y-59499507D01*
X167801644Y-59317978D01*
X167916050Y-59119821D01*
X168003613Y-58908426D01*
X168062834Y-58687411D01*
X168092700Y-58460556D01*
X168092700Y-58231744D01*
X168062834Y-58004889D01*
X168037485Y-57910285D01*
X183963700Y-57910285D01*
X183963700Y-59806020D01*
X183963701Y-59806026D01*
X183970108Y-59865633D01*
X184020402Y-60000478D01*
X184020406Y-60000485D01*
X184106652Y-60115694D01*
X184106655Y-60115697D01*
X184221864Y-60201943D01*
X184221871Y-60201947D01*
X184266818Y-60218711D01*
X184356717Y-60252241D01*
X184416327Y-60258650D01*
X184489700Y-60258649D01*
X184556738Y-60278333D01*
X184602494Y-60331136D01*
X184613700Y-60382649D01*
X184613700Y-65683468D01*
X184613700Y-65683470D01*
X184613699Y-65683470D01*
X184642540Y-65828457D01*
X184642543Y-65828467D01*
X184699113Y-65965040D01*
X184699118Y-65965049D01*
X184708666Y-65979338D01*
X184708668Y-65979340D01*
X184781251Y-66087970D01*
X184781252Y-66087971D01*
X185465126Y-66771843D01*
X185498611Y-66833166D01*
X185499918Y-66878921D01*
X185491100Y-66934597D01*
X185491100Y-67139301D01*
X185523122Y-67341484D01*
X185586381Y-67536173D01*
X185679315Y-67718563D01*
X185799628Y-67884163D01*
X185944386Y-68028921D01*
X186099349Y-68141506D01*
X186109990Y-68149237D01*
X186226207Y-68208453D01*
X186292376Y-68242168D01*
X186292378Y-68242168D01*
X186292381Y-68242170D01*
X186396737Y-68276077D01*
X186487065Y-68305427D01*
X186588157Y-68321438D01*
X186689248Y-68337450D01*
X186689249Y-68337450D01*
X186893951Y-68337450D01*
X186893952Y-68337450D01*
X187096134Y-68305427D01*
X187290819Y-68242170D01*
X187473210Y-68149237D01*
X187566190Y-68081682D01*
X187638813Y-68028921D01*
X187638815Y-68028918D01*
X187638819Y-68028916D01*
X187783566Y-67884169D01*
X187783568Y-67884165D01*
X187783571Y-67884163D01*
X187836332Y-67811540D01*
X187903887Y-67718560D01*
X187996820Y-67536169D01*
X188060077Y-67341484D01*
X188092100Y-67139302D01*
X188092100Y-66934598D01*
X188092100Y-66934597D01*
X188060077Y-66732415D01*
X187996818Y-66537726D01*
X187963103Y-66471557D01*
X187903887Y-66355340D01*
X187852165Y-66284150D01*
X187783571Y-66189736D01*
X187638813Y-66044978D01*
X187473213Y-65924665D01*
X187473212Y-65924664D01*
X187473210Y-65924663D01*
X187416253Y-65895641D01*
X187290823Y-65831731D01*
X187096134Y-65768472D01*
X186921595Y-65740828D01*
X186893952Y-65736450D01*
X186689248Y-65736450D01*
X186633571Y-65745268D01*
X186564278Y-65736313D01*
X186526493Y-65710476D01*
X186151019Y-65335001D01*
X186117534Y-65273678D01*
X186114700Y-65247320D01*
X186114700Y-60382649D01*
X186134385Y-60315610D01*
X186187189Y-60269855D01*
X186238700Y-60258649D01*
X186312071Y-60258649D01*
X186312072Y-60258649D01*
X186371683Y-60252241D01*
X186506531Y-60201946D01*
X186621746Y-60115696D01*
X186707996Y-60000481D01*
X186735629Y-59926393D01*
X186737801Y-59920570D01*
X186779671Y-59864636D01*
X186845136Y-59840218D01*
X186913409Y-59855069D01*
X186941664Y-59876221D01*
X186991836Y-59926393D01*
X186991841Y-59926397D01*
X187096676Y-60002563D01*
X187170178Y-60055965D01*
X187298575Y-60121387D01*
X187366593Y-60156045D01*
X187366596Y-60156046D01*
X187471421Y-60190105D01*
X187576249Y-60224165D01*
X187793978Y-60258650D01*
X187793979Y-60258650D01*
X188014421Y-60258650D01*
X188014422Y-60258650D01*
X188232151Y-60224165D01*
X188441806Y-60156045D01*
X188638222Y-60055965D01*
X188816565Y-59926392D01*
X188972442Y-59770515D01*
X189102015Y-59592172D01*
X189202095Y-59395756D01*
X189270215Y-59186101D01*
X189304700Y-58968372D01*
X189304700Y-58747928D01*
X189270215Y-58530199D01*
X189209046Y-58341936D01*
X189202096Y-58320546D01*
X189202095Y-58320543D01*
X189156849Y-58231744D01*
X189102015Y-58124128D01*
X189028355Y-58022743D01*
X188972447Y-57945791D01*
X188972443Y-57945786D01*
X188816563Y-57789906D01*
X188816558Y-57789902D01*
X188638225Y-57660337D01*
X188638224Y-57660336D01*
X188638222Y-57660335D01*
X188520991Y-57600602D01*
X188441806Y-57560254D01*
X188441803Y-57560253D01*
X188232152Y-57492135D01*
X188123286Y-57474892D01*
X188014422Y-57457650D01*
X187793978Y-57457650D01*
X187721401Y-57469145D01*
X187576247Y-57492135D01*
X187366596Y-57560253D01*
X187366593Y-57560254D01*
X187170174Y-57660337D01*
X186991841Y-57789902D01*
X186991836Y-57789906D01*
X186941663Y-57840079D01*
X186880340Y-57873563D01*
X186810648Y-57868578D01*
X186754715Y-57826707D01*
X186737801Y-57795730D01*
X186707997Y-57715821D01*
X186707993Y-57715814D01*
X186621747Y-57600605D01*
X186621744Y-57600602D01*
X186506535Y-57514356D01*
X186506528Y-57514352D01*
X186371682Y-57464058D01*
X186371683Y-57464058D01*
X186312083Y-57457651D01*
X186312081Y-57457650D01*
X186312073Y-57457650D01*
X186312064Y-57457650D01*
X184416329Y-57457650D01*
X184416323Y-57457651D01*
X184356716Y-57464058D01*
X184221871Y-57514352D01*
X184221864Y-57514356D01*
X184106655Y-57600602D01*
X184106652Y-57600605D01*
X184020406Y-57715814D01*
X184020402Y-57715821D01*
X183970108Y-57850667D01*
X183963701Y-57910266D01*
X183963700Y-57910285D01*
X168037485Y-57910285D01*
X168003613Y-57783874D01*
X167916050Y-57572479D01*
X167916048Y-57572476D01*
X167916046Y-57572471D01*
X167849753Y-57457650D01*
X167801644Y-57374322D01*
X167801641Y-57374319D01*
X167801640Y-57374316D01*
X167786158Y-57354140D01*
X167786157Y-57354139D01*
X167731349Y-57282711D01*
X196625100Y-57282711D01*
X196625100Y-57525288D01*
X196656761Y-57765785D01*
X196719547Y-58000104D01*
X196812373Y-58224205D01*
X196812377Y-58224214D01*
X196816728Y-58231750D01*
X196933664Y-58434289D01*
X196933666Y-58434292D01*
X196933667Y-58434293D01*
X197081333Y-58626736D01*
X197081339Y-58626743D01*
X197252856Y-58798260D01*
X197252862Y-58798265D01*
X197445311Y-58945936D01*
X197655388Y-59067224D01*
X197879500Y-59160054D01*
X198113811Y-59222838D01*
X198294186Y-59246584D01*
X198354311Y-59254500D01*
X198354312Y-59254500D01*
X198596889Y-59254500D01*
X198644988Y-59248167D01*
X198837389Y-59222838D01*
X199071700Y-59160054D01*
X199295812Y-59067224D01*
X199505889Y-58945936D01*
X199698338Y-58798265D01*
X199869865Y-58626738D01*
X200017536Y-58434289D01*
X200138824Y-58224212D01*
X200231654Y-58000100D01*
X200294438Y-57765789D01*
X200326100Y-57525288D01*
X200326100Y-57282712D01*
X200294438Y-57042211D01*
X200231654Y-56807900D01*
X200138824Y-56583788D01*
X200017536Y-56373711D01*
X199869865Y-56181262D01*
X199869860Y-56181256D01*
X199698343Y-56009739D01*
X199698336Y-56009733D01*
X199505893Y-55862067D01*
X199505892Y-55862066D01*
X199505889Y-55862064D01*
X199295812Y-55740776D01*
X199295805Y-55740773D01*
X199071704Y-55647947D01*
X198837385Y-55585161D01*
X198596889Y-55553500D01*
X198596888Y-55553500D01*
X198354312Y-55553500D01*
X198354311Y-55553500D01*
X198113814Y-55585161D01*
X197879495Y-55647947D01*
X197655394Y-55740773D01*
X197655385Y-55740777D01*
X197445306Y-55862067D01*
X197252863Y-56009733D01*
X197252856Y-56009739D01*
X197081339Y-56181256D01*
X197081333Y-56181263D01*
X196933667Y-56373706D01*
X196812377Y-56583785D01*
X196812373Y-56583794D01*
X196719547Y-56807895D01*
X196656761Y-57042214D01*
X196625100Y-57282711D01*
X167731349Y-57282711D01*
X167662353Y-57192794D01*
X167662347Y-57192787D01*
X167500562Y-57031002D01*
X167500555Y-57030996D01*
X167319032Y-56891709D01*
X167319031Y-56891708D01*
X167319028Y-56891706D01*
X167240024Y-56846093D01*
X167120878Y-56777303D01*
X167120867Y-56777298D01*
X166909476Y-56689737D01*
X166688457Y-56630515D01*
X166461615Y-56600651D01*
X166461612Y-56600650D01*
X166461606Y-56600650D01*
X166232794Y-56600650D01*
X166232788Y-56600650D01*
X166232784Y-56600651D01*
X166005942Y-56630515D01*
X165784923Y-56689737D01*
X165573532Y-56777298D01*
X165573521Y-56777303D01*
X165375367Y-56891709D01*
X165193844Y-57030996D01*
X165193837Y-57031002D01*
X165032052Y-57192787D01*
X165032046Y-57192794D01*
X164892759Y-57374317D01*
X164778353Y-57572471D01*
X164778348Y-57572482D01*
X164690787Y-57783873D01*
X164631565Y-58004892D01*
X164601701Y-58231734D01*
X164601700Y-58231750D01*
X133012700Y-58231750D01*
X133012700Y-58231744D01*
X132982834Y-58004889D01*
X132923613Y-57783874D01*
X132836050Y-57572479D01*
X132836048Y-57572476D01*
X132836046Y-57572471D01*
X132789663Y-57492135D01*
X132721644Y-57374322D01*
X132582352Y-57192793D01*
X132582347Y-57192787D01*
X132420562Y-57031002D01*
X132420555Y-57030996D01*
X132239032Y-56891709D01*
X132239031Y-56891708D01*
X132239028Y-56891706D01*
X132160024Y-56846093D01*
X132040878Y-56777303D01*
X132040867Y-56777298D01*
X131829476Y-56689737D01*
X131608457Y-56630515D01*
X131381615Y-56600651D01*
X131381612Y-56600650D01*
X131381606Y-56600650D01*
X131152794Y-56600650D01*
X131152788Y-56600650D01*
X131152784Y-56600651D01*
X130925942Y-56630515D01*
X130704923Y-56689737D01*
X130493532Y-56777298D01*
X130493521Y-56777303D01*
X130295367Y-56891709D01*
X130113844Y-57030996D01*
X130113837Y-57031002D01*
X129952052Y-57192787D01*
X129952046Y-57192794D01*
X129812759Y-57374317D01*
X129698353Y-57572471D01*
X129698348Y-57572482D01*
X129610787Y-57783873D01*
X129551565Y-58004892D01*
X129521701Y-58231734D01*
X129521700Y-58231750D01*
X95773886Y-58231750D01*
X95822738Y-58194265D01*
X95822743Y-58194260D01*
X95877000Y-58140004D01*
X95994260Y-58022743D01*
X95994265Y-58022738D01*
X96141936Y-57830289D01*
X96263224Y-57620212D01*
X96356054Y-57396100D01*
X96418838Y-57161789D01*
X96450500Y-56921288D01*
X96450500Y-56678712D01*
X96418838Y-56438211D01*
X96356054Y-56203900D01*
X96263224Y-55979788D01*
X96141936Y-55769711D01*
X95994265Y-55577262D01*
X95994260Y-55577256D01*
X95822743Y-55405739D01*
X95822736Y-55405733D01*
X95630293Y-55258067D01*
X95630292Y-55258066D01*
X95630289Y-55258064D01*
X95420212Y-55136776D01*
X95420205Y-55136773D01*
X95196104Y-55043947D01*
X94961785Y-54981161D01*
X94721289Y-54949500D01*
X94721288Y-54949500D01*
X94478712Y-54949500D01*
X94478711Y-54949500D01*
X94238214Y-54981161D01*
X94003895Y-55043947D01*
X93779794Y-55136773D01*
X93779785Y-55136777D01*
X93569706Y-55258067D01*
X93377263Y-55405733D01*
X93377256Y-55405739D01*
X93205739Y-55577256D01*
X93205733Y-55577263D01*
X93058067Y-55769706D01*
X92936777Y-55979785D01*
X92936773Y-55979794D01*
X92843947Y-56203895D01*
X92781161Y-56438214D01*
X92749500Y-56678711D01*
X84269700Y-56678711D01*
X84269700Y-48071700D01*
X84289385Y-48004661D01*
X84342189Y-47958906D01*
X84393700Y-47947700D01*
X206131500Y-47947700D01*
X206198539Y-47967385D01*
G37*
%TD.AperFunction*%
%TD*%
M02*
