M48
; DRILL file {KiCad 9.0.7} date 2026-04-05T23:17:17-0700
; FORMAT={-:-/ absolute / metric / decimal}
; #@! TF.CreationDate,2026-04-05T23:17:17-07:00
; #@! TF.GenerationSoftware,Kicad,Pcbnew,9.0.7
; #@! TF.FileFunction,Plated,1,2,PTH
FMAT,2
METRIC
; #@! TA.AperFunction,Plated,PTH,ViaDrill
T1C0.300
; #@! TA.AperFunction,Plated,PTH,ComponentDrill
T2C0.800
; #@! TA.AperFunction,Plated,PTH,ComponentDrill
T3C0.900
; #@! TA.AperFunction,Plated,PTH,ComponentDrill
T4C1.092
; #@! TA.AperFunction,Plated,PTH,ComponentDrill
T5C1.100
; #@! TA.AperFunction,Plated,PTH,ComponentDrill
T6C1.200
; #@! TA.AperFunction,Plated,PTH,ComponentDrill
T7C1.300
; #@! TA.AperFunction,Plated,PTH,ComponentDrill
T8C1.448
; #@! TA.AperFunction,Plated,PTH,ComponentDrill
T9C1.770
; #@! TA.AperFunction,Plated,PTH,ComponentDrill
T10C1.800
%
G90
G05
T1
X89.814Y-95.841
X90.068Y-88.119
X91.643Y-74.86
X91.999Y-113.163
X92.913Y-114.84
X94.59Y-116.669
X97.536Y-120.225
X98.908Y-103.562
X98.908Y-110.573
X99.009Y-114.789
X99.162Y-96.603
X99.365Y-89.389
X100.381Y-67.189
X100.482Y-114.027
X100.482Y-116.059
X100.635Y-86.239
X100.686Y-125.101
X103.988Y-128.505
X104.343Y-125.457
X104.648Y-72.981
X107.391Y-127.133
X107.747Y-130.385
X108.255Y-98.33
X110.084Y-91.421
X110.338Y-130.943
X110.693Y-116.364
X110.947Y-115.043
X111.506Y-124.746
X113.741Y-122.765
X114.96Y-65.361
X115.519Y-119.767
X115.57Y-81.871
X116.535Y-97.771
X116.586Y-115.754
X116.586Y-117.735
X116.688Y-107.525
X116.688Y-110.725
X120.853Y-89.643
X123.8Y-75.419
X125.578Y-64.091
X126.289Y-86.036
X126.543Y-72.777
X129.184Y-70.085
X129.54Y-83.445
X132.385Y-67.748
X133.655Y-117.939
X133.96Y-91.218
X134.315Y-76.435
X134.823Y-126.778
X134.925Y-140.189
X135.026Y-66.935
X137.922Y-88.271
X137.924Y-117.844
X138.125Y-76.587
X138.125Y-79.331
X138.176Y-125.203
X138.227Y-81.82
X138.278Y-83.953
X138.735Y-66.935
X139.09Y-92.081
X140.056Y-134.347
X140.259Y-111.639
X141.732Y-125.508
X141.884Y-116.211
X144.168Y-84.382
X144.337Y-142.964
X145.053Y-135.515
X145.44Y-87.154
X147.063Y-77.886
X147.128Y-84.361
X147.422Y-136.633
X147.422Y-139.783
X147.879Y-76.232
X148.982Y-76.701
X149.149Y-96.552
X149.403Y-85.071
X149.403Y-90.456
X149.504Y-110.065
X150.181Y-77.886
X150.216Y-109.709
X150.441Y-81.943
X151.232Y-138.868
X152.603Y-95.79
X153.518Y-85.579
X153.518Y-89.897
X154.006Y-76.108
X154.33Y-114.637
X155.245Y-105.645
X155.448Y-131.502
X156.362Y-125.152
X156.718Y-114.129
X156.87Y-82.277
X158.14Y-108.134
X159.309Y-117.024
X159.386Y-76.321
X160.122Y-139.021
X160.884Y-86.341
X162.966Y-109.049
X165.506Y-138.716
X165.506Y-142.678
X166.421Y-124.035
X166.827Y-90.354
X167.437Y-116.719
X168.199Y-107.22
X168.961Y-123.984
X169.723Y-83.852
X170.586Y-126.219
X171.856Y-125.203
X172.263Y-142.831
X172.72Y-132.518
X173.076Y-119.717
X175.92Y-105.493
X176.174Y-134.245
X176.174Y-142.018
X176.479Y-125.914
X177.902Y-91.218
X179.629Y-103.715
X180.696Y-111.843
X183.134Y-95.993
X183.845Y-108.744
X189.992Y-104.273
X193.548Y-107.779
X196.037Y-110.319
X199.085Y-114.383
X202.184Y-120.072
X202.895Y-127.794
T2
X115.164Y-131.451
X115.164Y-141.611
X119.278Y-141.408
X119.278Y-151.568
X124.257Y-103.613
X124.257Y-113.773
X131.623Y-138.614
X141.783Y-138.614
X148.387Y-143.745
X148.387Y-153.905
X152.4Y-124.136
X152.4Y-134.296
X161.595Y-143.593
X161.595Y-153.753
X170.84Y-138.716
X176.682Y-112.401
X176.682Y-122.561
X181.0Y-138.716
X186.792Y-67.037
X186.792Y-77.197
T3
X106.731Y-149.079
X106.731Y-151.619
X107.137Y-135.012
X107.137Y-137.552
X135.636Y-162.744
X138.176Y-162.744
X169.824Y-161.423
X172.364Y-161.423
X185.364Y-58.858
X187.904Y-58.858
T4
X135.636Y-104.119
X135.636Y-114.279
X135.636Y-121.899
X143.256Y-104.119
X143.256Y-114.279
X143.256Y-121.899
X162.712Y-104.577
X162.712Y-114.737
X162.712Y-122.357
X170.332Y-104.577
X170.332Y-114.737
X170.332Y-122.357
T5
X134.874Y-146.795
X134.874Y-153.295
X139.374Y-146.795
X139.374Y-153.295
X147.304Y-127.895
X147.304Y-130.435
X147.304Y-132.975
X161.56Y-128.099
X161.56Y-130.639
X161.56Y-133.179
X170.049Y-146.44
X170.049Y-152.94
X174.549Y-146.44
X174.549Y-152.94
T7
X131.978Y-97.212
X147.218Y-97.212
X148.488Y-102.953
X148.488Y-118.193
X159.004Y-98.076
X174.244Y-98.076
T8
X96.913Y-79.534
X102.413Y-79.534
X182.485Y-160.032
X187.985Y-160.032
X192.583Y-120.123
X194.412Y-88.258
X194.412Y-93.758
X196.291Y-71.646
X196.291Y-77.146
X198.083Y-120.123
T9
X137.697Y-64.456
X137.697Y-73.576
X142.142Y-64.456
X142.142Y-73.576
X146.587Y-64.456
X146.587Y-73.576
X151.037Y-64.456
X151.037Y-73.576
X155.482Y-64.456
X155.482Y-73.576
X159.927Y-64.456
X159.927Y-73.576
T10
X104.242Y-105.863
X104.242Y-110.063
X104.242Y-114.263
X104.242Y-118.463
X104.242Y-122.663
X108.442Y-105.863
X108.442Y-110.063
X108.442Y-114.263
X108.442Y-118.463
X108.442Y-122.663
T6
G00X198.074Y-128.352
M15
G01X192.374Y-128.352
M16
G05
G00X198.074Y-152.552
M15
G01X192.374Y-152.552
M16
G05
M30
