%TF.GenerationSoftware,KiCad,Pcbnew,9.0.7*%
%TF.CreationDate,2026-04-05T23:17:13-07:00*%
%TF.ProjectId,ChargeBoardMaster,43686172-6765-4426-9f61-72644d617374,rev?*%
%TF.SameCoordinates,Original*%
%TF.FileFunction,Soldermask,Top*%
%TF.FilePolarity,Negative*%
%FSLAX46Y46*%
G04 Gerber Fmt 4.6, Leading zero omitted, Abs format (unit mm)*
G04 Created by KiCad (PCBNEW 9.0.7) date 2026-04-05 23:17:13*
%MOMM*%
%LPD*%
G01*
G04 APERTURE LIST*
G04 Aperture macros list*
%AMRoundRect*
0 Rectangle with rounded corners*
0 $1 Rounding radius*
0 $2 $3 $4 $5 $6 $7 $8 $9 X,Y pos of 4 corners*
0 Add a 4 corners polygon primitive as box body*
4,1,4,$2,$3,$4,$5,$6,$7,$8,$9,$2,$3,0*
0 Add four circle primitives for the rounded corners*
1,1,$1+$1,$2,$3*
1,1,$1+$1,$4,$5*
1,1,$1+$1,$6,$7*
1,1,$1+$1,$8,$9*
0 Add four rect primitives between the rounded corners*
20,1,$1+$1,$2,$3,$4,$5,0*
20,1,$1+$1,$4,$5,$6,$7,0*
20,1,$1+$1,$6,$7,$8,$9,0*
20,1,$1+$1,$8,$9,$2,$3,0*%
G04 Aperture macros list end*
%ADD10C,1.226200*%
%ADD11C,0.010000*%
%ADD12C,1.608074*%
%ADD13C,1.600000*%
%ADD14RoundRect,0.250000X1.050000X1.050000X-1.050000X1.050000X-1.050000X-1.050000X1.050000X-1.050000X0*%
%ADD15C,2.600000*%
%ADD16R,1.800000X1.800000*%
%ADD17C,1.800000*%
%ADD18C,1.955800*%
%ADD19C,3.200000*%
%ADD20C,3.500000*%
%ADD21R,2.000000X1.905000*%
%ADD22O,2.000000X1.905000*%
%ADD23RoundRect,0.250000X-1.050000X1.050000X-1.050000X-1.050000X1.050000X-1.050000X1.050000X1.050000X0*%
%ADD24O,7.904000X4.004000*%
%ADD25O,7.904000X4.104000*%
%ADD26C,2.000000*%
%ADD27C,2.990000*%
%ADD28RoundRect,0.102000X1.327500X-1.327500X1.327500X1.327500X-1.327500X1.327500X-1.327500X-1.327500X0*%
%ADD29C,2.859000*%
G04 APERTURE END LIST*
D10*
%TO.C,J8*%
X104854700Y-105862950D02*
G75*
G02*
X103628500Y-105862950I-613100J0D01*
G01*
X103628500Y-105862950D02*
G75*
G02*
X104854700Y-105862950I613100J0D01*
G01*
X104854700Y-110062950D02*
G75*
G02*
X103628500Y-110062950I-613100J0D01*
G01*
X103628500Y-110062950D02*
G75*
G02*
X104854700Y-110062950I613100J0D01*
G01*
X104854700Y-114262950D02*
G75*
G02*
X103628500Y-114262950I-613100J0D01*
G01*
X103628500Y-114262950D02*
G75*
G02*
X104854700Y-114262950I613100J0D01*
G01*
X104854700Y-118462950D02*
G75*
G02*
X103628500Y-118462950I-613100J0D01*
G01*
X103628500Y-118462950D02*
G75*
G02*
X104854700Y-118462950I613100J0D01*
G01*
X109054700Y-105862950D02*
G75*
G02*
X107828500Y-105862950I-613100J0D01*
G01*
X107828500Y-105862950D02*
G75*
G02*
X109054700Y-105862950I613100J0D01*
G01*
X109054700Y-110062950D02*
G75*
G02*
X107828500Y-110062950I-613100J0D01*
G01*
X107828500Y-110062950D02*
G75*
G02*
X109054700Y-110062950I613100J0D01*
G01*
X109054700Y-114262950D02*
G75*
G02*
X107828500Y-114262950I-613100J0D01*
G01*
X107828500Y-114262950D02*
G75*
G02*
X109054700Y-114262950I613100J0D01*
G01*
X109054700Y-118462950D02*
G75*
G02*
X107828500Y-118462950I-613100J0D01*
G01*
X107828500Y-118462950D02*
G75*
G02*
X109054700Y-118462950I613100J0D01*
G01*
X109054700Y-122662950D02*
G75*
G02*
X107828500Y-122662950I-613100J0D01*
G01*
X107828500Y-122662950D02*
G75*
G02*
X109054700Y-122662950I613100J0D01*
G01*
D11*
X105467800Y-123889150D02*
X103015400Y-123889150D01*
X103015400Y-121436750D01*
X105467800Y-121436750D01*
X105467800Y-123889150D01*
G36*
X105467800Y-123889150D02*
G01*
X103015400Y-123889150D01*
X103015400Y-121436750D01*
X105467800Y-121436750D01*
X105467800Y-123889150D01*
G37*
%TD*%
D12*
%TO.C,K1*%
X162712400Y-104577350D03*
X162712400Y-114737350D03*
X162712400Y-122357350D03*
X170332400Y-122357350D03*
X170332400Y-114737350D03*
X170332400Y-104577350D03*
%TD*%
D13*
%TO.C,R5*%
X119278400Y-141408150D03*
X119278400Y-151568150D03*
%TD*%
D14*
%TO.C,D2*%
X174244000Y-98075750D03*
D15*
X159004000Y-98075750D03*
%TD*%
D13*
%TO.C,R8*%
X176682400Y-122561350D03*
X176682400Y-112401350D03*
%TD*%
D16*
%TO.C,D7*%
X185364200Y-58858150D03*
D17*
X187904200Y-58858150D03*
%TD*%
D18*
%TO.C,J7*%
X102412800Y-79533750D03*
X96912801Y-79533750D03*
%TD*%
D13*
%TO.C,R10*%
X170840400Y-138715750D03*
X181000400Y-138715750D03*
%TD*%
D19*
%TO.C,H4*%
X198475600Y-57404000D03*
%TD*%
D13*
%TO.C,R1*%
X161594800Y-143592550D03*
X161594800Y-153752550D03*
%TD*%
D20*
%TO.C,Q1*%
X178219600Y-130638550D03*
D21*
X161559600Y-128098550D03*
D22*
X161559600Y-130638550D03*
X161559600Y-133178550D03*
%TD*%
D13*
%TO.C,R12*%
X141782800Y-138614150D03*
X131622800Y-138614150D03*
%TD*%
%TO.C,R3*%
X115163600Y-131451350D03*
X115163600Y-141611350D03*
%TD*%
D19*
%TO.C,H2*%
X197800000Y-160600000D03*
%TD*%
D18*
%TO.C,J5*%
X198082799Y-120122950D03*
X192582800Y-120122950D03*
%TD*%
D23*
%TO.C,D8*%
X148488400Y-102952550D03*
D15*
X148488400Y-118192550D03*
%TD*%
D14*
%TO.C,D3*%
X147218400Y-97212150D03*
D15*
X131978400Y-97212150D03*
%TD*%
D20*
%TO.C,Q3*%
X130644400Y-130435350D03*
D21*
X147304400Y-132975350D03*
D22*
X147304400Y-130435350D03*
X147304400Y-127895350D03*
%TD*%
D12*
%TO.C,K2*%
X135636000Y-104119349D03*
X135636000Y-114279349D03*
X135636000Y-121899349D03*
X143256000Y-121899349D03*
X143256000Y-114279349D03*
X143256000Y-104119349D03*
%TD*%
D18*
%TO.C,J3*%
X196291200Y-71646151D03*
X196291200Y-77146150D03*
%TD*%
D19*
%TO.C,H3*%
X94600000Y-56800000D03*
%TD*%
D13*
%TO.C,R2*%
X148386800Y-143744950D03*
X148386800Y-153904950D03*
%TD*%
D18*
%TO.C,J2*%
X194411600Y-88257751D03*
X194411600Y-93757750D03*
%TD*%
D13*
%TO.C,R11*%
X152400000Y-134296150D03*
X152400000Y-124136150D03*
%TD*%
%TO.C,R6*%
X186791600Y-77196950D03*
X186791600Y-67036950D03*
%TD*%
D18*
%TO.C,J4*%
X187984900Y-160031900D03*
X182484901Y-160031900D03*
%TD*%
D19*
%TO.C,H1*%
X91800000Y-160200000D03*
%TD*%
D24*
%TO.C,S1*%
X195224400Y-128352400D03*
D25*
X195224400Y-152552400D03*
%TD*%
D16*
%TO.C,D6*%
X135636000Y-162744150D03*
D17*
X138176000Y-162744150D03*
%TD*%
D26*
%TO.C,SW3*%
X139374000Y-153295350D03*
X139374000Y-146795350D03*
X134874000Y-153295350D03*
X134874000Y-146795350D03*
%TD*%
D13*
%TO.C,R9*%
X124256800Y-113772950D03*
X124256800Y-103612950D03*
%TD*%
D16*
%TO.C,D5*%
X106730800Y-151618950D03*
D17*
X106730800Y-149078950D03*
%TD*%
D27*
%TO.C,J1*%
X131267200Y-79686150D03*
X166347200Y-79686150D03*
X131267200Y-58346150D03*
X166347200Y-58346150D03*
D28*
X137697200Y-73576150D03*
D29*
X142142200Y-73576150D03*
X146587200Y-73576150D03*
X151037200Y-73576150D03*
X155482200Y-73576150D03*
X159927200Y-73576150D03*
X159927200Y-64456150D03*
X155482200Y-64456150D03*
X151037200Y-64456150D03*
X146587200Y-64456150D03*
X142142200Y-64456150D03*
X137697200Y-64456150D03*
%TD*%
D16*
%TO.C,D1*%
X169824400Y-161423350D03*
D17*
X172364400Y-161423350D03*
%TD*%
D26*
%TO.C,SW2*%
X174548800Y-152939750D03*
X174548800Y-146439750D03*
X170048800Y-152939750D03*
X170048800Y-146439750D03*
%TD*%
D16*
%TO.C,D4*%
X107137200Y-137552350D03*
D17*
X107137200Y-135012350D03*
%TD*%
M02*
