%TF.GenerationSoftware,KiCad,Pcbnew,9.0.7*%
%TF.CreationDate,2026-04-05T23:17:13-07:00*%
%TF.ProjectId,ChargeBoardMaster,43686172-6765-4426-9f61-72644d617374,rev?*%
%TF.SameCoordinates,Original*%
%TF.FileFunction,Legend,Top*%
%TF.FilePolarity,Positive*%
%FSLAX46Y46*%
G04 Gerber Fmt 4.6, Leading zero omitted, Abs format (unit mm)*
G04 Created by KiCad (PCBNEW 9.0.7) date 2026-04-05 23:17:13*
%MOMM*%
%LPD*%
G01*
G04 APERTURE LIST*
%ADD10C,0.300000*%
%ADD11C,0.100000*%
%ADD12C,0.150000*%
%ADD13C,0.152400*%
%ADD14C,0.120000*%
%ADD15C,0.508000*%
%ADD16C,0.127000*%
G04 APERTURE END LIST*
D10*
X88641653Y-64433055D02*
X88570225Y-64504484D01*
X88570225Y-64504484D02*
X88355939Y-64575912D01*
X88355939Y-64575912D02*
X88213082Y-64575912D01*
X88213082Y-64575912D02*
X87998796Y-64504484D01*
X87998796Y-64504484D02*
X87855939Y-64361626D01*
X87855939Y-64361626D02*
X87784510Y-64218769D01*
X87784510Y-64218769D02*
X87713082Y-63933055D01*
X87713082Y-63933055D02*
X87713082Y-63718769D01*
X87713082Y-63718769D02*
X87784510Y-63433055D01*
X87784510Y-63433055D02*
X87855939Y-63290198D01*
X87855939Y-63290198D02*
X87998796Y-63147341D01*
X87998796Y-63147341D02*
X88213082Y-63075912D01*
X88213082Y-63075912D02*
X88355939Y-63075912D01*
X88355939Y-63075912D02*
X88570225Y-63147341D01*
X88570225Y-63147341D02*
X88641653Y-63218769D01*
X89284510Y-64575912D02*
X89284510Y-63075912D01*
X89927368Y-64575912D02*
X89927368Y-63790198D01*
X89927368Y-63790198D02*
X89855939Y-63647341D01*
X89855939Y-63647341D02*
X89713082Y-63575912D01*
X89713082Y-63575912D02*
X89498796Y-63575912D01*
X89498796Y-63575912D02*
X89355939Y-63647341D01*
X89355939Y-63647341D02*
X89284510Y-63718769D01*
X91284511Y-64575912D02*
X91284511Y-63790198D01*
X91284511Y-63790198D02*
X91213082Y-63647341D01*
X91213082Y-63647341D02*
X91070225Y-63575912D01*
X91070225Y-63575912D02*
X90784511Y-63575912D01*
X90784511Y-63575912D02*
X90641653Y-63647341D01*
X91284511Y-64504484D02*
X91141653Y-64575912D01*
X91141653Y-64575912D02*
X90784511Y-64575912D01*
X90784511Y-64575912D02*
X90641653Y-64504484D01*
X90641653Y-64504484D02*
X90570225Y-64361626D01*
X90570225Y-64361626D02*
X90570225Y-64218769D01*
X90570225Y-64218769D02*
X90641653Y-64075912D01*
X90641653Y-64075912D02*
X90784511Y-64004484D01*
X90784511Y-64004484D02*
X91141653Y-64004484D01*
X91141653Y-64004484D02*
X91284511Y-63933055D01*
X91998796Y-64575912D02*
X91998796Y-63575912D01*
X91998796Y-63861626D02*
X92070225Y-63718769D01*
X92070225Y-63718769D02*
X92141654Y-63647341D01*
X92141654Y-63647341D02*
X92284511Y-63575912D01*
X92284511Y-63575912D02*
X92427368Y-63575912D01*
X93570225Y-63575912D02*
X93570225Y-64790198D01*
X93570225Y-64790198D02*
X93498796Y-64933055D01*
X93498796Y-64933055D02*
X93427367Y-65004484D01*
X93427367Y-65004484D02*
X93284510Y-65075912D01*
X93284510Y-65075912D02*
X93070225Y-65075912D01*
X93070225Y-65075912D02*
X92927367Y-65004484D01*
X93570225Y-64504484D02*
X93427367Y-64575912D01*
X93427367Y-64575912D02*
X93141653Y-64575912D01*
X93141653Y-64575912D02*
X92998796Y-64504484D01*
X92998796Y-64504484D02*
X92927367Y-64433055D01*
X92927367Y-64433055D02*
X92855939Y-64290198D01*
X92855939Y-64290198D02*
X92855939Y-63861626D01*
X92855939Y-63861626D02*
X92927367Y-63718769D01*
X92927367Y-63718769D02*
X92998796Y-63647341D01*
X92998796Y-63647341D02*
X93141653Y-63575912D01*
X93141653Y-63575912D02*
X93427367Y-63575912D01*
X93427367Y-63575912D02*
X93570225Y-63647341D01*
X94855939Y-64504484D02*
X94713082Y-64575912D01*
X94713082Y-64575912D02*
X94427368Y-64575912D01*
X94427368Y-64575912D02*
X94284510Y-64504484D01*
X94284510Y-64504484D02*
X94213082Y-64361626D01*
X94213082Y-64361626D02*
X94213082Y-63790198D01*
X94213082Y-63790198D02*
X94284510Y-63647341D01*
X94284510Y-63647341D02*
X94427368Y-63575912D01*
X94427368Y-63575912D02*
X94713082Y-63575912D01*
X94713082Y-63575912D02*
X94855939Y-63647341D01*
X94855939Y-63647341D02*
X94927368Y-63790198D01*
X94927368Y-63790198D02*
X94927368Y-63933055D01*
X94927368Y-63933055D02*
X94213082Y-64075912D01*
X95570224Y-64575912D02*
X95570224Y-63575912D01*
X95570224Y-63861626D02*
X95641653Y-63718769D01*
X95641653Y-63718769D02*
X95713082Y-63647341D01*
X95713082Y-63647341D02*
X95855939Y-63575912D01*
X95855939Y-63575912D02*
X95998796Y-63575912D01*
X97641652Y-64575912D02*
X97641652Y-63075912D01*
X97641652Y-63075912D02*
X98213081Y-63075912D01*
X98213081Y-63075912D02*
X98355938Y-63147341D01*
X98355938Y-63147341D02*
X98427367Y-63218769D01*
X98427367Y-63218769D02*
X98498795Y-63361626D01*
X98498795Y-63361626D02*
X98498795Y-63575912D01*
X98498795Y-63575912D02*
X98427367Y-63718769D01*
X98427367Y-63718769D02*
X98355938Y-63790198D01*
X98355938Y-63790198D02*
X98213081Y-63861626D01*
X98213081Y-63861626D02*
X97641652Y-63861626D01*
X99998795Y-64433055D02*
X99927367Y-64504484D01*
X99927367Y-64504484D02*
X99713081Y-64575912D01*
X99713081Y-64575912D02*
X99570224Y-64575912D01*
X99570224Y-64575912D02*
X99355938Y-64504484D01*
X99355938Y-64504484D02*
X99213081Y-64361626D01*
X99213081Y-64361626D02*
X99141652Y-64218769D01*
X99141652Y-64218769D02*
X99070224Y-63933055D01*
X99070224Y-63933055D02*
X99070224Y-63718769D01*
X99070224Y-63718769D02*
X99141652Y-63433055D01*
X99141652Y-63433055D02*
X99213081Y-63290198D01*
X99213081Y-63290198D02*
X99355938Y-63147341D01*
X99355938Y-63147341D02*
X99570224Y-63075912D01*
X99570224Y-63075912D02*
X99713081Y-63075912D01*
X99713081Y-63075912D02*
X99927367Y-63147341D01*
X99927367Y-63147341D02*
X99998795Y-63218769D01*
X101141652Y-63790198D02*
X101355938Y-63861626D01*
X101355938Y-63861626D02*
X101427367Y-63933055D01*
X101427367Y-63933055D02*
X101498795Y-64075912D01*
X101498795Y-64075912D02*
X101498795Y-64290198D01*
X101498795Y-64290198D02*
X101427367Y-64433055D01*
X101427367Y-64433055D02*
X101355938Y-64504484D01*
X101355938Y-64504484D02*
X101213081Y-64575912D01*
X101213081Y-64575912D02*
X100641652Y-64575912D01*
X100641652Y-64575912D02*
X100641652Y-63075912D01*
X100641652Y-63075912D02*
X101141652Y-63075912D01*
X101141652Y-63075912D02*
X101284510Y-63147341D01*
X101284510Y-63147341D02*
X101355938Y-63218769D01*
X101355938Y-63218769D02*
X101427367Y-63361626D01*
X101427367Y-63361626D02*
X101427367Y-63504484D01*
X101427367Y-63504484D02*
X101355938Y-63647341D01*
X101355938Y-63647341D02*
X101284510Y-63718769D01*
X101284510Y-63718769D02*
X101141652Y-63790198D01*
X101141652Y-63790198D02*
X100641652Y-63790198D01*
X88284510Y-66205114D02*
X88498796Y-66276542D01*
X88498796Y-66276542D02*
X88570225Y-66347971D01*
X88570225Y-66347971D02*
X88641653Y-66490828D01*
X88641653Y-66490828D02*
X88641653Y-66705114D01*
X88641653Y-66705114D02*
X88570225Y-66847971D01*
X88570225Y-66847971D02*
X88498796Y-66919400D01*
X88498796Y-66919400D02*
X88355939Y-66990828D01*
X88355939Y-66990828D02*
X87784510Y-66990828D01*
X87784510Y-66990828D02*
X87784510Y-65490828D01*
X87784510Y-65490828D02*
X88284510Y-65490828D01*
X88284510Y-65490828D02*
X88427368Y-65562257D01*
X88427368Y-65562257D02*
X88498796Y-65633685D01*
X88498796Y-65633685D02*
X88570225Y-65776542D01*
X88570225Y-65776542D02*
X88570225Y-65919400D01*
X88570225Y-65919400D02*
X88498796Y-66062257D01*
X88498796Y-66062257D02*
X88427368Y-66133685D01*
X88427368Y-66133685D02*
X88284510Y-66205114D01*
X88284510Y-66205114D02*
X87784510Y-66205114D01*
X89141653Y-65990828D02*
X89498796Y-66990828D01*
X89855939Y-65990828D02*
X89498796Y-66990828D01*
X89498796Y-66990828D02*
X89355939Y-67347971D01*
X89355939Y-67347971D02*
X89284510Y-67419400D01*
X89284510Y-67419400D02*
X89141653Y-67490828D01*
X92355939Y-65562257D02*
X92213082Y-65490828D01*
X92213082Y-65490828D02*
X91998796Y-65490828D01*
X91998796Y-65490828D02*
X91784510Y-65562257D01*
X91784510Y-65562257D02*
X91641653Y-65705114D01*
X91641653Y-65705114D02*
X91570224Y-65847971D01*
X91570224Y-65847971D02*
X91498796Y-66133685D01*
X91498796Y-66133685D02*
X91498796Y-66347971D01*
X91498796Y-66347971D02*
X91570224Y-66633685D01*
X91570224Y-66633685D02*
X91641653Y-66776542D01*
X91641653Y-66776542D02*
X91784510Y-66919400D01*
X91784510Y-66919400D02*
X91998796Y-66990828D01*
X91998796Y-66990828D02*
X92141653Y-66990828D01*
X92141653Y-66990828D02*
X92355939Y-66919400D01*
X92355939Y-66919400D02*
X92427367Y-66847971D01*
X92427367Y-66847971D02*
X92427367Y-66347971D01*
X92427367Y-66347971D02*
X92141653Y-66347971D01*
X93713082Y-66990828D02*
X93713082Y-66205114D01*
X93713082Y-66205114D02*
X93641653Y-66062257D01*
X93641653Y-66062257D02*
X93498796Y-65990828D01*
X93498796Y-65990828D02*
X93213082Y-65990828D01*
X93213082Y-65990828D02*
X93070224Y-66062257D01*
X93713082Y-66919400D02*
X93570224Y-66990828D01*
X93570224Y-66990828D02*
X93213082Y-66990828D01*
X93213082Y-66990828D02*
X93070224Y-66919400D01*
X93070224Y-66919400D02*
X92998796Y-66776542D01*
X92998796Y-66776542D02*
X92998796Y-66633685D01*
X92998796Y-66633685D02*
X93070224Y-66490828D01*
X93070224Y-66490828D02*
X93213082Y-66419400D01*
X93213082Y-66419400D02*
X93570224Y-66419400D01*
X93570224Y-66419400D02*
X93713082Y-66347971D01*
X94427367Y-66990828D02*
X94427367Y-65490828D01*
X94427367Y-66062257D02*
X94570225Y-65990828D01*
X94570225Y-65990828D02*
X94855939Y-65990828D01*
X94855939Y-65990828D02*
X94998796Y-66062257D01*
X94998796Y-66062257D02*
X95070225Y-66133685D01*
X95070225Y-66133685D02*
X95141653Y-66276542D01*
X95141653Y-66276542D02*
X95141653Y-66705114D01*
X95141653Y-66705114D02*
X95070225Y-66847971D01*
X95070225Y-66847971D02*
X94998796Y-66919400D01*
X94998796Y-66919400D02*
X94855939Y-66990828D01*
X94855939Y-66990828D02*
X94570225Y-66990828D01*
X94570225Y-66990828D02*
X94427367Y-66919400D01*
X95784510Y-66990828D02*
X95784510Y-65990828D01*
X95784510Y-66276542D02*
X95855939Y-66133685D01*
X95855939Y-66133685D02*
X95927368Y-66062257D01*
X95927368Y-66062257D02*
X96070225Y-65990828D01*
X96070225Y-65990828D02*
X96213082Y-65990828D01*
X96713081Y-66990828D02*
X96713081Y-65990828D01*
X96713081Y-65490828D02*
X96641653Y-65562257D01*
X96641653Y-65562257D02*
X96713081Y-65633685D01*
X96713081Y-65633685D02*
X96784510Y-65562257D01*
X96784510Y-65562257D02*
X96713081Y-65490828D01*
X96713081Y-65490828D02*
X96713081Y-65633685D01*
X97998796Y-66919400D02*
X97855939Y-66990828D01*
X97855939Y-66990828D02*
X97570225Y-66990828D01*
X97570225Y-66990828D02*
X97427367Y-66919400D01*
X97427367Y-66919400D02*
X97355939Y-66776542D01*
X97355939Y-66776542D02*
X97355939Y-66205114D01*
X97355939Y-66205114D02*
X97427367Y-66062257D01*
X97427367Y-66062257D02*
X97570225Y-65990828D01*
X97570225Y-65990828D02*
X97855939Y-65990828D01*
X97855939Y-65990828D02*
X97998796Y-66062257D01*
X97998796Y-66062257D02*
X98070225Y-66205114D01*
X98070225Y-66205114D02*
X98070225Y-66347971D01*
X98070225Y-66347971D02*
X97355939Y-66490828D01*
X98927367Y-66990828D02*
X98784510Y-66919400D01*
X98784510Y-66919400D02*
X98713081Y-66776542D01*
X98713081Y-66776542D02*
X98713081Y-65490828D01*
X100570224Y-66919400D02*
X100784510Y-66990828D01*
X100784510Y-66990828D02*
X101141652Y-66990828D01*
X101141652Y-66990828D02*
X101284510Y-66919400D01*
X101284510Y-66919400D02*
X101355938Y-66847971D01*
X101355938Y-66847971D02*
X101427367Y-66705114D01*
X101427367Y-66705114D02*
X101427367Y-66562257D01*
X101427367Y-66562257D02*
X101355938Y-66419400D01*
X101355938Y-66419400D02*
X101284510Y-66347971D01*
X101284510Y-66347971D02*
X101141652Y-66276542D01*
X101141652Y-66276542D02*
X100855938Y-66205114D01*
X100855938Y-66205114D02*
X100713081Y-66133685D01*
X100713081Y-66133685D02*
X100641652Y-66062257D01*
X100641652Y-66062257D02*
X100570224Y-65919400D01*
X100570224Y-65919400D02*
X100570224Y-65776542D01*
X100570224Y-65776542D02*
X100641652Y-65633685D01*
X100641652Y-65633685D02*
X100713081Y-65562257D01*
X100713081Y-65562257D02*
X100855938Y-65490828D01*
X100855938Y-65490828D02*
X101213081Y-65490828D01*
X101213081Y-65490828D02*
X101427367Y-65562257D01*
X102713081Y-66919400D02*
X102570223Y-66990828D01*
X102570223Y-66990828D02*
X102284509Y-66990828D01*
X102284509Y-66990828D02*
X102141652Y-66919400D01*
X102141652Y-66919400D02*
X102070223Y-66847971D01*
X102070223Y-66847971D02*
X101998795Y-66705114D01*
X101998795Y-66705114D02*
X101998795Y-66276542D01*
X101998795Y-66276542D02*
X102070223Y-66133685D01*
X102070223Y-66133685D02*
X102141652Y-66062257D01*
X102141652Y-66062257D02*
X102284509Y-65990828D01*
X102284509Y-65990828D02*
X102570223Y-65990828D01*
X102570223Y-65990828D02*
X102713081Y-66062257D01*
X103355937Y-66990828D02*
X103355937Y-65490828D01*
X103998795Y-66990828D02*
X103998795Y-66205114D01*
X103998795Y-66205114D02*
X103927366Y-66062257D01*
X103927366Y-66062257D02*
X103784509Y-65990828D01*
X103784509Y-65990828D02*
X103570223Y-65990828D01*
X103570223Y-65990828D02*
X103427366Y-66062257D01*
X103427366Y-66062257D02*
X103355937Y-66133685D01*
X104927366Y-66990828D02*
X104784509Y-66919400D01*
X104784509Y-66919400D02*
X104713080Y-66847971D01*
X104713080Y-66847971D02*
X104641652Y-66705114D01*
X104641652Y-66705114D02*
X104641652Y-66276542D01*
X104641652Y-66276542D02*
X104713080Y-66133685D01*
X104713080Y-66133685D02*
X104784509Y-66062257D01*
X104784509Y-66062257D02*
X104927366Y-65990828D01*
X104927366Y-65990828D02*
X105141652Y-65990828D01*
X105141652Y-65990828D02*
X105284509Y-66062257D01*
X105284509Y-66062257D02*
X105355938Y-66133685D01*
X105355938Y-66133685D02*
X105427366Y-66276542D01*
X105427366Y-66276542D02*
X105427366Y-66705114D01*
X105427366Y-66705114D02*
X105355938Y-66847971D01*
X105355938Y-66847971D02*
X105284509Y-66919400D01*
X105284509Y-66919400D02*
X105141652Y-66990828D01*
X105141652Y-66990828D02*
X104927366Y-66990828D01*
X106641652Y-66919400D02*
X106498795Y-66990828D01*
X106498795Y-66990828D02*
X106213081Y-66990828D01*
X106213081Y-66990828D02*
X106070223Y-66919400D01*
X106070223Y-66919400D02*
X105998795Y-66776542D01*
X105998795Y-66776542D02*
X105998795Y-66205114D01*
X105998795Y-66205114D02*
X106070223Y-66062257D01*
X106070223Y-66062257D02*
X106213081Y-65990828D01*
X106213081Y-65990828D02*
X106498795Y-65990828D01*
X106498795Y-65990828D02*
X106641652Y-66062257D01*
X106641652Y-66062257D02*
X106713081Y-66205114D01*
X106713081Y-66205114D02*
X106713081Y-66347971D01*
X106713081Y-66347971D02*
X105998795Y-66490828D01*
X107355937Y-65990828D02*
X107355937Y-66990828D01*
X107355937Y-66133685D02*
X107427366Y-66062257D01*
X107427366Y-66062257D02*
X107570223Y-65990828D01*
X107570223Y-65990828D02*
X107784509Y-65990828D01*
X107784509Y-65990828D02*
X107927366Y-66062257D01*
X107927366Y-66062257D02*
X107998795Y-66205114D01*
X107998795Y-66205114D02*
X107998795Y-66990828D01*
X109284509Y-66919400D02*
X109141652Y-66990828D01*
X109141652Y-66990828D02*
X108855938Y-66990828D01*
X108855938Y-66990828D02*
X108713080Y-66919400D01*
X108713080Y-66919400D02*
X108641652Y-66776542D01*
X108641652Y-66776542D02*
X108641652Y-66205114D01*
X108641652Y-66205114D02*
X108713080Y-66062257D01*
X108713080Y-66062257D02*
X108855938Y-65990828D01*
X108855938Y-65990828D02*
X109141652Y-65990828D01*
X109141652Y-65990828D02*
X109284509Y-66062257D01*
X109284509Y-66062257D02*
X109355938Y-66205114D01*
X109355938Y-66205114D02*
X109355938Y-66347971D01*
X109355938Y-66347971D02*
X108641652Y-66490828D01*
D11*
X90340474Y-109854419D02*
X89864284Y-109854419D01*
X89864284Y-109854419D02*
X89864284Y-108854419D01*
X90673808Y-109330609D02*
X91007141Y-109330609D01*
X91149998Y-109854419D02*
X90673808Y-109854419D01*
X90673808Y-109854419D02*
X90673808Y-108854419D01*
X90673808Y-108854419D02*
X91149998Y-108854419D01*
X91578570Y-109854419D02*
X91578570Y-108854419D01*
X91578570Y-108854419D02*
X91816665Y-108854419D01*
X91816665Y-108854419D02*
X91959522Y-108902038D01*
X91959522Y-108902038D02*
X92054760Y-108997276D01*
X92054760Y-108997276D02*
X92102379Y-109092514D01*
X92102379Y-109092514D02*
X92149998Y-109282990D01*
X92149998Y-109282990D02*
X92149998Y-109425847D01*
X92149998Y-109425847D02*
X92102379Y-109616323D01*
X92102379Y-109616323D02*
X92054760Y-109711561D01*
X92054760Y-109711561D02*
X91959522Y-109806800D01*
X91959522Y-109806800D02*
X91816665Y-109854419D01*
X91816665Y-109854419D02*
X91578570Y-109854419D01*
X93292856Y-108949657D02*
X93340475Y-108902038D01*
X93340475Y-108902038D02*
X93435713Y-108854419D01*
X93435713Y-108854419D02*
X93673808Y-108854419D01*
X93673808Y-108854419D02*
X93769046Y-108902038D01*
X93769046Y-108902038D02*
X93816665Y-108949657D01*
X93816665Y-108949657D02*
X93864284Y-109044895D01*
X93864284Y-109044895D02*
X93864284Y-109140133D01*
X93864284Y-109140133D02*
X93816665Y-109282990D01*
X93816665Y-109282990D02*
X93245237Y-109854419D01*
X93245237Y-109854419D02*
X93864284Y-109854419D01*
X95340475Y-110235371D02*
X95292856Y-110187752D01*
X95292856Y-110187752D02*
X95197618Y-110044895D01*
X95197618Y-110044895D02*
X95149999Y-109949657D01*
X95149999Y-109949657D02*
X95102380Y-109806800D01*
X95102380Y-109806800D02*
X95054761Y-109568704D01*
X95054761Y-109568704D02*
X95054761Y-109378228D01*
X95054761Y-109378228D02*
X95102380Y-109140133D01*
X95102380Y-109140133D02*
X95149999Y-108997276D01*
X95149999Y-108997276D02*
X95197618Y-108902038D01*
X95197618Y-108902038D02*
X95292856Y-108759180D01*
X95292856Y-108759180D02*
X95340475Y-108711561D01*
X96245237Y-109854419D02*
X95673809Y-109854419D01*
X95959523Y-109854419D02*
X95959523Y-108854419D01*
X95959523Y-108854419D02*
X95864285Y-108997276D01*
X95864285Y-108997276D02*
X95769047Y-109092514D01*
X95769047Y-109092514D02*
X95673809Y-109140133D01*
X96530952Y-109187752D02*
X96911904Y-109187752D01*
X96673809Y-109854419D02*
X96673809Y-108997276D01*
X96673809Y-108997276D02*
X96721428Y-108902038D01*
X96721428Y-108902038D02*
X96816666Y-108854419D01*
X96816666Y-108854419D02*
X96911904Y-108854419D01*
X97150000Y-110235371D02*
X97197619Y-110187752D01*
X97197619Y-110187752D02*
X97292857Y-110044895D01*
X97292857Y-110044895D02*
X97340476Y-109949657D01*
X97340476Y-109949657D02*
X97388095Y-109806800D01*
X97388095Y-109806800D02*
X97435714Y-109568704D01*
X97435714Y-109568704D02*
X97435714Y-109378228D01*
X97435714Y-109378228D02*
X97388095Y-109140133D01*
X97388095Y-109140133D02*
X97340476Y-108997276D01*
X97340476Y-108997276D02*
X97292857Y-108902038D01*
X97292857Y-108902038D02*
X97197619Y-108759180D01*
X97197619Y-108759180D02*
X97150000Y-108711561D01*
X102018112Y-84917980D02*
X101970493Y-84965600D01*
X101970493Y-84965600D02*
X101827636Y-85013219D01*
X101827636Y-85013219D02*
X101732398Y-85013219D01*
X101732398Y-85013219D02*
X101589541Y-84965600D01*
X101589541Y-84965600D02*
X101494303Y-84870361D01*
X101494303Y-84870361D02*
X101446684Y-84775123D01*
X101446684Y-84775123D02*
X101399065Y-84584647D01*
X101399065Y-84584647D02*
X101399065Y-84441790D01*
X101399065Y-84441790D02*
X101446684Y-84251314D01*
X101446684Y-84251314D02*
X101494303Y-84156076D01*
X101494303Y-84156076D02*
X101589541Y-84060838D01*
X101589541Y-84060838D02*
X101732398Y-84013219D01*
X101732398Y-84013219D02*
X101827636Y-84013219D01*
X101827636Y-84013219D02*
X101970493Y-84060838D01*
X101970493Y-84060838D02*
X102018112Y-84108457D01*
X103018112Y-84917980D02*
X102970493Y-84965600D01*
X102970493Y-84965600D02*
X102827636Y-85013219D01*
X102827636Y-85013219D02*
X102732398Y-85013219D01*
X102732398Y-85013219D02*
X102589541Y-84965600D01*
X102589541Y-84965600D02*
X102494303Y-84870361D01*
X102494303Y-84870361D02*
X102446684Y-84775123D01*
X102446684Y-84775123D02*
X102399065Y-84584647D01*
X102399065Y-84584647D02*
X102399065Y-84441790D01*
X102399065Y-84441790D02*
X102446684Y-84251314D01*
X102446684Y-84251314D02*
X102494303Y-84156076D01*
X102494303Y-84156076D02*
X102589541Y-84060838D01*
X102589541Y-84060838D02*
X102732398Y-84013219D01*
X102732398Y-84013219D02*
X102827636Y-84013219D01*
X102827636Y-84013219D02*
X102970493Y-84060838D01*
X102970493Y-84060838D02*
X103018112Y-84108457D01*
X115534093Y-123468819D02*
X114962665Y-123468819D01*
X115248379Y-123468819D02*
X115248379Y-122468819D01*
X115248379Y-122468819D02*
X115153141Y-122611676D01*
X115153141Y-122611676D02*
X115057903Y-122706914D01*
X115057903Y-122706914D02*
X114962665Y-122754533D01*
X115915046Y-122564057D02*
X115962665Y-122516438D01*
X115962665Y-122516438D02*
X116057903Y-122468819D01*
X116057903Y-122468819D02*
X116295998Y-122468819D01*
X116295998Y-122468819D02*
X116391236Y-122516438D01*
X116391236Y-122516438D02*
X116438855Y-122564057D01*
X116438855Y-122564057D02*
X116486474Y-122659295D01*
X116486474Y-122659295D02*
X116486474Y-122754533D01*
X116486474Y-122754533D02*
X116438855Y-122897390D01*
X116438855Y-122897390D02*
X115867427Y-123468819D01*
X115867427Y-123468819D02*
X116486474Y-123468819D01*
X116819808Y-122802152D02*
X117057903Y-123468819D01*
X117057903Y-123468819D02*
X117295998Y-122802152D01*
X118724570Y-123849771D02*
X118676951Y-123802152D01*
X118676951Y-123802152D02*
X118581713Y-123659295D01*
X118581713Y-123659295D02*
X118534094Y-123564057D01*
X118534094Y-123564057D02*
X118486475Y-123421200D01*
X118486475Y-123421200D02*
X118438856Y-123183104D01*
X118438856Y-123183104D02*
X118438856Y-122992628D01*
X118438856Y-122992628D02*
X118486475Y-122754533D01*
X118486475Y-122754533D02*
X118534094Y-122611676D01*
X118534094Y-122611676D02*
X118581713Y-122516438D01*
X118581713Y-122516438D02*
X118676951Y-122373580D01*
X118676951Y-122373580D02*
X118724570Y-122325961D01*
X119105523Y-123468819D02*
X119105523Y-122468819D01*
X119676951Y-123468819D02*
X119248380Y-122897390D01*
X119676951Y-122468819D02*
X119105523Y-123040247D01*
X120581713Y-123468819D02*
X120105523Y-123468819D01*
X120105523Y-123468819D02*
X120105523Y-122468819D01*
X120819809Y-122468819D02*
X121438856Y-122468819D01*
X121438856Y-122468819D02*
X121105523Y-122849771D01*
X121105523Y-122849771D02*
X121248380Y-122849771D01*
X121248380Y-122849771D02*
X121343618Y-122897390D01*
X121343618Y-122897390D02*
X121391237Y-122945009D01*
X121391237Y-122945009D02*
X121438856Y-123040247D01*
X121438856Y-123040247D02*
X121438856Y-123278342D01*
X121438856Y-123278342D02*
X121391237Y-123373580D01*
X121391237Y-123373580D02*
X121343618Y-123421200D01*
X121343618Y-123421200D02*
X121248380Y-123468819D01*
X121248380Y-123468819D02*
X120962666Y-123468819D01*
X120962666Y-123468819D02*
X120867428Y-123421200D01*
X120867428Y-123421200D02*
X120819809Y-123373580D01*
X122057904Y-122468819D02*
X122153142Y-122468819D01*
X122153142Y-122468819D02*
X122248380Y-122516438D01*
X122248380Y-122516438D02*
X122295999Y-122564057D01*
X122295999Y-122564057D02*
X122343618Y-122659295D01*
X122343618Y-122659295D02*
X122391237Y-122849771D01*
X122391237Y-122849771D02*
X122391237Y-123087866D01*
X122391237Y-123087866D02*
X122343618Y-123278342D01*
X122343618Y-123278342D02*
X122295999Y-123373580D01*
X122295999Y-123373580D02*
X122248380Y-123421200D01*
X122248380Y-123421200D02*
X122153142Y-123468819D01*
X122153142Y-123468819D02*
X122057904Y-123468819D01*
X122057904Y-123468819D02*
X121962666Y-123421200D01*
X121962666Y-123421200D02*
X121915047Y-123373580D01*
X121915047Y-123373580D02*
X121867428Y-123278342D01*
X121867428Y-123278342D02*
X121819809Y-123087866D01*
X121819809Y-123087866D02*
X121819809Y-122849771D01*
X121819809Y-122849771D02*
X121867428Y-122659295D01*
X121867428Y-122659295D02*
X121915047Y-122564057D01*
X121915047Y-122564057D02*
X121962666Y-122516438D01*
X121962666Y-122516438D02*
X122057904Y-122468819D01*
X124105523Y-123468819D02*
X123534095Y-123468819D01*
X123819809Y-123468819D02*
X123819809Y-122468819D01*
X123819809Y-122468819D02*
X123724571Y-122611676D01*
X123724571Y-122611676D02*
X123629333Y-122706914D01*
X123629333Y-122706914D02*
X123534095Y-122754533D01*
X124534095Y-123468819D02*
X124534095Y-122468819D01*
X124962666Y-123468819D02*
X124962666Y-122945009D01*
X124962666Y-122945009D02*
X124915047Y-122849771D01*
X124915047Y-122849771D02*
X124819809Y-122802152D01*
X124819809Y-122802152D02*
X124676952Y-122802152D01*
X124676952Y-122802152D02*
X124581714Y-122849771D01*
X124581714Y-122849771D02*
X124534095Y-122897390D01*
X125343619Y-123849771D02*
X125391238Y-123802152D01*
X125391238Y-123802152D02*
X125486476Y-123659295D01*
X125486476Y-123659295D02*
X125534095Y-123564057D01*
X125534095Y-123564057D02*
X125581714Y-123421200D01*
X125581714Y-123421200D02*
X125629333Y-123183104D01*
X125629333Y-123183104D02*
X125629333Y-122992628D01*
X125629333Y-122992628D02*
X125581714Y-122754533D01*
X125581714Y-122754533D02*
X125534095Y-122611676D01*
X125534095Y-122611676D02*
X125486476Y-122516438D01*
X125486476Y-122516438D02*
X125391238Y-122373580D01*
X125391238Y-122373580D02*
X125343619Y-122325961D01*
X115378512Y-105999980D02*
X115330893Y-106047600D01*
X115330893Y-106047600D02*
X115188036Y-106095219D01*
X115188036Y-106095219D02*
X115092798Y-106095219D01*
X115092798Y-106095219D02*
X114949941Y-106047600D01*
X114949941Y-106047600D02*
X114854703Y-105952361D01*
X114854703Y-105952361D02*
X114807084Y-105857123D01*
X114807084Y-105857123D02*
X114759465Y-105666647D01*
X114759465Y-105666647D02*
X114759465Y-105523790D01*
X114759465Y-105523790D02*
X114807084Y-105333314D01*
X114807084Y-105333314D02*
X114854703Y-105238076D01*
X114854703Y-105238076D02*
X114949941Y-105142838D01*
X114949941Y-105142838D02*
X115092798Y-105095219D01*
X115092798Y-105095219D02*
X115188036Y-105095219D01*
X115188036Y-105095219D02*
X115330893Y-105142838D01*
X115330893Y-105142838D02*
X115378512Y-105190457D01*
X115759465Y-105809504D02*
X116235655Y-105809504D01*
X115664227Y-106095219D02*
X115997560Y-105095219D01*
X115997560Y-105095219D02*
X116330893Y-106095219D01*
X116664227Y-106095219D02*
X116664227Y-105095219D01*
X116664227Y-105095219D02*
X117235655Y-106095219D01*
X117235655Y-106095219D02*
X117235655Y-105095219D01*
X117711846Y-106095219D02*
X117711846Y-105095219D01*
X117711846Y-105571409D02*
X118283274Y-105571409D01*
X118283274Y-106095219D02*
X118283274Y-105095219D01*
X119807084Y-106476171D02*
X119759465Y-106428552D01*
X119759465Y-106428552D02*
X119664227Y-106285695D01*
X119664227Y-106285695D02*
X119616608Y-106190457D01*
X119616608Y-106190457D02*
X119568989Y-106047600D01*
X119568989Y-106047600D02*
X119521370Y-105809504D01*
X119521370Y-105809504D02*
X119521370Y-105619028D01*
X119521370Y-105619028D02*
X119568989Y-105380933D01*
X119568989Y-105380933D02*
X119616608Y-105238076D01*
X119616608Y-105238076D02*
X119664227Y-105142838D01*
X119664227Y-105142838D02*
X119759465Y-104999980D01*
X119759465Y-104999980D02*
X119807084Y-104952361D01*
X120616608Y-105428552D02*
X120616608Y-106095219D01*
X120378513Y-105047600D02*
X120140418Y-105761885D01*
X120140418Y-105761885D02*
X120759465Y-105761885D01*
X121568989Y-106095219D02*
X121568989Y-105571409D01*
X121568989Y-105571409D02*
X121521370Y-105476171D01*
X121521370Y-105476171D02*
X121426132Y-105428552D01*
X121426132Y-105428552D02*
X121235656Y-105428552D01*
X121235656Y-105428552D02*
X121140418Y-105476171D01*
X121568989Y-106047600D02*
X121473751Y-106095219D01*
X121473751Y-106095219D02*
X121235656Y-106095219D01*
X121235656Y-106095219D02*
X121140418Y-106047600D01*
X121140418Y-106047600D02*
X121092799Y-105952361D01*
X121092799Y-105952361D02*
X121092799Y-105857123D01*
X121092799Y-105857123D02*
X121140418Y-105761885D01*
X121140418Y-105761885D02*
X121235656Y-105714266D01*
X121235656Y-105714266D02*
X121473751Y-105714266D01*
X121473751Y-105714266D02*
X121568989Y-105666647D01*
X121949942Y-106476171D02*
X121997561Y-106428552D01*
X121997561Y-106428552D02*
X122092799Y-106285695D01*
X122092799Y-106285695D02*
X122140418Y-106190457D01*
X122140418Y-106190457D02*
X122188037Y-106047600D01*
X122188037Y-106047600D02*
X122235656Y-105809504D01*
X122235656Y-105809504D02*
X122235656Y-105619028D01*
X122235656Y-105619028D02*
X122188037Y-105380933D01*
X122188037Y-105380933D02*
X122140418Y-105238076D01*
X122140418Y-105238076D02*
X122092799Y-105142838D01*
X122092799Y-105142838D02*
X121997561Y-104999980D01*
X121997561Y-104999980D02*
X121949942Y-104952361D01*
X90137274Y-105231619D02*
X89661084Y-105231619D01*
X89661084Y-105231619D02*
X89661084Y-104231619D01*
X90470608Y-104707809D02*
X90803941Y-104707809D01*
X90946798Y-105231619D02*
X90470608Y-105231619D01*
X90470608Y-105231619D02*
X90470608Y-104231619D01*
X90470608Y-104231619D02*
X90946798Y-104231619D01*
X91375370Y-105231619D02*
X91375370Y-104231619D01*
X91375370Y-104231619D02*
X91613465Y-104231619D01*
X91613465Y-104231619D02*
X91756322Y-104279238D01*
X91756322Y-104279238D02*
X91851560Y-104374476D01*
X91851560Y-104374476D02*
X91899179Y-104469714D01*
X91899179Y-104469714D02*
X91946798Y-104660190D01*
X91946798Y-104660190D02*
X91946798Y-104803047D01*
X91946798Y-104803047D02*
X91899179Y-104993523D01*
X91899179Y-104993523D02*
X91851560Y-105088761D01*
X91851560Y-105088761D02*
X91756322Y-105184000D01*
X91756322Y-105184000D02*
X91613465Y-105231619D01*
X91613465Y-105231619D02*
X91375370Y-105231619D01*
X93661084Y-105231619D02*
X93089656Y-105231619D01*
X93375370Y-105231619D02*
X93375370Y-104231619D01*
X93375370Y-104231619D02*
X93280132Y-104374476D01*
X93280132Y-104374476D02*
X93184894Y-104469714D01*
X93184894Y-104469714D02*
X93089656Y-104517333D01*
X95137275Y-105612571D02*
X95089656Y-105564952D01*
X95089656Y-105564952D02*
X94994418Y-105422095D01*
X94994418Y-105422095D02*
X94946799Y-105326857D01*
X94946799Y-105326857D02*
X94899180Y-105184000D01*
X94899180Y-105184000D02*
X94851561Y-104945904D01*
X94851561Y-104945904D02*
X94851561Y-104755428D01*
X94851561Y-104755428D02*
X94899180Y-104517333D01*
X94899180Y-104517333D02*
X94946799Y-104374476D01*
X94946799Y-104374476D02*
X94994418Y-104279238D01*
X94994418Y-104279238D02*
X95089656Y-104136380D01*
X95089656Y-104136380D02*
X95137275Y-104088761D01*
X96042037Y-105231619D02*
X95470609Y-105231619D01*
X95756323Y-105231619D02*
X95756323Y-104231619D01*
X95756323Y-104231619D02*
X95661085Y-104374476D01*
X95661085Y-104374476D02*
X95565847Y-104469714D01*
X95565847Y-104469714D02*
X95470609Y-104517333D01*
X96470609Y-104707809D02*
X96803942Y-104707809D01*
X96946799Y-105231619D02*
X96470609Y-105231619D01*
X96470609Y-105231619D02*
X96470609Y-104231619D01*
X96470609Y-104231619D02*
X96946799Y-104231619D01*
X97280133Y-105612571D02*
X97327752Y-105564952D01*
X97327752Y-105564952D02*
X97422990Y-105422095D01*
X97422990Y-105422095D02*
X97470609Y-105326857D01*
X97470609Y-105326857D02*
X97518228Y-105184000D01*
X97518228Y-105184000D02*
X97565847Y-104945904D01*
X97565847Y-104945904D02*
X97565847Y-104755428D01*
X97565847Y-104755428D02*
X97518228Y-104517333D01*
X97518228Y-104517333D02*
X97470609Y-104374476D01*
X97470609Y-104374476D02*
X97422990Y-104279238D01*
X97422990Y-104279238D02*
X97327752Y-104136380D01*
X97327752Y-104136380D02*
X97280133Y-104088761D01*
X96328512Y-85019580D02*
X96280893Y-85067200D01*
X96280893Y-85067200D02*
X96138036Y-85114819D01*
X96138036Y-85114819D02*
X96042798Y-85114819D01*
X96042798Y-85114819D02*
X95899941Y-85067200D01*
X95899941Y-85067200D02*
X95804703Y-84971961D01*
X95804703Y-84971961D02*
X95757084Y-84876723D01*
X95757084Y-84876723D02*
X95709465Y-84686247D01*
X95709465Y-84686247D02*
X95709465Y-84543390D01*
X95709465Y-84543390D02*
X95757084Y-84352914D01*
X95757084Y-84352914D02*
X95804703Y-84257676D01*
X95804703Y-84257676D02*
X95899941Y-84162438D01*
X95899941Y-84162438D02*
X96042798Y-84114819D01*
X96042798Y-84114819D02*
X96138036Y-84114819D01*
X96138036Y-84114819D02*
X96280893Y-84162438D01*
X96280893Y-84162438D02*
X96328512Y-84210057D01*
X96757084Y-85114819D02*
X96757084Y-84114819D01*
X96757084Y-84114819D02*
X97138036Y-84114819D01*
X97138036Y-84114819D02*
X97233274Y-84162438D01*
X97233274Y-84162438D02*
X97280893Y-84210057D01*
X97280893Y-84210057D02*
X97328512Y-84305295D01*
X97328512Y-84305295D02*
X97328512Y-84448152D01*
X97328512Y-84448152D02*
X97280893Y-84543390D01*
X97280893Y-84543390D02*
X97233274Y-84591009D01*
X97233274Y-84591009D02*
X97138036Y-84638628D01*
X97138036Y-84638628D02*
X96757084Y-84638628D01*
X116026284Y-114782019D02*
X116026284Y-113782019D01*
X116026284Y-113782019D02*
X116264379Y-113782019D01*
X116264379Y-113782019D02*
X116407236Y-113829638D01*
X116407236Y-113829638D02*
X116502474Y-113924876D01*
X116502474Y-113924876D02*
X116550093Y-114020114D01*
X116550093Y-114020114D02*
X116597712Y-114210590D01*
X116597712Y-114210590D02*
X116597712Y-114353447D01*
X116597712Y-114353447D02*
X116550093Y-114543923D01*
X116550093Y-114543923D02*
X116502474Y-114639161D01*
X116502474Y-114639161D02*
X116407236Y-114734400D01*
X116407236Y-114734400D02*
X116264379Y-114782019D01*
X116264379Y-114782019D02*
X116026284Y-114782019D01*
X117026284Y-114782019D02*
X117026284Y-113782019D01*
X117026284Y-113782019D02*
X117597712Y-114782019D01*
X117597712Y-114782019D02*
X117597712Y-113782019D01*
X118073903Y-114782019D02*
X118073903Y-113782019D01*
X118073903Y-113782019D02*
X118454855Y-113782019D01*
X118454855Y-113782019D02*
X118550093Y-113829638D01*
X118550093Y-113829638D02*
X118597712Y-113877257D01*
X118597712Y-113877257D02*
X118645331Y-113972495D01*
X118645331Y-113972495D02*
X118645331Y-114115352D01*
X118645331Y-114115352D02*
X118597712Y-114210590D01*
X118597712Y-114210590D02*
X118550093Y-114258209D01*
X118550093Y-114258209D02*
X118454855Y-114305828D01*
X118454855Y-114305828D02*
X118073903Y-114305828D01*
X115483293Y-118046038D02*
X115388055Y-117998419D01*
X115388055Y-117998419D02*
X115245198Y-117998419D01*
X115245198Y-117998419D02*
X115102341Y-118046038D01*
X115102341Y-118046038D02*
X115007103Y-118141276D01*
X115007103Y-118141276D02*
X114959484Y-118236514D01*
X114959484Y-118236514D02*
X114911865Y-118426990D01*
X114911865Y-118426990D02*
X114911865Y-118569847D01*
X114911865Y-118569847D02*
X114959484Y-118760323D01*
X114959484Y-118760323D02*
X115007103Y-118855561D01*
X115007103Y-118855561D02*
X115102341Y-118950800D01*
X115102341Y-118950800D02*
X115245198Y-118998419D01*
X115245198Y-118998419D02*
X115340436Y-118998419D01*
X115340436Y-118998419D02*
X115483293Y-118950800D01*
X115483293Y-118950800D02*
X115530912Y-118903180D01*
X115530912Y-118903180D02*
X115530912Y-118569847D01*
X115530912Y-118569847D02*
X115340436Y-118569847D01*
X115959484Y-118998419D02*
X115959484Y-117998419D01*
X115959484Y-117998419D02*
X116530912Y-118998419D01*
X116530912Y-118998419D02*
X116530912Y-117998419D01*
X117007103Y-118998419D02*
X117007103Y-117998419D01*
X117007103Y-117998419D02*
X117245198Y-117998419D01*
X117245198Y-117998419D02*
X117388055Y-118046038D01*
X117388055Y-118046038D02*
X117483293Y-118141276D01*
X117483293Y-118141276D02*
X117530912Y-118236514D01*
X117530912Y-118236514D02*
X117578531Y-118426990D01*
X117578531Y-118426990D02*
X117578531Y-118569847D01*
X117578531Y-118569847D02*
X117530912Y-118760323D01*
X117530912Y-118760323D02*
X117483293Y-118855561D01*
X117483293Y-118855561D02*
X117388055Y-118950800D01*
X117388055Y-118950800D02*
X117245198Y-118998419D01*
X117245198Y-118998419D02*
X117007103Y-118998419D01*
X119054722Y-119379371D02*
X119007103Y-119331752D01*
X119007103Y-119331752D02*
X118911865Y-119188895D01*
X118911865Y-119188895D02*
X118864246Y-119093657D01*
X118864246Y-119093657D02*
X118816627Y-118950800D01*
X118816627Y-118950800D02*
X118769008Y-118712704D01*
X118769008Y-118712704D02*
X118769008Y-118522228D01*
X118769008Y-118522228D02*
X118816627Y-118284133D01*
X118816627Y-118284133D02*
X118864246Y-118141276D01*
X118864246Y-118141276D02*
X118911865Y-118046038D01*
X118911865Y-118046038D02*
X119007103Y-117903180D01*
X119007103Y-117903180D02*
X119054722Y-117855561D01*
X119435675Y-118998419D02*
X119435675Y-117998419D01*
X120007103Y-118998419D02*
X119578532Y-118426990D01*
X120007103Y-117998419D02*
X119435675Y-118569847D01*
X120911865Y-118998419D02*
X120435675Y-118998419D01*
X120435675Y-118998419D02*
X120435675Y-117998419D01*
X121149961Y-117998419D02*
X121769008Y-117998419D01*
X121769008Y-117998419D02*
X121435675Y-118379371D01*
X121435675Y-118379371D02*
X121578532Y-118379371D01*
X121578532Y-118379371D02*
X121673770Y-118426990D01*
X121673770Y-118426990D02*
X121721389Y-118474609D01*
X121721389Y-118474609D02*
X121769008Y-118569847D01*
X121769008Y-118569847D02*
X121769008Y-118807942D01*
X121769008Y-118807942D02*
X121721389Y-118903180D01*
X121721389Y-118903180D02*
X121673770Y-118950800D01*
X121673770Y-118950800D02*
X121578532Y-118998419D01*
X121578532Y-118998419D02*
X121292818Y-118998419D01*
X121292818Y-118998419D02*
X121197580Y-118950800D01*
X121197580Y-118950800D02*
X121149961Y-118903180D01*
X122721389Y-118998419D02*
X122149961Y-118998419D01*
X122435675Y-118998419D02*
X122435675Y-117998419D01*
X122435675Y-117998419D02*
X122340437Y-118141276D01*
X122340437Y-118141276D02*
X122245199Y-118236514D01*
X122245199Y-118236514D02*
X122149961Y-118284133D01*
X123864246Y-117950800D02*
X123007104Y-119236514D01*
X124626151Y-118331752D02*
X124626151Y-118998419D01*
X124388056Y-117950800D02*
X124149961Y-118665085D01*
X124149961Y-118665085D02*
X124769008Y-118665085D01*
X125578532Y-118331752D02*
X125578532Y-119141276D01*
X125578532Y-119141276D02*
X125530913Y-119236514D01*
X125530913Y-119236514D02*
X125483294Y-119284133D01*
X125483294Y-119284133D02*
X125388056Y-119331752D01*
X125388056Y-119331752D02*
X125245199Y-119331752D01*
X125245199Y-119331752D02*
X125149961Y-119284133D01*
X125578532Y-118950800D02*
X125483294Y-118998419D01*
X125483294Y-118998419D02*
X125292818Y-118998419D01*
X125292818Y-118998419D02*
X125197580Y-118950800D01*
X125197580Y-118950800D02*
X125149961Y-118903180D01*
X125149961Y-118903180D02*
X125102342Y-118807942D01*
X125102342Y-118807942D02*
X125102342Y-118522228D01*
X125102342Y-118522228D02*
X125149961Y-118426990D01*
X125149961Y-118426990D02*
X125197580Y-118379371D01*
X125197580Y-118379371D02*
X125292818Y-118331752D01*
X125292818Y-118331752D02*
X125483294Y-118331752D01*
X125483294Y-118331752D02*
X125578532Y-118379371D01*
X125959485Y-119379371D02*
X126007104Y-119331752D01*
X126007104Y-119331752D02*
X126102342Y-119188895D01*
X126102342Y-119188895D02*
X126149961Y-119093657D01*
X126149961Y-119093657D02*
X126197580Y-118950800D01*
X126197580Y-118950800D02*
X126245199Y-118712704D01*
X126245199Y-118712704D02*
X126245199Y-118522228D01*
X126245199Y-118522228D02*
X126197580Y-118284133D01*
X126197580Y-118284133D02*
X126149961Y-118141276D01*
X126149961Y-118141276D02*
X126102342Y-118046038D01*
X126102342Y-118046038D02*
X126007104Y-117903180D01*
X126007104Y-117903180D02*
X125959485Y-117855561D01*
X93178912Y-114534380D02*
X93131293Y-114582000D01*
X93131293Y-114582000D02*
X92988436Y-114629619D01*
X92988436Y-114629619D02*
X92893198Y-114629619D01*
X92893198Y-114629619D02*
X92750341Y-114582000D01*
X92750341Y-114582000D02*
X92655103Y-114486761D01*
X92655103Y-114486761D02*
X92607484Y-114391523D01*
X92607484Y-114391523D02*
X92559865Y-114201047D01*
X92559865Y-114201047D02*
X92559865Y-114058190D01*
X92559865Y-114058190D02*
X92607484Y-113867714D01*
X92607484Y-113867714D02*
X92655103Y-113772476D01*
X92655103Y-113772476D02*
X92750341Y-113677238D01*
X92750341Y-113677238D02*
X92893198Y-113629619D01*
X92893198Y-113629619D02*
X92988436Y-113629619D01*
X92988436Y-113629619D02*
X93131293Y-113677238D01*
X93131293Y-113677238D02*
X93178912Y-113724857D01*
X94178912Y-114534380D02*
X94131293Y-114582000D01*
X94131293Y-114582000D02*
X93988436Y-114629619D01*
X93988436Y-114629619D02*
X93893198Y-114629619D01*
X93893198Y-114629619D02*
X93750341Y-114582000D01*
X93750341Y-114582000D02*
X93655103Y-114486761D01*
X93655103Y-114486761D02*
X93607484Y-114391523D01*
X93607484Y-114391523D02*
X93559865Y-114201047D01*
X93559865Y-114201047D02*
X93559865Y-114058190D01*
X93559865Y-114058190D02*
X93607484Y-113867714D01*
X93607484Y-113867714D02*
X93655103Y-113772476D01*
X93655103Y-113772476D02*
X93750341Y-113677238D01*
X93750341Y-113677238D02*
X93893198Y-113629619D01*
X93893198Y-113629619D02*
X93988436Y-113629619D01*
X93988436Y-113629619D02*
X94131293Y-113677238D01*
X94131293Y-113677238D02*
X94178912Y-113724857D01*
X95655103Y-115010571D02*
X95607484Y-114962952D01*
X95607484Y-114962952D02*
X95512246Y-114820095D01*
X95512246Y-114820095D02*
X95464627Y-114724857D01*
X95464627Y-114724857D02*
X95417008Y-114582000D01*
X95417008Y-114582000D02*
X95369389Y-114343904D01*
X95369389Y-114343904D02*
X95369389Y-114153428D01*
X95369389Y-114153428D02*
X95417008Y-113915333D01*
X95417008Y-113915333D02*
X95464627Y-113772476D01*
X95464627Y-113772476D02*
X95512246Y-113677238D01*
X95512246Y-113677238D02*
X95607484Y-113534380D01*
X95607484Y-113534380D02*
X95655103Y-113486761D01*
X95940818Y-113629619D02*
X96559865Y-113629619D01*
X96559865Y-113629619D02*
X96226532Y-114010571D01*
X96226532Y-114010571D02*
X96369389Y-114010571D01*
X96369389Y-114010571D02*
X96464627Y-114058190D01*
X96464627Y-114058190D02*
X96512246Y-114105809D01*
X96512246Y-114105809D02*
X96559865Y-114201047D01*
X96559865Y-114201047D02*
X96559865Y-114439142D01*
X96559865Y-114439142D02*
X96512246Y-114534380D01*
X96512246Y-114534380D02*
X96464627Y-114582000D01*
X96464627Y-114582000D02*
X96369389Y-114629619D01*
X96369389Y-114629619D02*
X96083675Y-114629619D01*
X96083675Y-114629619D02*
X95988437Y-114582000D01*
X95988437Y-114582000D02*
X95940818Y-114534380D01*
X97321770Y-114105809D02*
X97464627Y-114153428D01*
X97464627Y-114153428D02*
X97512246Y-114201047D01*
X97512246Y-114201047D02*
X97559865Y-114296285D01*
X97559865Y-114296285D02*
X97559865Y-114439142D01*
X97559865Y-114439142D02*
X97512246Y-114534380D01*
X97512246Y-114534380D02*
X97464627Y-114582000D01*
X97464627Y-114582000D02*
X97369389Y-114629619D01*
X97369389Y-114629619D02*
X96988437Y-114629619D01*
X96988437Y-114629619D02*
X96988437Y-113629619D01*
X96988437Y-113629619D02*
X97321770Y-113629619D01*
X97321770Y-113629619D02*
X97417008Y-113677238D01*
X97417008Y-113677238D02*
X97464627Y-113724857D01*
X97464627Y-113724857D02*
X97512246Y-113820095D01*
X97512246Y-113820095D02*
X97512246Y-113915333D01*
X97512246Y-113915333D02*
X97464627Y-114010571D01*
X97464627Y-114010571D02*
X97417008Y-114058190D01*
X97417008Y-114058190D02*
X97321770Y-114105809D01*
X97321770Y-114105809D02*
X96988437Y-114105809D01*
X97893199Y-115010571D02*
X97940818Y-114962952D01*
X97940818Y-114962952D02*
X98036056Y-114820095D01*
X98036056Y-114820095D02*
X98083675Y-114724857D01*
X98083675Y-114724857D02*
X98131294Y-114582000D01*
X98131294Y-114582000D02*
X98178913Y-114343904D01*
X98178913Y-114343904D02*
X98178913Y-114153428D01*
X98178913Y-114153428D02*
X98131294Y-113915333D01*
X98131294Y-113915333D02*
X98083675Y-113772476D01*
X98083675Y-113772476D02*
X98036056Y-113677238D01*
X98036056Y-113677238D02*
X97940818Y-113534380D01*
X97940818Y-113534380D02*
X97893199Y-113486761D01*
X89832474Y-118541219D02*
X89356284Y-118541219D01*
X89356284Y-118541219D02*
X89356284Y-117541219D01*
X90165808Y-118017409D02*
X90499141Y-118017409D01*
X90641998Y-118541219D02*
X90165808Y-118541219D01*
X90165808Y-118541219D02*
X90165808Y-117541219D01*
X90165808Y-117541219D02*
X90641998Y-117541219D01*
X91070570Y-118541219D02*
X91070570Y-117541219D01*
X91070570Y-117541219D02*
X91308665Y-117541219D01*
X91308665Y-117541219D02*
X91451522Y-117588838D01*
X91451522Y-117588838D02*
X91546760Y-117684076D01*
X91546760Y-117684076D02*
X91594379Y-117779314D01*
X91594379Y-117779314D02*
X91641998Y-117969790D01*
X91641998Y-117969790D02*
X91641998Y-118112647D01*
X91641998Y-118112647D02*
X91594379Y-118303123D01*
X91594379Y-118303123D02*
X91546760Y-118398361D01*
X91546760Y-118398361D02*
X91451522Y-118493600D01*
X91451522Y-118493600D02*
X91308665Y-118541219D01*
X91308665Y-118541219D02*
X91070570Y-118541219D01*
X93356284Y-117588838D02*
X93261046Y-117541219D01*
X93261046Y-117541219D02*
X93118189Y-117541219D01*
X93118189Y-117541219D02*
X92975332Y-117588838D01*
X92975332Y-117588838D02*
X92880094Y-117684076D01*
X92880094Y-117684076D02*
X92832475Y-117779314D01*
X92832475Y-117779314D02*
X92784856Y-117969790D01*
X92784856Y-117969790D02*
X92784856Y-118112647D01*
X92784856Y-118112647D02*
X92832475Y-118303123D01*
X92832475Y-118303123D02*
X92880094Y-118398361D01*
X92880094Y-118398361D02*
X92975332Y-118493600D01*
X92975332Y-118493600D02*
X93118189Y-118541219D01*
X93118189Y-118541219D02*
X93213427Y-118541219D01*
X93213427Y-118541219D02*
X93356284Y-118493600D01*
X93356284Y-118493600D02*
X93403903Y-118445980D01*
X93403903Y-118445980D02*
X93403903Y-118112647D01*
X93403903Y-118112647D02*
X93213427Y-118112647D01*
X93832475Y-118541219D02*
X93832475Y-117541219D01*
X93832475Y-117541219D02*
X94403903Y-118541219D01*
X94403903Y-118541219D02*
X94403903Y-117541219D01*
X94880094Y-118541219D02*
X94880094Y-117541219D01*
X94880094Y-117541219D02*
X95118189Y-117541219D01*
X95118189Y-117541219D02*
X95261046Y-117588838D01*
X95261046Y-117588838D02*
X95356284Y-117684076D01*
X95356284Y-117684076D02*
X95403903Y-117779314D01*
X95403903Y-117779314D02*
X95451522Y-117969790D01*
X95451522Y-117969790D02*
X95451522Y-118112647D01*
X95451522Y-118112647D02*
X95403903Y-118303123D01*
X95403903Y-118303123D02*
X95356284Y-118398361D01*
X95356284Y-118398361D02*
X95261046Y-118493600D01*
X95261046Y-118493600D02*
X95118189Y-118541219D01*
X95118189Y-118541219D02*
X94880094Y-118541219D01*
X96927713Y-118922171D02*
X96880094Y-118874552D01*
X96880094Y-118874552D02*
X96784856Y-118731695D01*
X96784856Y-118731695D02*
X96737237Y-118636457D01*
X96737237Y-118636457D02*
X96689618Y-118493600D01*
X96689618Y-118493600D02*
X96641999Y-118255504D01*
X96641999Y-118255504D02*
X96641999Y-118065028D01*
X96641999Y-118065028D02*
X96689618Y-117826933D01*
X96689618Y-117826933D02*
X96737237Y-117684076D01*
X96737237Y-117684076D02*
X96784856Y-117588838D01*
X96784856Y-117588838D02*
X96880094Y-117445980D01*
X96880094Y-117445980D02*
X96927713Y-117398361D01*
X97261047Y-117636457D02*
X97308666Y-117588838D01*
X97308666Y-117588838D02*
X97403904Y-117541219D01*
X97403904Y-117541219D02*
X97641999Y-117541219D01*
X97641999Y-117541219D02*
X97737237Y-117588838D01*
X97737237Y-117588838D02*
X97784856Y-117636457D01*
X97784856Y-117636457D02*
X97832475Y-117731695D01*
X97832475Y-117731695D02*
X97832475Y-117826933D01*
X97832475Y-117826933D02*
X97784856Y-117969790D01*
X97784856Y-117969790D02*
X97213428Y-118541219D01*
X97213428Y-118541219D02*
X97832475Y-118541219D01*
X98118190Y-117874552D02*
X98499142Y-117874552D01*
X98261047Y-118541219D02*
X98261047Y-117684076D01*
X98261047Y-117684076D02*
X98308666Y-117588838D01*
X98308666Y-117588838D02*
X98403904Y-117541219D01*
X98403904Y-117541219D02*
X98499142Y-117541219D01*
X98737238Y-118922171D02*
X98784857Y-118874552D01*
X98784857Y-118874552D02*
X98880095Y-118731695D01*
X98880095Y-118731695D02*
X98927714Y-118636457D01*
X98927714Y-118636457D02*
X98975333Y-118493600D01*
X98975333Y-118493600D02*
X99022952Y-118255504D01*
X99022952Y-118255504D02*
X99022952Y-118065028D01*
X99022952Y-118065028D02*
X98975333Y-117826933D01*
X98975333Y-117826933D02*
X98927714Y-117684076D01*
X98927714Y-117684076D02*
X98880095Y-117588838D01*
X98880095Y-117588838D02*
X98784857Y-117445980D01*
X98784857Y-117445980D02*
X98737238Y-117398361D01*
X115429312Y-110216380D02*
X115381693Y-110264000D01*
X115381693Y-110264000D02*
X115238836Y-110311619D01*
X115238836Y-110311619D02*
X115143598Y-110311619D01*
X115143598Y-110311619D02*
X115000741Y-110264000D01*
X115000741Y-110264000D02*
X114905503Y-110168761D01*
X114905503Y-110168761D02*
X114857884Y-110073523D01*
X114857884Y-110073523D02*
X114810265Y-109883047D01*
X114810265Y-109883047D02*
X114810265Y-109740190D01*
X114810265Y-109740190D02*
X114857884Y-109549714D01*
X114857884Y-109549714D02*
X114905503Y-109454476D01*
X114905503Y-109454476D02*
X115000741Y-109359238D01*
X115000741Y-109359238D02*
X115143598Y-109311619D01*
X115143598Y-109311619D02*
X115238836Y-109311619D01*
X115238836Y-109311619D02*
X115381693Y-109359238D01*
X115381693Y-109359238D02*
X115429312Y-109406857D01*
X115810265Y-110025904D02*
X116286455Y-110025904D01*
X115715027Y-110311619D02*
X116048360Y-109311619D01*
X116048360Y-109311619D02*
X116381693Y-110311619D01*
X116715027Y-110311619D02*
X116715027Y-109311619D01*
X116715027Y-109311619D02*
X117286455Y-110311619D01*
X117286455Y-110311619D02*
X117286455Y-109311619D01*
X118238836Y-110311619D02*
X117762646Y-110311619D01*
X117762646Y-110311619D02*
X117762646Y-109311619D01*
X119619789Y-110692571D02*
X119572170Y-110644952D01*
X119572170Y-110644952D02*
X119476932Y-110502095D01*
X119476932Y-110502095D02*
X119429313Y-110406857D01*
X119429313Y-110406857D02*
X119381694Y-110264000D01*
X119381694Y-110264000D02*
X119334075Y-110025904D01*
X119334075Y-110025904D02*
X119334075Y-109835428D01*
X119334075Y-109835428D02*
X119381694Y-109597333D01*
X119381694Y-109597333D02*
X119429313Y-109454476D01*
X119429313Y-109454476D02*
X119476932Y-109359238D01*
X119476932Y-109359238D02*
X119572170Y-109216380D01*
X119572170Y-109216380D02*
X119619789Y-109168761D01*
X120429313Y-109644952D02*
X120429313Y-110311619D01*
X120191218Y-109264000D02*
X119953123Y-109978285D01*
X119953123Y-109978285D02*
X120572170Y-109978285D01*
X120953123Y-110311619D02*
X120953123Y-109311619D01*
X120953123Y-109692571D02*
X121048361Y-109644952D01*
X121048361Y-109644952D02*
X121238837Y-109644952D01*
X121238837Y-109644952D02*
X121334075Y-109692571D01*
X121334075Y-109692571D02*
X121381694Y-109740190D01*
X121381694Y-109740190D02*
X121429313Y-109835428D01*
X121429313Y-109835428D02*
X121429313Y-110121142D01*
X121429313Y-110121142D02*
X121381694Y-110216380D01*
X121381694Y-110216380D02*
X121334075Y-110264000D01*
X121334075Y-110264000D02*
X121238837Y-110311619D01*
X121238837Y-110311619D02*
X121048361Y-110311619D01*
X121048361Y-110311619D02*
X120953123Y-110264000D01*
X121762647Y-110692571D02*
X121810266Y-110644952D01*
X121810266Y-110644952D02*
X121905504Y-110502095D01*
X121905504Y-110502095D02*
X121953123Y-110406857D01*
X121953123Y-110406857D02*
X122000742Y-110264000D01*
X122000742Y-110264000D02*
X122048361Y-110025904D01*
X122048361Y-110025904D02*
X122048361Y-109835428D01*
X122048361Y-109835428D02*
X122000742Y-109597333D01*
X122000742Y-109597333D02*
X121953123Y-109454476D01*
X121953123Y-109454476D02*
X121905504Y-109359238D01*
X121905504Y-109359238D02*
X121810266Y-109216380D01*
X121810266Y-109216380D02*
X121762647Y-109168761D01*
X93940912Y-123170380D02*
X93893293Y-123218000D01*
X93893293Y-123218000D02*
X93750436Y-123265619D01*
X93750436Y-123265619D02*
X93655198Y-123265619D01*
X93655198Y-123265619D02*
X93512341Y-123218000D01*
X93512341Y-123218000D02*
X93417103Y-123122761D01*
X93417103Y-123122761D02*
X93369484Y-123027523D01*
X93369484Y-123027523D02*
X93321865Y-122837047D01*
X93321865Y-122837047D02*
X93321865Y-122694190D01*
X93321865Y-122694190D02*
X93369484Y-122503714D01*
X93369484Y-122503714D02*
X93417103Y-122408476D01*
X93417103Y-122408476D02*
X93512341Y-122313238D01*
X93512341Y-122313238D02*
X93655198Y-122265619D01*
X93655198Y-122265619D02*
X93750436Y-122265619D01*
X93750436Y-122265619D02*
X93893293Y-122313238D01*
X93893293Y-122313238D02*
X93940912Y-122360857D01*
X94369484Y-123265619D02*
X94369484Y-122265619D01*
X94369484Y-122265619D02*
X94750436Y-122265619D01*
X94750436Y-122265619D02*
X94845674Y-122313238D01*
X94845674Y-122313238D02*
X94893293Y-122360857D01*
X94893293Y-122360857D02*
X94940912Y-122456095D01*
X94940912Y-122456095D02*
X94940912Y-122598952D01*
X94940912Y-122598952D02*
X94893293Y-122694190D01*
X94893293Y-122694190D02*
X94845674Y-122741809D01*
X94845674Y-122741809D02*
X94750436Y-122789428D01*
X94750436Y-122789428D02*
X94369484Y-122789428D01*
X96417103Y-123646571D02*
X96369484Y-123598952D01*
X96369484Y-123598952D02*
X96274246Y-123456095D01*
X96274246Y-123456095D02*
X96226627Y-123360857D01*
X96226627Y-123360857D02*
X96179008Y-123218000D01*
X96179008Y-123218000D02*
X96131389Y-122979904D01*
X96131389Y-122979904D02*
X96131389Y-122789428D01*
X96131389Y-122789428D02*
X96179008Y-122551333D01*
X96179008Y-122551333D02*
X96226627Y-122408476D01*
X96226627Y-122408476D02*
X96274246Y-122313238D01*
X96274246Y-122313238D02*
X96369484Y-122170380D01*
X96369484Y-122170380D02*
X96417103Y-122122761D01*
X96702818Y-122265619D02*
X97321865Y-122265619D01*
X97321865Y-122265619D02*
X96988532Y-122646571D01*
X96988532Y-122646571D02*
X97131389Y-122646571D01*
X97131389Y-122646571D02*
X97226627Y-122694190D01*
X97226627Y-122694190D02*
X97274246Y-122741809D01*
X97274246Y-122741809D02*
X97321865Y-122837047D01*
X97321865Y-122837047D02*
X97321865Y-123075142D01*
X97321865Y-123075142D02*
X97274246Y-123170380D01*
X97274246Y-123170380D02*
X97226627Y-123218000D01*
X97226627Y-123218000D02*
X97131389Y-123265619D01*
X97131389Y-123265619D02*
X96845675Y-123265619D01*
X96845675Y-123265619D02*
X96750437Y-123218000D01*
X96750437Y-123218000D02*
X96702818Y-123170380D01*
X98179008Y-123265619D02*
X98179008Y-122741809D01*
X98179008Y-122741809D02*
X98131389Y-122646571D01*
X98131389Y-122646571D02*
X98036151Y-122598952D01*
X98036151Y-122598952D02*
X97845675Y-122598952D01*
X97845675Y-122598952D02*
X97750437Y-122646571D01*
X98179008Y-123218000D02*
X98083770Y-123265619D01*
X98083770Y-123265619D02*
X97845675Y-123265619D01*
X97845675Y-123265619D02*
X97750437Y-123218000D01*
X97750437Y-123218000D02*
X97702818Y-123122761D01*
X97702818Y-123122761D02*
X97702818Y-123027523D01*
X97702818Y-123027523D02*
X97750437Y-122932285D01*
X97750437Y-122932285D02*
X97845675Y-122884666D01*
X97845675Y-122884666D02*
X98083770Y-122884666D01*
X98083770Y-122884666D02*
X98179008Y-122837047D01*
X98559961Y-123646571D02*
X98607580Y-123598952D01*
X98607580Y-123598952D02*
X98702818Y-123456095D01*
X98702818Y-123456095D02*
X98750437Y-123360857D01*
X98750437Y-123360857D02*
X98798056Y-123218000D01*
X98798056Y-123218000D02*
X98845675Y-122979904D01*
X98845675Y-122979904D02*
X98845675Y-122789428D01*
X98845675Y-122789428D02*
X98798056Y-122551333D01*
X98798056Y-122551333D02*
X98750437Y-122408476D01*
X98750437Y-122408476D02*
X98702818Y-122313238D01*
X98702818Y-122313238D02*
X98607580Y-122170380D01*
X98607580Y-122170380D02*
X98559961Y-122122761D01*
D12*
X165784305Y-113872169D02*
X165784305Y-112872169D01*
X166355733Y-113872169D02*
X165927162Y-113300740D01*
X166355733Y-112872169D02*
X165784305Y-113443597D01*
X167308114Y-113872169D02*
X166736686Y-113872169D01*
X167022400Y-113872169D02*
X167022400Y-112872169D01*
X167022400Y-112872169D02*
X166927162Y-113015026D01*
X166927162Y-113015026D02*
X166831924Y-113110264D01*
X166831924Y-113110264D02*
X166736686Y-113157883D01*
X162712400Y-96732168D02*
X162712400Y-96970263D01*
X162474305Y-96875025D02*
X162712400Y-96970263D01*
X162712400Y-96970263D02*
X162950495Y-96875025D01*
X162569543Y-97160739D02*
X162712400Y-96970263D01*
X162712400Y-96970263D02*
X162855257Y-97160739D01*
X162712400Y-96732168D02*
X162712400Y-96970263D01*
X162474305Y-96875025D02*
X162712400Y-96970263D01*
X162712400Y-96970263D02*
X162950495Y-96875025D01*
X162569543Y-97160739D02*
X162712400Y-96970263D01*
X162712400Y-96970263D02*
X162855257Y-97160739D01*
X122103219Y-146654816D02*
X121627028Y-146988149D01*
X122103219Y-147226244D02*
X121103219Y-147226244D01*
X121103219Y-147226244D02*
X121103219Y-146845292D01*
X121103219Y-146845292D02*
X121150838Y-146750054D01*
X121150838Y-146750054D02*
X121198457Y-146702435D01*
X121198457Y-146702435D02*
X121293695Y-146654816D01*
X121293695Y-146654816D02*
X121436552Y-146654816D01*
X121436552Y-146654816D02*
X121531790Y-146702435D01*
X121531790Y-146702435D02*
X121579409Y-146750054D01*
X121579409Y-146750054D02*
X121627028Y-146845292D01*
X121627028Y-146845292D02*
X121627028Y-147226244D01*
X121103219Y-145750054D02*
X121103219Y-146226244D01*
X121103219Y-146226244D02*
X121579409Y-146273863D01*
X121579409Y-146273863D02*
X121531790Y-146226244D01*
X121531790Y-146226244D02*
X121484171Y-146131006D01*
X121484171Y-146131006D02*
X121484171Y-145892911D01*
X121484171Y-145892911D02*
X121531790Y-145797673D01*
X121531790Y-145797673D02*
X121579409Y-145750054D01*
X121579409Y-145750054D02*
X121674647Y-145702435D01*
X121674647Y-145702435D02*
X121912742Y-145702435D01*
X121912742Y-145702435D02*
X122007980Y-145750054D01*
X122007980Y-145750054D02*
X122055600Y-145797673D01*
X122055600Y-145797673D02*
X122103219Y-145892911D01*
X122103219Y-145892911D02*
X122103219Y-146131006D01*
X122103219Y-146131006D02*
X122055600Y-146226244D01*
X122055600Y-146226244D02*
X122007980Y-146273863D01*
X116363219Y-147202435D02*
X116363219Y-147678625D01*
X116363219Y-147678625D02*
X116839409Y-147726244D01*
X116839409Y-147726244D02*
X116791790Y-147678625D01*
X116791790Y-147678625D02*
X116744171Y-147583387D01*
X116744171Y-147583387D02*
X116744171Y-147345292D01*
X116744171Y-147345292D02*
X116791790Y-147250054D01*
X116791790Y-147250054D02*
X116839409Y-147202435D01*
X116839409Y-147202435D02*
X116934647Y-147154816D01*
X116934647Y-147154816D02*
X117172742Y-147154816D01*
X117172742Y-147154816D02*
X117267980Y-147202435D01*
X117267980Y-147202435D02*
X117315600Y-147250054D01*
X117315600Y-147250054D02*
X117363219Y-147345292D01*
X117363219Y-147345292D02*
X117363219Y-147583387D01*
X117363219Y-147583387D02*
X117315600Y-147678625D01*
X117315600Y-147678625D02*
X117267980Y-147726244D01*
X116363219Y-146297673D02*
X116363219Y-146488149D01*
X116363219Y-146488149D02*
X116410838Y-146583387D01*
X116410838Y-146583387D02*
X116458457Y-146631006D01*
X116458457Y-146631006D02*
X116601314Y-146726244D01*
X116601314Y-146726244D02*
X116791790Y-146773863D01*
X116791790Y-146773863D02*
X117172742Y-146773863D01*
X117172742Y-146773863D02*
X117267980Y-146726244D01*
X117267980Y-146726244D02*
X117315600Y-146678625D01*
X117315600Y-146678625D02*
X117363219Y-146583387D01*
X117363219Y-146583387D02*
X117363219Y-146392911D01*
X117363219Y-146392911D02*
X117315600Y-146297673D01*
X117315600Y-146297673D02*
X117267980Y-146250054D01*
X117267980Y-146250054D02*
X117172742Y-146202435D01*
X117172742Y-146202435D02*
X116934647Y-146202435D01*
X116934647Y-146202435D02*
X116839409Y-146250054D01*
X116839409Y-146250054D02*
X116791790Y-146297673D01*
X116791790Y-146297673D02*
X116744171Y-146392911D01*
X116744171Y-146392911D02*
X116744171Y-146583387D01*
X116744171Y-146583387D02*
X116791790Y-146678625D01*
X116791790Y-146678625D02*
X116839409Y-146726244D01*
X116839409Y-146726244D02*
X116934647Y-146773863D01*
X116363219Y-145583387D02*
X116363219Y-145488149D01*
X116363219Y-145488149D02*
X116410838Y-145392911D01*
X116410838Y-145392911D02*
X116458457Y-145345292D01*
X116458457Y-145345292D02*
X116553695Y-145297673D01*
X116553695Y-145297673D02*
X116744171Y-145250054D01*
X116744171Y-145250054D02*
X116982266Y-145250054D01*
X116982266Y-145250054D02*
X117172742Y-145297673D01*
X117172742Y-145297673D02*
X117267980Y-145345292D01*
X117267980Y-145345292D02*
X117315600Y-145392911D01*
X117315600Y-145392911D02*
X117363219Y-145488149D01*
X117363219Y-145488149D02*
X117363219Y-145583387D01*
X117363219Y-145583387D02*
X117315600Y-145678625D01*
X117315600Y-145678625D02*
X117267980Y-145726244D01*
X117267980Y-145726244D02*
X117172742Y-145773863D01*
X117172742Y-145773863D02*
X116982266Y-145821482D01*
X116982266Y-145821482D02*
X116744171Y-145821482D01*
X116744171Y-145821482D02*
X116553695Y-145773863D01*
X116553695Y-145773863D02*
X116458457Y-145726244D01*
X116458457Y-145726244D02*
X116410838Y-145678625D01*
X116410838Y-145678625D02*
X116363219Y-145583387D01*
X165885905Y-102255569D02*
X165885905Y-101255569D01*
X165885905Y-101255569D02*
X166124000Y-101255569D01*
X166124000Y-101255569D02*
X166266857Y-101303188D01*
X166266857Y-101303188D02*
X166362095Y-101398426D01*
X166362095Y-101398426D02*
X166409714Y-101493664D01*
X166409714Y-101493664D02*
X166457333Y-101684140D01*
X166457333Y-101684140D02*
X166457333Y-101826997D01*
X166457333Y-101826997D02*
X166409714Y-102017473D01*
X166409714Y-102017473D02*
X166362095Y-102112711D01*
X166362095Y-102112711D02*
X166266857Y-102207950D01*
X166266857Y-102207950D02*
X166124000Y-102255569D01*
X166124000Y-102255569D02*
X165885905Y-102255569D01*
X166838286Y-101350807D02*
X166885905Y-101303188D01*
X166885905Y-101303188D02*
X166981143Y-101255569D01*
X166981143Y-101255569D02*
X167219238Y-101255569D01*
X167219238Y-101255569D02*
X167314476Y-101303188D01*
X167314476Y-101303188D02*
X167362095Y-101350807D01*
X167362095Y-101350807D02*
X167409714Y-101446045D01*
X167409714Y-101446045D02*
X167409714Y-101541283D01*
X167409714Y-101541283D02*
X167362095Y-101684140D01*
X167362095Y-101684140D02*
X166790667Y-102255569D01*
X166790667Y-102255569D02*
X167409714Y-102255569D01*
X173982095Y-100830569D02*
X173982095Y-99830569D01*
X174553523Y-100830569D02*
X174124952Y-100259140D01*
X174553523Y-99830569D02*
X173982095Y-100401997D01*
X174767219Y-117648016D02*
X174291028Y-117981349D01*
X174767219Y-118219444D02*
X173767219Y-118219444D01*
X173767219Y-118219444D02*
X173767219Y-117838492D01*
X173767219Y-117838492D02*
X173814838Y-117743254D01*
X173814838Y-117743254D02*
X173862457Y-117695635D01*
X173862457Y-117695635D02*
X173957695Y-117648016D01*
X173957695Y-117648016D02*
X174100552Y-117648016D01*
X174100552Y-117648016D02*
X174195790Y-117695635D01*
X174195790Y-117695635D02*
X174243409Y-117743254D01*
X174243409Y-117743254D02*
X174291028Y-117838492D01*
X174291028Y-117838492D02*
X174291028Y-118219444D01*
X174195790Y-117076587D02*
X174148171Y-117171825D01*
X174148171Y-117171825D02*
X174100552Y-117219444D01*
X174100552Y-117219444D02*
X174005314Y-117267063D01*
X174005314Y-117267063D02*
X173957695Y-117267063D01*
X173957695Y-117267063D02*
X173862457Y-117219444D01*
X173862457Y-117219444D02*
X173814838Y-117171825D01*
X173814838Y-117171825D02*
X173767219Y-117076587D01*
X173767219Y-117076587D02*
X173767219Y-116886111D01*
X173767219Y-116886111D02*
X173814838Y-116790873D01*
X173814838Y-116790873D02*
X173862457Y-116743254D01*
X173862457Y-116743254D02*
X173957695Y-116695635D01*
X173957695Y-116695635D02*
X174005314Y-116695635D01*
X174005314Y-116695635D02*
X174100552Y-116743254D01*
X174100552Y-116743254D02*
X174148171Y-116790873D01*
X174148171Y-116790873D02*
X174195790Y-116886111D01*
X174195790Y-116886111D02*
X174195790Y-117076587D01*
X174195790Y-117076587D02*
X174243409Y-117171825D01*
X174243409Y-117171825D02*
X174291028Y-117219444D01*
X174291028Y-117219444D02*
X174386266Y-117267063D01*
X174386266Y-117267063D02*
X174576742Y-117267063D01*
X174576742Y-117267063D02*
X174671980Y-117219444D01*
X174671980Y-117219444D02*
X174719600Y-117171825D01*
X174719600Y-117171825D02*
X174767219Y-117076587D01*
X174767219Y-117076587D02*
X174767219Y-116886111D01*
X174767219Y-116886111D02*
X174719600Y-116790873D01*
X174719600Y-116790873D02*
X174671980Y-116743254D01*
X174671980Y-116743254D02*
X174576742Y-116695635D01*
X174576742Y-116695635D02*
X174386266Y-116695635D01*
X174386266Y-116695635D02*
X174291028Y-116743254D01*
X174291028Y-116743254D02*
X174243409Y-116790873D01*
X174243409Y-116790873D02*
X174195790Y-116886111D01*
X179507219Y-117600397D02*
X179507219Y-118171825D01*
X179507219Y-117886111D02*
X178507219Y-117886111D01*
X178507219Y-117886111D02*
X178650076Y-117981349D01*
X178650076Y-117981349D02*
X178745314Y-118076587D01*
X178745314Y-118076587D02*
X178792933Y-118171825D01*
X179507219Y-117171825D02*
X178507219Y-117171825D01*
X179126266Y-117076587D02*
X179507219Y-116790873D01*
X178840552Y-116790873D02*
X179221504Y-117171825D01*
X185896105Y-55352969D02*
X185896105Y-54352969D01*
X185896105Y-54352969D02*
X186134200Y-54352969D01*
X186134200Y-54352969D02*
X186277057Y-54400588D01*
X186277057Y-54400588D02*
X186372295Y-54495826D01*
X186372295Y-54495826D02*
X186419914Y-54591064D01*
X186419914Y-54591064D02*
X186467533Y-54781540D01*
X186467533Y-54781540D02*
X186467533Y-54924397D01*
X186467533Y-54924397D02*
X186419914Y-55114873D01*
X186419914Y-55114873D02*
X186372295Y-55210111D01*
X186372295Y-55210111D02*
X186277057Y-55305350D01*
X186277057Y-55305350D02*
X186134200Y-55352969D01*
X186134200Y-55352969D02*
X185896105Y-55352969D01*
X186800867Y-54352969D02*
X187467533Y-54352969D01*
X187467533Y-54352969D02*
X187038962Y-55352969D01*
X175277542Y-136800569D02*
X174944209Y-136324378D01*
X174706114Y-136800569D02*
X174706114Y-135800569D01*
X174706114Y-135800569D02*
X175087066Y-135800569D01*
X175087066Y-135800569D02*
X175182304Y-135848188D01*
X175182304Y-135848188D02*
X175229923Y-135895807D01*
X175229923Y-135895807D02*
X175277542Y-135991045D01*
X175277542Y-135991045D02*
X175277542Y-136133902D01*
X175277542Y-136133902D02*
X175229923Y-136229140D01*
X175229923Y-136229140D02*
X175182304Y-136276759D01*
X175182304Y-136276759D02*
X175087066Y-136324378D01*
X175087066Y-136324378D02*
X174706114Y-136324378D01*
X176229923Y-136800569D02*
X175658495Y-136800569D01*
X175944209Y-136800569D02*
X175944209Y-135800569D01*
X175944209Y-135800569D02*
X175848971Y-135943426D01*
X175848971Y-135943426D02*
X175753733Y-136038664D01*
X175753733Y-136038664D02*
X175658495Y-136086283D01*
X176848971Y-135800569D02*
X176944209Y-135800569D01*
X176944209Y-135800569D02*
X177039447Y-135848188D01*
X177039447Y-135848188D02*
X177087066Y-135895807D01*
X177087066Y-135895807D02*
X177134685Y-135991045D01*
X177134685Y-135991045D02*
X177182304Y-136181521D01*
X177182304Y-136181521D02*
X177182304Y-136419616D01*
X177182304Y-136419616D02*
X177134685Y-136610092D01*
X177134685Y-136610092D02*
X177087066Y-136705330D01*
X177087066Y-136705330D02*
X177039447Y-136752950D01*
X177039447Y-136752950D02*
X176944209Y-136800569D01*
X176944209Y-136800569D02*
X176848971Y-136800569D01*
X176848971Y-136800569D02*
X176753733Y-136752950D01*
X176753733Y-136752950D02*
X176706114Y-136705330D01*
X176706114Y-136705330D02*
X176658495Y-136610092D01*
X176658495Y-136610092D02*
X176610876Y-136419616D01*
X176610876Y-136419616D02*
X176610876Y-136181521D01*
X176610876Y-136181521D02*
X176658495Y-135991045D01*
X176658495Y-135991045D02*
X176706114Y-135895807D01*
X176706114Y-135895807D02*
X176753733Y-135848188D01*
X176753733Y-135848188D02*
X176848971Y-135800569D01*
X197713695Y-53708819D02*
X197713695Y-52708819D01*
X197713695Y-53185009D02*
X198285123Y-53185009D01*
X198285123Y-53708819D02*
X198285123Y-52708819D01*
X199189885Y-53042152D02*
X199189885Y-53708819D01*
X198951790Y-52661200D02*
X198713695Y-53375485D01*
X198713695Y-53375485D02*
X199332742Y-53375485D01*
X164419619Y-148839216D02*
X163943428Y-149172549D01*
X164419619Y-149410644D02*
X163419619Y-149410644D01*
X163419619Y-149410644D02*
X163419619Y-149029692D01*
X163419619Y-149029692D02*
X163467238Y-148934454D01*
X163467238Y-148934454D02*
X163514857Y-148886835D01*
X163514857Y-148886835D02*
X163610095Y-148839216D01*
X163610095Y-148839216D02*
X163752952Y-148839216D01*
X163752952Y-148839216D02*
X163848190Y-148886835D01*
X163848190Y-148886835D02*
X163895809Y-148934454D01*
X163895809Y-148934454D02*
X163943428Y-149029692D01*
X163943428Y-149029692D02*
X163943428Y-149410644D01*
X164419619Y-147886835D02*
X164419619Y-148458263D01*
X164419619Y-148172549D02*
X163419619Y-148172549D01*
X163419619Y-148172549D02*
X163562476Y-148267787D01*
X163562476Y-148267787D02*
X163657714Y-148363025D01*
X163657714Y-148363025D02*
X163705333Y-148458263D01*
X158679619Y-149386835D02*
X158679619Y-149863025D01*
X158679619Y-149863025D02*
X159155809Y-149910644D01*
X159155809Y-149910644D02*
X159108190Y-149863025D01*
X159108190Y-149863025D02*
X159060571Y-149767787D01*
X159060571Y-149767787D02*
X159060571Y-149529692D01*
X159060571Y-149529692D02*
X159108190Y-149434454D01*
X159108190Y-149434454D02*
X159155809Y-149386835D01*
X159155809Y-149386835D02*
X159251047Y-149339216D01*
X159251047Y-149339216D02*
X159489142Y-149339216D01*
X159489142Y-149339216D02*
X159584380Y-149386835D01*
X159584380Y-149386835D02*
X159632000Y-149434454D01*
X159632000Y-149434454D02*
X159679619Y-149529692D01*
X159679619Y-149529692D02*
X159679619Y-149767787D01*
X159679619Y-149767787D02*
X159632000Y-149863025D01*
X159632000Y-149863025D02*
X159584380Y-149910644D01*
X158679619Y-148482073D02*
X158679619Y-148672549D01*
X158679619Y-148672549D02*
X158727238Y-148767787D01*
X158727238Y-148767787D02*
X158774857Y-148815406D01*
X158774857Y-148815406D02*
X158917714Y-148910644D01*
X158917714Y-148910644D02*
X159108190Y-148958263D01*
X159108190Y-148958263D02*
X159489142Y-148958263D01*
X159489142Y-148958263D02*
X159584380Y-148910644D01*
X159584380Y-148910644D02*
X159632000Y-148863025D01*
X159632000Y-148863025D02*
X159679619Y-148767787D01*
X159679619Y-148767787D02*
X159679619Y-148577311D01*
X159679619Y-148577311D02*
X159632000Y-148482073D01*
X159632000Y-148482073D02*
X159584380Y-148434454D01*
X159584380Y-148434454D02*
X159489142Y-148386835D01*
X159489142Y-148386835D02*
X159251047Y-148386835D01*
X159251047Y-148386835D02*
X159155809Y-148434454D01*
X159155809Y-148434454D02*
X159108190Y-148482073D01*
X159108190Y-148482073D02*
X159060571Y-148577311D01*
X159060571Y-148577311D02*
X159060571Y-148767787D01*
X159060571Y-148767787D02*
X159108190Y-148863025D01*
X159108190Y-148863025D02*
X159155809Y-148910644D01*
X159155809Y-148910644D02*
X159251047Y-148958263D01*
X158679619Y-147767787D02*
X158679619Y-147672549D01*
X158679619Y-147672549D02*
X158727238Y-147577311D01*
X158727238Y-147577311D02*
X158774857Y-147529692D01*
X158774857Y-147529692D02*
X158870095Y-147482073D01*
X158870095Y-147482073D02*
X159060571Y-147434454D01*
X159060571Y-147434454D02*
X159298666Y-147434454D01*
X159298666Y-147434454D02*
X159489142Y-147482073D01*
X159489142Y-147482073D02*
X159584380Y-147529692D01*
X159584380Y-147529692D02*
X159632000Y-147577311D01*
X159632000Y-147577311D02*
X159679619Y-147672549D01*
X159679619Y-147672549D02*
X159679619Y-147767787D01*
X159679619Y-147767787D02*
X159632000Y-147863025D01*
X159632000Y-147863025D02*
X159584380Y-147910644D01*
X159584380Y-147910644D02*
X159489142Y-147958263D01*
X159489142Y-147958263D02*
X159298666Y-148005882D01*
X159298666Y-148005882D02*
X159060571Y-148005882D01*
X159060571Y-148005882D02*
X158870095Y-147958263D01*
X158870095Y-147958263D02*
X158774857Y-147910644D01*
X158774857Y-147910644D02*
X158727238Y-147863025D01*
X158727238Y-147863025D02*
X158679619Y-147767787D01*
X182519657Y-130733788D02*
X182472038Y-130829026D01*
X182472038Y-130829026D02*
X182376800Y-130924264D01*
X182376800Y-130924264D02*
X182233942Y-131067121D01*
X182233942Y-131067121D02*
X182186323Y-131162359D01*
X182186323Y-131162359D02*
X182186323Y-131257597D01*
X182424419Y-131209978D02*
X182376800Y-131305216D01*
X182376800Y-131305216D02*
X182281561Y-131400454D01*
X182281561Y-131400454D02*
X182091085Y-131448073D01*
X182091085Y-131448073D02*
X181757752Y-131448073D01*
X181757752Y-131448073D02*
X181567276Y-131400454D01*
X181567276Y-131400454D02*
X181472038Y-131305216D01*
X181472038Y-131305216D02*
X181424419Y-131209978D01*
X181424419Y-131209978D02*
X181424419Y-131019502D01*
X181424419Y-131019502D02*
X181472038Y-130924264D01*
X181472038Y-130924264D02*
X181567276Y-130829026D01*
X181567276Y-130829026D02*
X181757752Y-130781407D01*
X181757752Y-130781407D02*
X182091085Y-130781407D01*
X182091085Y-130781407D02*
X182281561Y-130829026D01*
X182281561Y-130829026D02*
X182376800Y-130924264D01*
X182376800Y-130924264D02*
X182424419Y-131019502D01*
X182424419Y-131019502D02*
X182424419Y-131209978D01*
X182424419Y-129829026D02*
X182424419Y-130400454D01*
X182424419Y-130114740D02*
X181424419Y-130114740D01*
X181424419Y-130114740D02*
X181567276Y-130209978D01*
X181567276Y-130209978D02*
X181662514Y-130305216D01*
X181662514Y-130305216D02*
X181710133Y-130400454D01*
X136059942Y-141438969D02*
X135726609Y-140962778D01*
X135488514Y-141438969D02*
X135488514Y-140438969D01*
X135488514Y-140438969D02*
X135869466Y-140438969D01*
X135869466Y-140438969D02*
X135964704Y-140486588D01*
X135964704Y-140486588D02*
X136012323Y-140534207D01*
X136012323Y-140534207D02*
X136059942Y-140629445D01*
X136059942Y-140629445D02*
X136059942Y-140772302D01*
X136059942Y-140772302D02*
X136012323Y-140867540D01*
X136012323Y-140867540D02*
X135964704Y-140915159D01*
X135964704Y-140915159D02*
X135869466Y-140962778D01*
X135869466Y-140962778D02*
X135488514Y-140962778D01*
X137012323Y-141438969D02*
X136440895Y-141438969D01*
X136726609Y-141438969D02*
X136726609Y-140438969D01*
X136726609Y-140438969D02*
X136631371Y-140581826D01*
X136631371Y-140581826D02*
X136536133Y-140677064D01*
X136536133Y-140677064D02*
X136440895Y-140724683D01*
X137393276Y-140534207D02*
X137440895Y-140486588D01*
X137440895Y-140486588D02*
X137536133Y-140438969D01*
X137536133Y-140438969D02*
X137774228Y-140438969D01*
X137774228Y-140438969D02*
X137869466Y-140486588D01*
X137869466Y-140486588D02*
X137917085Y-140534207D01*
X137917085Y-140534207D02*
X137964704Y-140629445D01*
X137964704Y-140629445D02*
X137964704Y-140724683D01*
X137964704Y-140724683D02*
X137917085Y-140867540D01*
X137917085Y-140867540D02*
X137345657Y-141438969D01*
X137345657Y-141438969D02*
X137964704Y-141438969D01*
X117988419Y-136698016D02*
X117512228Y-137031349D01*
X117988419Y-137269444D02*
X116988419Y-137269444D01*
X116988419Y-137269444D02*
X116988419Y-136888492D01*
X116988419Y-136888492D02*
X117036038Y-136793254D01*
X117036038Y-136793254D02*
X117083657Y-136745635D01*
X117083657Y-136745635D02*
X117178895Y-136698016D01*
X117178895Y-136698016D02*
X117321752Y-136698016D01*
X117321752Y-136698016D02*
X117416990Y-136745635D01*
X117416990Y-136745635D02*
X117464609Y-136793254D01*
X117464609Y-136793254D02*
X117512228Y-136888492D01*
X117512228Y-136888492D02*
X117512228Y-137269444D01*
X116988419Y-136364682D02*
X116988419Y-135745635D01*
X116988419Y-135745635D02*
X117369371Y-136078968D01*
X117369371Y-136078968D02*
X117369371Y-135936111D01*
X117369371Y-135936111D02*
X117416990Y-135840873D01*
X117416990Y-135840873D02*
X117464609Y-135793254D01*
X117464609Y-135793254D02*
X117559847Y-135745635D01*
X117559847Y-135745635D02*
X117797942Y-135745635D01*
X117797942Y-135745635D02*
X117893180Y-135793254D01*
X117893180Y-135793254D02*
X117940800Y-135840873D01*
X117940800Y-135840873D02*
X117988419Y-135936111D01*
X117988419Y-135936111D02*
X117988419Y-136221825D01*
X117988419Y-136221825D02*
X117940800Y-136317063D01*
X117940800Y-136317063D02*
X117893180Y-136364682D01*
X112248419Y-137245635D02*
X112248419Y-137721825D01*
X112248419Y-137721825D02*
X112724609Y-137769444D01*
X112724609Y-137769444D02*
X112676990Y-137721825D01*
X112676990Y-137721825D02*
X112629371Y-137626587D01*
X112629371Y-137626587D02*
X112629371Y-137388492D01*
X112629371Y-137388492D02*
X112676990Y-137293254D01*
X112676990Y-137293254D02*
X112724609Y-137245635D01*
X112724609Y-137245635D02*
X112819847Y-137198016D01*
X112819847Y-137198016D02*
X113057942Y-137198016D01*
X113057942Y-137198016D02*
X113153180Y-137245635D01*
X113153180Y-137245635D02*
X113200800Y-137293254D01*
X113200800Y-137293254D02*
X113248419Y-137388492D01*
X113248419Y-137388492D02*
X113248419Y-137626587D01*
X113248419Y-137626587D02*
X113200800Y-137721825D01*
X113200800Y-137721825D02*
X113153180Y-137769444D01*
X112248419Y-136340873D02*
X112248419Y-136531349D01*
X112248419Y-136531349D02*
X112296038Y-136626587D01*
X112296038Y-136626587D02*
X112343657Y-136674206D01*
X112343657Y-136674206D02*
X112486514Y-136769444D01*
X112486514Y-136769444D02*
X112676990Y-136817063D01*
X112676990Y-136817063D02*
X113057942Y-136817063D01*
X113057942Y-136817063D02*
X113153180Y-136769444D01*
X113153180Y-136769444D02*
X113200800Y-136721825D01*
X113200800Y-136721825D02*
X113248419Y-136626587D01*
X113248419Y-136626587D02*
X113248419Y-136436111D01*
X113248419Y-136436111D02*
X113200800Y-136340873D01*
X113200800Y-136340873D02*
X113153180Y-136293254D01*
X113153180Y-136293254D02*
X113057942Y-136245635D01*
X113057942Y-136245635D02*
X112819847Y-136245635D01*
X112819847Y-136245635D02*
X112724609Y-136293254D01*
X112724609Y-136293254D02*
X112676990Y-136340873D01*
X112676990Y-136340873D02*
X112629371Y-136436111D01*
X112629371Y-136436111D02*
X112629371Y-136626587D01*
X112629371Y-136626587D02*
X112676990Y-136721825D01*
X112676990Y-136721825D02*
X112724609Y-136769444D01*
X112724609Y-136769444D02*
X112819847Y-136817063D01*
X112248419Y-135626587D02*
X112248419Y-135531349D01*
X112248419Y-135531349D02*
X112296038Y-135436111D01*
X112296038Y-135436111D02*
X112343657Y-135388492D01*
X112343657Y-135388492D02*
X112438895Y-135340873D01*
X112438895Y-135340873D02*
X112629371Y-135293254D01*
X112629371Y-135293254D02*
X112867466Y-135293254D01*
X112867466Y-135293254D02*
X113057942Y-135340873D01*
X113057942Y-135340873D02*
X113153180Y-135388492D01*
X113153180Y-135388492D02*
X113200800Y-135436111D01*
X113200800Y-135436111D02*
X113248419Y-135531349D01*
X113248419Y-135531349D02*
X113248419Y-135626587D01*
X113248419Y-135626587D02*
X113200800Y-135721825D01*
X113200800Y-135721825D02*
X113153180Y-135769444D01*
X113153180Y-135769444D02*
X113057942Y-135817063D01*
X113057942Y-135817063D02*
X112867466Y-135864682D01*
X112867466Y-135864682D02*
X112629371Y-135864682D01*
X112629371Y-135864682D02*
X112438895Y-135817063D01*
X112438895Y-135817063D02*
X112343657Y-135769444D01*
X112343657Y-135769444D02*
X112296038Y-135721825D01*
X112296038Y-135721825D02*
X112248419Y-135626587D01*
X197038095Y-156904819D02*
X197038095Y-155904819D01*
X197038095Y-156381009D02*
X197609523Y-156381009D01*
X197609523Y-156904819D02*
X197609523Y-155904819D01*
X198038095Y-156000057D02*
X198085714Y-155952438D01*
X198085714Y-155952438D02*
X198180952Y-155904819D01*
X198180952Y-155904819D02*
X198419047Y-155904819D01*
X198419047Y-155904819D02*
X198514285Y-155952438D01*
X198514285Y-155952438D02*
X198561904Y-156000057D01*
X198561904Y-156000057D02*
X198609523Y-156095295D01*
X198609523Y-156095295D02*
X198609523Y-156190533D01*
X198609523Y-156190533D02*
X198561904Y-156333390D01*
X198561904Y-156333390D02*
X197990476Y-156904819D01*
X197990476Y-156904819D02*
X198609523Y-156904819D01*
X195877979Y-119789616D02*
X195163694Y-119789616D01*
X195163694Y-119789616D02*
X195020837Y-119741997D01*
X195020837Y-119741997D02*
X194925599Y-119646759D01*
X194925599Y-119646759D02*
X194877979Y-119503902D01*
X194877979Y-119503902D02*
X194877979Y-119408664D01*
X195877979Y-120741997D02*
X195877979Y-120265807D01*
X195877979Y-120265807D02*
X195401789Y-120218188D01*
X195401789Y-120218188D02*
X195449408Y-120265807D01*
X195449408Y-120265807D02*
X195497027Y-120361045D01*
X195497027Y-120361045D02*
X195497027Y-120599140D01*
X195497027Y-120599140D02*
X195449408Y-120694378D01*
X195449408Y-120694378D02*
X195401789Y-120741997D01*
X195401789Y-120741997D02*
X195306551Y-120789616D01*
X195306551Y-120789616D02*
X195068456Y-120789616D01*
X195068456Y-120789616D02*
X194973218Y-120741997D01*
X194973218Y-120741997D02*
X194925599Y-120694378D01*
X194925599Y-120694378D02*
X194877979Y-120599140D01*
X194877979Y-120599140D02*
X194877979Y-120361045D01*
X194877979Y-120361045D02*
X194925599Y-120265807D01*
X194925599Y-120265807D02*
X194973218Y-120218188D01*
X199443410Y-113200590D02*
X199300553Y-113152971D01*
X199300553Y-113152971D02*
X199252934Y-113105352D01*
X199252934Y-113105352D02*
X199205315Y-113010114D01*
X199205315Y-113010114D02*
X199205315Y-112867257D01*
X199205315Y-112867257D02*
X199252934Y-112772019D01*
X199252934Y-112772019D02*
X199300553Y-112724400D01*
X199300553Y-112724400D02*
X199395791Y-112676780D01*
X199395791Y-112676780D02*
X199776743Y-112676780D01*
X199776743Y-112676780D02*
X199776743Y-113676780D01*
X199776743Y-113676780D02*
X199443410Y-113676780D01*
X199443410Y-113676780D02*
X199348172Y-113629161D01*
X199348172Y-113629161D02*
X199300553Y-113581542D01*
X199300553Y-113581542D02*
X199252934Y-113486304D01*
X199252934Y-113486304D02*
X199252934Y-113391066D01*
X199252934Y-113391066D02*
X199300553Y-113295828D01*
X199300553Y-113295828D02*
X199348172Y-113248209D01*
X199348172Y-113248209D02*
X199443410Y-113200590D01*
X199443410Y-113200590D02*
X199776743Y-113200590D01*
X198348172Y-112676780D02*
X198348172Y-113200590D01*
X198348172Y-113200590D02*
X198395791Y-113295828D01*
X198395791Y-113295828D02*
X198491029Y-113343447D01*
X198491029Y-113343447D02*
X198681505Y-113343447D01*
X198681505Y-113343447D02*
X198776743Y-113295828D01*
X198348172Y-112724400D02*
X198443410Y-112676780D01*
X198443410Y-112676780D02*
X198681505Y-112676780D01*
X198681505Y-112676780D02*
X198776743Y-112724400D01*
X198776743Y-112724400D02*
X198824362Y-112819638D01*
X198824362Y-112819638D02*
X198824362Y-112914876D01*
X198824362Y-112914876D02*
X198776743Y-113010114D01*
X198776743Y-113010114D02*
X198681505Y-113057733D01*
X198681505Y-113057733D02*
X198443410Y-113057733D01*
X198443410Y-113057733D02*
X198348172Y-113105352D01*
X198014838Y-113343447D02*
X197633886Y-113343447D01*
X197871981Y-113676780D02*
X197871981Y-112819638D01*
X197871981Y-112819638D02*
X197824362Y-112724400D01*
X197824362Y-112724400D02*
X197729124Y-112676780D01*
X197729124Y-112676780D02*
X197633886Y-112676780D01*
X197443409Y-113343447D02*
X197062457Y-113343447D01*
X197300552Y-113676780D02*
X197300552Y-112819638D01*
X197300552Y-112819638D02*
X197252933Y-112724400D01*
X197252933Y-112724400D02*
X197157695Y-112676780D01*
X197157695Y-112676780D02*
X197062457Y-112676780D01*
X196348171Y-112724400D02*
X196443409Y-112676780D01*
X196443409Y-112676780D02*
X196633885Y-112676780D01*
X196633885Y-112676780D02*
X196729123Y-112724400D01*
X196729123Y-112724400D02*
X196776742Y-112819638D01*
X196776742Y-112819638D02*
X196776742Y-113200590D01*
X196776742Y-113200590D02*
X196729123Y-113295828D01*
X196729123Y-113295828D02*
X196633885Y-113343447D01*
X196633885Y-113343447D02*
X196443409Y-113343447D01*
X196443409Y-113343447D02*
X196348171Y-113295828D01*
X196348171Y-113295828D02*
X196300552Y-113200590D01*
X196300552Y-113200590D02*
X196300552Y-113105352D01*
X196300552Y-113105352D02*
X196776742Y-113010114D01*
X195871980Y-112676780D02*
X195871980Y-113343447D01*
X195871980Y-113152971D02*
X195824361Y-113248209D01*
X195824361Y-113248209D02*
X195776742Y-113295828D01*
X195776742Y-113295828D02*
X195681504Y-113343447D01*
X195681504Y-113343447D02*
X195586266Y-113343447D01*
X195348170Y-113343447D02*
X195110075Y-112676780D01*
X194871980Y-113343447D02*
X195110075Y-112676780D01*
X195110075Y-112676780D02*
X195205313Y-112438685D01*
X195205313Y-112438685D02*
X195252932Y-112391066D01*
X195252932Y-112391066D02*
X195348170Y-112343447D01*
X194633884Y-113676780D02*
X194062456Y-113676780D01*
X194348170Y-112676780D02*
X194348170Y-113676780D01*
X193348170Y-112724400D02*
X193443408Y-112676780D01*
X193443408Y-112676780D02*
X193633884Y-112676780D01*
X193633884Y-112676780D02*
X193729122Y-112724400D01*
X193729122Y-112724400D02*
X193776741Y-112819638D01*
X193776741Y-112819638D02*
X193776741Y-113200590D01*
X193776741Y-113200590D02*
X193729122Y-113295828D01*
X193729122Y-113295828D02*
X193633884Y-113343447D01*
X193633884Y-113343447D02*
X193443408Y-113343447D01*
X193443408Y-113343447D02*
X193348170Y-113295828D01*
X193348170Y-113295828D02*
X193300551Y-113200590D01*
X193300551Y-113200590D02*
X193300551Y-113105352D01*
X193300551Y-113105352D02*
X193776741Y-113010114D01*
X192871979Y-113343447D02*
X192871979Y-112676780D01*
X192871979Y-113248209D02*
X192824360Y-113295828D01*
X192824360Y-113295828D02*
X192729122Y-113343447D01*
X192729122Y-113343447D02*
X192586265Y-113343447D01*
X192586265Y-113343447D02*
X192491027Y-113295828D01*
X192491027Y-113295828D02*
X192443408Y-113200590D01*
X192443408Y-113200590D02*
X192443408Y-112676780D01*
X191538646Y-112676780D02*
X191538646Y-113676780D01*
X191538646Y-112724400D02*
X191633884Y-112676780D01*
X191633884Y-112676780D02*
X191824360Y-112676780D01*
X191824360Y-112676780D02*
X191919598Y-112724400D01*
X191919598Y-112724400D02*
X191967217Y-112772019D01*
X191967217Y-112772019D02*
X192014836Y-112867257D01*
X192014836Y-112867257D02*
X192014836Y-113152971D01*
X192014836Y-113152971D02*
X191967217Y-113248209D01*
X191967217Y-113248209D02*
X191919598Y-113295828D01*
X191919598Y-113295828D02*
X191824360Y-113343447D01*
X191824360Y-113343447D02*
X191633884Y-113343447D01*
X191633884Y-113343447D02*
X191538646Y-113295828D01*
X190681503Y-112724400D02*
X190776741Y-112676780D01*
X190776741Y-112676780D02*
X190967217Y-112676780D01*
X190967217Y-112676780D02*
X191062455Y-112724400D01*
X191062455Y-112724400D02*
X191110074Y-112819638D01*
X191110074Y-112819638D02*
X191110074Y-113200590D01*
X191110074Y-113200590D02*
X191062455Y-113295828D01*
X191062455Y-113295828D02*
X190967217Y-113343447D01*
X190967217Y-113343447D02*
X190776741Y-113343447D01*
X190776741Y-113343447D02*
X190681503Y-113295828D01*
X190681503Y-113295828D02*
X190633884Y-113200590D01*
X190633884Y-113200590D02*
X190633884Y-113105352D01*
X190633884Y-113105352D02*
X191110074Y-113010114D01*
X190205312Y-112676780D02*
X190205312Y-113343447D01*
X190205312Y-113152971D02*
X190157693Y-113248209D01*
X190157693Y-113248209D02*
X190110074Y-113295828D01*
X190110074Y-113295828D02*
X190014836Y-113343447D01*
X190014836Y-113343447D02*
X189919598Y-113343447D01*
X152668219Y-111310644D02*
X151668219Y-111310644D01*
X151668219Y-111310644D02*
X151668219Y-111072549D01*
X151668219Y-111072549D02*
X151715838Y-110929692D01*
X151715838Y-110929692D02*
X151811076Y-110834454D01*
X151811076Y-110834454D02*
X151906314Y-110786835D01*
X151906314Y-110786835D02*
X152096790Y-110739216D01*
X152096790Y-110739216D02*
X152239647Y-110739216D01*
X152239647Y-110739216D02*
X152430123Y-110786835D01*
X152430123Y-110786835D02*
X152525361Y-110834454D01*
X152525361Y-110834454D02*
X152620600Y-110929692D01*
X152620600Y-110929692D02*
X152668219Y-111072549D01*
X152668219Y-111072549D02*
X152668219Y-111310644D01*
X152096790Y-110167787D02*
X152049171Y-110263025D01*
X152049171Y-110263025D02*
X152001552Y-110310644D01*
X152001552Y-110310644D02*
X151906314Y-110358263D01*
X151906314Y-110358263D02*
X151858695Y-110358263D01*
X151858695Y-110358263D02*
X151763457Y-110310644D01*
X151763457Y-110310644D02*
X151715838Y-110263025D01*
X151715838Y-110263025D02*
X151668219Y-110167787D01*
X151668219Y-110167787D02*
X151668219Y-109977311D01*
X151668219Y-109977311D02*
X151715838Y-109882073D01*
X151715838Y-109882073D02*
X151763457Y-109834454D01*
X151763457Y-109834454D02*
X151858695Y-109786835D01*
X151858695Y-109786835D02*
X151906314Y-109786835D01*
X151906314Y-109786835D02*
X152001552Y-109834454D01*
X152001552Y-109834454D02*
X152049171Y-109882073D01*
X152049171Y-109882073D02*
X152096790Y-109977311D01*
X152096790Y-109977311D02*
X152096790Y-110167787D01*
X152096790Y-110167787D02*
X152144409Y-110263025D01*
X152144409Y-110263025D02*
X152192028Y-110310644D01*
X152192028Y-110310644D02*
X152287266Y-110358263D01*
X152287266Y-110358263D02*
X152477742Y-110358263D01*
X152477742Y-110358263D02*
X152572980Y-110310644D01*
X152572980Y-110310644D02*
X152620600Y-110263025D01*
X152620600Y-110263025D02*
X152668219Y-110167787D01*
X152668219Y-110167787D02*
X152668219Y-109977311D01*
X152668219Y-109977311D02*
X152620600Y-109882073D01*
X152620600Y-109882073D02*
X152572980Y-109834454D01*
X152572980Y-109834454D02*
X152477742Y-109786835D01*
X152477742Y-109786835D02*
X152287266Y-109786835D01*
X152287266Y-109786835D02*
X152192028Y-109834454D01*
X152192028Y-109834454D02*
X152144409Y-109882073D01*
X152144409Y-109882073D02*
X152096790Y-109977311D01*
X151243219Y-103214454D02*
X150243219Y-103214454D01*
X151243219Y-102643026D02*
X150671790Y-103071597D01*
X150243219Y-102643026D02*
X150814647Y-103214454D01*
X138860305Y-101391969D02*
X138860305Y-100391969D01*
X138860305Y-100391969D02*
X139098400Y-100391969D01*
X139098400Y-100391969D02*
X139241257Y-100439588D01*
X139241257Y-100439588D02*
X139336495Y-100534826D01*
X139336495Y-100534826D02*
X139384114Y-100630064D01*
X139384114Y-100630064D02*
X139431733Y-100820540D01*
X139431733Y-100820540D02*
X139431733Y-100963397D01*
X139431733Y-100963397D02*
X139384114Y-101153873D01*
X139384114Y-101153873D02*
X139336495Y-101249111D01*
X139336495Y-101249111D02*
X139241257Y-101344350D01*
X139241257Y-101344350D02*
X139098400Y-101391969D01*
X139098400Y-101391969D02*
X138860305Y-101391969D01*
X139765067Y-100391969D02*
X140384114Y-100391969D01*
X140384114Y-100391969D02*
X140050781Y-100772921D01*
X140050781Y-100772921D02*
X140193638Y-100772921D01*
X140193638Y-100772921D02*
X140288876Y-100820540D01*
X140288876Y-100820540D02*
X140336495Y-100868159D01*
X140336495Y-100868159D02*
X140384114Y-100963397D01*
X140384114Y-100963397D02*
X140384114Y-101201492D01*
X140384114Y-101201492D02*
X140336495Y-101296730D01*
X140336495Y-101296730D02*
X140288876Y-101344350D01*
X140288876Y-101344350D02*
X140193638Y-101391969D01*
X140193638Y-101391969D02*
X139907924Y-101391969D01*
X139907924Y-101391969D02*
X139812686Y-101344350D01*
X139812686Y-101344350D02*
X139765067Y-101296730D01*
X146956495Y-99966969D02*
X146956495Y-98966969D01*
X147527923Y-99966969D02*
X147099352Y-99395540D01*
X147527923Y-98966969D02*
X146956495Y-99538397D01*
X127444457Y-130530588D02*
X127396838Y-130625826D01*
X127396838Y-130625826D02*
X127301600Y-130721064D01*
X127301600Y-130721064D02*
X127158742Y-130863921D01*
X127158742Y-130863921D02*
X127111123Y-130959159D01*
X127111123Y-130959159D02*
X127111123Y-131054397D01*
X127349219Y-131006778D02*
X127301600Y-131102016D01*
X127301600Y-131102016D02*
X127206361Y-131197254D01*
X127206361Y-131197254D02*
X127015885Y-131244873D01*
X127015885Y-131244873D02*
X126682552Y-131244873D01*
X126682552Y-131244873D02*
X126492076Y-131197254D01*
X126492076Y-131197254D02*
X126396838Y-131102016D01*
X126396838Y-131102016D02*
X126349219Y-131006778D01*
X126349219Y-131006778D02*
X126349219Y-130816302D01*
X126349219Y-130816302D02*
X126396838Y-130721064D01*
X126396838Y-130721064D02*
X126492076Y-130625826D01*
X126492076Y-130625826D02*
X126682552Y-130578207D01*
X126682552Y-130578207D02*
X127015885Y-130578207D01*
X127015885Y-130578207D02*
X127206361Y-130625826D01*
X127206361Y-130625826D02*
X127301600Y-130721064D01*
X127301600Y-130721064D02*
X127349219Y-130816302D01*
X127349219Y-130816302D02*
X127349219Y-131006778D01*
X126349219Y-130244873D02*
X126349219Y-129625826D01*
X126349219Y-129625826D02*
X126730171Y-129959159D01*
X126730171Y-129959159D02*
X126730171Y-129816302D01*
X126730171Y-129816302D02*
X126777790Y-129721064D01*
X126777790Y-129721064D02*
X126825409Y-129673445D01*
X126825409Y-129673445D02*
X126920647Y-129625826D01*
X126920647Y-129625826D02*
X127158742Y-129625826D01*
X127158742Y-129625826D02*
X127253980Y-129673445D01*
X127253980Y-129673445D02*
X127301600Y-129721064D01*
X127301600Y-129721064D02*
X127349219Y-129816302D01*
X127349219Y-129816302D02*
X127349219Y-130102016D01*
X127349219Y-130102016D02*
X127301600Y-130197254D01*
X127301600Y-130197254D02*
X127253980Y-130244873D01*
X138707905Y-113414168D02*
X138707905Y-112414168D01*
X139279333Y-113414168D02*
X138850762Y-112842739D01*
X139279333Y-112414168D02*
X138707905Y-112985596D01*
X139660286Y-112509406D02*
X139707905Y-112461787D01*
X139707905Y-112461787D02*
X139803143Y-112414168D01*
X139803143Y-112414168D02*
X140041238Y-112414168D01*
X140041238Y-112414168D02*
X140136476Y-112461787D01*
X140136476Y-112461787D02*
X140184095Y-112509406D01*
X140184095Y-112509406D02*
X140231714Y-112604644D01*
X140231714Y-112604644D02*
X140231714Y-112699882D01*
X140231714Y-112699882D02*
X140184095Y-112842739D01*
X140184095Y-112842739D02*
X139612667Y-113414168D01*
X139612667Y-113414168D02*
X140231714Y-113414168D01*
X135636000Y-96274167D02*
X135636000Y-96512262D01*
X135397905Y-96417024D02*
X135636000Y-96512262D01*
X135636000Y-96512262D02*
X135874095Y-96417024D01*
X135493143Y-96702738D02*
X135636000Y-96512262D01*
X135636000Y-96512262D02*
X135778857Y-96702738D01*
X135636000Y-96274167D02*
X135636000Y-96512262D01*
X135397905Y-96417024D02*
X135636000Y-96512262D01*
X135636000Y-96512262D02*
X135874095Y-96417024D01*
X135493143Y-96702738D02*
X135636000Y-96512262D01*
X135636000Y-96512262D02*
X135778857Y-96702738D01*
X192174019Y-77030092D02*
X191174019Y-77030092D01*
X191650209Y-77030092D02*
X191650209Y-76458664D01*
X192174019Y-76458664D02*
X191174019Y-76458664D01*
X191174019Y-76125330D02*
X192174019Y-75791997D01*
X192174019Y-75791997D02*
X191174019Y-75458664D01*
X192174019Y-75125330D02*
X191174019Y-75125330D01*
X192174019Y-74172950D02*
X192174019Y-74649140D01*
X192174019Y-74649140D02*
X191174019Y-74649140D01*
X93838095Y-53104819D02*
X93838095Y-52104819D01*
X93838095Y-52581009D02*
X94409523Y-52581009D01*
X94409523Y-53104819D02*
X94409523Y-52104819D01*
X94790476Y-52104819D02*
X95409523Y-52104819D01*
X95409523Y-52104819D02*
X95076190Y-52485771D01*
X95076190Y-52485771D02*
X95219047Y-52485771D01*
X95219047Y-52485771D02*
X95314285Y-52533390D01*
X95314285Y-52533390D02*
X95361904Y-52581009D01*
X95361904Y-52581009D02*
X95409523Y-52676247D01*
X95409523Y-52676247D02*
X95409523Y-52914342D01*
X95409523Y-52914342D02*
X95361904Y-53009580D01*
X95361904Y-53009580D02*
X95314285Y-53057200D01*
X95314285Y-53057200D02*
X95219047Y-53104819D01*
X95219047Y-53104819D02*
X94933333Y-53104819D01*
X94933333Y-53104819D02*
X94838095Y-53057200D01*
X94838095Y-53057200D02*
X94790476Y-53009580D01*
X151211619Y-148991616D02*
X150735428Y-149324949D01*
X151211619Y-149563044D02*
X150211619Y-149563044D01*
X150211619Y-149563044D02*
X150211619Y-149182092D01*
X150211619Y-149182092D02*
X150259238Y-149086854D01*
X150259238Y-149086854D02*
X150306857Y-149039235D01*
X150306857Y-149039235D02*
X150402095Y-148991616D01*
X150402095Y-148991616D02*
X150544952Y-148991616D01*
X150544952Y-148991616D02*
X150640190Y-149039235D01*
X150640190Y-149039235D02*
X150687809Y-149086854D01*
X150687809Y-149086854D02*
X150735428Y-149182092D01*
X150735428Y-149182092D02*
X150735428Y-149563044D01*
X150306857Y-148610663D02*
X150259238Y-148563044D01*
X150259238Y-148563044D02*
X150211619Y-148467806D01*
X150211619Y-148467806D02*
X150211619Y-148229711D01*
X150211619Y-148229711D02*
X150259238Y-148134473D01*
X150259238Y-148134473D02*
X150306857Y-148086854D01*
X150306857Y-148086854D02*
X150402095Y-148039235D01*
X150402095Y-148039235D02*
X150497333Y-148039235D01*
X150497333Y-148039235D02*
X150640190Y-148086854D01*
X150640190Y-148086854D02*
X151211619Y-148658282D01*
X151211619Y-148658282D02*
X151211619Y-148039235D01*
X145471619Y-149539235D02*
X145471619Y-150015425D01*
X145471619Y-150015425D02*
X145947809Y-150063044D01*
X145947809Y-150063044D02*
X145900190Y-150015425D01*
X145900190Y-150015425D02*
X145852571Y-149920187D01*
X145852571Y-149920187D02*
X145852571Y-149682092D01*
X145852571Y-149682092D02*
X145900190Y-149586854D01*
X145900190Y-149586854D02*
X145947809Y-149539235D01*
X145947809Y-149539235D02*
X146043047Y-149491616D01*
X146043047Y-149491616D02*
X146281142Y-149491616D01*
X146281142Y-149491616D02*
X146376380Y-149539235D01*
X146376380Y-149539235D02*
X146424000Y-149586854D01*
X146424000Y-149586854D02*
X146471619Y-149682092D01*
X146471619Y-149682092D02*
X146471619Y-149920187D01*
X146471619Y-149920187D02*
X146424000Y-150015425D01*
X146424000Y-150015425D02*
X146376380Y-150063044D01*
X145471619Y-148634473D02*
X145471619Y-148824949D01*
X145471619Y-148824949D02*
X145519238Y-148920187D01*
X145519238Y-148920187D02*
X145566857Y-148967806D01*
X145566857Y-148967806D02*
X145709714Y-149063044D01*
X145709714Y-149063044D02*
X145900190Y-149110663D01*
X145900190Y-149110663D02*
X146281142Y-149110663D01*
X146281142Y-149110663D02*
X146376380Y-149063044D01*
X146376380Y-149063044D02*
X146424000Y-149015425D01*
X146424000Y-149015425D02*
X146471619Y-148920187D01*
X146471619Y-148920187D02*
X146471619Y-148729711D01*
X146471619Y-148729711D02*
X146424000Y-148634473D01*
X146424000Y-148634473D02*
X146376380Y-148586854D01*
X146376380Y-148586854D02*
X146281142Y-148539235D01*
X146281142Y-148539235D02*
X146043047Y-148539235D01*
X146043047Y-148539235D02*
X145947809Y-148586854D01*
X145947809Y-148586854D02*
X145900190Y-148634473D01*
X145900190Y-148634473D02*
X145852571Y-148729711D01*
X145852571Y-148729711D02*
X145852571Y-148920187D01*
X145852571Y-148920187D02*
X145900190Y-149015425D01*
X145900190Y-149015425D02*
X145947809Y-149063044D01*
X145947809Y-149063044D02*
X146043047Y-149110663D01*
X145471619Y-147920187D02*
X145471619Y-147824949D01*
X145471619Y-147824949D02*
X145519238Y-147729711D01*
X145519238Y-147729711D02*
X145566857Y-147682092D01*
X145566857Y-147682092D02*
X145662095Y-147634473D01*
X145662095Y-147634473D02*
X145852571Y-147586854D01*
X145852571Y-147586854D02*
X146090666Y-147586854D01*
X146090666Y-147586854D02*
X146281142Y-147634473D01*
X146281142Y-147634473D02*
X146376380Y-147682092D01*
X146376380Y-147682092D02*
X146424000Y-147729711D01*
X146424000Y-147729711D02*
X146471619Y-147824949D01*
X146471619Y-147824949D02*
X146471619Y-147920187D01*
X146471619Y-147920187D02*
X146424000Y-148015425D01*
X146424000Y-148015425D02*
X146376380Y-148063044D01*
X146376380Y-148063044D02*
X146281142Y-148110663D01*
X146281142Y-148110663D02*
X146090666Y-148158282D01*
X146090666Y-148158282D02*
X145852571Y-148158282D01*
X145852571Y-148158282D02*
X145662095Y-148110663D01*
X145662095Y-148110663D02*
X145566857Y-148063044D01*
X145566857Y-148063044D02*
X145519238Y-148015425D01*
X145519238Y-148015425D02*
X145471619Y-147920187D01*
X194078266Y-90462570D02*
X194078266Y-91176855D01*
X194078266Y-91176855D02*
X194030647Y-91319712D01*
X194030647Y-91319712D02*
X193935409Y-91414951D01*
X193935409Y-91414951D02*
X193792552Y-91462570D01*
X193792552Y-91462570D02*
X193697314Y-91462570D01*
X194506838Y-90557808D02*
X194554457Y-90510189D01*
X194554457Y-90510189D02*
X194649695Y-90462570D01*
X194649695Y-90462570D02*
X194887790Y-90462570D01*
X194887790Y-90462570D02*
X194983028Y-90510189D01*
X194983028Y-90510189D02*
X195030647Y-90557808D01*
X195030647Y-90557808D02*
X195078266Y-90653046D01*
X195078266Y-90653046D02*
X195078266Y-90748284D01*
X195078266Y-90748284D02*
X195030647Y-90891141D01*
X195030647Y-90891141D02*
X194459219Y-91462570D01*
X194459219Y-91462570D02*
X195078266Y-91462570D01*
X188551409Y-94684587D02*
X188551409Y-94351254D01*
X189075219Y-94208397D02*
X189075219Y-94684587D01*
X189075219Y-94684587D02*
X188075219Y-94684587D01*
X188075219Y-94684587D02*
X188075219Y-94208397D01*
X189027600Y-93827444D02*
X189075219Y-93684587D01*
X189075219Y-93684587D02*
X189075219Y-93446492D01*
X189075219Y-93446492D02*
X189027600Y-93351254D01*
X189027600Y-93351254D02*
X188979980Y-93303635D01*
X188979980Y-93303635D02*
X188884742Y-93256016D01*
X188884742Y-93256016D02*
X188789504Y-93256016D01*
X188789504Y-93256016D02*
X188694266Y-93303635D01*
X188694266Y-93303635D02*
X188646647Y-93351254D01*
X188646647Y-93351254D02*
X188599028Y-93446492D01*
X188599028Y-93446492D02*
X188551409Y-93636968D01*
X188551409Y-93636968D02*
X188503790Y-93732206D01*
X188503790Y-93732206D02*
X188456171Y-93779825D01*
X188456171Y-93779825D02*
X188360933Y-93827444D01*
X188360933Y-93827444D02*
X188265695Y-93827444D01*
X188265695Y-93827444D02*
X188170457Y-93779825D01*
X188170457Y-93779825D02*
X188122838Y-93732206D01*
X188122838Y-93732206D02*
X188075219Y-93636968D01*
X188075219Y-93636968D02*
X188075219Y-93398873D01*
X188075219Y-93398873D02*
X188122838Y-93256016D01*
X188075219Y-92970301D02*
X188075219Y-92398873D01*
X189075219Y-92684587D02*
X188075219Y-92684587D01*
X188075219Y-91875063D02*
X188075219Y-91684587D01*
X188075219Y-91684587D02*
X188122838Y-91589349D01*
X188122838Y-91589349D02*
X188218076Y-91494111D01*
X188218076Y-91494111D02*
X188408552Y-91446492D01*
X188408552Y-91446492D02*
X188741885Y-91446492D01*
X188741885Y-91446492D02*
X188932361Y-91494111D01*
X188932361Y-91494111D02*
X189027600Y-91589349D01*
X189027600Y-91589349D02*
X189075219Y-91684587D01*
X189075219Y-91684587D02*
X189075219Y-91875063D01*
X189075219Y-91875063D02*
X189027600Y-91970301D01*
X189027600Y-91970301D02*
X188932361Y-92065539D01*
X188932361Y-92065539D02*
X188741885Y-92113158D01*
X188741885Y-92113158D02*
X188408552Y-92113158D01*
X188408552Y-92113158D02*
X188218076Y-92065539D01*
X188218076Y-92065539D02*
X188122838Y-91970301D01*
X188122838Y-91970301D02*
X188075219Y-91875063D01*
X189075219Y-91017920D02*
X188075219Y-91017920D01*
X188075219Y-91017920D02*
X188075219Y-90636968D01*
X188075219Y-90636968D02*
X188122838Y-90541730D01*
X188122838Y-90541730D02*
X188170457Y-90494111D01*
X188170457Y-90494111D02*
X188265695Y-90446492D01*
X188265695Y-90446492D02*
X188408552Y-90446492D01*
X188408552Y-90446492D02*
X188503790Y-90494111D01*
X188503790Y-90494111D02*
X188551409Y-90541730D01*
X188551409Y-90541730D02*
X188599028Y-90636968D01*
X188599028Y-90636968D02*
X188599028Y-91017920D01*
X150484819Y-129859007D02*
X150008628Y-130192340D01*
X150484819Y-130430435D02*
X149484819Y-130430435D01*
X149484819Y-130430435D02*
X149484819Y-130049483D01*
X149484819Y-130049483D02*
X149532438Y-129954245D01*
X149532438Y-129954245D02*
X149580057Y-129906626D01*
X149580057Y-129906626D02*
X149675295Y-129859007D01*
X149675295Y-129859007D02*
X149818152Y-129859007D01*
X149818152Y-129859007D02*
X149913390Y-129906626D01*
X149913390Y-129906626D02*
X149961009Y-129954245D01*
X149961009Y-129954245D02*
X150008628Y-130049483D01*
X150008628Y-130049483D02*
X150008628Y-130430435D01*
X150484819Y-128906626D02*
X150484819Y-129478054D01*
X150484819Y-129192340D02*
X149484819Y-129192340D01*
X149484819Y-129192340D02*
X149627676Y-129287578D01*
X149627676Y-129287578D02*
X149722914Y-129382816D01*
X149722914Y-129382816D02*
X149770533Y-129478054D01*
X150484819Y-127954245D02*
X150484819Y-128525673D01*
X150484819Y-128239959D02*
X149484819Y-128239959D01*
X149484819Y-128239959D02*
X149627676Y-128335197D01*
X149627676Y-128335197D02*
X149722914Y-128430435D01*
X149722914Y-128430435D02*
X149770533Y-128525673D01*
X155224819Y-129335197D02*
X155224819Y-129906625D01*
X155224819Y-129620911D02*
X154224819Y-129620911D01*
X154224819Y-129620911D02*
X154367676Y-129716149D01*
X154367676Y-129716149D02*
X154462914Y-129811387D01*
X154462914Y-129811387D02*
X154510533Y-129906625D01*
X155224819Y-128906625D02*
X154224819Y-128906625D01*
X154843866Y-128811387D02*
X155224819Y-128525673D01*
X154558152Y-128525673D02*
X154939104Y-128906625D01*
X184876419Y-72283616D02*
X184400228Y-72616949D01*
X184876419Y-72855044D02*
X183876419Y-72855044D01*
X183876419Y-72855044D02*
X183876419Y-72474092D01*
X183876419Y-72474092D02*
X183924038Y-72378854D01*
X183924038Y-72378854D02*
X183971657Y-72331235D01*
X183971657Y-72331235D02*
X184066895Y-72283616D01*
X184066895Y-72283616D02*
X184209752Y-72283616D01*
X184209752Y-72283616D02*
X184304990Y-72331235D01*
X184304990Y-72331235D02*
X184352609Y-72378854D01*
X184352609Y-72378854D02*
X184400228Y-72474092D01*
X184400228Y-72474092D02*
X184400228Y-72855044D01*
X183876419Y-71426473D02*
X183876419Y-71616949D01*
X183876419Y-71616949D02*
X183924038Y-71712187D01*
X183924038Y-71712187D02*
X183971657Y-71759806D01*
X183971657Y-71759806D02*
X184114514Y-71855044D01*
X184114514Y-71855044D02*
X184304990Y-71902663D01*
X184304990Y-71902663D02*
X184685942Y-71902663D01*
X184685942Y-71902663D02*
X184781180Y-71855044D01*
X184781180Y-71855044D02*
X184828800Y-71807425D01*
X184828800Y-71807425D02*
X184876419Y-71712187D01*
X184876419Y-71712187D02*
X184876419Y-71521711D01*
X184876419Y-71521711D02*
X184828800Y-71426473D01*
X184828800Y-71426473D02*
X184781180Y-71378854D01*
X184781180Y-71378854D02*
X184685942Y-71331235D01*
X184685942Y-71331235D02*
X184447847Y-71331235D01*
X184447847Y-71331235D02*
X184352609Y-71378854D01*
X184352609Y-71378854D02*
X184304990Y-71426473D01*
X184304990Y-71426473D02*
X184257371Y-71521711D01*
X184257371Y-71521711D02*
X184257371Y-71712187D01*
X184257371Y-71712187D02*
X184304990Y-71807425D01*
X184304990Y-71807425D02*
X184352609Y-71855044D01*
X184352609Y-71855044D02*
X184447847Y-71902663D01*
X185780080Y-159698566D02*
X185065795Y-159698566D01*
X185065795Y-159698566D02*
X184922938Y-159650947D01*
X184922938Y-159650947D02*
X184827700Y-159555709D01*
X184827700Y-159555709D02*
X184780080Y-159412852D01*
X184780080Y-159412852D02*
X184780080Y-159317614D01*
X185446747Y-160603328D02*
X184780080Y-160603328D01*
X185827700Y-160365233D02*
X185113414Y-160127138D01*
X185113414Y-160127138D02*
X185113414Y-160746185D01*
X177049161Y-164855602D02*
X177430113Y-164855602D01*
X177192018Y-164522269D02*
X177192018Y-165379411D01*
X177192018Y-165379411D02*
X177239637Y-165474650D01*
X177239637Y-165474650D02*
X177334875Y-165522269D01*
X177334875Y-165522269D02*
X177430113Y-165522269D01*
X177906304Y-165522269D02*
X177811066Y-165474650D01*
X177811066Y-165474650D02*
X177763447Y-165427030D01*
X177763447Y-165427030D02*
X177715828Y-165331792D01*
X177715828Y-165331792D02*
X177715828Y-165046078D01*
X177715828Y-165046078D02*
X177763447Y-164950840D01*
X177763447Y-164950840D02*
X177811066Y-164903221D01*
X177811066Y-164903221D02*
X177906304Y-164855602D01*
X177906304Y-164855602D02*
X178049161Y-164855602D01*
X178049161Y-164855602D02*
X178144399Y-164903221D01*
X178144399Y-164903221D02*
X178192018Y-164950840D01*
X178192018Y-164950840D02*
X178239637Y-165046078D01*
X178239637Y-165046078D02*
X178239637Y-165331792D01*
X178239637Y-165331792D02*
X178192018Y-165427030D01*
X178192018Y-165427030D02*
X178144399Y-165474650D01*
X178144399Y-165474650D02*
X178049161Y-165522269D01*
X178049161Y-165522269D02*
X177906304Y-165522269D01*
X179906304Y-165522269D02*
X179430114Y-165522269D01*
X179430114Y-165522269D02*
X179430114Y-164522269D01*
X180620590Y-165474650D02*
X180525352Y-165522269D01*
X180525352Y-165522269D02*
X180334876Y-165522269D01*
X180334876Y-165522269D02*
X180239638Y-165474650D01*
X180239638Y-165474650D02*
X180192019Y-165379411D01*
X180192019Y-165379411D02*
X180192019Y-164998459D01*
X180192019Y-164998459D02*
X180239638Y-164903221D01*
X180239638Y-164903221D02*
X180334876Y-164855602D01*
X180334876Y-164855602D02*
X180525352Y-164855602D01*
X180525352Y-164855602D02*
X180620590Y-164903221D01*
X180620590Y-164903221D02*
X180668209Y-164998459D01*
X180668209Y-164998459D02*
X180668209Y-165093697D01*
X180668209Y-165093697D02*
X180192019Y-165188935D01*
X181525352Y-165522269D02*
X181525352Y-164998459D01*
X181525352Y-164998459D02*
X181477733Y-164903221D01*
X181477733Y-164903221D02*
X181382495Y-164855602D01*
X181382495Y-164855602D02*
X181192019Y-164855602D01*
X181192019Y-164855602D02*
X181096781Y-164903221D01*
X181525352Y-165474650D02*
X181430114Y-165522269D01*
X181430114Y-165522269D02*
X181192019Y-165522269D01*
X181192019Y-165522269D02*
X181096781Y-165474650D01*
X181096781Y-165474650D02*
X181049162Y-165379411D01*
X181049162Y-165379411D02*
X181049162Y-165284173D01*
X181049162Y-165284173D02*
X181096781Y-165188935D01*
X181096781Y-165188935D02*
X181192019Y-165141316D01*
X181192019Y-165141316D02*
X181430114Y-165141316D01*
X181430114Y-165141316D02*
X181525352Y-165093697D01*
X182430114Y-165522269D02*
X182430114Y-164522269D01*
X182430114Y-165474650D02*
X182334876Y-165522269D01*
X182334876Y-165522269D02*
X182144400Y-165522269D01*
X182144400Y-165522269D02*
X182049162Y-165474650D01*
X182049162Y-165474650D02*
X182001543Y-165427030D01*
X182001543Y-165427030D02*
X181953924Y-165331792D01*
X181953924Y-165331792D02*
X181953924Y-165046078D01*
X181953924Y-165046078D02*
X182001543Y-164950840D01*
X182001543Y-164950840D02*
X182049162Y-164903221D01*
X182049162Y-164903221D02*
X182144400Y-164855602D01*
X182144400Y-164855602D02*
X182334876Y-164855602D01*
X182334876Y-164855602D02*
X182430114Y-164903221D01*
X183620591Y-165236554D02*
X184096781Y-165236554D01*
X183525353Y-165522269D02*
X183858686Y-164522269D01*
X183858686Y-164522269D02*
X184192019Y-165522269D01*
X184953924Y-165474650D02*
X184858686Y-165522269D01*
X184858686Y-165522269D02*
X184668210Y-165522269D01*
X184668210Y-165522269D02*
X184572972Y-165474650D01*
X184572972Y-165474650D02*
X184525353Y-165427030D01*
X184525353Y-165427030D02*
X184477734Y-165331792D01*
X184477734Y-165331792D02*
X184477734Y-165046078D01*
X184477734Y-165046078D02*
X184525353Y-164950840D01*
X184525353Y-164950840D02*
X184572972Y-164903221D01*
X184572972Y-164903221D02*
X184668210Y-164855602D01*
X184668210Y-164855602D02*
X184858686Y-164855602D01*
X184858686Y-164855602D02*
X184953924Y-164903221D01*
X185382496Y-165522269D02*
X185382496Y-164855602D01*
X185382496Y-164522269D02*
X185334877Y-164569888D01*
X185334877Y-164569888D02*
X185382496Y-164617507D01*
X185382496Y-164617507D02*
X185430115Y-164569888D01*
X185430115Y-164569888D02*
X185382496Y-164522269D01*
X185382496Y-164522269D02*
X185382496Y-164617507D01*
X186287257Y-165522269D02*
X186287257Y-164522269D01*
X186287257Y-165474650D02*
X186192019Y-165522269D01*
X186192019Y-165522269D02*
X186001543Y-165522269D01*
X186001543Y-165522269D02*
X185906305Y-165474650D01*
X185906305Y-165474650D02*
X185858686Y-165427030D01*
X185858686Y-165427030D02*
X185811067Y-165331792D01*
X185811067Y-165331792D02*
X185811067Y-165046078D01*
X185811067Y-165046078D02*
X185858686Y-164950840D01*
X185858686Y-164950840D02*
X185906305Y-164903221D01*
X185906305Y-164903221D02*
X186001543Y-164855602D01*
X186001543Y-164855602D02*
X186192019Y-164855602D01*
X186192019Y-164855602D02*
X186287257Y-164903221D01*
X187858686Y-164998459D02*
X188001543Y-165046078D01*
X188001543Y-165046078D02*
X188049162Y-165093697D01*
X188049162Y-165093697D02*
X188096781Y-165188935D01*
X188096781Y-165188935D02*
X188096781Y-165331792D01*
X188096781Y-165331792D02*
X188049162Y-165427030D01*
X188049162Y-165427030D02*
X188001543Y-165474650D01*
X188001543Y-165474650D02*
X187906305Y-165522269D01*
X187906305Y-165522269D02*
X187525353Y-165522269D01*
X187525353Y-165522269D02*
X187525353Y-164522269D01*
X187525353Y-164522269D02*
X187858686Y-164522269D01*
X187858686Y-164522269D02*
X187953924Y-164569888D01*
X187953924Y-164569888D02*
X188001543Y-164617507D01*
X188001543Y-164617507D02*
X188049162Y-164712745D01*
X188049162Y-164712745D02*
X188049162Y-164807983D01*
X188049162Y-164807983D02*
X188001543Y-164903221D01*
X188001543Y-164903221D02*
X187953924Y-164950840D01*
X187953924Y-164950840D02*
X187858686Y-164998459D01*
X187858686Y-164998459D02*
X187525353Y-164998459D01*
X188953924Y-165522269D02*
X188953924Y-164998459D01*
X188953924Y-164998459D02*
X188906305Y-164903221D01*
X188906305Y-164903221D02*
X188811067Y-164855602D01*
X188811067Y-164855602D02*
X188620591Y-164855602D01*
X188620591Y-164855602D02*
X188525353Y-164903221D01*
X188953924Y-165474650D02*
X188858686Y-165522269D01*
X188858686Y-165522269D02*
X188620591Y-165522269D01*
X188620591Y-165522269D02*
X188525353Y-165474650D01*
X188525353Y-165474650D02*
X188477734Y-165379411D01*
X188477734Y-165379411D02*
X188477734Y-165284173D01*
X188477734Y-165284173D02*
X188525353Y-165188935D01*
X188525353Y-165188935D02*
X188620591Y-165141316D01*
X188620591Y-165141316D02*
X188858686Y-165141316D01*
X188858686Y-165141316D02*
X188953924Y-165093697D01*
X189287258Y-164855602D02*
X189668210Y-164855602D01*
X189430115Y-164522269D02*
X189430115Y-165379411D01*
X189430115Y-165379411D02*
X189477734Y-165474650D01*
X189477734Y-165474650D02*
X189572972Y-165522269D01*
X189572972Y-165522269D02*
X189668210Y-165522269D01*
X189858687Y-164855602D02*
X190239639Y-164855602D01*
X190001544Y-164522269D02*
X190001544Y-165379411D01*
X190001544Y-165379411D02*
X190049163Y-165474650D01*
X190049163Y-165474650D02*
X190144401Y-165522269D01*
X190144401Y-165522269D02*
X190239639Y-165522269D01*
X91038095Y-156504819D02*
X91038095Y-155504819D01*
X91038095Y-155981009D02*
X91609523Y-155981009D01*
X91609523Y-156504819D02*
X91609523Y-155504819D01*
X92609523Y-156504819D02*
X92038095Y-156504819D01*
X92323809Y-156504819D02*
X92323809Y-155504819D01*
X92323809Y-155504819D02*
X92228571Y-155647676D01*
X92228571Y-155647676D02*
X92133333Y-155742914D01*
X92133333Y-155742914D02*
X92038095Y-155790533D01*
D13*
%TO.C,K1*%
X160945398Y-103340350D02*
X160945398Y-123494351D01*
X160945398Y-123494351D02*
X172099402Y-123494351D01*
X172099402Y-103340350D02*
X160945398Y-103340350D01*
X172099402Y-123494351D02*
X172099402Y-103340350D01*
D14*
%TO.C,R5*%
X119278400Y-142448150D02*
X119278400Y-143218150D01*
X119278400Y-150528150D02*
X119278400Y-149758150D01*
X120648400Y-143218150D02*
X117908400Y-143218150D01*
X117908400Y-149758150D01*
X120648400Y-149758150D01*
X120648400Y-143218150D01*
%TO.C,D2*%
X160544000Y-98075750D02*
X161739000Y-98075750D01*
X169839500Y-100800750D02*
X169839500Y-95350750D01*
X169959500Y-100800750D02*
X169959500Y-95350750D01*
X170079500Y-100800750D02*
X170079500Y-95350750D01*
X172704000Y-98075750D02*
X171509000Y-98075750D01*
X171509000Y-100800750D02*
X161739000Y-100800750D01*
X161739000Y-95350750D01*
X171509000Y-95350750D01*
X171509000Y-100800750D01*
%TO.C,R8*%
X176682400Y-113441350D02*
X176682400Y-114211350D01*
X176682400Y-121521350D02*
X176682400Y-120751350D01*
X175312400Y-120751350D02*
X178052400Y-120751350D01*
X178052400Y-114211350D01*
X175312400Y-114211350D01*
X175312400Y-120751350D01*
%TO.C,D7*%
X184074200Y-57313150D02*
X184074200Y-60403150D01*
X184074200Y-57313320D02*
G75*
G02*
X189624200Y-58858150I2560000J-1544830D01*
G01*
X189624200Y-58858150D02*
G75*
G02*
X184074200Y-60402980I-2990000J0D01*
G01*
X189134200Y-58858150D02*
G75*
G02*
X184134200Y-58858150I-2500000J0D01*
G01*
X184134200Y-58858150D02*
G75*
G02*
X189134200Y-58858150I2500000J0D01*
G01*
D13*
%TO.C,J7*%
X93537601Y-76307950D02*
X93537601Y-82759550D01*
X93537601Y-82759550D02*
X104789801Y-82759550D01*
X104789801Y-76307950D02*
X93537601Y-76307950D01*
X104789801Y-82759550D02*
X104789801Y-76307950D01*
D11*
X94412800Y-78533750D02*
X91912800Y-78533750D01*
X91912800Y-80533750D01*
X94412800Y-80533750D01*
X94412800Y-78533750D01*
D15*
X102793800Y-74275950D02*
G75*
G02*
X102031800Y-74275950I-381000J0D01*
G01*
X102031800Y-74275950D02*
G75*
G02*
X102793800Y-74275950I381000J0D01*
G01*
D14*
%TO.C,R10*%
X171880400Y-138715750D02*
X172650400Y-138715750D01*
X179960400Y-138715750D02*
X179190400Y-138715750D01*
X172650400Y-137345750D02*
X179190400Y-137345750D01*
X179190400Y-140085750D01*
X172650400Y-140085750D01*
X172650400Y-137345750D01*
%TO.C,R1*%
X161594800Y-144632550D02*
X161594800Y-145402550D01*
X161594800Y-152712550D02*
X161594800Y-151942550D01*
X162964800Y-145402550D02*
X160224800Y-145402550D01*
X160224800Y-151942550D01*
X162964800Y-151942550D01*
X162964800Y-145402550D01*
%TO.C,Q1*%
X165259600Y-125528550D02*
X165259600Y-135748550D01*
X165259600Y-125528550D02*
X181129600Y-125528550D01*
X165259600Y-127613550D02*
X162819600Y-127613550D01*
X165259600Y-128583550D02*
X162819600Y-128583550D01*
X165259600Y-130153550D02*
X162819600Y-130153550D01*
X165259600Y-131123550D02*
X162819600Y-131123550D01*
X165259600Y-132693550D02*
X162819600Y-132693550D01*
X165259600Y-133663550D02*
X162819600Y-133663550D01*
X165259600Y-135748550D02*
X181129600Y-135748550D01*
X181129600Y-125528550D02*
X181129600Y-135748550D01*
%TO.C,R12*%
X132662800Y-138614150D02*
X133432800Y-138614150D01*
X140742800Y-138614150D02*
X139972800Y-138614150D01*
X139972800Y-139984150D02*
X133432800Y-139984150D01*
X133432800Y-137244150D01*
X139972800Y-137244150D01*
X139972800Y-139984150D01*
%TO.C,R3*%
X115163600Y-132491350D02*
X115163600Y-133261350D01*
X115163600Y-140571350D02*
X115163600Y-139801350D01*
X116533600Y-133261350D02*
X113793600Y-133261350D01*
X113793600Y-139801350D01*
X116533600Y-139801350D01*
X116533600Y-133261350D01*
D16*
%TO.C,J8*%
X99921600Y-122262950D02*
X99921600Y-123062950D01*
X99921600Y-123062950D02*
X100621600Y-122662950D01*
X100621600Y-122662950D02*
X99921600Y-122262950D01*
X100941600Y-102562950D02*
X112341600Y-102562950D01*
X100941600Y-125962950D02*
X100941600Y-102562950D01*
X112341600Y-102562950D02*
X112341600Y-125962950D01*
X112341600Y-125962950D02*
X100941600Y-125962950D01*
D11*
X114741600Y-111162950D02*
X110741600Y-111162950D01*
X110741600Y-117162950D01*
X114741600Y-117162950D01*
X114741600Y-111162950D01*
D13*
%TO.C,J5*%
X189207600Y-116897150D02*
X189207600Y-123348750D01*
X189207600Y-123348750D02*
X200459800Y-123348750D01*
X200459800Y-116897150D02*
X189207600Y-116897150D01*
X200459800Y-123348750D02*
X200459800Y-116897150D01*
D11*
X190082799Y-119122950D02*
X187582799Y-119122950D01*
X187582799Y-121122950D01*
X190082799Y-121122950D01*
X190082799Y-119122950D01*
D15*
X198463799Y-114865150D02*
G75*
G02*
X197701799Y-114865150I-381000J0D01*
G01*
X197701799Y-114865150D02*
G75*
G02*
X198463799Y-114865150I381000J0D01*
G01*
D14*
%TO.C,D8*%
X148488400Y-104492550D02*
X148488400Y-105687550D01*
X148488400Y-116652550D02*
X148488400Y-115457550D01*
X151213400Y-107117050D02*
X145763400Y-107117050D01*
X151213400Y-107237050D02*
X145763400Y-107237050D01*
X151213400Y-107357050D02*
X145763400Y-107357050D01*
X151213400Y-105687550D02*
X145763400Y-105687550D01*
X145763400Y-115457550D01*
X151213400Y-115457550D01*
X151213400Y-105687550D01*
%TO.C,D3*%
X133518400Y-97212150D02*
X134713400Y-97212150D01*
X142813900Y-99937150D02*
X142813900Y-94487150D01*
X142933900Y-99937150D02*
X142933900Y-94487150D01*
X143053900Y-99937150D02*
X143053900Y-94487150D01*
X145678400Y-97212150D02*
X144483400Y-97212150D01*
X144483400Y-99937150D02*
X134713400Y-99937150D01*
X134713400Y-94487150D01*
X144483400Y-94487150D01*
X144483400Y-99937150D01*
%TO.C,Q3*%
X127734400Y-135545350D02*
X127734400Y-125325350D01*
X143604400Y-125325350D02*
X127734400Y-125325350D01*
X143604400Y-127410350D02*
X146044400Y-127410350D01*
X143604400Y-128380350D02*
X146044400Y-128380350D01*
X143604400Y-129950350D02*
X146044400Y-129950350D01*
X143604400Y-130920350D02*
X146044400Y-130920350D01*
X143604400Y-132490350D02*
X146044400Y-132490350D01*
X143604400Y-133460350D02*
X146044400Y-133460350D01*
X143604400Y-135545350D02*
X127734400Y-135545350D01*
X143604400Y-135545350D02*
X143604400Y-125325350D01*
D13*
%TO.C,K2*%
X133868998Y-102882349D02*
X133868998Y-123036350D01*
X133868998Y-123036350D02*
X145023002Y-123036350D01*
X145023002Y-102882349D02*
X133868998Y-102882349D01*
X145023002Y-123036350D02*
X145023002Y-102882349D01*
%TO.C,J3*%
X193065400Y-69269150D02*
X193065400Y-80521350D01*
X193065400Y-80521350D02*
X199517000Y-80521350D01*
X199517000Y-69269150D02*
X193065400Y-69269150D01*
X199517000Y-80521350D02*
X199517000Y-69269150D01*
D11*
X195291200Y-79646151D02*
X197291200Y-79646151D01*
X197291200Y-82146151D01*
X195291200Y-82146151D01*
X195291200Y-79646151D01*
D15*
X191414400Y-71646151D02*
G75*
G02*
X190652400Y-71646151I-381000J0D01*
G01*
X190652400Y-71646151D02*
G75*
G02*
X191414400Y-71646151I381000J0D01*
G01*
D14*
%TO.C,R2*%
X148386800Y-144784950D02*
X148386800Y-145554950D01*
X148386800Y-152864950D02*
X148386800Y-152094950D01*
X149756800Y-145554950D02*
X147016800Y-145554950D01*
X147016800Y-152094950D01*
X149756800Y-152094950D01*
X149756800Y-145554950D01*
D13*
%TO.C,J2*%
X191185800Y-85880750D02*
X191185800Y-97132950D01*
X191185800Y-97132950D02*
X197637400Y-97132950D01*
X197637400Y-85880750D02*
X191185800Y-85880750D01*
X197637400Y-97132950D02*
X197637400Y-85880750D01*
D11*
X193411600Y-96257751D02*
X195411600Y-96257751D01*
X195411600Y-98757751D01*
X193411600Y-98757751D01*
X193411600Y-96257751D01*
D15*
X189534800Y-88257751D02*
G75*
G02*
X188772800Y-88257751I-381000J0D01*
G01*
X188772800Y-88257751D02*
G75*
G02*
X189534800Y-88257751I381000J0D01*
G01*
D14*
%TO.C,R11*%
X152400000Y-125176150D02*
X152400000Y-125946150D01*
X152400000Y-133256150D02*
X152400000Y-132486150D01*
X151030000Y-132486150D02*
X153770000Y-132486150D01*
X153770000Y-125946150D01*
X151030000Y-125946150D01*
X151030000Y-132486150D01*
%TO.C,R6*%
X186791600Y-68076950D02*
X186791600Y-68846950D01*
X186791600Y-76156950D02*
X186791600Y-75386950D01*
X185421600Y-75386950D02*
X188161600Y-75386950D01*
X188161600Y-68846950D01*
X185421600Y-68846950D01*
X185421600Y-75386950D01*
D13*
%TO.C,J4*%
X179109701Y-156806100D02*
X179109701Y-163257700D01*
X179109701Y-163257700D02*
X190361901Y-163257700D01*
X190361901Y-156806100D02*
X179109701Y-156806100D01*
X190361901Y-163257700D02*
X190361901Y-156806100D01*
D11*
X179984900Y-159031900D02*
X177484900Y-159031900D01*
X177484900Y-161031900D01*
X179984900Y-161031900D01*
X179984900Y-159031900D01*
D15*
X188365900Y-154774100D02*
G75*
G02*
X187603900Y-154774100I-381000J0D01*
G01*
X187603900Y-154774100D02*
G75*
G02*
X188365900Y-154774100I381000J0D01*
G01*
%TD*%
M02*
