M48
; DRILL file {KiCad 9.0.7} date 2026-04-09T19:42:09-0700
; FORMAT={-:-/ absolute / metric / decimal}
; #@! TF.CreationDate,2026-04-09T19:42:09-07:00
; #@! TF.GenerationSoftware,Kicad,Pcbnew,9.0.7
; #@! TF.FileFunction,Plated,1,2,PTH
FMAT,2
METRIC
; #@! TA.AperFunction,Plated,PTH,ViaDrill
T1C0.300
; #@! TA.AperFunction,Plated,PTH,ComponentDrill
T2C0.800
; #@! TA.AperFunction,Plated,PTH,ComponentDrill
T3C0.900
; #@! TA.AperFunction,Plated,PTH,ComponentDrill
T4C1.100
; #@! TA.AperFunction,Plated,PTH,ComponentDrill
T5C1.400
; #@! TA.AperFunction,Plated,PTH,ComponentDrill
T6C1.900
%
G90
G05
T1
X148.5Y-127.4
X158.9Y-130.1
T2
X120.645Y-122.428
X120.645Y-132.588
X131.313Y-122.428
X131.313Y-132.588
X135.636Y-122.428
X135.636Y-132.588
X146.304Y-122.428
X146.304Y-132.588
X150.368Y-122.428
X150.368Y-132.588
X161.036Y-122.428
X161.036Y-132.588
T3
X124.709Y-127.508
X127.249Y-127.508
X139.67Y-127.508
X142.21Y-127.508
X154.372Y-127.508
X156.912Y-127.508
T4
X123.734Y-139.498
X123.734Y-145.998
X128.234Y-139.498
X128.234Y-145.998
X138.466Y-139.498
X138.466Y-145.998
X142.966Y-139.498
X142.966Y-145.998
X153.198Y-139.498
X153.198Y-145.998
X157.698Y-139.498
X157.698Y-145.998
T5
X123.7Y-107.5
X123.7Y-113.0
X127.9Y-107.5
X127.9Y-113.0
X152.0Y-108.5
X152.0Y-114.0
X156.2Y-108.5
X156.2Y-114.0
X160.4Y-108.5
X160.4Y-114.0
T6
X141.224Y-112.268
M30
