%TF.GenerationSoftware,KiCad,Pcbnew,9.0.7*%
%TF.CreationDate,2026-04-09T19:42:06-07:00*%
%TF.ProjectId,Hi_board_bbc1,48695f62-6f61-4726-945f-626263312e6b,rev?*%
%TF.SameCoordinates,Original*%
%TF.FileFunction,Soldermask,Bot*%
%TF.FilePolarity,Negative*%
%FSLAX46Y46*%
G04 Gerber Fmt 4.6, Leading zero omitted, Abs format (unit mm)*
G04 Created by KiCad (PCBNEW 9.0.7) date 2026-04-09 19:42:06*
%MOMM*%
%LPD*%
G01*
G04 APERTURE LIST*
G04 Aperture macros list*
%AMRoundRect*
0 Rectangle with rounded corners*
0 $1 Rounding radius*
0 $2 $3 $4 $5 $6 $7 $8 $9 X,Y pos of 4 corners*
0 Add a 4 corners polygon primitive as box body*
4,1,4,$2,$3,$4,$5,$6,$7,$8,$9,$2,$3,0*
0 Add four circle primitives for the rounded corners*
1,1,$1+$1,$2,$3*
1,1,$1+$1,$4,$5*
1,1,$1+$1,$6,$7*
1,1,$1+$1,$8,$9*
0 Add four rect primitives between the rounded corners*
20,1,$1+$1,$2,$3,$4,$5,0*
20,1,$1+$1,$4,$5,$6,$7,0*
20,1,$1+$1,$6,$7,$8,$9,0*
20,1,$1+$1,$8,$9,$2,$3,0*%
G04 Aperture macros list end*
%ADD10O,2.700000X3.300000*%
%ADD11RoundRect,0.250001X1.099999X1.399999X-1.099999X1.399999X-1.099999X-1.399999X1.099999X-1.399999X0*%
%ADD12C,1.600000*%
%ADD13C,2.000000*%
%ADD14C,3.000000*%
%ADD15R,1.800000X1.800000*%
%ADD16C,1.800000*%
G04 APERTURE END LIST*
D10*
%TO.C,J1*%
X123700000Y-113000000D03*
X127900000Y-113000000D03*
X123700000Y-107500000D03*
D11*
X127900000Y-107500000D03*
%TD*%
D10*
%TO.C,J2*%
X152000000Y-114000000D03*
X156200000Y-114000000D03*
X160400000Y-114000000D03*
X152000000Y-108500000D03*
X156200000Y-108500000D03*
D11*
X160400000Y-108500000D03*
%TD*%
D12*
%TO.C,R5*%
X150368000Y-132588000D03*
X150368000Y-122428000D03*
%TD*%
D13*
%TO.C,SW2*%
X138466000Y-145998000D03*
X138466000Y-139498000D03*
X142966000Y-145998000D03*
X142966000Y-139498000D03*
%TD*%
D12*
%TO.C,R4*%
X146304000Y-132588000D03*
X146304000Y-122428000D03*
%TD*%
%TO.C,R1*%
X120645000Y-122428000D03*
X120645000Y-132588000D03*
%TD*%
D14*
%TO.C,J3*%
X141224000Y-112268000D03*
%TD*%
D13*
%TO.C,SW1*%
X123734000Y-145998000D03*
X123734000Y-139498000D03*
X128234000Y-145998000D03*
X128234000Y-139498000D03*
%TD*%
D12*
%TO.C,R2*%
X131313000Y-132588000D03*
X131313000Y-122428000D03*
%TD*%
D15*
%TO.C,D2*%
X139670000Y-127508000D03*
D16*
X142210000Y-127508000D03*
%TD*%
D12*
%TO.C,R6*%
X161036000Y-122428000D03*
X161036000Y-132588000D03*
%TD*%
D13*
%TO.C,SW3*%
X153198000Y-145998000D03*
X153198000Y-139498000D03*
X157698000Y-145998000D03*
X157698000Y-139498000D03*
%TD*%
D15*
%TO.C,D3*%
X154372000Y-127508000D03*
D16*
X156912000Y-127508000D03*
%TD*%
D15*
%TO.C,D1*%
X124709000Y-127508000D03*
D16*
X127249000Y-127508000D03*
%TD*%
D12*
%TO.C,R3*%
X135636000Y-122428000D03*
X135636000Y-132588000D03*
%TD*%
M02*
