%TF.GenerationSoftware,KiCad,Pcbnew,10.0.1*%
%TF.CreationDate,2026-05-07T11:07:10-07:00*%
%TF.ProjectId,PCC,5043432e-6b69-4636-9164-5f7063625858,rev?*%
%TF.SameCoordinates,Original*%
%TF.FileFunction,Paste,Bot*%
%TF.FilePolarity,Positive*%
%FSLAX46Y46*%
G04 Gerber Fmt 4.6, Leading zero omitted, Abs format (unit mm)*
G04 Created by KiCad (PCBNEW 10.0.1) date 2026-05-07 11:07:10*
%MOMM*%
%LPD*%
G01*
G04 APERTURE LIST*
G04 Aperture macros list*
%AMRoundRect*
0 Rectangle with rounded corners*
0 $1 Rounding radius*
0 $2 $3 $4 $5 $6 $7 $8 $9 X,Y pos of 4 corners*
0 Add a 4 corners polygon primitive as box body*
4,1,4,$2,$3,$4,$5,$6,$7,$8,$9,$2,$3,0*
0 Add four circle primitives for the rounded corners*
1,1,$1+$1,$2,$3*
1,1,$1+$1,$4,$5*
1,1,$1+$1,$6,$7*
1,1,$1+$1,$8,$9*
0 Add four rect primitives between the rounded corners*
20,1,$1+$1,$2,$3,$4,$5,0*
20,1,$1+$1,$4,$5,$6,$7,0*
20,1,$1+$1,$6,$7,$8,$9,0*
20,1,$1+$1,$8,$9,$2,$3,0*%
%AMRotRect*
0 Rectangle, with rotation*
0 The origin of the aperture is its center*
0 $1 length*
0 $2 width*
0 $3 Rotation angle, in degrees counterclockwise*
0 Add horizontal line*
21,1,$1,$2,0,0,$3*%
G04 Aperture macros list end*
%ADD10RoundRect,0.250000X0.450000X-0.262500X0.450000X0.262500X-0.450000X0.262500X-0.450000X-0.262500X0*%
%ADD11RoundRect,0.250000X0.475000X-0.250000X0.475000X0.250000X-0.475000X0.250000X-0.475000X-0.250000X0*%
%ADD12RoundRect,0.250000X-0.262500X-0.450000X0.262500X-0.450000X0.262500X0.450000X-0.262500X0.450000X0*%
%ADD13RoundRect,0.250000X0.262500X0.450000X-0.262500X0.450000X-0.262500X-0.450000X0.262500X-0.450000X0*%
%ADD14RoundRect,0.250000X0.250000X0.475000X-0.250000X0.475000X-0.250000X-0.475000X0.250000X-0.475000X0*%
%ADD15RoundRect,0.150000X0.587500X0.150000X-0.587500X0.150000X-0.587500X-0.150000X0.587500X-0.150000X0*%
%ADD16RoundRect,0.249999X-0.450001X-1.425001X0.450001X-1.425001X0.450001X1.425001X-0.450001X1.425001X0*%
%ADD17R,6.000000X6.000000*%
%ADD18RoundRect,0.250000X-0.475000X0.250000X-0.475000X-0.250000X0.475000X-0.250000X0.475000X0.250000X0*%
%ADD19RoundRect,0.250000X-0.450000X0.262500X-0.450000X-0.262500X0.450000X-0.262500X0.450000X0.262500X0*%
%ADD20RoundRect,0.250000X-0.250000X-0.475000X0.250000X-0.475000X0.250000X0.475000X-0.250000X0.475000X0*%
%ADD21RotRect,6.000000X6.000000X315.000000*%
%ADD22RoundRect,0.249999X1.425001X-0.450001X1.425001X0.450001X-1.425001X0.450001X-1.425001X-0.450001X0*%
G04 APERTURE END LIST*
D10*
%TO.C,R49*%
X102700000Y-70975000D03*
X102700000Y-69150000D03*
%TD*%
D11*
%TO.C,C6*%
X87122000Y-79700000D03*
X87122000Y-77800000D03*
%TD*%
D12*
%TO.C,R38*%
X104116500Y-45500000D03*
X105941500Y-45500000D03*
%TD*%
%TO.C,R71*%
X89725000Y-113350000D03*
X91550000Y-113350000D03*
%TD*%
D10*
%TO.C,R28*%
X57845000Y-49662500D03*
X57845000Y-47837500D03*
%TD*%
D13*
%TO.C,R70*%
X105425000Y-116450000D03*
X103600000Y-116450000D03*
%TD*%
D14*
%TO.C,C28*%
X81050000Y-135550000D03*
X79150000Y-135550000D03*
%TD*%
D13*
%TO.C,R23*%
X59007500Y-35250000D03*
X57182500Y-35250000D03*
%TD*%
D10*
%TO.C,R40*%
X133350000Y-39878000D03*
X133350000Y-38053000D03*
%TD*%
D15*
%TO.C,Q4*%
X91425000Y-117650000D03*
X91425000Y-119550000D03*
X89550000Y-118600000D03*
%TD*%
D13*
%TO.C,R32*%
X89412500Y-32500000D03*
X87587500Y-32500000D03*
%TD*%
D16*
%TO.C,R82*%
X147250000Y-118650000D03*
X153350000Y-118650000D03*
%TD*%
D10*
%TO.C,R51*%
X133100000Y-66850000D03*
X133100000Y-65025000D03*
%TD*%
%TO.C,R61*%
X114850000Y-124062500D03*
X114850000Y-122237500D03*
%TD*%
D17*
%TO.C,F24*%
X156050000Y-21250000D03*
X139050000Y-21250000D03*
%TD*%
D10*
%TO.C,R62*%
X116350000Y-116812500D03*
X116350000Y-114987500D03*
%TD*%
D14*
%TO.C,C19*%
X106950000Y-23843250D03*
X105050000Y-23843250D03*
%TD*%
D10*
%TO.C,R57*%
X140250000Y-88075000D03*
X140250000Y-86250000D03*
%TD*%
%TO.C,R73*%
X87600000Y-121812500D03*
X87600000Y-119987500D03*
%TD*%
D17*
%TO.C,F4*%
X128058999Y-160999999D03*
X145058999Y-160999999D03*
%TD*%
D11*
%TO.C,C16*%
X119250000Y-40700000D03*
X119250000Y-38800000D03*
%TD*%
D13*
%TO.C,R44*%
X126912500Y-48000000D03*
X125087500Y-48000000D03*
%TD*%
D12*
%TO.C,R37*%
X108077000Y-45500000D03*
X109902000Y-45500000D03*
%TD*%
D18*
%TO.C,C24*%
X86750000Y-15850000D03*
X86750000Y-17750000D03*
%TD*%
D13*
%TO.C,R53*%
X116325000Y-90400000D03*
X114500000Y-90400000D03*
%TD*%
D10*
%TO.C,R43*%
X125500000Y-35412500D03*
X125500000Y-33587500D03*
%TD*%
%TO.C,R22*%
X62845000Y-38412500D03*
X62845000Y-36587500D03*
%TD*%
%TO.C,R56*%
X103450000Y-78725000D03*
X103450000Y-76900000D03*
%TD*%
D19*
%TO.C,R45*%
X116000000Y-51837500D03*
X116000000Y-53662500D03*
%TD*%
D10*
%TO.C,R55*%
X103400000Y-86912500D03*
X103400000Y-85087500D03*
%TD*%
D19*
%TO.C,R42*%
X133350000Y-41803000D03*
X133350000Y-43628000D03*
%TD*%
D13*
%TO.C,R11*%
X116662500Y-107600000D03*
X114837500Y-107600000D03*
%TD*%
D19*
%TO.C,R41*%
X130683000Y-26837500D03*
X130683000Y-28662500D03*
%TD*%
D12*
%TO.C,R9*%
X66650000Y-122000000D03*
X68475000Y-122000000D03*
%TD*%
D11*
%TO.C,C17*%
X116250000Y-67450000D03*
X116250000Y-65550000D03*
%TD*%
D17*
%TO.C,F22*%
X162450000Y-36500000D03*
X162450000Y-53500000D03*
%TD*%
D12*
%TO.C,R10*%
X109200000Y-101750000D03*
X111025000Y-101750000D03*
%TD*%
D18*
%TO.C,C22*%
X118872000Y-62362000D03*
X118872000Y-64262000D03*
%TD*%
D10*
%TO.C,R26*%
X89220000Y-71662500D03*
X89220000Y-69837500D03*
%TD*%
D11*
%TO.C,C15*%
X118750000Y-27700000D03*
X118750000Y-25800000D03*
%TD*%
D12*
%TO.C,R34*%
X129087500Y-24250000D03*
X130912500Y-24250000D03*
%TD*%
D10*
%TO.C,R33*%
X116000000Y-31912500D03*
X116000000Y-30087500D03*
%TD*%
D14*
%TO.C,C21*%
X106950000Y-21343250D03*
X105050000Y-21343250D03*
%TD*%
D10*
%TO.C,R58*%
X139800000Y-82200000D03*
X139800000Y-80375000D03*
%TD*%
D20*
%TO.C,C3*%
X57645000Y-32000000D03*
X59545000Y-32000000D03*
%TD*%
D10*
%TO.C,R52*%
X128500000Y-62350000D03*
X128500000Y-60525000D03*
%TD*%
D14*
%TO.C,C27*%
X117400000Y-111750000D03*
X115500000Y-111750000D03*
%TD*%
D20*
%TO.C,C8*%
X87550000Y-45250000D03*
X89450000Y-45250000D03*
%TD*%
D13*
%TO.C,R63*%
X122062500Y-126450000D03*
X120237500Y-126450000D03*
%TD*%
D18*
%TO.C,C23*%
X115500000Y-60050000D03*
X115500000Y-61950000D03*
%TD*%
D15*
%TO.C,Q3*%
X106600000Y-112000000D03*
X106600000Y-113900000D03*
X104725000Y-112950000D03*
%TD*%
D19*
%TO.C,R4*%
X81750000Y-121400000D03*
X81750000Y-123225000D03*
%TD*%
D11*
%TO.C,C13*%
X121350000Y-23400000D03*
X121350000Y-21500000D03*
%TD*%
D17*
%TO.C,F21*%
X149400000Y-86700000D03*
X149400000Y-69700000D03*
%TD*%
D19*
%TO.C,R67*%
X126800000Y-119325000D03*
X126800000Y-121150000D03*
%TD*%
D18*
%TO.C,C1*%
X89058250Y-58410000D03*
X89058250Y-60310000D03*
%TD*%
D14*
%TO.C,C31*%
X106800000Y-100500000D03*
X104900000Y-100500000D03*
%TD*%
D19*
%TO.C,R47*%
X119000000Y-66087500D03*
X119000000Y-67912500D03*
%TD*%
D15*
%TO.C,Q5*%
X79450000Y-128550000D03*
X79450000Y-130450000D03*
X77575000Y-129500000D03*
%TD*%
D13*
%TO.C,R69*%
X128875000Y-115700000D03*
X127050000Y-115700000D03*
%TD*%
%TO.C,R31*%
X89412500Y-43000000D03*
X87587500Y-43000000D03*
%TD*%
D12*
%TO.C,R36*%
X103837500Y-35250000D03*
X105662500Y-35250000D03*
%TD*%
D19*
%TO.C,R21*%
X86808250Y-58447500D03*
X86808250Y-60272500D03*
%TD*%
D12*
%TO.C,R35*%
X107337500Y-35250000D03*
X109162500Y-35250000D03*
%TD*%
D18*
%TO.C,C5*%
X58845000Y-51462500D03*
X58845000Y-53362500D03*
%TD*%
D20*
%TO.C,C18*%
X85349000Y-23713000D03*
X87249000Y-23713000D03*
%TD*%
D17*
%TO.C,F25*%
X153050000Y-105900000D03*
X136050000Y-105900000D03*
%TD*%
D20*
%TO.C,C29*%
X86550000Y-129550000D03*
X88450000Y-129550000D03*
%TD*%
D12*
%TO.C,R24*%
X62315000Y-44762500D03*
X64140000Y-44762500D03*
%TD*%
D18*
%TO.C,C26*%
X89250000Y-15850000D03*
X89250000Y-17750000D03*
%TD*%
D19*
%TO.C,R72*%
X85150000Y-120275000D03*
X85150000Y-122100000D03*
%TD*%
D10*
%TO.C,R50*%
X105000000Y-60975000D03*
X105000000Y-59150000D03*
%TD*%
D11*
%TO.C,C11*%
X118750000Y-34700000D03*
X118750000Y-32800000D03*
%TD*%
D21*
%TO.C,F3*%
X136138183Y-145320815D03*
X148158999Y-133299999D03*
%TD*%
D13*
%TO.C,R15*%
X120175000Y-119050000D03*
X118350000Y-119050000D03*
%TD*%
D19*
%TO.C,R20*%
X86808250Y-55035000D03*
X86808250Y-56860000D03*
%TD*%
D20*
%TO.C,C2*%
X57645000Y-29750000D03*
X59545000Y-29750000D03*
%TD*%
D19*
%TO.C,R48*%
X110750000Y-65587500D03*
X110750000Y-67412500D03*
%TD*%
D22*
%TO.C,R81*%
X154150000Y-155700000D03*
X154150000Y-149600000D03*
%TD*%
D17*
%TO.C,F1*%
X161350000Y-86650000D03*
X161350000Y-69650000D03*
%TD*%
D11*
%TO.C,C4*%
X91970000Y-71700000D03*
X91970000Y-69800000D03*
%TD*%
D13*
%TO.C,R65*%
X126662500Y-126200000D03*
X124837500Y-126200000D03*
%TD*%
D14*
%TO.C,C30*%
X79700000Y-121400000D03*
X77800000Y-121400000D03*
%TD*%
D13*
%TO.C,R60*%
X133825000Y-74850000D03*
X132000000Y-74850000D03*
%TD*%
D10*
%TO.C,R59*%
X138850000Y-76725000D03*
X138850000Y-74900000D03*
%TD*%
D12*
%TO.C,R75*%
X81725000Y-129200000D03*
X83550000Y-129200000D03*
%TD*%
D20*
%TO.C,C14*%
X121300000Y-36750000D03*
X123200000Y-36750000D03*
%TD*%
D19*
%TO.C,R46*%
X119500000Y-51837500D03*
X119500000Y-53662500D03*
%TD*%
D11*
%TO.C,C12*%
X118500000Y-47200000D03*
X118500000Y-45300000D03*
%TD*%
D14*
%TO.C,C32*%
X106800000Y-103510000D03*
X104900000Y-103510000D03*
%TD*%
D10*
%TO.C,R39*%
X116000000Y-45162500D03*
X116000000Y-43337500D03*
%TD*%
D13*
%TO.C,R54*%
X108625000Y-90700000D03*
X106800000Y-90700000D03*
%TD*%
D12*
%TO.C,R16*%
X118275000Y-122300000D03*
X120100000Y-122300000D03*
%TD*%
D20*
%TO.C,C20*%
X85349000Y-25963000D03*
X87249000Y-25963000D03*
%TD*%
%TO.C,C25*%
X87550000Y-38750000D03*
X89450000Y-38750000D03*
%TD*%
D19*
%TO.C,R27*%
X59845000Y-47837500D03*
X59845000Y-49662500D03*
%TD*%
D20*
%TO.C,C7*%
X87550000Y-34750000D03*
X89450000Y-34750000D03*
%TD*%
D10*
%TO.C,R30*%
X89357200Y-79599800D03*
X89357200Y-77774800D03*
%TD*%
M02*
