%TF.GenerationSoftware,KiCad,Pcbnew,10.0.1*%
%TF.CreationDate,2026-05-07T11:07:10-07:00*%
%TF.ProjectId,PCC,5043432e-6b69-4636-9164-5f7063625858,rev?*%
%TF.SameCoordinates,Original*%
%TF.FileFunction,Soldermask,Bot*%
%TF.FilePolarity,Negative*%
%FSLAX46Y46*%
G04 Gerber Fmt 4.6, Leading zero omitted, Abs format (unit mm)*
G04 Created by KiCad (PCBNEW 10.0.1) date 2026-05-07 11:07:10*
%MOMM*%
%LPD*%
G01*
G04 APERTURE LIST*
G04 Aperture macros list*
%AMRoundRect*
0 Rectangle with rounded corners*
0 $1 Rounding radius*
0 $2 $3 $4 $5 $6 $7 $8 $9 X,Y pos of 4 corners*
0 Add a 4 corners polygon primitive as box body*
4,1,4,$2,$3,$4,$5,$6,$7,$8,$9,$2,$3,0*
0 Add four circle primitives for the rounded corners*
1,1,$1+$1,$2,$3*
1,1,$1+$1,$4,$5*
1,1,$1+$1,$6,$7*
1,1,$1+$1,$8,$9*
0 Add four rect primitives between the rounded corners*
20,1,$1+$1,$2,$3,$4,$5,0*
20,1,$1+$1,$4,$5,$6,$7,0*
20,1,$1+$1,$6,$7,$8,$9,0*
20,1,$1+$1,$8,$9,$2,$3,0*%
%AMRotRect*
0 Rectangle, with rotation*
0 The origin of the aperture is its center*
0 $1 length*
0 $2 width*
0 $3 Rotation angle, in degrees counterclockwise*
0 Add horizontal line*
21,1,$1,$2,0,0,$3*%
G04 Aperture macros list end*
%ADD10O,3.300000X2.700000*%
%ADD11RoundRect,0.250001X1.399999X-1.099999X1.399999X1.099999X-1.399999X1.099999X-1.399999X-1.099999X0*%
%ADD12C,3.000000*%
%ADD13C,2.500000*%
%ADD14C,6.900000*%
%ADD15C,2.000000*%
%ADD16R,2.000000X2.000000*%
%ADD17C,3.890000*%
%ADD18R,1.350000X1.350000*%
%ADD19C,1.350000*%
%ADD20RoundRect,0.250000X0.550000X-0.550000X0.550000X0.550000X-0.550000X0.550000X-0.550000X-0.550000X0*%
%ADD21C,1.600000*%
%ADD22C,1.440000*%
%ADD23C,1.304000*%
%ADD24C,3.500000*%
%ADD25R,1.905000X2.000000*%
%ADD26O,1.905000X2.000000*%
%ADD27C,3.022600*%
%ADD28C,2.362200*%
%ADD29C,3.524000*%
%ADD30RoundRect,0.250000X-0.550000X-0.550000X0.550000X-0.550000X0.550000X0.550000X-0.550000X0.550000X0*%
%ADD31RoundRect,0.250001X-1.099999X-1.399999X1.099999X-1.399999X1.099999X1.399999X-1.099999X1.399999X0*%
%ADD32O,2.700000X3.300000*%
%ADD33C,1.955800*%
%ADD34C,3.600000*%
%ADD35C,5.600000*%
%ADD36R,1.450000X1.450000*%
%ADD37C,1.450000*%
%ADD38R,1.371600X1.371600*%
%ADD39C,1.371600*%
%ADD40RoundRect,0.250000X0.550000X0.550000X-0.550000X0.550000X-0.550000X-0.550000X0.550000X-0.550000X0*%
%ADD41R,1.800000X1.800000*%
%ADD42C,1.800000*%
%ADD43RoundRect,0.249999X-0.772684X0.920849X-0.920849X-0.772684X0.772684X-0.920849X0.920849X0.772684X0*%
%ADD44C,2.200000*%
%ADD45R,2.000000X1.905000*%
%ADD46O,2.000000X1.905000*%
%ADD47RoundRect,0.250000X0.450000X-0.262500X0.450000X0.262500X-0.450000X0.262500X-0.450000X-0.262500X0*%
%ADD48RoundRect,0.250000X0.475000X-0.250000X0.475000X0.250000X-0.475000X0.250000X-0.475000X-0.250000X0*%
%ADD49RoundRect,0.250000X-0.262500X-0.450000X0.262500X-0.450000X0.262500X0.450000X-0.262500X0.450000X0*%
%ADD50RoundRect,0.250000X0.262500X0.450000X-0.262500X0.450000X-0.262500X-0.450000X0.262500X-0.450000X0*%
%ADD51RoundRect,0.250000X0.250000X0.475000X-0.250000X0.475000X-0.250000X-0.475000X0.250000X-0.475000X0*%
%ADD52RoundRect,0.150000X0.587500X0.150000X-0.587500X0.150000X-0.587500X-0.150000X0.587500X-0.150000X0*%
%ADD53RoundRect,0.249999X-0.450001X-1.425001X0.450001X-1.425001X0.450001X1.425001X-0.450001X1.425001X0*%
%ADD54R,6.000000X6.000000*%
%ADD55RoundRect,0.250000X-0.475000X0.250000X-0.475000X-0.250000X0.475000X-0.250000X0.475000X0.250000X0*%
%ADD56RoundRect,0.250000X-0.450000X0.262500X-0.450000X-0.262500X0.450000X-0.262500X0.450000X0.262500X0*%
%ADD57RoundRect,0.250000X-0.250000X-0.475000X0.250000X-0.475000X0.250000X0.475000X-0.250000X0.475000X0*%
%ADD58RotRect,6.000000X6.000000X315.000000*%
%ADD59RoundRect,0.249999X1.425001X-0.450001X1.425001X0.450001X-1.425001X0.450001X-1.425001X-0.450001X0*%
G04 APERTURE END LIST*
D10*
%TO.C,SDC1*%
X68750000Y-103750000D03*
D11*
X63250000Y-103750000D03*
D12*
X68290000Y-99050000D03*
X68290000Y-108450000D03*
%TD*%
D13*
%TO.C,K1*%
X73629262Y-153787738D03*
X74287115Y-146268460D03*
X107770738Y-149352486D03*
X106945374Y-158786449D03*
X104914939Y-152736463D03*
D14*
X84718207Y-161569816D03*
X86558936Y-140530184D03*
%TD*%
D15*
%TO.C,R6*%
X123840000Y-134800000D03*
D16*
X118760000Y-134800000D03*
%TD*%
D17*
%TO.C,HS2*%
X133950000Y-129850000D03*
X108550000Y-129850000D03*
%TD*%
D18*
%TO.C,R29*%
X92250000Y-82000000D03*
D19*
X92250000Y-80000000D03*
%TD*%
D20*
%TO.C,U11*%
X78800000Y-132970000D03*
D21*
X81340000Y-132970000D03*
X83880000Y-132970000D03*
X86420000Y-132970000D03*
X86420000Y-125350000D03*
X83880000Y-125350000D03*
X81340000Y-125350000D03*
X78800000Y-125350000D03*
%TD*%
D22*
%TO.C,RV1*%
X118690000Y-101620000D03*
X116150000Y-104160000D03*
X113610000Y-101620000D03*
%TD*%
D23*
%TO.C,C9*%
X125500000Y-25000000D03*
X125500000Y-30000000D03*
%TD*%
D24*
%TO.C,Q1*%
X89509600Y-86700000D03*
D25*
X86969600Y-103360000D03*
D26*
X89509600Y-103360000D03*
X92049600Y-103360000D03*
%TD*%
D27*
%TO.C,J3*%
X70037800Y-71868797D03*
D28*
X65337799Y-76259798D03*
X61137800Y-76259798D03*
X56937801Y-76259798D03*
X65337799Y-72059800D03*
X61137800Y-72059800D03*
X56937801Y-72059800D03*
%TD*%
D29*
%TO.C,HS4*%
X127418999Y-141564999D03*
X151618999Y-141564999D03*
%TD*%
D30*
%TO.C,J4*%
X66875000Y-31535000D03*
D21*
X66875000Y-34075000D03*
X66875000Y-36615000D03*
X66875000Y-39155000D03*
X66875000Y-41695000D03*
X66875000Y-44235000D03*
X66875000Y-46775000D03*
X66875000Y-49315000D03*
X66875000Y-51855000D03*
X66875000Y-54395000D03*
X66875000Y-56935000D03*
X66875000Y-59475000D03*
X66875000Y-62015000D03*
X66875000Y-64555000D03*
X82115000Y-64555000D03*
X82115000Y-62015000D03*
X82115000Y-59475000D03*
X82115000Y-56935000D03*
X82115000Y-54395000D03*
X82115000Y-51855000D03*
X82115000Y-49315000D03*
X82115000Y-46775000D03*
X82115000Y-44235000D03*
X82115000Y-41695000D03*
X82115000Y-39155000D03*
X82115000Y-36615000D03*
X82115000Y-34075000D03*
X82115000Y-31535000D03*
%TD*%
D12*
%TO.C,J8*%
X52500000Y-129340000D03*
X66100000Y-129340000D03*
D31*
X57200000Y-124300000D03*
D32*
X61400000Y-124300000D03*
X57200000Y-129800000D03*
X61400000Y-129800000D03*
%TD*%
D33*
%TO.C,J2*%
X153549999Y-37950000D03*
X153549999Y-42150000D03*
X153549999Y-46349996D03*
X153549999Y-50549995D03*
X153549999Y-54749995D03*
X153549999Y-58949994D03*
X148050000Y-37950000D03*
X148050000Y-42150000D03*
X148050000Y-46349996D03*
X148050000Y-50549995D03*
X148050000Y-54749995D03*
X148050000Y-58949994D03*
%TD*%
D34*
%TO.C,H2*%
X163800000Y-156750000D03*
D35*
X163800000Y-156750000D03*
%TD*%
D36*
%TO.C,U6*%
X92025000Y-17810000D03*
D37*
X94565000Y-17810000D03*
X104725000Y-17810000D03*
X107265000Y-17810000D03*
X109805000Y-17810000D03*
%TD*%
D18*
%TO.C,R25*%
X92250000Y-76500000D03*
D19*
X92250000Y-74500000D03*
%TD*%
D17*
%TO.C,HS1*%
X108950000Y-83900000D03*
X134350000Y-83900000D03*
%TD*%
D12*
%TO.C,J6*%
X51850000Y-114740000D03*
X65450000Y-114740000D03*
D31*
X56550000Y-109700000D03*
D32*
X60750000Y-109700000D03*
X56550000Y-115200000D03*
X60750000Y-115200000D03*
%TD*%
D27*
%TO.C,J5*%
X70200001Y-88108999D03*
D28*
X65500000Y-92500000D03*
X61300001Y-92500000D03*
X57100002Y-92500000D03*
X65500000Y-88300002D03*
X61300001Y-88300002D03*
X57100002Y-88300002D03*
%TD*%
D23*
%TO.C,C10*%
X127750000Y-39130000D03*
X127750000Y-44130000D03*
%TD*%
D12*
%TO.C,J10*%
X53900000Y-160700000D03*
X67500000Y-160700000D03*
D31*
X58600000Y-155660000D03*
D32*
X62800000Y-155660000D03*
X58600000Y-161160000D03*
X62800000Y-161160000D03*
%TD*%
D38*
%TO.C,U7*%
X121120000Y-67667500D03*
D39*
X121120000Y-65127500D03*
X121120000Y-62587500D03*
X121120000Y-60047500D03*
X113500000Y-60047500D03*
X113500000Y-62587500D03*
X113500000Y-65127500D03*
X113500000Y-67667500D03*
%TD*%
D27*
%TO.C,J13*%
X114958999Y-145849999D03*
D28*
X119350000Y-150550000D03*
X119350000Y-154749999D03*
X119350000Y-158949998D03*
X115150002Y-150550000D03*
X115150002Y-154749999D03*
X115150002Y-158949998D03*
%TD*%
D12*
%TO.C,J9*%
X52300000Y-143580000D03*
X65900000Y-143580000D03*
D31*
X57000000Y-138540000D03*
D32*
X61200000Y-138540000D03*
X57000000Y-144040000D03*
X61200000Y-144040000D03*
%TD*%
D38*
%TO.C,U9*%
X112440000Y-107490000D03*
D39*
X112440000Y-110030000D03*
X112440000Y-112570000D03*
X112440000Y-115110000D03*
X120060000Y-115110000D03*
X120060000Y-112570000D03*
X120060000Y-110030000D03*
X120060000Y-107490000D03*
%TD*%
D34*
%TO.C,H1*%
X166100000Y-22850000D03*
D35*
X166100000Y-22850000D03*
%TD*%
D40*
%TO.C,U2*%
X101195253Y-35040253D03*
D21*
X101195253Y-32500253D03*
X101195253Y-29960253D03*
X93575253Y-29960253D03*
X93575253Y-32500253D03*
X93575253Y-35040253D03*
%TD*%
D40*
%TO.C,U10*%
X101105000Y-115490000D03*
D21*
X101105000Y-112950000D03*
X101105000Y-110410000D03*
X93485000Y-110410000D03*
X93485000Y-112950000D03*
X93485000Y-115490000D03*
%TD*%
D40*
%TO.C,U3*%
X101195253Y-45540253D03*
D21*
X101195253Y-43000253D03*
X101195253Y-40460253D03*
X93575253Y-40460253D03*
X93575253Y-43000253D03*
X93575253Y-45540253D03*
%TD*%
D41*
%TO.C,DEBUG_2*%
X93300000Y-123550000D03*
D42*
X90760000Y-123550000D03*
%TD*%
D30*
%TO.C,U4*%
X113500000Y-26460000D03*
D21*
X113500000Y-29000000D03*
X113500000Y-31540000D03*
X113500000Y-34080000D03*
X121120000Y-34080000D03*
X121120000Y-31540000D03*
X121120000Y-29000000D03*
X121120000Y-26460000D03*
%TD*%
D24*
%TO.C,Q2*%
X78250000Y-87683200D03*
D25*
X75710000Y-104343200D03*
D26*
X78250000Y-104343200D03*
X80790000Y-104343200D03*
%TD*%
D30*
%TO.C,U5*%
X113690000Y-39230000D03*
D21*
X113690000Y-41770000D03*
X113690000Y-44310000D03*
X113690000Y-46850000D03*
X121310000Y-46850000D03*
X121310000Y-44310000D03*
X121310000Y-41770000D03*
X121310000Y-39230000D03*
%TD*%
D43*
%TO.C,D1*%
X71385502Y-144328662D03*
D44*
X70500000Y-154450000D03*
%TD*%
D29*
%TO.C,HS3*%
X125108999Y-154974999D03*
X149308999Y-154974999D03*
%TD*%
D34*
%TO.C,H3*%
X57025000Y-20700000D03*
D35*
X57025000Y-20700000D03*
%TD*%
D24*
%TO.C,U8*%
X64239000Y-23749000D03*
D45*
X80899000Y-26289000D03*
D46*
X80899000Y-23749000D03*
X80899000Y-21209000D03*
%TD*%
D36*
%TO.C,U12*%
X91660000Y-107050000D03*
D37*
X94200000Y-107050000D03*
X104360000Y-107050000D03*
X106900000Y-107050000D03*
X109440000Y-107050000D03*
%TD*%
D16*
%TO.C,R3*%
X124190000Y-79750000D03*
D15*
X119110000Y-79750000D03*
%TD*%
D12*
%TO.C,J1*%
X72950000Y-117040000D03*
X86550000Y-117040000D03*
D31*
X77650000Y-112000000D03*
D32*
X81850000Y-112000000D03*
X77650000Y-117500000D03*
X81850000Y-117500000D03*
%TD*%
D47*
%TO.C,R49*%
X102700000Y-70975000D03*
X102700000Y-69150000D03*
%TD*%
D48*
%TO.C,C6*%
X87122000Y-79700000D03*
X87122000Y-77800000D03*
%TD*%
D49*
%TO.C,R38*%
X104116500Y-45500000D03*
X105941500Y-45500000D03*
%TD*%
%TO.C,R71*%
X89725000Y-113350000D03*
X91550000Y-113350000D03*
%TD*%
D47*
%TO.C,R28*%
X57845000Y-49662500D03*
X57845000Y-47837500D03*
%TD*%
D50*
%TO.C,R70*%
X105425000Y-116450000D03*
X103600000Y-116450000D03*
%TD*%
D51*
%TO.C,C28*%
X81050000Y-135550000D03*
X79150000Y-135550000D03*
%TD*%
D50*
%TO.C,R23*%
X59007500Y-35250000D03*
X57182500Y-35250000D03*
%TD*%
D47*
%TO.C,R40*%
X133350000Y-39878000D03*
X133350000Y-38053000D03*
%TD*%
D52*
%TO.C,Q4*%
X91425000Y-117650000D03*
X91425000Y-119550000D03*
X89550000Y-118600000D03*
%TD*%
D50*
%TO.C,R32*%
X89412500Y-32500000D03*
X87587500Y-32500000D03*
%TD*%
D53*
%TO.C,R82*%
X147250000Y-118650000D03*
X153350000Y-118650000D03*
%TD*%
D47*
%TO.C,R51*%
X133100000Y-66850000D03*
X133100000Y-65025000D03*
%TD*%
%TO.C,R61*%
X114850000Y-124062500D03*
X114850000Y-122237500D03*
%TD*%
D54*
%TO.C,F24*%
X156050000Y-21250000D03*
X139050000Y-21250000D03*
%TD*%
D47*
%TO.C,R62*%
X116350000Y-116812500D03*
X116350000Y-114987500D03*
%TD*%
D51*
%TO.C,C19*%
X106950000Y-23843250D03*
X105050000Y-23843250D03*
%TD*%
D47*
%TO.C,R57*%
X140250000Y-88075000D03*
X140250000Y-86250000D03*
%TD*%
%TO.C,R73*%
X87600000Y-121812500D03*
X87600000Y-119987500D03*
%TD*%
D54*
%TO.C,F4*%
X128058999Y-160999999D03*
X145058999Y-160999999D03*
%TD*%
D48*
%TO.C,C16*%
X119250000Y-40700000D03*
X119250000Y-38800000D03*
%TD*%
D50*
%TO.C,R44*%
X126912500Y-48000000D03*
X125087500Y-48000000D03*
%TD*%
D49*
%TO.C,R37*%
X108077000Y-45500000D03*
X109902000Y-45500000D03*
%TD*%
D55*
%TO.C,C24*%
X86750000Y-15850000D03*
X86750000Y-17750000D03*
%TD*%
D50*
%TO.C,R53*%
X116325000Y-90400000D03*
X114500000Y-90400000D03*
%TD*%
D47*
%TO.C,R43*%
X125500000Y-35412500D03*
X125500000Y-33587500D03*
%TD*%
%TO.C,R22*%
X62845000Y-38412500D03*
X62845000Y-36587500D03*
%TD*%
%TO.C,R56*%
X103450000Y-78725000D03*
X103450000Y-76900000D03*
%TD*%
D56*
%TO.C,R45*%
X116000000Y-51837500D03*
X116000000Y-53662500D03*
%TD*%
D47*
%TO.C,R55*%
X103400000Y-86912500D03*
X103400000Y-85087500D03*
%TD*%
D56*
%TO.C,R42*%
X133350000Y-41803000D03*
X133350000Y-43628000D03*
%TD*%
D50*
%TO.C,R11*%
X116662500Y-107600000D03*
X114837500Y-107600000D03*
%TD*%
D56*
%TO.C,R41*%
X130683000Y-26837500D03*
X130683000Y-28662500D03*
%TD*%
D49*
%TO.C,R9*%
X66650000Y-122000000D03*
X68475000Y-122000000D03*
%TD*%
D48*
%TO.C,C17*%
X116250000Y-67450000D03*
X116250000Y-65550000D03*
%TD*%
D54*
%TO.C,F22*%
X162450000Y-36500000D03*
X162450000Y-53500000D03*
%TD*%
D49*
%TO.C,R10*%
X109200000Y-101750000D03*
X111025000Y-101750000D03*
%TD*%
D55*
%TO.C,C22*%
X118872000Y-62362000D03*
X118872000Y-64262000D03*
%TD*%
D47*
%TO.C,R26*%
X89220000Y-71662500D03*
X89220000Y-69837500D03*
%TD*%
D48*
%TO.C,C15*%
X118750000Y-27700000D03*
X118750000Y-25800000D03*
%TD*%
D49*
%TO.C,R34*%
X129087500Y-24250000D03*
X130912500Y-24250000D03*
%TD*%
D47*
%TO.C,R33*%
X116000000Y-31912500D03*
X116000000Y-30087500D03*
%TD*%
D51*
%TO.C,C21*%
X106950000Y-21343250D03*
X105050000Y-21343250D03*
%TD*%
D47*
%TO.C,R58*%
X139800000Y-82200000D03*
X139800000Y-80375000D03*
%TD*%
D57*
%TO.C,C3*%
X57645000Y-32000000D03*
X59545000Y-32000000D03*
%TD*%
D47*
%TO.C,R52*%
X128500000Y-62350000D03*
X128500000Y-60525000D03*
%TD*%
D51*
%TO.C,C27*%
X117400000Y-111750000D03*
X115500000Y-111750000D03*
%TD*%
D57*
%TO.C,C8*%
X87550000Y-45250000D03*
X89450000Y-45250000D03*
%TD*%
D50*
%TO.C,R63*%
X122062500Y-126450000D03*
X120237500Y-126450000D03*
%TD*%
D55*
%TO.C,C23*%
X115500000Y-60050000D03*
X115500000Y-61950000D03*
%TD*%
D52*
%TO.C,Q3*%
X106600000Y-112000000D03*
X106600000Y-113900000D03*
X104725000Y-112950000D03*
%TD*%
D56*
%TO.C,R4*%
X81750000Y-121400000D03*
X81750000Y-123225000D03*
%TD*%
D48*
%TO.C,C13*%
X121350000Y-23400000D03*
X121350000Y-21500000D03*
%TD*%
D54*
%TO.C,F21*%
X149400000Y-86700000D03*
X149400000Y-69700000D03*
%TD*%
D56*
%TO.C,R67*%
X126800000Y-119325000D03*
X126800000Y-121150000D03*
%TD*%
D55*
%TO.C,C1*%
X89058250Y-58410000D03*
X89058250Y-60310000D03*
%TD*%
D51*
%TO.C,C31*%
X106800000Y-100500000D03*
X104900000Y-100500000D03*
%TD*%
D56*
%TO.C,R47*%
X119000000Y-66087500D03*
X119000000Y-67912500D03*
%TD*%
D52*
%TO.C,Q5*%
X79450000Y-128550000D03*
X79450000Y-130450000D03*
X77575000Y-129500000D03*
%TD*%
D50*
%TO.C,R69*%
X128875000Y-115700000D03*
X127050000Y-115700000D03*
%TD*%
%TO.C,R31*%
X89412500Y-43000000D03*
X87587500Y-43000000D03*
%TD*%
D49*
%TO.C,R36*%
X103837500Y-35250000D03*
X105662500Y-35250000D03*
%TD*%
D56*
%TO.C,R21*%
X86808250Y-58447500D03*
X86808250Y-60272500D03*
%TD*%
D49*
%TO.C,R35*%
X107337500Y-35250000D03*
X109162500Y-35250000D03*
%TD*%
D55*
%TO.C,C5*%
X58845000Y-51462500D03*
X58845000Y-53362500D03*
%TD*%
D57*
%TO.C,C18*%
X85349000Y-23713000D03*
X87249000Y-23713000D03*
%TD*%
D54*
%TO.C,F25*%
X153050000Y-105900000D03*
X136050000Y-105900000D03*
%TD*%
D57*
%TO.C,C29*%
X86550000Y-129550000D03*
X88450000Y-129550000D03*
%TD*%
D49*
%TO.C,R24*%
X62315000Y-44762500D03*
X64140000Y-44762500D03*
%TD*%
D55*
%TO.C,C26*%
X89250000Y-15850000D03*
X89250000Y-17750000D03*
%TD*%
D56*
%TO.C,R72*%
X85150000Y-120275000D03*
X85150000Y-122100000D03*
%TD*%
D47*
%TO.C,R50*%
X105000000Y-60975000D03*
X105000000Y-59150000D03*
%TD*%
D48*
%TO.C,C11*%
X118750000Y-34700000D03*
X118750000Y-32800000D03*
%TD*%
D58*
%TO.C,F3*%
X136138183Y-145320815D03*
X148158999Y-133299999D03*
%TD*%
D50*
%TO.C,R15*%
X120175000Y-119050000D03*
X118350000Y-119050000D03*
%TD*%
D56*
%TO.C,R20*%
X86808250Y-55035000D03*
X86808250Y-56860000D03*
%TD*%
D57*
%TO.C,C2*%
X57645000Y-29750000D03*
X59545000Y-29750000D03*
%TD*%
D56*
%TO.C,R48*%
X110750000Y-65587500D03*
X110750000Y-67412500D03*
%TD*%
D59*
%TO.C,R81*%
X154150000Y-155700000D03*
X154150000Y-149600000D03*
%TD*%
D54*
%TO.C,F1*%
X161350000Y-86650000D03*
X161350000Y-69650000D03*
%TD*%
D48*
%TO.C,C4*%
X91970000Y-71700000D03*
X91970000Y-69800000D03*
%TD*%
D50*
%TO.C,R65*%
X126662500Y-126200000D03*
X124837500Y-126200000D03*
%TD*%
D51*
%TO.C,C30*%
X79700000Y-121400000D03*
X77800000Y-121400000D03*
%TD*%
D50*
%TO.C,R60*%
X133825000Y-74850000D03*
X132000000Y-74850000D03*
%TD*%
D47*
%TO.C,R59*%
X138850000Y-76725000D03*
X138850000Y-74900000D03*
%TD*%
D49*
%TO.C,R75*%
X81725000Y-129200000D03*
X83550000Y-129200000D03*
%TD*%
D57*
%TO.C,C14*%
X121300000Y-36750000D03*
X123200000Y-36750000D03*
%TD*%
D56*
%TO.C,R46*%
X119500000Y-51837500D03*
X119500000Y-53662500D03*
%TD*%
D48*
%TO.C,C12*%
X118500000Y-47200000D03*
X118500000Y-45300000D03*
%TD*%
D51*
%TO.C,C32*%
X106800000Y-103510000D03*
X104900000Y-103510000D03*
%TD*%
D47*
%TO.C,R39*%
X116000000Y-45162500D03*
X116000000Y-43337500D03*
%TD*%
D50*
%TO.C,R54*%
X108625000Y-90700000D03*
X106800000Y-90700000D03*
%TD*%
D49*
%TO.C,R16*%
X118275000Y-122300000D03*
X120100000Y-122300000D03*
%TD*%
D57*
%TO.C,C20*%
X85349000Y-25963000D03*
X87249000Y-25963000D03*
%TD*%
%TO.C,C25*%
X87550000Y-38750000D03*
X89450000Y-38750000D03*
%TD*%
D56*
%TO.C,R27*%
X59845000Y-47837500D03*
X59845000Y-49662500D03*
%TD*%
D57*
%TO.C,C7*%
X87550000Y-34750000D03*
X89450000Y-34750000D03*
%TD*%
D47*
%TO.C,R30*%
X89357200Y-79599800D03*
X89357200Y-77774800D03*
%TD*%
M02*
