M48
; DRILL file KiCad 10.0.1 date 2026-05-07T11:07:13
; FORMAT={-:-/ absolute / metric / decimal}
; #@! TF.CreationDate,2026-05-07T11:07:13-07:00
; #@! TF.GenerationSoftware,Kicad,Pcbnew,10.0.1
; #@! TF.FileFunction,Plated,1,2,PTH
FMAT,2
METRIC
; #@! TA.AperFunction,Plated,PTH,ViaDrill
T1C0.300
; #@! TA.AperFunction,Plated,PTH,ComponentDrill
T2C0.750
; #@! TA.AperFunction,Plated,PTH,ComponentDrill
T3C0.800
; #@! TA.AperFunction,Plated,PTH,ComponentDrill
T4C0.850
; #@! TA.AperFunction,Plated,PTH,ComponentDrill
T5C0.864
; #@! TA.AperFunction,Plated,PTH,ComponentDrill
T6C0.900
; #@! TA.AperFunction,Plated,PTH,ComponentDrill
T7C1.100
; #@! TA.AperFunction,Plated,PTH,ComponentDrill
T8C1.400
; #@! TA.AperFunction,Plated,PTH,ComponentDrill
T9C1.448
; #@! TA.AperFunction,Plated,PTH,ComponentDrill
T10C1.500
; #@! TA.AperFunction,Plated,PTH,ComponentDrill
T11C1.854
; #@! TA.AperFunction,Plated,PTH,ComponentDrill
T12C2.210
; #@! TA.AperFunction,Plated,PTH,ComponentDrill
T13C2.670
; #@! TA.AperFunction,Plated,PTH,ComponentDrill
T14C3.200
%
G90
G05
T1
X51.0Y-22.25
X51.0Y-31.0
X51.0Y-40.5
X51.0Y-50.25
X51.0Y-59.5
X51.75Y-99.75
X51.75Y-110.5
X52.0Y-68.5
X52.0Y-124.25
X52.0Y-138.5
X52.0Y-147.5
X52.0Y-153.25
X52.121Y-106.02
X52.25Y-17.5
X52.25Y-77.75
X52.25Y-92.25
X52.25Y-119.0
X52.25Y-133.5
X52.476Y-112.37
X52.5Y-83.0
X52.85Y-125.55
X52.883Y-140.818
X53.7Y-30.85
X53.95Y-148.133
X54.0Y-38.25
X54.1Y-47.4
X54.254Y-26.264
X54.75Y-57.75
X55.0Y-55.0
X55.33Y-163.27
X56.0Y-104.5
X56.25Y-97.75
X56.439Y-134.366
X56.5Y-64.0
X56.744Y-112.928
X56.75Y-120.25
X56.947Y-127.508
X56.947Y-141.173
X57.048Y-80.975
X57.048Y-84.785
X57.182Y-35.25
X57.201Y-149.2
X57.645Y-29.75
X57.645Y-32.0
X57.75Y-68.0
X57.845Y-47.7
X57.845Y-49.662
X58.0Y-15.5
X58.039Y-54.991
X58.25Y-103.3
X58.369Y-106.934
X58.75Y-95.25
X58.816Y-51.434
X59.008Y-35.25
X59.5Y-38.5
X59.845Y-47.837
X59.845Y-49.662
X60.147Y-90.221
X60.452Y-59.563
X60.604Y-134.417
X61.0Y-29.75
X61.0Y-32.0
X61.062Y-141.224
X61.062Y-148.387
X61.163Y-84.887
X61.25Y-82.75
X61.722Y-113.081
X61.773Y-127.61
X62.05Y-107.0
X62.25Y-120.75
X62.314Y-44.764
X62.687Y-17.983
X62.75Y-54.75
X62.84Y-90.17
X62.845Y-36.587
X62.845Y-38.413
X63.25Y-57.75
X63.25Y-134.0
X63.3Y-97.7
X63.45Y-108.6
X63.75Y-26.75
X63.75Y-127.0
X63.754Y-147.676
X63.983Y-63.627
X64.0Y-42.75
X64.2Y-112.8
X64.25Y-29.5
X64.35Y-94.75
X64.45Y-106.05
X64.75Y-118.0
X65.0Y-81.95
X65.176Y-146.406
X65.38Y-100.228
X65.4Y-80.5
X65.5Y-90.5
X65.6Y-95.45
X65.65Y-123.7
X65.938Y-132.74
X65.95Y-107.6
X66.566Y-106.184
X67.25Y-152.25
X67.4Y-149.008
X67.5Y-70.9
X67.5Y-73.25
X67.5Y-163.0
X67.611Y-65.939
X67.75Y-15.25
X67.75Y-89.05
X67.97Y-86.97
X68.1Y-92.55
X68.25Y-19.25
X68.275Y-90.881
X68.45Y-120.75
X68.455Y-119.614
X68.5Y-138.5
X68.545Y-124.715
X68.65Y-106.2
X68.84Y-67.168
X69.1Y-61.15
X69.393Y-96.368
X69.5Y-27.0
X69.5Y-28.75
X69.854Y-161.447
X70.0Y-111.3
X70.377Y-94.965
X70.5Y-83.0
X70.884Y-157.0
X71.05Y-120.15
X71.1Y-74.2
X71.5Y-98.75
X71.55Y-102.65
X71.585Y-111.793
X71.73Y-34.696
X71.75Y-63.415
X71.75Y-133.994
X71.75Y-138.17
X71.8Y-141.45
X71.933Y-45.364
X71.95Y-126.15
X72.0Y-109.0
X72.081Y-67.569
X72.25Y-94.0
X72.5Y-125.0
X72.6Y-114.3
X72.9Y-60.85
X73.0Y-82.25
X73.0Y-103.75
X73.208Y-119.65
X73.25Y-29.0
X73.25Y-80.5
X73.457Y-56.591
X73.796Y-151.804
X74.27Y-96.215
X74.371Y-90.983
X74.55Y-106.25
X74.778Y-69.367
X75.0Y-26.5
X75.168Y-73.003
X75.546Y-74.165
X76.0Y-67.0
X76.0Y-161.35
X76.25Y-81.0
X76.4Y-158.75
X76.5Y-145.95
X76.7Y-99.65
X76.8Y-84.65
X76.86Y-90.475
X77.267Y-95.86
X77.5Y-108.75
X77.65Y-132.85
X77.65Y-140.293
X77.724Y-39.573
X77.8Y-69.2
X77.826Y-60.909
X77.9Y-78.05
X78.406Y-136.156
X78.5Y-15.25
X78.5Y-155.0
X78.6Y-63.35
X78.891Y-75.995
X79.35Y-80.4
X79.65Y-149.1
X79.75Y-114.75
X79.75Y-139.5
X79.756Y-94.031
X80.1Y-127.3
X80.12Y-134.443
X80.25Y-123.55
X80.315Y-106.731
X80.45Y-162.9
X80.7Y-141.75
X80.8Y-90.25
X81.28Y-85.801
X81.483Y-94.05
X82.093Y-114.249
X82.25Y-18.0
X82.268Y-80.996
X82.75Y-126.706
X82.95Y-71.2
X83.1Y-135.3
X83.21Y-69.545
X83.363Y-84.176
X83.4Y-121.075
X83.5Y-98.7
X83.769Y-94.05
X83.82Y-75.438
X83.922Y-82.5
X83.972Y-101.854
X84.0Y-122.75
X84.05Y-135.4
X84.125Y-45.771
X84.2Y-58.25
X84.25Y-18.0
X84.3Y-118.45
X84.381Y-60.75
X84.4Y-90.25
X84.43Y-68.072
X84.5Y-104.25
X85.2Y-127.05
X85.95Y-79.8
X85.954Y-81.25
X86.05Y-98.3
X86.05Y-101.05
X86.1Y-94.05
X86.157Y-82.499
X86.208Y-106.578
X86.563Y-49.479
X86.65Y-55.1
X86.75Y-19.75
X86.75Y-53.25
X86.817Y-112.827
X86.85Y-75.3
X87.0Y-64.5
X87.02Y-71.526
X87.427Y-65.837
X87.55Y-46.7
X87.6Y-119.987
X88.05Y-90.25
X88.05Y-94.05
X88.05Y-135.85
X88.443Y-101.956
X88.5Y-112.0
X88.7Y-117.25
X88.798Y-74.828
X88.85Y-125.05
X88.916Y-131.852
X89.0Y-53.0
X89.05Y-119.75
X89.05Y-121.75
X89.25Y-19.75
X89.25Y-68.25
X89.65Y-115.1
X89.7Y-83.5
X89.713Y-110.084
X89.75Y-127.0
X89.814Y-81.28
X89.918Y-122.013
X90.15Y-97.05
X90.5Y-58.5
X90.5Y-63.0
X90.678Y-27.813
X90.729Y-55.524
X90.75Y-48.0
X90.75Y-60.75
X90.75Y-115.5
X90.8Y-71.7
X91.0Y-45.25
X91.1Y-121.5
X91.144Y-108.975
X91.25Y-23.25
X91.25Y-34.75
X91.491Y-111.506
X91.5Y-38.75
X91.55Y-128.45
X91.6Y-138.25
X91.7Y-89.7
X91.7Y-132.2
X91.8Y-135.65
X92.0Y-67.6
X92.25Y-125.55
X92.7Y-144.5
X92.77Y-139.07
X93.25Y-51.25
X93.472Y-55.321
X93.5Y-58.5
X93.5Y-162.05
X93.6Y-90.95
X93.75Y-60.75
X93.75Y-118.35
X93.8Y-126.6
X94.082Y-66.7
X94.132Y-63.5
X94.25Y-15.25
X94.251Y-59.5
X94.488Y-81.229
X94.5Y-62.0
X94.6Y-121.0
X94.742Y-72.39
X94.844Y-77.978
X101.55Y-65.6
X101.7Y-22.0
X102.0Y-107.05
X102.1Y-17.7
X102.25Y-103.7
X102.65Y-60.45
X102.75Y-100.7
X103.15Y-114.7
X103.35Y-109.75
X103.4Y-112.95
X104.5Y-65.95
X104.725Y-21.35
X104.9Y-100.5
X104.9Y-103.51
X104.975Y-114.825
X105.018Y-23.812
X105.1Y-63.0
X105.4Y-69.15
X105.6Y-109.65
X106.75Y-27.85
X106.75Y-29.8
X106.8Y-111.0
X106.85Y-33.65
X107.3Y-37.4
X107.3Y-39.5
X107.3Y-41.85
X107.35Y-48.45
X107.35Y-51.25
X107.35Y-54.6
X107.65Y-64.9
X107.8Y-62.4
X107.8Y-109.0
X107.85Y-59.0
X107.95Y-56.85
X108.25Y-112.85
X108.25Y-116.25
X108.45Y-69.4
X108.5Y-103.75
X108.55Y-21.1
X108.75Y-30.5
X108.75Y-32.5
X108.9Y-23.25
X109.162Y-35.2
X109.25Y-101.75
X109.902Y-45.5
X110.0Y-43.0
X110.15Y-110.4
X110.45Y-100.05
X110.6Y-26.85
X110.7Y-30.1
X110.7Y-67.412
X110.8Y-62.6
X110.95Y-53.45
X110.95Y-63.6
X111.05Y-59.15
X111.1Y-34.9
X111.15Y-36.3
X111.15Y-38.95
X111.15Y-41.35
X111.15Y-56.6
X111.2Y-48.85
X111.2Y-103.6
X111.3Y-51.0
X111.35Y-33.2
X111.55Y-105.85
X111.8Y-21.35
X112.4Y-104.3
X112.9Y-54.25
X113.75Y-111.45
X113.85Y-51.25
X114.2Y-36.2
X114.2Y-99.8
X115.1Y-68.8
X115.15Y-28.4
X115.25Y-109.4
X115.4Y-64.05
X115.8Y-49.05
X115.95Y-34.25
X116.0Y-51.837
X116.0Y-53.662
X116.05Y-41.5
X116.1Y-47.3
X116.35Y-21.3
X116.35Y-114.987
X116.4Y-39.0
X116.55Y-26.65
X116.75Y-107.55
X116.9Y-62.05
X117.2Y-64.1
X117.4Y-111.75
X117.5Y-30.8
X117.5Y-90.4
X117.6Y-57.2
X117.7Y-51.7
X117.7Y-60.0
X117.75Y-53.05
X117.75Y-54.65
X118.25Y-99.8
X118.25Y-105.2
X118.35Y-113.55
X118.5Y-48.85
X118.5Y-108.9
X119.15Y-36.5
X119.35Y-42.2
X119.4Y-29.4
X119.5Y-51.837
X119.5Y-53.7
X119.7Y-21.45
X120.35Y-32.9
X120.75Y-69.35
X121.6Y-52.3
X121.7Y-49.45
X122.15Y-30.05
X122.65Y-32.6
X122.8Y-34.847
X122.9Y-63.5
X122.9Y-67.7
X122.95Y-60.95
X123.05Y-54.55
X123.25Y-23.9
X123.55Y-46.5
X123.75Y-30.0
X124.05Y-26.35
X124.4Y-36.8
X124.45Y-63.6
X124.75Y-42.75
X124.75Y-60.6
X125.05Y-48.0
X125.359Y-160.112
X125.4Y-27.7
X125.45Y-40.7
X125.5Y-33.587
X125.5Y-35.413
X126.0Y-60.6
X126.559Y-160.112
X126.6Y-63.55
X126.912Y-48.0
X127.25Y-31.8
X127.507Y-45.922
X127.55Y-25.35
X127.6Y-36.95
X127.95Y-30.1
X128.059Y-160.112
X128.7Y-42.1
X129.809Y-160.112
X130.2Y-60.35
X130.709Y-160.112
X131.05Y-21.95
X131.15Y-38.55
X131.2Y-40.7
X131.3Y-42.75
X131.65Y-30.5
X131.7Y-45.05
X133.1Y-27.35
X133.2Y-36.35
X133.95Y-98.95
X134.7Y-99.85
X134.8Y-98.1
X134.8Y-98.95
X134.859Y-147.85
X135.5Y-98.95
X135.659Y-147.85
X135.659Y-148.65
X136.759Y-148.55
X136.769Y-147.5
X147.55Y-84.4
X147.55Y-86.4
X147.55Y-88.4
X149.55Y-84.4
X149.55Y-86.4
X149.55Y-88.4
X151.55Y-84.4
X151.55Y-86.4
X151.55Y-88.4
X154.2Y-19.6
X154.2Y-21.6
X154.2Y-23.6
X156.2Y-19.6
X156.2Y-21.6
X156.2Y-23.6
X158.2Y-19.6
X158.2Y-21.6
X158.2Y-23.6
X159.65Y-84.75
X159.65Y-86.75
X159.65Y-88.75
X161.65Y-84.75
X161.65Y-86.75
X161.65Y-88.75
X163.65Y-84.75
X163.65Y-86.75
X163.65Y-88.75
X164.125Y-106.35
X164.775Y-106.35
X165.075Y-105.4
X165.075Y-107.15
X165.725Y-106.35
T2
X125.5Y-25.0
X125.5Y-30.0
X127.75Y-39.13
X127.75Y-44.13
T3
X66.875Y-31.535
X66.875Y-34.075
X66.875Y-36.615
X66.875Y-39.155
X66.875Y-41.695
X66.875Y-44.235
X66.875Y-46.775
X66.875Y-49.315
X66.875Y-51.855
X66.875Y-54.395
X66.875Y-56.935
X66.875Y-59.475
X66.875Y-62.015
X66.875Y-64.555
X78.8Y-125.35
X78.8Y-132.97
X81.34Y-125.35
X81.34Y-132.97
X82.115Y-31.535
X82.115Y-34.075
X82.115Y-36.615
X82.115Y-39.155
X82.115Y-41.695
X82.115Y-44.235
X82.115Y-46.775
X82.115Y-49.315
X82.115Y-51.855
X82.115Y-54.395
X82.115Y-56.935
X82.115Y-59.475
X82.115Y-62.015
X82.115Y-64.555
X83.88Y-125.35
X83.88Y-132.97
X86.42Y-125.35
X86.42Y-132.97
X92.25Y-74.5
X92.25Y-76.5
X92.25Y-80.0
X92.25Y-82.0
X93.485Y-110.41
X93.485Y-112.95
X93.485Y-115.49
X93.575Y-29.96
X93.575Y-32.5
X93.575Y-35.04
X93.575Y-40.46
X93.575Y-43.0
X93.575Y-45.54
X101.105Y-110.41
X101.105Y-112.95
X101.105Y-115.49
X101.195Y-29.96
X101.195Y-32.5
X101.195Y-35.04
X101.195Y-40.46
X101.195Y-43.0
X101.195Y-45.54
X113.5Y-26.46
X113.5Y-29.0
X113.5Y-31.54
X113.5Y-34.08
X113.61Y-101.62
X113.69Y-39.23
X113.69Y-41.77
X113.69Y-44.31
X113.69Y-46.85
X116.15Y-104.16
X118.69Y-101.62
X121.12Y-26.46
X121.12Y-29.0
X121.12Y-31.54
X121.12Y-34.08
X121.31Y-39.23
X121.31Y-41.77
X121.31Y-44.31
X121.31Y-46.85
T4
X91.66Y-107.05
X92.025Y-17.81
X94.2Y-107.05
X94.565Y-17.81
X104.36Y-107.05
X104.725Y-17.81
X106.9Y-107.05
X107.265Y-17.81
X109.44Y-107.05
X109.805Y-17.81
T5
X112.44Y-107.49
X112.44Y-110.03
X112.44Y-112.57
X112.44Y-115.11
X113.5Y-60.047
X113.5Y-62.587
X113.5Y-65.127
X113.5Y-67.668
X120.06Y-107.49
X120.06Y-110.03
X120.06Y-112.57
X120.06Y-115.11
X121.12Y-60.047
X121.12Y-62.587
X121.12Y-65.127
X121.12Y-67.668
T6
X90.76Y-123.55
X93.3Y-123.55
T7
X70.5Y-154.45
X71.386Y-144.329
X75.71Y-104.343
X78.25Y-104.343
X80.79Y-104.343
X80.899Y-21.209
X80.899Y-23.749
X80.899Y-26.289
X86.97Y-103.36
X89.51Y-103.36
X92.05Y-103.36
X118.76Y-134.8
X119.11Y-79.75
X123.84Y-134.8
X124.19Y-79.75
T8
X56.55Y-109.7
X56.55Y-115.2
X57.0Y-138.54
X57.0Y-144.04
X57.2Y-124.3
X57.2Y-129.8
X58.6Y-155.66
X58.6Y-161.16
X60.75Y-109.7
X60.75Y-115.2
X61.2Y-138.54
X61.2Y-144.04
X61.4Y-124.3
X61.4Y-129.8
X62.8Y-155.66
X62.8Y-161.16
X63.25Y-103.75
X68.75Y-103.75
X77.65Y-112.0
X77.65Y-117.5
X81.85Y-112.0
X81.85Y-117.5
T9
X148.05Y-37.95
X148.05Y-42.15
X148.05Y-46.35
X148.05Y-50.55
X148.05Y-54.75
X148.05Y-58.95
X153.55Y-37.95
X153.55Y-42.15
X153.55Y-46.35
X153.55Y-50.55
X153.55Y-54.75
X153.55Y-58.95
T10
X73.629Y-153.788
X74.287Y-146.268
X104.915Y-152.736
X106.945Y-158.786
X107.771Y-149.352
T11
X56.938Y-72.06
X56.938Y-76.26
X57.1Y-88.3
X57.1Y-92.5
X61.138Y-72.06
X61.138Y-76.26
X61.3Y-88.3
X61.3Y-92.5
X65.338Y-72.06
X65.338Y-76.26
X65.5Y-88.3
X65.5Y-92.5
X115.15Y-150.55
X115.15Y-154.75
X115.15Y-158.95
X119.35Y-150.55
X119.35Y-154.75
X119.35Y-158.95
T12
X125.109Y-154.975
X127.419Y-141.565
X149.309Y-154.975
X151.619Y-141.565
T13
X108.55Y-129.85
X108.95Y-83.9
X133.95Y-129.85
X134.35Y-83.9
T14
X57.025Y-20.7
X163.8Y-156.75
X166.1Y-22.85
M30
