%TF.GenerationSoftware,KiCad,Pcbnew,9.0.5*%
%TF.CreationDate,2026-02-28T09:23:41-08:00*%
%TF.ProjectId,Hi_board_bbc1,48695f62-6f61-4726-945f-626263312e6b,rev?*%
%TF.SameCoordinates,Original*%
%TF.FileFunction,Legend,Top*%
%TF.FilePolarity,Positive*%
%FSLAX46Y46*%
G04 Gerber Fmt 4.6, Leading zero omitted, Abs format (unit mm)*
G04 Created by KiCad (PCBNEW 9.0.5) date 2026-02-28 09:23:41*
%MOMM*%
%LPD*%
G01*
G04 APERTURE LIST*
%ADD10C,0.100000*%
%ADD11C,0.150000*%
%ADD12C,0.120000*%
G04 APERTURE END LIST*
D10*
X132034836Y-141946895D02*
X132034836Y-141146895D01*
X132272931Y-141946895D02*
X132272931Y-141146895D01*
X132272931Y-141146895D02*
X132439598Y-141718323D01*
X132439598Y-141718323D02*
X132606264Y-141146895D01*
X132606264Y-141146895D02*
X132606264Y-141946895D01*
X132844360Y-141946895D02*
X132844360Y-141146895D01*
X132844360Y-141146895D02*
X132963408Y-141146895D01*
X132963408Y-141146895D02*
X133034836Y-141184990D01*
X133034836Y-141184990D02*
X133082455Y-141261180D01*
X133082455Y-141261180D02*
X133106265Y-141337371D01*
X133106265Y-141337371D02*
X133130074Y-141489752D01*
X133130074Y-141489752D02*
X133130074Y-141604038D01*
X133130074Y-141604038D02*
X133106265Y-141756419D01*
X133106265Y-141756419D02*
X133082455Y-141832609D01*
X133082455Y-141832609D02*
X133034836Y-141908800D01*
X133034836Y-141908800D02*
X132963408Y-141946895D01*
X132963408Y-141946895D02*
X132844360Y-141946895D01*
X133225313Y-142023085D02*
X133606265Y-142023085D01*
X134011026Y-141946895D02*
X133844360Y-141565942D01*
X133725312Y-141946895D02*
X133725312Y-141146895D01*
X133725312Y-141146895D02*
X133915788Y-141146895D01*
X133915788Y-141146895D02*
X133963407Y-141184990D01*
X133963407Y-141184990D02*
X133987217Y-141223085D01*
X133987217Y-141223085D02*
X134011026Y-141299276D01*
X134011026Y-141299276D02*
X134011026Y-141413561D01*
X134011026Y-141413561D02*
X133987217Y-141489752D01*
X133987217Y-141489752D02*
X133963407Y-141527847D01*
X133963407Y-141527847D02*
X133915788Y-141565942D01*
X133915788Y-141565942D02*
X133725312Y-141565942D01*
X134415788Y-141908800D02*
X134368169Y-141946895D01*
X134368169Y-141946895D02*
X134272931Y-141946895D01*
X134272931Y-141946895D02*
X134225312Y-141908800D01*
X134225312Y-141908800D02*
X134201503Y-141832609D01*
X134201503Y-141832609D02*
X134201503Y-141527847D01*
X134201503Y-141527847D02*
X134225312Y-141451657D01*
X134225312Y-141451657D02*
X134272931Y-141413561D01*
X134272931Y-141413561D02*
X134368169Y-141413561D01*
X134368169Y-141413561D02*
X134415788Y-141451657D01*
X134415788Y-141451657D02*
X134439598Y-141527847D01*
X134439598Y-141527847D02*
X134439598Y-141604038D01*
X134439598Y-141604038D02*
X134201503Y-141680228D01*
X134630074Y-141908800D02*
X134677693Y-141946895D01*
X134677693Y-141946895D02*
X134772931Y-141946895D01*
X134772931Y-141946895D02*
X134820550Y-141908800D01*
X134820550Y-141908800D02*
X134844359Y-141832609D01*
X134844359Y-141832609D02*
X134844359Y-141794514D01*
X134844359Y-141794514D02*
X134820550Y-141718323D01*
X134820550Y-141718323D02*
X134772931Y-141680228D01*
X134772931Y-141680228D02*
X134701502Y-141680228D01*
X134701502Y-141680228D02*
X134653883Y-141642133D01*
X134653883Y-141642133D02*
X134630074Y-141565942D01*
X134630074Y-141565942D02*
X134630074Y-141527847D01*
X134630074Y-141527847D02*
X134653883Y-141451657D01*
X134653883Y-141451657D02*
X134701502Y-141413561D01*
X134701502Y-141413561D02*
X134772931Y-141413561D01*
X134772931Y-141413561D02*
X134820550Y-141451657D01*
X135249121Y-141908800D02*
X135201502Y-141946895D01*
X135201502Y-141946895D02*
X135106264Y-141946895D01*
X135106264Y-141946895D02*
X135058645Y-141908800D01*
X135058645Y-141908800D02*
X135034836Y-141832609D01*
X135034836Y-141832609D02*
X135034836Y-141527847D01*
X135034836Y-141527847D02*
X135058645Y-141451657D01*
X135058645Y-141451657D02*
X135106264Y-141413561D01*
X135106264Y-141413561D02*
X135201502Y-141413561D01*
X135201502Y-141413561D02*
X135249121Y-141451657D01*
X135249121Y-141451657D02*
X135272931Y-141527847D01*
X135272931Y-141527847D02*
X135272931Y-141604038D01*
X135272931Y-141604038D02*
X135034836Y-141680228D01*
X135415788Y-141413561D02*
X135606264Y-141413561D01*
X135487216Y-141146895D02*
X135487216Y-141832609D01*
X135487216Y-141832609D02*
X135511026Y-141908800D01*
X135511026Y-141908800D02*
X135558645Y-141946895D01*
X135558645Y-141946895D02*
X135606264Y-141946895D01*
X135653883Y-142023085D02*
X136034835Y-142023085D01*
X136225311Y-141946895D02*
X136177692Y-141908800D01*
X136177692Y-141908800D02*
X136153882Y-141870704D01*
X136153882Y-141870704D02*
X136130073Y-141794514D01*
X136130073Y-141794514D02*
X136130073Y-141565942D01*
X136130073Y-141565942D02*
X136153882Y-141489752D01*
X136153882Y-141489752D02*
X136177692Y-141451657D01*
X136177692Y-141451657D02*
X136225311Y-141413561D01*
X136225311Y-141413561D02*
X136296739Y-141413561D01*
X136296739Y-141413561D02*
X136344358Y-141451657D01*
X136344358Y-141451657D02*
X136368168Y-141489752D01*
X136368168Y-141489752D02*
X136391977Y-141565942D01*
X136391977Y-141565942D02*
X136391977Y-141794514D01*
X136391977Y-141794514D02*
X136368168Y-141870704D01*
X136368168Y-141870704D02*
X136344358Y-141908800D01*
X136344358Y-141908800D02*
X136296739Y-141946895D01*
X136296739Y-141946895D02*
X136225311Y-141946895D01*
X136820549Y-141413561D02*
X136820549Y-141946895D01*
X136606263Y-141413561D02*
X136606263Y-141832609D01*
X136606263Y-141832609D02*
X136630073Y-141908800D01*
X136630073Y-141908800D02*
X136677692Y-141946895D01*
X136677692Y-141946895D02*
X136749120Y-141946895D01*
X136749120Y-141946895D02*
X136796739Y-141908800D01*
X136796739Y-141908800D02*
X136820549Y-141870704D01*
X136987216Y-141413561D02*
X137177692Y-141413561D01*
X137058644Y-141146895D02*
X137058644Y-141832609D01*
X137058644Y-141832609D02*
X137082454Y-141908800D01*
X137082454Y-141908800D02*
X137130073Y-141946895D01*
X137130073Y-141946895D02*
X137177692Y-141946895D01*
X127984836Y-141642133D02*
X128365789Y-141642133D01*
X128175312Y-141946895D02*
X128175312Y-141337371D01*
X128865789Y-141946895D02*
X128580075Y-141946895D01*
X128722932Y-141946895D02*
X128722932Y-141146895D01*
X128722932Y-141146895D02*
X128675313Y-141261180D01*
X128675313Y-141261180D02*
X128627694Y-141337371D01*
X128627694Y-141337371D02*
X128580075Y-141375466D01*
X129056265Y-141223085D02*
X129080074Y-141184990D01*
X129080074Y-141184990D02*
X129127693Y-141146895D01*
X129127693Y-141146895D02*
X129246741Y-141146895D01*
X129246741Y-141146895D02*
X129294360Y-141184990D01*
X129294360Y-141184990D02*
X129318169Y-141223085D01*
X129318169Y-141223085D02*
X129341979Y-141299276D01*
X129341979Y-141299276D02*
X129341979Y-141375466D01*
X129341979Y-141375466D02*
X129318169Y-141489752D01*
X129318169Y-141489752D02*
X129032455Y-141946895D01*
X129032455Y-141946895D02*
X129341979Y-141946895D01*
X129484836Y-141146895D02*
X129651502Y-141946895D01*
X129651502Y-141946895D02*
X129818169Y-141146895D01*
X151001503Y-141677847D02*
X151072931Y-141715942D01*
X151072931Y-141715942D02*
X151096741Y-141754038D01*
X151096741Y-141754038D02*
X151120550Y-141830228D01*
X151120550Y-141830228D02*
X151120550Y-141944514D01*
X151120550Y-141944514D02*
X151096741Y-142020704D01*
X151096741Y-142020704D02*
X151072931Y-142058800D01*
X151072931Y-142058800D02*
X151025312Y-142096895D01*
X151025312Y-142096895D02*
X150834836Y-142096895D01*
X150834836Y-142096895D02*
X150834836Y-141296895D01*
X150834836Y-141296895D02*
X151001503Y-141296895D01*
X151001503Y-141296895D02*
X151049122Y-141334990D01*
X151049122Y-141334990D02*
X151072931Y-141373085D01*
X151072931Y-141373085D02*
X151096741Y-141449276D01*
X151096741Y-141449276D02*
X151096741Y-141525466D01*
X151096741Y-141525466D02*
X151072931Y-141601657D01*
X151072931Y-141601657D02*
X151049122Y-141639752D01*
X151049122Y-141639752D02*
X151001503Y-141677847D01*
X151001503Y-141677847D02*
X150834836Y-141677847D01*
X151334836Y-142096895D02*
X151334836Y-141296895D01*
X151334836Y-141296895D02*
X151501503Y-141868323D01*
X151501503Y-141868323D02*
X151668169Y-141296895D01*
X151668169Y-141296895D02*
X151668169Y-142096895D01*
X151882456Y-142058800D02*
X151953884Y-142096895D01*
X151953884Y-142096895D02*
X152072932Y-142096895D01*
X152072932Y-142096895D02*
X152120551Y-142058800D01*
X152120551Y-142058800D02*
X152144360Y-142020704D01*
X152144360Y-142020704D02*
X152168170Y-141944514D01*
X152168170Y-141944514D02*
X152168170Y-141868323D01*
X152168170Y-141868323D02*
X152144360Y-141792133D01*
X152144360Y-141792133D02*
X152120551Y-141754038D01*
X152120551Y-141754038D02*
X152072932Y-141715942D01*
X152072932Y-141715942D02*
X151977694Y-141677847D01*
X151977694Y-141677847D02*
X151930075Y-141639752D01*
X151930075Y-141639752D02*
X151906265Y-141601657D01*
X151906265Y-141601657D02*
X151882456Y-141525466D01*
X151882456Y-141525466D02*
X151882456Y-141449276D01*
X151882456Y-141449276D02*
X151906265Y-141373085D01*
X151906265Y-141373085D02*
X151930075Y-141334990D01*
X151930075Y-141334990D02*
X151977694Y-141296895D01*
X151977694Y-141296895D02*
X152096741Y-141296895D01*
X152096741Y-141296895D02*
X152168170Y-141334990D01*
X152263408Y-142173085D02*
X152644360Y-142173085D01*
X153049121Y-142096895D02*
X152882455Y-141715942D01*
X152763407Y-142096895D02*
X152763407Y-141296895D01*
X152763407Y-141296895D02*
X152953883Y-141296895D01*
X152953883Y-141296895D02*
X153001502Y-141334990D01*
X153001502Y-141334990D02*
X153025312Y-141373085D01*
X153025312Y-141373085D02*
X153049121Y-141449276D01*
X153049121Y-141449276D02*
X153049121Y-141563561D01*
X153049121Y-141563561D02*
X153025312Y-141639752D01*
X153025312Y-141639752D02*
X153001502Y-141677847D01*
X153001502Y-141677847D02*
X152953883Y-141715942D01*
X152953883Y-141715942D02*
X152763407Y-141715942D01*
X153453883Y-142058800D02*
X153406264Y-142096895D01*
X153406264Y-142096895D02*
X153311026Y-142096895D01*
X153311026Y-142096895D02*
X153263407Y-142058800D01*
X153263407Y-142058800D02*
X153239598Y-141982609D01*
X153239598Y-141982609D02*
X153239598Y-141677847D01*
X153239598Y-141677847D02*
X153263407Y-141601657D01*
X153263407Y-141601657D02*
X153311026Y-141563561D01*
X153311026Y-141563561D02*
X153406264Y-141563561D01*
X153406264Y-141563561D02*
X153453883Y-141601657D01*
X153453883Y-141601657D02*
X153477693Y-141677847D01*
X153477693Y-141677847D02*
X153477693Y-141754038D01*
X153477693Y-141754038D02*
X153239598Y-141830228D01*
X153668169Y-142058800D02*
X153715788Y-142096895D01*
X153715788Y-142096895D02*
X153811026Y-142096895D01*
X153811026Y-142096895D02*
X153858645Y-142058800D01*
X153858645Y-142058800D02*
X153882454Y-141982609D01*
X153882454Y-141982609D02*
X153882454Y-141944514D01*
X153882454Y-141944514D02*
X153858645Y-141868323D01*
X153858645Y-141868323D02*
X153811026Y-141830228D01*
X153811026Y-141830228D02*
X153739597Y-141830228D01*
X153739597Y-141830228D02*
X153691978Y-141792133D01*
X153691978Y-141792133D02*
X153668169Y-141715942D01*
X153668169Y-141715942D02*
X153668169Y-141677847D01*
X153668169Y-141677847D02*
X153691978Y-141601657D01*
X153691978Y-141601657D02*
X153739597Y-141563561D01*
X153739597Y-141563561D02*
X153811026Y-141563561D01*
X153811026Y-141563561D02*
X153858645Y-141601657D01*
X154287216Y-142058800D02*
X154239597Y-142096895D01*
X154239597Y-142096895D02*
X154144359Y-142096895D01*
X154144359Y-142096895D02*
X154096740Y-142058800D01*
X154096740Y-142058800D02*
X154072931Y-141982609D01*
X154072931Y-141982609D02*
X154072931Y-141677847D01*
X154072931Y-141677847D02*
X154096740Y-141601657D01*
X154096740Y-141601657D02*
X154144359Y-141563561D01*
X154144359Y-141563561D02*
X154239597Y-141563561D01*
X154239597Y-141563561D02*
X154287216Y-141601657D01*
X154287216Y-141601657D02*
X154311026Y-141677847D01*
X154311026Y-141677847D02*
X154311026Y-141754038D01*
X154311026Y-141754038D02*
X154072931Y-141830228D01*
X154453883Y-141563561D02*
X154644359Y-141563561D01*
X154525311Y-141296895D02*
X154525311Y-141982609D01*
X154525311Y-141982609D02*
X154549121Y-142058800D01*
X154549121Y-142058800D02*
X154596740Y-142096895D01*
X154596740Y-142096895D02*
X154644359Y-142096895D01*
X162984836Y-141792133D02*
X163365789Y-141792133D01*
X163175312Y-142096895D02*
X163175312Y-141487371D01*
X163865789Y-142096895D02*
X163580075Y-142096895D01*
X163722932Y-142096895D02*
X163722932Y-141296895D01*
X163722932Y-141296895D02*
X163675313Y-141411180D01*
X163675313Y-141411180D02*
X163627694Y-141487371D01*
X163627694Y-141487371D02*
X163580075Y-141525466D01*
X164056265Y-141373085D02*
X164080074Y-141334990D01*
X164080074Y-141334990D02*
X164127693Y-141296895D01*
X164127693Y-141296895D02*
X164246741Y-141296895D01*
X164246741Y-141296895D02*
X164294360Y-141334990D01*
X164294360Y-141334990D02*
X164318169Y-141373085D01*
X164318169Y-141373085D02*
X164341979Y-141449276D01*
X164341979Y-141449276D02*
X164341979Y-141525466D01*
X164341979Y-141525466D02*
X164318169Y-141639752D01*
X164318169Y-141639752D02*
X164032455Y-142096895D01*
X164032455Y-142096895D02*
X164341979Y-142096895D01*
X164484836Y-141296895D02*
X164651502Y-142096895D01*
X164651502Y-142096895D02*
X164818169Y-141296895D01*
X145434836Y-141996895D02*
X145434836Y-141196895D01*
X145672931Y-141996895D02*
X145672931Y-141196895D01*
X145672931Y-141196895D02*
X145839598Y-141768323D01*
X145839598Y-141768323D02*
X146006264Y-141196895D01*
X146006264Y-141196895D02*
X146006264Y-141996895D01*
X146244360Y-141996895D02*
X146244360Y-141196895D01*
X146244360Y-141196895D02*
X146363408Y-141196895D01*
X146363408Y-141196895D02*
X146434836Y-141234990D01*
X146434836Y-141234990D02*
X146482455Y-141311180D01*
X146482455Y-141311180D02*
X146506265Y-141387371D01*
X146506265Y-141387371D02*
X146530074Y-141539752D01*
X146530074Y-141539752D02*
X146530074Y-141654038D01*
X146530074Y-141654038D02*
X146506265Y-141806419D01*
X146506265Y-141806419D02*
X146482455Y-141882609D01*
X146482455Y-141882609D02*
X146434836Y-141958800D01*
X146434836Y-141958800D02*
X146363408Y-141996895D01*
X146363408Y-141996895D02*
X146244360Y-141996895D01*
X146625313Y-142073085D02*
X147006265Y-142073085D01*
X147411026Y-141996895D02*
X147244360Y-141615942D01*
X147125312Y-141996895D02*
X147125312Y-141196895D01*
X147125312Y-141196895D02*
X147315788Y-141196895D01*
X147315788Y-141196895D02*
X147363407Y-141234990D01*
X147363407Y-141234990D02*
X147387217Y-141273085D01*
X147387217Y-141273085D02*
X147411026Y-141349276D01*
X147411026Y-141349276D02*
X147411026Y-141463561D01*
X147411026Y-141463561D02*
X147387217Y-141539752D01*
X147387217Y-141539752D02*
X147363407Y-141577847D01*
X147363407Y-141577847D02*
X147315788Y-141615942D01*
X147315788Y-141615942D02*
X147125312Y-141615942D01*
X147815788Y-141958800D02*
X147768169Y-141996895D01*
X147768169Y-141996895D02*
X147672931Y-141996895D01*
X147672931Y-141996895D02*
X147625312Y-141958800D01*
X147625312Y-141958800D02*
X147601503Y-141882609D01*
X147601503Y-141882609D02*
X147601503Y-141577847D01*
X147601503Y-141577847D02*
X147625312Y-141501657D01*
X147625312Y-141501657D02*
X147672931Y-141463561D01*
X147672931Y-141463561D02*
X147768169Y-141463561D01*
X147768169Y-141463561D02*
X147815788Y-141501657D01*
X147815788Y-141501657D02*
X147839598Y-141577847D01*
X147839598Y-141577847D02*
X147839598Y-141654038D01*
X147839598Y-141654038D02*
X147601503Y-141730228D01*
X148030074Y-141958800D02*
X148077693Y-141996895D01*
X148077693Y-141996895D02*
X148172931Y-141996895D01*
X148172931Y-141996895D02*
X148220550Y-141958800D01*
X148220550Y-141958800D02*
X148244359Y-141882609D01*
X148244359Y-141882609D02*
X148244359Y-141844514D01*
X148244359Y-141844514D02*
X148220550Y-141768323D01*
X148220550Y-141768323D02*
X148172931Y-141730228D01*
X148172931Y-141730228D02*
X148101502Y-141730228D01*
X148101502Y-141730228D02*
X148053883Y-141692133D01*
X148053883Y-141692133D02*
X148030074Y-141615942D01*
X148030074Y-141615942D02*
X148030074Y-141577847D01*
X148030074Y-141577847D02*
X148053883Y-141501657D01*
X148053883Y-141501657D02*
X148101502Y-141463561D01*
X148101502Y-141463561D02*
X148172931Y-141463561D01*
X148172931Y-141463561D02*
X148220550Y-141501657D01*
X148649121Y-141958800D02*
X148601502Y-141996895D01*
X148601502Y-141996895D02*
X148506264Y-141996895D01*
X148506264Y-141996895D02*
X148458645Y-141958800D01*
X148458645Y-141958800D02*
X148434836Y-141882609D01*
X148434836Y-141882609D02*
X148434836Y-141577847D01*
X148434836Y-141577847D02*
X148458645Y-141501657D01*
X148458645Y-141501657D02*
X148506264Y-141463561D01*
X148506264Y-141463561D02*
X148601502Y-141463561D01*
X148601502Y-141463561D02*
X148649121Y-141501657D01*
X148649121Y-141501657D02*
X148672931Y-141577847D01*
X148672931Y-141577847D02*
X148672931Y-141654038D01*
X148672931Y-141654038D02*
X148434836Y-141730228D01*
X148815788Y-141463561D02*
X149006264Y-141463561D01*
X148887216Y-141196895D02*
X148887216Y-141882609D01*
X148887216Y-141882609D02*
X148911026Y-141958800D01*
X148911026Y-141958800D02*
X148958645Y-141996895D01*
X148958645Y-141996895D02*
X149006264Y-141996895D01*
X149053883Y-142073085D02*
X149434835Y-142073085D01*
X149553882Y-141996895D02*
X149553882Y-141463561D01*
X149553882Y-141196895D02*
X149530073Y-141234990D01*
X149530073Y-141234990D02*
X149553882Y-141273085D01*
X149553882Y-141273085D02*
X149577692Y-141234990D01*
X149577692Y-141234990D02*
X149553882Y-141196895D01*
X149553882Y-141196895D02*
X149553882Y-141273085D01*
X149791977Y-141463561D02*
X149791977Y-141996895D01*
X149791977Y-141539752D02*
X149815787Y-141501657D01*
X149815787Y-141501657D02*
X149863406Y-141463561D01*
X149863406Y-141463561D02*
X149934834Y-141463561D01*
X149934834Y-141463561D02*
X149982453Y-141501657D01*
X149982453Y-141501657D02*
X150006263Y-141577847D01*
X150006263Y-141577847D02*
X150006263Y-141996895D01*
X115501503Y-141427847D02*
X115572931Y-141465942D01*
X115572931Y-141465942D02*
X115596741Y-141504038D01*
X115596741Y-141504038D02*
X115620550Y-141580228D01*
X115620550Y-141580228D02*
X115620550Y-141694514D01*
X115620550Y-141694514D02*
X115596741Y-141770704D01*
X115596741Y-141770704D02*
X115572931Y-141808800D01*
X115572931Y-141808800D02*
X115525312Y-141846895D01*
X115525312Y-141846895D02*
X115334836Y-141846895D01*
X115334836Y-141846895D02*
X115334836Y-141046895D01*
X115334836Y-141046895D02*
X115501503Y-141046895D01*
X115501503Y-141046895D02*
X115549122Y-141084990D01*
X115549122Y-141084990D02*
X115572931Y-141123085D01*
X115572931Y-141123085D02*
X115596741Y-141199276D01*
X115596741Y-141199276D02*
X115596741Y-141275466D01*
X115596741Y-141275466D02*
X115572931Y-141351657D01*
X115572931Y-141351657D02*
X115549122Y-141389752D01*
X115549122Y-141389752D02*
X115501503Y-141427847D01*
X115501503Y-141427847D02*
X115334836Y-141427847D01*
X115811027Y-141808800D02*
X115882455Y-141846895D01*
X115882455Y-141846895D02*
X116001503Y-141846895D01*
X116001503Y-141846895D02*
X116049122Y-141808800D01*
X116049122Y-141808800D02*
X116072931Y-141770704D01*
X116072931Y-141770704D02*
X116096741Y-141694514D01*
X116096741Y-141694514D02*
X116096741Y-141618323D01*
X116096741Y-141618323D02*
X116072931Y-141542133D01*
X116072931Y-141542133D02*
X116049122Y-141504038D01*
X116049122Y-141504038D02*
X116001503Y-141465942D01*
X116001503Y-141465942D02*
X115906265Y-141427847D01*
X115906265Y-141427847D02*
X115858646Y-141389752D01*
X115858646Y-141389752D02*
X115834836Y-141351657D01*
X115834836Y-141351657D02*
X115811027Y-141275466D01*
X115811027Y-141275466D02*
X115811027Y-141199276D01*
X115811027Y-141199276D02*
X115834836Y-141123085D01*
X115834836Y-141123085D02*
X115858646Y-141084990D01*
X115858646Y-141084990D02*
X115906265Y-141046895D01*
X115906265Y-141046895D02*
X116025312Y-141046895D01*
X116025312Y-141046895D02*
X116096741Y-141084990D01*
X116311026Y-141846895D02*
X116311026Y-141046895D01*
X116311026Y-141046895D02*
X116501502Y-141046895D01*
X116501502Y-141046895D02*
X116549121Y-141084990D01*
X116549121Y-141084990D02*
X116572931Y-141123085D01*
X116572931Y-141123085D02*
X116596740Y-141199276D01*
X116596740Y-141199276D02*
X116596740Y-141313561D01*
X116596740Y-141313561D02*
X116572931Y-141389752D01*
X116572931Y-141389752D02*
X116549121Y-141427847D01*
X116549121Y-141427847D02*
X116501502Y-141465942D01*
X116501502Y-141465942D02*
X116311026Y-141465942D01*
X116811026Y-141846895D02*
X116811026Y-141046895D01*
X116811026Y-141046895D02*
X116930074Y-141046895D01*
X116930074Y-141046895D02*
X117001502Y-141084990D01*
X117001502Y-141084990D02*
X117049121Y-141161180D01*
X117049121Y-141161180D02*
X117072931Y-141237371D01*
X117072931Y-141237371D02*
X117096740Y-141389752D01*
X117096740Y-141389752D02*
X117096740Y-141504038D01*
X117096740Y-141504038D02*
X117072931Y-141656419D01*
X117072931Y-141656419D02*
X117049121Y-141732609D01*
X117049121Y-141732609D02*
X117001502Y-141808800D01*
X117001502Y-141808800D02*
X116930074Y-141846895D01*
X116930074Y-141846895D02*
X116811026Y-141846895D01*
X117191979Y-141923085D02*
X117572931Y-141923085D01*
X117977692Y-141846895D02*
X117811026Y-141465942D01*
X117691978Y-141846895D02*
X117691978Y-141046895D01*
X117691978Y-141046895D02*
X117882454Y-141046895D01*
X117882454Y-141046895D02*
X117930073Y-141084990D01*
X117930073Y-141084990D02*
X117953883Y-141123085D01*
X117953883Y-141123085D02*
X117977692Y-141199276D01*
X117977692Y-141199276D02*
X117977692Y-141313561D01*
X117977692Y-141313561D02*
X117953883Y-141389752D01*
X117953883Y-141389752D02*
X117930073Y-141427847D01*
X117930073Y-141427847D02*
X117882454Y-141465942D01*
X117882454Y-141465942D02*
X117691978Y-141465942D01*
X118382454Y-141808800D02*
X118334835Y-141846895D01*
X118334835Y-141846895D02*
X118239597Y-141846895D01*
X118239597Y-141846895D02*
X118191978Y-141808800D01*
X118191978Y-141808800D02*
X118168169Y-141732609D01*
X118168169Y-141732609D02*
X118168169Y-141427847D01*
X118168169Y-141427847D02*
X118191978Y-141351657D01*
X118191978Y-141351657D02*
X118239597Y-141313561D01*
X118239597Y-141313561D02*
X118334835Y-141313561D01*
X118334835Y-141313561D02*
X118382454Y-141351657D01*
X118382454Y-141351657D02*
X118406264Y-141427847D01*
X118406264Y-141427847D02*
X118406264Y-141504038D01*
X118406264Y-141504038D02*
X118168169Y-141580228D01*
X118596740Y-141808800D02*
X118644359Y-141846895D01*
X118644359Y-141846895D02*
X118739597Y-141846895D01*
X118739597Y-141846895D02*
X118787216Y-141808800D01*
X118787216Y-141808800D02*
X118811025Y-141732609D01*
X118811025Y-141732609D02*
X118811025Y-141694514D01*
X118811025Y-141694514D02*
X118787216Y-141618323D01*
X118787216Y-141618323D02*
X118739597Y-141580228D01*
X118739597Y-141580228D02*
X118668168Y-141580228D01*
X118668168Y-141580228D02*
X118620549Y-141542133D01*
X118620549Y-141542133D02*
X118596740Y-141465942D01*
X118596740Y-141465942D02*
X118596740Y-141427847D01*
X118596740Y-141427847D02*
X118620549Y-141351657D01*
X118620549Y-141351657D02*
X118668168Y-141313561D01*
X118668168Y-141313561D02*
X118739597Y-141313561D01*
X118739597Y-141313561D02*
X118787216Y-141351657D01*
X119215787Y-141808800D02*
X119168168Y-141846895D01*
X119168168Y-141846895D02*
X119072930Y-141846895D01*
X119072930Y-141846895D02*
X119025311Y-141808800D01*
X119025311Y-141808800D02*
X119001502Y-141732609D01*
X119001502Y-141732609D02*
X119001502Y-141427847D01*
X119001502Y-141427847D02*
X119025311Y-141351657D01*
X119025311Y-141351657D02*
X119072930Y-141313561D01*
X119072930Y-141313561D02*
X119168168Y-141313561D01*
X119168168Y-141313561D02*
X119215787Y-141351657D01*
X119215787Y-141351657D02*
X119239597Y-141427847D01*
X119239597Y-141427847D02*
X119239597Y-141504038D01*
X119239597Y-141504038D02*
X119001502Y-141580228D01*
X119382454Y-141313561D02*
X119572930Y-141313561D01*
X119453882Y-141046895D02*
X119453882Y-141732609D01*
X119453882Y-141732609D02*
X119477692Y-141808800D01*
X119477692Y-141808800D02*
X119525311Y-141846895D01*
X119525311Y-141846895D02*
X119572930Y-141846895D01*
X132822931Y-96701937D02*
X132937217Y-96740032D01*
X132937217Y-96740032D02*
X132975312Y-96778128D01*
X132975312Y-96778128D02*
X133013408Y-96854318D01*
X133013408Y-96854318D02*
X133013408Y-96968604D01*
X133013408Y-96968604D02*
X132975312Y-97044794D01*
X132975312Y-97044794D02*
X132937217Y-97082890D01*
X132937217Y-97082890D02*
X132861027Y-97120985D01*
X132861027Y-97120985D02*
X132556265Y-97120985D01*
X132556265Y-97120985D02*
X132556265Y-96320985D01*
X132556265Y-96320985D02*
X132822931Y-96320985D01*
X132822931Y-96320985D02*
X132899122Y-96359080D01*
X132899122Y-96359080D02*
X132937217Y-96397175D01*
X132937217Y-96397175D02*
X132975312Y-96473366D01*
X132975312Y-96473366D02*
X132975312Y-96549556D01*
X132975312Y-96549556D02*
X132937217Y-96625747D01*
X132937217Y-96625747D02*
X132899122Y-96663842D01*
X132899122Y-96663842D02*
X132822931Y-96701937D01*
X132822931Y-96701937D02*
X132556265Y-96701937D01*
X133622931Y-96701937D02*
X133737217Y-96740032D01*
X133737217Y-96740032D02*
X133775312Y-96778128D01*
X133775312Y-96778128D02*
X133813408Y-96854318D01*
X133813408Y-96854318D02*
X133813408Y-96968604D01*
X133813408Y-96968604D02*
X133775312Y-97044794D01*
X133775312Y-97044794D02*
X133737217Y-97082890D01*
X133737217Y-97082890D02*
X133661027Y-97120985D01*
X133661027Y-97120985D02*
X133356265Y-97120985D01*
X133356265Y-97120985D02*
X133356265Y-96320985D01*
X133356265Y-96320985D02*
X133622931Y-96320985D01*
X133622931Y-96320985D02*
X133699122Y-96359080D01*
X133699122Y-96359080D02*
X133737217Y-96397175D01*
X133737217Y-96397175D02*
X133775312Y-96473366D01*
X133775312Y-96473366D02*
X133775312Y-96549556D01*
X133775312Y-96549556D02*
X133737217Y-96625747D01*
X133737217Y-96625747D02*
X133699122Y-96663842D01*
X133699122Y-96663842D02*
X133622931Y-96701937D01*
X133622931Y-96701937D02*
X133356265Y-96701937D01*
X134613408Y-97044794D02*
X134575312Y-97082890D01*
X134575312Y-97082890D02*
X134461027Y-97120985D01*
X134461027Y-97120985D02*
X134384836Y-97120985D01*
X134384836Y-97120985D02*
X134270550Y-97082890D01*
X134270550Y-97082890D02*
X134194360Y-97006699D01*
X134194360Y-97006699D02*
X134156265Y-96930509D01*
X134156265Y-96930509D02*
X134118169Y-96778128D01*
X134118169Y-96778128D02*
X134118169Y-96663842D01*
X134118169Y-96663842D02*
X134156265Y-96511461D01*
X134156265Y-96511461D02*
X134194360Y-96435270D01*
X134194360Y-96435270D02*
X134270550Y-96359080D01*
X134270550Y-96359080D02*
X134384836Y-96320985D01*
X134384836Y-96320985D02*
X134461027Y-96320985D01*
X134461027Y-96320985D02*
X134575312Y-96359080D01*
X134575312Y-96359080D02*
X134613408Y-96397175D01*
X135565789Y-97120985D02*
X135565789Y-96320985D01*
X135565789Y-96701937D02*
X136022932Y-96701937D01*
X136022932Y-97120985D02*
X136022932Y-96320985D01*
X136403884Y-97120985D02*
X136403884Y-96320985D01*
X137661026Y-96701937D02*
X137775312Y-96740032D01*
X137775312Y-96740032D02*
X137813407Y-96778128D01*
X137813407Y-96778128D02*
X137851503Y-96854318D01*
X137851503Y-96854318D02*
X137851503Y-96968604D01*
X137851503Y-96968604D02*
X137813407Y-97044794D01*
X137813407Y-97044794D02*
X137775312Y-97082890D01*
X137775312Y-97082890D02*
X137699122Y-97120985D01*
X137699122Y-97120985D02*
X137394360Y-97120985D01*
X137394360Y-97120985D02*
X137394360Y-96320985D01*
X137394360Y-96320985D02*
X137661026Y-96320985D01*
X137661026Y-96320985D02*
X137737217Y-96359080D01*
X137737217Y-96359080D02*
X137775312Y-96397175D01*
X137775312Y-96397175D02*
X137813407Y-96473366D01*
X137813407Y-96473366D02*
X137813407Y-96549556D01*
X137813407Y-96549556D02*
X137775312Y-96625747D01*
X137775312Y-96625747D02*
X137737217Y-96663842D01*
X137737217Y-96663842D02*
X137661026Y-96701937D01*
X137661026Y-96701937D02*
X137394360Y-96701937D01*
X138308645Y-97120985D02*
X138232455Y-97082890D01*
X138232455Y-97082890D02*
X138194360Y-97044794D01*
X138194360Y-97044794D02*
X138156264Y-96968604D01*
X138156264Y-96968604D02*
X138156264Y-96740032D01*
X138156264Y-96740032D02*
X138194360Y-96663842D01*
X138194360Y-96663842D02*
X138232455Y-96625747D01*
X138232455Y-96625747D02*
X138308645Y-96587651D01*
X138308645Y-96587651D02*
X138422931Y-96587651D01*
X138422931Y-96587651D02*
X138499122Y-96625747D01*
X138499122Y-96625747D02*
X138537217Y-96663842D01*
X138537217Y-96663842D02*
X138575312Y-96740032D01*
X138575312Y-96740032D02*
X138575312Y-96968604D01*
X138575312Y-96968604D02*
X138537217Y-97044794D01*
X138537217Y-97044794D02*
X138499122Y-97082890D01*
X138499122Y-97082890D02*
X138422931Y-97120985D01*
X138422931Y-97120985D02*
X138308645Y-97120985D01*
X139261027Y-97120985D02*
X139261027Y-96701937D01*
X139261027Y-96701937D02*
X139222932Y-96625747D01*
X139222932Y-96625747D02*
X139146741Y-96587651D01*
X139146741Y-96587651D02*
X138994360Y-96587651D01*
X138994360Y-96587651D02*
X138918170Y-96625747D01*
X139261027Y-97082890D02*
X139184836Y-97120985D01*
X139184836Y-97120985D02*
X138994360Y-97120985D01*
X138994360Y-97120985D02*
X138918170Y-97082890D01*
X138918170Y-97082890D02*
X138880074Y-97006699D01*
X138880074Y-97006699D02*
X138880074Y-96930509D01*
X138880074Y-96930509D02*
X138918170Y-96854318D01*
X138918170Y-96854318D02*
X138994360Y-96816223D01*
X138994360Y-96816223D02*
X139184836Y-96816223D01*
X139184836Y-96816223D02*
X139261027Y-96778128D01*
X139641980Y-97120985D02*
X139641980Y-96587651D01*
X139641980Y-96740032D02*
X139680075Y-96663842D01*
X139680075Y-96663842D02*
X139718170Y-96625747D01*
X139718170Y-96625747D02*
X139794361Y-96587651D01*
X139794361Y-96587651D02*
X139870551Y-96587651D01*
X140480075Y-97120985D02*
X140480075Y-96320985D01*
X140480075Y-97082890D02*
X140403884Y-97120985D01*
X140403884Y-97120985D02*
X140251503Y-97120985D01*
X140251503Y-97120985D02*
X140175313Y-97082890D01*
X140175313Y-97082890D02*
X140137218Y-97044794D01*
X140137218Y-97044794D02*
X140099122Y-96968604D01*
X140099122Y-96968604D02*
X140099122Y-96740032D01*
X140099122Y-96740032D02*
X140137218Y-96663842D01*
X140137218Y-96663842D02*
X140175313Y-96625747D01*
X140175313Y-96625747D02*
X140251503Y-96587651D01*
X140251503Y-96587651D02*
X140403884Y-96587651D01*
X140403884Y-96587651D02*
X140480075Y-96625747D01*
X132556265Y-98408940D02*
X132556265Y-97608940D01*
X132556265Y-97608940D02*
X132746741Y-97608940D01*
X132746741Y-97608940D02*
X132861027Y-97647035D01*
X132861027Y-97647035D02*
X132937217Y-97723225D01*
X132937217Y-97723225D02*
X132975312Y-97799416D01*
X132975312Y-97799416D02*
X133013408Y-97951797D01*
X133013408Y-97951797D02*
X133013408Y-98066083D01*
X133013408Y-98066083D02*
X132975312Y-98218464D01*
X132975312Y-98218464D02*
X132937217Y-98294654D01*
X132937217Y-98294654D02*
X132861027Y-98370845D01*
X132861027Y-98370845D02*
X132746741Y-98408940D01*
X132746741Y-98408940D02*
X132556265Y-98408940D01*
X133661027Y-98370845D02*
X133584836Y-98408940D01*
X133584836Y-98408940D02*
X133432455Y-98408940D01*
X133432455Y-98408940D02*
X133356265Y-98370845D01*
X133356265Y-98370845D02*
X133318169Y-98294654D01*
X133318169Y-98294654D02*
X133318169Y-97989892D01*
X133318169Y-97989892D02*
X133356265Y-97913702D01*
X133356265Y-97913702D02*
X133432455Y-97875606D01*
X133432455Y-97875606D02*
X133584836Y-97875606D01*
X133584836Y-97875606D02*
X133661027Y-97913702D01*
X133661027Y-97913702D02*
X133699122Y-97989892D01*
X133699122Y-97989892D02*
X133699122Y-98066083D01*
X133699122Y-98066083D02*
X133318169Y-98142273D01*
X134003883Y-98370845D02*
X134080074Y-98408940D01*
X134080074Y-98408940D02*
X134232455Y-98408940D01*
X134232455Y-98408940D02*
X134308645Y-98370845D01*
X134308645Y-98370845D02*
X134346741Y-98294654D01*
X134346741Y-98294654D02*
X134346741Y-98256559D01*
X134346741Y-98256559D02*
X134308645Y-98180368D01*
X134308645Y-98180368D02*
X134232455Y-98142273D01*
X134232455Y-98142273D02*
X134118169Y-98142273D01*
X134118169Y-98142273D02*
X134041979Y-98104178D01*
X134041979Y-98104178D02*
X134003883Y-98027987D01*
X134003883Y-98027987D02*
X134003883Y-97989892D01*
X134003883Y-97989892D02*
X134041979Y-97913702D01*
X134041979Y-97913702D02*
X134118169Y-97875606D01*
X134118169Y-97875606D02*
X134232455Y-97875606D01*
X134232455Y-97875606D02*
X134308645Y-97913702D01*
X134689598Y-98408940D02*
X134689598Y-97875606D01*
X134689598Y-97608940D02*
X134651502Y-97647035D01*
X134651502Y-97647035D02*
X134689598Y-97685130D01*
X134689598Y-97685130D02*
X134727693Y-97647035D01*
X134727693Y-97647035D02*
X134689598Y-97608940D01*
X134689598Y-97608940D02*
X134689598Y-97685130D01*
X135413407Y-97875606D02*
X135413407Y-98523225D01*
X135413407Y-98523225D02*
X135375312Y-98599416D01*
X135375312Y-98599416D02*
X135337216Y-98637511D01*
X135337216Y-98637511D02*
X135261026Y-98675606D01*
X135261026Y-98675606D02*
X135146740Y-98675606D01*
X135146740Y-98675606D02*
X135070550Y-98637511D01*
X135413407Y-98370845D02*
X135337216Y-98408940D01*
X135337216Y-98408940D02*
X135184835Y-98408940D01*
X135184835Y-98408940D02*
X135108645Y-98370845D01*
X135108645Y-98370845D02*
X135070550Y-98332749D01*
X135070550Y-98332749D02*
X135032454Y-98256559D01*
X135032454Y-98256559D02*
X135032454Y-98027987D01*
X135032454Y-98027987D02*
X135070550Y-97951797D01*
X135070550Y-97951797D02*
X135108645Y-97913702D01*
X135108645Y-97913702D02*
X135184835Y-97875606D01*
X135184835Y-97875606D02*
X135337216Y-97875606D01*
X135337216Y-97875606D02*
X135413407Y-97913702D01*
X135794360Y-97875606D02*
X135794360Y-98408940D01*
X135794360Y-97951797D02*
X135832455Y-97913702D01*
X135832455Y-97913702D02*
X135908645Y-97875606D01*
X135908645Y-97875606D02*
X136022931Y-97875606D01*
X136022931Y-97875606D02*
X136099122Y-97913702D01*
X136099122Y-97913702D02*
X136137217Y-97989892D01*
X136137217Y-97989892D02*
X136137217Y-98408940D01*
X136822932Y-98370845D02*
X136746741Y-98408940D01*
X136746741Y-98408940D02*
X136594360Y-98408940D01*
X136594360Y-98408940D02*
X136518170Y-98370845D01*
X136518170Y-98370845D02*
X136480074Y-98294654D01*
X136480074Y-98294654D02*
X136480074Y-97989892D01*
X136480074Y-97989892D02*
X136518170Y-97913702D01*
X136518170Y-97913702D02*
X136594360Y-97875606D01*
X136594360Y-97875606D02*
X136746741Y-97875606D01*
X136746741Y-97875606D02*
X136822932Y-97913702D01*
X136822932Y-97913702D02*
X136861027Y-97989892D01*
X136861027Y-97989892D02*
X136861027Y-98066083D01*
X136861027Y-98066083D02*
X136480074Y-98142273D01*
X137546741Y-98408940D02*
X137546741Y-97608940D01*
X137546741Y-98370845D02*
X137470550Y-98408940D01*
X137470550Y-98408940D02*
X137318169Y-98408940D01*
X137318169Y-98408940D02*
X137241979Y-98370845D01*
X137241979Y-98370845D02*
X137203884Y-98332749D01*
X137203884Y-98332749D02*
X137165788Y-98256559D01*
X137165788Y-98256559D02*
X137165788Y-98027987D01*
X137165788Y-98027987D02*
X137203884Y-97951797D01*
X137203884Y-97951797D02*
X137241979Y-97913702D01*
X137241979Y-97913702D02*
X137318169Y-97875606D01*
X137318169Y-97875606D02*
X137470550Y-97875606D01*
X137470550Y-97875606D02*
X137546741Y-97913702D01*
X138537218Y-98408940D02*
X138537218Y-97608940D01*
X138537218Y-97913702D02*
X138613408Y-97875606D01*
X138613408Y-97875606D02*
X138765789Y-97875606D01*
X138765789Y-97875606D02*
X138841980Y-97913702D01*
X138841980Y-97913702D02*
X138880075Y-97951797D01*
X138880075Y-97951797D02*
X138918170Y-98027987D01*
X138918170Y-98027987D02*
X138918170Y-98256559D01*
X138918170Y-98256559D02*
X138880075Y-98332749D01*
X138880075Y-98332749D02*
X138841980Y-98370845D01*
X138841980Y-98370845D02*
X138765789Y-98408940D01*
X138765789Y-98408940D02*
X138613408Y-98408940D01*
X138613408Y-98408940D02*
X138537218Y-98370845D01*
X139184837Y-97875606D02*
X139375313Y-98408940D01*
X139565790Y-97875606D02*
X139375313Y-98408940D01*
X139375313Y-98408940D02*
X139299123Y-98599416D01*
X139299123Y-98599416D02*
X139261028Y-98637511D01*
X139261028Y-98637511D02*
X139184837Y-98675606D01*
X139870552Y-98332749D02*
X139908647Y-98370845D01*
X139908647Y-98370845D02*
X139870552Y-98408940D01*
X139870552Y-98408940D02*
X139832456Y-98370845D01*
X139832456Y-98370845D02*
X139870552Y-98332749D01*
X139870552Y-98332749D02*
X139870552Y-98408940D01*
X139870552Y-97913702D02*
X139908647Y-97951797D01*
X139908647Y-97951797D02*
X139870552Y-97989892D01*
X139870552Y-97989892D02*
X139832456Y-97951797D01*
X139832456Y-97951797D02*
X139870552Y-97913702D01*
X139870552Y-97913702D02*
X139870552Y-97989892D01*
X140861028Y-98408940D02*
X140861028Y-97608940D01*
X140861028Y-97608940D02*
X141165790Y-97608940D01*
X141165790Y-97608940D02*
X141241980Y-97647035D01*
X141241980Y-97647035D02*
X141280075Y-97685130D01*
X141280075Y-97685130D02*
X141318171Y-97761321D01*
X141318171Y-97761321D02*
X141318171Y-97875606D01*
X141318171Y-97875606D02*
X141280075Y-97951797D01*
X141280075Y-97951797D02*
X141241980Y-97989892D01*
X141241980Y-97989892D02*
X141165790Y-98027987D01*
X141165790Y-98027987D02*
X140861028Y-98027987D01*
X141965790Y-98370845D02*
X141889599Y-98408940D01*
X141889599Y-98408940D02*
X141737218Y-98408940D01*
X141737218Y-98408940D02*
X141661028Y-98370845D01*
X141661028Y-98370845D02*
X141622932Y-98294654D01*
X141622932Y-98294654D02*
X141622932Y-97989892D01*
X141622932Y-97989892D02*
X141661028Y-97913702D01*
X141661028Y-97913702D02*
X141737218Y-97875606D01*
X141737218Y-97875606D02*
X141889599Y-97875606D01*
X141889599Y-97875606D02*
X141965790Y-97913702D01*
X141965790Y-97913702D02*
X142003885Y-97989892D01*
X142003885Y-97989892D02*
X142003885Y-98066083D01*
X142003885Y-98066083D02*
X141622932Y-98142273D01*
X142689599Y-98408940D02*
X142689599Y-97989892D01*
X142689599Y-97989892D02*
X142651504Y-97913702D01*
X142651504Y-97913702D02*
X142575313Y-97875606D01*
X142575313Y-97875606D02*
X142422932Y-97875606D01*
X142422932Y-97875606D02*
X142346742Y-97913702D01*
X142689599Y-98370845D02*
X142613408Y-98408940D01*
X142613408Y-98408940D02*
X142422932Y-98408940D01*
X142422932Y-98408940D02*
X142346742Y-98370845D01*
X142346742Y-98370845D02*
X142308646Y-98294654D01*
X142308646Y-98294654D02*
X142308646Y-98218464D01*
X142308646Y-98218464D02*
X142346742Y-98142273D01*
X142346742Y-98142273D02*
X142422932Y-98104178D01*
X142422932Y-98104178D02*
X142613408Y-98104178D01*
X142613408Y-98104178D02*
X142689599Y-98066083D01*
X143070552Y-98408940D02*
X143070552Y-97875606D01*
X143070552Y-98027987D02*
X143108647Y-97951797D01*
X143108647Y-97951797D02*
X143146742Y-97913702D01*
X143146742Y-97913702D02*
X143222933Y-97875606D01*
X143222933Y-97875606D02*
X143299123Y-97875606D01*
X143680075Y-98408940D02*
X143603885Y-98370845D01*
X143603885Y-98370845D02*
X143565790Y-98294654D01*
X143565790Y-98294654D02*
X143565790Y-97608940D01*
X144518171Y-97608940D02*
X144708647Y-98408940D01*
X144708647Y-98408940D02*
X144861028Y-97837511D01*
X144861028Y-97837511D02*
X145013409Y-98408940D01*
X145013409Y-98408940D02*
X145203886Y-97608940D01*
X145851505Y-98408940D02*
X145851505Y-97989892D01*
X145851505Y-97989892D02*
X145813410Y-97913702D01*
X145813410Y-97913702D02*
X145737219Y-97875606D01*
X145737219Y-97875606D02*
X145584838Y-97875606D01*
X145584838Y-97875606D02*
X145508648Y-97913702D01*
X145851505Y-98370845D02*
X145775314Y-98408940D01*
X145775314Y-98408940D02*
X145584838Y-98408940D01*
X145584838Y-98408940D02*
X145508648Y-98370845D01*
X145508648Y-98370845D02*
X145470552Y-98294654D01*
X145470552Y-98294654D02*
X145470552Y-98218464D01*
X145470552Y-98218464D02*
X145508648Y-98142273D01*
X145508648Y-98142273D02*
X145584838Y-98104178D01*
X145584838Y-98104178D02*
X145775314Y-98104178D01*
X145775314Y-98104178D02*
X145851505Y-98066083D01*
X146232458Y-97875606D02*
X146232458Y-98408940D01*
X146232458Y-97951797D02*
X146270553Y-97913702D01*
X146270553Y-97913702D02*
X146346743Y-97875606D01*
X146346743Y-97875606D02*
X146461029Y-97875606D01*
X146461029Y-97875606D02*
X146537220Y-97913702D01*
X146537220Y-97913702D02*
X146575315Y-97989892D01*
X146575315Y-97989892D02*
X146575315Y-98408940D01*
X147299125Y-97875606D02*
X147299125Y-98523225D01*
X147299125Y-98523225D02*
X147261030Y-98599416D01*
X147261030Y-98599416D02*
X147222934Y-98637511D01*
X147222934Y-98637511D02*
X147146744Y-98675606D01*
X147146744Y-98675606D02*
X147032458Y-98675606D01*
X147032458Y-98675606D02*
X146956268Y-98637511D01*
X147299125Y-98370845D02*
X147222934Y-98408940D01*
X147222934Y-98408940D02*
X147070553Y-98408940D01*
X147070553Y-98408940D02*
X146994363Y-98370845D01*
X146994363Y-98370845D02*
X146956268Y-98332749D01*
X146956268Y-98332749D02*
X146918172Y-98256559D01*
X146918172Y-98256559D02*
X146918172Y-98027987D01*
X146918172Y-98027987D02*
X146956268Y-97951797D01*
X146956268Y-97951797D02*
X146994363Y-97913702D01*
X146994363Y-97913702D02*
X147070553Y-97875606D01*
X147070553Y-97875606D02*
X147222934Y-97875606D01*
X147222934Y-97875606D02*
X147299125Y-97913702D01*
X132441979Y-98896895D02*
X132708646Y-99696895D01*
X132708646Y-99696895D02*
X132975312Y-98896895D01*
X133546741Y-99658800D02*
X133470550Y-99696895D01*
X133470550Y-99696895D02*
X133318169Y-99696895D01*
X133318169Y-99696895D02*
X133241979Y-99658800D01*
X133241979Y-99658800D02*
X133203883Y-99582609D01*
X133203883Y-99582609D02*
X133203883Y-99277847D01*
X133203883Y-99277847D02*
X133241979Y-99201657D01*
X133241979Y-99201657D02*
X133318169Y-99163561D01*
X133318169Y-99163561D02*
X133470550Y-99163561D01*
X133470550Y-99163561D02*
X133546741Y-99201657D01*
X133546741Y-99201657D02*
X133584836Y-99277847D01*
X133584836Y-99277847D02*
X133584836Y-99354038D01*
X133584836Y-99354038D02*
X133203883Y-99430228D01*
X133927693Y-99696895D02*
X133927693Y-99163561D01*
X133927693Y-99315942D02*
X133965788Y-99239752D01*
X133965788Y-99239752D02*
X134003883Y-99201657D01*
X134003883Y-99201657D02*
X134080074Y-99163561D01*
X134080074Y-99163561D02*
X134156264Y-99163561D01*
X134384835Y-99658800D02*
X134461026Y-99696895D01*
X134461026Y-99696895D02*
X134613407Y-99696895D01*
X134613407Y-99696895D02*
X134689597Y-99658800D01*
X134689597Y-99658800D02*
X134727693Y-99582609D01*
X134727693Y-99582609D02*
X134727693Y-99544514D01*
X134727693Y-99544514D02*
X134689597Y-99468323D01*
X134689597Y-99468323D02*
X134613407Y-99430228D01*
X134613407Y-99430228D02*
X134499121Y-99430228D01*
X134499121Y-99430228D02*
X134422931Y-99392133D01*
X134422931Y-99392133D02*
X134384835Y-99315942D01*
X134384835Y-99315942D02*
X134384835Y-99277847D01*
X134384835Y-99277847D02*
X134422931Y-99201657D01*
X134422931Y-99201657D02*
X134499121Y-99163561D01*
X134499121Y-99163561D02*
X134613407Y-99163561D01*
X134613407Y-99163561D02*
X134689597Y-99201657D01*
X135070550Y-99696895D02*
X135070550Y-99163561D01*
X135070550Y-98896895D02*
X135032454Y-98934990D01*
X135032454Y-98934990D02*
X135070550Y-98973085D01*
X135070550Y-98973085D02*
X135108645Y-98934990D01*
X135108645Y-98934990D02*
X135070550Y-98896895D01*
X135070550Y-98896895D02*
X135070550Y-98973085D01*
X135565787Y-99696895D02*
X135489597Y-99658800D01*
X135489597Y-99658800D02*
X135451502Y-99620704D01*
X135451502Y-99620704D02*
X135413406Y-99544514D01*
X135413406Y-99544514D02*
X135413406Y-99315942D01*
X135413406Y-99315942D02*
X135451502Y-99239752D01*
X135451502Y-99239752D02*
X135489597Y-99201657D01*
X135489597Y-99201657D02*
X135565787Y-99163561D01*
X135565787Y-99163561D02*
X135680073Y-99163561D01*
X135680073Y-99163561D02*
X135756264Y-99201657D01*
X135756264Y-99201657D02*
X135794359Y-99239752D01*
X135794359Y-99239752D02*
X135832454Y-99315942D01*
X135832454Y-99315942D02*
X135832454Y-99544514D01*
X135832454Y-99544514D02*
X135794359Y-99620704D01*
X135794359Y-99620704D02*
X135756264Y-99658800D01*
X135756264Y-99658800D02*
X135680073Y-99696895D01*
X135680073Y-99696895D02*
X135565787Y-99696895D01*
X136175312Y-99163561D02*
X136175312Y-99696895D01*
X136175312Y-99239752D02*
X136213407Y-99201657D01*
X136213407Y-99201657D02*
X136289597Y-99163561D01*
X136289597Y-99163561D02*
X136403883Y-99163561D01*
X136403883Y-99163561D02*
X136480074Y-99201657D01*
X136480074Y-99201657D02*
X136518169Y-99277847D01*
X136518169Y-99277847D02*
X136518169Y-99696895D01*
X136899122Y-99620704D02*
X136937217Y-99658800D01*
X136937217Y-99658800D02*
X136899122Y-99696895D01*
X136899122Y-99696895D02*
X136861026Y-99658800D01*
X136861026Y-99658800D02*
X136899122Y-99620704D01*
X136899122Y-99620704D02*
X136899122Y-99696895D01*
X136899122Y-99201657D02*
X136937217Y-99239752D01*
X136937217Y-99239752D02*
X136899122Y-99277847D01*
X136899122Y-99277847D02*
X136861026Y-99239752D01*
X136861026Y-99239752D02*
X136899122Y-99201657D01*
X136899122Y-99201657D02*
X136899122Y-99277847D01*
X137889598Y-99696895D02*
X137889598Y-98896895D01*
X137889598Y-99277847D02*
X138346741Y-99277847D01*
X138346741Y-99696895D02*
X138346741Y-98896895D01*
X138727693Y-99696895D02*
X138727693Y-98896895D01*
X138918169Y-99773085D02*
X139527692Y-99773085D01*
X139984835Y-99277847D02*
X140099121Y-99315942D01*
X140099121Y-99315942D02*
X140137216Y-99354038D01*
X140137216Y-99354038D02*
X140175312Y-99430228D01*
X140175312Y-99430228D02*
X140175312Y-99544514D01*
X140175312Y-99544514D02*
X140137216Y-99620704D01*
X140137216Y-99620704D02*
X140099121Y-99658800D01*
X140099121Y-99658800D02*
X140022931Y-99696895D01*
X140022931Y-99696895D02*
X139718169Y-99696895D01*
X139718169Y-99696895D02*
X139718169Y-98896895D01*
X139718169Y-98896895D02*
X139984835Y-98896895D01*
X139984835Y-98896895D02*
X140061026Y-98934990D01*
X140061026Y-98934990D02*
X140099121Y-98973085D01*
X140099121Y-98973085D02*
X140137216Y-99049276D01*
X140137216Y-99049276D02*
X140137216Y-99125466D01*
X140137216Y-99125466D02*
X140099121Y-99201657D01*
X140099121Y-99201657D02*
X140061026Y-99239752D01*
X140061026Y-99239752D02*
X139984835Y-99277847D01*
X139984835Y-99277847D02*
X139718169Y-99277847D01*
X140784835Y-99277847D02*
X140899121Y-99315942D01*
X140899121Y-99315942D02*
X140937216Y-99354038D01*
X140937216Y-99354038D02*
X140975312Y-99430228D01*
X140975312Y-99430228D02*
X140975312Y-99544514D01*
X140975312Y-99544514D02*
X140937216Y-99620704D01*
X140937216Y-99620704D02*
X140899121Y-99658800D01*
X140899121Y-99658800D02*
X140822931Y-99696895D01*
X140822931Y-99696895D02*
X140518169Y-99696895D01*
X140518169Y-99696895D02*
X140518169Y-98896895D01*
X140518169Y-98896895D02*
X140784835Y-98896895D01*
X140784835Y-98896895D02*
X140861026Y-98934990D01*
X140861026Y-98934990D02*
X140899121Y-98973085D01*
X140899121Y-98973085D02*
X140937216Y-99049276D01*
X140937216Y-99049276D02*
X140937216Y-99125466D01*
X140937216Y-99125466D02*
X140899121Y-99201657D01*
X140899121Y-99201657D02*
X140861026Y-99239752D01*
X140861026Y-99239752D02*
X140784835Y-99277847D01*
X140784835Y-99277847D02*
X140518169Y-99277847D01*
X141775312Y-99620704D02*
X141737216Y-99658800D01*
X141737216Y-99658800D02*
X141622931Y-99696895D01*
X141622931Y-99696895D02*
X141546740Y-99696895D01*
X141546740Y-99696895D02*
X141432454Y-99658800D01*
X141432454Y-99658800D02*
X141356264Y-99582609D01*
X141356264Y-99582609D02*
X141318169Y-99506419D01*
X141318169Y-99506419D02*
X141280073Y-99354038D01*
X141280073Y-99354038D02*
X141280073Y-99239752D01*
X141280073Y-99239752D02*
X141318169Y-99087371D01*
X141318169Y-99087371D02*
X141356264Y-99011180D01*
X141356264Y-99011180D02*
X141432454Y-98934990D01*
X141432454Y-98934990D02*
X141546740Y-98896895D01*
X141546740Y-98896895D02*
X141622931Y-98896895D01*
X141622931Y-98896895D02*
X141737216Y-98934990D01*
X141737216Y-98934990D02*
X141775312Y-98973085D01*
X142651502Y-99163561D02*
X142841978Y-99696895D01*
X142841978Y-99696895D02*
X143032455Y-99163561D01*
X143299121Y-98973085D02*
X143337217Y-98934990D01*
X143337217Y-98934990D02*
X143413407Y-98896895D01*
X143413407Y-98896895D02*
X143603883Y-98896895D01*
X143603883Y-98896895D02*
X143680074Y-98934990D01*
X143680074Y-98934990D02*
X143718169Y-98973085D01*
X143718169Y-98973085D02*
X143756264Y-99049276D01*
X143756264Y-99049276D02*
X143756264Y-99125466D01*
X143756264Y-99125466D02*
X143718169Y-99239752D01*
X143718169Y-99239752D02*
X143261026Y-99696895D01*
X143261026Y-99696895D02*
X143756264Y-99696895D01*
X144251503Y-98896895D02*
X144327693Y-98896895D01*
X144327693Y-98896895D02*
X144403884Y-98934990D01*
X144403884Y-98934990D02*
X144441979Y-98973085D01*
X144441979Y-98973085D02*
X144480074Y-99049276D01*
X144480074Y-99049276D02*
X144518169Y-99201657D01*
X144518169Y-99201657D02*
X144518169Y-99392133D01*
X144518169Y-99392133D02*
X144480074Y-99544514D01*
X144480074Y-99544514D02*
X144441979Y-99620704D01*
X144441979Y-99620704D02*
X144403884Y-99658800D01*
X144403884Y-99658800D02*
X144327693Y-99696895D01*
X144327693Y-99696895D02*
X144251503Y-99696895D01*
X144251503Y-99696895D02*
X144175312Y-99658800D01*
X144175312Y-99658800D02*
X144137217Y-99620704D01*
X144137217Y-99620704D02*
X144099122Y-99544514D01*
X144099122Y-99544514D02*
X144061026Y-99392133D01*
X144061026Y-99392133D02*
X144061026Y-99201657D01*
X144061026Y-99201657D02*
X144099122Y-99049276D01*
X144099122Y-99049276D02*
X144137217Y-98973085D01*
X144137217Y-98973085D02*
X144175312Y-98934990D01*
X144175312Y-98934990D02*
X144251503Y-98896895D01*
X144822931Y-98973085D02*
X144861027Y-98934990D01*
X144861027Y-98934990D02*
X144937217Y-98896895D01*
X144937217Y-98896895D02*
X145127693Y-98896895D01*
X145127693Y-98896895D02*
X145203884Y-98934990D01*
X145203884Y-98934990D02*
X145241979Y-98973085D01*
X145241979Y-98973085D02*
X145280074Y-99049276D01*
X145280074Y-99049276D02*
X145280074Y-99125466D01*
X145280074Y-99125466D02*
X145241979Y-99239752D01*
X145241979Y-99239752D02*
X144784836Y-99696895D01*
X144784836Y-99696895D02*
X145280074Y-99696895D01*
X145965789Y-98896895D02*
X145813408Y-98896895D01*
X145813408Y-98896895D02*
X145737217Y-98934990D01*
X145737217Y-98934990D02*
X145699122Y-98973085D01*
X145699122Y-98973085D02*
X145622932Y-99087371D01*
X145622932Y-99087371D02*
X145584836Y-99239752D01*
X145584836Y-99239752D02*
X145584836Y-99544514D01*
X145584836Y-99544514D02*
X145622932Y-99620704D01*
X145622932Y-99620704D02*
X145661027Y-99658800D01*
X145661027Y-99658800D02*
X145737217Y-99696895D01*
X145737217Y-99696895D02*
X145889598Y-99696895D01*
X145889598Y-99696895D02*
X145965789Y-99658800D01*
X145965789Y-99658800D02*
X146003884Y-99620704D01*
X146003884Y-99620704D02*
X146041979Y-99544514D01*
X146041979Y-99544514D02*
X146041979Y-99354038D01*
X146041979Y-99354038D02*
X146003884Y-99277847D01*
X146003884Y-99277847D02*
X145965789Y-99239752D01*
X145965789Y-99239752D02*
X145889598Y-99201657D01*
X145889598Y-99201657D02*
X145737217Y-99201657D01*
X145737217Y-99201657D02*
X145661027Y-99239752D01*
X145661027Y-99239752D02*
X145622932Y-99277847D01*
X145622932Y-99277847D02*
X145584836Y-99354038D01*
X146384837Y-99620704D02*
X146422932Y-99658800D01*
X146422932Y-99658800D02*
X146384837Y-99696895D01*
X146384837Y-99696895D02*
X146346741Y-99658800D01*
X146346741Y-99658800D02*
X146384837Y-99620704D01*
X146384837Y-99620704D02*
X146384837Y-99696895D01*
X147184836Y-99696895D02*
X146727693Y-99696895D01*
X146956265Y-99696895D02*
X146956265Y-98896895D01*
X146956265Y-98896895D02*
X146880074Y-99011180D01*
X146880074Y-99011180D02*
X146803884Y-99087371D01*
X146803884Y-99087371D02*
X146727693Y-99125466D01*
D11*
X152408333Y-115294819D02*
X152075000Y-114818628D01*
X151836905Y-115294819D02*
X151836905Y-114294819D01*
X151836905Y-114294819D02*
X152217857Y-114294819D01*
X152217857Y-114294819D02*
X152313095Y-114342438D01*
X152313095Y-114342438D02*
X152360714Y-114390057D01*
X152360714Y-114390057D02*
X152408333Y-114485295D01*
X152408333Y-114485295D02*
X152408333Y-114628152D01*
X152408333Y-114628152D02*
X152360714Y-114723390D01*
X152360714Y-114723390D02*
X152313095Y-114771009D01*
X152313095Y-114771009D02*
X152217857Y-114818628D01*
X152217857Y-114818628D02*
X151836905Y-114818628D01*
X153313095Y-114294819D02*
X152836905Y-114294819D01*
X152836905Y-114294819D02*
X152789286Y-114771009D01*
X152789286Y-114771009D02*
X152836905Y-114723390D01*
X152836905Y-114723390D02*
X152932143Y-114675771D01*
X152932143Y-114675771D02*
X153170238Y-114675771D01*
X153170238Y-114675771D02*
X153265476Y-114723390D01*
X153265476Y-114723390D02*
X153313095Y-114771009D01*
X153313095Y-114771009D02*
X153360714Y-114866247D01*
X153360714Y-114866247D02*
X153360714Y-115104342D01*
X153360714Y-115104342D02*
X153313095Y-115199580D01*
X153313095Y-115199580D02*
X153265476Y-115247200D01*
X153265476Y-115247200D02*
X153170238Y-115294819D01*
X153170238Y-115294819D02*
X152932143Y-115294819D01*
X152932143Y-115294819D02*
X152836905Y-115247200D01*
X152836905Y-115247200D02*
X152789286Y-115199580D01*
X141161638Y-139242171D02*
X141304495Y-139289790D01*
X141304495Y-139289790D02*
X141542590Y-139289790D01*
X141542590Y-139289790D02*
X141637828Y-139242171D01*
X141637828Y-139242171D02*
X141685447Y-139194551D01*
X141685447Y-139194551D02*
X141733066Y-139099313D01*
X141733066Y-139099313D02*
X141733066Y-139004075D01*
X141733066Y-139004075D02*
X141685447Y-138908837D01*
X141685447Y-138908837D02*
X141637828Y-138861218D01*
X141637828Y-138861218D02*
X141542590Y-138813599D01*
X141542590Y-138813599D02*
X141352114Y-138765980D01*
X141352114Y-138765980D02*
X141256876Y-138718361D01*
X141256876Y-138718361D02*
X141209257Y-138670742D01*
X141209257Y-138670742D02*
X141161638Y-138575504D01*
X141161638Y-138575504D02*
X141161638Y-138480266D01*
X141161638Y-138480266D02*
X141209257Y-138385028D01*
X141209257Y-138385028D02*
X141256876Y-138337409D01*
X141256876Y-138337409D02*
X141352114Y-138289790D01*
X141352114Y-138289790D02*
X141590209Y-138289790D01*
X141590209Y-138289790D02*
X141733066Y-138337409D01*
X142066400Y-138289790D02*
X142304495Y-139289790D01*
X142304495Y-139289790D02*
X142494971Y-138575504D01*
X142494971Y-138575504D02*
X142685447Y-139289790D01*
X142685447Y-139289790D02*
X142923543Y-138289790D01*
X143256876Y-138385028D02*
X143304495Y-138337409D01*
X143304495Y-138337409D02*
X143399733Y-138289790D01*
X143399733Y-138289790D02*
X143637828Y-138289790D01*
X143637828Y-138289790D02*
X143733066Y-138337409D01*
X143733066Y-138337409D02*
X143780685Y-138385028D01*
X143780685Y-138385028D02*
X143828304Y-138480266D01*
X143828304Y-138480266D02*
X143828304Y-138575504D01*
X143828304Y-138575504D02*
X143780685Y-138718361D01*
X143780685Y-138718361D02*
X143209257Y-139289790D01*
X143209257Y-139289790D02*
X143828304Y-139289790D01*
X137780685Y-151289790D02*
X137780685Y-150289790D01*
X138256875Y-151289790D02*
X138256875Y-150289790D01*
X138256875Y-150289790D02*
X138590208Y-151004075D01*
X138590208Y-151004075D02*
X138923541Y-150289790D01*
X138923541Y-150289790D02*
X138923541Y-151289790D01*
X139399732Y-151289790D02*
X139399732Y-150289790D01*
X139399732Y-150289790D02*
X139637827Y-150289790D01*
X139637827Y-150289790D02*
X139780684Y-150337409D01*
X139780684Y-150337409D02*
X139875922Y-150432647D01*
X139875922Y-150432647D02*
X139923541Y-150527885D01*
X139923541Y-150527885D02*
X139971160Y-150718361D01*
X139971160Y-150718361D02*
X139971160Y-150861218D01*
X139971160Y-150861218D02*
X139923541Y-151051694D01*
X139923541Y-151051694D02*
X139875922Y-151146932D01*
X139875922Y-151146932D02*
X139780684Y-151242171D01*
X139780684Y-151242171D02*
X139637827Y-151289790D01*
X139637827Y-151289790D02*
X139399732Y-151289790D01*
X140161637Y-151385028D02*
X140923541Y-151385028D01*
X141733065Y-151289790D02*
X141399732Y-150813599D01*
X141161637Y-151289790D02*
X141161637Y-150289790D01*
X141161637Y-150289790D02*
X141542589Y-150289790D01*
X141542589Y-150289790D02*
X141637827Y-150337409D01*
X141637827Y-150337409D02*
X141685446Y-150385028D01*
X141685446Y-150385028D02*
X141733065Y-150480266D01*
X141733065Y-150480266D02*
X141733065Y-150623123D01*
X141733065Y-150623123D02*
X141685446Y-150718361D01*
X141685446Y-150718361D02*
X141637827Y-150765980D01*
X141637827Y-150765980D02*
X141542589Y-150813599D01*
X141542589Y-150813599D02*
X141161637Y-150813599D01*
X142161637Y-150765980D02*
X142494970Y-150765980D01*
X142637827Y-151289790D02*
X142161637Y-151289790D01*
X142161637Y-151289790D02*
X142161637Y-150289790D01*
X142161637Y-150289790D02*
X142637827Y-150289790D01*
X143018780Y-151242171D02*
X143161637Y-151289790D01*
X143161637Y-151289790D02*
X143399732Y-151289790D01*
X143399732Y-151289790D02*
X143494970Y-151242171D01*
X143494970Y-151242171D02*
X143542589Y-151194551D01*
X143542589Y-151194551D02*
X143590208Y-151099313D01*
X143590208Y-151099313D02*
X143590208Y-151004075D01*
X143590208Y-151004075D02*
X143542589Y-150908837D01*
X143542589Y-150908837D02*
X143494970Y-150861218D01*
X143494970Y-150861218D02*
X143399732Y-150813599D01*
X143399732Y-150813599D02*
X143209256Y-150765980D01*
X143209256Y-150765980D02*
X143114018Y-150718361D01*
X143114018Y-150718361D02*
X143066399Y-150670742D01*
X143066399Y-150670742D02*
X143018780Y-150575504D01*
X143018780Y-150575504D02*
X143018780Y-150480266D01*
X143018780Y-150480266D02*
X143066399Y-150385028D01*
X143066399Y-150385028D02*
X143114018Y-150337409D01*
X143114018Y-150337409D02*
X143209256Y-150289790D01*
X143209256Y-150289790D02*
X143447351Y-150289790D01*
X143447351Y-150289790D02*
X143590208Y-150337409D01*
X144018780Y-150765980D02*
X144352113Y-150765980D01*
X144494970Y-151289790D02*
X144018780Y-151289790D01*
X144018780Y-151289790D02*
X144018780Y-150289790D01*
X144018780Y-150289790D02*
X144494970Y-150289790D01*
X144780685Y-150289790D02*
X145352113Y-150289790D01*
X145066399Y-151289790D02*
X145066399Y-150289790D01*
X147328333Y-115294819D02*
X146995000Y-114818628D01*
X146756905Y-115294819D02*
X146756905Y-114294819D01*
X146756905Y-114294819D02*
X147137857Y-114294819D01*
X147137857Y-114294819D02*
X147233095Y-114342438D01*
X147233095Y-114342438D02*
X147280714Y-114390057D01*
X147280714Y-114390057D02*
X147328333Y-114485295D01*
X147328333Y-114485295D02*
X147328333Y-114628152D01*
X147328333Y-114628152D02*
X147280714Y-114723390D01*
X147280714Y-114723390D02*
X147233095Y-114771009D01*
X147233095Y-114771009D02*
X147137857Y-114818628D01*
X147137857Y-114818628D02*
X146756905Y-114818628D01*
X148185476Y-114628152D02*
X148185476Y-115294819D01*
X147947381Y-114247200D02*
X147709286Y-114961485D01*
X147709286Y-114961485D02*
X148328333Y-114961485D01*
X116673333Y-115294819D02*
X116340000Y-114818628D01*
X116101905Y-115294819D02*
X116101905Y-114294819D01*
X116101905Y-114294819D02*
X116482857Y-114294819D01*
X116482857Y-114294819D02*
X116578095Y-114342438D01*
X116578095Y-114342438D02*
X116625714Y-114390057D01*
X116625714Y-114390057D02*
X116673333Y-114485295D01*
X116673333Y-114485295D02*
X116673333Y-114628152D01*
X116673333Y-114628152D02*
X116625714Y-114723390D01*
X116625714Y-114723390D02*
X116578095Y-114771009D01*
X116578095Y-114771009D02*
X116482857Y-114818628D01*
X116482857Y-114818628D02*
X116101905Y-114818628D01*
X117625714Y-115294819D02*
X117054286Y-115294819D01*
X117340000Y-115294819D02*
X117340000Y-114294819D01*
X117340000Y-114294819D02*
X117244762Y-114437676D01*
X117244762Y-114437676D02*
X117149524Y-114532914D01*
X117149524Y-114532914D02*
X117054286Y-114580533D01*
X122661638Y-139242171D02*
X122804495Y-139289790D01*
X122804495Y-139289790D02*
X123042590Y-139289790D01*
X123042590Y-139289790D02*
X123137828Y-139242171D01*
X123137828Y-139242171D02*
X123185447Y-139194551D01*
X123185447Y-139194551D02*
X123233066Y-139099313D01*
X123233066Y-139099313D02*
X123233066Y-139004075D01*
X123233066Y-139004075D02*
X123185447Y-138908837D01*
X123185447Y-138908837D02*
X123137828Y-138861218D01*
X123137828Y-138861218D02*
X123042590Y-138813599D01*
X123042590Y-138813599D02*
X122852114Y-138765980D01*
X122852114Y-138765980D02*
X122756876Y-138718361D01*
X122756876Y-138718361D02*
X122709257Y-138670742D01*
X122709257Y-138670742D02*
X122661638Y-138575504D01*
X122661638Y-138575504D02*
X122661638Y-138480266D01*
X122661638Y-138480266D02*
X122709257Y-138385028D01*
X122709257Y-138385028D02*
X122756876Y-138337409D01*
X122756876Y-138337409D02*
X122852114Y-138289790D01*
X122852114Y-138289790D02*
X123090209Y-138289790D01*
X123090209Y-138289790D02*
X123233066Y-138337409D01*
X123566400Y-138289790D02*
X123804495Y-139289790D01*
X123804495Y-139289790D02*
X123994971Y-138575504D01*
X123994971Y-138575504D02*
X124185447Y-139289790D01*
X124185447Y-139289790D02*
X124423543Y-138289790D01*
X125328304Y-139289790D02*
X124756876Y-139289790D01*
X125042590Y-139289790D02*
X125042590Y-138289790D01*
X125042590Y-138289790D02*
X124947352Y-138432647D01*
X124947352Y-138432647D02*
X124852114Y-138527885D01*
X124852114Y-138527885D02*
X124756876Y-138575504D01*
X120242380Y-150631009D02*
X120385237Y-150678628D01*
X120385237Y-150678628D02*
X120432856Y-150726247D01*
X120432856Y-150726247D02*
X120480475Y-150821485D01*
X120480475Y-150821485D02*
X120480475Y-150964342D01*
X120480475Y-150964342D02*
X120432856Y-151059580D01*
X120432856Y-151059580D02*
X120385237Y-151107200D01*
X120385237Y-151107200D02*
X120289999Y-151154819D01*
X120289999Y-151154819D02*
X119909047Y-151154819D01*
X119909047Y-151154819D02*
X119909047Y-150154819D01*
X119909047Y-150154819D02*
X120242380Y-150154819D01*
X120242380Y-150154819D02*
X120337618Y-150202438D01*
X120337618Y-150202438D02*
X120385237Y-150250057D01*
X120385237Y-150250057D02*
X120432856Y-150345295D01*
X120432856Y-150345295D02*
X120432856Y-150440533D01*
X120432856Y-150440533D02*
X120385237Y-150535771D01*
X120385237Y-150535771D02*
X120337618Y-150583390D01*
X120337618Y-150583390D02*
X120242380Y-150631009D01*
X120242380Y-150631009D02*
X119909047Y-150631009D01*
X120861428Y-151107200D02*
X121004285Y-151154819D01*
X121004285Y-151154819D02*
X121242380Y-151154819D01*
X121242380Y-151154819D02*
X121337618Y-151107200D01*
X121337618Y-151107200D02*
X121385237Y-151059580D01*
X121385237Y-151059580D02*
X121432856Y-150964342D01*
X121432856Y-150964342D02*
X121432856Y-150869104D01*
X121432856Y-150869104D02*
X121385237Y-150773866D01*
X121385237Y-150773866D02*
X121337618Y-150726247D01*
X121337618Y-150726247D02*
X121242380Y-150678628D01*
X121242380Y-150678628D02*
X121051904Y-150631009D01*
X121051904Y-150631009D02*
X120956666Y-150583390D01*
X120956666Y-150583390D02*
X120909047Y-150535771D01*
X120909047Y-150535771D02*
X120861428Y-150440533D01*
X120861428Y-150440533D02*
X120861428Y-150345295D01*
X120861428Y-150345295D02*
X120909047Y-150250057D01*
X120909047Y-150250057D02*
X120956666Y-150202438D01*
X120956666Y-150202438D02*
X121051904Y-150154819D01*
X121051904Y-150154819D02*
X121289999Y-150154819D01*
X121289999Y-150154819D02*
X121432856Y-150202438D01*
X121861428Y-151154819D02*
X121861428Y-150154819D01*
X121861428Y-150154819D02*
X122242380Y-150154819D01*
X122242380Y-150154819D02*
X122337618Y-150202438D01*
X122337618Y-150202438D02*
X122385237Y-150250057D01*
X122385237Y-150250057D02*
X122432856Y-150345295D01*
X122432856Y-150345295D02*
X122432856Y-150488152D01*
X122432856Y-150488152D02*
X122385237Y-150583390D01*
X122385237Y-150583390D02*
X122337618Y-150631009D01*
X122337618Y-150631009D02*
X122242380Y-150678628D01*
X122242380Y-150678628D02*
X121861428Y-150678628D01*
X122861428Y-151154819D02*
X122861428Y-150154819D01*
X122861428Y-150154819D02*
X123099523Y-150154819D01*
X123099523Y-150154819D02*
X123242380Y-150202438D01*
X123242380Y-150202438D02*
X123337618Y-150297676D01*
X123337618Y-150297676D02*
X123385237Y-150392914D01*
X123385237Y-150392914D02*
X123432856Y-150583390D01*
X123432856Y-150583390D02*
X123432856Y-150726247D01*
X123432856Y-150726247D02*
X123385237Y-150916723D01*
X123385237Y-150916723D02*
X123337618Y-151011961D01*
X123337618Y-151011961D02*
X123242380Y-151107200D01*
X123242380Y-151107200D02*
X123099523Y-151154819D01*
X123099523Y-151154819D02*
X122861428Y-151154819D01*
X123623333Y-151250057D02*
X124385237Y-151250057D01*
X125194761Y-151154819D02*
X124861428Y-150678628D01*
X124623333Y-151154819D02*
X124623333Y-150154819D01*
X124623333Y-150154819D02*
X125004285Y-150154819D01*
X125004285Y-150154819D02*
X125099523Y-150202438D01*
X125099523Y-150202438D02*
X125147142Y-150250057D01*
X125147142Y-150250057D02*
X125194761Y-150345295D01*
X125194761Y-150345295D02*
X125194761Y-150488152D01*
X125194761Y-150488152D02*
X125147142Y-150583390D01*
X125147142Y-150583390D02*
X125099523Y-150631009D01*
X125099523Y-150631009D02*
X125004285Y-150678628D01*
X125004285Y-150678628D02*
X124623333Y-150678628D01*
X125623333Y-150631009D02*
X125956666Y-150631009D01*
X126099523Y-151154819D02*
X125623333Y-151154819D01*
X125623333Y-151154819D02*
X125623333Y-150154819D01*
X125623333Y-150154819D02*
X126099523Y-150154819D01*
X126480476Y-151107200D02*
X126623333Y-151154819D01*
X126623333Y-151154819D02*
X126861428Y-151154819D01*
X126861428Y-151154819D02*
X126956666Y-151107200D01*
X126956666Y-151107200D02*
X127004285Y-151059580D01*
X127004285Y-151059580D02*
X127051904Y-150964342D01*
X127051904Y-150964342D02*
X127051904Y-150869104D01*
X127051904Y-150869104D02*
X127004285Y-150773866D01*
X127004285Y-150773866D02*
X126956666Y-150726247D01*
X126956666Y-150726247D02*
X126861428Y-150678628D01*
X126861428Y-150678628D02*
X126670952Y-150631009D01*
X126670952Y-150631009D02*
X126575714Y-150583390D01*
X126575714Y-150583390D02*
X126528095Y-150535771D01*
X126528095Y-150535771D02*
X126480476Y-150440533D01*
X126480476Y-150440533D02*
X126480476Y-150345295D01*
X126480476Y-150345295D02*
X126528095Y-150250057D01*
X126528095Y-150250057D02*
X126575714Y-150202438D01*
X126575714Y-150202438D02*
X126670952Y-150154819D01*
X126670952Y-150154819D02*
X126909047Y-150154819D01*
X126909047Y-150154819D02*
X127051904Y-150202438D01*
X127480476Y-150631009D02*
X127813809Y-150631009D01*
X127956666Y-151154819D02*
X127480476Y-151154819D01*
X127480476Y-151154819D02*
X127480476Y-150154819D01*
X127480476Y-150154819D02*
X127956666Y-150154819D01*
X128242381Y-150154819D02*
X128813809Y-150154819D01*
X128528095Y-151154819D02*
X128528095Y-150154819D01*
X129373333Y-115294819D02*
X129040000Y-114818628D01*
X128801905Y-115294819D02*
X128801905Y-114294819D01*
X128801905Y-114294819D02*
X129182857Y-114294819D01*
X129182857Y-114294819D02*
X129278095Y-114342438D01*
X129278095Y-114342438D02*
X129325714Y-114390057D01*
X129325714Y-114390057D02*
X129373333Y-114485295D01*
X129373333Y-114485295D02*
X129373333Y-114628152D01*
X129373333Y-114628152D02*
X129325714Y-114723390D01*
X129325714Y-114723390D02*
X129278095Y-114771009D01*
X129278095Y-114771009D02*
X129182857Y-114818628D01*
X129182857Y-114818628D02*
X128801905Y-114818628D01*
X129754286Y-114390057D02*
X129801905Y-114342438D01*
X129801905Y-114342438D02*
X129897143Y-114294819D01*
X129897143Y-114294819D02*
X130135238Y-114294819D01*
X130135238Y-114294819D02*
X130230476Y-114342438D01*
X130230476Y-114342438D02*
X130278095Y-114390057D01*
X130278095Y-114390057D02*
X130325714Y-114485295D01*
X130325714Y-114485295D02*
X130325714Y-114580533D01*
X130325714Y-114580533D02*
X130278095Y-114723390D01*
X130278095Y-114723390D02*
X129706667Y-115294819D01*
X129706667Y-115294819D02*
X130325714Y-115294819D01*
X140201905Y-118414819D02*
X140201905Y-117414819D01*
X140201905Y-117414819D02*
X140440000Y-117414819D01*
X140440000Y-117414819D02*
X140582857Y-117462438D01*
X140582857Y-117462438D02*
X140678095Y-117557676D01*
X140678095Y-117557676D02*
X140725714Y-117652914D01*
X140725714Y-117652914D02*
X140773333Y-117843390D01*
X140773333Y-117843390D02*
X140773333Y-117986247D01*
X140773333Y-117986247D02*
X140725714Y-118176723D01*
X140725714Y-118176723D02*
X140678095Y-118271961D01*
X140678095Y-118271961D02*
X140582857Y-118367200D01*
X140582857Y-118367200D02*
X140440000Y-118414819D01*
X140440000Y-118414819D02*
X140201905Y-118414819D01*
X141154286Y-117510057D02*
X141201905Y-117462438D01*
X141201905Y-117462438D02*
X141297143Y-117414819D01*
X141297143Y-117414819D02*
X141535238Y-117414819D01*
X141535238Y-117414819D02*
X141630476Y-117462438D01*
X141630476Y-117462438D02*
X141678095Y-117510057D01*
X141678095Y-117510057D02*
X141725714Y-117605295D01*
X141725714Y-117605295D02*
X141725714Y-117700533D01*
X141725714Y-117700533D02*
X141678095Y-117843390D01*
X141678095Y-117843390D02*
X141106667Y-118414819D01*
X141106667Y-118414819D02*
X141725714Y-118414819D01*
X138130476Y-126334819D02*
X138130476Y-125334819D01*
X138606666Y-126334819D02*
X138606666Y-125334819D01*
X138606666Y-125334819D02*
X138939999Y-126049104D01*
X138939999Y-126049104D02*
X139273332Y-125334819D01*
X139273332Y-125334819D02*
X139273332Y-126334819D01*
X139749523Y-126334819D02*
X139749523Y-125334819D01*
X139749523Y-125334819D02*
X139987618Y-125334819D01*
X139987618Y-125334819D02*
X140130475Y-125382438D01*
X140130475Y-125382438D02*
X140225713Y-125477676D01*
X140225713Y-125477676D02*
X140273332Y-125572914D01*
X140273332Y-125572914D02*
X140320951Y-125763390D01*
X140320951Y-125763390D02*
X140320951Y-125906247D01*
X140320951Y-125906247D02*
X140273332Y-126096723D01*
X140273332Y-126096723D02*
X140225713Y-126191961D01*
X140225713Y-126191961D02*
X140130475Y-126287200D01*
X140130475Y-126287200D02*
X139987618Y-126334819D01*
X139987618Y-126334819D02*
X139749523Y-126334819D01*
X140511428Y-126430057D02*
X141273332Y-126430057D01*
X141987618Y-126334819D02*
X141511428Y-126334819D01*
X141511428Y-126334819D02*
X141511428Y-125334819D01*
X142320952Y-125811009D02*
X142654285Y-125811009D01*
X142797142Y-126334819D02*
X142320952Y-126334819D01*
X142320952Y-126334819D02*
X142320952Y-125334819D01*
X142320952Y-125334819D02*
X142797142Y-125334819D01*
X143225714Y-126334819D02*
X143225714Y-125334819D01*
X143225714Y-125334819D02*
X143463809Y-125334819D01*
X143463809Y-125334819D02*
X143606666Y-125382438D01*
X143606666Y-125382438D02*
X143701904Y-125477676D01*
X143701904Y-125477676D02*
X143749523Y-125572914D01*
X143749523Y-125572914D02*
X143797142Y-125763390D01*
X143797142Y-125763390D02*
X143797142Y-125906247D01*
X143797142Y-125906247D02*
X143749523Y-126096723D01*
X143749523Y-126096723D02*
X143701904Y-126191961D01*
X143701904Y-126191961D02*
X143606666Y-126287200D01*
X143606666Y-126287200D02*
X143463809Y-126334819D01*
X143463809Y-126334819D02*
X143225714Y-126334819D01*
X165108333Y-115294819D02*
X164775000Y-114818628D01*
X164536905Y-115294819D02*
X164536905Y-114294819D01*
X164536905Y-114294819D02*
X164917857Y-114294819D01*
X164917857Y-114294819D02*
X165013095Y-114342438D01*
X165013095Y-114342438D02*
X165060714Y-114390057D01*
X165060714Y-114390057D02*
X165108333Y-114485295D01*
X165108333Y-114485295D02*
X165108333Y-114628152D01*
X165108333Y-114628152D02*
X165060714Y-114723390D01*
X165060714Y-114723390D02*
X165013095Y-114771009D01*
X165013095Y-114771009D02*
X164917857Y-114818628D01*
X164917857Y-114818628D02*
X164536905Y-114818628D01*
X165965476Y-114294819D02*
X165775000Y-114294819D01*
X165775000Y-114294819D02*
X165679762Y-114342438D01*
X165679762Y-114342438D02*
X165632143Y-114390057D01*
X165632143Y-114390057D02*
X165536905Y-114532914D01*
X165536905Y-114532914D02*
X165489286Y-114723390D01*
X165489286Y-114723390D02*
X165489286Y-115104342D01*
X165489286Y-115104342D02*
X165536905Y-115199580D01*
X165536905Y-115199580D02*
X165584524Y-115247200D01*
X165584524Y-115247200D02*
X165679762Y-115294819D01*
X165679762Y-115294819D02*
X165870238Y-115294819D01*
X165870238Y-115294819D02*
X165965476Y-115247200D01*
X165965476Y-115247200D02*
X166013095Y-115199580D01*
X166013095Y-115199580D02*
X166060714Y-115104342D01*
X166060714Y-115104342D02*
X166060714Y-114866247D01*
X166060714Y-114866247D02*
X166013095Y-114771009D01*
X166013095Y-114771009D02*
X165965476Y-114723390D01*
X165965476Y-114723390D02*
X165870238Y-114675771D01*
X165870238Y-114675771D02*
X165679762Y-114675771D01*
X165679762Y-114675771D02*
X165584524Y-114723390D01*
X165584524Y-114723390D02*
X165536905Y-114771009D01*
X165536905Y-114771009D02*
X165489286Y-114866247D01*
X157582955Y-139163488D02*
X157725812Y-139211107D01*
X157725812Y-139211107D02*
X157963907Y-139211107D01*
X157963907Y-139211107D02*
X158059145Y-139163488D01*
X158059145Y-139163488D02*
X158106764Y-139115868D01*
X158106764Y-139115868D02*
X158154383Y-139020630D01*
X158154383Y-139020630D02*
X158154383Y-138925392D01*
X158154383Y-138925392D02*
X158106764Y-138830154D01*
X158106764Y-138830154D02*
X158059145Y-138782535D01*
X158059145Y-138782535D02*
X157963907Y-138734916D01*
X157963907Y-138734916D02*
X157773431Y-138687297D01*
X157773431Y-138687297D02*
X157678193Y-138639678D01*
X157678193Y-138639678D02*
X157630574Y-138592059D01*
X157630574Y-138592059D02*
X157582955Y-138496821D01*
X157582955Y-138496821D02*
X157582955Y-138401583D01*
X157582955Y-138401583D02*
X157630574Y-138306345D01*
X157630574Y-138306345D02*
X157678193Y-138258726D01*
X157678193Y-138258726D02*
X157773431Y-138211107D01*
X157773431Y-138211107D02*
X158011526Y-138211107D01*
X158011526Y-138211107D02*
X158154383Y-138258726D01*
X158487717Y-138211107D02*
X158725812Y-139211107D01*
X158725812Y-139211107D02*
X158916288Y-138496821D01*
X158916288Y-138496821D02*
X159106764Y-139211107D01*
X159106764Y-139211107D02*
X159344860Y-138211107D01*
X159630574Y-138211107D02*
X160249621Y-138211107D01*
X160249621Y-138211107D02*
X159916288Y-138592059D01*
X159916288Y-138592059D02*
X160059145Y-138592059D01*
X160059145Y-138592059D02*
X160154383Y-138639678D01*
X160154383Y-138639678D02*
X160202002Y-138687297D01*
X160202002Y-138687297D02*
X160249621Y-138782535D01*
X160249621Y-138782535D02*
X160249621Y-139020630D01*
X160249621Y-139020630D02*
X160202002Y-139115868D01*
X160202002Y-139115868D02*
X160154383Y-139163488D01*
X160154383Y-139163488D02*
X160059145Y-139211107D01*
X160059145Y-139211107D02*
X159773431Y-139211107D01*
X159773431Y-139211107D02*
X159678193Y-139163488D01*
X159678193Y-139163488D02*
X159630574Y-139115868D01*
X154880952Y-150581009D02*
X155023809Y-150628628D01*
X155023809Y-150628628D02*
X155071428Y-150676247D01*
X155071428Y-150676247D02*
X155119047Y-150771485D01*
X155119047Y-150771485D02*
X155119047Y-150914342D01*
X155119047Y-150914342D02*
X155071428Y-151009580D01*
X155071428Y-151009580D02*
X155023809Y-151057200D01*
X155023809Y-151057200D02*
X154928571Y-151104819D01*
X154928571Y-151104819D02*
X154547619Y-151104819D01*
X154547619Y-151104819D02*
X154547619Y-150104819D01*
X154547619Y-150104819D02*
X154880952Y-150104819D01*
X154880952Y-150104819D02*
X154976190Y-150152438D01*
X154976190Y-150152438D02*
X155023809Y-150200057D01*
X155023809Y-150200057D02*
X155071428Y-150295295D01*
X155071428Y-150295295D02*
X155071428Y-150390533D01*
X155071428Y-150390533D02*
X155023809Y-150485771D01*
X155023809Y-150485771D02*
X154976190Y-150533390D01*
X154976190Y-150533390D02*
X154880952Y-150581009D01*
X154880952Y-150581009D02*
X154547619Y-150581009D01*
X155547619Y-151104819D02*
X155547619Y-150104819D01*
X155547619Y-150104819D02*
X155880952Y-150819104D01*
X155880952Y-150819104D02*
X156214285Y-150104819D01*
X156214285Y-150104819D02*
X156214285Y-151104819D01*
X156642857Y-151057200D02*
X156785714Y-151104819D01*
X156785714Y-151104819D02*
X157023809Y-151104819D01*
X157023809Y-151104819D02*
X157119047Y-151057200D01*
X157119047Y-151057200D02*
X157166666Y-151009580D01*
X157166666Y-151009580D02*
X157214285Y-150914342D01*
X157214285Y-150914342D02*
X157214285Y-150819104D01*
X157214285Y-150819104D02*
X157166666Y-150723866D01*
X157166666Y-150723866D02*
X157119047Y-150676247D01*
X157119047Y-150676247D02*
X157023809Y-150628628D01*
X157023809Y-150628628D02*
X156833333Y-150581009D01*
X156833333Y-150581009D02*
X156738095Y-150533390D01*
X156738095Y-150533390D02*
X156690476Y-150485771D01*
X156690476Y-150485771D02*
X156642857Y-150390533D01*
X156642857Y-150390533D02*
X156642857Y-150295295D01*
X156642857Y-150295295D02*
X156690476Y-150200057D01*
X156690476Y-150200057D02*
X156738095Y-150152438D01*
X156738095Y-150152438D02*
X156833333Y-150104819D01*
X156833333Y-150104819D02*
X157071428Y-150104819D01*
X157071428Y-150104819D02*
X157214285Y-150152438D01*
X157404762Y-151200057D02*
X158166666Y-151200057D01*
X158976190Y-151104819D02*
X158642857Y-150628628D01*
X158404762Y-151104819D02*
X158404762Y-150104819D01*
X158404762Y-150104819D02*
X158785714Y-150104819D01*
X158785714Y-150104819D02*
X158880952Y-150152438D01*
X158880952Y-150152438D02*
X158928571Y-150200057D01*
X158928571Y-150200057D02*
X158976190Y-150295295D01*
X158976190Y-150295295D02*
X158976190Y-150438152D01*
X158976190Y-150438152D02*
X158928571Y-150533390D01*
X158928571Y-150533390D02*
X158880952Y-150581009D01*
X158880952Y-150581009D02*
X158785714Y-150628628D01*
X158785714Y-150628628D02*
X158404762Y-150628628D01*
X159404762Y-150581009D02*
X159738095Y-150581009D01*
X159880952Y-151104819D02*
X159404762Y-151104819D01*
X159404762Y-151104819D02*
X159404762Y-150104819D01*
X159404762Y-150104819D02*
X159880952Y-150104819D01*
X160261905Y-151057200D02*
X160404762Y-151104819D01*
X160404762Y-151104819D02*
X160642857Y-151104819D01*
X160642857Y-151104819D02*
X160738095Y-151057200D01*
X160738095Y-151057200D02*
X160785714Y-151009580D01*
X160785714Y-151009580D02*
X160833333Y-150914342D01*
X160833333Y-150914342D02*
X160833333Y-150819104D01*
X160833333Y-150819104D02*
X160785714Y-150723866D01*
X160785714Y-150723866D02*
X160738095Y-150676247D01*
X160738095Y-150676247D02*
X160642857Y-150628628D01*
X160642857Y-150628628D02*
X160452381Y-150581009D01*
X160452381Y-150581009D02*
X160357143Y-150533390D01*
X160357143Y-150533390D02*
X160309524Y-150485771D01*
X160309524Y-150485771D02*
X160261905Y-150390533D01*
X160261905Y-150390533D02*
X160261905Y-150295295D01*
X160261905Y-150295295D02*
X160309524Y-150200057D01*
X160309524Y-150200057D02*
X160357143Y-150152438D01*
X160357143Y-150152438D02*
X160452381Y-150104819D01*
X160452381Y-150104819D02*
X160690476Y-150104819D01*
X160690476Y-150104819D02*
X160833333Y-150152438D01*
X161261905Y-150581009D02*
X161595238Y-150581009D01*
X161738095Y-151104819D02*
X161261905Y-151104819D01*
X161261905Y-151104819D02*
X161261905Y-150104819D01*
X161261905Y-150104819D02*
X161738095Y-150104819D01*
X162023810Y-150104819D02*
X162595238Y-150104819D01*
X162309524Y-151104819D02*
X162309524Y-150104819D01*
X157681905Y-118374819D02*
X157681905Y-117374819D01*
X157681905Y-117374819D02*
X157920000Y-117374819D01*
X157920000Y-117374819D02*
X158062857Y-117422438D01*
X158062857Y-117422438D02*
X158158095Y-117517676D01*
X158158095Y-117517676D02*
X158205714Y-117612914D01*
X158205714Y-117612914D02*
X158253333Y-117803390D01*
X158253333Y-117803390D02*
X158253333Y-117946247D01*
X158253333Y-117946247D02*
X158205714Y-118136723D01*
X158205714Y-118136723D02*
X158158095Y-118231961D01*
X158158095Y-118231961D02*
X158062857Y-118327200D01*
X158062857Y-118327200D02*
X157920000Y-118374819D01*
X157920000Y-118374819D02*
X157681905Y-118374819D01*
X158586667Y-117374819D02*
X159205714Y-117374819D01*
X159205714Y-117374819D02*
X158872381Y-117755771D01*
X158872381Y-117755771D02*
X159015238Y-117755771D01*
X159015238Y-117755771D02*
X159110476Y-117803390D01*
X159110476Y-117803390D02*
X159158095Y-117851009D01*
X159158095Y-117851009D02*
X159205714Y-117946247D01*
X159205714Y-117946247D02*
X159205714Y-118184342D01*
X159205714Y-118184342D02*
X159158095Y-118279580D01*
X159158095Y-118279580D02*
X159110476Y-118327200D01*
X159110476Y-118327200D02*
X159015238Y-118374819D01*
X159015238Y-118374819D02*
X158729524Y-118374819D01*
X158729524Y-118374819D02*
X158634286Y-118327200D01*
X158634286Y-118327200D02*
X158586667Y-118279580D01*
X155975714Y-125811009D02*
X156118571Y-125858628D01*
X156118571Y-125858628D02*
X156166190Y-125906247D01*
X156166190Y-125906247D02*
X156213809Y-126001485D01*
X156213809Y-126001485D02*
X156213809Y-126144342D01*
X156213809Y-126144342D02*
X156166190Y-126239580D01*
X156166190Y-126239580D02*
X156118571Y-126287200D01*
X156118571Y-126287200D02*
X156023333Y-126334819D01*
X156023333Y-126334819D02*
X155642381Y-126334819D01*
X155642381Y-126334819D02*
X155642381Y-125334819D01*
X155642381Y-125334819D02*
X155975714Y-125334819D01*
X155975714Y-125334819D02*
X156070952Y-125382438D01*
X156070952Y-125382438D02*
X156118571Y-125430057D01*
X156118571Y-125430057D02*
X156166190Y-125525295D01*
X156166190Y-125525295D02*
X156166190Y-125620533D01*
X156166190Y-125620533D02*
X156118571Y-125715771D01*
X156118571Y-125715771D02*
X156070952Y-125763390D01*
X156070952Y-125763390D02*
X155975714Y-125811009D01*
X155975714Y-125811009D02*
X155642381Y-125811009D01*
X156642381Y-126334819D02*
X156642381Y-125334819D01*
X156642381Y-125334819D02*
X156975714Y-126049104D01*
X156975714Y-126049104D02*
X157309047Y-125334819D01*
X157309047Y-125334819D02*
X157309047Y-126334819D01*
X157737619Y-126287200D02*
X157880476Y-126334819D01*
X157880476Y-126334819D02*
X158118571Y-126334819D01*
X158118571Y-126334819D02*
X158213809Y-126287200D01*
X158213809Y-126287200D02*
X158261428Y-126239580D01*
X158261428Y-126239580D02*
X158309047Y-126144342D01*
X158309047Y-126144342D02*
X158309047Y-126049104D01*
X158309047Y-126049104D02*
X158261428Y-125953866D01*
X158261428Y-125953866D02*
X158213809Y-125906247D01*
X158213809Y-125906247D02*
X158118571Y-125858628D01*
X158118571Y-125858628D02*
X157928095Y-125811009D01*
X157928095Y-125811009D02*
X157832857Y-125763390D01*
X157832857Y-125763390D02*
X157785238Y-125715771D01*
X157785238Y-125715771D02*
X157737619Y-125620533D01*
X157737619Y-125620533D02*
X157737619Y-125525295D01*
X157737619Y-125525295D02*
X157785238Y-125430057D01*
X157785238Y-125430057D02*
X157832857Y-125382438D01*
X157832857Y-125382438D02*
X157928095Y-125334819D01*
X157928095Y-125334819D02*
X158166190Y-125334819D01*
X158166190Y-125334819D02*
X158309047Y-125382438D01*
X158499524Y-126430057D02*
X159261428Y-126430057D01*
X159975714Y-126334819D02*
X159499524Y-126334819D01*
X159499524Y-126334819D02*
X159499524Y-125334819D01*
X160309048Y-125811009D02*
X160642381Y-125811009D01*
X160785238Y-126334819D02*
X160309048Y-126334819D01*
X160309048Y-126334819D02*
X160309048Y-125334819D01*
X160309048Y-125334819D02*
X160785238Y-125334819D01*
X161213810Y-126334819D02*
X161213810Y-125334819D01*
X161213810Y-125334819D02*
X161451905Y-125334819D01*
X161451905Y-125334819D02*
X161594762Y-125382438D01*
X161594762Y-125382438D02*
X161690000Y-125477676D01*
X161690000Y-125477676D02*
X161737619Y-125572914D01*
X161737619Y-125572914D02*
X161785238Y-125763390D01*
X161785238Y-125763390D02*
X161785238Y-125906247D01*
X161785238Y-125906247D02*
X161737619Y-126096723D01*
X161737619Y-126096723D02*
X161690000Y-126191961D01*
X161690000Y-126191961D02*
X161594762Y-126287200D01*
X161594762Y-126287200D02*
X161451905Y-126334819D01*
X161451905Y-126334819D02*
X161213810Y-126334819D01*
X122451905Y-118414819D02*
X122451905Y-117414819D01*
X122451905Y-117414819D02*
X122690000Y-117414819D01*
X122690000Y-117414819D02*
X122832857Y-117462438D01*
X122832857Y-117462438D02*
X122928095Y-117557676D01*
X122928095Y-117557676D02*
X122975714Y-117652914D01*
X122975714Y-117652914D02*
X123023333Y-117843390D01*
X123023333Y-117843390D02*
X123023333Y-117986247D01*
X123023333Y-117986247D02*
X122975714Y-118176723D01*
X122975714Y-118176723D02*
X122928095Y-118271961D01*
X122928095Y-118271961D02*
X122832857Y-118367200D01*
X122832857Y-118367200D02*
X122690000Y-118414819D01*
X122690000Y-118414819D02*
X122451905Y-118414819D01*
X123975714Y-118414819D02*
X123404286Y-118414819D01*
X123690000Y-118414819D02*
X123690000Y-117414819D01*
X123690000Y-117414819D02*
X123594762Y-117557676D01*
X123594762Y-117557676D02*
X123499524Y-117652914D01*
X123499524Y-117652914D02*
X123404286Y-117700533D01*
X120047142Y-125811009D02*
X120189999Y-125858628D01*
X120189999Y-125858628D02*
X120237618Y-125906247D01*
X120237618Y-125906247D02*
X120285237Y-126001485D01*
X120285237Y-126001485D02*
X120285237Y-126144342D01*
X120285237Y-126144342D02*
X120237618Y-126239580D01*
X120237618Y-126239580D02*
X120189999Y-126287200D01*
X120189999Y-126287200D02*
X120094761Y-126334819D01*
X120094761Y-126334819D02*
X119713809Y-126334819D01*
X119713809Y-126334819D02*
X119713809Y-125334819D01*
X119713809Y-125334819D02*
X120047142Y-125334819D01*
X120047142Y-125334819D02*
X120142380Y-125382438D01*
X120142380Y-125382438D02*
X120189999Y-125430057D01*
X120189999Y-125430057D02*
X120237618Y-125525295D01*
X120237618Y-125525295D02*
X120237618Y-125620533D01*
X120237618Y-125620533D02*
X120189999Y-125715771D01*
X120189999Y-125715771D02*
X120142380Y-125763390D01*
X120142380Y-125763390D02*
X120047142Y-125811009D01*
X120047142Y-125811009D02*
X119713809Y-125811009D01*
X120666190Y-126287200D02*
X120809047Y-126334819D01*
X120809047Y-126334819D02*
X121047142Y-126334819D01*
X121047142Y-126334819D02*
X121142380Y-126287200D01*
X121142380Y-126287200D02*
X121189999Y-126239580D01*
X121189999Y-126239580D02*
X121237618Y-126144342D01*
X121237618Y-126144342D02*
X121237618Y-126049104D01*
X121237618Y-126049104D02*
X121189999Y-125953866D01*
X121189999Y-125953866D02*
X121142380Y-125906247D01*
X121142380Y-125906247D02*
X121047142Y-125858628D01*
X121047142Y-125858628D02*
X120856666Y-125811009D01*
X120856666Y-125811009D02*
X120761428Y-125763390D01*
X120761428Y-125763390D02*
X120713809Y-125715771D01*
X120713809Y-125715771D02*
X120666190Y-125620533D01*
X120666190Y-125620533D02*
X120666190Y-125525295D01*
X120666190Y-125525295D02*
X120713809Y-125430057D01*
X120713809Y-125430057D02*
X120761428Y-125382438D01*
X120761428Y-125382438D02*
X120856666Y-125334819D01*
X120856666Y-125334819D02*
X121094761Y-125334819D01*
X121094761Y-125334819D02*
X121237618Y-125382438D01*
X121666190Y-126334819D02*
X121666190Y-125334819D01*
X121666190Y-125334819D02*
X122047142Y-125334819D01*
X122047142Y-125334819D02*
X122142380Y-125382438D01*
X122142380Y-125382438D02*
X122189999Y-125430057D01*
X122189999Y-125430057D02*
X122237618Y-125525295D01*
X122237618Y-125525295D02*
X122237618Y-125668152D01*
X122237618Y-125668152D02*
X122189999Y-125763390D01*
X122189999Y-125763390D02*
X122142380Y-125811009D01*
X122142380Y-125811009D02*
X122047142Y-125858628D01*
X122047142Y-125858628D02*
X121666190Y-125858628D01*
X122666190Y-126334819D02*
X122666190Y-125334819D01*
X122666190Y-125334819D02*
X122904285Y-125334819D01*
X122904285Y-125334819D02*
X123047142Y-125382438D01*
X123047142Y-125382438D02*
X123142380Y-125477676D01*
X123142380Y-125477676D02*
X123189999Y-125572914D01*
X123189999Y-125572914D02*
X123237618Y-125763390D01*
X123237618Y-125763390D02*
X123237618Y-125906247D01*
X123237618Y-125906247D02*
X123189999Y-126096723D01*
X123189999Y-126096723D02*
X123142380Y-126191961D01*
X123142380Y-126191961D02*
X123047142Y-126287200D01*
X123047142Y-126287200D02*
X122904285Y-126334819D01*
X122904285Y-126334819D02*
X122666190Y-126334819D01*
X123428095Y-126430057D02*
X124189999Y-126430057D01*
X124904285Y-126334819D02*
X124428095Y-126334819D01*
X124428095Y-126334819D02*
X124428095Y-125334819D01*
X125237619Y-125811009D02*
X125570952Y-125811009D01*
X125713809Y-126334819D02*
X125237619Y-126334819D01*
X125237619Y-126334819D02*
X125237619Y-125334819D01*
X125237619Y-125334819D02*
X125713809Y-125334819D01*
X126142381Y-126334819D02*
X126142381Y-125334819D01*
X126142381Y-125334819D02*
X126380476Y-125334819D01*
X126380476Y-125334819D02*
X126523333Y-125382438D01*
X126523333Y-125382438D02*
X126618571Y-125477676D01*
X126618571Y-125477676D02*
X126666190Y-125572914D01*
X126666190Y-125572914D02*
X126713809Y-125763390D01*
X126713809Y-125763390D02*
X126713809Y-125906247D01*
X126713809Y-125906247D02*
X126666190Y-126096723D01*
X126666190Y-126096723D02*
X126618571Y-126191961D01*
X126618571Y-126191961D02*
X126523333Y-126287200D01*
X126523333Y-126287200D02*
X126380476Y-126334819D01*
X126380476Y-126334819D02*
X126142381Y-126334819D01*
X134628333Y-115294819D02*
X134295000Y-114818628D01*
X134056905Y-115294819D02*
X134056905Y-114294819D01*
X134056905Y-114294819D02*
X134437857Y-114294819D01*
X134437857Y-114294819D02*
X134533095Y-114342438D01*
X134533095Y-114342438D02*
X134580714Y-114390057D01*
X134580714Y-114390057D02*
X134628333Y-114485295D01*
X134628333Y-114485295D02*
X134628333Y-114628152D01*
X134628333Y-114628152D02*
X134580714Y-114723390D01*
X134580714Y-114723390D02*
X134533095Y-114771009D01*
X134533095Y-114771009D02*
X134437857Y-114818628D01*
X134437857Y-114818628D02*
X134056905Y-114818628D01*
X134961667Y-114294819D02*
X135580714Y-114294819D01*
X135580714Y-114294819D02*
X135247381Y-114675771D01*
X135247381Y-114675771D02*
X135390238Y-114675771D01*
X135390238Y-114675771D02*
X135485476Y-114723390D01*
X135485476Y-114723390D02*
X135533095Y-114771009D01*
X135533095Y-114771009D02*
X135580714Y-114866247D01*
X135580714Y-114866247D02*
X135580714Y-115104342D01*
X135580714Y-115104342D02*
X135533095Y-115199580D01*
X135533095Y-115199580D02*
X135485476Y-115247200D01*
X135485476Y-115247200D02*
X135390238Y-115294819D01*
X135390238Y-115294819D02*
X135104524Y-115294819D01*
X135104524Y-115294819D02*
X135009286Y-115247200D01*
X135009286Y-115247200D02*
X134961667Y-115199580D01*
D12*
%TO.C,R5*%
X152400000Y-117880000D02*
X152400000Y-118650000D01*
X152400000Y-125960000D02*
X152400000Y-125190000D01*
X151030000Y-125190000D02*
X153770000Y-125190000D01*
X153770000Y-118650000D01*
X151030000Y-118650000D01*
X151030000Y-125190000D01*
%TO.C,SW2*%
X138000000Y-142650000D02*
X138000000Y-147150000D01*
X140500000Y-148400000D02*
X142000000Y-148400000D01*
X142000000Y-141400000D02*
X140500000Y-141400000D01*
X144500000Y-147150000D02*
X144500000Y-142650000D01*
%TO.C,R4*%
X147320000Y-117880000D02*
X147320000Y-118650000D01*
X147320000Y-125960000D02*
X147320000Y-125190000D01*
X145950000Y-125190000D02*
X148690000Y-125190000D01*
X148690000Y-118650000D01*
X145950000Y-118650000D01*
X145950000Y-125190000D01*
%TO.C,R1*%
X116840000Y-117880000D02*
X116840000Y-118650000D01*
X116840000Y-125960000D02*
X116840000Y-125190000D01*
X118210000Y-118650000D02*
X115470000Y-118650000D01*
X115470000Y-125190000D01*
X118210000Y-125190000D01*
X118210000Y-118650000D01*
%TO.C,SW1*%
X120500000Y-142650000D02*
X120500000Y-147150000D01*
X123000000Y-148400000D02*
X124500000Y-148400000D01*
X124500000Y-141400000D02*
X123000000Y-141400000D01*
X127000000Y-147150000D02*
X127000000Y-142650000D01*
%TO.C,R2*%
X129540000Y-117880000D02*
X129540000Y-118650000D01*
X129540000Y-125960000D02*
X129540000Y-125190000D01*
X128170000Y-125190000D02*
X130910000Y-125190000D01*
X130910000Y-118650000D01*
X128170000Y-118650000D01*
X128170000Y-125190000D01*
%TO.C,D2*%
X138380000Y-120375000D02*
X138380000Y-123465000D01*
X138380000Y-120375170D02*
G75*
G02*
X143930000Y-121920000I2560000J-1544830D01*
G01*
X143930000Y-121920000D02*
G75*
G02*
X138380000Y-123464830I-2990000J0D01*
G01*
X143440000Y-121920000D02*
G75*
G02*
X138440000Y-121920000I-2500000J0D01*
G01*
X138440000Y-121920000D02*
G75*
G02*
X143440000Y-121920000I2500000J0D01*
G01*
%TO.C,R6*%
X165100000Y-117880000D02*
X165100000Y-118650000D01*
X165100000Y-125960000D02*
X165100000Y-125190000D01*
X166470000Y-118650000D02*
X163730000Y-118650000D01*
X163730000Y-125190000D01*
X166470000Y-125190000D01*
X166470000Y-118650000D01*
%TO.C,SW3*%
X155500000Y-142650000D02*
X155500000Y-147150000D01*
X158000000Y-148400000D02*
X159500000Y-148400000D01*
X159500000Y-141400000D02*
X158000000Y-141400000D01*
X162000000Y-147150000D02*
X162000000Y-142650000D01*
%TO.C,D3*%
X156130000Y-120375000D02*
X156130000Y-123465000D01*
X156130000Y-120375170D02*
G75*
G02*
X161680000Y-121920000I2560000J-1544830D01*
G01*
X161680000Y-121920000D02*
G75*
G02*
X156130000Y-123464830I-2990000J0D01*
G01*
X161190000Y-121920000D02*
G75*
G02*
X156190000Y-121920000I-2500000J0D01*
G01*
X156190000Y-121920000D02*
G75*
G02*
X161190000Y-121920000I2500000J0D01*
G01*
%TO.C,D1*%
X120630000Y-120375000D02*
X120630000Y-123465000D01*
X120630000Y-120375170D02*
G75*
G02*
X126180000Y-121920000I2560000J-1544830D01*
G01*
X126180000Y-121920000D02*
G75*
G02*
X120630000Y-123464830I-2990000J0D01*
G01*
X125690000Y-121920000D02*
G75*
G02*
X120690000Y-121920000I-2500000J0D01*
G01*
X120690000Y-121920000D02*
G75*
G02*
X125690000Y-121920000I2500000J0D01*
G01*
%TO.C,R3*%
X134620000Y-117880000D02*
X134620000Y-118650000D01*
X134620000Y-125960000D02*
X134620000Y-125190000D01*
X135990000Y-118650000D02*
X133250000Y-118650000D01*
X133250000Y-125190000D01*
X135990000Y-125190000D01*
X135990000Y-118650000D01*
%TD*%
M02*
