M48
; DRILL file {KiCad 9.0.5} date 2026-02-28T00:58:36-0800
; FORMAT={-:-/ absolute / metric / decimal}
; #@! TF.CreationDate,2026-02-28T00:58:36-08:00
; #@! TF.GenerationSoftware,Kicad,Pcbnew,9.0.5
; #@! TF.FileFunction,Plated,1,2,PTH
FMAT,2
METRIC
; #@! TA.AperFunction,Plated,PTH,ComponentDrill
T1C0.800
; #@! TA.AperFunction,Plated,PTH,ComponentDrill
T2C0.900
; #@! TA.AperFunction,Plated,PTH,ComponentDrill
T3C1.100
; #@! TA.AperFunction,Plated,PTH,ComponentDrill
T4C1.400
; #@! TA.AperFunction,Plated,PTH,ComponentDrill
T5C1.900
%
G90
G05
T1
X116.84Y-116.84
X116.84Y-127.0
X129.54Y-116.84
X129.54Y-127.0
X134.62Y-116.84
X134.62Y-127.0
X147.32Y-116.84
X147.32Y-127.0
X152.4Y-116.84
X152.4Y-127.0
X165.1Y-116.84
X165.1Y-127.0
T2
X121.92Y-121.92
X124.46Y-121.92
X139.67Y-121.92
X142.21Y-121.92
X157.42Y-121.92
X159.96Y-121.92
T3
X121.5Y-136.0
X121.5Y-142.5
X126.0Y-136.0
X126.0Y-142.5
X139.0Y-136.0
X139.0Y-142.5
X143.5Y-136.0
X143.5Y-142.5
X156.5Y-136.0
X156.5Y-142.5
X161.0Y-136.0
X161.0Y-142.5
T4
X120.26Y-101.6
X120.26Y-107.1
X124.46Y-101.6
X124.46Y-107.1
X128.66Y-101.6
X128.66Y-107.1
X150.74Y-101.6
X150.74Y-107.1
X154.94Y-101.6
X154.94Y-107.1
X159.14Y-101.6
X159.14Y-107.1
T5
X139.6Y-104.8
M30
