%TF.GenerationSoftware,KiCad,Pcbnew,9.0.5*%
%TF.CreationDate,2026-02-28T09:23:41-08:00*%
%TF.ProjectId,Hi_board_bbc1,48695f62-6f61-4726-945f-626263312e6b,rev?*%
%TF.SameCoordinates,Original*%
%TF.FileFunction,Profile,NP*%
%FSLAX46Y46*%
G04 Gerber Fmt 4.6, Leading zero omitted, Abs format (unit mm)*
G04 Created by KiCad (PCBNEW 9.0.5) date 2026-02-28 09:23:41*
%MOMM*%
%LPD*%
G01*
G04 APERTURE LIST*
%TA.AperFunction,Profile*%
%ADD10C,0.050000*%
%TD*%
%TA.AperFunction,Profile*%
%ADD11C,0.100000*%
%TD*%
G04 APERTURE END LIST*
D10*
X168450000Y-134850000D02*
X168450000Y-129200000D01*
D11*
X166590000Y-131300000D02*
G75*
G02*
X163290000Y-131300000I-1650000J0D01*
G01*
X163290000Y-131300000D02*
G75*
G02*
X166590000Y-131300000I1650000J0D01*
G01*
X118650000Y-131300000D02*
G75*
G02*
X115350000Y-131300000I-1650000J0D01*
G01*
X115350000Y-131300000D02*
G75*
G02*
X118650000Y-131300000I1650000J0D01*
G01*
D10*
X150050000Y-134850000D02*
X153050000Y-134850000D01*
X153050000Y-137350000D01*
X150050000Y-137350000D01*
X150050000Y-134850000D01*
X167500000Y-137350000D02*
X168450000Y-137350000D01*
X136500000Y-134850000D02*
X139500000Y-134850000D01*
X139500000Y-137350000D01*
X136500000Y-137350000D01*
X136500000Y-134850000D01*
X158000000Y-134850000D02*
X161000000Y-134850000D01*
X161000000Y-137350000D01*
X158000000Y-137350000D01*
X158000000Y-134850000D01*
X154000000Y-134850000D02*
X157000000Y-134850000D01*
X157000000Y-137350000D01*
X154000000Y-137350000D01*
X154000000Y-134850000D01*
X140500000Y-134850000D02*
X143500000Y-134850000D01*
X143500000Y-137350000D01*
X140500000Y-137350000D01*
X140500000Y-134850000D01*
X122500000Y-134850000D02*
X125500000Y-134850000D01*
X125500000Y-137350000D01*
X122500000Y-137350000D01*
X122500000Y-134850000D01*
X113500000Y-137350000D02*
X116000000Y-137350000D01*
X167500000Y-134850000D02*
X167500000Y-137350000D01*
X144500000Y-134850000D02*
X147500000Y-134850000D01*
X147500000Y-137350000D01*
X144500000Y-137350000D01*
X144500000Y-134850000D01*
X117000000Y-134850000D02*
X120000000Y-134850000D01*
X120000000Y-137350000D01*
X117000000Y-137350000D01*
X117000000Y-134850000D01*
X163500000Y-134850000D02*
X166500000Y-134850000D01*
X166500000Y-137350000D01*
X163500000Y-137350000D01*
X163500000Y-134850000D01*
X116000000Y-134850000D02*
X113500000Y-134850000D01*
X126500000Y-134850000D02*
X129500000Y-134850000D01*
X129500000Y-137350000D01*
X126500000Y-137350000D01*
X126500000Y-134850000D01*
X130500000Y-134850000D02*
X133500000Y-134850000D01*
X133500000Y-137350000D01*
X130500000Y-137350000D01*
X130500000Y-134850000D01*
X116000000Y-137350000D02*
X116000000Y-134850000D01*
X168450000Y-134850000D02*
X167500000Y-134850000D01*
D11*
X118650000Y-96500000D02*
G75*
G02*
X115350000Y-96500000I-1650000J0D01*
G01*
X115350000Y-96500000D02*
G75*
G02*
X118650000Y-96500000I1650000J0D01*
G01*
D10*
X117000000Y-93000000D02*
X164940000Y-93000000D01*
X113500000Y-134850000D02*
X113500000Y-96500000D01*
X168440000Y-150550000D02*
G75*
G02*
X164990252Y-154050000I-3474900J-25100D01*
G01*
X168450765Y-137350000D02*
X168440000Y-150550000D01*
X164940000Y-93000000D02*
G75*
G02*
X168440000Y-96500000I0J-3500000D01*
G01*
D11*
X166590000Y-96500000D02*
G75*
G02*
X163290000Y-96500000I-1650000J0D01*
G01*
X163290000Y-96500000D02*
G75*
G02*
X166590000Y-96500000I1650000J0D01*
G01*
D10*
X113500000Y-137350000D02*
X113500000Y-150550000D01*
X113500000Y-96499909D02*
G75*
G02*
X117000000Y-93000000I3500000J-91D01*
G01*
D11*
X118650000Y-150550000D02*
G75*
G02*
X115350000Y-150550000I-1650000J0D01*
G01*
X115350000Y-150550000D02*
G75*
G02*
X118650000Y-150550000I1650000J0D01*
G01*
X166590000Y-150550000D02*
G75*
G02*
X163290000Y-150550000I-1650000J0D01*
G01*
X163290000Y-150550000D02*
G75*
G02*
X166590000Y-150550000I1650000J0D01*
G01*
D10*
X165000000Y-154050000D02*
X117000000Y-154050000D01*
X117000000Y-154050000D02*
G75*
G02*
X113500000Y-150550000I0J3500000D01*
G01*
X168450000Y-129200000D02*
X168440000Y-96500000D01*
M02*
