%TF.GenerationSoftware,KiCad,Pcbnew,9.0.5*%
%TF.CreationDate,2026-02-28T09:23:41-08:00*%
%TF.ProjectId,Hi_board_bbc1,48695f62-6f61-4726-945f-626263312e6b,rev?*%
%TF.SameCoordinates,Original*%
%TF.FileFunction,Legend,Bot*%
%TF.FilePolarity,Positive*%
%FSLAX46Y46*%
G04 Gerber Fmt 4.6, Leading zero omitted, Abs format (unit mm)*
G04 Created by KiCad (PCBNEW 9.0.5) date 2026-02-28 09:23:41*
%MOMM*%
%LPD*%
G01*
G04 APERTURE LIST*
%ADD10C,0.100000*%
%ADD11C,0.150000*%
%ADD12C,0.120000*%
G04 APERTURE END LIST*
D10*
X162083496Y-111327847D02*
X162012068Y-111365942D01*
X162012068Y-111365942D02*
X161988258Y-111404038D01*
X161988258Y-111404038D02*
X161964449Y-111480228D01*
X161964449Y-111480228D02*
X161964449Y-111594514D01*
X161964449Y-111594514D02*
X161988258Y-111670704D01*
X161988258Y-111670704D02*
X162012068Y-111708800D01*
X162012068Y-111708800D02*
X162059687Y-111746895D01*
X162059687Y-111746895D02*
X162250163Y-111746895D01*
X162250163Y-111746895D02*
X162250163Y-110946895D01*
X162250163Y-110946895D02*
X162083496Y-110946895D01*
X162083496Y-110946895D02*
X162035877Y-110984990D01*
X162035877Y-110984990D02*
X162012068Y-111023085D01*
X162012068Y-111023085D02*
X161988258Y-111099276D01*
X161988258Y-111099276D02*
X161988258Y-111175466D01*
X161988258Y-111175466D02*
X162012068Y-111251657D01*
X162012068Y-111251657D02*
X162035877Y-111289752D01*
X162035877Y-111289752D02*
X162083496Y-111327847D01*
X162083496Y-111327847D02*
X162250163Y-111327847D01*
X161773972Y-111708800D02*
X161702544Y-111746895D01*
X161702544Y-111746895D02*
X161583496Y-111746895D01*
X161583496Y-111746895D02*
X161535877Y-111708800D01*
X161535877Y-111708800D02*
X161512068Y-111670704D01*
X161512068Y-111670704D02*
X161488258Y-111594514D01*
X161488258Y-111594514D02*
X161488258Y-111518323D01*
X161488258Y-111518323D02*
X161512068Y-111442133D01*
X161512068Y-111442133D02*
X161535877Y-111404038D01*
X161535877Y-111404038D02*
X161583496Y-111365942D01*
X161583496Y-111365942D02*
X161678734Y-111327847D01*
X161678734Y-111327847D02*
X161726353Y-111289752D01*
X161726353Y-111289752D02*
X161750163Y-111251657D01*
X161750163Y-111251657D02*
X161773972Y-111175466D01*
X161773972Y-111175466D02*
X161773972Y-111099276D01*
X161773972Y-111099276D02*
X161750163Y-111023085D01*
X161750163Y-111023085D02*
X161726353Y-110984990D01*
X161726353Y-110984990D02*
X161678734Y-110946895D01*
X161678734Y-110946895D02*
X161559687Y-110946895D01*
X161559687Y-110946895D02*
X161488258Y-110984990D01*
X161273973Y-111746895D02*
X161273973Y-110946895D01*
X161273973Y-110946895D02*
X161083497Y-110946895D01*
X161083497Y-110946895D02*
X161035878Y-110984990D01*
X161035878Y-110984990D02*
X161012068Y-111023085D01*
X161012068Y-111023085D02*
X160988259Y-111099276D01*
X160988259Y-111099276D02*
X160988259Y-111213561D01*
X160988259Y-111213561D02*
X161012068Y-111289752D01*
X161012068Y-111289752D02*
X161035878Y-111327847D01*
X161035878Y-111327847D02*
X161083497Y-111365942D01*
X161083497Y-111365942D02*
X161273973Y-111365942D01*
X160773973Y-111746895D02*
X160773973Y-110946895D01*
X160773973Y-110946895D02*
X160654925Y-110946895D01*
X160654925Y-110946895D02*
X160583497Y-110984990D01*
X160583497Y-110984990D02*
X160535878Y-111061180D01*
X160535878Y-111061180D02*
X160512068Y-111137371D01*
X160512068Y-111137371D02*
X160488259Y-111289752D01*
X160488259Y-111289752D02*
X160488259Y-111404038D01*
X160488259Y-111404038D02*
X160512068Y-111556419D01*
X160512068Y-111556419D02*
X160535878Y-111632609D01*
X160535878Y-111632609D02*
X160583497Y-111708800D01*
X160583497Y-111708800D02*
X160654925Y-111746895D01*
X160654925Y-111746895D02*
X160773973Y-111746895D01*
X160393021Y-111823085D02*
X160012068Y-111823085D01*
X159607307Y-111746895D02*
X159773973Y-111365942D01*
X159893021Y-111746895D02*
X159893021Y-110946895D01*
X159893021Y-110946895D02*
X159702545Y-110946895D01*
X159702545Y-110946895D02*
X159654926Y-110984990D01*
X159654926Y-110984990D02*
X159631116Y-111023085D01*
X159631116Y-111023085D02*
X159607307Y-111099276D01*
X159607307Y-111099276D02*
X159607307Y-111213561D01*
X159607307Y-111213561D02*
X159631116Y-111289752D01*
X159631116Y-111289752D02*
X159654926Y-111327847D01*
X159654926Y-111327847D02*
X159702545Y-111365942D01*
X159702545Y-111365942D02*
X159893021Y-111365942D01*
X159202545Y-111708800D02*
X159250164Y-111746895D01*
X159250164Y-111746895D02*
X159345402Y-111746895D01*
X159345402Y-111746895D02*
X159393021Y-111708800D01*
X159393021Y-111708800D02*
X159416830Y-111632609D01*
X159416830Y-111632609D02*
X159416830Y-111327847D01*
X159416830Y-111327847D02*
X159393021Y-111251657D01*
X159393021Y-111251657D02*
X159345402Y-111213561D01*
X159345402Y-111213561D02*
X159250164Y-111213561D01*
X159250164Y-111213561D02*
X159202545Y-111251657D01*
X159202545Y-111251657D02*
X159178735Y-111327847D01*
X159178735Y-111327847D02*
X159178735Y-111404038D01*
X159178735Y-111404038D02*
X159416830Y-111480228D01*
X158988259Y-111708800D02*
X158940640Y-111746895D01*
X158940640Y-111746895D02*
X158845402Y-111746895D01*
X158845402Y-111746895D02*
X158797783Y-111708800D01*
X158797783Y-111708800D02*
X158773974Y-111632609D01*
X158773974Y-111632609D02*
X158773974Y-111594514D01*
X158773974Y-111594514D02*
X158797783Y-111518323D01*
X158797783Y-111518323D02*
X158845402Y-111480228D01*
X158845402Y-111480228D02*
X158916831Y-111480228D01*
X158916831Y-111480228D02*
X158964450Y-111442133D01*
X158964450Y-111442133D02*
X158988259Y-111365942D01*
X158988259Y-111365942D02*
X158988259Y-111327847D01*
X158988259Y-111327847D02*
X158964450Y-111251657D01*
X158964450Y-111251657D02*
X158916831Y-111213561D01*
X158916831Y-111213561D02*
X158845402Y-111213561D01*
X158845402Y-111213561D02*
X158797783Y-111251657D01*
X158369212Y-111708800D02*
X158416831Y-111746895D01*
X158416831Y-111746895D02*
X158512069Y-111746895D01*
X158512069Y-111746895D02*
X158559688Y-111708800D01*
X158559688Y-111708800D02*
X158583497Y-111632609D01*
X158583497Y-111632609D02*
X158583497Y-111327847D01*
X158583497Y-111327847D02*
X158559688Y-111251657D01*
X158559688Y-111251657D02*
X158512069Y-111213561D01*
X158512069Y-111213561D02*
X158416831Y-111213561D01*
X158416831Y-111213561D02*
X158369212Y-111251657D01*
X158369212Y-111251657D02*
X158345402Y-111327847D01*
X158345402Y-111327847D02*
X158345402Y-111404038D01*
X158345402Y-111404038D02*
X158583497Y-111480228D01*
X158202545Y-111213561D02*
X158012069Y-111213561D01*
X158131117Y-110946895D02*
X158131117Y-111632609D01*
X158131117Y-111632609D02*
X158107307Y-111708800D01*
X158107307Y-111708800D02*
X158059688Y-111746895D01*
X158059688Y-111746895D02*
X158012069Y-111746895D01*
X129498496Y-111477847D02*
X129427068Y-111515942D01*
X129427068Y-111515942D02*
X129403258Y-111554038D01*
X129403258Y-111554038D02*
X129379449Y-111630228D01*
X129379449Y-111630228D02*
X129379449Y-111744514D01*
X129379449Y-111744514D02*
X129403258Y-111820704D01*
X129403258Y-111820704D02*
X129427068Y-111858800D01*
X129427068Y-111858800D02*
X129474687Y-111896895D01*
X129474687Y-111896895D02*
X129665163Y-111896895D01*
X129665163Y-111896895D02*
X129665163Y-111096895D01*
X129665163Y-111096895D02*
X129498496Y-111096895D01*
X129498496Y-111096895D02*
X129450877Y-111134990D01*
X129450877Y-111134990D02*
X129427068Y-111173085D01*
X129427068Y-111173085D02*
X129403258Y-111249276D01*
X129403258Y-111249276D02*
X129403258Y-111325466D01*
X129403258Y-111325466D02*
X129427068Y-111401657D01*
X129427068Y-111401657D02*
X129450877Y-111439752D01*
X129450877Y-111439752D02*
X129498496Y-111477847D01*
X129498496Y-111477847D02*
X129665163Y-111477847D01*
X129165163Y-111896895D02*
X129165163Y-111096895D01*
X129165163Y-111096895D02*
X128998496Y-111668323D01*
X128998496Y-111668323D02*
X128831830Y-111096895D01*
X128831830Y-111096895D02*
X128831830Y-111896895D01*
X128617543Y-111858800D02*
X128546115Y-111896895D01*
X128546115Y-111896895D02*
X128427067Y-111896895D01*
X128427067Y-111896895D02*
X128379448Y-111858800D01*
X128379448Y-111858800D02*
X128355639Y-111820704D01*
X128355639Y-111820704D02*
X128331829Y-111744514D01*
X128331829Y-111744514D02*
X128331829Y-111668323D01*
X128331829Y-111668323D02*
X128355639Y-111592133D01*
X128355639Y-111592133D02*
X128379448Y-111554038D01*
X128379448Y-111554038D02*
X128427067Y-111515942D01*
X128427067Y-111515942D02*
X128522305Y-111477847D01*
X128522305Y-111477847D02*
X128569924Y-111439752D01*
X128569924Y-111439752D02*
X128593734Y-111401657D01*
X128593734Y-111401657D02*
X128617543Y-111325466D01*
X128617543Y-111325466D02*
X128617543Y-111249276D01*
X128617543Y-111249276D02*
X128593734Y-111173085D01*
X128593734Y-111173085D02*
X128569924Y-111134990D01*
X128569924Y-111134990D02*
X128522305Y-111096895D01*
X128522305Y-111096895D02*
X128403258Y-111096895D01*
X128403258Y-111096895D02*
X128331829Y-111134990D01*
X128236592Y-111973085D02*
X127855639Y-111973085D01*
X127498497Y-111896895D02*
X127736592Y-111896895D01*
X127736592Y-111896895D02*
X127736592Y-111096895D01*
X127141354Y-111858800D02*
X127188973Y-111896895D01*
X127188973Y-111896895D02*
X127284211Y-111896895D01*
X127284211Y-111896895D02*
X127331830Y-111858800D01*
X127331830Y-111858800D02*
X127355639Y-111782609D01*
X127355639Y-111782609D02*
X127355639Y-111477847D01*
X127355639Y-111477847D02*
X127331830Y-111401657D01*
X127331830Y-111401657D02*
X127284211Y-111363561D01*
X127284211Y-111363561D02*
X127188973Y-111363561D01*
X127188973Y-111363561D02*
X127141354Y-111401657D01*
X127141354Y-111401657D02*
X127117544Y-111477847D01*
X127117544Y-111477847D02*
X127117544Y-111554038D01*
X127117544Y-111554038D02*
X127355639Y-111630228D01*
X126688973Y-111896895D02*
X126688973Y-111096895D01*
X126688973Y-111858800D02*
X126736592Y-111896895D01*
X126736592Y-111896895D02*
X126831830Y-111896895D01*
X126831830Y-111896895D02*
X126879449Y-111858800D01*
X126879449Y-111858800D02*
X126903259Y-111820704D01*
X126903259Y-111820704D02*
X126927068Y-111744514D01*
X126927068Y-111744514D02*
X126927068Y-111515942D01*
X126927068Y-111515942D02*
X126903259Y-111439752D01*
X126903259Y-111439752D02*
X126879449Y-111401657D01*
X126879449Y-111401657D02*
X126831830Y-111363561D01*
X126831830Y-111363561D02*
X126736592Y-111363561D01*
X126736592Y-111363561D02*
X126688973Y-111401657D01*
X157250163Y-98746895D02*
X157250163Y-97946895D01*
X157012068Y-98746895D02*
X157012068Y-97946895D01*
X157012068Y-97946895D02*
X156845401Y-98518323D01*
X156845401Y-98518323D02*
X156678735Y-97946895D01*
X156678735Y-97946895D02*
X156678735Y-98746895D01*
X156440639Y-98746895D02*
X156440639Y-97946895D01*
X156440639Y-97946895D02*
X156321591Y-97946895D01*
X156321591Y-97946895D02*
X156250163Y-97984990D01*
X156250163Y-97984990D02*
X156202544Y-98061180D01*
X156202544Y-98061180D02*
X156178734Y-98137371D01*
X156178734Y-98137371D02*
X156154925Y-98289752D01*
X156154925Y-98289752D02*
X156154925Y-98404038D01*
X156154925Y-98404038D02*
X156178734Y-98556419D01*
X156178734Y-98556419D02*
X156202544Y-98632609D01*
X156202544Y-98632609D02*
X156250163Y-98708800D01*
X156250163Y-98708800D02*
X156321591Y-98746895D01*
X156321591Y-98746895D02*
X156440639Y-98746895D01*
X156059687Y-98823085D02*
X155678734Y-98823085D01*
X155273973Y-98746895D02*
X155440639Y-98365942D01*
X155559687Y-98746895D02*
X155559687Y-97946895D01*
X155559687Y-97946895D02*
X155369211Y-97946895D01*
X155369211Y-97946895D02*
X155321592Y-97984990D01*
X155321592Y-97984990D02*
X155297782Y-98023085D01*
X155297782Y-98023085D02*
X155273973Y-98099276D01*
X155273973Y-98099276D02*
X155273973Y-98213561D01*
X155273973Y-98213561D02*
X155297782Y-98289752D01*
X155297782Y-98289752D02*
X155321592Y-98327847D01*
X155321592Y-98327847D02*
X155369211Y-98365942D01*
X155369211Y-98365942D02*
X155559687Y-98365942D01*
X154869211Y-98708800D02*
X154916830Y-98746895D01*
X154916830Y-98746895D02*
X155012068Y-98746895D01*
X155012068Y-98746895D02*
X155059687Y-98708800D01*
X155059687Y-98708800D02*
X155083496Y-98632609D01*
X155083496Y-98632609D02*
X155083496Y-98327847D01*
X155083496Y-98327847D02*
X155059687Y-98251657D01*
X155059687Y-98251657D02*
X155012068Y-98213561D01*
X155012068Y-98213561D02*
X154916830Y-98213561D01*
X154916830Y-98213561D02*
X154869211Y-98251657D01*
X154869211Y-98251657D02*
X154845401Y-98327847D01*
X154845401Y-98327847D02*
X154845401Y-98404038D01*
X154845401Y-98404038D02*
X155083496Y-98480228D01*
X154654925Y-98708800D02*
X154607306Y-98746895D01*
X154607306Y-98746895D02*
X154512068Y-98746895D01*
X154512068Y-98746895D02*
X154464449Y-98708800D01*
X154464449Y-98708800D02*
X154440640Y-98632609D01*
X154440640Y-98632609D02*
X154440640Y-98594514D01*
X154440640Y-98594514D02*
X154464449Y-98518323D01*
X154464449Y-98518323D02*
X154512068Y-98480228D01*
X154512068Y-98480228D02*
X154583497Y-98480228D01*
X154583497Y-98480228D02*
X154631116Y-98442133D01*
X154631116Y-98442133D02*
X154654925Y-98365942D01*
X154654925Y-98365942D02*
X154654925Y-98327847D01*
X154654925Y-98327847D02*
X154631116Y-98251657D01*
X154631116Y-98251657D02*
X154583497Y-98213561D01*
X154583497Y-98213561D02*
X154512068Y-98213561D01*
X154512068Y-98213561D02*
X154464449Y-98251657D01*
X154035878Y-98708800D02*
X154083497Y-98746895D01*
X154083497Y-98746895D02*
X154178735Y-98746895D01*
X154178735Y-98746895D02*
X154226354Y-98708800D01*
X154226354Y-98708800D02*
X154250163Y-98632609D01*
X154250163Y-98632609D02*
X154250163Y-98327847D01*
X154250163Y-98327847D02*
X154226354Y-98251657D01*
X154226354Y-98251657D02*
X154178735Y-98213561D01*
X154178735Y-98213561D02*
X154083497Y-98213561D01*
X154083497Y-98213561D02*
X154035878Y-98251657D01*
X154035878Y-98251657D02*
X154012068Y-98327847D01*
X154012068Y-98327847D02*
X154012068Y-98404038D01*
X154012068Y-98404038D02*
X154250163Y-98480228D01*
X153869211Y-98213561D02*
X153678735Y-98213561D01*
X153797783Y-97946895D02*
X153797783Y-98632609D01*
X153797783Y-98632609D02*
X153773973Y-98708800D01*
X153773973Y-98708800D02*
X153726354Y-98746895D01*
X153726354Y-98746895D02*
X153678735Y-98746895D01*
X153631117Y-98823085D02*
X153250164Y-98823085D01*
X153131117Y-98746895D02*
X153131117Y-98213561D01*
X153131117Y-97946895D02*
X153154926Y-97984990D01*
X153154926Y-97984990D02*
X153131117Y-98023085D01*
X153131117Y-98023085D02*
X153107307Y-97984990D01*
X153107307Y-97984990D02*
X153131117Y-97946895D01*
X153131117Y-97946895D02*
X153131117Y-98023085D01*
X152893022Y-98213561D02*
X152893022Y-98746895D01*
X152893022Y-98289752D02*
X152869212Y-98251657D01*
X152869212Y-98251657D02*
X152821593Y-98213561D01*
X152821593Y-98213561D02*
X152750165Y-98213561D01*
X152750165Y-98213561D02*
X152702546Y-98251657D01*
X152702546Y-98251657D02*
X152678736Y-98327847D01*
X152678736Y-98327847D02*
X152678736Y-98746895D01*
X157250163Y-111746895D02*
X157250163Y-110946895D01*
X157012068Y-111746895D02*
X157012068Y-110946895D01*
X157012068Y-110946895D02*
X156845401Y-111518323D01*
X156845401Y-111518323D02*
X156678735Y-110946895D01*
X156678735Y-110946895D02*
X156678735Y-111746895D01*
X156440639Y-111746895D02*
X156440639Y-110946895D01*
X156440639Y-110946895D02*
X156321591Y-110946895D01*
X156321591Y-110946895D02*
X156250163Y-110984990D01*
X156250163Y-110984990D02*
X156202544Y-111061180D01*
X156202544Y-111061180D02*
X156178734Y-111137371D01*
X156178734Y-111137371D02*
X156154925Y-111289752D01*
X156154925Y-111289752D02*
X156154925Y-111404038D01*
X156154925Y-111404038D02*
X156178734Y-111556419D01*
X156178734Y-111556419D02*
X156202544Y-111632609D01*
X156202544Y-111632609D02*
X156250163Y-111708800D01*
X156250163Y-111708800D02*
X156321591Y-111746895D01*
X156321591Y-111746895D02*
X156440639Y-111746895D01*
X156059687Y-111823085D02*
X155678734Y-111823085D01*
X155273973Y-111746895D02*
X155440639Y-111365942D01*
X155559687Y-111746895D02*
X155559687Y-110946895D01*
X155559687Y-110946895D02*
X155369211Y-110946895D01*
X155369211Y-110946895D02*
X155321592Y-110984990D01*
X155321592Y-110984990D02*
X155297782Y-111023085D01*
X155297782Y-111023085D02*
X155273973Y-111099276D01*
X155273973Y-111099276D02*
X155273973Y-111213561D01*
X155273973Y-111213561D02*
X155297782Y-111289752D01*
X155297782Y-111289752D02*
X155321592Y-111327847D01*
X155321592Y-111327847D02*
X155369211Y-111365942D01*
X155369211Y-111365942D02*
X155559687Y-111365942D01*
X154869211Y-111708800D02*
X154916830Y-111746895D01*
X154916830Y-111746895D02*
X155012068Y-111746895D01*
X155012068Y-111746895D02*
X155059687Y-111708800D01*
X155059687Y-111708800D02*
X155083496Y-111632609D01*
X155083496Y-111632609D02*
X155083496Y-111327847D01*
X155083496Y-111327847D02*
X155059687Y-111251657D01*
X155059687Y-111251657D02*
X155012068Y-111213561D01*
X155012068Y-111213561D02*
X154916830Y-111213561D01*
X154916830Y-111213561D02*
X154869211Y-111251657D01*
X154869211Y-111251657D02*
X154845401Y-111327847D01*
X154845401Y-111327847D02*
X154845401Y-111404038D01*
X154845401Y-111404038D02*
X155083496Y-111480228D01*
X154654925Y-111708800D02*
X154607306Y-111746895D01*
X154607306Y-111746895D02*
X154512068Y-111746895D01*
X154512068Y-111746895D02*
X154464449Y-111708800D01*
X154464449Y-111708800D02*
X154440640Y-111632609D01*
X154440640Y-111632609D02*
X154440640Y-111594514D01*
X154440640Y-111594514D02*
X154464449Y-111518323D01*
X154464449Y-111518323D02*
X154512068Y-111480228D01*
X154512068Y-111480228D02*
X154583497Y-111480228D01*
X154583497Y-111480228D02*
X154631116Y-111442133D01*
X154631116Y-111442133D02*
X154654925Y-111365942D01*
X154654925Y-111365942D02*
X154654925Y-111327847D01*
X154654925Y-111327847D02*
X154631116Y-111251657D01*
X154631116Y-111251657D02*
X154583497Y-111213561D01*
X154583497Y-111213561D02*
X154512068Y-111213561D01*
X154512068Y-111213561D02*
X154464449Y-111251657D01*
X154035878Y-111708800D02*
X154083497Y-111746895D01*
X154083497Y-111746895D02*
X154178735Y-111746895D01*
X154178735Y-111746895D02*
X154226354Y-111708800D01*
X154226354Y-111708800D02*
X154250163Y-111632609D01*
X154250163Y-111632609D02*
X154250163Y-111327847D01*
X154250163Y-111327847D02*
X154226354Y-111251657D01*
X154226354Y-111251657D02*
X154178735Y-111213561D01*
X154178735Y-111213561D02*
X154083497Y-111213561D01*
X154083497Y-111213561D02*
X154035878Y-111251657D01*
X154035878Y-111251657D02*
X154012068Y-111327847D01*
X154012068Y-111327847D02*
X154012068Y-111404038D01*
X154012068Y-111404038D02*
X154250163Y-111480228D01*
X153869211Y-111213561D02*
X153678735Y-111213561D01*
X153797783Y-110946895D02*
X153797783Y-111632609D01*
X153797783Y-111632609D02*
X153773973Y-111708800D01*
X153773973Y-111708800D02*
X153726354Y-111746895D01*
X153726354Y-111746895D02*
X153678735Y-111746895D01*
X153631117Y-111823085D02*
X153250164Y-111823085D01*
X153059688Y-111746895D02*
X153107307Y-111708800D01*
X153107307Y-111708800D02*
X153131117Y-111670704D01*
X153131117Y-111670704D02*
X153154926Y-111594514D01*
X153154926Y-111594514D02*
X153154926Y-111365942D01*
X153154926Y-111365942D02*
X153131117Y-111289752D01*
X153131117Y-111289752D02*
X153107307Y-111251657D01*
X153107307Y-111251657D02*
X153059688Y-111213561D01*
X153059688Y-111213561D02*
X152988260Y-111213561D01*
X152988260Y-111213561D02*
X152940641Y-111251657D01*
X152940641Y-111251657D02*
X152916831Y-111289752D01*
X152916831Y-111289752D02*
X152893022Y-111365942D01*
X152893022Y-111365942D02*
X152893022Y-111594514D01*
X152893022Y-111594514D02*
X152916831Y-111670704D01*
X152916831Y-111670704D02*
X152940641Y-111708800D01*
X152940641Y-111708800D02*
X152988260Y-111746895D01*
X152988260Y-111746895D02*
X153059688Y-111746895D01*
X152464450Y-111213561D02*
X152464450Y-111746895D01*
X152678736Y-111213561D02*
X152678736Y-111632609D01*
X152678736Y-111632609D02*
X152654926Y-111708800D01*
X152654926Y-111708800D02*
X152607307Y-111746895D01*
X152607307Y-111746895D02*
X152535879Y-111746895D01*
X152535879Y-111746895D02*
X152488260Y-111708800D01*
X152488260Y-111708800D02*
X152464450Y-111670704D01*
X152297783Y-111213561D02*
X152107307Y-111213561D01*
X152226355Y-110946895D02*
X152226355Y-111632609D01*
X152226355Y-111632609D02*
X152202545Y-111708800D01*
X152202545Y-111708800D02*
X152154926Y-111746895D01*
X152154926Y-111746895D02*
X152107307Y-111746895D01*
X151083496Y-111327847D02*
X151012068Y-111365942D01*
X151012068Y-111365942D02*
X150988258Y-111404038D01*
X150988258Y-111404038D02*
X150964449Y-111480228D01*
X150964449Y-111480228D02*
X150964449Y-111594514D01*
X150964449Y-111594514D02*
X150988258Y-111670704D01*
X150988258Y-111670704D02*
X151012068Y-111708800D01*
X151012068Y-111708800D02*
X151059687Y-111746895D01*
X151059687Y-111746895D02*
X151250163Y-111746895D01*
X151250163Y-111746895D02*
X151250163Y-110946895D01*
X151250163Y-110946895D02*
X151083496Y-110946895D01*
X151083496Y-110946895D02*
X151035877Y-110984990D01*
X151035877Y-110984990D02*
X151012068Y-111023085D01*
X151012068Y-111023085D02*
X150988258Y-111099276D01*
X150988258Y-111099276D02*
X150988258Y-111175466D01*
X150988258Y-111175466D02*
X151012068Y-111251657D01*
X151012068Y-111251657D02*
X151035877Y-111289752D01*
X151035877Y-111289752D02*
X151083496Y-111327847D01*
X151083496Y-111327847D02*
X151250163Y-111327847D01*
X150750163Y-111746895D02*
X150750163Y-110946895D01*
X150750163Y-110946895D02*
X150583496Y-111518323D01*
X150583496Y-111518323D02*
X150416830Y-110946895D01*
X150416830Y-110946895D02*
X150416830Y-111746895D01*
X150202543Y-111708800D02*
X150131115Y-111746895D01*
X150131115Y-111746895D02*
X150012067Y-111746895D01*
X150012067Y-111746895D02*
X149964448Y-111708800D01*
X149964448Y-111708800D02*
X149940639Y-111670704D01*
X149940639Y-111670704D02*
X149916829Y-111594514D01*
X149916829Y-111594514D02*
X149916829Y-111518323D01*
X149916829Y-111518323D02*
X149940639Y-111442133D01*
X149940639Y-111442133D02*
X149964448Y-111404038D01*
X149964448Y-111404038D02*
X150012067Y-111365942D01*
X150012067Y-111365942D02*
X150107305Y-111327847D01*
X150107305Y-111327847D02*
X150154924Y-111289752D01*
X150154924Y-111289752D02*
X150178734Y-111251657D01*
X150178734Y-111251657D02*
X150202543Y-111175466D01*
X150202543Y-111175466D02*
X150202543Y-111099276D01*
X150202543Y-111099276D02*
X150178734Y-111023085D01*
X150178734Y-111023085D02*
X150154924Y-110984990D01*
X150154924Y-110984990D02*
X150107305Y-110946895D01*
X150107305Y-110946895D02*
X149988258Y-110946895D01*
X149988258Y-110946895D02*
X149916829Y-110984990D01*
X149821592Y-111823085D02*
X149440639Y-111823085D01*
X149035878Y-111746895D02*
X149202544Y-111365942D01*
X149321592Y-111746895D02*
X149321592Y-110946895D01*
X149321592Y-110946895D02*
X149131116Y-110946895D01*
X149131116Y-110946895D02*
X149083497Y-110984990D01*
X149083497Y-110984990D02*
X149059687Y-111023085D01*
X149059687Y-111023085D02*
X149035878Y-111099276D01*
X149035878Y-111099276D02*
X149035878Y-111213561D01*
X149035878Y-111213561D02*
X149059687Y-111289752D01*
X149059687Y-111289752D02*
X149083497Y-111327847D01*
X149083497Y-111327847D02*
X149131116Y-111365942D01*
X149131116Y-111365942D02*
X149321592Y-111365942D01*
X148631116Y-111708800D02*
X148678735Y-111746895D01*
X148678735Y-111746895D02*
X148773973Y-111746895D01*
X148773973Y-111746895D02*
X148821592Y-111708800D01*
X148821592Y-111708800D02*
X148845401Y-111632609D01*
X148845401Y-111632609D02*
X148845401Y-111327847D01*
X148845401Y-111327847D02*
X148821592Y-111251657D01*
X148821592Y-111251657D02*
X148773973Y-111213561D01*
X148773973Y-111213561D02*
X148678735Y-111213561D01*
X148678735Y-111213561D02*
X148631116Y-111251657D01*
X148631116Y-111251657D02*
X148607306Y-111327847D01*
X148607306Y-111327847D02*
X148607306Y-111404038D01*
X148607306Y-111404038D02*
X148845401Y-111480228D01*
X148416830Y-111708800D02*
X148369211Y-111746895D01*
X148369211Y-111746895D02*
X148273973Y-111746895D01*
X148273973Y-111746895D02*
X148226354Y-111708800D01*
X148226354Y-111708800D02*
X148202545Y-111632609D01*
X148202545Y-111632609D02*
X148202545Y-111594514D01*
X148202545Y-111594514D02*
X148226354Y-111518323D01*
X148226354Y-111518323D02*
X148273973Y-111480228D01*
X148273973Y-111480228D02*
X148345402Y-111480228D01*
X148345402Y-111480228D02*
X148393021Y-111442133D01*
X148393021Y-111442133D02*
X148416830Y-111365942D01*
X148416830Y-111365942D02*
X148416830Y-111327847D01*
X148416830Y-111327847D02*
X148393021Y-111251657D01*
X148393021Y-111251657D02*
X148345402Y-111213561D01*
X148345402Y-111213561D02*
X148273973Y-111213561D01*
X148273973Y-111213561D02*
X148226354Y-111251657D01*
X147797783Y-111708800D02*
X147845402Y-111746895D01*
X147845402Y-111746895D02*
X147940640Y-111746895D01*
X147940640Y-111746895D02*
X147988259Y-111708800D01*
X147988259Y-111708800D02*
X148012068Y-111632609D01*
X148012068Y-111632609D02*
X148012068Y-111327847D01*
X148012068Y-111327847D02*
X147988259Y-111251657D01*
X147988259Y-111251657D02*
X147940640Y-111213561D01*
X147940640Y-111213561D02*
X147845402Y-111213561D01*
X147845402Y-111213561D02*
X147797783Y-111251657D01*
X147797783Y-111251657D02*
X147773973Y-111327847D01*
X147773973Y-111327847D02*
X147773973Y-111404038D01*
X147773973Y-111404038D02*
X148012068Y-111480228D01*
X147631116Y-111213561D02*
X147440640Y-111213561D01*
X147559688Y-110946895D02*
X147559688Y-111632609D01*
X147559688Y-111632609D02*
X147535878Y-111708800D01*
X147535878Y-111708800D02*
X147488259Y-111746895D01*
X147488259Y-111746895D02*
X147440640Y-111746895D01*
X120998496Y-111477847D02*
X120927068Y-111515942D01*
X120927068Y-111515942D02*
X120903258Y-111554038D01*
X120903258Y-111554038D02*
X120879449Y-111630228D01*
X120879449Y-111630228D02*
X120879449Y-111744514D01*
X120879449Y-111744514D02*
X120903258Y-111820704D01*
X120903258Y-111820704D02*
X120927068Y-111858800D01*
X120927068Y-111858800D02*
X120974687Y-111896895D01*
X120974687Y-111896895D02*
X121165163Y-111896895D01*
X121165163Y-111896895D02*
X121165163Y-111096895D01*
X121165163Y-111096895D02*
X120998496Y-111096895D01*
X120998496Y-111096895D02*
X120950877Y-111134990D01*
X120950877Y-111134990D02*
X120927068Y-111173085D01*
X120927068Y-111173085D02*
X120903258Y-111249276D01*
X120903258Y-111249276D02*
X120903258Y-111325466D01*
X120903258Y-111325466D02*
X120927068Y-111401657D01*
X120927068Y-111401657D02*
X120950877Y-111439752D01*
X120950877Y-111439752D02*
X120998496Y-111477847D01*
X120998496Y-111477847D02*
X121165163Y-111477847D01*
X120688972Y-111858800D02*
X120617544Y-111896895D01*
X120617544Y-111896895D02*
X120498496Y-111896895D01*
X120498496Y-111896895D02*
X120450877Y-111858800D01*
X120450877Y-111858800D02*
X120427068Y-111820704D01*
X120427068Y-111820704D02*
X120403258Y-111744514D01*
X120403258Y-111744514D02*
X120403258Y-111668323D01*
X120403258Y-111668323D02*
X120427068Y-111592133D01*
X120427068Y-111592133D02*
X120450877Y-111554038D01*
X120450877Y-111554038D02*
X120498496Y-111515942D01*
X120498496Y-111515942D02*
X120593734Y-111477847D01*
X120593734Y-111477847D02*
X120641353Y-111439752D01*
X120641353Y-111439752D02*
X120665163Y-111401657D01*
X120665163Y-111401657D02*
X120688972Y-111325466D01*
X120688972Y-111325466D02*
X120688972Y-111249276D01*
X120688972Y-111249276D02*
X120665163Y-111173085D01*
X120665163Y-111173085D02*
X120641353Y-111134990D01*
X120641353Y-111134990D02*
X120593734Y-111096895D01*
X120593734Y-111096895D02*
X120474687Y-111096895D01*
X120474687Y-111096895D02*
X120403258Y-111134990D01*
X120188973Y-111896895D02*
X120188973Y-111096895D01*
X120188973Y-111096895D02*
X119998497Y-111096895D01*
X119998497Y-111096895D02*
X119950878Y-111134990D01*
X119950878Y-111134990D02*
X119927068Y-111173085D01*
X119927068Y-111173085D02*
X119903259Y-111249276D01*
X119903259Y-111249276D02*
X119903259Y-111363561D01*
X119903259Y-111363561D02*
X119927068Y-111439752D01*
X119927068Y-111439752D02*
X119950878Y-111477847D01*
X119950878Y-111477847D02*
X119998497Y-111515942D01*
X119998497Y-111515942D02*
X120188973Y-111515942D01*
X119688973Y-111896895D02*
X119688973Y-111096895D01*
X119688973Y-111096895D02*
X119569925Y-111096895D01*
X119569925Y-111096895D02*
X119498497Y-111134990D01*
X119498497Y-111134990D02*
X119450878Y-111211180D01*
X119450878Y-111211180D02*
X119427068Y-111287371D01*
X119427068Y-111287371D02*
X119403259Y-111439752D01*
X119403259Y-111439752D02*
X119403259Y-111554038D01*
X119403259Y-111554038D02*
X119427068Y-111706419D01*
X119427068Y-111706419D02*
X119450878Y-111782609D01*
X119450878Y-111782609D02*
X119498497Y-111858800D01*
X119498497Y-111858800D02*
X119569925Y-111896895D01*
X119569925Y-111896895D02*
X119688973Y-111896895D01*
X119308021Y-111973085D02*
X118927068Y-111973085D01*
X118569926Y-111896895D02*
X118808021Y-111896895D01*
X118808021Y-111896895D02*
X118808021Y-111096895D01*
X118212783Y-111858800D02*
X118260402Y-111896895D01*
X118260402Y-111896895D02*
X118355640Y-111896895D01*
X118355640Y-111896895D02*
X118403259Y-111858800D01*
X118403259Y-111858800D02*
X118427068Y-111782609D01*
X118427068Y-111782609D02*
X118427068Y-111477847D01*
X118427068Y-111477847D02*
X118403259Y-111401657D01*
X118403259Y-111401657D02*
X118355640Y-111363561D01*
X118355640Y-111363561D02*
X118260402Y-111363561D01*
X118260402Y-111363561D02*
X118212783Y-111401657D01*
X118212783Y-111401657D02*
X118188973Y-111477847D01*
X118188973Y-111477847D02*
X118188973Y-111554038D01*
X118188973Y-111554038D02*
X118427068Y-111630228D01*
X117760402Y-111896895D02*
X117760402Y-111096895D01*
X117760402Y-111858800D02*
X117808021Y-111896895D01*
X117808021Y-111896895D02*
X117903259Y-111896895D01*
X117903259Y-111896895D02*
X117950878Y-111858800D01*
X117950878Y-111858800D02*
X117974688Y-111820704D01*
X117974688Y-111820704D02*
X117998497Y-111744514D01*
X117998497Y-111744514D02*
X117998497Y-111515942D01*
X117998497Y-111515942D02*
X117974688Y-111439752D01*
X117974688Y-111439752D02*
X117950878Y-111401657D01*
X117950878Y-111401657D02*
X117903259Y-111363561D01*
X117903259Y-111363561D02*
X117808021Y-111363561D01*
X117808021Y-111363561D02*
X117760402Y-111401657D01*
X160250163Y-98442133D02*
X159869211Y-98442133D01*
X160059687Y-98746895D02*
X160059687Y-98137371D01*
X159369210Y-98746895D02*
X159654924Y-98746895D01*
X159512067Y-98746895D02*
X159512067Y-97946895D01*
X159512067Y-97946895D02*
X159559686Y-98061180D01*
X159559686Y-98061180D02*
X159607305Y-98137371D01*
X159607305Y-98137371D02*
X159654924Y-98175466D01*
X159178734Y-98023085D02*
X159154925Y-97984990D01*
X159154925Y-97984990D02*
X159107306Y-97946895D01*
X159107306Y-97946895D02*
X158988258Y-97946895D01*
X158988258Y-97946895D02*
X158940639Y-97984990D01*
X158940639Y-97984990D02*
X158916830Y-98023085D01*
X158916830Y-98023085D02*
X158893020Y-98099276D01*
X158893020Y-98099276D02*
X158893020Y-98175466D01*
X158893020Y-98175466D02*
X158916830Y-98289752D01*
X158916830Y-98289752D02*
X159202544Y-98746895D01*
X159202544Y-98746895D02*
X158893020Y-98746895D01*
X158750163Y-97946895D02*
X158583497Y-98746895D01*
X158583497Y-98746895D02*
X158416830Y-97946895D01*
X129213258Y-97734990D02*
X129260877Y-97696895D01*
X129260877Y-97696895D02*
X129332306Y-97696895D01*
X129332306Y-97696895D02*
X129403734Y-97734990D01*
X129403734Y-97734990D02*
X129451353Y-97811180D01*
X129451353Y-97811180D02*
X129475163Y-97887371D01*
X129475163Y-97887371D02*
X129498972Y-98039752D01*
X129498972Y-98039752D02*
X129498972Y-98154038D01*
X129498972Y-98154038D02*
X129475163Y-98306419D01*
X129475163Y-98306419D02*
X129451353Y-98382609D01*
X129451353Y-98382609D02*
X129403734Y-98458800D01*
X129403734Y-98458800D02*
X129332306Y-98496895D01*
X129332306Y-98496895D02*
X129284687Y-98496895D01*
X129284687Y-98496895D02*
X129213258Y-98458800D01*
X129213258Y-98458800D02*
X129189449Y-98420704D01*
X129189449Y-98420704D02*
X129189449Y-98154038D01*
X129189449Y-98154038D02*
X129284687Y-98154038D01*
X128975163Y-98496895D02*
X128975163Y-97696895D01*
X128975163Y-97696895D02*
X128689449Y-98496895D01*
X128689449Y-98496895D02*
X128689449Y-97696895D01*
X128451353Y-98496895D02*
X128451353Y-97696895D01*
X128451353Y-97696895D02*
X128332305Y-97696895D01*
X128332305Y-97696895D02*
X128260877Y-97734990D01*
X128260877Y-97734990D02*
X128213258Y-97811180D01*
X128213258Y-97811180D02*
X128189448Y-97887371D01*
X128189448Y-97887371D02*
X128165639Y-98039752D01*
X128165639Y-98039752D02*
X128165639Y-98154038D01*
X128165639Y-98154038D02*
X128189448Y-98306419D01*
X128189448Y-98306419D02*
X128213258Y-98382609D01*
X128213258Y-98382609D02*
X128260877Y-98458800D01*
X128260877Y-98458800D02*
X128332305Y-98496895D01*
X128332305Y-98496895D02*
X128451353Y-98496895D01*
X120713258Y-97734990D02*
X120760877Y-97696895D01*
X120760877Y-97696895D02*
X120832306Y-97696895D01*
X120832306Y-97696895D02*
X120903734Y-97734990D01*
X120903734Y-97734990D02*
X120951353Y-97811180D01*
X120951353Y-97811180D02*
X120975163Y-97887371D01*
X120975163Y-97887371D02*
X120998972Y-98039752D01*
X120998972Y-98039752D02*
X120998972Y-98154038D01*
X120998972Y-98154038D02*
X120975163Y-98306419D01*
X120975163Y-98306419D02*
X120951353Y-98382609D01*
X120951353Y-98382609D02*
X120903734Y-98458800D01*
X120903734Y-98458800D02*
X120832306Y-98496895D01*
X120832306Y-98496895D02*
X120784687Y-98496895D01*
X120784687Y-98496895D02*
X120713258Y-98458800D01*
X120713258Y-98458800D02*
X120689449Y-98420704D01*
X120689449Y-98420704D02*
X120689449Y-98154038D01*
X120689449Y-98154038D02*
X120784687Y-98154038D01*
X120475163Y-98496895D02*
X120475163Y-97696895D01*
X120475163Y-97696895D02*
X120189449Y-98496895D01*
X120189449Y-98496895D02*
X120189449Y-97696895D01*
X119951353Y-98496895D02*
X119951353Y-97696895D01*
X119951353Y-97696895D02*
X119832305Y-97696895D01*
X119832305Y-97696895D02*
X119760877Y-97734990D01*
X119760877Y-97734990D02*
X119713258Y-97811180D01*
X119713258Y-97811180D02*
X119689448Y-97887371D01*
X119689448Y-97887371D02*
X119665639Y-98039752D01*
X119665639Y-98039752D02*
X119665639Y-98154038D01*
X119665639Y-98154038D02*
X119689448Y-98306419D01*
X119689448Y-98306419D02*
X119713258Y-98382609D01*
X119713258Y-98382609D02*
X119760877Y-98458800D01*
X119760877Y-98458800D02*
X119832305Y-98496895D01*
X119832305Y-98496895D02*
X119951353Y-98496895D01*
X125665163Y-111896895D02*
X125665163Y-111096895D01*
X125427068Y-111896895D02*
X125427068Y-111096895D01*
X125427068Y-111096895D02*
X125260401Y-111668323D01*
X125260401Y-111668323D02*
X125093735Y-111096895D01*
X125093735Y-111096895D02*
X125093735Y-111896895D01*
X124855639Y-111896895D02*
X124855639Y-111096895D01*
X124855639Y-111096895D02*
X124736591Y-111096895D01*
X124736591Y-111096895D02*
X124665163Y-111134990D01*
X124665163Y-111134990D02*
X124617544Y-111211180D01*
X124617544Y-111211180D02*
X124593734Y-111287371D01*
X124593734Y-111287371D02*
X124569925Y-111439752D01*
X124569925Y-111439752D02*
X124569925Y-111554038D01*
X124569925Y-111554038D02*
X124593734Y-111706419D01*
X124593734Y-111706419D02*
X124617544Y-111782609D01*
X124617544Y-111782609D02*
X124665163Y-111858800D01*
X124665163Y-111858800D02*
X124736591Y-111896895D01*
X124736591Y-111896895D02*
X124855639Y-111896895D01*
X124474687Y-111973085D02*
X124093734Y-111973085D01*
X123736592Y-111896895D02*
X123974687Y-111896895D01*
X123974687Y-111896895D02*
X123974687Y-111096895D01*
X123379449Y-111858800D02*
X123427068Y-111896895D01*
X123427068Y-111896895D02*
X123522306Y-111896895D01*
X123522306Y-111896895D02*
X123569925Y-111858800D01*
X123569925Y-111858800D02*
X123593734Y-111782609D01*
X123593734Y-111782609D02*
X123593734Y-111477847D01*
X123593734Y-111477847D02*
X123569925Y-111401657D01*
X123569925Y-111401657D02*
X123522306Y-111363561D01*
X123522306Y-111363561D02*
X123427068Y-111363561D01*
X123427068Y-111363561D02*
X123379449Y-111401657D01*
X123379449Y-111401657D02*
X123355639Y-111477847D01*
X123355639Y-111477847D02*
X123355639Y-111554038D01*
X123355639Y-111554038D02*
X123593734Y-111630228D01*
X122927068Y-111896895D02*
X122927068Y-111096895D01*
X122927068Y-111858800D02*
X122974687Y-111896895D01*
X122974687Y-111896895D02*
X123069925Y-111896895D01*
X123069925Y-111896895D02*
X123117544Y-111858800D01*
X123117544Y-111858800D02*
X123141354Y-111820704D01*
X123141354Y-111820704D02*
X123165163Y-111744514D01*
X123165163Y-111744514D02*
X123165163Y-111515942D01*
X123165163Y-111515942D02*
X123141354Y-111439752D01*
X123141354Y-111439752D02*
X123117544Y-111401657D01*
X123117544Y-111401657D02*
X123069925Y-111363561D01*
X123069925Y-111363561D02*
X122974687Y-111363561D01*
X122974687Y-111363561D02*
X122927068Y-111401657D01*
X125213258Y-97734990D02*
X125260877Y-97696895D01*
X125260877Y-97696895D02*
X125332306Y-97696895D01*
X125332306Y-97696895D02*
X125403734Y-97734990D01*
X125403734Y-97734990D02*
X125451353Y-97811180D01*
X125451353Y-97811180D02*
X125475163Y-97887371D01*
X125475163Y-97887371D02*
X125498972Y-98039752D01*
X125498972Y-98039752D02*
X125498972Y-98154038D01*
X125498972Y-98154038D02*
X125475163Y-98306419D01*
X125475163Y-98306419D02*
X125451353Y-98382609D01*
X125451353Y-98382609D02*
X125403734Y-98458800D01*
X125403734Y-98458800D02*
X125332306Y-98496895D01*
X125332306Y-98496895D02*
X125284687Y-98496895D01*
X125284687Y-98496895D02*
X125213258Y-98458800D01*
X125213258Y-98458800D02*
X125189449Y-98420704D01*
X125189449Y-98420704D02*
X125189449Y-98154038D01*
X125189449Y-98154038D02*
X125284687Y-98154038D01*
X124975163Y-98496895D02*
X124975163Y-97696895D01*
X124975163Y-97696895D02*
X124689449Y-98496895D01*
X124689449Y-98496895D02*
X124689449Y-97696895D01*
X124451353Y-98496895D02*
X124451353Y-97696895D01*
X124451353Y-97696895D02*
X124332305Y-97696895D01*
X124332305Y-97696895D02*
X124260877Y-97734990D01*
X124260877Y-97734990D02*
X124213258Y-97811180D01*
X124213258Y-97811180D02*
X124189448Y-97887371D01*
X124189448Y-97887371D02*
X124165639Y-98039752D01*
X124165639Y-98039752D02*
X124165639Y-98154038D01*
X124165639Y-98154038D02*
X124189448Y-98306419D01*
X124189448Y-98306419D02*
X124213258Y-98382609D01*
X124213258Y-98382609D02*
X124260877Y-98458800D01*
X124260877Y-98458800D02*
X124332305Y-98496895D01*
X124332305Y-98496895D02*
X124451353Y-98496895D01*
X151250163Y-98442133D02*
X150869211Y-98442133D01*
X151059687Y-98746895D02*
X151059687Y-98137371D01*
X150369210Y-98746895D02*
X150654924Y-98746895D01*
X150512067Y-98746895D02*
X150512067Y-97946895D01*
X150512067Y-97946895D02*
X150559686Y-98061180D01*
X150559686Y-98061180D02*
X150607305Y-98137371D01*
X150607305Y-98137371D02*
X150654924Y-98175466D01*
X150178734Y-98023085D02*
X150154925Y-97984990D01*
X150154925Y-97984990D02*
X150107306Y-97946895D01*
X150107306Y-97946895D02*
X149988258Y-97946895D01*
X149988258Y-97946895D02*
X149940639Y-97984990D01*
X149940639Y-97984990D02*
X149916830Y-98023085D01*
X149916830Y-98023085D02*
X149893020Y-98099276D01*
X149893020Y-98099276D02*
X149893020Y-98175466D01*
X149893020Y-98175466D02*
X149916830Y-98289752D01*
X149916830Y-98289752D02*
X150202544Y-98746895D01*
X150202544Y-98746895D02*
X149893020Y-98746895D01*
X149750163Y-97946895D02*
X149583497Y-98746895D01*
X149583497Y-98746895D02*
X149416830Y-97946895D01*
X139866666Y-95064895D02*
X139866666Y-95636323D01*
X139866666Y-95636323D02*
X139904761Y-95750609D01*
X139904761Y-95750609D02*
X139980952Y-95826800D01*
X139980952Y-95826800D02*
X140095237Y-95864895D01*
X140095237Y-95864895D02*
X140171428Y-95864895D01*
X139561904Y-95064895D02*
X139066666Y-95064895D01*
X139066666Y-95064895D02*
X139333332Y-95369657D01*
X139333332Y-95369657D02*
X139219047Y-95369657D01*
X139219047Y-95369657D02*
X139142856Y-95407752D01*
X139142856Y-95407752D02*
X139104761Y-95445847D01*
X139104761Y-95445847D02*
X139066666Y-95522038D01*
X139066666Y-95522038D02*
X139066666Y-95712514D01*
X139066666Y-95712514D02*
X139104761Y-95788704D01*
X139104761Y-95788704D02*
X139142856Y-95826800D01*
X139142856Y-95826800D02*
X139219047Y-95864895D01*
X139219047Y-95864895D02*
X139447618Y-95864895D01*
X139447618Y-95864895D02*
X139523809Y-95826800D01*
X139523809Y-95826800D02*
X139561904Y-95788704D01*
D11*
X140914285Y-96600390D02*
X140990475Y-96562295D01*
X140990475Y-96562295D02*
X141104761Y-96562295D01*
X141104761Y-96562295D02*
X141219047Y-96600390D01*
X141219047Y-96600390D02*
X141295237Y-96676580D01*
X141295237Y-96676580D02*
X141333332Y-96752771D01*
X141333332Y-96752771D02*
X141371428Y-96905152D01*
X141371428Y-96905152D02*
X141371428Y-97019438D01*
X141371428Y-97019438D02*
X141333332Y-97171819D01*
X141333332Y-97171819D02*
X141295237Y-97248009D01*
X141295237Y-97248009D02*
X141219047Y-97324200D01*
X141219047Y-97324200D02*
X141104761Y-97362295D01*
X141104761Y-97362295D02*
X141028570Y-97362295D01*
X141028570Y-97362295D02*
X140914285Y-97324200D01*
X140914285Y-97324200D02*
X140876189Y-97286104D01*
X140876189Y-97286104D02*
X140876189Y-97019438D01*
X140876189Y-97019438D02*
X141028570Y-97019438D01*
X140152380Y-97362295D02*
X140533332Y-97362295D01*
X140533332Y-97362295D02*
X140533332Y-96562295D01*
X139999999Y-96562295D02*
X139733332Y-97362295D01*
X139733332Y-97362295D02*
X139466666Y-96562295D01*
X139199999Y-97362295D02*
X139199999Y-96562295D01*
X139199999Y-96562295D02*
X138933333Y-97133723D01*
X138933333Y-97133723D02*
X138666666Y-96562295D01*
X138666666Y-96562295D02*
X138666666Y-97362295D01*
X138285713Y-97362295D02*
X138285713Y-96562295D01*
X138285713Y-96562295D02*
X137980951Y-96562295D01*
X137980951Y-96562295D02*
X137904761Y-96600390D01*
X137904761Y-96600390D02*
X137866666Y-96638485D01*
X137866666Y-96638485D02*
X137828570Y-96714676D01*
X137828570Y-96714676D02*
X137828570Y-96828961D01*
X137828570Y-96828961D02*
X137866666Y-96905152D01*
X137866666Y-96905152D02*
X137904761Y-96943247D01*
X137904761Y-96943247D02*
X137980951Y-96981342D01*
X137980951Y-96981342D02*
X138285713Y-96981342D01*
X155333333Y-94654819D02*
X155333333Y-95369104D01*
X155333333Y-95369104D02*
X155380952Y-95511961D01*
X155380952Y-95511961D02*
X155476190Y-95607200D01*
X155476190Y-95607200D02*
X155619047Y-95654819D01*
X155619047Y-95654819D02*
X155714285Y-95654819D01*
X154333333Y-95654819D02*
X154904761Y-95654819D01*
X154619047Y-95654819D02*
X154619047Y-94654819D01*
X154619047Y-94654819D02*
X154714285Y-94797676D01*
X154714285Y-94797676D02*
X154809523Y-94892914D01*
X154809523Y-94892914D02*
X154904761Y-94940533D01*
X160357143Y-97007200D02*
X160261905Y-97054819D01*
X160261905Y-97054819D02*
X160071429Y-97054819D01*
X160071429Y-97054819D02*
X159976191Y-97007200D01*
X159976191Y-97007200D02*
X159928572Y-96911961D01*
X159928572Y-96911961D02*
X159928572Y-96864342D01*
X159928572Y-96864342D02*
X159976191Y-96769104D01*
X159976191Y-96769104D02*
X160071429Y-96721485D01*
X160071429Y-96721485D02*
X160214286Y-96721485D01*
X160214286Y-96721485D02*
X160309524Y-96673866D01*
X160309524Y-96673866D02*
X160357143Y-96578628D01*
X160357143Y-96578628D02*
X160357143Y-96531009D01*
X160357143Y-96531009D02*
X160309524Y-96435771D01*
X160309524Y-96435771D02*
X160214286Y-96388152D01*
X160214286Y-96388152D02*
X160071429Y-96388152D01*
X160071429Y-96388152D02*
X159976191Y-96435771D01*
X159595238Y-96388152D02*
X159404762Y-97054819D01*
X159404762Y-97054819D02*
X159214286Y-96578628D01*
X159214286Y-96578628D02*
X159023810Y-97054819D01*
X159023810Y-97054819D02*
X158833334Y-96388152D01*
X158452381Y-96673866D02*
X157690477Y-96673866D01*
X157071429Y-97054819D02*
X157166667Y-97007200D01*
X157166667Y-97007200D02*
X157214286Y-96911961D01*
X157214286Y-96911961D02*
X157214286Y-96054819D01*
X156261905Y-97054819D02*
X156261905Y-96531009D01*
X156261905Y-96531009D02*
X156309524Y-96435771D01*
X156309524Y-96435771D02*
X156404762Y-96388152D01*
X156404762Y-96388152D02*
X156595238Y-96388152D01*
X156595238Y-96388152D02*
X156690476Y-96435771D01*
X156261905Y-97007200D02*
X156357143Y-97054819D01*
X156357143Y-97054819D02*
X156595238Y-97054819D01*
X156595238Y-97054819D02*
X156690476Y-97007200D01*
X156690476Y-97007200D02*
X156738095Y-96911961D01*
X156738095Y-96911961D02*
X156738095Y-96816723D01*
X156738095Y-96816723D02*
X156690476Y-96721485D01*
X156690476Y-96721485D02*
X156595238Y-96673866D01*
X156595238Y-96673866D02*
X156357143Y-96673866D01*
X156357143Y-96673866D02*
X156261905Y-96626247D01*
X155928571Y-96388152D02*
X155547619Y-96388152D01*
X155785714Y-96054819D02*
X155785714Y-96911961D01*
X155785714Y-96911961D02*
X155738095Y-97007200D01*
X155738095Y-97007200D02*
X155642857Y-97054819D01*
X155642857Y-97054819D02*
X155547619Y-97054819D01*
X154785714Y-97007200D02*
X154880952Y-97054819D01*
X154880952Y-97054819D02*
X155071428Y-97054819D01*
X155071428Y-97054819D02*
X155166666Y-97007200D01*
X155166666Y-97007200D02*
X155214285Y-96959580D01*
X155214285Y-96959580D02*
X155261904Y-96864342D01*
X155261904Y-96864342D02*
X155261904Y-96578628D01*
X155261904Y-96578628D02*
X155214285Y-96483390D01*
X155214285Y-96483390D02*
X155166666Y-96435771D01*
X155166666Y-96435771D02*
X155071428Y-96388152D01*
X155071428Y-96388152D02*
X154880952Y-96388152D01*
X154880952Y-96388152D02*
X154785714Y-96435771D01*
X154357142Y-97054819D02*
X154357142Y-96054819D01*
X153928571Y-97054819D02*
X153928571Y-96531009D01*
X153928571Y-96531009D02*
X153976190Y-96435771D01*
X153976190Y-96435771D02*
X154071428Y-96388152D01*
X154071428Y-96388152D02*
X154214285Y-96388152D01*
X154214285Y-96388152D02*
X154309523Y-96435771D01*
X154309523Y-96435771D02*
X154357142Y-96483390D01*
X153452380Y-97054819D02*
X153452380Y-96054819D01*
X153452380Y-96435771D02*
X153357142Y-96388152D01*
X153357142Y-96388152D02*
X153166666Y-96388152D01*
X153166666Y-96388152D02*
X153071428Y-96435771D01*
X153071428Y-96435771D02*
X153023809Y-96483390D01*
X153023809Y-96483390D02*
X152976190Y-96578628D01*
X152976190Y-96578628D02*
X152976190Y-96864342D01*
X152976190Y-96864342D02*
X153023809Y-96959580D01*
X153023809Y-96959580D02*
X153071428Y-97007200D01*
X153071428Y-97007200D02*
X153166666Y-97054819D01*
X153166666Y-97054819D02*
X153357142Y-97054819D01*
X153357142Y-97054819D02*
X153452380Y-97007200D01*
X152404761Y-97054819D02*
X152499999Y-97007200D01*
X152499999Y-97007200D02*
X152547618Y-96959580D01*
X152547618Y-96959580D02*
X152595237Y-96864342D01*
X152595237Y-96864342D02*
X152595237Y-96578628D01*
X152595237Y-96578628D02*
X152547618Y-96483390D01*
X152547618Y-96483390D02*
X152499999Y-96435771D01*
X152499999Y-96435771D02*
X152404761Y-96388152D01*
X152404761Y-96388152D02*
X152261904Y-96388152D01*
X152261904Y-96388152D02*
X152166666Y-96435771D01*
X152166666Y-96435771D02*
X152119047Y-96483390D01*
X152119047Y-96483390D02*
X152071428Y-96578628D01*
X152071428Y-96578628D02*
X152071428Y-96864342D01*
X152071428Y-96864342D02*
X152119047Y-96959580D01*
X152119047Y-96959580D02*
X152166666Y-97007200D01*
X152166666Y-97007200D02*
X152261904Y-97054819D01*
X152261904Y-97054819D02*
X152404761Y-97054819D01*
X151214285Y-97054819D02*
X151214285Y-96531009D01*
X151214285Y-96531009D02*
X151261904Y-96435771D01*
X151261904Y-96435771D02*
X151357142Y-96388152D01*
X151357142Y-96388152D02*
X151547618Y-96388152D01*
X151547618Y-96388152D02*
X151642856Y-96435771D01*
X151214285Y-97007200D02*
X151309523Y-97054819D01*
X151309523Y-97054819D02*
X151547618Y-97054819D01*
X151547618Y-97054819D02*
X151642856Y-97007200D01*
X151642856Y-97007200D02*
X151690475Y-96911961D01*
X151690475Y-96911961D02*
X151690475Y-96816723D01*
X151690475Y-96816723D02*
X151642856Y-96721485D01*
X151642856Y-96721485D02*
X151547618Y-96673866D01*
X151547618Y-96673866D02*
X151309523Y-96673866D01*
X151309523Y-96673866D02*
X151214285Y-96626247D01*
X150738094Y-97054819D02*
X150738094Y-96388152D01*
X150738094Y-96578628D02*
X150690475Y-96483390D01*
X150690475Y-96483390D02*
X150642856Y-96435771D01*
X150642856Y-96435771D02*
X150547618Y-96388152D01*
X150547618Y-96388152D02*
X150452380Y-96388152D01*
X149690475Y-97054819D02*
X149690475Y-96054819D01*
X149690475Y-97007200D02*
X149785713Y-97054819D01*
X149785713Y-97054819D02*
X149976189Y-97054819D01*
X149976189Y-97054819D02*
X150071427Y-97007200D01*
X150071427Y-97007200D02*
X150119046Y-96959580D01*
X150119046Y-96959580D02*
X150166665Y-96864342D01*
X150166665Y-96864342D02*
X150166665Y-96578628D01*
X150166665Y-96578628D02*
X150119046Y-96483390D01*
X150119046Y-96483390D02*
X150071427Y-96435771D01*
X150071427Y-96435771D02*
X149976189Y-96388152D01*
X149976189Y-96388152D02*
X149785713Y-96388152D01*
X149785713Y-96388152D02*
X149690475Y-96435771D01*
X125233333Y-94454819D02*
X125233333Y-95169104D01*
X125233333Y-95169104D02*
X125280952Y-95311961D01*
X125280952Y-95311961D02*
X125376190Y-95407200D01*
X125376190Y-95407200D02*
X125519047Y-95454819D01*
X125519047Y-95454819D02*
X125614285Y-95454819D01*
X124804761Y-94550057D02*
X124757142Y-94502438D01*
X124757142Y-94502438D02*
X124661904Y-94454819D01*
X124661904Y-94454819D02*
X124423809Y-94454819D01*
X124423809Y-94454819D02*
X124328571Y-94502438D01*
X124328571Y-94502438D02*
X124280952Y-94550057D01*
X124280952Y-94550057D02*
X124233333Y-94645295D01*
X124233333Y-94645295D02*
X124233333Y-94740533D01*
X124233333Y-94740533D02*
X124280952Y-94883390D01*
X124280952Y-94883390D02*
X124852380Y-95454819D01*
X124852380Y-95454819D02*
X124233333Y-95454819D01*
X130280953Y-97154819D02*
X130376191Y-97107200D01*
X130376191Y-97107200D02*
X130423810Y-97011961D01*
X130423810Y-97011961D02*
X130423810Y-96154819D01*
X129519048Y-97107200D02*
X129614286Y-97154819D01*
X129614286Y-97154819D02*
X129804762Y-97154819D01*
X129804762Y-97154819D02*
X129900000Y-97107200D01*
X129900000Y-97107200D02*
X129947619Y-97011961D01*
X129947619Y-97011961D02*
X129947619Y-96631009D01*
X129947619Y-96631009D02*
X129900000Y-96535771D01*
X129900000Y-96535771D02*
X129804762Y-96488152D01*
X129804762Y-96488152D02*
X129614286Y-96488152D01*
X129614286Y-96488152D02*
X129519048Y-96535771D01*
X129519048Y-96535771D02*
X129471429Y-96631009D01*
X129471429Y-96631009D02*
X129471429Y-96726247D01*
X129471429Y-96726247D02*
X129947619Y-96821485D01*
X128614286Y-97154819D02*
X128614286Y-96154819D01*
X128614286Y-97107200D02*
X128709524Y-97154819D01*
X128709524Y-97154819D02*
X128900000Y-97154819D01*
X128900000Y-97154819D02*
X128995238Y-97107200D01*
X128995238Y-97107200D02*
X129042857Y-97059580D01*
X129042857Y-97059580D02*
X129090476Y-96964342D01*
X129090476Y-96964342D02*
X129090476Y-96678628D01*
X129090476Y-96678628D02*
X129042857Y-96583390D01*
X129042857Y-96583390D02*
X128995238Y-96535771D01*
X128995238Y-96535771D02*
X128900000Y-96488152D01*
X128900000Y-96488152D02*
X128709524Y-96488152D01*
X128709524Y-96488152D02*
X128614286Y-96535771D01*
X128138095Y-96773866D02*
X127376191Y-96773866D01*
X126757143Y-97154819D02*
X126852381Y-97107200D01*
X126852381Y-97107200D02*
X126900000Y-97011961D01*
X126900000Y-97011961D02*
X126900000Y-96154819D01*
X125947619Y-97154819D02*
X125947619Y-96631009D01*
X125947619Y-96631009D02*
X125995238Y-96535771D01*
X125995238Y-96535771D02*
X126090476Y-96488152D01*
X126090476Y-96488152D02*
X126280952Y-96488152D01*
X126280952Y-96488152D02*
X126376190Y-96535771D01*
X125947619Y-97107200D02*
X126042857Y-97154819D01*
X126042857Y-97154819D02*
X126280952Y-97154819D01*
X126280952Y-97154819D02*
X126376190Y-97107200D01*
X126376190Y-97107200D02*
X126423809Y-97011961D01*
X126423809Y-97011961D02*
X126423809Y-96916723D01*
X126423809Y-96916723D02*
X126376190Y-96821485D01*
X126376190Y-96821485D02*
X126280952Y-96773866D01*
X126280952Y-96773866D02*
X126042857Y-96773866D01*
X126042857Y-96773866D02*
X125947619Y-96726247D01*
X125614285Y-96488152D02*
X125233333Y-96488152D01*
X125471428Y-96154819D02*
X125471428Y-97011961D01*
X125471428Y-97011961D02*
X125423809Y-97107200D01*
X125423809Y-97107200D02*
X125328571Y-97154819D01*
X125328571Y-97154819D02*
X125233333Y-97154819D01*
X124471428Y-97107200D02*
X124566666Y-97154819D01*
X124566666Y-97154819D02*
X124757142Y-97154819D01*
X124757142Y-97154819D02*
X124852380Y-97107200D01*
X124852380Y-97107200D02*
X124899999Y-97059580D01*
X124899999Y-97059580D02*
X124947618Y-96964342D01*
X124947618Y-96964342D02*
X124947618Y-96678628D01*
X124947618Y-96678628D02*
X124899999Y-96583390D01*
X124899999Y-96583390D02*
X124852380Y-96535771D01*
X124852380Y-96535771D02*
X124757142Y-96488152D01*
X124757142Y-96488152D02*
X124566666Y-96488152D01*
X124566666Y-96488152D02*
X124471428Y-96535771D01*
X124042856Y-97154819D02*
X124042856Y-96154819D01*
X123614285Y-97154819D02*
X123614285Y-96631009D01*
X123614285Y-96631009D02*
X123661904Y-96535771D01*
X123661904Y-96535771D02*
X123757142Y-96488152D01*
X123757142Y-96488152D02*
X123899999Y-96488152D01*
X123899999Y-96488152D02*
X123995237Y-96535771D01*
X123995237Y-96535771D02*
X124042856Y-96583390D01*
X123138094Y-97154819D02*
X123138094Y-96154819D01*
X123138094Y-96535771D02*
X123042856Y-96488152D01*
X123042856Y-96488152D02*
X122852380Y-96488152D01*
X122852380Y-96488152D02*
X122757142Y-96535771D01*
X122757142Y-96535771D02*
X122709523Y-96583390D01*
X122709523Y-96583390D02*
X122661904Y-96678628D01*
X122661904Y-96678628D02*
X122661904Y-96964342D01*
X122661904Y-96964342D02*
X122709523Y-97059580D01*
X122709523Y-97059580D02*
X122757142Y-97107200D01*
X122757142Y-97107200D02*
X122852380Y-97154819D01*
X122852380Y-97154819D02*
X123042856Y-97154819D01*
X123042856Y-97154819D02*
X123138094Y-97107200D01*
X122090475Y-97154819D02*
X122185713Y-97107200D01*
X122185713Y-97107200D02*
X122233332Y-97059580D01*
X122233332Y-97059580D02*
X122280951Y-96964342D01*
X122280951Y-96964342D02*
X122280951Y-96678628D01*
X122280951Y-96678628D02*
X122233332Y-96583390D01*
X122233332Y-96583390D02*
X122185713Y-96535771D01*
X122185713Y-96535771D02*
X122090475Y-96488152D01*
X122090475Y-96488152D02*
X121947618Y-96488152D01*
X121947618Y-96488152D02*
X121852380Y-96535771D01*
X121852380Y-96535771D02*
X121804761Y-96583390D01*
X121804761Y-96583390D02*
X121757142Y-96678628D01*
X121757142Y-96678628D02*
X121757142Y-96964342D01*
X121757142Y-96964342D02*
X121804761Y-97059580D01*
X121804761Y-97059580D02*
X121852380Y-97107200D01*
X121852380Y-97107200D02*
X121947618Y-97154819D01*
X121947618Y-97154819D02*
X122090475Y-97154819D01*
X120899999Y-97154819D02*
X120899999Y-96631009D01*
X120899999Y-96631009D02*
X120947618Y-96535771D01*
X120947618Y-96535771D02*
X121042856Y-96488152D01*
X121042856Y-96488152D02*
X121233332Y-96488152D01*
X121233332Y-96488152D02*
X121328570Y-96535771D01*
X120899999Y-97107200D02*
X120995237Y-97154819D01*
X120995237Y-97154819D02*
X121233332Y-97154819D01*
X121233332Y-97154819D02*
X121328570Y-97107200D01*
X121328570Y-97107200D02*
X121376189Y-97011961D01*
X121376189Y-97011961D02*
X121376189Y-96916723D01*
X121376189Y-96916723D02*
X121328570Y-96821485D01*
X121328570Y-96821485D02*
X121233332Y-96773866D01*
X121233332Y-96773866D02*
X120995237Y-96773866D01*
X120995237Y-96773866D02*
X120899999Y-96726247D01*
X120423808Y-97154819D02*
X120423808Y-96488152D01*
X120423808Y-96678628D02*
X120376189Y-96583390D01*
X120376189Y-96583390D02*
X120328570Y-96535771D01*
X120328570Y-96535771D02*
X120233332Y-96488152D01*
X120233332Y-96488152D02*
X120138094Y-96488152D01*
X119376189Y-97154819D02*
X119376189Y-96154819D01*
X119376189Y-97107200D02*
X119471427Y-97154819D01*
X119471427Y-97154819D02*
X119661903Y-97154819D01*
X119661903Y-97154819D02*
X119757141Y-97107200D01*
X119757141Y-97107200D02*
X119804760Y-97059580D01*
X119804760Y-97059580D02*
X119852379Y-96964342D01*
X119852379Y-96964342D02*
X119852379Y-96678628D01*
X119852379Y-96678628D02*
X119804760Y-96583390D01*
X119804760Y-96583390D02*
X119757141Y-96535771D01*
X119757141Y-96535771D02*
X119661903Y-96488152D01*
X119661903Y-96488152D02*
X119471427Y-96488152D01*
X119471427Y-96488152D02*
X119376189Y-96535771D01*
D10*
%TO.C,J3*%
X146100000Y-104800000D02*
G75*
G02*
X133100000Y-104800000I-6500000J0D01*
G01*
X133100000Y-104800000D02*
G75*
G02*
X146100000Y-104800000I6500000J0D01*
G01*
D12*
%TO.C,J1*%
X147930000Y-99240000D02*
X147930000Y-109060000D01*
X147930000Y-109060000D02*
X153130000Y-109060000D01*
X153130000Y-109060000D02*
X153130000Y-110460000D01*
X153130000Y-110460000D02*
X154940000Y-110460000D01*
X154940000Y-99240000D02*
X147930000Y-99240000D01*
X154940000Y-99240000D02*
X161950000Y-99240000D01*
X156750000Y-109060000D02*
X156750000Y-110460000D01*
X156750000Y-110460000D02*
X154940000Y-110460000D01*
X159340000Y-99000000D02*
X162190000Y-99000000D01*
X161950000Y-99240000D02*
X161950000Y-109060000D01*
X161950000Y-109060000D02*
X156750000Y-109060000D01*
X162190000Y-99000000D02*
X162190000Y-101850000D01*
%TO.C,J2*%
X117450000Y-99240000D02*
X117450000Y-109060000D01*
X117450000Y-109060000D02*
X122650000Y-109060000D01*
X122650000Y-109060000D02*
X122650000Y-110460000D01*
X122650000Y-110460000D02*
X124460000Y-110460000D01*
X124460000Y-99240000D02*
X117450000Y-99240000D01*
X124460000Y-99240000D02*
X131470000Y-99240000D01*
X126270000Y-109060000D02*
X126270000Y-110460000D01*
X126270000Y-110460000D02*
X124460000Y-110460000D01*
X128860000Y-99000000D02*
X131710000Y-99000000D01*
X131470000Y-99240000D02*
X131470000Y-109060000D01*
X131470000Y-109060000D02*
X126270000Y-109060000D01*
X131710000Y-99000000D02*
X131710000Y-101850000D01*
%TD*%
M02*
