%TF.GenerationSoftware,KiCad,Pcbnew,9.0.5*%
%TF.CreationDate,2026-02-28T09:23:41-08:00*%
%TF.ProjectId,Hi_board_bbc1,48695f62-6f61-4726-945f-626263312e6b,rev?*%
%TF.SameCoordinates,Original*%
%TF.FileFunction,Soldermask,Bot*%
%TF.FilePolarity,Negative*%
%FSLAX46Y46*%
G04 Gerber Fmt 4.6, Leading zero omitted, Abs format (unit mm)*
G04 Created by KiCad (PCBNEW 9.0.5) date 2026-02-28 09:23:41*
%MOMM*%
%LPD*%
G01*
G04 APERTURE LIST*
G04 Aperture macros list*
%AMRoundRect*
0 Rectangle with rounded corners*
0 $1 Rounding radius*
0 $2 $3 $4 $5 $6 $7 $8 $9 X,Y pos of 4 corners*
0 Add a 4 corners polygon primitive as box body*
4,1,4,$2,$3,$4,$5,$6,$7,$8,$9,$2,$3,0*
0 Add four circle primitives for the rounded corners*
1,1,$1+$1,$2,$3*
1,1,$1+$1,$4,$5*
1,1,$1+$1,$6,$7*
1,1,$1+$1,$8,$9*
0 Add four rect primitives between the rounded corners*
20,1,$1+$1,$2,$3,$4,$5,0*
20,1,$1+$1,$4,$5,$6,$7,0*
20,1,$1+$1,$6,$7,$8,$9,0*
20,1,$1+$1,$8,$9,$2,$3,0*%
G04 Aperture macros list end*
%ADD10C,3.000000*%
%ADD11C,1.600000*%
%ADD12C,2.000000*%
%ADD13R,1.800000X1.800000*%
%ADD14C,1.800000*%
%ADD15RoundRect,0.250001X1.099999X1.399999X-1.099999X1.399999X-1.099999X-1.399999X1.099999X-1.399999X0*%
%ADD16O,2.700000X3.300000*%
G04 APERTURE END LIST*
D10*
%TO.C,J3*%
X139600000Y-104800000D03*
%TD*%
D11*
%TO.C,R5*%
X152400000Y-127000000D03*
X152400000Y-116840000D03*
%TD*%
D12*
%TO.C,SW2*%
X139000000Y-148150000D03*
X139000000Y-141650000D03*
X143500000Y-148150000D03*
X143500000Y-141650000D03*
%TD*%
D11*
%TO.C,R4*%
X147320000Y-127000000D03*
X147320000Y-116840000D03*
%TD*%
%TO.C,R1*%
X116840000Y-116840000D03*
X116840000Y-127000000D03*
%TD*%
D12*
%TO.C,SW1*%
X121500000Y-148150000D03*
X121500000Y-141650000D03*
X126000000Y-148150000D03*
X126000000Y-141650000D03*
%TD*%
D11*
%TO.C,R2*%
X129540000Y-127000000D03*
X129540000Y-116840000D03*
%TD*%
D13*
%TO.C,D2*%
X139670000Y-121920000D03*
D14*
X142210000Y-121920000D03*
%TD*%
D11*
%TO.C,R6*%
X165100000Y-116840000D03*
X165100000Y-127000000D03*
%TD*%
D12*
%TO.C,SW3*%
X156500000Y-148150000D03*
X156500000Y-141650000D03*
X161000000Y-148150000D03*
X161000000Y-141650000D03*
%TD*%
D13*
%TO.C,D3*%
X157420000Y-121920000D03*
D14*
X159960000Y-121920000D03*
%TD*%
D13*
%TO.C,D1*%
X121920000Y-121920000D03*
D14*
X124460000Y-121920000D03*
%TD*%
D11*
%TO.C,R3*%
X134620000Y-116840000D03*
X134620000Y-127000000D03*
%TD*%
D15*
%TO.C,J1*%
X159140000Y-101600000D03*
D16*
X154940000Y-101600000D03*
X150740000Y-101600000D03*
X159140000Y-107100000D03*
X154940000Y-107100000D03*
X150740000Y-107100000D03*
%TD*%
D15*
%TO.C,J2*%
X128660000Y-101600000D03*
D16*
X124460000Y-101600000D03*
X120260000Y-101600000D03*
X128660000Y-107100000D03*
X124460000Y-107100000D03*
X120260000Y-107100000D03*
%TD*%
M02*
