%TF.GenerationSoftware,KiCad,Pcbnew,9.0.7*%
%TF.CreationDate,2026-04-05T22:59:27-07:00*%
%TF.ProjectId,PCC,5043432e-6b69-4636-9164-5f7063625858,rev?*%
%TF.SameCoordinates,Original*%
%TF.FileFunction,Paste,Bot*%
%TF.FilePolarity,Positive*%
%FSLAX46Y46*%
G04 Gerber Fmt 4.6, Leading zero omitted, Abs format (unit mm)*
G04 Created by KiCad (PCBNEW 9.0.7) date 2026-04-05 22:59:27*
%MOMM*%
%LPD*%
G01*
G04 APERTURE LIST*
G04 Aperture macros list*
%AMRoundRect*
0 Rectangle with rounded corners*
0 $1 Rounding radius*
0 $2 $3 $4 $5 $6 $7 $8 $9 X,Y pos of 4 corners*
0 Add a 4 corners polygon primitive as box body*
4,1,4,$2,$3,$4,$5,$6,$7,$8,$9,$2,$3,0*
0 Add four circle primitives for the rounded corners*
1,1,$1+$1,$2,$3*
1,1,$1+$1,$4,$5*
1,1,$1+$1,$6,$7*
1,1,$1+$1,$8,$9*
0 Add four rect primitives between the rounded corners*
20,1,$1+$1,$2,$3,$4,$5,0*
20,1,$1+$1,$4,$5,$6,$7,0*
20,1,$1+$1,$6,$7,$8,$9,0*
20,1,$1+$1,$8,$9,$2,$3,0*%
G04 Aperture macros list end*
%ADD10R,6.000000X6.000000*%
%ADD11RoundRect,0.250000X0.262500X0.450000X-0.262500X0.450000X-0.262500X-0.450000X0.262500X-0.450000X0*%
%ADD12RoundRect,0.250000X-0.350000X-0.450000X0.350000X-0.450000X0.350000X0.450000X-0.350000X0.450000X0*%
%ADD13RoundRect,0.250000X0.450000X-0.350000X0.450000X0.350000X-0.450000X0.350000X-0.450000X-0.350000X0*%
%ADD14RoundRect,0.250000X0.450000X-0.262500X0.450000X0.262500X-0.450000X0.262500X-0.450000X-0.262500X0*%
%ADD15RoundRect,0.250000X-0.362500X-1.425000X0.362500X-1.425000X0.362500X1.425000X-0.362500X1.425000X0*%
%ADD16RoundRect,0.250000X0.250000X0.475000X-0.250000X0.475000X-0.250000X-0.475000X0.250000X-0.475000X0*%
%ADD17RoundRect,0.250000X0.475000X-0.250000X0.475000X0.250000X-0.475000X0.250000X-0.475000X-0.250000X0*%
%ADD18RoundRect,0.250000X-0.475000X0.250000X-0.475000X-0.250000X0.475000X-0.250000X0.475000X0.250000X0*%
%ADD19RoundRect,0.250000X-0.262500X-0.450000X0.262500X-0.450000X0.262500X0.450000X-0.262500X0.450000X0*%
%ADD20RoundRect,0.250000X-0.450000X0.350000X-0.450000X-0.350000X0.450000X-0.350000X0.450000X0.350000X0*%
%ADD21RoundRect,0.250000X-0.450000X0.262500X-0.450000X-0.262500X0.450000X-0.262500X0.450000X0.262500X0*%
%ADD22RoundRect,0.250000X-0.250000X-0.475000X0.250000X-0.475000X0.250000X0.475000X-0.250000X0.475000X0*%
G04 APERTURE END LIST*
D10*
%TO.C,F9*%
X173745000Y-88265000D03*
X190745000Y-88265000D03*
%TD*%
D11*
%TO.C,R57*%
X156000000Y-81215250D03*
X154175000Y-81215250D03*
%TD*%
D12*
%TO.C,R17*%
X199491500Y-85852000D03*
X201491500Y-85852000D03*
%TD*%
D13*
%TO.C,R15*%
X231394000Y-125037500D03*
X231394000Y-123037500D03*
%TD*%
D14*
%TO.C,R40*%
X133350000Y-39878000D03*
X133350000Y-38053000D03*
%TD*%
D15*
%TO.C,R11*%
X180732500Y-149500000D03*
X186657500Y-149500000D03*
%TD*%
D12*
%TO.C,R16*%
X201396500Y-102108000D03*
X203396500Y-102108000D03*
%TD*%
D16*
%TO.C,C19*%
X106950000Y-23843250D03*
X105050000Y-23843250D03*
%TD*%
D12*
%TO.C,R14*%
X204571500Y-121412000D03*
X206571500Y-121412000D03*
%TD*%
D10*
%TO.C,F5*%
X213614000Y-151502000D03*
X213614000Y-134502000D03*
%TD*%
D17*
%TO.C,C16*%
X119250000Y-40700000D03*
X119250000Y-38800000D03*
%TD*%
D10*
%TO.C,F7*%
X226568000Y-150994000D03*
X226568000Y-133994000D03*
%TD*%
D15*
%TO.C,R12*%
X180552500Y-137160000D03*
X186477500Y-137160000D03*
%TD*%
D17*
%TO.C,C17*%
X116250000Y-67450000D03*
X116250000Y-65550000D03*
%TD*%
D18*
%TO.C,C22*%
X118872000Y-62362000D03*
X118872000Y-64262000D03*
%TD*%
D15*
%TO.C,R9*%
X164433750Y-149500000D03*
X170358750Y-149500000D03*
%TD*%
D17*
%TO.C,C15*%
X118750000Y-27700000D03*
X118750000Y-25800000D03*
%TD*%
D19*
%TO.C,R34*%
X129087500Y-24250000D03*
X130912500Y-24250000D03*
%TD*%
D14*
%TO.C,R33*%
X116000000Y-31912500D03*
X116000000Y-30087500D03*
%TD*%
D20*
%TO.C,R18*%
X230759000Y-108051500D03*
X230759000Y-110051500D03*
%TD*%
D16*
%TO.C,C21*%
X106950000Y-21343250D03*
X105050000Y-21343250D03*
%TD*%
D11*
%TO.C,R56*%
X131519500Y-85598000D03*
X129694500Y-85598000D03*
%TD*%
D15*
%TO.C,R7*%
X148135000Y-149500000D03*
X154060000Y-149500000D03*
%TD*%
D18*
%TO.C,C23*%
X115500000Y-60050000D03*
X115500000Y-61950000D03*
%TD*%
D10*
%TO.C,F10*%
X229235000Y-75955000D03*
X229235000Y-92955000D03*
%TD*%
D16*
%TO.C,C13*%
X121450000Y-23500000D03*
X119550000Y-23500000D03*
%TD*%
D15*
%TO.C,R5*%
X132927500Y-137160000D03*
X138852500Y-137160000D03*
%TD*%
D21*
%TO.C,R47*%
X119000000Y-66087500D03*
X119000000Y-67912500D03*
%TD*%
D11*
%TO.C,R50*%
X122682000Y-85598000D03*
X120857000Y-85598000D03*
%TD*%
D20*
%TO.C,R19*%
X225806000Y-100177500D03*
X225806000Y-102177500D03*
%TD*%
D11*
%TO.C,R54*%
X140432000Y-85598000D03*
X138607000Y-85598000D03*
%TD*%
%TO.C,R58*%
X151574000Y-81215250D03*
X149749000Y-81215250D03*
%TD*%
%TO.C,R60*%
X142704000Y-81215250D03*
X140879000Y-81215250D03*
%TD*%
D10*
%TO.C,F6*%
X185175000Y-112395000D03*
X202175000Y-112395000D03*
%TD*%
D11*
%TO.C,R55*%
X135857000Y-85598000D03*
X134032000Y-85598000D03*
%TD*%
D17*
%TO.C,C11*%
X118750000Y-34700000D03*
X118750000Y-32800000D03*
%TD*%
D13*
%TO.C,R13*%
X225171000Y-125037500D03*
X225171000Y-123037500D03*
%TD*%
D10*
%TO.C,F8*%
X172475000Y-100330000D03*
X189475000Y-100330000D03*
%TD*%
D11*
%TO.C,R51*%
X138269000Y-81215250D03*
X136444000Y-81215250D03*
%TD*%
D15*
%TO.C,R8*%
X148802500Y-137160000D03*
X154727500Y-137160000D03*
%TD*%
D10*
%TO.C,F11*%
X213360000Y-75955000D03*
X213360000Y-92955000D03*
%TD*%
D15*
%TO.C,R1*%
X115537500Y-149500000D03*
X121462500Y-149500000D03*
%TD*%
D11*
%TO.C,R53*%
X144857000Y-85598000D03*
X143032000Y-85598000D03*
%TD*%
D22*
%TO.C,C14*%
X121300000Y-36750000D03*
X123200000Y-36750000D03*
%TD*%
D11*
%TO.C,R52*%
X134288500Y-81215250D03*
X132463500Y-81215250D03*
%TD*%
D17*
%TO.C,C12*%
X118500000Y-47200000D03*
X118500000Y-45300000D03*
%TD*%
D14*
%TO.C,R39*%
X116000000Y-45162500D03*
X116000000Y-43337500D03*
%TD*%
D15*
%TO.C,R2*%
X117052500Y-137160000D03*
X122977500Y-137160000D03*
%TD*%
D11*
%TO.C,R59*%
X147139000Y-81215250D03*
X145314000Y-81215250D03*
%TD*%
D15*
%TO.C,R10*%
X164677500Y-137160000D03*
X170602500Y-137160000D03*
%TD*%
D11*
%TO.C,R49*%
X126932000Y-85598000D03*
X125107000Y-85598000D03*
%TD*%
D15*
%TO.C,R4*%
X131836250Y-149500000D03*
X137761250Y-149500000D03*
%TD*%
M02*
