%TF.GenerationSoftware,KiCad,Pcbnew,9.0.7*%
%TF.CreationDate,2026-04-05T22:59:27-07:00*%
%TF.ProjectId,PCC,5043432e-6b69-4636-9164-5f7063625858,rev?*%
%TF.SameCoordinates,Original*%
%TF.FileFunction,Paste,Top*%
%TF.FilePolarity,Positive*%
%FSLAX46Y46*%
G04 Gerber Fmt 4.6, Leading zero omitted, Abs format (unit mm)*
G04 Created by KiCad (PCBNEW 9.0.7) date 2026-04-05 22:59:27*
%MOMM*%
%LPD*%
G01*
G04 APERTURE LIST*
G04 Aperture macros list*
%AMRoundRect*
0 Rectangle with rounded corners*
0 $1 Rounding radius*
0 $2 $3 $4 $5 $6 $7 $8 $9 X,Y pos of 4 corners*
0 Add a 4 corners polygon primitive as box body*
4,1,4,$2,$3,$4,$5,$6,$7,$8,$9,$2,$3,0*
0 Add four circle primitives for the rounded corners*
1,1,$1+$1,$2,$3*
1,1,$1+$1,$4,$5*
1,1,$1+$1,$6,$7*
1,1,$1+$1,$8,$9*
0 Add four rect primitives between the rounded corners*
20,1,$1+$1,$2,$3,$4,$5,0*
20,1,$1+$1,$4,$5,$6,$7,0*
20,1,$1+$1,$6,$7,$8,$9,0*
20,1,$1+$1,$8,$9,$2,$3,0*%
G04 Aperture macros list end*
%ADD10RoundRect,0.250000X0.475000X-0.250000X0.475000X0.250000X-0.475000X0.250000X-0.475000X-0.250000X0*%
%ADD11RoundRect,0.250000X-0.262500X-0.450000X0.262500X-0.450000X0.262500X0.450000X-0.262500X0.450000X0*%
%ADD12RoundRect,0.150000X-0.150000X0.512500X-0.150000X-0.512500X0.150000X-0.512500X0.150000X0.512500X0*%
%ADD13RoundRect,0.250000X0.450000X-0.262500X0.450000X0.262500X-0.450000X0.262500X-0.450000X-0.262500X0*%
%ADD14RoundRect,0.250000X0.262500X0.450000X-0.262500X0.450000X-0.262500X-0.450000X0.262500X-0.450000X0*%
%ADD15RoundRect,0.250000X-0.475000X0.250000X-0.475000X-0.250000X0.475000X-0.250000X0.475000X0.250000X0*%
%ADD16RoundRect,0.250000X-0.450000X0.262500X-0.450000X-0.262500X0.450000X-0.262500X0.450000X0.262500X0*%
%ADD17RoundRect,0.150000X-0.150000X0.825000X-0.150000X-0.825000X0.150000X-0.825000X0.150000X0.825000X0*%
%ADD18RoundRect,0.250000X-0.250000X-0.475000X0.250000X-0.475000X0.250000X0.475000X-0.250000X0.475000X0*%
G04 APERTURE END LIST*
D10*
%TO.C,C6*%
X87122000Y-79700000D03*
X87122000Y-77800000D03*
%TD*%
D11*
%TO.C,R38*%
X104116500Y-45500000D03*
X105941500Y-45500000D03*
%TD*%
D12*
%TO.C,D3*%
X61275000Y-56012500D03*
X59375000Y-56012500D03*
X60325000Y-58287500D03*
%TD*%
D13*
%TO.C,R28*%
X57845000Y-49662500D03*
X57845000Y-47837500D03*
%TD*%
D14*
%TO.C,R23*%
X59007500Y-35250000D03*
X57182500Y-35250000D03*
%TD*%
%TO.C,R32*%
X89412500Y-32500000D03*
X87587500Y-32500000D03*
%TD*%
D11*
%TO.C,J10*%
X119337500Y-55750000D03*
X121162500Y-55750000D03*
%TD*%
D14*
%TO.C,R44*%
X126912500Y-48000000D03*
X125087500Y-48000000D03*
%TD*%
D11*
%TO.C,R37*%
X108077000Y-45500000D03*
X109902000Y-45500000D03*
%TD*%
D15*
%TO.C,C24*%
X86750000Y-15850000D03*
X86750000Y-17750000D03*
%TD*%
D13*
%TO.C,R43*%
X125500000Y-35412500D03*
X125500000Y-33587500D03*
%TD*%
%TO.C,R22*%
X62845000Y-38412500D03*
X62845000Y-36587500D03*
%TD*%
D16*
%TO.C,R45*%
X116000000Y-51837500D03*
X116000000Y-53662500D03*
%TD*%
D17*
%TO.C,U1*%
X60655000Y-40762500D03*
X59385000Y-40762500D03*
X58115000Y-40762500D03*
X56845000Y-40762500D03*
X56845000Y-45712500D03*
X58115000Y-45712500D03*
X59385000Y-45712500D03*
X60655000Y-45712500D03*
%TD*%
D16*
%TO.C,R42*%
X133350000Y-41803000D03*
X133350000Y-43628000D03*
%TD*%
D14*
%TO.C,J11*%
X116162500Y-55750000D03*
X114337500Y-55750000D03*
%TD*%
D16*
%TO.C,R41*%
X130683000Y-26837500D03*
X130683000Y-28662500D03*
%TD*%
D13*
%TO.C,R26*%
X92000000Y-71662500D03*
X92000000Y-69837500D03*
%TD*%
D18*
%TO.C,C3*%
X57645000Y-32000000D03*
X59545000Y-32000000D03*
%TD*%
%TO.C,C8*%
X87550000Y-45250000D03*
X89450000Y-45250000D03*
%TD*%
D10*
%TO.C,C1*%
X89000000Y-56950000D03*
X89000000Y-55050000D03*
%TD*%
D14*
%TO.C,R31*%
X89412500Y-43000000D03*
X87587500Y-43000000D03*
%TD*%
D11*
%TO.C,R36*%
X103837500Y-35250000D03*
X105662500Y-35250000D03*
%TD*%
D13*
%TO.C,R21*%
X86750000Y-56912500D03*
X86750000Y-55087500D03*
%TD*%
D11*
%TO.C,R35*%
X107337500Y-35250000D03*
X109162500Y-35250000D03*
%TD*%
D15*
%TO.C,C5*%
X58845000Y-51462500D03*
X58845000Y-53362500D03*
%TD*%
D18*
%TO.C,C18*%
X85349000Y-26253000D03*
X87249000Y-26253000D03*
%TD*%
D11*
%TO.C,R24*%
X62315000Y-44762500D03*
X64140000Y-44762500D03*
%TD*%
D15*
%TO.C,C26*%
X89250000Y-15850000D03*
X89250000Y-17750000D03*
%TD*%
D13*
%TO.C,R20*%
X86750000Y-60325000D03*
X86750000Y-58500000D03*
%TD*%
D18*
%TO.C,C2*%
X57645000Y-29750000D03*
X59545000Y-29750000D03*
%TD*%
D16*
%TO.C,R48*%
X110750000Y-65587500D03*
X110750000Y-67412500D03*
%TD*%
D10*
%TO.C,C4*%
X89250000Y-71700000D03*
X89250000Y-69800000D03*
%TD*%
D16*
%TO.C,R46*%
X119500000Y-51837500D03*
X119500000Y-53662500D03*
%TD*%
D18*
%TO.C,C20*%
X85349000Y-24003000D03*
X87249000Y-24003000D03*
%TD*%
%TO.C,C25*%
X87550000Y-38750000D03*
X89450000Y-38750000D03*
%TD*%
D16*
%TO.C,R27*%
X59845000Y-47837500D03*
X59845000Y-49662500D03*
%TD*%
D18*
%TO.C,C7*%
X87550000Y-34750000D03*
X89450000Y-34750000D03*
%TD*%
D13*
%TO.C,R30*%
X89357200Y-79599800D03*
X89357200Y-77774800D03*
%TD*%
M02*
