%TF.GenerationSoftware,KiCad,Pcbnew,9.0.7*%
%TF.CreationDate,2026-04-05T22:59:27-07:00*%
%TF.ProjectId,PCC,5043432e-6b69-4636-9164-5f7063625858,rev?*%
%TF.SameCoordinates,Original*%
%TF.FileFunction,Soldermask,Bot*%
%TF.FilePolarity,Negative*%
%FSLAX46Y46*%
G04 Gerber Fmt 4.6, Leading zero omitted, Abs format (unit mm)*
G04 Created by KiCad (PCBNEW 9.0.7) date 2026-04-05 22:59:27*
%MOMM*%
%LPD*%
G01*
G04 APERTURE LIST*
G04 Aperture macros list*
%AMRoundRect*
0 Rectangle with rounded corners*
0 $1 Rounding radius*
0 $2 $3 $4 $5 $6 $7 $8 $9 X,Y pos of 4 corners*
0 Add a 4 corners polygon primitive as box body*
4,1,4,$2,$3,$4,$5,$6,$7,$8,$9,$2,$3,0*
0 Add four circle primitives for the rounded corners*
1,1,$1+$1,$2,$3*
1,1,$1+$1,$4,$5*
1,1,$1+$1,$6,$7*
1,1,$1+$1,$8,$9*
0 Add four rect primitives between the rounded corners*
20,1,$1+$1,$2,$3,$4,$5,0*
20,1,$1+$1,$4,$5,$6,$7,0*
20,1,$1+$1,$6,$7,$8,$9,0*
20,1,$1+$1,$8,$9,$2,$3,0*%
G04 Aperture macros list end*
%ADD10C,1.726200*%
%ADD11C,1.576200*%
%ADD12C,0.010000*%
%ADD13R,1.350000X1.350000*%
%ADD14C,1.350000*%
%ADD15C,3.000000*%
%ADD16RoundRect,0.250001X-1.399999X1.099999X-1.399999X-1.099999X1.399999X-1.099999X1.399999X1.099999X0*%
%ADD17O,3.300000X2.700000*%
%ADD18C,1.304000*%
%ADD19C,2.500000*%
%ADD20C,3.600000*%
%ADD21C,5.600000*%
%ADD22C,3.500000*%
%ADD23R,1.905000X2.000000*%
%ADD24O,1.905000X2.000000*%
%ADD25C,2.362200*%
%ADD26C,1.524000*%
%ADD27C,1.727200*%
%ADD28C,3.022600*%
%ADD29RoundRect,0.250000X-0.550000X-0.550000X0.550000X-0.550000X0.550000X0.550000X-0.550000X0.550000X0*%
%ADD30C,1.600000*%
%ADD31RoundRect,0.250001X-1.099999X-1.399999X1.099999X-1.399999X1.099999X1.399999X-1.099999X1.399999X0*%
%ADD32O,2.700000X3.300000*%
%ADD33R,1.450000X1.450000*%
%ADD34C,1.450000*%
%ADD35RoundRect,0.249999X-0.850001X-0.850001X0.850001X-0.850001X0.850001X0.850001X-0.850001X0.850001X0*%
%ADD36C,2.200000*%
%ADD37RoundRect,0.250001X1.399999X-1.099999X1.399999X1.099999X-1.399999X1.099999X-1.399999X-1.099999X0*%
%ADD38R,1.371600X1.371600*%
%ADD39C,1.371600*%
%ADD40RoundRect,0.250000X0.550000X0.550000X-0.550000X0.550000X-0.550000X-0.550000X0.550000X-0.550000X0*%
%ADD41C,1.905000*%
%ADD42RoundRect,0.249999X-0.850001X0.850001X-0.850001X-0.850001X0.850001X-0.850001X0.850001X0.850001X0*%
%ADD43C,8.400000*%
%ADD44R,2.000000X1.905000*%
%ADD45O,2.000000X1.905000*%
%ADD46R,6.000000X6.000000*%
%ADD47RoundRect,0.250000X0.262500X0.450000X-0.262500X0.450000X-0.262500X-0.450000X0.262500X-0.450000X0*%
%ADD48RoundRect,0.250000X-0.350000X-0.450000X0.350000X-0.450000X0.350000X0.450000X-0.350000X0.450000X0*%
%ADD49RoundRect,0.250000X0.450000X-0.350000X0.450000X0.350000X-0.450000X0.350000X-0.450000X-0.350000X0*%
%ADD50RoundRect,0.250000X0.450000X-0.262500X0.450000X0.262500X-0.450000X0.262500X-0.450000X-0.262500X0*%
%ADD51RoundRect,0.250000X-0.362500X-1.425000X0.362500X-1.425000X0.362500X1.425000X-0.362500X1.425000X0*%
%ADD52RoundRect,0.250000X0.250000X0.475000X-0.250000X0.475000X-0.250000X-0.475000X0.250000X-0.475000X0*%
%ADD53RoundRect,0.250000X0.475000X-0.250000X0.475000X0.250000X-0.475000X0.250000X-0.475000X-0.250000X0*%
%ADD54RoundRect,0.250000X-0.475000X0.250000X-0.475000X-0.250000X0.475000X-0.250000X0.475000X0.250000X0*%
%ADD55RoundRect,0.250000X-0.262500X-0.450000X0.262500X-0.450000X0.262500X0.450000X-0.262500X0.450000X0*%
%ADD56RoundRect,0.250000X-0.450000X0.350000X-0.450000X-0.350000X0.450000X-0.350000X0.450000X0.350000X0*%
%ADD57RoundRect,0.250000X-0.450000X0.262500X-0.450000X-0.262500X0.450000X-0.262500X0.450000X0.262500X0*%
%ADD58RoundRect,0.250000X-0.250000X-0.475000X0.250000X-0.475000X0.250000X0.475000X-0.250000X0.475000X0*%
G04 APERTURE END LIST*
D10*
%TO.C,DCDC1*%
X204863100Y-50350000D02*
G75*
G02*
X203136900Y-50350000I-863100J0D01*
G01*
X203136900Y-50350000D02*
G75*
G02*
X204863100Y-50350000I863100J0D01*
G01*
D11*
X205238100Y-44620000D02*
G75*
G02*
X203661900Y-44620000I-788100J0D01*
G01*
X203661900Y-44620000D02*
G75*
G02*
X205238100Y-44620000I788100J0D01*
G01*
X205238100Y-66080000D02*
G75*
G02*
X203661900Y-66080000I-788100J0D01*
G01*
X203661900Y-66080000D02*
G75*
G02*
X205238100Y-66080000I788100J0D01*
G01*
D10*
X209263100Y-50350000D02*
G75*
G02*
X207536900Y-50350000I-863100J0D01*
G01*
X207536900Y-50350000D02*
G75*
G02*
X209263100Y-50350000I863100J0D01*
G01*
D12*
X205726200Y-62076200D02*
X202273800Y-62076200D01*
X202273800Y-58623800D01*
X205726200Y-58623800D01*
X205726200Y-62076200D01*
G36*
X205726200Y-62076200D02*
G01*
X202273800Y-62076200D01*
X202273800Y-58623800D01*
X205726200Y-58623800D01*
X205726200Y-62076200D01*
G37*
X210126200Y-62076200D02*
X206673800Y-62076200D01*
X206673800Y-58623800D01*
X210126200Y-58623800D01*
X210126200Y-62076200D01*
G36*
X210126200Y-62076200D02*
G01*
X206673800Y-62076200D01*
X206673800Y-58623800D01*
X210126200Y-58623800D01*
X210126200Y-62076200D01*
G37*
D10*
%TO.C,HVIN1*%
X144938100Y-28590000D02*
G75*
G02*
X143211900Y-28590000I-863100J0D01*
G01*
X143211900Y-28590000D02*
G75*
G02*
X144938100Y-28590000I863100J0D01*
G01*
X144938100Y-38590000D02*
G75*
G02*
X143211900Y-38590000I-863100J0D01*
G01*
X143211900Y-38590000D02*
G75*
G02*
X144938100Y-38590000I863100J0D01*
G01*
X144938100Y-48590000D02*
G75*
G02*
X143211900Y-48590000I-863100J0D01*
G01*
X143211900Y-48590000D02*
G75*
G02*
X144938100Y-48590000I863100J0D01*
G01*
D11*
X145313100Y-22860000D02*
G75*
G02*
X143736900Y-22860000I-788100J0D01*
G01*
X143736900Y-22860000D02*
G75*
G02*
X145313100Y-22860000I788100J0D01*
G01*
X145313100Y-64320000D02*
G75*
G02*
X143736900Y-64320000I-788100J0D01*
G01*
X143736900Y-64320000D02*
G75*
G02*
X145313100Y-64320000I788100J0D01*
G01*
D10*
X149338100Y-28590000D02*
G75*
G02*
X147611900Y-28590000I-863100J0D01*
G01*
X147611900Y-28590000D02*
G75*
G02*
X149338100Y-28590000I863100J0D01*
G01*
X149338100Y-38590000D02*
G75*
G02*
X147611900Y-38590000I-863100J0D01*
G01*
X147611900Y-38590000D02*
G75*
G02*
X149338100Y-38590000I863100J0D01*
G01*
X149338100Y-48590000D02*
G75*
G02*
X147611900Y-48590000I-863100J0D01*
G01*
X147611900Y-48590000D02*
G75*
G02*
X149338100Y-48590000I863100J0D01*
G01*
D12*
X145801200Y-60316200D02*
X142348800Y-60316200D01*
X142348800Y-56863800D01*
X145801200Y-56863800D01*
X145801200Y-60316200D01*
G36*
X145801200Y-60316200D02*
G01*
X142348800Y-60316200D01*
X142348800Y-56863800D01*
X145801200Y-56863800D01*
X145801200Y-60316200D01*
G37*
X150201200Y-60316200D02*
X146748800Y-60316200D01*
X146748800Y-56863800D01*
X150201200Y-56863800D01*
X150201200Y-60316200D01*
G36*
X150201200Y-60316200D02*
G01*
X146748800Y-60316200D01*
X146748800Y-56863800D01*
X150201200Y-56863800D01*
X150201200Y-60316200D01*
G37*
D10*
%TO.C,Charger1*%
X204453100Y-32500000D02*
G75*
G02*
X202726900Y-32500000I-863100J0D01*
G01*
X202726900Y-32500000D02*
G75*
G02*
X204453100Y-32500000I863100J0D01*
G01*
D11*
X208328100Y-16770000D02*
G75*
G02*
X206751900Y-16770000I-788100J0D01*
G01*
X206751900Y-16770000D02*
G75*
G02*
X208328100Y-16770000I788100J0D01*
G01*
X208328100Y-38230000D02*
G75*
G02*
X206751900Y-38230000I-788100J0D01*
G01*
X206751900Y-38230000D02*
G75*
G02*
X208328100Y-38230000I788100J0D01*
G01*
D10*
X208853100Y-32500000D02*
G75*
G02*
X207126900Y-32500000I-863100J0D01*
G01*
X207126900Y-32500000D02*
G75*
G02*
X208853100Y-32500000I863100J0D01*
G01*
D12*
X205316200Y-24226200D02*
X201863800Y-24226200D01*
X201863800Y-20773800D01*
X205316200Y-20773800D01*
X205316200Y-24226200D01*
G36*
X205316200Y-24226200D02*
G01*
X201863800Y-24226200D01*
X201863800Y-20773800D01*
X205316200Y-20773800D01*
X205316200Y-24226200D01*
G37*
X209716200Y-24226200D02*
X206263800Y-24226200D01*
X206263800Y-20773800D01*
X209716200Y-20773800D01*
X209716200Y-24226200D01*
G36*
X209716200Y-24226200D02*
G01*
X206263800Y-24226200D01*
X206263800Y-20773800D01*
X209716200Y-20773800D01*
X209716200Y-24226200D01*
G37*
%TD*%
D13*
%TO.C,R29*%
X92250000Y-82000000D03*
D14*
X92250000Y-80000000D03*
%TD*%
D15*
%TO.C,J7*%
X78220000Y-68638000D03*
X78220000Y-82238000D03*
D16*
X83260000Y-73338000D03*
D17*
X83260000Y-77538000D03*
X77760000Y-73338000D03*
X77760000Y-77538000D03*
%TD*%
D15*
%TO.C,DCDC1*%
X204450000Y-44620000D03*
X204450000Y-66080000D03*
%TD*%
D18*
%TO.C,C9*%
X125500000Y-25000000D03*
X125500000Y-30000000D03*
%TD*%
D19*
%TO.C,R3*%
X112000000Y-142000000D03*
X200000000Y-142000000D03*
%TD*%
D20*
%TO.C,H2*%
X233500000Y-158750000D03*
D21*
X233500000Y-158750000D03*
%TD*%
D22*
%TO.C,Q1*%
X89509600Y-87616800D03*
D23*
X86969600Y-104276800D03*
D24*
X89509600Y-104276800D03*
X92049600Y-104276800D03*
%TD*%
D25*
%TO.C,J2*%
X219269150Y-103825403D03*
X219269150Y-108025403D03*
X219269150Y-112225399D03*
X219269150Y-116425398D03*
X219269150Y-120625398D03*
X219269150Y-124825397D03*
X213769151Y-103825403D03*
X213769151Y-108025403D03*
X213769151Y-112225399D03*
X213769151Y-116425398D03*
X213769151Y-120625398D03*
X213769151Y-124825397D03*
%TD*%
D26*
%TO.C,K2*%
X93141352Y-114275100D03*
X93141352Y-116815100D03*
D27*
X93141352Y-124435100D03*
X93141352Y-132055100D03*
%TD*%
D28*
%TO.C,J3*%
X52237800Y-71868797D03*
X70037800Y-71868797D03*
D25*
X65337799Y-76259798D03*
X61137800Y-76259798D03*
X56937801Y-76259798D03*
X65337799Y-72059800D03*
X61137800Y-72059800D03*
X56937801Y-72059800D03*
%TD*%
D29*
%TO.C,J4*%
X66875000Y-31535000D03*
D30*
X66875000Y-34075000D03*
X66875000Y-36615000D03*
X66875000Y-39155000D03*
X66875000Y-41695000D03*
X66875000Y-44235000D03*
X66875000Y-46775000D03*
X66875000Y-49315000D03*
X66875000Y-51855000D03*
X66875000Y-54395000D03*
X66875000Y-56935000D03*
X66875000Y-59475000D03*
X66875000Y-62015000D03*
X66875000Y-64555000D03*
X82115000Y-64555000D03*
X82115000Y-62015000D03*
X82115000Y-59475000D03*
X82115000Y-56935000D03*
X82115000Y-54395000D03*
X82115000Y-51855000D03*
X82115000Y-49315000D03*
X82115000Y-46775000D03*
X82115000Y-44235000D03*
X82115000Y-41695000D03*
X82115000Y-39155000D03*
X82115000Y-36615000D03*
X82115000Y-34075000D03*
X82115000Y-31535000D03*
%TD*%
D15*
%TO.C,J8*%
X52550000Y-129830000D03*
X66150000Y-129830000D03*
D31*
X57250000Y-124790000D03*
D32*
X61450000Y-124790000D03*
X57250000Y-130290000D03*
X61450000Y-130290000D03*
%TD*%
D20*
%TO.C,H1*%
X233500000Y-21200000D03*
D21*
X233500000Y-21200000D03*
%TD*%
D33*
%TO.C,U6*%
X92025000Y-17810000D03*
D34*
X94565000Y-17810000D03*
X104725000Y-17810000D03*
X107265000Y-17810000D03*
X109805000Y-17810000D03*
%TD*%
D35*
%TO.C,D2*%
X83420000Y-107500000D03*
D36*
X93580000Y-107500000D03*
%TD*%
D13*
%TO.C,R25*%
X92250000Y-76500000D03*
D14*
X92250000Y-74500000D03*
%TD*%
D15*
%TO.C,SDC1*%
X68290000Y-108450000D03*
X68290000Y-99050000D03*
D37*
X63250000Y-103750000D03*
D17*
X68750000Y-103750000D03*
%TD*%
D15*
%TO.C,J6*%
X52300000Y-115330000D03*
X65900000Y-115330000D03*
D31*
X57000000Y-110290000D03*
D32*
X61200000Y-110290000D03*
X57000000Y-115790000D03*
X61200000Y-115790000D03*
%TD*%
D28*
%TO.C,J5*%
X52400001Y-88108999D03*
X70200001Y-88108999D03*
D25*
X65500000Y-92500000D03*
X61300001Y-92500000D03*
X57100002Y-92500000D03*
X65500000Y-88300002D03*
X61300001Y-88300002D03*
X57100002Y-88300002D03*
%TD*%
D18*
%TO.C,C10*%
X127750000Y-39130000D03*
X127750000Y-44130000D03*
%TD*%
D15*
%TO.C,J12*%
X52856400Y-160082800D03*
X66456400Y-160082800D03*
D31*
X57556400Y-155042800D03*
D32*
X61756400Y-155042800D03*
X57556400Y-160542800D03*
X61756400Y-160542800D03*
%TD*%
D38*
%TO.C,U7*%
X121120000Y-67667500D03*
D39*
X121120000Y-65127500D03*
X121120000Y-62587500D03*
X121120000Y-60047500D03*
X113500000Y-60047500D03*
X113500000Y-62587500D03*
X113500000Y-65127500D03*
X113500000Y-67667500D03*
%TD*%
D15*
%TO.C,J9*%
X52300000Y-143580000D03*
X65900000Y-143580000D03*
D31*
X57000000Y-138540000D03*
D32*
X61200000Y-138540000D03*
X57000000Y-144040000D03*
X61200000Y-144040000D03*
%TD*%
D19*
%TO.C,R6*%
X200210000Y-94080000D03*
X112210000Y-94080000D03*
%TD*%
D40*
%TO.C,U2*%
X101195253Y-35040253D03*
D30*
X101195253Y-32500253D03*
X101195253Y-29960253D03*
X93575253Y-29960253D03*
X93575253Y-32500253D03*
X93575253Y-35040253D03*
%TD*%
D15*
%TO.C,HVIN1*%
X144525000Y-22860000D03*
X144525000Y-64320000D03*
%TD*%
D41*
%TO.C,F4*%
X158750000Y-62750000D03*
X193750000Y-62750000D03*
%TD*%
D40*
%TO.C,U3*%
X101195253Y-45540253D03*
D30*
X101195253Y-43000253D03*
X101195253Y-40460253D03*
X93575253Y-40460253D03*
X93575253Y-43000253D03*
X93575253Y-45540253D03*
%TD*%
D29*
%TO.C,U4*%
X113500000Y-26460000D03*
D30*
X113500000Y-29000000D03*
X113500000Y-31540000D03*
X113500000Y-34080000D03*
X121120000Y-34080000D03*
X121120000Y-31540000D03*
X121120000Y-29000000D03*
X121120000Y-26460000D03*
%TD*%
D15*
%TO.C,SDC2*%
X82562000Y-134113000D03*
X82562000Y-124713000D03*
D37*
X77522000Y-129413000D03*
D17*
X83022000Y-129413000D03*
%TD*%
D22*
%TO.C,Q2*%
X78250000Y-87683200D03*
D23*
X75710000Y-104343200D03*
D24*
X78250000Y-104343200D03*
X80790000Y-104343200D03*
%TD*%
D29*
%TO.C,U5*%
X113690000Y-39230000D03*
D30*
X113690000Y-41770000D03*
X113690000Y-44310000D03*
X113690000Y-46850000D03*
X121310000Y-46850000D03*
X121310000Y-44310000D03*
X121310000Y-41770000D03*
X121310000Y-39230000D03*
%TD*%
D42*
%TO.C,D1*%
X74500000Y-139920000D03*
D36*
X74500000Y-150080000D03*
%TD*%
D43*
%TO.C,K1*%
X87250000Y-145250000D03*
D19*
X102750000Y-145250000D03*
X102750000Y-136250000D03*
X102750000Y-154250000D03*
X73250000Y-136250000D03*
X73250000Y-154250000D03*
%TD*%
D41*
%TO.C,F2*%
X158500000Y-50250000D03*
X193500000Y-50250000D03*
%TD*%
D20*
%TO.C,H3*%
X57025000Y-20700000D03*
D21*
X57025000Y-20700000D03*
%TD*%
D22*
%TO.C,U8*%
X64239000Y-23749000D03*
D44*
X80899000Y-26289000D03*
D45*
X80899000Y-23749000D03*
X80899000Y-21209000D03*
%TD*%
D15*
%TO.C,Charger1*%
X207540000Y-38230000D03*
X207540000Y-16770000D03*
%TD*%
D41*
%TO.C,F1*%
X158500000Y-32250000D03*
X193500000Y-32250000D03*
%TD*%
D15*
%TO.C,J1*%
X72950000Y-117040000D03*
X86550000Y-117040000D03*
D31*
X77650000Y-112000000D03*
D32*
X81850000Y-112000000D03*
X77650000Y-117500000D03*
X81850000Y-117500000D03*
%TD*%
D41*
%TO.C,F3*%
X159250000Y-18750000D03*
X194250000Y-18750000D03*
%TD*%
D20*
%TO.C,H4*%
X77380000Y-160480000D03*
D21*
X77380000Y-160480000D03*
%TD*%
D46*
%TO.C,F9*%
X173745000Y-88265000D03*
X190745000Y-88265000D03*
%TD*%
D47*
%TO.C,R57*%
X156000000Y-81215250D03*
X154175000Y-81215250D03*
%TD*%
D48*
%TO.C,R17*%
X199491500Y-85852000D03*
X201491500Y-85852000D03*
%TD*%
D49*
%TO.C,R15*%
X231394000Y-125037500D03*
X231394000Y-123037500D03*
%TD*%
D50*
%TO.C,R40*%
X133350000Y-39878000D03*
X133350000Y-38053000D03*
%TD*%
D51*
%TO.C,R11*%
X180732500Y-149500000D03*
X186657500Y-149500000D03*
%TD*%
D48*
%TO.C,R16*%
X201396500Y-102108000D03*
X203396500Y-102108000D03*
%TD*%
D52*
%TO.C,C19*%
X106950000Y-23843250D03*
X105050000Y-23843250D03*
%TD*%
D48*
%TO.C,R14*%
X204571500Y-121412000D03*
X206571500Y-121412000D03*
%TD*%
D46*
%TO.C,F5*%
X213614000Y-151502000D03*
X213614000Y-134502000D03*
%TD*%
D53*
%TO.C,C16*%
X119250000Y-40700000D03*
X119250000Y-38800000D03*
%TD*%
D46*
%TO.C,F7*%
X226568000Y-150994000D03*
X226568000Y-133994000D03*
%TD*%
D51*
%TO.C,R12*%
X180552500Y-137160000D03*
X186477500Y-137160000D03*
%TD*%
D53*
%TO.C,C17*%
X116250000Y-67450000D03*
X116250000Y-65550000D03*
%TD*%
D54*
%TO.C,C22*%
X118872000Y-62362000D03*
X118872000Y-64262000D03*
%TD*%
D51*
%TO.C,R9*%
X164433750Y-149500000D03*
X170358750Y-149500000D03*
%TD*%
D53*
%TO.C,C15*%
X118750000Y-27700000D03*
X118750000Y-25800000D03*
%TD*%
D55*
%TO.C,R34*%
X129087500Y-24250000D03*
X130912500Y-24250000D03*
%TD*%
D50*
%TO.C,R33*%
X116000000Y-31912500D03*
X116000000Y-30087500D03*
%TD*%
D56*
%TO.C,R18*%
X230759000Y-108051500D03*
X230759000Y-110051500D03*
%TD*%
D52*
%TO.C,C21*%
X106950000Y-21343250D03*
X105050000Y-21343250D03*
%TD*%
D47*
%TO.C,R56*%
X131519500Y-85598000D03*
X129694500Y-85598000D03*
%TD*%
D51*
%TO.C,R7*%
X148135000Y-149500000D03*
X154060000Y-149500000D03*
%TD*%
D54*
%TO.C,C23*%
X115500000Y-60050000D03*
X115500000Y-61950000D03*
%TD*%
D46*
%TO.C,F10*%
X229235000Y-75955000D03*
X229235000Y-92955000D03*
%TD*%
D52*
%TO.C,C13*%
X121450000Y-23500000D03*
X119550000Y-23500000D03*
%TD*%
D51*
%TO.C,R5*%
X132927500Y-137160000D03*
X138852500Y-137160000D03*
%TD*%
D57*
%TO.C,R47*%
X119000000Y-66087500D03*
X119000000Y-67912500D03*
%TD*%
D47*
%TO.C,R50*%
X122682000Y-85598000D03*
X120857000Y-85598000D03*
%TD*%
D56*
%TO.C,R19*%
X225806000Y-100177500D03*
X225806000Y-102177500D03*
%TD*%
D47*
%TO.C,R54*%
X140432000Y-85598000D03*
X138607000Y-85598000D03*
%TD*%
%TO.C,R58*%
X151574000Y-81215250D03*
X149749000Y-81215250D03*
%TD*%
%TO.C,R60*%
X142704000Y-81215250D03*
X140879000Y-81215250D03*
%TD*%
D46*
%TO.C,F6*%
X185175000Y-112395000D03*
X202175000Y-112395000D03*
%TD*%
D47*
%TO.C,R55*%
X135857000Y-85598000D03*
X134032000Y-85598000D03*
%TD*%
D53*
%TO.C,C11*%
X118750000Y-34700000D03*
X118750000Y-32800000D03*
%TD*%
D49*
%TO.C,R13*%
X225171000Y-125037500D03*
X225171000Y-123037500D03*
%TD*%
D46*
%TO.C,F8*%
X172475000Y-100330000D03*
X189475000Y-100330000D03*
%TD*%
D47*
%TO.C,R51*%
X138269000Y-81215250D03*
X136444000Y-81215250D03*
%TD*%
D51*
%TO.C,R8*%
X148802500Y-137160000D03*
X154727500Y-137160000D03*
%TD*%
D46*
%TO.C,F11*%
X213360000Y-75955000D03*
X213360000Y-92955000D03*
%TD*%
D51*
%TO.C,R1*%
X115537500Y-149500000D03*
X121462500Y-149500000D03*
%TD*%
D47*
%TO.C,R53*%
X144857000Y-85598000D03*
X143032000Y-85598000D03*
%TD*%
D58*
%TO.C,C14*%
X121300000Y-36750000D03*
X123200000Y-36750000D03*
%TD*%
D47*
%TO.C,R52*%
X134288500Y-81215250D03*
X132463500Y-81215250D03*
%TD*%
D53*
%TO.C,C12*%
X118500000Y-47200000D03*
X118500000Y-45300000D03*
%TD*%
D50*
%TO.C,R39*%
X116000000Y-45162500D03*
X116000000Y-43337500D03*
%TD*%
D51*
%TO.C,R2*%
X117052500Y-137160000D03*
X122977500Y-137160000D03*
%TD*%
D47*
%TO.C,R59*%
X147139000Y-81215250D03*
X145314000Y-81215250D03*
%TD*%
D51*
%TO.C,R10*%
X164677500Y-137160000D03*
X170602500Y-137160000D03*
%TD*%
D47*
%TO.C,R49*%
X126932000Y-85598000D03*
X125107000Y-85598000D03*
%TD*%
D51*
%TO.C,R4*%
X131836250Y-149500000D03*
X137761250Y-149500000D03*
%TD*%
M02*
