%TF.GenerationSoftware,KiCad,Pcbnew,9.0.7*%
%TF.CreationDate,2026-04-05T22:59:27-07:00*%
%TF.ProjectId,PCC,5043432e-6b69-4636-9164-5f7063625858,rev?*%
%TF.SameCoordinates,Original*%
%TF.FileFunction,Soldermask,Top*%
%TF.FilePolarity,Negative*%
%FSLAX46Y46*%
G04 Gerber Fmt 4.6, Leading zero omitted, Abs format (unit mm)*
G04 Created by KiCad (PCBNEW 9.0.7) date 2026-04-05 22:59:27*
%MOMM*%
%LPD*%
G01*
G04 APERTURE LIST*
G04 Aperture macros list*
%AMRoundRect*
0 Rectangle with rounded corners*
0 $1 Rounding radius*
0 $2 $3 $4 $5 $6 $7 $8 $9 X,Y pos of 4 corners*
0 Add a 4 corners polygon primitive as box body*
4,1,4,$2,$3,$4,$5,$6,$7,$8,$9,$2,$3,0*
0 Add four circle primitives for the rounded corners*
1,1,$1+$1,$2,$3*
1,1,$1+$1,$4,$5*
1,1,$1+$1,$6,$7*
1,1,$1+$1,$8,$9*
0 Add four rect primitives between the rounded corners*
20,1,$1+$1,$2,$3,$4,$5,0*
20,1,$1+$1,$4,$5,$6,$7,0*
20,1,$1+$1,$6,$7,$8,$9,0*
20,1,$1+$1,$8,$9,$2,$3,0*%
G04 Aperture macros list end*
%ADD10C,1.726200*%
%ADD11C,1.576200*%
%ADD12C,0.010000*%
%ADD13RoundRect,0.250000X0.475000X-0.250000X0.475000X0.250000X-0.475000X0.250000X-0.475000X-0.250000X0*%
%ADD14R,1.350000X1.350000*%
%ADD15C,1.350000*%
%ADD16C,3.000000*%
%ADD17RoundRect,0.250001X-1.399999X1.099999X-1.399999X-1.099999X1.399999X-1.099999X1.399999X1.099999X0*%
%ADD18O,3.300000X2.700000*%
%ADD19RoundRect,0.250000X-0.262500X-0.450000X0.262500X-0.450000X0.262500X0.450000X-0.262500X0.450000X0*%
%ADD20RoundRect,0.150000X-0.150000X0.512500X-0.150000X-0.512500X0.150000X-0.512500X0.150000X0.512500X0*%
%ADD21RoundRect,0.250000X0.450000X-0.262500X0.450000X0.262500X-0.450000X0.262500X-0.450000X-0.262500X0*%
%ADD22C,1.304000*%
%ADD23C,2.500000*%
%ADD24RoundRect,0.250000X0.262500X0.450000X-0.262500X0.450000X-0.262500X-0.450000X0.262500X-0.450000X0*%
%ADD25C,3.600000*%
%ADD26C,5.600000*%
%ADD27C,3.500000*%
%ADD28R,1.905000X2.000000*%
%ADD29O,1.905000X2.000000*%
%ADD30C,2.362200*%
%ADD31C,1.524000*%
%ADD32C,1.727200*%
%ADD33C,3.022600*%
%ADD34RoundRect,0.250000X-0.550000X-0.550000X0.550000X-0.550000X0.550000X0.550000X-0.550000X0.550000X0*%
%ADD35C,1.600000*%
%ADD36RoundRect,0.250001X-1.099999X-1.399999X1.099999X-1.399999X1.099999X1.399999X-1.099999X1.399999X0*%
%ADD37O,2.700000X3.300000*%
%ADD38RoundRect,0.250000X-0.475000X0.250000X-0.475000X-0.250000X0.475000X-0.250000X0.475000X0.250000X0*%
%ADD39RoundRect,0.250000X-0.450000X0.262500X-0.450000X-0.262500X0.450000X-0.262500X0.450000X0.262500X0*%
%ADD40RoundRect,0.150000X-0.150000X0.825000X-0.150000X-0.825000X0.150000X-0.825000X0.150000X0.825000X0*%
%ADD41R,1.450000X1.450000*%
%ADD42C,1.450000*%
%ADD43RoundRect,0.249999X-0.850001X-0.850001X0.850001X-0.850001X0.850001X0.850001X-0.850001X0.850001X0*%
%ADD44C,2.200000*%
%ADD45RoundRect,0.250000X-0.250000X-0.475000X0.250000X-0.475000X0.250000X0.475000X-0.250000X0.475000X0*%
%ADD46RoundRect,0.250001X1.399999X-1.099999X1.399999X1.099999X-1.399999X1.099999X-1.399999X-1.099999X0*%
%ADD47R,1.371600X1.371600*%
%ADD48C,1.371600*%
%ADD49RoundRect,0.250000X0.550000X0.550000X-0.550000X0.550000X-0.550000X-0.550000X0.550000X-0.550000X0*%
%ADD50C,1.905000*%
%ADD51RoundRect,0.249999X-0.850001X0.850001X-0.850001X-0.850001X0.850001X-0.850001X0.850001X0.850001X0*%
%ADD52C,8.400000*%
%ADD53R,2.000000X1.905000*%
%ADD54O,2.000000X1.905000*%
G04 APERTURE END LIST*
D10*
%TO.C,DCDC1*%
X204863100Y-50350000D02*
G75*
G02*
X203136900Y-50350000I-863100J0D01*
G01*
X203136900Y-50350000D02*
G75*
G02*
X204863100Y-50350000I863100J0D01*
G01*
D11*
X205238100Y-44620000D02*
G75*
G02*
X203661900Y-44620000I-788100J0D01*
G01*
X203661900Y-44620000D02*
G75*
G02*
X205238100Y-44620000I788100J0D01*
G01*
X205238100Y-66080000D02*
G75*
G02*
X203661900Y-66080000I-788100J0D01*
G01*
X203661900Y-66080000D02*
G75*
G02*
X205238100Y-66080000I788100J0D01*
G01*
D10*
X209263100Y-50350000D02*
G75*
G02*
X207536900Y-50350000I-863100J0D01*
G01*
X207536900Y-50350000D02*
G75*
G02*
X209263100Y-50350000I863100J0D01*
G01*
D12*
X205726200Y-62076200D02*
X202273800Y-62076200D01*
X202273800Y-58623800D01*
X205726200Y-58623800D01*
X205726200Y-62076200D01*
G36*
X205726200Y-62076200D02*
G01*
X202273800Y-62076200D01*
X202273800Y-58623800D01*
X205726200Y-58623800D01*
X205726200Y-62076200D01*
G37*
X210126200Y-62076200D02*
X206673800Y-62076200D01*
X206673800Y-58623800D01*
X210126200Y-58623800D01*
X210126200Y-62076200D01*
G36*
X210126200Y-62076200D02*
G01*
X206673800Y-62076200D01*
X206673800Y-58623800D01*
X210126200Y-58623800D01*
X210126200Y-62076200D01*
G37*
D10*
%TO.C,HVIN1*%
X144938100Y-28590000D02*
G75*
G02*
X143211900Y-28590000I-863100J0D01*
G01*
X143211900Y-28590000D02*
G75*
G02*
X144938100Y-28590000I863100J0D01*
G01*
X144938100Y-38590000D02*
G75*
G02*
X143211900Y-38590000I-863100J0D01*
G01*
X143211900Y-38590000D02*
G75*
G02*
X144938100Y-38590000I863100J0D01*
G01*
X144938100Y-48590000D02*
G75*
G02*
X143211900Y-48590000I-863100J0D01*
G01*
X143211900Y-48590000D02*
G75*
G02*
X144938100Y-48590000I863100J0D01*
G01*
D11*
X145313100Y-22860000D02*
G75*
G02*
X143736900Y-22860000I-788100J0D01*
G01*
X143736900Y-22860000D02*
G75*
G02*
X145313100Y-22860000I788100J0D01*
G01*
X145313100Y-64320000D02*
G75*
G02*
X143736900Y-64320000I-788100J0D01*
G01*
X143736900Y-64320000D02*
G75*
G02*
X145313100Y-64320000I788100J0D01*
G01*
D10*
X149338100Y-28590000D02*
G75*
G02*
X147611900Y-28590000I-863100J0D01*
G01*
X147611900Y-28590000D02*
G75*
G02*
X149338100Y-28590000I863100J0D01*
G01*
X149338100Y-38590000D02*
G75*
G02*
X147611900Y-38590000I-863100J0D01*
G01*
X147611900Y-38590000D02*
G75*
G02*
X149338100Y-38590000I863100J0D01*
G01*
X149338100Y-48590000D02*
G75*
G02*
X147611900Y-48590000I-863100J0D01*
G01*
X147611900Y-48590000D02*
G75*
G02*
X149338100Y-48590000I863100J0D01*
G01*
D12*
X145801200Y-60316200D02*
X142348800Y-60316200D01*
X142348800Y-56863800D01*
X145801200Y-56863800D01*
X145801200Y-60316200D01*
G36*
X145801200Y-60316200D02*
G01*
X142348800Y-60316200D01*
X142348800Y-56863800D01*
X145801200Y-56863800D01*
X145801200Y-60316200D01*
G37*
X150201200Y-60316200D02*
X146748800Y-60316200D01*
X146748800Y-56863800D01*
X150201200Y-56863800D01*
X150201200Y-60316200D01*
G36*
X150201200Y-60316200D02*
G01*
X146748800Y-60316200D01*
X146748800Y-56863800D01*
X150201200Y-56863800D01*
X150201200Y-60316200D01*
G37*
D10*
%TO.C,Charger1*%
X204453100Y-32500000D02*
G75*
G02*
X202726900Y-32500000I-863100J0D01*
G01*
X202726900Y-32500000D02*
G75*
G02*
X204453100Y-32500000I863100J0D01*
G01*
D11*
X208328100Y-16770000D02*
G75*
G02*
X206751900Y-16770000I-788100J0D01*
G01*
X206751900Y-16770000D02*
G75*
G02*
X208328100Y-16770000I788100J0D01*
G01*
X208328100Y-38230000D02*
G75*
G02*
X206751900Y-38230000I-788100J0D01*
G01*
X206751900Y-38230000D02*
G75*
G02*
X208328100Y-38230000I788100J0D01*
G01*
D10*
X208853100Y-32500000D02*
G75*
G02*
X207126900Y-32500000I-863100J0D01*
G01*
X207126900Y-32500000D02*
G75*
G02*
X208853100Y-32500000I863100J0D01*
G01*
D12*
X205316200Y-24226200D02*
X201863800Y-24226200D01*
X201863800Y-20773800D01*
X205316200Y-20773800D01*
X205316200Y-24226200D01*
G36*
X205316200Y-24226200D02*
G01*
X201863800Y-24226200D01*
X201863800Y-20773800D01*
X205316200Y-20773800D01*
X205316200Y-24226200D01*
G37*
X209716200Y-24226200D02*
X206263800Y-24226200D01*
X206263800Y-20773800D01*
X209716200Y-20773800D01*
X209716200Y-24226200D01*
G36*
X209716200Y-24226200D02*
G01*
X206263800Y-24226200D01*
X206263800Y-20773800D01*
X209716200Y-20773800D01*
X209716200Y-24226200D01*
G37*
%TD*%
D13*
%TO.C,C6*%
X87122000Y-79700000D03*
X87122000Y-77800000D03*
%TD*%
D14*
%TO.C,R29*%
X92250000Y-82000000D03*
D15*
X92250000Y-80000000D03*
%TD*%
D16*
%TO.C,J7*%
X78220000Y-68638000D03*
X78220000Y-82238000D03*
D17*
X83260000Y-73338000D03*
D18*
X83260000Y-77538000D03*
X77760000Y-73338000D03*
X77760000Y-77538000D03*
%TD*%
D19*
%TO.C,R38*%
X104116500Y-45500000D03*
X105941500Y-45500000D03*
%TD*%
D20*
%TO.C,D3*%
X61275000Y-56012500D03*
X59375000Y-56012500D03*
X60325000Y-58287500D03*
%TD*%
D21*
%TO.C,R28*%
X57845000Y-49662500D03*
X57845000Y-47837500D03*
%TD*%
D16*
%TO.C,DCDC1*%
X204450000Y-44620000D03*
X204450000Y-66080000D03*
%TD*%
D22*
%TO.C,C9*%
X125500000Y-25000000D03*
X125500000Y-30000000D03*
%TD*%
D23*
%TO.C,R3*%
X112000000Y-142000000D03*
X200000000Y-142000000D03*
%TD*%
D24*
%TO.C,R23*%
X59007500Y-35250000D03*
X57182500Y-35250000D03*
%TD*%
D25*
%TO.C,H2*%
X233500000Y-158750000D03*
D26*
X233500000Y-158750000D03*
%TD*%
D24*
%TO.C,R32*%
X89412500Y-32500000D03*
X87587500Y-32500000D03*
%TD*%
D19*
%TO.C,J10*%
X119337500Y-55750000D03*
X121162500Y-55750000D03*
%TD*%
D27*
%TO.C,Q1*%
X89509600Y-87616800D03*
D28*
X86969600Y-104276800D03*
D29*
X89509600Y-104276800D03*
X92049600Y-104276800D03*
%TD*%
D30*
%TO.C,J2*%
X219269150Y-103825403D03*
X219269150Y-108025403D03*
X219269150Y-112225399D03*
X219269150Y-116425398D03*
X219269150Y-120625398D03*
X219269150Y-124825397D03*
X213769151Y-103825403D03*
X213769151Y-108025403D03*
X213769151Y-112225399D03*
X213769151Y-116425398D03*
X213769151Y-120625398D03*
X213769151Y-124825397D03*
%TD*%
D31*
%TO.C,K2*%
X93141352Y-114275100D03*
X93141352Y-116815100D03*
D32*
X93141352Y-124435100D03*
X93141352Y-132055100D03*
%TD*%
D33*
%TO.C,J3*%
X52237800Y-71868797D03*
X70037800Y-71868797D03*
D30*
X65337799Y-76259798D03*
X61137800Y-76259798D03*
X56937801Y-76259798D03*
X65337799Y-72059800D03*
X61137800Y-72059800D03*
X56937801Y-72059800D03*
%TD*%
D34*
%TO.C,J4*%
X66875000Y-31535000D03*
D35*
X66875000Y-34075000D03*
X66875000Y-36615000D03*
X66875000Y-39155000D03*
X66875000Y-41695000D03*
X66875000Y-44235000D03*
X66875000Y-46775000D03*
X66875000Y-49315000D03*
X66875000Y-51855000D03*
X66875000Y-54395000D03*
X66875000Y-56935000D03*
X66875000Y-59475000D03*
X66875000Y-62015000D03*
X66875000Y-64555000D03*
X82115000Y-64555000D03*
X82115000Y-62015000D03*
X82115000Y-59475000D03*
X82115000Y-56935000D03*
X82115000Y-54395000D03*
X82115000Y-51855000D03*
X82115000Y-49315000D03*
X82115000Y-46775000D03*
X82115000Y-44235000D03*
X82115000Y-41695000D03*
X82115000Y-39155000D03*
X82115000Y-36615000D03*
X82115000Y-34075000D03*
X82115000Y-31535000D03*
%TD*%
D16*
%TO.C,J8*%
X52550000Y-129830000D03*
X66150000Y-129830000D03*
D36*
X57250000Y-124790000D03*
D37*
X61450000Y-124790000D03*
X57250000Y-130290000D03*
X61450000Y-130290000D03*
%TD*%
D24*
%TO.C,R44*%
X126912500Y-48000000D03*
X125087500Y-48000000D03*
%TD*%
D19*
%TO.C,R37*%
X108077000Y-45500000D03*
X109902000Y-45500000D03*
%TD*%
D38*
%TO.C,C24*%
X86750000Y-15850000D03*
X86750000Y-17750000D03*
%TD*%
D21*
%TO.C,R43*%
X125500000Y-35412500D03*
X125500000Y-33587500D03*
%TD*%
%TO.C,R22*%
X62845000Y-38412500D03*
X62845000Y-36587500D03*
%TD*%
D39*
%TO.C,R45*%
X116000000Y-51837500D03*
X116000000Y-53662500D03*
%TD*%
D25*
%TO.C,H1*%
X233500000Y-21200000D03*
D26*
X233500000Y-21200000D03*
%TD*%
D40*
%TO.C,U1*%
X60655000Y-40762500D03*
X59385000Y-40762500D03*
X58115000Y-40762500D03*
X56845000Y-40762500D03*
X56845000Y-45712500D03*
X58115000Y-45712500D03*
X59385000Y-45712500D03*
X60655000Y-45712500D03*
%TD*%
D39*
%TO.C,R42*%
X133350000Y-41803000D03*
X133350000Y-43628000D03*
%TD*%
D24*
%TO.C,J11*%
X116162500Y-55750000D03*
X114337500Y-55750000D03*
%TD*%
D39*
%TO.C,R41*%
X130683000Y-26837500D03*
X130683000Y-28662500D03*
%TD*%
D41*
%TO.C,U6*%
X92025000Y-17810000D03*
D42*
X94565000Y-17810000D03*
X104725000Y-17810000D03*
X107265000Y-17810000D03*
X109805000Y-17810000D03*
%TD*%
D43*
%TO.C,D2*%
X83420000Y-107500000D03*
D44*
X93580000Y-107500000D03*
%TD*%
D21*
%TO.C,R26*%
X92000000Y-71662500D03*
X92000000Y-69837500D03*
%TD*%
D14*
%TO.C,R25*%
X92250000Y-76500000D03*
D15*
X92250000Y-74500000D03*
%TD*%
D45*
%TO.C,C3*%
X57645000Y-32000000D03*
X59545000Y-32000000D03*
%TD*%
D16*
%TO.C,SDC1*%
X68290000Y-108450000D03*
X68290000Y-99050000D03*
D46*
X63250000Y-103750000D03*
D18*
X68750000Y-103750000D03*
%TD*%
D45*
%TO.C,C8*%
X87550000Y-45250000D03*
X89450000Y-45250000D03*
%TD*%
D13*
%TO.C,C1*%
X89000000Y-56950000D03*
X89000000Y-55050000D03*
%TD*%
D16*
%TO.C,J6*%
X52300000Y-115330000D03*
X65900000Y-115330000D03*
D36*
X57000000Y-110290000D03*
D37*
X61200000Y-110290000D03*
X57000000Y-115790000D03*
X61200000Y-115790000D03*
%TD*%
D33*
%TO.C,J5*%
X52400001Y-88108999D03*
X70200001Y-88108999D03*
D30*
X65500000Y-92500000D03*
X61300001Y-92500000D03*
X57100002Y-92500000D03*
X65500000Y-88300002D03*
X61300001Y-88300002D03*
X57100002Y-88300002D03*
%TD*%
D22*
%TO.C,C10*%
X127750000Y-39130000D03*
X127750000Y-44130000D03*
%TD*%
D16*
%TO.C,J12*%
X52856400Y-160082800D03*
X66456400Y-160082800D03*
D36*
X57556400Y-155042800D03*
D37*
X61756400Y-155042800D03*
X57556400Y-160542800D03*
X61756400Y-160542800D03*
%TD*%
D24*
%TO.C,R31*%
X89412500Y-43000000D03*
X87587500Y-43000000D03*
%TD*%
D47*
%TO.C,U7*%
X121120000Y-67667500D03*
D48*
X121120000Y-65127500D03*
X121120000Y-62587500D03*
X121120000Y-60047500D03*
X113500000Y-60047500D03*
X113500000Y-62587500D03*
X113500000Y-65127500D03*
X113500000Y-67667500D03*
%TD*%
D19*
%TO.C,R36*%
X103837500Y-35250000D03*
X105662500Y-35250000D03*
%TD*%
D21*
%TO.C,R21*%
X86750000Y-56912500D03*
X86750000Y-55087500D03*
%TD*%
D16*
%TO.C,J9*%
X52300000Y-143580000D03*
X65900000Y-143580000D03*
D36*
X57000000Y-138540000D03*
D37*
X61200000Y-138540000D03*
X57000000Y-144040000D03*
X61200000Y-144040000D03*
%TD*%
D19*
%TO.C,R35*%
X107337500Y-35250000D03*
X109162500Y-35250000D03*
%TD*%
D38*
%TO.C,C5*%
X58845000Y-51462500D03*
X58845000Y-53362500D03*
%TD*%
D23*
%TO.C,R6*%
X200210000Y-94080000D03*
X112210000Y-94080000D03*
%TD*%
D45*
%TO.C,C18*%
X85349000Y-26253000D03*
X87249000Y-26253000D03*
%TD*%
D49*
%TO.C,U2*%
X101195253Y-35040253D03*
D35*
X101195253Y-32500253D03*
X101195253Y-29960253D03*
X93575253Y-29960253D03*
X93575253Y-32500253D03*
X93575253Y-35040253D03*
%TD*%
D16*
%TO.C,HVIN1*%
X144525000Y-22860000D03*
X144525000Y-64320000D03*
%TD*%
D19*
%TO.C,R24*%
X62315000Y-44762500D03*
X64140000Y-44762500D03*
%TD*%
D50*
%TO.C,F4*%
X158750000Y-62750000D03*
X193750000Y-62750000D03*
%TD*%
D38*
%TO.C,C26*%
X89250000Y-15850000D03*
X89250000Y-17750000D03*
%TD*%
D49*
%TO.C,U3*%
X101195253Y-45540253D03*
D35*
X101195253Y-43000253D03*
X101195253Y-40460253D03*
X93575253Y-40460253D03*
X93575253Y-43000253D03*
X93575253Y-45540253D03*
%TD*%
D21*
%TO.C,R20*%
X86750000Y-60325000D03*
X86750000Y-58500000D03*
%TD*%
D45*
%TO.C,C2*%
X57645000Y-29750000D03*
X59545000Y-29750000D03*
%TD*%
D39*
%TO.C,R48*%
X110750000Y-65587500D03*
X110750000Y-67412500D03*
%TD*%
D13*
%TO.C,C4*%
X89250000Y-71700000D03*
X89250000Y-69800000D03*
%TD*%
D34*
%TO.C,U4*%
X113500000Y-26460000D03*
D35*
X113500000Y-29000000D03*
X113500000Y-31540000D03*
X113500000Y-34080000D03*
X121120000Y-34080000D03*
X121120000Y-31540000D03*
X121120000Y-29000000D03*
X121120000Y-26460000D03*
%TD*%
D16*
%TO.C,SDC2*%
X82562000Y-134113000D03*
X82562000Y-124713000D03*
D46*
X77522000Y-129413000D03*
D18*
X83022000Y-129413000D03*
%TD*%
D27*
%TO.C,Q2*%
X78250000Y-87683200D03*
D28*
X75710000Y-104343200D03*
D29*
X78250000Y-104343200D03*
X80790000Y-104343200D03*
%TD*%
D34*
%TO.C,U5*%
X113690000Y-39230000D03*
D35*
X113690000Y-41770000D03*
X113690000Y-44310000D03*
X113690000Y-46850000D03*
X121310000Y-46850000D03*
X121310000Y-44310000D03*
X121310000Y-41770000D03*
X121310000Y-39230000D03*
%TD*%
D51*
%TO.C,D1*%
X74500000Y-139920000D03*
D44*
X74500000Y-150080000D03*
%TD*%
D52*
%TO.C,K1*%
X87250000Y-145250000D03*
D23*
X102750000Y-145250000D03*
X102750000Y-136250000D03*
X102750000Y-154250000D03*
X73250000Y-136250000D03*
X73250000Y-154250000D03*
%TD*%
D50*
%TO.C,F2*%
X158500000Y-50250000D03*
X193500000Y-50250000D03*
%TD*%
D39*
%TO.C,R46*%
X119500000Y-51837500D03*
X119500000Y-53662500D03*
%TD*%
D25*
%TO.C,H3*%
X57025000Y-20700000D03*
D26*
X57025000Y-20700000D03*
%TD*%
D27*
%TO.C,U8*%
X64239000Y-23749000D03*
D53*
X80899000Y-26289000D03*
D54*
X80899000Y-23749000D03*
X80899000Y-21209000D03*
%TD*%
D16*
%TO.C,Charger1*%
X207540000Y-38230000D03*
X207540000Y-16770000D03*
%TD*%
D50*
%TO.C,F1*%
X158500000Y-32250000D03*
X193500000Y-32250000D03*
%TD*%
D16*
%TO.C,J1*%
X72950000Y-117040000D03*
X86550000Y-117040000D03*
D36*
X77650000Y-112000000D03*
D37*
X81850000Y-112000000D03*
X77650000Y-117500000D03*
X81850000Y-117500000D03*
%TD*%
D45*
%TO.C,C20*%
X85349000Y-24003000D03*
X87249000Y-24003000D03*
%TD*%
D50*
%TO.C,F3*%
X159250000Y-18750000D03*
X194250000Y-18750000D03*
%TD*%
D45*
%TO.C,C25*%
X87550000Y-38750000D03*
X89450000Y-38750000D03*
%TD*%
D39*
%TO.C,R27*%
X59845000Y-47837500D03*
X59845000Y-49662500D03*
%TD*%
D45*
%TO.C,C7*%
X87550000Y-34750000D03*
X89450000Y-34750000D03*
%TD*%
D21*
%TO.C,R30*%
X89357200Y-79599800D03*
X89357200Y-77774800D03*
%TD*%
D25*
%TO.C,H4*%
X77380000Y-160480000D03*
D26*
X77380000Y-160480000D03*
%TD*%
M02*
