M48
; DRILL file {KiCad 9.0.7} date 2026-04-05T23:02:29-0700
; FORMAT={-:-/ absolute / metric / decimal}
; #@! TF.CreationDate,2026-04-05T23:02:29-07:00
; #@! TF.GenerationSoftware,Kicad,Pcbnew,9.0.7
; #@! TF.FileFunction,Plated,1,2,PTH
FMAT,2
METRIC
; #@! TA.AperFunction,Plated,PTH,ViaDrill
T1C0.300
; #@! TA.AperFunction,Plated,PTH,ComponentDrill
T2C0.750
; #@! TA.AperFunction,Plated,PTH,ComponentDrill
T3C0.800
; #@! TA.AperFunction,Plated,PTH,ComponentDrill
T4C0.850
; #@! TA.AperFunction,Plated,PTH,ComponentDrill
T5C0.864
; #@! TA.AperFunction,Plated,PTH,ComponentDrill
T6C1.016
; #@! TA.AperFunction,Plated,PTH,ComponentDrill
T7C1.100
; #@! TA.AperFunction,Plated,PTH,ComponentDrill
T8C1.219
; #@! TA.AperFunction,Plated,PTH,ComponentDrill
T9C1.300
; #@! TA.AperFunction,Plated,PTH,ComponentDrill
T10C1.400
; #@! TA.AperFunction,Plated,PTH,ComponentDrill
T11C1.500
; #@! TA.AperFunction,Plated,PTH,ComponentDrill
T12C1.854
; #@! TA.AperFunction,Plated,PTH,ComponentDrill
T13C2.800
; #@! TA.AperFunction,Plated,PTH,ComponentDrill
T14C3.200
%
G90
G05
T1
X51.0Y-22.25
X51.0Y-31.0
X51.0Y-40.5
X51.0Y-50.25
X51.0Y-59.5
X51.75Y-99.75
X51.75Y-110.5
X52.0Y-68.5
X52.0Y-124.25
X52.0Y-138.5
X52.0Y-147.5
X52.0Y-153.25
X52.121Y-106.02
X52.25Y-17.5
X52.25Y-77.75
X52.25Y-92.25
X52.25Y-119.0
X52.25Y-133.5
X52.476Y-112.37
X52.5Y-83.0
X52.832Y-127.406
X52.883Y-140.818
X53.75Y-30.25
X53.95Y-148.133
X54.0Y-38.25
X54.254Y-26.264
X54.5Y-48.75
X54.75Y-57.75
X55.0Y-55.0
X55.33Y-163.27
X56.0Y-104.5
X56.25Y-97.75
X56.439Y-134.366
X56.5Y-64.0
X56.744Y-112.928
X56.75Y-120.25
X56.947Y-127.508
X56.947Y-141.173
X57.048Y-80.975
X57.048Y-84.785
X57.201Y-149.2
X57.75Y-68.0
X57.912Y-102.413
X58.0Y-15.5
X58.039Y-54.991
X58.369Y-106.934
X58.75Y-95.25
X59.5Y-38.5
X60.147Y-90.221
X60.452Y-59.563
X60.604Y-134.417
X61.0Y-29.75
X61.0Y-32.0
X61.062Y-141.224
X61.062Y-148.387
X61.163Y-84.887
X61.25Y-82.75
X61.722Y-113.081
X61.773Y-127.61
X62.0Y-97.25
X62.25Y-120.75
X62.687Y-17.983
X62.75Y-54.75
X62.84Y-90.17
X63.25Y-57.75
X63.25Y-134.0
X63.75Y-26.75
X63.75Y-127.0
X63.754Y-147.676
X63.983Y-63.627
X64.0Y-42.75
X64.25Y-29.5
X64.75Y-118.0
X64.77Y-94.793
X65.0Y-107.75
X65.176Y-146.406
X65.38Y-100.228
X65.938Y-132.74
X67.25Y-152.25
X67.5Y-73.25
X67.5Y-163.0
X67.611Y-65.939
X67.75Y-15.25
X67.97Y-86.97
X68.0Y-122.75
X68.25Y-19.25
X68.275Y-90.881
X68.5Y-138.5
X68.631Y-125.222
X68.84Y-67.168
X69.393Y-96.368
X69.5Y-27.0
X69.5Y-28.75
X69.698Y-76.556
X69.75Y-148.75
X70.206Y-94.793
X70.5Y-83.0
X70.5Y-112.75
X70.5Y-119.5
X70.561Y-152.451
X71.5Y-98.75
X71.628Y-138.379
X71.73Y-34.696
X71.75Y-63.415
X71.882Y-143.205
X71.933Y-45.364
X72.0Y-109.0
X72.081Y-67.569
X72.25Y-94.0
X72.75Y-124.5
X72.847Y-131.318
X73.0Y-82.25
X73.0Y-103.75
X73.203Y-128.524
X73.25Y-29.0
X73.25Y-80.5
X73.457Y-56.591
X74.27Y-96.215
X74.371Y-90.983
X74.371Y-146.05
X74.727Y-73.003
X74.778Y-69.367
X74.778Y-74.574
X75.0Y-26.5
X76.0Y-67.0
X76.25Y-81.0
X76.25Y-120.75
X76.25Y-134.0
X76.86Y-90.475
X77.267Y-95.86
X77.5Y-108.75
X77.724Y-39.573
X77.826Y-60.909
X78.5Y-15.25
X78.5Y-155.0
X78.891Y-75.995
X79.75Y-114.75
X79.75Y-139.5
X79.756Y-94.031
X80.315Y-106.731
X81.28Y-85.801
X81.483Y-91.948
X82.093Y-114.249
X82.25Y-18.0
X82.268Y-80.996
X83.21Y-69.545
X83.363Y-84.176
X83.769Y-91.084
X83.82Y-75.438
X83.922Y-82.5
X83.922Y-95.047
X83.972Y-101.854
X84.0Y-122.75
X84.125Y-45.771
X84.25Y-18.0
X84.43Y-68.072
X84.5Y-60.75
X84.5Y-104.25
X85.852Y-160.655
X85.92Y-91.237
X85.92Y-94.64
X85.954Y-81.25
X86.004Y-101.905
X86.157Y-82.499
X86.208Y-106.578
X86.25Y-134.5
X86.563Y-49.479
X86.75Y-19.75
X86.75Y-53.25
X86.817Y-112.827
X87.0Y-64.5
X87.02Y-71.526
X87.25Y-129.25
X87.427Y-65.837
X87.935Y-90.729
X88.036Y-95.199
X88.443Y-101.956
X88.5Y-112.0
X88.798Y-74.828
X89.0Y-53.0
X89.25Y-19.75
X89.25Y-68.25
X89.713Y-110.084
X89.814Y-81.28
X90.5Y-58.5
X90.5Y-63.0
X90.678Y-27.813
X90.729Y-55.524
X90.75Y-48.0
X90.75Y-60.75
X90.75Y-115.5
X91.0Y-45.25
X91.0Y-122.25
X91.25Y-23.25
X91.25Y-34.75
X91.288Y-109.118
X91.491Y-111.506
X91.5Y-38.75
X92.0Y-68.0
X92.5Y-128.25
X93.0Y-135.25
X93.25Y-51.25
X93.472Y-55.321
X93.5Y-58.5
X93.75Y-60.75
X94.082Y-66.7
X94.132Y-63.5
X94.25Y-15.25
X94.251Y-59.5
X94.488Y-81.229
X94.5Y-62.0
X94.539Y-109.779
X94.539Y-112.116
X94.742Y-72.39
X94.844Y-77.978
X104.725Y-21.35
X105.018Y-23.812
X108.75Y-30.5
X108.75Y-32.5
X109.902Y-45.5
X110.0Y-43.0
X117.25Y-60.0
X118.872Y-113.538
X121.666Y-69.75
X123.698Y-67.818
X123.75Y-30.0
X124.75Y-42.75
X125.5Y-35.413
X126.912Y-48.0
X172.974Y-88.138
X173.736Y-87.63
X173.745Y-88.265
X173.745Y-88.9
X174.498Y-88.138
T2
X125.5Y-25.0
X125.5Y-30.0
X127.75Y-39.13
X127.75Y-44.13
T3
X66.875Y-31.535
X66.875Y-34.075
X66.875Y-36.615
X66.875Y-39.155
X66.875Y-41.695
X66.875Y-44.235
X66.875Y-46.775
X66.875Y-49.315
X66.875Y-51.855
X66.875Y-54.395
X66.875Y-56.935
X66.875Y-59.475
X66.875Y-62.015
X66.875Y-64.555
X82.115Y-31.535
X82.115Y-34.075
X82.115Y-36.615
X82.115Y-39.155
X82.115Y-41.695
X82.115Y-44.235
X82.115Y-46.775
X82.115Y-49.315
X82.115Y-51.855
X82.115Y-54.395
X82.115Y-56.935
X82.115Y-59.475
X82.115Y-62.015
X82.115Y-64.555
X92.25Y-74.5
X92.25Y-76.5
X92.25Y-80.0
X92.25Y-82.0
X93.575Y-29.96
X93.575Y-32.5
X93.575Y-35.04
X93.575Y-40.46
X93.575Y-43.0
X93.575Y-45.54
X101.195Y-29.96
X101.195Y-32.5
X101.195Y-35.04
X101.195Y-40.46
X101.195Y-43.0
X101.195Y-45.54
X113.5Y-26.46
X113.5Y-29.0
X113.5Y-31.54
X113.5Y-34.08
X113.69Y-39.23
X113.69Y-41.77
X113.69Y-44.31
X113.69Y-46.85
X121.12Y-26.46
X121.12Y-29.0
X121.12Y-31.54
X121.12Y-34.08
X121.31Y-39.23
X121.31Y-41.77
X121.31Y-44.31
X121.31Y-46.85
T4
X92.025Y-17.81
X94.565Y-17.81
X104.725Y-17.81
X107.265Y-17.81
X109.805Y-17.81
T5
X113.5Y-60.047
X113.5Y-62.587
X113.5Y-65.127
X113.5Y-67.668
X121.12Y-60.047
X121.12Y-62.587
X121.12Y-65.127
X121.12Y-67.668
T6
X93.141Y-114.275
X93.141Y-116.815
T7
X74.5Y-139.92
X74.5Y-150.08
X75.71Y-104.343
X78.25Y-104.343
X80.79Y-104.343
X80.899Y-21.209
X80.899Y-23.749
X80.899Y-26.289
X83.42Y-107.5
X86.97Y-104.277
X89.51Y-104.277
X92.05Y-104.277
X93.58Y-107.5
T8
X93.141Y-124.435
X93.141Y-132.055
T9
X158.5Y-32.25
X158.5Y-50.25
X158.75Y-62.75
X159.25Y-18.75
X193.5Y-32.25
X193.5Y-50.25
X193.75Y-62.75
X194.25Y-18.75
T10
X57.0Y-110.29
X57.0Y-115.79
X57.0Y-138.54
X57.0Y-144.04
X57.25Y-124.79
X57.25Y-130.29
X57.556Y-155.043
X57.556Y-160.543
X61.2Y-110.29
X61.2Y-115.79
X61.2Y-138.54
X61.2Y-144.04
X61.45Y-124.79
X61.45Y-130.29
X61.756Y-155.043
X61.756Y-160.543
X63.25Y-103.75
X68.75Y-103.75
X77.522Y-129.413
X77.65Y-112.0
X77.65Y-117.5
X77.76Y-73.338
X77.76Y-77.538
X81.85Y-112.0
X81.85Y-117.5
X83.022Y-129.413
X83.26Y-73.338
X83.26Y-77.538
T11
X73.25Y-136.25
X73.25Y-154.25
X102.75Y-136.25
X102.75Y-145.25
X102.75Y-154.25
X112.0Y-142.0
X112.21Y-94.08
X200.0Y-142.0
X200.21Y-94.08
T12
X56.938Y-72.06
X56.938Y-76.26
X57.1Y-88.3
X57.1Y-92.5
X61.138Y-72.06
X61.138Y-76.26
X61.3Y-88.3
X61.3Y-92.5
X65.338Y-72.06
X65.338Y-76.26
X65.5Y-88.3
X65.5Y-92.5
X213.769Y-103.825
X213.769Y-108.025
X213.769Y-112.225
X213.769Y-116.425
X213.769Y-120.625
X213.769Y-124.825
X219.269Y-103.825
X219.269Y-108.025
X219.269Y-112.225
X219.269Y-116.425
X219.269Y-120.625
X219.269Y-124.825
T13
X144.075Y-28.59
X144.075Y-38.59
X144.075Y-48.59
X144.075Y-58.59
X148.475Y-28.59
X148.475Y-38.59
X148.475Y-48.59
X148.475Y-58.59
X203.59Y-22.5
X203.59Y-32.5
X204.0Y-50.35
X204.0Y-60.35
X207.99Y-22.5
X207.99Y-32.5
X208.4Y-50.35
X208.4Y-60.35
T14
X57.025Y-20.7
X77.38Y-160.48
X233.5Y-21.2
X233.5Y-158.75
M30
