M48
; DRILL file {KiCad 9.0.7} date 2026-04-05T23:02:29-0700
; FORMAT={-:-/ absolute / metric / decimal}
; #@! TF.CreationDate,2026-04-05T23:02:29-07:00
; #@! TF.GenerationSoftware,Kicad,Pcbnew,9.0.7
; #@! TF.FileFunction,NonPlated,1,2,NPTH
FMAT,2
METRIC
; #@! TA.AperFunction,NonPlated,NPTH,ComponentDrill
T1C3.000
; #@! TA.AperFunction,NonPlated,NPTH,ComponentDrill
T2C3.023
; #@! TA.AperFunction,NonPlated,NPTH,ComponentDrill
T3C3.500
; #@! TA.AperFunction,NonPlated,NPTH,ComponentDrill
T4C8.400
%
G90
G05
T1
X52.3Y-115.33
X52.3Y-143.58
X52.55Y-129.83
X52.856Y-160.083
X65.9Y-115.33
X65.9Y-143.58
X66.15Y-129.83
X66.456Y-160.083
X68.29Y-99.05
X68.29Y-108.45
X72.95Y-117.04
X78.22Y-68.638
X78.22Y-82.238
X82.562Y-124.713
X82.562Y-134.113
X86.55Y-117.04
X144.525Y-22.86
X144.525Y-64.32
X204.45Y-44.62
X204.45Y-66.08
X207.54Y-16.77
X207.54Y-38.23
T2
X52.238Y-71.869
X52.4Y-88.109
X70.038Y-71.869
X70.2Y-88.109
T3
X64.239Y-23.749
X78.25Y-87.683
X89.51Y-87.617
T4
X87.25Y-145.25
M30
