M48
; DRILL file {KiCad 8.0.5} date 2025-05-06T01:36:58-0700
; FORMAT={-:-/ absolute / inch / decimal}
; #@! TF.CreationDate,2025-05-06T01:36:58-07:00
; #@! TF.GenerationSoftware,Kicad,Pcbnew,8.0.5
; #@! TF.FileFunction,NonPlated,1,2,NPTH
FMAT,2
INCH
; #@! TA.AperFunction,NonPlated,NPTH,ComponentDrill
T1C0.1181
; #@! TA.AperFunction,NonPlated,NPTH,ComponentDrill
T2C0.1260
%
G90
G05
T1
X4.1224Y-2.6378
X4.1224Y-3.0079
X4.124Y-3.248
X4.124Y-3.7835
X4.124Y-4.0177
X4.124Y-4.3878
X4.124Y-4.6378
X4.124Y-5.0079
X4.124Y-5.2559
X4.124Y-5.626
X5.3661Y-5.602
X5.6417Y-2.4295
X5.7362Y-5.602
X6.0118Y-2.4295
X6.3602Y-2.4394
X6.6646Y-5.6047
X6.7303Y-2.4394
X7.0346Y-5.6047
X7.2559Y-2.4394
X7.5898Y-4.2693
X7.5898Y-4.8047
X7.5902Y-3.5
X7.5902Y-4.0354
X7.5906Y-5.0421
X7.5906Y-5.5776
X7.626Y-2.4394
X8.2394Y-3.502
X8.2394Y-4.0374
X8.2398Y-2.8661
X8.2398Y-3.2362
X8.2413Y-5.0378
X8.2413Y-5.5732
X8.2417Y-4.2717
X8.2417Y-4.8071
T2
X3.8189Y-2.3622
X3.8189Y-5.9055
X8.3465Y-2.3622
X8.3465Y-5.9055
M30
