%TF.GenerationSoftware,KiCad,Pcbnew,8.0.5*%
%TF.CreationDate,2025-05-06T01:33:23-07:00*%
%TF.ProjectId,ccm,63636d2e-6b69-4636-9164-5f7063625858,rev?*%
%TF.SameCoordinates,Original*%
%TF.FileFunction,Paste,Top*%
%TF.FilePolarity,Positive*%
%FSLAX46Y46*%
G04 Gerber Fmt 4.6, Leading zero omitted, Abs format (unit mm)*
G04 Created by KiCad (PCBNEW 8.0.5) date 2025-05-06 01:33:23*
%MOMM*%
%LPD*%
G01*
G04 APERTURE LIST*
G04 Aperture macros list*
%AMRoundRect*
0 Rectangle with rounded corners*
0 $1 Rounding radius*
0 $2 $3 $4 $5 $6 $7 $8 $9 X,Y pos of 4 corners*
0 Add a 4 corners polygon primitive as box body*
4,1,4,$2,$3,$4,$5,$6,$7,$8,$9,$2,$3,0*
0 Add four circle primitives for the rounded corners*
1,1,$1+$1,$2,$3*
1,1,$1+$1,$4,$5*
1,1,$1+$1,$6,$7*
1,1,$1+$1,$8,$9*
0 Add four rect primitives between the rounded corners*
20,1,$1+$1,$2,$3,$4,$5,0*
20,1,$1+$1,$4,$5,$6,$7,0*
20,1,$1+$1,$6,$7,$8,$9,0*
20,1,$1+$1,$8,$9,$2,$3,0*%
G04 Aperture macros list end*
%ADD10RoundRect,0.250000X-0.450000X0.262500X-0.450000X-0.262500X0.450000X-0.262500X0.450000X0.262500X0*%
%ADD11RoundRect,0.250000X0.450000X-0.262500X0.450000X0.262500X-0.450000X0.262500X-0.450000X-0.262500X0*%
%ADD12RoundRect,0.250000X0.262500X0.450000X-0.262500X0.450000X-0.262500X-0.450000X0.262500X-0.450000X0*%
%ADD13RoundRect,0.150000X0.150000X-0.825000X0.150000X0.825000X-0.150000X0.825000X-0.150000X-0.825000X0*%
%ADD14RoundRect,0.250000X-0.650000X1.000000X-0.650000X-1.000000X0.650000X-1.000000X0.650000X1.000000X0*%
%ADD15RoundRect,0.250000X-0.475000X0.250000X-0.475000X-0.250000X0.475000X-0.250000X0.475000X0.250000X0*%
%ADD16RoundRect,0.250000X-0.262500X-0.450000X0.262500X-0.450000X0.262500X0.450000X-0.262500X0.450000X0*%
%ADD17RoundRect,0.250000X-0.250000X-0.475000X0.250000X-0.475000X0.250000X0.475000X-0.250000X0.475000X0*%
%ADD18RoundRect,0.250000X0.475000X-0.250000X0.475000X0.250000X-0.475000X0.250000X-0.475000X-0.250000X0*%
%ADD19RoundRect,0.250000X-0.850000X-0.350000X0.850000X-0.350000X0.850000X0.350000X-0.850000X0.350000X0*%
%ADD20RoundRect,0.250000X-1.275000X-1.125000X1.275000X-1.125000X1.275000X1.125000X-1.275000X1.125000X0*%
%ADD21RoundRect,0.250000X0.250000X0.475000X-0.250000X0.475000X-0.250000X-0.475000X0.250000X-0.475000X0*%
%ADD22R,1.000000X0.600000*%
%ADD23R,0.350000X0.650000*%
G04 APERTURE END LIST*
D10*
%TO.C,R45*%
X180000000Y-70837500D03*
X180000000Y-72662500D03*
%TD*%
%TO.C,R24*%
X174750000Y-72662500D03*
X174750000Y-70837500D03*
%TD*%
D11*
%TO.C,R43*%
X172325000Y-115275000D03*
X172325000Y-113450000D03*
%TD*%
%TO.C,R28*%
X146410000Y-84725526D03*
X146410000Y-82900526D03*
%TD*%
D12*
%TO.C,R17*%
X172712500Y-93700000D03*
X170887500Y-93700000D03*
%TD*%
%TO.C,R20*%
X176275000Y-87700000D03*
X174450000Y-87700000D03*
%TD*%
%TO.C,R12*%
X176425000Y-99900000D03*
X174600000Y-99900000D03*
%TD*%
%TO.C,R10*%
X176412500Y-103050000D03*
X174587500Y-103050000D03*
%TD*%
D13*
%TO.C,U3*%
X140500000Y-82713026D03*
X141770000Y-82713026D03*
X143040000Y-82713026D03*
X144310000Y-82713026D03*
X144310000Y-77763026D03*
X143040000Y-77763026D03*
X141770000Y-77763026D03*
X140500000Y-77763026D03*
%TD*%
D10*
%TO.C,R38*%
X117000000Y-88797500D03*
X117000000Y-90622500D03*
%TD*%
D14*
%TO.C,D2*%
X115995000Y-104922500D03*
X115995000Y-108922500D03*
%TD*%
D11*
%TO.C,R5*%
X118000000Y-141912500D03*
X118000000Y-140087500D03*
%TD*%
D10*
%TO.C,R30*%
X130310000Y-77200526D03*
X130310000Y-79025526D03*
%TD*%
D15*
%TO.C,C8*%
X139375000Y-132900000D03*
X139375000Y-131000000D03*
%TD*%
D10*
%TO.C,R40*%
X126250000Y-88885000D03*
X126250000Y-90710000D03*
%TD*%
D12*
%TO.C,R27*%
X138822500Y-85013026D03*
X136997500Y-85013026D03*
%TD*%
%TO.C,R16*%
X176325000Y-93700000D03*
X174500000Y-93700000D03*
%TD*%
D14*
%TO.C,D1*%
X116055000Y-120622500D03*
X116055000Y-124622500D03*
%TD*%
D10*
%TO.C,R29*%
X146210000Y-77300526D03*
X146210000Y-79125526D03*
%TD*%
D12*
%TO.C,R7*%
X172725000Y-106550000D03*
X170900000Y-106550000D03*
%TD*%
D16*
%TO.C,R3*%
X139585000Y-75013026D03*
X141410000Y-75013026D03*
%TD*%
D17*
%TO.C,C7*%
X139950000Y-123225000D03*
X141850000Y-123225000D03*
%TD*%
D15*
%TO.C,C9*%
X142625000Y-132900000D03*
X142625000Y-131000000D03*
%TD*%
D12*
%TO.C,R14*%
X176312500Y-96850000D03*
X174487500Y-96850000D03*
%TD*%
%TO.C,R32*%
X138822500Y-87013026D03*
X136997500Y-87013026D03*
%TD*%
%TO.C,R11*%
X172712500Y-103050000D03*
X170887500Y-103050000D03*
%TD*%
D18*
%TO.C,C6*%
X134310000Y-71163026D03*
X134310000Y-73063026D03*
%TD*%
D10*
%TO.C,R36*%
X126155000Y-104177500D03*
X126155000Y-106002500D03*
%TD*%
D16*
%TO.C,R25*%
X143497500Y-75013026D03*
X145322500Y-75013026D03*
%TD*%
D18*
%TO.C,C5*%
X142310000Y-72963026D03*
X142310000Y-71063026D03*
%TD*%
D10*
%TO.C,R33*%
X126160000Y-120007500D03*
X126160000Y-121832500D03*
%TD*%
%TO.C,R41*%
X174940000Y-109967500D03*
X174940000Y-111792500D03*
%TD*%
D19*
%TO.C,U5*%
X172000000Y-75432500D03*
X172000000Y-77712500D03*
D20*
X176625000Y-76187500D03*
X176625000Y-79237500D03*
X179975000Y-76187500D03*
X179975000Y-79237500D03*
D19*
X172000000Y-79992500D03*
%TD*%
D12*
%TO.C,R21*%
X172700000Y-87700000D03*
X170875000Y-87700000D03*
%TD*%
D10*
%TO.C,R42*%
X172310000Y-109927500D03*
X172310000Y-111752500D03*
%TD*%
D11*
%TO.C,R31*%
X131010000Y-87025526D03*
X131010000Y-85200526D03*
%TD*%
D12*
%TO.C,R13*%
X172712500Y-99900000D03*
X170887500Y-99900000D03*
%TD*%
D11*
%TO.C,R44*%
X174925000Y-115312500D03*
X174925000Y-113487500D03*
%TD*%
D10*
%TO.C,R34*%
X126175000Y-123757500D03*
X126175000Y-125582500D03*
%TD*%
D21*
%TO.C,C3*%
X176531250Y-65500000D03*
X174631250Y-65500000D03*
%TD*%
D16*
%TO.C,R4*%
X131522500Y-75013026D03*
X133347500Y-75013026D03*
%TD*%
%TO.C,R26*%
X135310000Y-75013026D03*
X137135000Y-75013026D03*
%TD*%
D12*
%TO.C,R18*%
X176312500Y-90650000D03*
X174487500Y-90650000D03*
%TD*%
D11*
%TO.C,R22*%
X118000000Y-136087500D03*
X118000000Y-137912500D03*
%TD*%
D12*
%TO.C,R8*%
X180293750Y-65500000D03*
X178468750Y-65500000D03*
%TD*%
D13*
%TO.C,U4*%
X132500000Y-82663026D03*
X133770000Y-82663026D03*
X135040000Y-82663026D03*
X136310000Y-82663026D03*
X136310000Y-77713026D03*
X135040000Y-77713026D03*
X133770000Y-77713026D03*
X132500000Y-77713026D03*
%TD*%
D22*
%TO.C,U2*%
X141600000Y-126362500D03*
X140400000Y-126362500D03*
X141600000Y-127137500D03*
X140400000Y-127137500D03*
D23*
X141975000Y-125200000D03*
X141325000Y-125200000D03*
X140675000Y-125200000D03*
X140025000Y-125200000D03*
X140025000Y-128300000D03*
X140675000Y-128300000D03*
X141325000Y-128300000D03*
X141975000Y-128300000D03*
%TD*%
D12*
%TO.C,R15*%
X172700000Y-96850000D03*
X170875000Y-96850000D03*
%TD*%
%TO.C,R6*%
X176437500Y-106550000D03*
X174612500Y-106550000D03*
%TD*%
D21*
%TO.C,C1*%
X143010000Y-85513026D03*
X141110000Y-85513026D03*
%TD*%
D17*
%TO.C,C10*%
X135825000Y-126550000D03*
X137725000Y-126550000D03*
%TD*%
D12*
%TO.C,R19*%
X172700000Y-90650000D03*
X170875000Y-90650000D03*
%TD*%
%TO.C,R1*%
X176300000Y-84700000D03*
X174475000Y-84700000D03*
%TD*%
%TO.C,R23*%
X135837500Y-123250000D03*
X137662500Y-123250000D03*
%TD*%
%TO.C,R9*%
X180293750Y-68500000D03*
X178468750Y-68500000D03*
%TD*%
D10*
%TO.C,R35*%
X126155000Y-108177500D03*
X126155000Y-110002500D03*
%TD*%
D21*
%TO.C,C4*%
X176531250Y-68500000D03*
X174631250Y-68500000D03*
%TD*%
D12*
%TO.C,R2*%
X172700000Y-84700000D03*
X170875000Y-84700000D03*
%TD*%
D21*
%TO.C,C2*%
X135010000Y-85413026D03*
X133110000Y-85413026D03*
%TD*%
M02*
