%TF.GenerationSoftware,KiCad,Pcbnew,8.0.5*%
%TF.CreationDate,2025-05-06T01:33:23-07:00*%
%TF.ProjectId,ccm,63636d2e-6b69-4636-9164-5f7063625858,rev?*%
%TF.SameCoordinates,Original*%
%TF.FileFunction,Soldermask,Bot*%
%TF.FilePolarity,Negative*%
%FSLAX46Y46*%
G04 Gerber Fmt 4.6, Leading zero omitted, Abs format (unit mm)*
G04 Created by KiCad (PCBNEW 8.0.5) date 2025-05-06 01:33:23*
%MOMM*%
%LPD*%
G01*
G04 APERTURE LIST*
G04 Aperture macros list*
%AMRoundRect*
0 Rectangle with rounded corners*
0 $1 Rounding radius*
0 $2 $3 $4 $5 $6 $7 $8 $9 X,Y pos of 4 corners*
0 Add a 4 corners polygon primitive as box body*
4,1,4,$2,$3,$4,$5,$6,$7,$8,$9,$2,$3,0*
0 Add four circle primitives for the rounded corners*
1,1,$1+$1,$2,$3*
1,1,$1+$1,$4,$5*
1,1,$1+$1,$6,$7*
1,1,$1+$1,$8,$9*
0 Add four rect primitives between the rounded corners*
20,1,$1+$1,$2,$3,$4,$5,0*
20,1,$1+$1,$4,$5,$6,$7,0*
20,1,$1+$1,$6,$7,$8,$9,0*
20,1,$1+$1,$8,$9,$2,$3,0*%
G04 Aperture macros list end*
%ADD10R,2.000000X1.905000*%
%ADD11O,2.000000X1.905000*%
%ADD12C,3.000000*%
%ADD13RoundRect,0.250001X-1.399999X1.099999X-1.399999X-1.099999X1.399999X-1.099999X1.399999X1.099999X0*%
%ADD14O,3.300000X2.700000*%
%ADD15RoundRect,0.250001X1.399999X-1.099999X1.399999X1.099999X-1.399999X1.099999X-1.399999X-1.099999X0*%
%ADD16RoundRect,0.250001X-1.099999X-1.399999X1.099999X-1.399999X1.099999X1.399999X-1.099999X1.399999X0*%
%ADD17O,2.700000X3.300000*%
%ADD18R,1.498600X1.498600*%
%ADD19C,1.498600*%
%ADD20C,3.200000*%
%ADD21RoundRect,0.250001X1.099999X1.399999X-1.099999X1.399999X-1.099999X-1.399999X1.099999X-1.399999X0*%
G04 APERTURE END LIST*
D10*
%TO.C,Q7*%
X121055000Y-87710000D03*
D11*
X121055000Y-90250000D03*
X121055000Y-92790000D03*
%TD*%
D12*
%TO.C,J16*%
X104750000Y-82500000D03*
X104750000Y-96100000D03*
D13*
X109790000Y-87200000D03*
D14*
X109790000Y-91400000D03*
X104290000Y-87200000D03*
X104290000Y-91400000D03*
%TD*%
D12*
%TO.C,J8*%
X209280000Y-102550000D03*
X209280000Y-88950000D03*
D15*
X204240000Y-97850000D03*
D14*
X204240000Y-93650000D03*
X209740000Y-97850000D03*
X209740000Y-93650000D03*
%TD*%
D10*
%TO.C,Q2*%
X121015000Y-120260000D03*
D11*
X121015000Y-122800000D03*
X121015000Y-125340000D03*
%TD*%
D12*
%TO.C,J10*%
X136300000Y-142290000D03*
X145700000Y-142290000D03*
D16*
X141000000Y-137250000D03*
D17*
X141000000Y-142750000D03*
%TD*%
D12*
%TO.C,J12*%
X104750000Y-102050000D03*
X104750000Y-111450000D03*
D13*
X109790000Y-106750000D03*
D14*
X104290000Y-106750000D03*
%TD*%
D12*
%TO.C,J14*%
X209330000Y-141560000D03*
X209330000Y-127960000D03*
D15*
X204290000Y-136860000D03*
D14*
X204290000Y-132660000D03*
X209790000Y-136860000D03*
X209790000Y-132660000D03*
%TD*%
D12*
%TO.C,J18*%
X209340000Y-122100000D03*
X209340000Y-108500000D03*
D15*
X204300000Y-117400000D03*
D14*
X204300000Y-113200000D03*
X209800000Y-117400000D03*
X209800000Y-113200000D03*
%TD*%
D12*
%TO.C,J13*%
X104710000Y-67000000D03*
X104710000Y-76400000D03*
D13*
X109750000Y-71700000D03*
D14*
X104250000Y-71700000D03*
%TD*%
D18*
%TO.C,U1*%
X150200000Y-75040000D03*
D19*
X150200000Y-77580000D03*
X150200000Y-80120000D03*
X150200000Y-82660000D03*
X150200000Y-85200000D03*
X150200000Y-87740000D03*
X150200000Y-90280000D03*
X150200000Y-92820000D03*
X150200000Y-95360000D03*
X150200000Y-97900000D03*
X150200000Y-100440000D03*
X150200000Y-102980000D03*
X150200000Y-105520000D03*
X150200000Y-108060000D03*
X150200000Y-110600000D03*
X150200000Y-113140000D03*
X150200000Y-115680000D03*
X150200000Y-118220000D03*
X150200000Y-120760000D03*
X150200000Y-123300000D03*
X150200000Y-125840000D03*
X150200000Y-128380000D03*
X150200000Y-130920000D03*
X150200000Y-133460000D03*
X165440000Y-133460000D03*
X165440000Y-130920000D03*
X165440000Y-128380000D03*
X165440000Y-125840000D03*
X165440000Y-123300000D03*
X165440000Y-120760000D03*
X165440000Y-118220000D03*
X165440000Y-115680000D03*
X165440000Y-113140000D03*
X165440000Y-110600000D03*
X165440000Y-108060000D03*
X165440000Y-105520000D03*
X165440000Y-102980000D03*
X165440000Y-100440000D03*
X165440000Y-97900000D03*
X165440000Y-95360000D03*
X165440000Y-92820000D03*
X165440000Y-90280000D03*
X165440000Y-87740000D03*
X165440000Y-85200000D03*
X165440000Y-82660000D03*
X165440000Y-80120000D03*
X165440000Y-77580000D03*
X165440000Y-75040000D03*
%TD*%
D20*
%TO.C,REF\u002A\u002A*%
X97000000Y-150000000D03*
%TD*%
D12*
%TO.C,J11*%
X104750000Y-117800000D03*
X104750000Y-127200000D03*
D13*
X109790000Y-122500000D03*
D14*
X104290000Y-122500000D03*
%TD*%
D20*
%TO.C,REF\u002A\u002A*%
X212000000Y-150000000D03*
%TD*%
D12*
%TO.C,J4*%
X192790000Y-102500000D03*
X192790000Y-88900000D03*
D15*
X187750000Y-97800000D03*
D14*
X187750000Y-93600000D03*
X193250000Y-97800000D03*
X193250000Y-93600000D03*
%TD*%
D12*
%TO.C,J1*%
X104750000Y-133500000D03*
X104750000Y-142900000D03*
D13*
X109790000Y-138200000D03*
D14*
X104290000Y-138200000D03*
%TD*%
D10*
%TO.C,Q3*%
X120960000Y-104550000D03*
D11*
X120960000Y-107090000D03*
X120960000Y-109630000D03*
%TD*%
D12*
%TO.C,J5*%
X192800000Y-141670000D03*
X192800000Y-128070000D03*
D15*
X187760000Y-136970000D03*
D14*
X187760000Y-132770000D03*
X193260000Y-136970000D03*
X193260000Y-132770000D03*
%TD*%
%TO.C,J17*%
X193240000Y-113140000D03*
X193240000Y-117340000D03*
X187740000Y-113140000D03*
D15*
X187740000Y-117340000D03*
D12*
X192780000Y-108440000D03*
X192780000Y-122040000D03*
%TD*%
D20*
%TO.C,REF\u002A\u002A*%
X212000000Y-60000000D03*
%TD*%
%TO.C,REF\u002A\u002A*%
X97000000Y-60000000D03*
%TD*%
D12*
%TO.C,J7*%
X193700000Y-61960000D03*
X184300000Y-61960000D03*
D21*
X189000000Y-67000000D03*
D17*
X189000000Y-61500000D03*
%TD*%
D12*
%TO.C,J6*%
X209290000Y-82200000D03*
X209290000Y-72800000D03*
D15*
X204250000Y-77500000D03*
D14*
X209750000Y-77500000D03*
%TD*%
D12*
%TO.C,J9*%
X170950000Y-61960000D03*
X161550000Y-61960000D03*
D21*
X166250000Y-67000000D03*
D17*
X166250000Y-61500000D03*
%TD*%
D12*
%TO.C,J3*%
X152700000Y-61710000D03*
X143300000Y-61710000D03*
D21*
X148000000Y-66750000D03*
D17*
X148000000Y-61250000D03*
%TD*%
D10*
%TO.C,Q1*%
X121100000Y-135900000D03*
D11*
X121100000Y-138440000D03*
X121100000Y-140980000D03*
%TD*%
D12*
%TO.C,J2*%
X169280000Y-142360000D03*
X178680000Y-142360000D03*
D16*
X173980000Y-137320000D03*
D17*
X173980000Y-142820000D03*
%TD*%
M02*
