M48
; DRILL file {KiCad 8.0.5} date 2025-05-06T01:36:58-0700
; FORMAT={-:-/ absolute / inch / decimal}
; #@! TF.CreationDate,2025-05-06T01:36:58-07:00
; #@! TF.GenerationSoftware,Kicad,Pcbnew,8.0.5
; #@! TF.FileFunction,Plated,1,2,PTH
FMAT,2
INCH
; #@! TA.AperFunction,Plated,PTH,ViaDrill
T1C0.0118
; #@! TA.AperFunction,Plated,PTH,ComponentDrill
T2C0.0390
; #@! TA.AperFunction,Plated,PTH,ComponentDrill
T3C0.0433
; #@! TA.AperFunction,Plated,PTH,ComponentDrill
T4C0.0551
%
G90
G05
T1
X5.2406Y-3.3627
X5.2665Y-3.2544
X5.4528Y-4.9016
X5.5555Y-3.3667
X5.5815Y-3.2564
X5.6102Y-5.0984
X5.6315Y-3.3655
X5.6693Y-5.1969
X5.7087Y-4.8622
X5.7563Y-3.0438
X5.8268Y-4.4094
X6.0531Y-4.7835
X6.7274Y-3.3346
X6.7274Y-3.4528
X6.7274Y-3.5689
X6.7274Y-3.813
X6.7279Y-3.689
X6.7279Y-3.9331
X6.7279Y-4.0571
X6.7283Y-4.1949
X6.7839Y-4.3279
X6.7844Y-4.5384
X6.8868Y-4.5399
X6.95Y-2.5787
X6.95Y-2.6969
T2
X5.9134Y-2.9543
X5.9134Y-3.0543
X5.9134Y-3.1543
X5.9134Y-3.2543
X5.9134Y-3.3543
X5.9134Y-3.4543
X5.9134Y-3.5543
X5.9134Y-3.6543
X5.9134Y-3.7543
X5.9134Y-3.8543
X5.9134Y-3.9543
X5.9134Y-4.0543
X5.9134Y-4.1543
X5.9134Y-4.2543
X5.9134Y-4.3543
X5.9134Y-4.4543
X5.9134Y-4.5543
X5.9134Y-4.6543
X5.9134Y-4.7543
X5.9134Y-4.8543
X5.9134Y-4.9543
X5.9134Y-5.0543
X5.9134Y-5.1543
X5.9134Y-5.2543
X6.5134Y-2.9543
X6.5134Y-3.0543
X6.5134Y-3.1543
X6.5134Y-3.2543
X6.5134Y-3.3543
X6.5134Y-3.4543
X6.5134Y-3.5543
X6.5134Y-3.6543
X6.5134Y-3.7543
X6.5134Y-3.8543
X6.5134Y-3.9543
X6.5134Y-4.0543
X6.5134Y-4.1543
X6.5134Y-4.2543
X6.5134Y-4.3543
X6.5134Y-4.4543
X6.5134Y-4.5543
X6.5134Y-4.6543
X6.5134Y-4.7543
X6.5134Y-4.8543
X6.5134Y-4.9543
X6.5134Y-5.0543
X6.5134Y-5.1543
X6.5134Y-5.2543
T3
X4.7622Y-4.1161
X4.7622Y-4.2161
X4.7622Y-4.3161
X4.7644Y-4.7346
X4.7644Y-4.8346
X4.7644Y-4.9346
X4.7659Y-3.4531
X4.7659Y-3.5531
X4.7659Y-3.6531
X4.7677Y-5.3504
X4.7677Y-5.4504
X4.7677Y-5.5504
T4
X4.1043Y-2.8228
X4.1059Y-3.4331
X4.1059Y-3.5984
X4.1059Y-4.2028
X4.1059Y-4.8228
X4.1059Y-5.4409
X4.3209Y-2.8228
X4.3224Y-3.4331
X4.3224Y-3.5984
X4.3224Y-4.2028
X4.3224Y-4.8228
X4.3224Y-5.4409
X5.5512Y-5.4035
X5.5512Y-5.6201
X5.8268Y-2.4114
X5.8268Y-2.628
X6.5453Y-2.4213
X6.5453Y-2.6378
X6.8496Y-5.4063
X6.8496Y-5.6228
X7.3913Y-4.4543
X7.3913Y-4.6197
X7.3917Y-3.685
X7.3917Y-3.8504
X7.3921Y-5.2272
X7.3921Y-5.3925
X7.4409Y-2.4213
X7.4409Y-2.6378
X7.6079Y-4.4543
X7.6079Y-4.6197
X7.6083Y-3.685
X7.6083Y-3.8504
X7.6087Y-5.2272
X7.6087Y-5.3925
X8.0409Y-3.687
X8.0409Y-3.8524
X8.0413Y-3.0512
X8.0429Y-5.2228
X8.0429Y-5.3882
X8.0433Y-4.4567
X8.0433Y-4.622
X8.2575Y-3.687
X8.2575Y-3.8524
X8.2579Y-3.0512
X8.2594Y-5.2228
X8.2594Y-5.3882
X8.2598Y-4.4567
X8.2598Y-4.622
M30
