%TF.GenerationSoftware,KiCad,Pcbnew,8.0.5*%
%TF.CreationDate,2025-05-06T01:33:23-07:00*%
%TF.ProjectId,ccm,63636d2e-6b69-4636-9164-5f7063625858,rev?*%
%TF.SameCoordinates,Original*%
%TF.FileFunction,Legend,Top*%
%TF.FilePolarity,Positive*%
%FSLAX46Y46*%
G04 Gerber Fmt 4.6, Leading zero omitted, Abs format (unit mm)*
G04 Created by KiCad (PCBNEW 8.0.5) date 2025-05-06 01:33:23*
%MOMM*%
%LPD*%
G01*
G04 APERTURE LIST*
%ADD10C,0.200000*%
%ADD11C,0.400000*%
%ADD12C,0.150000*%
%ADD13C,0.120000*%
%ADD14C,0.152400*%
G04 APERTURE END LIST*
D10*
X99257028Y-74139850D02*
X99199885Y-74082707D01*
X99199885Y-74082707D02*
X99142742Y-73968422D01*
X99142742Y-73968422D02*
X99142742Y-73682707D01*
X99142742Y-73682707D02*
X99199885Y-73568422D01*
X99199885Y-73568422D02*
X99257028Y-73511279D01*
X99257028Y-73511279D02*
X99371314Y-73454136D01*
X99371314Y-73454136D02*
X99485600Y-73454136D01*
X99485600Y-73454136D02*
X99657028Y-73511279D01*
X99657028Y-73511279D02*
X100342742Y-74196993D01*
X100342742Y-74196993D02*
X100342742Y-73454136D01*
X99542742Y-72425565D02*
X100342742Y-72425565D01*
X99085600Y-72711279D02*
X99942742Y-72996993D01*
X99942742Y-72996993D02*
X99942742Y-72254136D01*
X99142742Y-71968422D02*
X100342742Y-71568422D01*
X100342742Y-71568422D02*
X99142742Y-71168422D01*
X100342742Y-69854136D02*
X99142742Y-69854136D01*
X100342742Y-69282707D02*
X99142742Y-69282707D01*
X99142742Y-69282707D02*
X100342742Y-68596993D01*
X100342742Y-68596993D02*
X99142742Y-68596993D01*
X172917292Y-147842742D02*
X172917292Y-146642742D01*
X173431578Y-146757028D02*
X173488721Y-146699885D01*
X173488721Y-146699885D02*
X173603007Y-146642742D01*
X173603007Y-146642742D02*
X173888721Y-146642742D01*
X173888721Y-146642742D02*
X174003007Y-146699885D01*
X174003007Y-146699885D02*
X174060149Y-146757028D01*
X174060149Y-146757028D02*
X174117292Y-146871314D01*
X174117292Y-146871314D02*
X174117292Y-146985600D01*
X174117292Y-146985600D02*
X174060149Y-147157028D01*
X174060149Y-147157028D02*
X173374435Y-147842742D01*
X173374435Y-147842742D02*
X174117292Y-147842742D01*
X175317292Y-147728457D02*
X175260149Y-147785600D01*
X175260149Y-147785600D02*
X175088721Y-147842742D01*
X175088721Y-147842742D02*
X174974435Y-147842742D01*
X174974435Y-147842742D02*
X174803006Y-147785600D01*
X174803006Y-147785600D02*
X174688721Y-147671314D01*
X174688721Y-147671314D02*
X174631578Y-147557028D01*
X174631578Y-147557028D02*
X174574435Y-147328457D01*
X174574435Y-147328457D02*
X174574435Y-147157028D01*
X174574435Y-147157028D02*
X174631578Y-146928457D01*
X174631578Y-146928457D02*
X174688721Y-146814171D01*
X174688721Y-146814171D02*
X174803006Y-146699885D01*
X174803006Y-146699885D02*
X174974435Y-146642742D01*
X174974435Y-146642742D02*
X175088721Y-146642742D01*
X175088721Y-146642742D02*
X175260149Y-146699885D01*
X175260149Y-146699885D02*
X175317292Y-146757028D01*
X137360149Y-147785600D02*
X137531578Y-147842742D01*
X137531578Y-147842742D02*
X137817292Y-147842742D01*
X137817292Y-147842742D02*
X137931578Y-147785600D01*
X137931578Y-147785600D02*
X137988720Y-147728457D01*
X137988720Y-147728457D02*
X138045863Y-147614171D01*
X138045863Y-147614171D02*
X138045863Y-147499885D01*
X138045863Y-147499885D02*
X137988720Y-147385600D01*
X137988720Y-147385600D02*
X137931578Y-147328457D01*
X137931578Y-147328457D02*
X137817292Y-147271314D01*
X137817292Y-147271314D02*
X137588720Y-147214171D01*
X137588720Y-147214171D02*
X137474435Y-147157028D01*
X137474435Y-147157028D02*
X137417292Y-147099885D01*
X137417292Y-147099885D02*
X137360149Y-146985600D01*
X137360149Y-146985600D02*
X137360149Y-146871314D01*
X137360149Y-146871314D02*
X137417292Y-146757028D01*
X137417292Y-146757028D02*
X137474435Y-146699885D01*
X137474435Y-146699885D02*
X137588720Y-146642742D01*
X137588720Y-146642742D02*
X137874435Y-146642742D01*
X137874435Y-146642742D02*
X138045863Y-146699885D01*
X138560149Y-147842742D02*
X138560149Y-146642742D01*
X138560149Y-146642742D02*
X139017292Y-146642742D01*
X139017292Y-146642742D02*
X139131577Y-146699885D01*
X139131577Y-146699885D02*
X139188720Y-146757028D01*
X139188720Y-146757028D02*
X139245863Y-146871314D01*
X139245863Y-146871314D02*
X139245863Y-147042742D01*
X139245863Y-147042742D02*
X139188720Y-147157028D01*
X139188720Y-147157028D02*
X139131577Y-147214171D01*
X139131577Y-147214171D02*
X139017292Y-147271314D01*
X139017292Y-147271314D02*
X138560149Y-147271314D01*
X139760149Y-147214171D02*
X140160149Y-147214171D01*
X140331577Y-147842742D02*
X139760149Y-147842742D01*
X139760149Y-147842742D02*
X139760149Y-146642742D01*
X139760149Y-146642742D02*
X140331577Y-146642742D01*
X140788720Y-147499885D02*
X141360149Y-147499885D01*
X140674434Y-147842742D02*
X141074434Y-146642742D01*
X141074434Y-146642742D02*
X141474434Y-147842742D01*
X141874434Y-147842742D02*
X141874434Y-146642742D01*
X142560148Y-147842742D02*
X142045862Y-147157028D01*
X142560148Y-146642742D02*
X141874434Y-147328457D01*
X143074434Y-147214171D02*
X143474434Y-147214171D01*
X143645862Y-147842742D02*
X143074434Y-147842742D01*
X143074434Y-147842742D02*
X143074434Y-146642742D01*
X143074434Y-146642742D02*
X143645862Y-146642742D01*
X144845862Y-147842742D02*
X144445862Y-147271314D01*
X144160148Y-147842742D02*
X144160148Y-146642742D01*
X144160148Y-146642742D02*
X144617291Y-146642742D01*
X144617291Y-146642742D02*
X144731576Y-146699885D01*
X144731576Y-146699885D02*
X144788719Y-146757028D01*
X144788719Y-146757028D02*
X144845862Y-146871314D01*
X144845862Y-146871314D02*
X144845862Y-147042742D01*
X144845862Y-147042742D02*
X144788719Y-147157028D01*
X144788719Y-147157028D02*
X144731576Y-147214171D01*
X144731576Y-147214171D02*
X144617291Y-147271314D01*
X144617291Y-147271314D02*
X144160148Y-147271314D01*
X99714171Y-145682707D02*
X99771314Y-145511279D01*
X99771314Y-145511279D02*
X99828457Y-145454136D01*
X99828457Y-145454136D02*
X99942742Y-145396993D01*
X99942742Y-145396993D02*
X100114171Y-145396993D01*
X100114171Y-145396993D02*
X100228457Y-145454136D01*
X100228457Y-145454136D02*
X100285600Y-145511279D01*
X100285600Y-145511279D02*
X100342742Y-145625564D01*
X100342742Y-145625564D02*
X100342742Y-146082707D01*
X100342742Y-146082707D02*
X99142742Y-146082707D01*
X99142742Y-146082707D02*
X99142742Y-145682707D01*
X99142742Y-145682707D02*
X99199885Y-145568422D01*
X99199885Y-145568422D02*
X99257028Y-145511279D01*
X99257028Y-145511279D02*
X99371314Y-145454136D01*
X99371314Y-145454136D02*
X99485600Y-145454136D01*
X99485600Y-145454136D02*
X99599885Y-145511279D01*
X99599885Y-145511279D02*
X99657028Y-145568422D01*
X99657028Y-145568422D02*
X99714171Y-145682707D01*
X99714171Y-145682707D02*
X99714171Y-146082707D01*
X100342742Y-144196993D02*
X99771314Y-144596993D01*
X100342742Y-144882707D02*
X99142742Y-144882707D01*
X99142742Y-144882707D02*
X99142742Y-144425564D01*
X99142742Y-144425564D02*
X99199885Y-144311279D01*
X99199885Y-144311279D02*
X99257028Y-144254136D01*
X99257028Y-144254136D02*
X99371314Y-144196993D01*
X99371314Y-144196993D02*
X99542742Y-144196993D01*
X99542742Y-144196993D02*
X99657028Y-144254136D01*
X99657028Y-144254136D02*
X99714171Y-144311279D01*
X99714171Y-144311279D02*
X99771314Y-144425564D01*
X99771314Y-144425564D02*
X99771314Y-144882707D01*
X99999885Y-143739850D02*
X99999885Y-143168422D01*
X100342742Y-143854136D02*
X99142742Y-143454136D01*
X99142742Y-143454136D02*
X100342742Y-143054136D01*
X100342742Y-142654136D02*
X99142742Y-142654136D01*
X100342742Y-141968422D02*
X99657028Y-142482708D01*
X99142742Y-141968422D02*
X99828457Y-142654136D01*
X99714171Y-141454136D02*
X99714171Y-141054136D01*
X100342742Y-140882708D02*
X100342742Y-141454136D01*
X100342742Y-141454136D02*
X99142742Y-141454136D01*
X99142742Y-141454136D02*
X99142742Y-140882708D01*
X100342742Y-138882708D02*
X100342742Y-139454136D01*
X100342742Y-139454136D02*
X99142742Y-139454136D01*
X100342742Y-138482707D02*
X99142742Y-138482707D01*
X99199885Y-137282707D02*
X99142742Y-137396993D01*
X99142742Y-137396993D02*
X99142742Y-137568421D01*
X99142742Y-137568421D02*
X99199885Y-137739850D01*
X99199885Y-137739850D02*
X99314171Y-137854135D01*
X99314171Y-137854135D02*
X99428457Y-137911278D01*
X99428457Y-137911278D02*
X99657028Y-137968421D01*
X99657028Y-137968421D02*
X99828457Y-137968421D01*
X99828457Y-137968421D02*
X100057028Y-137911278D01*
X100057028Y-137911278D02*
X100171314Y-137854135D01*
X100171314Y-137854135D02*
X100285600Y-137739850D01*
X100285600Y-137739850D02*
X100342742Y-137568421D01*
X100342742Y-137568421D02*
X100342742Y-137454135D01*
X100342742Y-137454135D02*
X100285600Y-137282707D01*
X100285600Y-137282707D02*
X100228457Y-137225564D01*
X100228457Y-137225564D02*
X99828457Y-137225564D01*
X99828457Y-137225564D02*
X99828457Y-137454135D01*
X100342742Y-136711278D02*
X99142742Y-136711278D01*
X99714171Y-136711278D02*
X99714171Y-136025564D01*
X100342742Y-136025564D02*
X99142742Y-136025564D01*
X99142742Y-135625564D02*
X99142742Y-134939850D01*
X100342742Y-135282707D02*
X99142742Y-135282707D01*
X99085600Y-133682706D02*
X100628457Y-134711278D01*
X100342742Y-132596992D02*
X99771314Y-132996992D01*
X100342742Y-133282706D02*
X99142742Y-133282706D01*
X99142742Y-133282706D02*
X99142742Y-132825563D01*
X99142742Y-132825563D02*
X99199885Y-132711278D01*
X99199885Y-132711278D02*
X99257028Y-132654135D01*
X99257028Y-132654135D02*
X99371314Y-132596992D01*
X99371314Y-132596992D02*
X99542742Y-132596992D01*
X99542742Y-132596992D02*
X99657028Y-132654135D01*
X99657028Y-132654135D02*
X99714171Y-132711278D01*
X99714171Y-132711278D02*
X99771314Y-132825563D01*
X99771314Y-132825563D02*
X99771314Y-133282706D01*
X99142742Y-132254135D02*
X99142742Y-131568421D01*
X100342742Y-131911278D02*
X99142742Y-131911278D01*
X100342742Y-131168420D02*
X99142742Y-131168420D01*
X99142742Y-131168420D02*
X99999885Y-130768420D01*
X99999885Y-130768420D02*
X99142742Y-130368420D01*
X99142742Y-130368420D02*
X100342742Y-130368420D01*
X100342742Y-125082707D02*
X99142742Y-125082707D01*
X99142742Y-125082707D02*
X99142742Y-124625564D01*
X99142742Y-124625564D02*
X99199885Y-124511279D01*
X99199885Y-124511279D02*
X99257028Y-124454136D01*
X99257028Y-124454136D02*
X99371314Y-124396993D01*
X99371314Y-124396993D02*
X99542742Y-124396993D01*
X99542742Y-124396993D02*
X99657028Y-124454136D01*
X99657028Y-124454136D02*
X99714171Y-124511279D01*
X99714171Y-124511279D02*
X99771314Y-124625564D01*
X99771314Y-124625564D02*
X99771314Y-125082707D01*
X99142742Y-123882707D02*
X100114171Y-123882707D01*
X100114171Y-123882707D02*
X100228457Y-123825564D01*
X100228457Y-123825564D02*
X100285600Y-123768422D01*
X100285600Y-123768422D02*
X100342742Y-123654136D01*
X100342742Y-123654136D02*
X100342742Y-123425564D01*
X100342742Y-123425564D02*
X100285600Y-123311279D01*
X100285600Y-123311279D02*
X100228457Y-123254136D01*
X100228457Y-123254136D02*
X100114171Y-123196993D01*
X100114171Y-123196993D02*
X99142742Y-123196993D01*
X100342742Y-122625564D02*
X99142742Y-122625564D01*
X99142742Y-122625564D02*
X99999885Y-122225564D01*
X99999885Y-122225564D02*
X99142742Y-121825564D01*
X99142742Y-121825564D02*
X100342742Y-121825564D01*
X100342742Y-121254135D02*
X99142742Y-121254135D01*
X99142742Y-121254135D02*
X99142742Y-120796992D01*
X99142742Y-120796992D02*
X99199885Y-120682707D01*
X99199885Y-120682707D02*
X99257028Y-120625564D01*
X99257028Y-120625564D02*
X99371314Y-120568421D01*
X99371314Y-120568421D02*
X99542742Y-120568421D01*
X99542742Y-120568421D02*
X99657028Y-120625564D01*
X99657028Y-120625564D02*
X99714171Y-120682707D01*
X99714171Y-120682707D02*
X99771314Y-120796992D01*
X99771314Y-120796992D02*
X99771314Y-121254135D01*
X100342742Y-119425564D02*
X100342742Y-120111278D01*
X100342742Y-119768421D02*
X99142742Y-119768421D01*
X99142742Y-119768421D02*
X99314171Y-119882707D01*
X99314171Y-119882707D02*
X99428457Y-119996992D01*
X99428457Y-119996992D02*
X99485600Y-120111278D01*
X99842742Y-109582707D02*
X98642742Y-109582707D01*
X98642742Y-109582707D02*
X98642742Y-109125564D01*
X98642742Y-109125564D02*
X98699885Y-109011279D01*
X98699885Y-109011279D02*
X98757028Y-108954136D01*
X98757028Y-108954136D02*
X98871314Y-108896993D01*
X98871314Y-108896993D02*
X99042742Y-108896993D01*
X99042742Y-108896993D02*
X99157028Y-108954136D01*
X99157028Y-108954136D02*
X99214171Y-109011279D01*
X99214171Y-109011279D02*
X99271314Y-109125564D01*
X99271314Y-109125564D02*
X99271314Y-109582707D01*
X98642742Y-108382707D02*
X99614171Y-108382707D01*
X99614171Y-108382707D02*
X99728457Y-108325564D01*
X99728457Y-108325564D02*
X99785600Y-108268422D01*
X99785600Y-108268422D02*
X99842742Y-108154136D01*
X99842742Y-108154136D02*
X99842742Y-107925564D01*
X99842742Y-107925564D02*
X99785600Y-107811279D01*
X99785600Y-107811279D02*
X99728457Y-107754136D01*
X99728457Y-107754136D02*
X99614171Y-107696993D01*
X99614171Y-107696993D02*
X98642742Y-107696993D01*
X99842742Y-107125564D02*
X98642742Y-107125564D01*
X98642742Y-107125564D02*
X99499885Y-106725564D01*
X99499885Y-106725564D02*
X98642742Y-106325564D01*
X98642742Y-106325564D02*
X99842742Y-106325564D01*
X99842742Y-105754135D02*
X98642742Y-105754135D01*
X98642742Y-105754135D02*
X98642742Y-105296992D01*
X98642742Y-105296992D02*
X98699885Y-105182707D01*
X98699885Y-105182707D02*
X98757028Y-105125564D01*
X98757028Y-105125564D02*
X98871314Y-105068421D01*
X98871314Y-105068421D02*
X99042742Y-105068421D01*
X99042742Y-105068421D02*
X99157028Y-105125564D01*
X99157028Y-105125564D02*
X99214171Y-105182707D01*
X99214171Y-105182707D02*
X99271314Y-105296992D01*
X99271314Y-105296992D02*
X99271314Y-105754135D01*
X98757028Y-104611278D02*
X98699885Y-104554135D01*
X98699885Y-104554135D02*
X98642742Y-104439850D01*
X98642742Y-104439850D02*
X98642742Y-104154135D01*
X98642742Y-104154135D02*
X98699885Y-104039850D01*
X98699885Y-104039850D02*
X98757028Y-103982707D01*
X98757028Y-103982707D02*
X98871314Y-103925564D01*
X98871314Y-103925564D02*
X98985600Y-103925564D01*
X98985600Y-103925564D02*
X99157028Y-103982707D01*
X99157028Y-103982707D02*
X99842742Y-104668421D01*
X99842742Y-104668421D02*
X99842742Y-103925564D01*
X98714171Y-91182707D02*
X98714171Y-91582707D01*
X99342742Y-91582707D02*
X98142742Y-91582707D01*
X98142742Y-91582707D02*
X98142742Y-91011279D01*
X98999885Y-90611279D02*
X98999885Y-90039851D01*
X99342742Y-90725565D02*
X98142742Y-90325565D01*
X98142742Y-90325565D02*
X99342742Y-89925565D01*
X99342742Y-89525565D02*
X98142742Y-89525565D01*
X98142742Y-89525565D02*
X99342742Y-88839851D01*
X99342742Y-88839851D02*
X98142742Y-88839851D01*
X99285600Y-88325565D02*
X99342742Y-88154137D01*
X99342742Y-88154137D02*
X99342742Y-87868422D01*
X99342742Y-87868422D02*
X99285600Y-87754137D01*
X99285600Y-87754137D02*
X99228457Y-87696994D01*
X99228457Y-87696994D02*
X99114171Y-87639851D01*
X99114171Y-87639851D02*
X98999885Y-87639851D01*
X98999885Y-87639851D02*
X98885600Y-87696994D01*
X98885600Y-87696994D02*
X98828457Y-87754137D01*
X98828457Y-87754137D02*
X98771314Y-87868422D01*
X98771314Y-87868422D02*
X98714171Y-88096994D01*
X98714171Y-88096994D02*
X98657028Y-88211279D01*
X98657028Y-88211279D02*
X98599885Y-88268422D01*
X98599885Y-88268422D02*
X98485600Y-88325565D01*
X98485600Y-88325565D02*
X98371314Y-88325565D01*
X98371314Y-88325565D02*
X98257028Y-88268422D01*
X98257028Y-88268422D02*
X98199885Y-88211279D01*
X98199885Y-88211279D02*
X98142742Y-88096994D01*
X98142742Y-88096994D02*
X98142742Y-87811279D01*
X98142742Y-87811279D02*
X98199885Y-87639851D01*
X146603006Y-57228457D02*
X146545863Y-57285600D01*
X146545863Y-57285600D02*
X146374435Y-57342742D01*
X146374435Y-57342742D02*
X146260149Y-57342742D01*
X146260149Y-57342742D02*
X146088720Y-57285600D01*
X146088720Y-57285600D02*
X145974435Y-57171314D01*
X145974435Y-57171314D02*
X145917292Y-57057028D01*
X145917292Y-57057028D02*
X145860149Y-56828457D01*
X145860149Y-56828457D02*
X145860149Y-56657028D01*
X145860149Y-56657028D02*
X145917292Y-56428457D01*
X145917292Y-56428457D02*
X145974435Y-56314171D01*
X145974435Y-56314171D02*
X146088720Y-56199885D01*
X146088720Y-56199885D02*
X146260149Y-56142742D01*
X146260149Y-56142742D02*
X146374435Y-56142742D01*
X146374435Y-56142742D02*
X146545863Y-56199885D01*
X146545863Y-56199885D02*
X146603006Y-56257028D01*
X147060149Y-56999885D02*
X147631578Y-56999885D01*
X146945863Y-57342742D02*
X147345863Y-56142742D01*
X147345863Y-56142742D02*
X147745863Y-57342742D01*
X148145863Y-57342742D02*
X148145863Y-56142742D01*
X148145863Y-56142742D02*
X148831577Y-57342742D01*
X148831577Y-57342742D02*
X148831577Y-56142742D01*
X150031577Y-57342742D02*
X149345863Y-57342742D01*
X149688720Y-57342742D02*
X149688720Y-56142742D01*
X149688720Y-56142742D02*
X149574434Y-56314171D01*
X149574434Y-56314171D02*
X149460149Y-56428457D01*
X149460149Y-56428457D02*
X149345863Y-56485600D01*
X165103006Y-57228457D02*
X165045863Y-57285600D01*
X165045863Y-57285600D02*
X164874435Y-57342742D01*
X164874435Y-57342742D02*
X164760149Y-57342742D01*
X164760149Y-57342742D02*
X164588720Y-57285600D01*
X164588720Y-57285600D02*
X164474435Y-57171314D01*
X164474435Y-57171314D02*
X164417292Y-57057028D01*
X164417292Y-57057028D02*
X164360149Y-56828457D01*
X164360149Y-56828457D02*
X164360149Y-56657028D01*
X164360149Y-56657028D02*
X164417292Y-56428457D01*
X164417292Y-56428457D02*
X164474435Y-56314171D01*
X164474435Y-56314171D02*
X164588720Y-56199885D01*
X164588720Y-56199885D02*
X164760149Y-56142742D01*
X164760149Y-56142742D02*
X164874435Y-56142742D01*
X164874435Y-56142742D02*
X165045863Y-56199885D01*
X165045863Y-56199885D02*
X165103006Y-56257028D01*
X165560149Y-56999885D02*
X166131578Y-56999885D01*
X165445863Y-57342742D02*
X165845863Y-56142742D01*
X165845863Y-56142742D02*
X166245863Y-57342742D01*
X166645863Y-57342742D02*
X166645863Y-56142742D01*
X166645863Y-56142742D02*
X167331577Y-57342742D01*
X167331577Y-57342742D02*
X167331577Y-56142742D01*
X167845863Y-56257028D02*
X167903006Y-56199885D01*
X167903006Y-56199885D02*
X168017292Y-56142742D01*
X168017292Y-56142742D02*
X168303006Y-56142742D01*
X168303006Y-56142742D02*
X168417292Y-56199885D01*
X168417292Y-56199885D02*
X168474434Y-56257028D01*
X168474434Y-56257028D02*
X168531577Y-56371314D01*
X168531577Y-56371314D02*
X168531577Y-56485600D01*
X168531577Y-56485600D02*
X168474434Y-56657028D01*
X168474434Y-56657028D02*
X167788720Y-57342742D01*
X167788720Y-57342742D02*
X168531577Y-57342742D01*
X183803006Y-56142742D02*
X184088720Y-57342742D01*
X184088720Y-57342742D02*
X184317292Y-56485600D01*
X184317292Y-56485600D02*
X184545863Y-57342742D01*
X184545863Y-57342742D02*
X184831578Y-56142742D01*
X185288721Y-57342742D02*
X185288721Y-56142742D01*
X185288721Y-56714171D02*
X185974435Y-56714171D01*
X185974435Y-57342742D02*
X185974435Y-56142742D01*
X186545864Y-56714171D02*
X186945864Y-56714171D01*
X187117292Y-57342742D02*
X186545864Y-57342742D01*
X186545864Y-57342742D02*
X186545864Y-56142742D01*
X186545864Y-56142742D02*
X187117292Y-56142742D01*
X187631578Y-56714171D02*
X188031578Y-56714171D01*
X188203006Y-57342742D02*
X187631578Y-57342742D01*
X187631578Y-57342742D02*
X187631578Y-56142742D01*
X187631578Y-56142742D02*
X188203006Y-56142742D01*
X189288720Y-57342742D02*
X188717292Y-57342742D01*
X188717292Y-57342742D02*
X188717292Y-56142742D01*
X190603007Y-57342742D02*
X190603007Y-56142742D01*
X190603007Y-56142742D02*
X191060150Y-56142742D01*
X191060150Y-56142742D02*
X191174435Y-56199885D01*
X191174435Y-56199885D02*
X191231578Y-56257028D01*
X191231578Y-56257028D02*
X191288721Y-56371314D01*
X191288721Y-56371314D02*
X191288721Y-56542742D01*
X191288721Y-56542742D02*
X191231578Y-56657028D01*
X191231578Y-56657028D02*
X191174435Y-56714171D01*
X191174435Y-56714171D02*
X191060150Y-56771314D01*
X191060150Y-56771314D02*
X190603007Y-56771314D01*
X191688721Y-56142742D02*
X191974435Y-57342742D01*
X191974435Y-57342742D02*
X192203007Y-56485600D01*
X192203007Y-56485600D02*
X192431578Y-57342742D01*
X192431578Y-57342742D02*
X192717293Y-56142742D01*
X193174436Y-57342742D02*
X193174436Y-56142742D01*
X193174436Y-56142742D02*
X193574436Y-56999885D01*
X193574436Y-56999885D02*
X193974436Y-56142742D01*
X193974436Y-56142742D02*
X193974436Y-57342742D01*
X214842742Y-81582707D02*
X213642742Y-81582707D01*
X213642742Y-81582707D02*
X213642742Y-81125564D01*
X213642742Y-81125564D02*
X213699885Y-81011279D01*
X213699885Y-81011279D02*
X213757028Y-80954136D01*
X213757028Y-80954136D02*
X213871314Y-80896993D01*
X213871314Y-80896993D02*
X214042742Y-80896993D01*
X214042742Y-80896993D02*
X214157028Y-80954136D01*
X214157028Y-80954136D02*
X214214171Y-81011279D01*
X214214171Y-81011279D02*
X214271314Y-81125564D01*
X214271314Y-81125564D02*
X214271314Y-81582707D01*
X213642742Y-80154136D02*
X213642742Y-79925564D01*
X213642742Y-79925564D02*
X213699885Y-79811279D01*
X213699885Y-79811279D02*
X213814171Y-79696993D01*
X213814171Y-79696993D02*
X214042742Y-79639850D01*
X214042742Y-79639850D02*
X214442742Y-79639850D01*
X214442742Y-79639850D02*
X214671314Y-79696993D01*
X214671314Y-79696993D02*
X214785600Y-79811279D01*
X214785600Y-79811279D02*
X214842742Y-79925564D01*
X214842742Y-79925564D02*
X214842742Y-80154136D01*
X214842742Y-80154136D02*
X214785600Y-80268422D01*
X214785600Y-80268422D02*
X214671314Y-80382707D01*
X214671314Y-80382707D02*
X214442742Y-80439850D01*
X214442742Y-80439850D02*
X214042742Y-80439850D01*
X214042742Y-80439850D02*
X213814171Y-80382707D01*
X213814171Y-80382707D02*
X213699885Y-80268422D01*
X213699885Y-80268422D02*
X213642742Y-80154136D01*
X213642742Y-79239850D02*
X214842742Y-78954136D01*
X214842742Y-78954136D02*
X213985600Y-78725564D01*
X213985600Y-78725564D02*
X214842742Y-78496993D01*
X214842742Y-78496993D02*
X213642742Y-78211279D01*
X214214171Y-77754135D02*
X214214171Y-77354135D01*
X214842742Y-77182707D02*
X214842742Y-77754135D01*
X214842742Y-77754135D02*
X213642742Y-77754135D01*
X213642742Y-77754135D02*
X213642742Y-77182707D01*
X214842742Y-75982707D02*
X214271314Y-76382707D01*
X214842742Y-76668421D02*
X213642742Y-76668421D01*
X213642742Y-76668421D02*
X213642742Y-76211278D01*
X213642742Y-76211278D02*
X213699885Y-76096993D01*
X213699885Y-76096993D02*
X213757028Y-76039850D01*
X213757028Y-76039850D02*
X213871314Y-75982707D01*
X213871314Y-75982707D02*
X214042742Y-75982707D01*
X214042742Y-75982707D02*
X214157028Y-76039850D01*
X214157028Y-76039850D02*
X214214171Y-76096993D01*
X214214171Y-76096993D02*
X214271314Y-76211278D01*
X214271314Y-76211278D02*
X214271314Y-76668421D01*
X214842742Y-74554135D02*
X213642742Y-74554135D01*
X214842742Y-73982706D02*
X213642742Y-73982706D01*
X213642742Y-73982706D02*
X214842742Y-73296992D01*
X214842742Y-73296992D02*
X213642742Y-73296992D01*
X198342742Y-101011279D02*
X198342742Y-101582707D01*
X198342742Y-101582707D02*
X197142742Y-101582707D01*
X198342742Y-100611278D02*
X197142742Y-100611278D01*
X198342742Y-100039849D02*
X197142742Y-100039849D01*
X197142742Y-100039849D02*
X198342742Y-99354135D01*
X198342742Y-99354135D02*
X197142742Y-99354135D01*
X197714171Y-98782706D02*
X197714171Y-98382706D01*
X198342742Y-98211278D02*
X198342742Y-98782706D01*
X198342742Y-98782706D02*
X197142742Y-98782706D01*
X197142742Y-98782706D02*
X197142742Y-98211278D01*
X197999885Y-97754135D02*
X197999885Y-97182707D01*
X198342742Y-97868421D02*
X197142742Y-97468421D01*
X197142742Y-97468421D02*
X198342742Y-97068421D01*
X198342742Y-95982707D02*
X197771314Y-96382707D01*
X198342742Y-96668421D02*
X197142742Y-96668421D01*
X197142742Y-96668421D02*
X197142742Y-96211278D01*
X197142742Y-96211278D02*
X197199885Y-96096993D01*
X197199885Y-96096993D02*
X197257028Y-96039850D01*
X197257028Y-96039850D02*
X197371314Y-95982707D01*
X197371314Y-95982707D02*
X197542742Y-95982707D01*
X197542742Y-95982707D02*
X197657028Y-96039850D01*
X197657028Y-96039850D02*
X197714171Y-96096993D01*
X197714171Y-96096993D02*
X197771314Y-96211278D01*
X197771314Y-96211278D02*
X197771314Y-96668421D01*
X198342742Y-94554135D02*
X197142742Y-94554135D01*
X197142742Y-94554135D02*
X197142742Y-94096992D01*
X197142742Y-94096992D02*
X197199885Y-93982707D01*
X197199885Y-93982707D02*
X197257028Y-93925564D01*
X197257028Y-93925564D02*
X197371314Y-93868421D01*
X197371314Y-93868421D02*
X197542742Y-93868421D01*
X197542742Y-93868421D02*
X197657028Y-93925564D01*
X197657028Y-93925564D02*
X197714171Y-93982707D01*
X197714171Y-93982707D02*
X197771314Y-94096992D01*
X197771314Y-94096992D02*
X197771314Y-94554135D01*
X197142742Y-93125564D02*
X197142742Y-92896992D01*
X197142742Y-92896992D02*
X197199885Y-92782707D01*
X197199885Y-92782707D02*
X197314171Y-92668421D01*
X197314171Y-92668421D02*
X197542742Y-92611278D01*
X197542742Y-92611278D02*
X197942742Y-92611278D01*
X197942742Y-92611278D02*
X198171314Y-92668421D01*
X198171314Y-92668421D02*
X198285600Y-92782707D01*
X198285600Y-92782707D02*
X198342742Y-92896992D01*
X198342742Y-92896992D02*
X198342742Y-93125564D01*
X198342742Y-93125564D02*
X198285600Y-93239850D01*
X198285600Y-93239850D02*
X198171314Y-93354135D01*
X198171314Y-93354135D02*
X197942742Y-93411278D01*
X197942742Y-93411278D02*
X197542742Y-93411278D01*
X197542742Y-93411278D02*
X197314171Y-93354135D01*
X197314171Y-93354135D02*
X197199885Y-93239850D01*
X197199885Y-93239850D02*
X197142742Y-93125564D01*
X197142742Y-92268421D02*
X197142742Y-91582707D01*
X198342742Y-91925564D02*
X197142742Y-91925564D01*
X198285600Y-91239849D02*
X198342742Y-91068421D01*
X198342742Y-91068421D02*
X198342742Y-90782706D01*
X198342742Y-90782706D02*
X198285600Y-90668421D01*
X198285600Y-90668421D02*
X198228457Y-90611278D01*
X198228457Y-90611278D02*
X198114171Y-90554135D01*
X198114171Y-90554135D02*
X197999885Y-90554135D01*
X197999885Y-90554135D02*
X197885600Y-90611278D01*
X197885600Y-90611278D02*
X197828457Y-90668421D01*
X197828457Y-90668421D02*
X197771314Y-90782706D01*
X197771314Y-90782706D02*
X197714171Y-91011278D01*
X197714171Y-91011278D02*
X197657028Y-91125563D01*
X197657028Y-91125563D02*
X197599885Y-91182706D01*
X197599885Y-91182706D02*
X197485600Y-91239849D01*
X197485600Y-91239849D02*
X197371314Y-91239849D01*
X197371314Y-91239849D02*
X197257028Y-91182706D01*
X197257028Y-91182706D02*
X197199885Y-91125563D01*
X197199885Y-91125563D02*
X197142742Y-91011278D01*
X197142742Y-91011278D02*
X197142742Y-90725563D01*
X197142742Y-90725563D02*
X197199885Y-90554135D01*
X213710809Y-122388722D02*
X213710809Y-121703008D01*
X214910809Y-122045865D02*
X213710809Y-122045865D01*
X214910809Y-121303007D02*
X213710809Y-121303007D01*
X214282238Y-121303007D02*
X214282238Y-120617293D01*
X214910809Y-120617293D02*
X213710809Y-120617293D01*
X214282238Y-120045864D02*
X214282238Y-119645864D01*
X214910809Y-119474436D02*
X214910809Y-120045864D01*
X214910809Y-120045864D02*
X213710809Y-120045864D01*
X213710809Y-120045864D02*
X213710809Y-119474436D01*
X214910809Y-118274436D02*
X214339381Y-118674436D01*
X214910809Y-118960150D02*
X213710809Y-118960150D01*
X213710809Y-118960150D02*
X213710809Y-118503007D01*
X213710809Y-118503007D02*
X213767952Y-118388722D01*
X213767952Y-118388722D02*
X213825095Y-118331579D01*
X213825095Y-118331579D02*
X213939381Y-118274436D01*
X213939381Y-118274436D02*
X214110809Y-118274436D01*
X214110809Y-118274436D02*
X214225095Y-118331579D01*
X214225095Y-118331579D02*
X214282238Y-118388722D01*
X214282238Y-118388722D02*
X214339381Y-118503007D01*
X214339381Y-118503007D02*
X214339381Y-118960150D01*
X214910809Y-117760150D02*
X213710809Y-117760150D01*
X213710809Y-117760150D02*
X214567952Y-117360150D01*
X214567952Y-117360150D02*
X213710809Y-116960150D01*
X213710809Y-116960150D02*
X214910809Y-116960150D01*
X214910809Y-116388721D02*
X213710809Y-116388721D01*
X214853667Y-115874435D02*
X214910809Y-115703007D01*
X214910809Y-115703007D02*
X214910809Y-115417292D01*
X214910809Y-115417292D02*
X214853667Y-115303007D01*
X214853667Y-115303007D02*
X214796524Y-115245864D01*
X214796524Y-115245864D02*
X214682238Y-115188721D01*
X214682238Y-115188721D02*
X214567952Y-115188721D01*
X214567952Y-115188721D02*
X214453667Y-115245864D01*
X214453667Y-115245864D02*
X214396524Y-115303007D01*
X214396524Y-115303007D02*
X214339381Y-115417292D01*
X214339381Y-115417292D02*
X214282238Y-115645864D01*
X214282238Y-115645864D02*
X214225095Y-115760149D01*
X214225095Y-115760149D02*
X214167952Y-115817292D01*
X214167952Y-115817292D02*
X214053667Y-115874435D01*
X214053667Y-115874435D02*
X213939381Y-115874435D01*
X213939381Y-115874435D02*
X213825095Y-115817292D01*
X213825095Y-115817292D02*
X213767952Y-115760149D01*
X213767952Y-115760149D02*
X213710809Y-115645864D01*
X213710809Y-115645864D02*
X213710809Y-115360149D01*
X213710809Y-115360149D02*
X213767952Y-115188721D01*
X213710809Y-114845864D02*
X213710809Y-114160150D01*
X214910809Y-114503007D02*
X213710809Y-114503007D01*
X213710809Y-113531578D02*
X213710809Y-113303006D01*
X213710809Y-113303006D02*
X213767952Y-113188721D01*
X213767952Y-113188721D02*
X213882238Y-113074435D01*
X213882238Y-113074435D02*
X214110809Y-113017292D01*
X214110809Y-113017292D02*
X214510809Y-113017292D01*
X214510809Y-113017292D02*
X214739381Y-113074435D01*
X214739381Y-113074435D02*
X214853667Y-113188721D01*
X214853667Y-113188721D02*
X214910809Y-113303006D01*
X214910809Y-113303006D02*
X214910809Y-113531578D01*
X214910809Y-113531578D02*
X214853667Y-113645864D01*
X214853667Y-113645864D02*
X214739381Y-113760149D01*
X214739381Y-113760149D02*
X214510809Y-113817292D01*
X214510809Y-113817292D02*
X214110809Y-113817292D01*
X214110809Y-113817292D02*
X213882238Y-113760149D01*
X213882238Y-113760149D02*
X213767952Y-113645864D01*
X213767952Y-113645864D02*
X213710809Y-113531578D01*
X214910809Y-111817292D02*
X214339381Y-112217292D01*
X214910809Y-112503006D02*
X213710809Y-112503006D01*
X213710809Y-112503006D02*
X213710809Y-112045863D01*
X213710809Y-112045863D02*
X213767952Y-111931578D01*
X213767952Y-111931578D02*
X213825095Y-111874435D01*
X213825095Y-111874435D02*
X213939381Y-111817292D01*
X213939381Y-111817292D02*
X214110809Y-111817292D01*
X214110809Y-111817292D02*
X214225095Y-111874435D01*
X214225095Y-111874435D02*
X214282238Y-111931578D01*
X214282238Y-111931578D02*
X214339381Y-112045863D01*
X214339381Y-112045863D02*
X214339381Y-112503006D01*
X213710809Y-110503006D02*
X213710809Y-109760149D01*
X213710809Y-109760149D02*
X214167952Y-110160149D01*
X214167952Y-110160149D02*
X214167952Y-109988720D01*
X214167952Y-109988720D02*
X214225095Y-109874435D01*
X214225095Y-109874435D02*
X214282238Y-109817292D01*
X214282238Y-109817292D02*
X214396524Y-109760149D01*
X214396524Y-109760149D02*
X214682238Y-109760149D01*
X214682238Y-109760149D02*
X214796524Y-109817292D01*
X214796524Y-109817292D02*
X214853667Y-109874435D01*
X214853667Y-109874435D02*
X214910809Y-109988720D01*
X214910809Y-109988720D02*
X214910809Y-110331577D01*
X214910809Y-110331577D02*
X214853667Y-110445863D01*
X214853667Y-110445863D02*
X214796524Y-110503006D01*
X213653667Y-108388720D02*
X215196524Y-109417292D01*
X214110809Y-107474435D02*
X214910809Y-107474435D01*
X213653667Y-107760149D02*
X214510809Y-108045863D01*
X214510809Y-108045863D02*
X214510809Y-107303006D01*
X197142742Y-122754136D02*
X197142742Y-122068422D01*
X198342742Y-122411279D02*
X197142742Y-122411279D01*
X198342742Y-121668421D02*
X197142742Y-121668421D01*
X197714171Y-121668421D02*
X197714171Y-120982707D01*
X198342742Y-120982707D02*
X197142742Y-120982707D01*
X197714171Y-120411278D02*
X197714171Y-120011278D01*
X198342742Y-119839850D02*
X198342742Y-120411278D01*
X198342742Y-120411278D02*
X197142742Y-120411278D01*
X197142742Y-120411278D02*
X197142742Y-119839850D01*
X198342742Y-118639850D02*
X197771314Y-119039850D01*
X198342742Y-119325564D02*
X197142742Y-119325564D01*
X197142742Y-119325564D02*
X197142742Y-118868421D01*
X197142742Y-118868421D02*
X197199885Y-118754136D01*
X197199885Y-118754136D02*
X197257028Y-118696993D01*
X197257028Y-118696993D02*
X197371314Y-118639850D01*
X197371314Y-118639850D02*
X197542742Y-118639850D01*
X197542742Y-118639850D02*
X197657028Y-118696993D01*
X197657028Y-118696993D02*
X197714171Y-118754136D01*
X197714171Y-118754136D02*
X197771314Y-118868421D01*
X197771314Y-118868421D02*
X197771314Y-119325564D01*
X198342742Y-118125564D02*
X197142742Y-118125564D01*
X197142742Y-118125564D02*
X197999885Y-117725564D01*
X197999885Y-117725564D02*
X197142742Y-117325564D01*
X197142742Y-117325564D02*
X198342742Y-117325564D01*
X198342742Y-116754135D02*
X197142742Y-116754135D01*
X198285600Y-116239849D02*
X198342742Y-116068421D01*
X198342742Y-116068421D02*
X198342742Y-115782706D01*
X198342742Y-115782706D02*
X198285600Y-115668421D01*
X198285600Y-115668421D02*
X198228457Y-115611278D01*
X198228457Y-115611278D02*
X198114171Y-115554135D01*
X198114171Y-115554135D02*
X197999885Y-115554135D01*
X197999885Y-115554135D02*
X197885600Y-115611278D01*
X197885600Y-115611278D02*
X197828457Y-115668421D01*
X197828457Y-115668421D02*
X197771314Y-115782706D01*
X197771314Y-115782706D02*
X197714171Y-116011278D01*
X197714171Y-116011278D02*
X197657028Y-116125563D01*
X197657028Y-116125563D02*
X197599885Y-116182706D01*
X197599885Y-116182706D02*
X197485600Y-116239849D01*
X197485600Y-116239849D02*
X197371314Y-116239849D01*
X197371314Y-116239849D02*
X197257028Y-116182706D01*
X197257028Y-116182706D02*
X197199885Y-116125563D01*
X197199885Y-116125563D02*
X197142742Y-116011278D01*
X197142742Y-116011278D02*
X197142742Y-115725563D01*
X197142742Y-115725563D02*
X197199885Y-115554135D01*
X197142742Y-115211278D02*
X197142742Y-114525564D01*
X198342742Y-114868421D02*
X197142742Y-114868421D01*
X197142742Y-113896992D02*
X197142742Y-113668420D01*
X197142742Y-113668420D02*
X197199885Y-113554135D01*
X197199885Y-113554135D02*
X197314171Y-113439849D01*
X197314171Y-113439849D02*
X197542742Y-113382706D01*
X197542742Y-113382706D02*
X197942742Y-113382706D01*
X197942742Y-113382706D02*
X198171314Y-113439849D01*
X198171314Y-113439849D02*
X198285600Y-113554135D01*
X198285600Y-113554135D02*
X198342742Y-113668420D01*
X198342742Y-113668420D02*
X198342742Y-113896992D01*
X198342742Y-113896992D02*
X198285600Y-114011278D01*
X198285600Y-114011278D02*
X198171314Y-114125563D01*
X198171314Y-114125563D02*
X197942742Y-114182706D01*
X197942742Y-114182706D02*
X197542742Y-114182706D01*
X197542742Y-114182706D02*
X197314171Y-114125563D01*
X197314171Y-114125563D02*
X197199885Y-114011278D01*
X197199885Y-114011278D02*
X197142742Y-113896992D01*
X198342742Y-112182706D02*
X197771314Y-112582706D01*
X198342742Y-112868420D02*
X197142742Y-112868420D01*
X197142742Y-112868420D02*
X197142742Y-112411277D01*
X197142742Y-112411277D02*
X197199885Y-112296992D01*
X197199885Y-112296992D02*
X197257028Y-112239849D01*
X197257028Y-112239849D02*
X197371314Y-112182706D01*
X197371314Y-112182706D02*
X197542742Y-112182706D01*
X197542742Y-112182706D02*
X197657028Y-112239849D01*
X197657028Y-112239849D02*
X197714171Y-112296992D01*
X197714171Y-112296992D02*
X197771314Y-112411277D01*
X197771314Y-112411277D02*
X197771314Y-112868420D01*
X198342742Y-110125563D02*
X198342742Y-110811277D01*
X198342742Y-110468420D02*
X197142742Y-110468420D01*
X197142742Y-110468420D02*
X197314171Y-110582706D01*
X197314171Y-110582706D02*
X197428457Y-110696991D01*
X197428457Y-110696991D02*
X197485600Y-110811277D01*
X197085600Y-108754134D02*
X198628457Y-109782706D01*
X197257028Y-108411277D02*
X197199885Y-108354134D01*
X197199885Y-108354134D02*
X197142742Y-108239849D01*
X197142742Y-108239849D02*
X197142742Y-107954134D01*
X197142742Y-107954134D02*
X197199885Y-107839849D01*
X197199885Y-107839849D02*
X197257028Y-107782706D01*
X197257028Y-107782706D02*
X197371314Y-107725563D01*
X197371314Y-107725563D02*
X197485600Y-107725563D01*
X197485600Y-107725563D02*
X197657028Y-107782706D01*
X197657028Y-107782706D02*
X198342742Y-108468420D01*
X198342742Y-108468420D02*
X198342742Y-107725563D01*
X213699885Y-138454136D02*
X213642742Y-138568422D01*
X213642742Y-138568422D02*
X213642742Y-138739850D01*
X213642742Y-138739850D02*
X213699885Y-138911279D01*
X213699885Y-138911279D02*
X213814171Y-139025564D01*
X213814171Y-139025564D02*
X213928457Y-139082707D01*
X213928457Y-139082707D02*
X214157028Y-139139850D01*
X214157028Y-139139850D02*
X214328457Y-139139850D01*
X214328457Y-139139850D02*
X214557028Y-139082707D01*
X214557028Y-139082707D02*
X214671314Y-139025564D01*
X214671314Y-139025564D02*
X214785600Y-138911279D01*
X214785600Y-138911279D02*
X214842742Y-138739850D01*
X214842742Y-138739850D02*
X214842742Y-138625564D01*
X214842742Y-138625564D02*
X214785600Y-138454136D01*
X214785600Y-138454136D02*
X214728457Y-138396993D01*
X214728457Y-138396993D02*
X214328457Y-138396993D01*
X214328457Y-138396993D02*
X214328457Y-138625564D01*
X214842742Y-137882707D02*
X213642742Y-137882707D01*
X213642742Y-137882707D02*
X213642742Y-137425564D01*
X213642742Y-137425564D02*
X213699885Y-137311279D01*
X213699885Y-137311279D02*
X213757028Y-137254136D01*
X213757028Y-137254136D02*
X213871314Y-137196993D01*
X213871314Y-137196993D02*
X214042742Y-137196993D01*
X214042742Y-137196993D02*
X214157028Y-137254136D01*
X214157028Y-137254136D02*
X214214171Y-137311279D01*
X214214171Y-137311279D02*
X214271314Y-137425564D01*
X214271314Y-137425564D02*
X214271314Y-137882707D01*
X214842742Y-136682707D02*
X213642742Y-136682707D01*
X213642742Y-135882707D02*
X213642742Y-135654135D01*
X213642742Y-135654135D02*
X213699885Y-135539850D01*
X213699885Y-135539850D02*
X213814171Y-135425564D01*
X213814171Y-135425564D02*
X214042742Y-135368421D01*
X214042742Y-135368421D02*
X214442742Y-135368421D01*
X214442742Y-135368421D02*
X214671314Y-135425564D01*
X214671314Y-135425564D02*
X214785600Y-135539850D01*
X214785600Y-135539850D02*
X214842742Y-135654135D01*
X214842742Y-135654135D02*
X214842742Y-135882707D01*
X214842742Y-135882707D02*
X214785600Y-135996993D01*
X214785600Y-135996993D02*
X214671314Y-136111278D01*
X214671314Y-136111278D02*
X214442742Y-136168421D01*
X214442742Y-136168421D02*
X214042742Y-136168421D01*
X214042742Y-136168421D02*
X213814171Y-136111278D01*
X213814171Y-136111278D02*
X213699885Y-135996993D01*
X213699885Y-135996993D02*
X213642742Y-135882707D01*
X213642742Y-134054135D02*
X213642742Y-133311278D01*
X213642742Y-133311278D02*
X214099885Y-133711278D01*
X214099885Y-133711278D02*
X214099885Y-133539849D01*
X214099885Y-133539849D02*
X214157028Y-133425564D01*
X214157028Y-133425564D02*
X214214171Y-133368421D01*
X214214171Y-133368421D02*
X214328457Y-133311278D01*
X214328457Y-133311278D02*
X214614171Y-133311278D01*
X214614171Y-133311278D02*
X214728457Y-133368421D01*
X214728457Y-133368421D02*
X214785600Y-133425564D01*
X214785600Y-133425564D02*
X214842742Y-133539849D01*
X214842742Y-133539849D02*
X214842742Y-133882706D01*
X214842742Y-133882706D02*
X214785600Y-133996992D01*
X214785600Y-133996992D02*
X214728457Y-134054135D01*
X213585600Y-131939849D02*
X215128457Y-132968421D01*
X214042742Y-131025564D02*
X214842742Y-131025564D01*
X213585600Y-131311278D02*
X214442742Y-131596992D01*
X214442742Y-131596992D02*
X214442742Y-130854135D01*
X197199885Y-138454136D02*
X197142742Y-138568422D01*
X197142742Y-138568422D02*
X197142742Y-138739850D01*
X197142742Y-138739850D02*
X197199885Y-138911279D01*
X197199885Y-138911279D02*
X197314171Y-139025564D01*
X197314171Y-139025564D02*
X197428457Y-139082707D01*
X197428457Y-139082707D02*
X197657028Y-139139850D01*
X197657028Y-139139850D02*
X197828457Y-139139850D01*
X197828457Y-139139850D02*
X198057028Y-139082707D01*
X198057028Y-139082707D02*
X198171314Y-139025564D01*
X198171314Y-139025564D02*
X198285600Y-138911279D01*
X198285600Y-138911279D02*
X198342742Y-138739850D01*
X198342742Y-138739850D02*
X198342742Y-138625564D01*
X198342742Y-138625564D02*
X198285600Y-138454136D01*
X198285600Y-138454136D02*
X198228457Y-138396993D01*
X198228457Y-138396993D02*
X197828457Y-138396993D01*
X197828457Y-138396993D02*
X197828457Y-138625564D01*
X198342742Y-137882707D02*
X197142742Y-137882707D01*
X197142742Y-137882707D02*
X197142742Y-137425564D01*
X197142742Y-137425564D02*
X197199885Y-137311279D01*
X197199885Y-137311279D02*
X197257028Y-137254136D01*
X197257028Y-137254136D02*
X197371314Y-137196993D01*
X197371314Y-137196993D02*
X197542742Y-137196993D01*
X197542742Y-137196993D02*
X197657028Y-137254136D01*
X197657028Y-137254136D02*
X197714171Y-137311279D01*
X197714171Y-137311279D02*
X197771314Y-137425564D01*
X197771314Y-137425564D02*
X197771314Y-137882707D01*
X198342742Y-136682707D02*
X197142742Y-136682707D01*
X197142742Y-135882707D02*
X197142742Y-135654135D01*
X197142742Y-135654135D02*
X197199885Y-135539850D01*
X197199885Y-135539850D02*
X197314171Y-135425564D01*
X197314171Y-135425564D02*
X197542742Y-135368421D01*
X197542742Y-135368421D02*
X197942742Y-135368421D01*
X197942742Y-135368421D02*
X198171314Y-135425564D01*
X198171314Y-135425564D02*
X198285600Y-135539850D01*
X198285600Y-135539850D02*
X198342742Y-135654135D01*
X198342742Y-135654135D02*
X198342742Y-135882707D01*
X198342742Y-135882707D02*
X198285600Y-135996993D01*
X198285600Y-135996993D02*
X198171314Y-136111278D01*
X198171314Y-136111278D02*
X197942742Y-136168421D01*
X197942742Y-136168421D02*
X197542742Y-136168421D01*
X197542742Y-136168421D02*
X197314171Y-136111278D01*
X197314171Y-136111278D02*
X197199885Y-135996993D01*
X197199885Y-135996993D02*
X197142742Y-135882707D01*
X198342742Y-133311278D02*
X198342742Y-133996992D01*
X198342742Y-133654135D02*
X197142742Y-133654135D01*
X197142742Y-133654135D02*
X197314171Y-133768421D01*
X197314171Y-133768421D02*
X197428457Y-133882706D01*
X197428457Y-133882706D02*
X197485600Y-133996992D01*
X197085600Y-131939849D02*
X198628457Y-132968421D01*
X197257028Y-131596992D02*
X197199885Y-131539849D01*
X197199885Y-131539849D02*
X197142742Y-131425564D01*
X197142742Y-131425564D02*
X197142742Y-131139849D01*
X197142742Y-131139849D02*
X197199885Y-131025564D01*
X197199885Y-131025564D02*
X197257028Y-130968421D01*
X197257028Y-130968421D02*
X197371314Y-130911278D01*
X197371314Y-130911278D02*
X197485600Y-130911278D01*
X197485600Y-130911278D02*
X197657028Y-130968421D01*
X197657028Y-130968421D02*
X198342742Y-131654135D01*
X198342742Y-131654135D02*
X198342742Y-130911278D01*
D11*
X104703633Y-60554319D02*
X104501252Y-60756700D01*
X104501252Y-60756700D02*
X103894109Y-60959080D01*
X103894109Y-60959080D02*
X103489347Y-60959080D01*
X103489347Y-60959080D02*
X102882204Y-60756700D01*
X102882204Y-60756700D02*
X102477442Y-60351938D01*
X102477442Y-60351938D02*
X102275061Y-59947176D01*
X102275061Y-59947176D02*
X102072680Y-59137652D01*
X102072680Y-59137652D02*
X102072680Y-58530509D01*
X102072680Y-58530509D02*
X102275061Y-57720985D01*
X102275061Y-57720985D02*
X102477442Y-57316223D01*
X102477442Y-57316223D02*
X102882204Y-56911461D01*
X102882204Y-56911461D02*
X103489347Y-56709080D01*
X103489347Y-56709080D02*
X103894109Y-56709080D01*
X103894109Y-56709080D02*
X104501252Y-56911461D01*
X104501252Y-56911461D02*
X104703633Y-57113842D01*
X108953633Y-60554319D02*
X108751252Y-60756700D01*
X108751252Y-60756700D02*
X108144109Y-60959080D01*
X108144109Y-60959080D02*
X107739347Y-60959080D01*
X107739347Y-60959080D02*
X107132204Y-60756700D01*
X107132204Y-60756700D02*
X106727442Y-60351938D01*
X106727442Y-60351938D02*
X106525061Y-59947176D01*
X106525061Y-59947176D02*
X106322680Y-59137652D01*
X106322680Y-59137652D02*
X106322680Y-58530509D01*
X106322680Y-58530509D02*
X106525061Y-57720985D01*
X106525061Y-57720985D02*
X106727442Y-57316223D01*
X106727442Y-57316223D02*
X107132204Y-56911461D01*
X107132204Y-56911461D02*
X107739347Y-56709080D01*
X107739347Y-56709080D02*
X108144109Y-56709080D01*
X108144109Y-56709080D02*
X108751252Y-56911461D01*
X108751252Y-56911461D02*
X108953633Y-57113842D01*
X110775061Y-60959080D02*
X110775061Y-56709080D01*
X110775061Y-56709080D02*
X112191728Y-59744795D01*
X112191728Y-59744795D02*
X113608395Y-56709080D01*
X113608395Y-56709080D02*
X113608395Y-60959080D01*
X118263156Y-56709080D02*
X119679823Y-60959080D01*
X119679823Y-60959080D02*
X121096490Y-56709080D01*
X122310775Y-57113842D02*
X122513156Y-56911461D01*
X122513156Y-56911461D02*
X122917918Y-56709080D01*
X122917918Y-56709080D02*
X123929823Y-56709080D01*
X123929823Y-56709080D02*
X124334585Y-56911461D01*
X124334585Y-56911461D02*
X124536966Y-57113842D01*
X124536966Y-57113842D02*
X124739347Y-57518604D01*
X124739347Y-57518604D02*
X124739347Y-57923366D01*
X124739347Y-57923366D02*
X124536966Y-58530509D01*
X124536966Y-58530509D02*
X122108394Y-60959080D01*
X122108394Y-60959080D02*
X124739347Y-60959080D01*
D10*
X214499885Y-104639850D02*
X214499885Y-104068422D01*
X214842742Y-104754136D02*
X213642742Y-104354136D01*
X213642742Y-104354136D02*
X214842742Y-103954136D01*
X214728457Y-102868422D02*
X214785600Y-102925565D01*
X214785600Y-102925565D02*
X214842742Y-103096993D01*
X214842742Y-103096993D02*
X214842742Y-103211279D01*
X214842742Y-103211279D02*
X214785600Y-103382708D01*
X214785600Y-103382708D02*
X214671314Y-103496993D01*
X214671314Y-103496993D02*
X214557028Y-103554136D01*
X214557028Y-103554136D02*
X214328457Y-103611279D01*
X214328457Y-103611279D02*
X214157028Y-103611279D01*
X214157028Y-103611279D02*
X213928457Y-103554136D01*
X213928457Y-103554136D02*
X213814171Y-103496993D01*
X213814171Y-103496993D02*
X213699885Y-103382708D01*
X213699885Y-103382708D02*
X213642742Y-103211279D01*
X213642742Y-103211279D02*
X213642742Y-103096993D01*
X213642742Y-103096993D02*
X213699885Y-102925565D01*
X213699885Y-102925565D02*
X213757028Y-102868422D01*
X214728457Y-101668422D02*
X214785600Y-101725565D01*
X214785600Y-101725565D02*
X214842742Y-101896993D01*
X214842742Y-101896993D02*
X214842742Y-102011279D01*
X214842742Y-102011279D02*
X214785600Y-102182708D01*
X214785600Y-102182708D02*
X214671314Y-102296993D01*
X214671314Y-102296993D02*
X214557028Y-102354136D01*
X214557028Y-102354136D02*
X214328457Y-102411279D01*
X214328457Y-102411279D02*
X214157028Y-102411279D01*
X214157028Y-102411279D02*
X213928457Y-102354136D01*
X213928457Y-102354136D02*
X213814171Y-102296993D01*
X213814171Y-102296993D02*
X213699885Y-102182708D01*
X213699885Y-102182708D02*
X213642742Y-102011279D01*
X213642742Y-102011279D02*
X213642742Y-101896993D01*
X213642742Y-101896993D02*
X213699885Y-101725565D01*
X213699885Y-101725565D02*
X213757028Y-101668422D01*
X214214171Y-101154136D02*
X214214171Y-100754136D01*
X214842742Y-100582708D02*
X214842742Y-101154136D01*
X214842742Y-101154136D02*
X213642742Y-101154136D01*
X213642742Y-101154136D02*
X213642742Y-100582708D01*
X214842742Y-99496994D02*
X214842742Y-100068422D01*
X214842742Y-100068422D02*
X213642742Y-100068422D01*
X213585600Y-98239850D02*
X215128457Y-99268422D01*
X214214171Y-97439850D02*
X214271314Y-97268422D01*
X214271314Y-97268422D02*
X214328457Y-97211279D01*
X214328457Y-97211279D02*
X214442742Y-97154136D01*
X214442742Y-97154136D02*
X214614171Y-97154136D01*
X214614171Y-97154136D02*
X214728457Y-97211279D01*
X214728457Y-97211279D02*
X214785600Y-97268422D01*
X214785600Y-97268422D02*
X214842742Y-97382707D01*
X214842742Y-97382707D02*
X214842742Y-97839850D01*
X214842742Y-97839850D02*
X213642742Y-97839850D01*
X213642742Y-97839850D02*
X213642742Y-97439850D01*
X213642742Y-97439850D02*
X213699885Y-97325565D01*
X213699885Y-97325565D02*
X213757028Y-97268422D01*
X213757028Y-97268422D02*
X213871314Y-97211279D01*
X213871314Y-97211279D02*
X213985600Y-97211279D01*
X213985600Y-97211279D02*
X214099885Y-97268422D01*
X214099885Y-97268422D02*
X214157028Y-97325565D01*
X214157028Y-97325565D02*
X214214171Y-97439850D01*
X214214171Y-97439850D02*
X214214171Y-97839850D01*
X214842742Y-95954136D02*
X214271314Y-96354136D01*
X214842742Y-96639850D02*
X213642742Y-96639850D01*
X213642742Y-96639850D02*
X213642742Y-96182707D01*
X213642742Y-96182707D02*
X213699885Y-96068422D01*
X213699885Y-96068422D02*
X213757028Y-96011279D01*
X213757028Y-96011279D02*
X213871314Y-95954136D01*
X213871314Y-95954136D02*
X214042742Y-95954136D01*
X214042742Y-95954136D02*
X214157028Y-96011279D01*
X214157028Y-96011279D02*
X214214171Y-96068422D01*
X214214171Y-96068422D02*
X214271314Y-96182707D01*
X214271314Y-96182707D02*
X214271314Y-96639850D01*
X214499885Y-95496993D02*
X214499885Y-94925565D01*
X214842742Y-95611279D02*
X213642742Y-95211279D01*
X213642742Y-95211279D02*
X214842742Y-94811279D01*
X214842742Y-94411279D02*
X213642742Y-94411279D01*
X214842742Y-93725565D02*
X214157028Y-94239851D01*
X213642742Y-93725565D02*
X214328457Y-94411279D01*
X214214171Y-93211279D02*
X214214171Y-92811279D01*
X214842742Y-92639851D02*
X214842742Y-93211279D01*
X214842742Y-93211279D02*
X213642742Y-93211279D01*
X213642742Y-93211279D02*
X213642742Y-92639851D01*
X214842742Y-91211279D02*
X213642742Y-91211279D01*
X213642742Y-91211279D02*
X213642742Y-90754136D01*
X213642742Y-90754136D02*
X213699885Y-90639851D01*
X213699885Y-90639851D02*
X213757028Y-90582708D01*
X213757028Y-90582708D02*
X213871314Y-90525565D01*
X213871314Y-90525565D02*
X214042742Y-90525565D01*
X214042742Y-90525565D02*
X214157028Y-90582708D01*
X214157028Y-90582708D02*
X214214171Y-90639851D01*
X214214171Y-90639851D02*
X214271314Y-90754136D01*
X214271314Y-90754136D02*
X214271314Y-91211279D01*
X214214171Y-90011279D02*
X214214171Y-89611279D01*
X214842742Y-89439851D02*
X214842742Y-90011279D01*
X214842742Y-90011279D02*
X213642742Y-90011279D01*
X213642742Y-90011279D02*
X213642742Y-89439851D01*
X214842742Y-88925565D02*
X213642742Y-88925565D01*
X213642742Y-88925565D02*
X213642742Y-88639851D01*
X213642742Y-88639851D02*
X213699885Y-88468422D01*
X213699885Y-88468422D02*
X213814171Y-88354137D01*
X213814171Y-88354137D02*
X213928457Y-88296994D01*
X213928457Y-88296994D02*
X214157028Y-88239851D01*
X214157028Y-88239851D02*
X214328457Y-88239851D01*
X214328457Y-88239851D02*
X214557028Y-88296994D01*
X214557028Y-88296994D02*
X214671314Y-88354137D01*
X214671314Y-88354137D02*
X214785600Y-88468422D01*
X214785600Y-88468422D02*
X214842742Y-88639851D01*
X214842742Y-88639851D02*
X214842742Y-88925565D01*
X214499885Y-87782708D02*
X214499885Y-87211280D01*
X214842742Y-87896994D02*
X213642742Y-87496994D01*
X213642742Y-87496994D02*
X214842742Y-87096994D01*
X214842742Y-86125566D02*
X214842742Y-86696994D01*
X214842742Y-86696994D02*
X213642742Y-86696994D01*
D12*
X182104819Y-72392857D02*
X181628628Y-72726190D01*
X182104819Y-72964285D02*
X181104819Y-72964285D01*
X181104819Y-72964285D02*
X181104819Y-72583333D01*
X181104819Y-72583333D02*
X181152438Y-72488095D01*
X181152438Y-72488095D02*
X181200057Y-72440476D01*
X181200057Y-72440476D02*
X181295295Y-72392857D01*
X181295295Y-72392857D02*
X181438152Y-72392857D01*
X181438152Y-72392857D02*
X181533390Y-72440476D01*
X181533390Y-72440476D02*
X181581009Y-72488095D01*
X181581009Y-72488095D02*
X181628628Y-72583333D01*
X181628628Y-72583333D02*
X181628628Y-72964285D01*
X181438152Y-71535714D02*
X182104819Y-71535714D01*
X181057200Y-71773809D02*
X181771485Y-72011904D01*
X181771485Y-72011904D02*
X181771485Y-71392857D01*
X181104819Y-70535714D02*
X181104819Y-71011904D01*
X181104819Y-71011904D02*
X181581009Y-71059523D01*
X181581009Y-71059523D02*
X181533390Y-71011904D01*
X181533390Y-71011904D02*
X181485771Y-70916666D01*
X181485771Y-70916666D02*
X181485771Y-70678571D01*
X181485771Y-70678571D02*
X181533390Y-70583333D01*
X181533390Y-70583333D02*
X181581009Y-70535714D01*
X181581009Y-70535714D02*
X181676247Y-70488095D01*
X181676247Y-70488095D02*
X181914342Y-70488095D01*
X181914342Y-70488095D02*
X182009580Y-70535714D01*
X182009580Y-70535714D02*
X182057200Y-70583333D01*
X182057200Y-70583333D02*
X182104819Y-70678571D01*
X182104819Y-70678571D02*
X182104819Y-70916666D01*
X182104819Y-70916666D02*
X182057200Y-71011904D01*
X182057200Y-71011904D02*
X182009580Y-71059523D01*
X176954819Y-72642857D02*
X176478628Y-72976190D01*
X176954819Y-73214285D02*
X175954819Y-73214285D01*
X175954819Y-73214285D02*
X175954819Y-72833333D01*
X175954819Y-72833333D02*
X176002438Y-72738095D01*
X176002438Y-72738095D02*
X176050057Y-72690476D01*
X176050057Y-72690476D02*
X176145295Y-72642857D01*
X176145295Y-72642857D02*
X176288152Y-72642857D01*
X176288152Y-72642857D02*
X176383390Y-72690476D01*
X176383390Y-72690476D02*
X176431009Y-72738095D01*
X176431009Y-72738095D02*
X176478628Y-72833333D01*
X176478628Y-72833333D02*
X176478628Y-73214285D01*
X176050057Y-72261904D02*
X176002438Y-72214285D01*
X176002438Y-72214285D02*
X175954819Y-72119047D01*
X175954819Y-72119047D02*
X175954819Y-71880952D01*
X175954819Y-71880952D02*
X176002438Y-71785714D01*
X176002438Y-71785714D02*
X176050057Y-71738095D01*
X176050057Y-71738095D02*
X176145295Y-71690476D01*
X176145295Y-71690476D02*
X176240533Y-71690476D01*
X176240533Y-71690476D02*
X176383390Y-71738095D01*
X176383390Y-71738095D02*
X176954819Y-72309523D01*
X176954819Y-72309523D02*
X176954819Y-71690476D01*
X176288152Y-70833333D02*
X176954819Y-70833333D01*
X175907200Y-71071428D02*
X176621485Y-71309523D01*
X176621485Y-71309523D02*
X176621485Y-70690476D01*
X121709761Y-84760057D02*
X121614523Y-84712438D01*
X121614523Y-84712438D02*
X121519285Y-84617200D01*
X121519285Y-84617200D02*
X121376428Y-84474342D01*
X121376428Y-84474342D02*
X121281190Y-84426723D01*
X121281190Y-84426723D02*
X121185952Y-84426723D01*
X121233571Y-84664819D02*
X121138333Y-84617200D01*
X121138333Y-84617200D02*
X121043095Y-84521961D01*
X121043095Y-84521961D02*
X120995476Y-84331485D01*
X120995476Y-84331485D02*
X120995476Y-83998152D01*
X120995476Y-83998152D02*
X121043095Y-83807676D01*
X121043095Y-83807676D02*
X121138333Y-83712438D01*
X121138333Y-83712438D02*
X121233571Y-83664819D01*
X121233571Y-83664819D02*
X121424047Y-83664819D01*
X121424047Y-83664819D02*
X121519285Y-83712438D01*
X121519285Y-83712438D02*
X121614523Y-83807676D01*
X121614523Y-83807676D02*
X121662142Y-83998152D01*
X121662142Y-83998152D02*
X121662142Y-84331485D01*
X121662142Y-84331485D02*
X121614523Y-84521961D01*
X121614523Y-84521961D02*
X121519285Y-84617200D01*
X121519285Y-84617200D02*
X121424047Y-84664819D01*
X121424047Y-84664819D02*
X121233571Y-84664819D01*
X121995476Y-83664819D02*
X122662142Y-83664819D01*
X122662142Y-83664819D02*
X122233571Y-84664819D01*
X96454819Y-90309523D02*
X97169104Y-90309523D01*
X97169104Y-90309523D02*
X97311961Y-90357142D01*
X97311961Y-90357142D02*
X97407200Y-90452380D01*
X97407200Y-90452380D02*
X97454819Y-90595237D01*
X97454819Y-90595237D02*
X97454819Y-90690475D01*
X97454819Y-89309523D02*
X97454819Y-89880951D01*
X97454819Y-89595237D02*
X96454819Y-89595237D01*
X96454819Y-89595237D02*
X96597676Y-89690475D01*
X96597676Y-89690475D02*
X96692914Y-89785713D01*
X96692914Y-89785713D02*
X96740533Y-89880951D01*
X96454819Y-88452380D02*
X96454819Y-88642856D01*
X96454819Y-88642856D02*
X96502438Y-88738094D01*
X96502438Y-88738094D02*
X96550057Y-88785713D01*
X96550057Y-88785713D02*
X96692914Y-88880951D01*
X96692914Y-88880951D02*
X96883390Y-88928570D01*
X96883390Y-88928570D02*
X97264342Y-88928570D01*
X97264342Y-88928570D02*
X97359580Y-88880951D01*
X97359580Y-88880951D02*
X97407200Y-88833332D01*
X97407200Y-88833332D02*
X97454819Y-88738094D01*
X97454819Y-88738094D02*
X97454819Y-88547618D01*
X97454819Y-88547618D02*
X97407200Y-88452380D01*
X97407200Y-88452380D02*
X97359580Y-88404761D01*
X97359580Y-88404761D02*
X97264342Y-88357142D01*
X97264342Y-88357142D02*
X97026247Y-88357142D01*
X97026247Y-88357142D02*
X96931009Y-88404761D01*
X96931009Y-88404761D02*
X96883390Y-88452380D01*
X96883390Y-88452380D02*
X96835771Y-88547618D01*
X96835771Y-88547618D02*
X96835771Y-88738094D01*
X96835771Y-88738094D02*
X96883390Y-88833332D01*
X96883390Y-88833332D02*
X96931009Y-88880951D01*
X96931009Y-88880951D02*
X97026247Y-88928570D01*
X171129819Y-115005357D02*
X170653628Y-115338690D01*
X171129819Y-115576785D02*
X170129819Y-115576785D01*
X170129819Y-115576785D02*
X170129819Y-115195833D01*
X170129819Y-115195833D02*
X170177438Y-115100595D01*
X170177438Y-115100595D02*
X170225057Y-115052976D01*
X170225057Y-115052976D02*
X170320295Y-115005357D01*
X170320295Y-115005357D02*
X170463152Y-115005357D01*
X170463152Y-115005357D02*
X170558390Y-115052976D01*
X170558390Y-115052976D02*
X170606009Y-115100595D01*
X170606009Y-115100595D02*
X170653628Y-115195833D01*
X170653628Y-115195833D02*
X170653628Y-115576785D01*
X170463152Y-114148214D02*
X171129819Y-114148214D01*
X170082200Y-114386309D02*
X170796485Y-114624404D01*
X170796485Y-114624404D02*
X170796485Y-114005357D01*
X170129819Y-113719642D02*
X170129819Y-113100595D01*
X170129819Y-113100595D02*
X170510771Y-113433928D01*
X170510771Y-113433928D02*
X170510771Y-113291071D01*
X170510771Y-113291071D02*
X170558390Y-113195833D01*
X170558390Y-113195833D02*
X170606009Y-113148214D01*
X170606009Y-113148214D02*
X170701247Y-113100595D01*
X170701247Y-113100595D02*
X170939342Y-113100595D01*
X170939342Y-113100595D02*
X171034580Y-113148214D01*
X171034580Y-113148214D02*
X171082200Y-113195833D01*
X171082200Y-113195833D02*
X171129819Y-113291071D01*
X171129819Y-113291071D02*
X171129819Y-113576785D01*
X171129819Y-113576785D02*
X171082200Y-113672023D01*
X171082200Y-113672023D02*
X171034580Y-113719642D01*
X148564819Y-84355883D02*
X148088628Y-84689216D01*
X148564819Y-84927311D02*
X147564819Y-84927311D01*
X147564819Y-84927311D02*
X147564819Y-84546359D01*
X147564819Y-84546359D02*
X147612438Y-84451121D01*
X147612438Y-84451121D02*
X147660057Y-84403502D01*
X147660057Y-84403502D02*
X147755295Y-84355883D01*
X147755295Y-84355883D02*
X147898152Y-84355883D01*
X147898152Y-84355883D02*
X147993390Y-84403502D01*
X147993390Y-84403502D02*
X148041009Y-84451121D01*
X148041009Y-84451121D02*
X148088628Y-84546359D01*
X148088628Y-84546359D02*
X148088628Y-84927311D01*
X147660057Y-83974930D02*
X147612438Y-83927311D01*
X147612438Y-83927311D02*
X147564819Y-83832073D01*
X147564819Y-83832073D02*
X147564819Y-83593978D01*
X147564819Y-83593978D02*
X147612438Y-83498740D01*
X147612438Y-83498740D02*
X147660057Y-83451121D01*
X147660057Y-83451121D02*
X147755295Y-83403502D01*
X147755295Y-83403502D02*
X147850533Y-83403502D01*
X147850533Y-83403502D02*
X147993390Y-83451121D01*
X147993390Y-83451121D02*
X148564819Y-84022549D01*
X148564819Y-84022549D02*
X148564819Y-83403502D01*
X147993390Y-82832073D02*
X147945771Y-82927311D01*
X147945771Y-82927311D02*
X147898152Y-82974930D01*
X147898152Y-82974930D02*
X147802914Y-83022549D01*
X147802914Y-83022549D02*
X147755295Y-83022549D01*
X147755295Y-83022549D02*
X147660057Y-82974930D01*
X147660057Y-82974930D02*
X147612438Y-82927311D01*
X147612438Y-82927311D02*
X147564819Y-82832073D01*
X147564819Y-82832073D02*
X147564819Y-82641597D01*
X147564819Y-82641597D02*
X147612438Y-82546359D01*
X147612438Y-82546359D02*
X147660057Y-82498740D01*
X147660057Y-82498740D02*
X147755295Y-82451121D01*
X147755295Y-82451121D02*
X147802914Y-82451121D01*
X147802914Y-82451121D02*
X147898152Y-82498740D01*
X147898152Y-82498740D02*
X147945771Y-82546359D01*
X147945771Y-82546359D02*
X147993390Y-82641597D01*
X147993390Y-82641597D02*
X147993390Y-82832073D01*
X147993390Y-82832073D02*
X148041009Y-82927311D01*
X148041009Y-82927311D02*
X148088628Y-82974930D01*
X148088628Y-82974930D02*
X148183866Y-83022549D01*
X148183866Y-83022549D02*
X148374342Y-83022549D01*
X148374342Y-83022549D02*
X148469580Y-82974930D01*
X148469580Y-82974930D02*
X148517200Y-82927311D01*
X148517200Y-82927311D02*
X148564819Y-82832073D01*
X148564819Y-82832073D02*
X148564819Y-82641597D01*
X148564819Y-82641597D02*
X148517200Y-82546359D01*
X148517200Y-82546359D02*
X148469580Y-82498740D01*
X148469580Y-82498740D02*
X148374342Y-82451121D01*
X148374342Y-82451121D02*
X148183866Y-82451121D01*
X148183866Y-82451121D02*
X148088628Y-82498740D01*
X148088628Y-82498740D02*
X148041009Y-82546359D01*
X148041009Y-82546359D02*
X147993390Y-82641597D01*
X171157142Y-95804819D02*
X170823809Y-95328628D01*
X170585714Y-95804819D02*
X170585714Y-94804819D01*
X170585714Y-94804819D02*
X170966666Y-94804819D01*
X170966666Y-94804819D02*
X171061904Y-94852438D01*
X171061904Y-94852438D02*
X171109523Y-94900057D01*
X171109523Y-94900057D02*
X171157142Y-94995295D01*
X171157142Y-94995295D02*
X171157142Y-95138152D01*
X171157142Y-95138152D02*
X171109523Y-95233390D01*
X171109523Y-95233390D02*
X171061904Y-95281009D01*
X171061904Y-95281009D02*
X170966666Y-95328628D01*
X170966666Y-95328628D02*
X170585714Y-95328628D01*
X172109523Y-95804819D02*
X171538095Y-95804819D01*
X171823809Y-95804819D02*
X171823809Y-94804819D01*
X171823809Y-94804819D02*
X171728571Y-94947676D01*
X171728571Y-94947676D02*
X171633333Y-95042914D01*
X171633333Y-95042914D02*
X171538095Y-95090533D01*
X172442857Y-94804819D02*
X173109523Y-94804819D01*
X173109523Y-94804819D02*
X172680952Y-95804819D01*
X215454819Y-96333333D02*
X216169104Y-96333333D01*
X216169104Y-96333333D02*
X216311961Y-96380952D01*
X216311961Y-96380952D02*
X216407200Y-96476190D01*
X216407200Y-96476190D02*
X216454819Y-96619047D01*
X216454819Y-96619047D02*
X216454819Y-96714285D01*
X215883390Y-95714285D02*
X215835771Y-95809523D01*
X215835771Y-95809523D02*
X215788152Y-95857142D01*
X215788152Y-95857142D02*
X215692914Y-95904761D01*
X215692914Y-95904761D02*
X215645295Y-95904761D01*
X215645295Y-95904761D02*
X215550057Y-95857142D01*
X215550057Y-95857142D02*
X215502438Y-95809523D01*
X215502438Y-95809523D02*
X215454819Y-95714285D01*
X215454819Y-95714285D02*
X215454819Y-95523809D01*
X215454819Y-95523809D02*
X215502438Y-95428571D01*
X215502438Y-95428571D02*
X215550057Y-95380952D01*
X215550057Y-95380952D02*
X215645295Y-95333333D01*
X215645295Y-95333333D02*
X215692914Y-95333333D01*
X215692914Y-95333333D02*
X215788152Y-95380952D01*
X215788152Y-95380952D02*
X215835771Y-95428571D01*
X215835771Y-95428571D02*
X215883390Y-95523809D01*
X215883390Y-95523809D02*
X215883390Y-95714285D01*
X215883390Y-95714285D02*
X215931009Y-95809523D01*
X215931009Y-95809523D02*
X215978628Y-95857142D01*
X215978628Y-95857142D02*
X216073866Y-95904761D01*
X216073866Y-95904761D02*
X216264342Y-95904761D01*
X216264342Y-95904761D02*
X216359580Y-95857142D01*
X216359580Y-95857142D02*
X216407200Y-95809523D01*
X216407200Y-95809523D02*
X216454819Y-95714285D01*
X216454819Y-95714285D02*
X216454819Y-95523809D01*
X216454819Y-95523809D02*
X216407200Y-95428571D01*
X216407200Y-95428571D02*
X216359580Y-95380952D01*
X216359580Y-95380952D02*
X216264342Y-95333333D01*
X216264342Y-95333333D02*
X216073866Y-95333333D01*
X216073866Y-95333333D02*
X215978628Y-95380952D01*
X215978628Y-95380952D02*
X215931009Y-95428571D01*
X215931009Y-95428571D02*
X215883390Y-95523809D01*
X174757142Y-89654819D02*
X174423809Y-89178628D01*
X174185714Y-89654819D02*
X174185714Y-88654819D01*
X174185714Y-88654819D02*
X174566666Y-88654819D01*
X174566666Y-88654819D02*
X174661904Y-88702438D01*
X174661904Y-88702438D02*
X174709523Y-88750057D01*
X174709523Y-88750057D02*
X174757142Y-88845295D01*
X174757142Y-88845295D02*
X174757142Y-88988152D01*
X174757142Y-88988152D02*
X174709523Y-89083390D01*
X174709523Y-89083390D02*
X174661904Y-89131009D01*
X174661904Y-89131009D02*
X174566666Y-89178628D01*
X174566666Y-89178628D02*
X174185714Y-89178628D01*
X175138095Y-88750057D02*
X175185714Y-88702438D01*
X175185714Y-88702438D02*
X175280952Y-88654819D01*
X175280952Y-88654819D02*
X175519047Y-88654819D01*
X175519047Y-88654819D02*
X175614285Y-88702438D01*
X175614285Y-88702438D02*
X175661904Y-88750057D01*
X175661904Y-88750057D02*
X175709523Y-88845295D01*
X175709523Y-88845295D02*
X175709523Y-88940533D01*
X175709523Y-88940533D02*
X175661904Y-89083390D01*
X175661904Y-89083390D02*
X175090476Y-89654819D01*
X175090476Y-89654819D02*
X175709523Y-89654819D01*
X176328571Y-88654819D02*
X176423809Y-88654819D01*
X176423809Y-88654819D02*
X176519047Y-88702438D01*
X176519047Y-88702438D02*
X176566666Y-88750057D01*
X176566666Y-88750057D02*
X176614285Y-88845295D01*
X176614285Y-88845295D02*
X176661904Y-89035771D01*
X176661904Y-89035771D02*
X176661904Y-89273866D01*
X176661904Y-89273866D02*
X176614285Y-89464342D01*
X176614285Y-89464342D02*
X176566666Y-89559580D01*
X176566666Y-89559580D02*
X176519047Y-89607200D01*
X176519047Y-89607200D02*
X176423809Y-89654819D01*
X176423809Y-89654819D02*
X176328571Y-89654819D01*
X176328571Y-89654819D02*
X176233333Y-89607200D01*
X176233333Y-89607200D02*
X176185714Y-89559580D01*
X176185714Y-89559580D02*
X176138095Y-89464342D01*
X176138095Y-89464342D02*
X176090476Y-89273866D01*
X176090476Y-89273866D02*
X176090476Y-89035771D01*
X176090476Y-89035771D02*
X176138095Y-88845295D01*
X176138095Y-88845295D02*
X176185714Y-88750057D01*
X176185714Y-88750057D02*
X176233333Y-88702438D01*
X176233333Y-88702438D02*
X176328571Y-88654819D01*
X174869642Y-102004819D02*
X174536309Y-101528628D01*
X174298214Y-102004819D02*
X174298214Y-101004819D01*
X174298214Y-101004819D02*
X174679166Y-101004819D01*
X174679166Y-101004819D02*
X174774404Y-101052438D01*
X174774404Y-101052438D02*
X174822023Y-101100057D01*
X174822023Y-101100057D02*
X174869642Y-101195295D01*
X174869642Y-101195295D02*
X174869642Y-101338152D01*
X174869642Y-101338152D02*
X174822023Y-101433390D01*
X174822023Y-101433390D02*
X174774404Y-101481009D01*
X174774404Y-101481009D02*
X174679166Y-101528628D01*
X174679166Y-101528628D02*
X174298214Y-101528628D01*
X175822023Y-102004819D02*
X175250595Y-102004819D01*
X175536309Y-102004819D02*
X175536309Y-101004819D01*
X175536309Y-101004819D02*
X175441071Y-101147676D01*
X175441071Y-101147676D02*
X175345833Y-101242914D01*
X175345833Y-101242914D02*
X175250595Y-101290533D01*
X176202976Y-101100057D02*
X176250595Y-101052438D01*
X176250595Y-101052438D02*
X176345833Y-101004819D01*
X176345833Y-101004819D02*
X176583928Y-101004819D01*
X176583928Y-101004819D02*
X176679166Y-101052438D01*
X176679166Y-101052438D02*
X176726785Y-101100057D01*
X176726785Y-101100057D02*
X176774404Y-101195295D01*
X176774404Y-101195295D02*
X176774404Y-101290533D01*
X176774404Y-101290533D02*
X176726785Y-101433390D01*
X176726785Y-101433390D02*
X176155357Y-102004819D01*
X176155357Y-102004819D02*
X176774404Y-102004819D01*
X174857142Y-105154819D02*
X174523809Y-104678628D01*
X174285714Y-105154819D02*
X174285714Y-104154819D01*
X174285714Y-104154819D02*
X174666666Y-104154819D01*
X174666666Y-104154819D02*
X174761904Y-104202438D01*
X174761904Y-104202438D02*
X174809523Y-104250057D01*
X174809523Y-104250057D02*
X174857142Y-104345295D01*
X174857142Y-104345295D02*
X174857142Y-104488152D01*
X174857142Y-104488152D02*
X174809523Y-104583390D01*
X174809523Y-104583390D02*
X174761904Y-104631009D01*
X174761904Y-104631009D02*
X174666666Y-104678628D01*
X174666666Y-104678628D02*
X174285714Y-104678628D01*
X175809523Y-105154819D02*
X175238095Y-105154819D01*
X175523809Y-105154819D02*
X175523809Y-104154819D01*
X175523809Y-104154819D02*
X175428571Y-104297676D01*
X175428571Y-104297676D02*
X175333333Y-104392914D01*
X175333333Y-104392914D02*
X175238095Y-104440533D01*
X176428571Y-104154819D02*
X176523809Y-104154819D01*
X176523809Y-104154819D02*
X176619047Y-104202438D01*
X176619047Y-104202438D02*
X176666666Y-104250057D01*
X176666666Y-104250057D02*
X176714285Y-104345295D01*
X176714285Y-104345295D02*
X176761904Y-104535771D01*
X176761904Y-104535771D02*
X176761904Y-104773866D01*
X176761904Y-104773866D02*
X176714285Y-104964342D01*
X176714285Y-104964342D02*
X176666666Y-105059580D01*
X176666666Y-105059580D02*
X176619047Y-105107200D01*
X176619047Y-105107200D02*
X176523809Y-105154819D01*
X176523809Y-105154819D02*
X176428571Y-105154819D01*
X176428571Y-105154819D02*
X176333333Y-105107200D01*
X176333333Y-105107200D02*
X176285714Y-105059580D01*
X176285714Y-105059580D02*
X176238095Y-104964342D01*
X176238095Y-104964342D02*
X176190476Y-104773866D01*
X176190476Y-104773866D02*
X176190476Y-104535771D01*
X176190476Y-104535771D02*
X176238095Y-104345295D01*
X176238095Y-104345295D02*
X176285714Y-104250057D01*
X176285714Y-104250057D02*
X176333333Y-104202438D01*
X176333333Y-104202438D02*
X176428571Y-104154819D01*
X138459819Y-80999930D02*
X139269342Y-80999930D01*
X139269342Y-80999930D02*
X139364580Y-80952311D01*
X139364580Y-80952311D02*
X139412200Y-80904692D01*
X139412200Y-80904692D02*
X139459819Y-80809454D01*
X139459819Y-80809454D02*
X139459819Y-80618978D01*
X139459819Y-80618978D02*
X139412200Y-80523740D01*
X139412200Y-80523740D02*
X139364580Y-80476121D01*
X139364580Y-80476121D02*
X139269342Y-80428502D01*
X139269342Y-80428502D02*
X138459819Y-80428502D01*
X138459819Y-80047549D02*
X138459819Y-79428502D01*
X138459819Y-79428502D02*
X138840771Y-79761835D01*
X138840771Y-79761835D02*
X138840771Y-79618978D01*
X138840771Y-79618978D02*
X138888390Y-79523740D01*
X138888390Y-79523740D02*
X138936009Y-79476121D01*
X138936009Y-79476121D02*
X139031247Y-79428502D01*
X139031247Y-79428502D02*
X139269342Y-79428502D01*
X139269342Y-79428502D02*
X139364580Y-79476121D01*
X139364580Y-79476121D02*
X139412200Y-79523740D01*
X139412200Y-79523740D02*
X139459819Y-79618978D01*
X139459819Y-79618978D02*
X139459819Y-79904692D01*
X139459819Y-79904692D02*
X139412200Y-79999930D01*
X139412200Y-79999930D02*
X139364580Y-80047549D01*
X119039819Y-105838094D02*
X118039819Y-105838094D01*
X118039819Y-105838094D02*
X118039819Y-105599999D01*
X118039819Y-105599999D02*
X118087438Y-105457142D01*
X118087438Y-105457142D02*
X118182676Y-105361904D01*
X118182676Y-105361904D02*
X118277914Y-105314285D01*
X118277914Y-105314285D02*
X118468390Y-105266666D01*
X118468390Y-105266666D02*
X118611247Y-105266666D01*
X118611247Y-105266666D02*
X118801723Y-105314285D01*
X118801723Y-105314285D02*
X118896961Y-105361904D01*
X118896961Y-105361904D02*
X118992200Y-105457142D01*
X118992200Y-105457142D02*
X119039819Y-105599999D01*
X119039819Y-105599999D02*
X119039819Y-105838094D01*
X118135057Y-104885713D02*
X118087438Y-104838094D01*
X118087438Y-104838094D02*
X118039819Y-104742856D01*
X118039819Y-104742856D02*
X118039819Y-104504761D01*
X118039819Y-104504761D02*
X118087438Y-104409523D01*
X118087438Y-104409523D02*
X118135057Y-104361904D01*
X118135057Y-104361904D02*
X118230295Y-104314285D01*
X118230295Y-104314285D02*
X118325533Y-104314285D01*
X118325533Y-104314285D02*
X118468390Y-104361904D01*
X118468390Y-104361904D02*
X119039819Y-104933332D01*
X119039819Y-104933332D02*
X119039819Y-104314285D01*
X116954819Y-141166666D02*
X116478628Y-141499999D01*
X116954819Y-141738094D02*
X115954819Y-141738094D01*
X115954819Y-141738094D02*
X115954819Y-141357142D01*
X115954819Y-141357142D02*
X116002438Y-141261904D01*
X116002438Y-141261904D02*
X116050057Y-141214285D01*
X116050057Y-141214285D02*
X116145295Y-141166666D01*
X116145295Y-141166666D02*
X116288152Y-141166666D01*
X116288152Y-141166666D02*
X116383390Y-141214285D01*
X116383390Y-141214285D02*
X116431009Y-141261904D01*
X116431009Y-141261904D02*
X116478628Y-141357142D01*
X116478628Y-141357142D02*
X116478628Y-141738094D01*
X115954819Y-140261904D02*
X115954819Y-140738094D01*
X115954819Y-140738094D02*
X116431009Y-140785713D01*
X116431009Y-140785713D02*
X116383390Y-140738094D01*
X116383390Y-140738094D02*
X116335771Y-140642856D01*
X116335771Y-140642856D02*
X116335771Y-140404761D01*
X116335771Y-140404761D02*
X116383390Y-140309523D01*
X116383390Y-140309523D02*
X116431009Y-140261904D01*
X116431009Y-140261904D02*
X116526247Y-140214285D01*
X116526247Y-140214285D02*
X116764342Y-140214285D01*
X116764342Y-140214285D02*
X116859580Y-140261904D01*
X116859580Y-140261904D02*
X116907200Y-140309523D01*
X116907200Y-140309523D02*
X116954819Y-140404761D01*
X116954819Y-140404761D02*
X116954819Y-140642856D01*
X116954819Y-140642856D02*
X116907200Y-140738094D01*
X116907200Y-140738094D02*
X116859580Y-140785713D01*
X121769761Y-117480057D02*
X121674523Y-117432438D01*
X121674523Y-117432438D02*
X121579285Y-117337200D01*
X121579285Y-117337200D02*
X121436428Y-117194342D01*
X121436428Y-117194342D02*
X121341190Y-117146723D01*
X121341190Y-117146723D02*
X121245952Y-117146723D01*
X121293571Y-117384819D02*
X121198333Y-117337200D01*
X121198333Y-117337200D02*
X121103095Y-117241961D01*
X121103095Y-117241961D02*
X121055476Y-117051485D01*
X121055476Y-117051485D02*
X121055476Y-116718152D01*
X121055476Y-116718152D02*
X121103095Y-116527676D01*
X121103095Y-116527676D02*
X121198333Y-116432438D01*
X121198333Y-116432438D02*
X121293571Y-116384819D01*
X121293571Y-116384819D02*
X121484047Y-116384819D01*
X121484047Y-116384819D02*
X121579285Y-116432438D01*
X121579285Y-116432438D02*
X121674523Y-116527676D01*
X121674523Y-116527676D02*
X121722142Y-116718152D01*
X121722142Y-116718152D02*
X121722142Y-117051485D01*
X121722142Y-117051485D02*
X121674523Y-117241961D01*
X121674523Y-117241961D02*
X121579285Y-117337200D01*
X121579285Y-117337200D02*
X121484047Y-117384819D01*
X121484047Y-117384819D02*
X121293571Y-117384819D01*
X122103095Y-116480057D02*
X122150714Y-116432438D01*
X122150714Y-116432438D02*
X122245952Y-116384819D01*
X122245952Y-116384819D02*
X122484047Y-116384819D01*
X122484047Y-116384819D02*
X122579285Y-116432438D01*
X122579285Y-116432438D02*
X122626904Y-116480057D01*
X122626904Y-116480057D02*
X122674523Y-116575295D01*
X122674523Y-116575295D02*
X122674523Y-116670533D01*
X122674523Y-116670533D02*
X122626904Y-116813390D01*
X122626904Y-116813390D02*
X122055476Y-117384819D01*
X122055476Y-117384819D02*
X122674523Y-117384819D01*
X128964819Y-78755883D02*
X128488628Y-79089216D01*
X128964819Y-79327311D02*
X127964819Y-79327311D01*
X127964819Y-79327311D02*
X127964819Y-78946359D01*
X127964819Y-78946359D02*
X128012438Y-78851121D01*
X128012438Y-78851121D02*
X128060057Y-78803502D01*
X128060057Y-78803502D02*
X128155295Y-78755883D01*
X128155295Y-78755883D02*
X128298152Y-78755883D01*
X128298152Y-78755883D02*
X128393390Y-78803502D01*
X128393390Y-78803502D02*
X128441009Y-78851121D01*
X128441009Y-78851121D02*
X128488628Y-78946359D01*
X128488628Y-78946359D02*
X128488628Y-79327311D01*
X127964819Y-78422549D02*
X127964819Y-77803502D01*
X127964819Y-77803502D02*
X128345771Y-78136835D01*
X128345771Y-78136835D02*
X128345771Y-77993978D01*
X128345771Y-77993978D02*
X128393390Y-77898740D01*
X128393390Y-77898740D02*
X128441009Y-77851121D01*
X128441009Y-77851121D02*
X128536247Y-77803502D01*
X128536247Y-77803502D02*
X128774342Y-77803502D01*
X128774342Y-77803502D02*
X128869580Y-77851121D01*
X128869580Y-77851121D02*
X128917200Y-77898740D01*
X128917200Y-77898740D02*
X128964819Y-77993978D01*
X128964819Y-77993978D02*
X128964819Y-78279692D01*
X128964819Y-78279692D02*
X128917200Y-78374930D01*
X128917200Y-78374930D02*
X128869580Y-78422549D01*
X127964819Y-77184454D02*
X127964819Y-77089216D01*
X127964819Y-77089216D02*
X128012438Y-76993978D01*
X128012438Y-76993978D02*
X128060057Y-76946359D01*
X128060057Y-76946359D02*
X128155295Y-76898740D01*
X128155295Y-76898740D02*
X128345771Y-76851121D01*
X128345771Y-76851121D02*
X128583866Y-76851121D01*
X128583866Y-76851121D02*
X128774342Y-76898740D01*
X128774342Y-76898740D02*
X128869580Y-76946359D01*
X128869580Y-76946359D02*
X128917200Y-76993978D01*
X128917200Y-76993978D02*
X128964819Y-77089216D01*
X128964819Y-77089216D02*
X128964819Y-77184454D01*
X128964819Y-77184454D02*
X128917200Y-77279692D01*
X128917200Y-77279692D02*
X128869580Y-77327311D01*
X128869580Y-77327311D02*
X128774342Y-77374930D01*
X128774342Y-77374930D02*
X128583866Y-77422549D01*
X128583866Y-77422549D02*
X128345771Y-77422549D01*
X128345771Y-77422549D02*
X128155295Y-77374930D01*
X128155295Y-77374930D02*
X128060057Y-77327311D01*
X128060057Y-77327311D02*
X128012438Y-77279692D01*
X128012438Y-77279692D02*
X127964819Y-77184454D01*
X139690476Y-148954819D02*
X139690476Y-149669104D01*
X139690476Y-149669104D02*
X139642857Y-149811961D01*
X139642857Y-149811961D02*
X139547619Y-149907200D01*
X139547619Y-149907200D02*
X139404762Y-149954819D01*
X139404762Y-149954819D02*
X139309524Y-149954819D01*
X140690476Y-149954819D02*
X140119048Y-149954819D01*
X140404762Y-149954819D02*
X140404762Y-148954819D01*
X140404762Y-148954819D02*
X140309524Y-149097676D01*
X140309524Y-149097676D02*
X140214286Y-149192914D01*
X140214286Y-149192914D02*
X140119048Y-149240533D01*
X141309524Y-148954819D02*
X141404762Y-148954819D01*
X141404762Y-148954819D02*
X141500000Y-149002438D01*
X141500000Y-149002438D02*
X141547619Y-149050057D01*
X141547619Y-149050057D02*
X141595238Y-149145295D01*
X141595238Y-149145295D02*
X141642857Y-149335771D01*
X141642857Y-149335771D02*
X141642857Y-149573866D01*
X141642857Y-149573866D02*
X141595238Y-149764342D01*
X141595238Y-149764342D02*
X141547619Y-149859580D01*
X141547619Y-149859580D02*
X141500000Y-149907200D01*
X141500000Y-149907200D02*
X141404762Y-149954819D01*
X141404762Y-149954819D02*
X141309524Y-149954819D01*
X141309524Y-149954819D02*
X141214286Y-149907200D01*
X141214286Y-149907200D02*
X141166667Y-149859580D01*
X141166667Y-149859580D02*
X141119048Y-149764342D01*
X141119048Y-149764342D02*
X141071429Y-149573866D01*
X141071429Y-149573866D02*
X141071429Y-149335771D01*
X141071429Y-149335771D02*
X141119048Y-149145295D01*
X141119048Y-149145295D02*
X141166667Y-149050057D01*
X141166667Y-149050057D02*
X141214286Y-149002438D01*
X141214286Y-149002438D02*
X141309524Y-148954819D01*
X138059580Y-132116666D02*
X138107200Y-132164285D01*
X138107200Y-132164285D02*
X138154819Y-132307142D01*
X138154819Y-132307142D02*
X138154819Y-132402380D01*
X138154819Y-132402380D02*
X138107200Y-132545237D01*
X138107200Y-132545237D02*
X138011961Y-132640475D01*
X138011961Y-132640475D02*
X137916723Y-132688094D01*
X137916723Y-132688094D02*
X137726247Y-132735713D01*
X137726247Y-132735713D02*
X137583390Y-132735713D01*
X137583390Y-132735713D02*
X137392914Y-132688094D01*
X137392914Y-132688094D02*
X137297676Y-132640475D01*
X137297676Y-132640475D02*
X137202438Y-132545237D01*
X137202438Y-132545237D02*
X137154819Y-132402380D01*
X137154819Y-132402380D02*
X137154819Y-132307142D01*
X137154819Y-132307142D02*
X137202438Y-132164285D01*
X137202438Y-132164285D02*
X137250057Y-132116666D01*
X137583390Y-131545237D02*
X137535771Y-131640475D01*
X137535771Y-131640475D02*
X137488152Y-131688094D01*
X137488152Y-131688094D02*
X137392914Y-131735713D01*
X137392914Y-131735713D02*
X137345295Y-131735713D01*
X137345295Y-131735713D02*
X137250057Y-131688094D01*
X137250057Y-131688094D02*
X137202438Y-131640475D01*
X137202438Y-131640475D02*
X137154819Y-131545237D01*
X137154819Y-131545237D02*
X137154819Y-131354761D01*
X137154819Y-131354761D02*
X137202438Y-131259523D01*
X137202438Y-131259523D02*
X137250057Y-131211904D01*
X137250057Y-131211904D02*
X137345295Y-131164285D01*
X137345295Y-131164285D02*
X137392914Y-131164285D01*
X137392914Y-131164285D02*
X137488152Y-131211904D01*
X137488152Y-131211904D02*
X137535771Y-131259523D01*
X137535771Y-131259523D02*
X137583390Y-131354761D01*
X137583390Y-131354761D02*
X137583390Y-131545237D01*
X137583390Y-131545237D02*
X137631009Y-131640475D01*
X137631009Y-131640475D02*
X137678628Y-131688094D01*
X137678628Y-131688094D02*
X137773866Y-131735713D01*
X137773866Y-131735713D02*
X137964342Y-131735713D01*
X137964342Y-131735713D02*
X138059580Y-131688094D01*
X138059580Y-131688094D02*
X138107200Y-131640475D01*
X138107200Y-131640475D02*
X138154819Y-131545237D01*
X138154819Y-131545237D02*
X138154819Y-131354761D01*
X138154819Y-131354761D02*
X138107200Y-131259523D01*
X138107200Y-131259523D02*
X138059580Y-131211904D01*
X138059580Y-131211904D02*
X137964342Y-131164285D01*
X137964342Y-131164285D02*
X137773866Y-131164285D01*
X137773866Y-131164285D02*
X137678628Y-131211904D01*
X137678628Y-131211904D02*
X137631009Y-131259523D01*
X137631009Y-131259523D02*
X137583390Y-131354761D01*
X128454819Y-90437857D02*
X127978628Y-90771190D01*
X128454819Y-91009285D02*
X127454819Y-91009285D01*
X127454819Y-91009285D02*
X127454819Y-90628333D01*
X127454819Y-90628333D02*
X127502438Y-90533095D01*
X127502438Y-90533095D02*
X127550057Y-90485476D01*
X127550057Y-90485476D02*
X127645295Y-90437857D01*
X127645295Y-90437857D02*
X127788152Y-90437857D01*
X127788152Y-90437857D02*
X127883390Y-90485476D01*
X127883390Y-90485476D02*
X127931009Y-90533095D01*
X127931009Y-90533095D02*
X127978628Y-90628333D01*
X127978628Y-90628333D02*
X127978628Y-91009285D01*
X127788152Y-89580714D02*
X128454819Y-89580714D01*
X127407200Y-89818809D02*
X128121485Y-90056904D01*
X128121485Y-90056904D02*
X128121485Y-89437857D01*
X127454819Y-88866428D02*
X127454819Y-88771190D01*
X127454819Y-88771190D02*
X127502438Y-88675952D01*
X127502438Y-88675952D02*
X127550057Y-88628333D01*
X127550057Y-88628333D02*
X127645295Y-88580714D01*
X127645295Y-88580714D02*
X127835771Y-88533095D01*
X127835771Y-88533095D02*
X128073866Y-88533095D01*
X128073866Y-88533095D02*
X128264342Y-88580714D01*
X128264342Y-88580714D02*
X128359580Y-88628333D01*
X128359580Y-88628333D02*
X128407200Y-88675952D01*
X128407200Y-88675952D02*
X128454819Y-88771190D01*
X128454819Y-88771190D02*
X128454819Y-88866428D01*
X128454819Y-88866428D02*
X128407200Y-88961666D01*
X128407200Y-88961666D02*
X128359580Y-89009285D01*
X128359580Y-89009285D02*
X128264342Y-89056904D01*
X128264342Y-89056904D02*
X128073866Y-89104523D01*
X128073866Y-89104523D02*
X127835771Y-89104523D01*
X127835771Y-89104523D02*
X127645295Y-89056904D01*
X127645295Y-89056904D02*
X127550057Y-89009285D01*
X127550057Y-89009285D02*
X127502438Y-88961666D01*
X127502438Y-88961666D02*
X127454819Y-88866428D01*
X111639819Y-102349523D02*
X112354104Y-102349523D01*
X112354104Y-102349523D02*
X112496961Y-102397142D01*
X112496961Y-102397142D02*
X112592200Y-102492380D01*
X112592200Y-102492380D02*
X112639819Y-102635237D01*
X112639819Y-102635237D02*
X112639819Y-102730475D01*
X112639819Y-101349523D02*
X112639819Y-101920951D01*
X112639819Y-101635237D02*
X111639819Y-101635237D01*
X111639819Y-101635237D02*
X111782676Y-101730475D01*
X111782676Y-101730475D02*
X111877914Y-101825713D01*
X111877914Y-101825713D02*
X111925533Y-101920951D01*
X111735057Y-100968570D02*
X111687438Y-100920951D01*
X111687438Y-100920951D02*
X111639819Y-100825713D01*
X111639819Y-100825713D02*
X111639819Y-100587618D01*
X111639819Y-100587618D02*
X111687438Y-100492380D01*
X111687438Y-100492380D02*
X111735057Y-100444761D01*
X111735057Y-100444761D02*
X111830295Y-100397142D01*
X111830295Y-100397142D02*
X111925533Y-100397142D01*
X111925533Y-100397142D02*
X112068390Y-100444761D01*
X112068390Y-100444761D02*
X112639819Y-101016189D01*
X112639819Y-101016189D02*
X112639819Y-100397142D01*
X215454819Y-135569523D02*
X216169104Y-135569523D01*
X216169104Y-135569523D02*
X216311961Y-135617142D01*
X216311961Y-135617142D02*
X216407200Y-135712380D01*
X216407200Y-135712380D02*
X216454819Y-135855237D01*
X216454819Y-135855237D02*
X216454819Y-135950475D01*
X216454819Y-134569523D02*
X216454819Y-135140951D01*
X216454819Y-134855237D02*
X215454819Y-134855237D01*
X215454819Y-134855237D02*
X215597676Y-134950475D01*
X215597676Y-134950475D02*
X215692914Y-135045713D01*
X215692914Y-135045713D02*
X215740533Y-135140951D01*
X215788152Y-133712380D02*
X216454819Y-133712380D01*
X215407200Y-133950475D02*
X216121485Y-134188570D01*
X216121485Y-134188570D02*
X216121485Y-133569523D01*
X137467142Y-83767845D02*
X137133809Y-83291654D01*
X136895714Y-83767845D02*
X136895714Y-82767845D01*
X136895714Y-82767845D02*
X137276666Y-82767845D01*
X137276666Y-82767845D02*
X137371904Y-82815464D01*
X137371904Y-82815464D02*
X137419523Y-82863083D01*
X137419523Y-82863083D02*
X137467142Y-82958321D01*
X137467142Y-82958321D02*
X137467142Y-83101178D01*
X137467142Y-83101178D02*
X137419523Y-83196416D01*
X137419523Y-83196416D02*
X137371904Y-83244035D01*
X137371904Y-83244035D02*
X137276666Y-83291654D01*
X137276666Y-83291654D02*
X136895714Y-83291654D01*
X137848095Y-82863083D02*
X137895714Y-82815464D01*
X137895714Y-82815464D02*
X137990952Y-82767845D01*
X137990952Y-82767845D02*
X138229047Y-82767845D01*
X138229047Y-82767845D02*
X138324285Y-82815464D01*
X138324285Y-82815464D02*
X138371904Y-82863083D01*
X138371904Y-82863083D02*
X138419523Y-82958321D01*
X138419523Y-82958321D02*
X138419523Y-83053559D01*
X138419523Y-83053559D02*
X138371904Y-83196416D01*
X138371904Y-83196416D02*
X137800476Y-83767845D01*
X137800476Y-83767845D02*
X138419523Y-83767845D01*
X138752857Y-82767845D02*
X139419523Y-82767845D01*
X139419523Y-82767845D02*
X138990952Y-83767845D01*
X215454819Y-116109523D02*
X216169104Y-116109523D01*
X216169104Y-116109523D02*
X216311961Y-116157142D01*
X216311961Y-116157142D02*
X216407200Y-116252380D01*
X216407200Y-116252380D02*
X216454819Y-116395237D01*
X216454819Y-116395237D02*
X216454819Y-116490475D01*
X216454819Y-115109523D02*
X216454819Y-115680951D01*
X216454819Y-115395237D02*
X215454819Y-115395237D01*
X215454819Y-115395237D02*
X215597676Y-115490475D01*
X215597676Y-115490475D02*
X215692914Y-115585713D01*
X215692914Y-115585713D02*
X215740533Y-115680951D01*
X215883390Y-114538094D02*
X215835771Y-114633332D01*
X215835771Y-114633332D02*
X215788152Y-114680951D01*
X215788152Y-114680951D02*
X215692914Y-114728570D01*
X215692914Y-114728570D02*
X215645295Y-114728570D01*
X215645295Y-114728570D02*
X215550057Y-114680951D01*
X215550057Y-114680951D02*
X215502438Y-114633332D01*
X215502438Y-114633332D02*
X215454819Y-114538094D01*
X215454819Y-114538094D02*
X215454819Y-114347618D01*
X215454819Y-114347618D02*
X215502438Y-114252380D01*
X215502438Y-114252380D02*
X215550057Y-114204761D01*
X215550057Y-114204761D02*
X215645295Y-114157142D01*
X215645295Y-114157142D02*
X215692914Y-114157142D01*
X215692914Y-114157142D02*
X215788152Y-114204761D01*
X215788152Y-114204761D02*
X215835771Y-114252380D01*
X215835771Y-114252380D02*
X215883390Y-114347618D01*
X215883390Y-114347618D02*
X215883390Y-114538094D01*
X215883390Y-114538094D02*
X215931009Y-114633332D01*
X215931009Y-114633332D02*
X215978628Y-114680951D01*
X215978628Y-114680951D02*
X216073866Y-114728570D01*
X216073866Y-114728570D02*
X216264342Y-114728570D01*
X216264342Y-114728570D02*
X216359580Y-114680951D01*
X216359580Y-114680951D02*
X216407200Y-114633332D01*
X216407200Y-114633332D02*
X216454819Y-114538094D01*
X216454819Y-114538094D02*
X216454819Y-114347618D01*
X216454819Y-114347618D02*
X216407200Y-114252380D01*
X216407200Y-114252380D02*
X216359580Y-114204761D01*
X216359580Y-114204761D02*
X216264342Y-114157142D01*
X216264342Y-114157142D02*
X216073866Y-114157142D01*
X216073866Y-114157142D02*
X215978628Y-114204761D01*
X215978628Y-114204761D02*
X215931009Y-114252380D01*
X215931009Y-114252380D02*
X215883390Y-114347618D01*
X174769642Y-95804819D02*
X174436309Y-95328628D01*
X174198214Y-95804819D02*
X174198214Y-94804819D01*
X174198214Y-94804819D02*
X174579166Y-94804819D01*
X174579166Y-94804819D02*
X174674404Y-94852438D01*
X174674404Y-94852438D02*
X174722023Y-94900057D01*
X174722023Y-94900057D02*
X174769642Y-94995295D01*
X174769642Y-94995295D02*
X174769642Y-95138152D01*
X174769642Y-95138152D02*
X174722023Y-95233390D01*
X174722023Y-95233390D02*
X174674404Y-95281009D01*
X174674404Y-95281009D02*
X174579166Y-95328628D01*
X174579166Y-95328628D02*
X174198214Y-95328628D01*
X175722023Y-95804819D02*
X175150595Y-95804819D01*
X175436309Y-95804819D02*
X175436309Y-94804819D01*
X175436309Y-94804819D02*
X175341071Y-94947676D01*
X175341071Y-94947676D02*
X175245833Y-95042914D01*
X175245833Y-95042914D02*
X175150595Y-95090533D01*
X176579166Y-94804819D02*
X176388690Y-94804819D01*
X176388690Y-94804819D02*
X176293452Y-94852438D01*
X176293452Y-94852438D02*
X176245833Y-94900057D01*
X176245833Y-94900057D02*
X176150595Y-95042914D01*
X176150595Y-95042914D02*
X176102976Y-95233390D01*
X176102976Y-95233390D02*
X176102976Y-95614342D01*
X176102976Y-95614342D02*
X176150595Y-95709580D01*
X176150595Y-95709580D02*
X176198214Y-95757200D01*
X176198214Y-95757200D02*
X176293452Y-95804819D01*
X176293452Y-95804819D02*
X176483928Y-95804819D01*
X176483928Y-95804819D02*
X176579166Y-95757200D01*
X176579166Y-95757200D02*
X176626785Y-95709580D01*
X176626785Y-95709580D02*
X176674404Y-95614342D01*
X176674404Y-95614342D02*
X176674404Y-95376247D01*
X176674404Y-95376247D02*
X176626785Y-95281009D01*
X176626785Y-95281009D02*
X176579166Y-95233390D01*
X176579166Y-95233390D02*
X176483928Y-95185771D01*
X176483928Y-95185771D02*
X176293452Y-95185771D01*
X176293452Y-95185771D02*
X176198214Y-95233390D01*
X176198214Y-95233390D02*
X176150595Y-95281009D01*
X176150595Y-95281009D02*
X176102976Y-95376247D01*
X119009819Y-123360594D02*
X118009819Y-123360594D01*
X118009819Y-123360594D02*
X118009819Y-123122499D01*
X118009819Y-123122499D02*
X118057438Y-122979642D01*
X118057438Y-122979642D02*
X118152676Y-122884404D01*
X118152676Y-122884404D02*
X118247914Y-122836785D01*
X118247914Y-122836785D02*
X118438390Y-122789166D01*
X118438390Y-122789166D02*
X118581247Y-122789166D01*
X118581247Y-122789166D02*
X118771723Y-122836785D01*
X118771723Y-122836785D02*
X118866961Y-122884404D01*
X118866961Y-122884404D02*
X118962200Y-122979642D01*
X118962200Y-122979642D02*
X119009819Y-123122499D01*
X119009819Y-123122499D02*
X119009819Y-123360594D01*
X119009819Y-121836785D02*
X119009819Y-122408213D01*
X119009819Y-122122499D02*
X118009819Y-122122499D01*
X118009819Y-122122499D02*
X118152676Y-122217737D01*
X118152676Y-122217737D02*
X118247914Y-122312975D01*
X118247914Y-122312975D02*
X118295533Y-122408213D01*
X148314819Y-78855883D02*
X147838628Y-79189216D01*
X148314819Y-79427311D02*
X147314819Y-79427311D01*
X147314819Y-79427311D02*
X147314819Y-79046359D01*
X147314819Y-79046359D02*
X147362438Y-78951121D01*
X147362438Y-78951121D02*
X147410057Y-78903502D01*
X147410057Y-78903502D02*
X147505295Y-78855883D01*
X147505295Y-78855883D02*
X147648152Y-78855883D01*
X147648152Y-78855883D02*
X147743390Y-78903502D01*
X147743390Y-78903502D02*
X147791009Y-78951121D01*
X147791009Y-78951121D02*
X147838628Y-79046359D01*
X147838628Y-79046359D02*
X147838628Y-79427311D01*
X147410057Y-78474930D02*
X147362438Y-78427311D01*
X147362438Y-78427311D02*
X147314819Y-78332073D01*
X147314819Y-78332073D02*
X147314819Y-78093978D01*
X147314819Y-78093978D02*
X147362438Y-77998740D01*
X147362438Y-77998740D02*
X147410057Y-77951121D01*
X147410057Y-77951121D02*
X147505295Y-77903502D01*
X147505295Y-77903502D02*
X147600533Y-77903502D01*
X147600533Y-77903502D02*
X147743390Y-77951121D01*
X147743390Y-77951121D02*
X148314819Y-78522549D01*
X148314819Y-78522549D02*
X148314819Y-77903502D01*
X148314819Y-77427311D02*
X148314819Y-77236835D01*
X148314819Y-77236835D02*
X148267200Y-77141597D01*
X148267200Y-77141597D02*
X148219580Y-77093978D01*
X148219580Y-77093978D02*
X148076723Y-76998740D01*
X148076723Y-76998740D02*
X147886247Y-76951121D01*
X147886247Y-76951121D02*
X147505295Y-76951121D01*
X147505295Y-76951121D02*
X147410057Y-76998740D01*
X147410057Y-76998740D02*
X147362438Y-77046359D01*
X147362438Y-77046359D02*
X147314819Y-77141597D01*
X147314819Y-77141597D02*
X147314819Y-77332073D01*
X147314819Y-77332073D02*
X147362438Y-77427311D01*
X147362438Y-77427311D02*
X147410057Y-77474930D01*
X147410057Y-77474930D02*
X147505295Y-77522549D01*
X147505295Y-77522549D02*
X147743390Y-77522549D01*
X147743390Y-77522549D02*
X147838628Y-77474930D01*
X147838628Y-77474930D02*
X147886247Y-77427311D01*
X147886247Y-77427311D02*
X147933866Y-77332073D01*
X147933866Y-77332073D02*
X147933866Y-77141597D01*
X147933866Y-77141597D02*
X147886247Y-77046359D01*
X147886247Y-77046359D02*
X147838628Y-76998740D01*
X147838628Y-76998740D02*
X147743390Y-76951121D01*
X171645833Y-108654819D02*
X171312500Y-108178628D01*
X171074405Y-108654819D02*
X171074405Y-107654819D01*
X171074405Y-107654819D02*
X171455357Y-107654819D01*
X171455357Y-107654819D02*
X171550595Y-107702438D01*
X171550595Y-107702438D02*
X171598214Y-107750057D01*
X171598214Y-107750057D02*
X171645833Y-107845295D01*
X171645833Y-107845295D02*
X171645833Y-107988152D01*
X171645833Y-107988152D02*
X171598214Y-108083390D01*
X171598214Y-108083390D02*
X171550595Y-108131009D01*
X171550595Y-108131009D02*
X171455357Y-108178628D01*
X171455357Y-108178628D02*
X171074405Y-108178628D01*
X171979167Y-107654819D02*
X172645833Y-107654819D01*
X172645833Y-107654819D02*
X172217262Y-108654819D01*
X97454819Y-72584523D02*
X98169104Y-72584523D01*
X98169104Y-72584523D02*
X98311961Y-72632142D01*
X98311961Y-72632142D02*
X98407200Y-72727380D01*
X98407200Y-72727380D02*
X98454819Y-72870237D01*
X98454819Y-72870237D02*
X98454819Y-72965475D01*
X98454819Y-71584523D02*
X98454819Y-72155951D01*
X98454819Y-71870237D02*
X97454819Y-71870237D01*
X97454819Y-71870237D02*
X97597676Y-71965475D01*
X97597676Y-71965475D02*
X97692914Y-72060713D01*
X97692914Y-72060713D02*
X97740533Y-72155951D01*
X97454819Y-71251189D02*
X97454819Y-70632142D01*
X97454819Y-70632142D02*
X97835771Y-70965475D01*
X97835771Y-70965475D02*
X97835771Y-70822618D01*
X97835771Y-70822618D02*
X97883390Y-70727380D01*
X97883390Y-70727380D02*
X97931009Y-70679761D01*
X97931009Y-70679761D02*
X98026247Y-70632142D01*
X98026247Y-70632142D02*
X98264342Y-70632142D01*
X98264342Y-70632142D02*
X98359580Y-70679761D01*
X98359580Y-70679761D02*
X98407200Y-70727380D01*
X98407200Y-70727380D02*
X98454819Y-70822618D01*
X98454819Y-70822618D02*
X98454819Y-71108332D01*
X98454819Y-71108332D02*
X98407200Y-71203570D01*
X98407200Y-71203570D02*
X98359580Y-71251189D01*
X139843333Y-73867845D02*
X139510000Y-73391654D01*
X139271905Y-73867845D02*
X139271905Y-72867845D01*
X139271905Y-72867845D02*
X139652857Y-72867845D01*
X139652857Y-72867845D02*
X139748095Y-72915464D01*
X139748095Y-72915464D02*
X139795714Y-72963083D01*
X139795714Y-72963083D02*
X139843333Y-73058321D01*
X139843333Y-73058321D02*
X139843333Y-73201178D01*
X139843333Y-73201178D02*
X139795714Y-73296416D01*
X139795714Y-73296416D02*
X139748095Y-73344035D01*
X139748095Y-73344035D02*
X139652857Y-73391654D01*
X139652857Y-73391654D02*
X139271905Y-73391654D01*
X140176667Y-72867845D02*
X140795714Y-72867845D01*
X140795714Y-72867845D02*
X140462381Y-73248797D01*
X140462381Y-73248797D02*
X140605238Y-73248797D01*
X140605238Y-73248797D02*
X140700476Y-73296416D01*
X140700476Y-73296416D02*
X140748095Y-73344035D01*
X140748095Y-73344035D02*
X140795714Y-73439273D01*
X140795714Y-73439273D02*
X140795714Y-73677368D01*
X140795714Y-73677368D02*
X140748095Y-73772606D01*
X140748095Y-73772606D02*
X140700476Y-73820226D01*
X140700476Y-73820226D02*
X140605238Y-73867845D01*
X140605238Y-73867845D02*
X140319524Y-73867845D01*
X140319524Y-73867845D02*
X140224286Y-73820226D01*
X140224286Y-73820226D02*
X140176667Y-73772606D01*
X140583333Y-121859580D02*
X140535714Y-121907200D01*
X140535714Y-121907200D02*
X140392857Y-121954819D01*
X140392857Y-121954819D02*
X140297619Y-121954819D01*
X140297619Y-121954819D02*
X140154762Y-121907200D01*
X140154762Y-121907200D02*
X140059524Y-121811961D01*
X140059524Y-121811961D02*
X140011905Y-121716723D01*
X140011905Y-121716723D02*
X139964286Y-121526247D01*
X139964286Y-121526247D02*
X139964286Y-121383390D01*
X139964286Y-121383390D02*
X140011905Y-121192914D01*
X140011905Y-121192914D02*
X140059524Y-121097676D01*
X140059524Y-121097676D02*
X140154762Y-121002438D01*
X140154762Y-121002438D02*
X140297619Y-120954819D01*
X140297619Y-120954819D02*
X140392857Y-120954819D01*
X140392857Y-120954819D02*
X140535714Y-121002438D01*
X140535714Y-121002438D02*
X140583333Y-121050057D01*
X140916667Y-120954819D02*
X141583333Y-120954819D01*
X141583333Y-120954819D02*
X141154762Y-121954819D01*
X144609580Y-132166666D02*
X144657200Y-132214285D01*
X144657200Y-132214285D02*
X144704819Y-132357142D01*
X144704819Y-132357142D02*
X144704819Y-132452380D01*
X144704819Y-132452380D02*
X144657200Y-132595237D01*
X144657200Y-132595237D02*
X144561961Y-132690475D01*
X144561961Y-132690475D02*
X144466723Y-132738094D01*
X144466723Y-132738094D02*
X144276247Y-132785713D01*
X144276247Y-132785713D02*
X144133390Y-132785713D01*
X144133390Y-132785713D02*
X143942914Y-132738094D01*
X143942914Y-132738094D02*
X143847676Y-132690475D01*
X143847676Y-132690475D02*
X143752438Y-132595237D01*
X143752438Y-132595237D02*
X143704819Y-132452380D01*
X143704819Y-132452380D02*
X143704819Y-132357142D01*
X143704819Y-132357142D02*
X143752438Y-132214285D01*
X143752438Y-132214285D02*
X143800057Y-132166666D01*
X144704819Y-131690475D02*
X144704819Y-131499999D01*
X144704819Y-131499999D02*
X144657200Y-131404761D01*
X144657200Y-131404761D02*
X144609580Y-131357142D01*
X144609580Y-131357142D02*
X144466723Y-131261904D01*
X144466723Y-131261904D02*
X144276247Y-131214285D01*
X144276247Y-131214285D02*
X143895295Y-131214285D01*
X143895295Y-131214285D02*
X143800057Y-131261904D01*
X143800057Y-131261904D02*
X143752438Y-131309523D01*
X143752438Y-131309523D02*
X143704819Y-131404761D01*
X143704819Y-131404761D02*
X143704819Y-131595237D01*
X143704819Y-131595237D02*
X143752438Y-131690475D01*
X143752438Y-131690475D02*
X143800057Y-131738094D01*
X143800057Y-131738094D02*
X143895295Y-131785713D01*
X143895295Y-131785713D02*
X144133390Y-131785713D01*
X144133390Y-131785713D02*
X144228628Y-131738094D01*
X144228628Y-131738094D02*
X144276247Y-131690475D01*
X144276247Y-131690475D02*
X144323866Y-131595237D01*
X144323866Y-131595237D02*
X144323866Y-131404761D01*
X144323866Y-131404761D02*
X144276247Y-131309523D01*
X144276247Y-131309523D02*
X144228628Y-131261904D01*
X144228628Y-131261904D02*
X144133390Y-131214285D01*
X174757142Y-98954819D02*
X174423809Y-98478628D01*
X174185714Y-98954819D02*
X174185714Y-97954819D01*
X174185714Y-97954819D02*
X174566666Y-97954819D01*
X174566666Y-97954819D02*
X174661904Y-98002438D01*
X174661904Y-98002438D02*
X174709523Y-98050057D01*
X174709523Y-98050057D02*
X174757142Y-98145295D01*
X174757142Y-98145295D02*
X174757142Y-98288152D01*
X174757142Y-98288152D02*
X174709523Y-98383390D01*
X174709523Y-98383390D02*
X174661904Y-98431009D01*
X174661904Y-98431009D02*
X174566666Y-98478628D01*
X174566666Y-98478628D02*
X174185714Y-98478628D01*
X175709523Y-98954819D02*
X175138095Y-98954819D01*
X175423809Y-98954819D02*
X175423809Y-97954819D01*
X175423809Y-97954819D02*
X175328571Y-98097676D01*
X175328571Y-98097676D02*
X175233333Y-98192914D01*
X175233333Y-98192914D02*
X175138095Y-98240533D01*
X176566666Y-98288152D02*
X176566666Y-98954819D01*
X176328571Y-97907200D02*
X176090476Y-98621485D01*
X176090476Y-98621485D02*
X176709523Y-98621485D01*
X137407142Y-88954819D02*
X137073809Y-88478628D01*
X136835714Y-88954819D02*
X136835714Y-87954819D01*
X136835714Y-87954819D02*
X137216666Y-87954819D01*
X137216666Y-87954819D02*
X137311904Y-88002438D01*
X137311904Y-88002438D02*
X137359523Y-88050057D01*
X137359523Y-88050057D02*
X137407142Y-88145295D01*
X137407142Y-88145295D02*
X137407142Y-88288152D01*
X137407142Y-88288152D02*
X137359523Y-88383390D01*
X137359523Y-88383390D02*
X137311904Y-88431009D01*
X137311904Y-88431009D02*
X137216666Y-88478628D01*
X137216666Y-88478628D02*
X136835714Y-88478628D01*
X137740476Y-87954819D02*
X138359523Y-87954819D01*
X138359523Y-87954819D02*
X138026190Y-88335771D01*
X138026190Y-88335771D02*
X138169047Y-88335771D01*
X138169047Y-88335771D02*
X138264285Y-88383390D01*
X138264285Y-88383390D02*
X138311904Y-88431009D01*
X138311904Y-88431009D02*
X138359523Y-88526247D01*
X138359523Y-88526247D02*
X138359523Y-88764342D01*
X138359523Y-88764342D02*
X138311904Y-88859580D01*
X138311904Y-88859580D02*
X138264285Y-88907200D01*
X138264285Y-88907200D02*
X138169047Y-88954819D01*
X138169047Y-88954819D02*
X137883333Y-88954819D01*
X137883333Y-88954819D02*
X137788095Y-88907200D01*
X137788095Y-88907200D02*
X137740476Y-88859580D01*
X138740476Y-88050057D02*
X138788095Y-88002438D01*
X138788095Y-88002438D02*
X138883333Y-87954819D01*
X138883333Y-87954819D02*
X139121428Y-87954819D01*
X139121428Y-87954819D02*
X139216666Y-88002438D01*
X139216666Y-88002438D02*
X139264285Y-88050057D01*
X139264285Y-88050057D02*
X139311904Y-88145295D01*
X139311904Y-88145295D02*
X139311904Y-88240533D01*
X139311904Y-88240533D02*
X139264285Y-88383390D01*
X139264285Y-88383390D02*
X138692857Y-88954819D01*
X138692857Y-88954819D02*
X139311904Y-88954819D01*
X171157142Y-105154819D02*
X170823809Y-104678628D01*
X170585714Y-105154819D02*
X170585714Y-104154819D01*
X170585714Y-104154819D02*
X170966666Y-104154819D01*
X170966666Y-104154819D02*
X171061904Y-104202438D01*
X171061904Y-104202438D02*
X171109523Y-104250057D01*
X171109523Y-104250057D02*
X171157142Y-104345295D01*
X171157142Y-104345295D02*
X171157142Y-104488152D01*
X171157142Y-104488152D02*
X171109523Y-104583390D01*
X171109523Y-104583390D02*
X171061904Y-104631009D01*
X171061904Y-104631009D02*
X170966666Y-104678628D01*
X170966666Y-104678628D02*
X170585714Y-104678628D01*
X172109523Y-105154819D02*
X171538095Y-105154819D01*
X171823809Y-105154819D02*
X171823809Y-104154819D01*
X171823809Y-104154819D02*
X171728571Y-104297676D01*
X171728571Y-104297676D02*
X171633333Y-104392914D01*
X171633333Y-104392914D02*
X171538095Y-104440533D01*
X173061904Y-105154819D02*
X172490476Y-105154819D01*
X172776190Y-105154819D02*
X172776190Y-104154819D01*
X172776190Y-104154819D02*
X172680952Y-104297676D01*
X172680952Y-104297676D02*
X172585714Y-104392914D01*
X172585714Y-104392914D02*
X172490476Y-104440533D01*
X132989580Y-71579692D02*
X133037200Y-71627311D01*
X133037200Y-71627311D02*
X133084819Y-71770168D01*
X133084819Y-71770168D02*
X133084819Y-71865406D01*
X133084819Y-71865406D02*
X133037200Y-72008263D01*
X133037200Y-72008263D02*
X132941961Y-72103501D01*
X132941961Y-72103501D02*
X132846723Y-72151120D01*
X132846723Y-72151120D02*
X132656247Y-72198739D01*
X132656247Y-72198739D02*
X132513390Y-72198739D01*
X132513390Y-72198739D02*
X132322914Y-72151120D01*
X132322914Y-72151120D02*
X132227676Y-72103501D01*
X132227676Y-72103501D02*
X132132438Y-72008263D01*
X132132438Y-72008263D02*
X132084819Y-71865406D01*
X132084819Y-71865406D02*
X132084819Y-71770168D01*
X132084819Y-71770168D02*
X132132438Y-71627311D01*
X132132438Y-71627311D02*
X132180057Y-71579692D01*
X132084819Y-70722549D02*
X132084819Y-70913025D01*
X132084819Y-70913025D02*
X132132438Y-71008263D01*
X132132438Y-71008263D02*
X132180057Y-71055882D01*
X132180057Y-71055882D02*
X132322914Y-71151120D01*
X132322914Y-71151120D02*
X132513390Y-71198739D01*
X132513390Y-71198739D02*
X132894342Y-71198739D01*
X132894342Y-71198739D02*
X132989580Y-71151120D01*
X132989580Y-71151120D02*
X133037200Y-71103501D01*
X133037200Y-71103501D02*
X133084819Y-71008263D01*
X133084819Y-71008263D02*
X133084819Y-70817787D01*
X133084819Y-70817787D02*
X133037200Y-70722549D01*
X133037200Y-70722549D02*
X132989580Y-70674930D01*
X132989580Y-70674930D02*
X132894342Y-70627311D01*
X132894342Y-70627311D02*
X132656247Y-70627311D01*
X132656247Y-70627311D02*
X132561009Y-70674930D01*
X132561009Y-70674930D02*
X132513390Y-70722549D01*
X132513390Y-70722549D02*
X132465771Y-70817787D01*
X132465771Y-70817787D02*
X132465771Y-71008263D01*
X132465771Y-71008263D02*
X132513390Y-71103501D01*
X132513390Y-71103501D02*
X132561009Y-71151120D01*
X132561009Y-71151120D02*
X132656247Y-71198739D01*
X128189819Y-106292857D02*
X127713628Y-106626190D01*
X128189819Y-106864285D02*
X127189819Y-106864285D01*
X127189819Y-106864285D02*
X127189819Y-106483333D01*
X127189819Y-106483333D02*
X127237438Y-106388095D01*
X127237438Y-106388095D02*
X127285057Y-106340476D01*
X127285057Y-106340476D02*
X127380295Y-106292857D01*
X127380295Y-106292857D02*
X127523152Y-106292857D01*
X127523152Y-106292857D02*
X127618390Y-106340476D01*
X127618390Y-106340476D02*
X127666009Y-106388095D01*
X127666009Y-106388095D02*
X127713628Y-106483333D01*
X127713628Y-106483333D02*
X127713628Y-106864285D01*
X127189819Y-105959523D02*
X127189819Y-105340476D01*
X127189819Y-105340476D02*
X127570771Y-105673809D01*
X127570771Y-105673809D02*
X127570771Y-105530952D01*
X127570771Y-105530952D02*
X127618390Y-105435714D01*
X127618390Y-105435714D02*
X127666009Y-105388095D01*
X127666009Y-105388095D02*
X127761247Y-105340476D01*
X127761247Y-105340476D02*
X127999342Y-105340476D01*
X127999342Y-105340476D02*
X128094580Y-105388095D01*
X128094580Y-105388095D02*
X128142200Y-105435714D01*
X128142200Y-105435714D02*
X128189819Y-105530952D01*
X128189819Y-105530952D02*
X128189819Y-105816666D01*
X128189819Y-105816666D02*
X128142200Y-105911904D01*
X128142200Y-105911904D02*
X128094580Y-105959523D01*
X127189819Y-104483333D02*
X127189819Y-104673809D01*
X127189819Y-104673809D02*
X127237438Y-104769047D01*
X127237438Y-104769047D02*
X127285057Y-104816666D01*
X127285057Y-104816666D02*
X127427914Y-104911904D01*
X127427914Y-104911904D02*
X127618390Y-104959523D01*
X127618390Y-104959523D02*
X127999342Y-104959523D01*
X127999342Y-104959523D02*
X128094580Y-104911904D01*
X128094580Y-104911904D02*
X128142200Y-104864285D01*
X128142200Y-104864285D02*
X128189819Y-104769047D01*
X128189819Y-104769047D02*
X128189819Y-104578571D01*
X128189819Y-104578571D02*
X128142200Y-104483333D01*
X128142200Y-104483333D02*
X128094580Y-104435714D01*
X128094580Y-104435714D02*
X127999342Y-104388095D01*
X127999342Y-104388095D02*
X127761247Y-104388095D01*
X127761247Y-104388095D02*
X127666009Y-104435714D01*
X127666009Y-104435714D02*
X127618390Y-104483333D01*
X127618390Y-104483333D02*
X127570771Y-104578571D01*
X127570771Y-104578571D02*
X127570771Y-104769047D01*
X127570771Y-104769047D02*
X127618390Y-104864285D01*
X127618390Y-104864285D02*
X127666009Y-104911904D01*
X127666009Y-104911904D02*
X127761247Y-104959523D01*
X144167142Y-73767845D02*
X143833809Y-73291654D01*
X143595714Y-73767845D02*
X143595714Y-72767845D01*
X143595714Y-72767845D02*
X143976666Y-72767845D01*
X143976666Y-72767845D02*
X144071904Y-72815464D01*
X144071904Y-72815464D02*
X144119523Y-72863083D01*
X144119523Y-72863083D02*
X144167142Y-72958321D01*
X144167142Y-72958321D02*
X144167142Y-73101178D01*
X144167142Y-73101178D02*
X144119523Y-73196416D01*
X144119523Y-73196416D02*
X144071904Y-73244035D01*
X144071904Y-73244035D02*
X143976666Y-73291654D01*
X143976666Y-73291654D02*
X143595714Y-73291654D01*
X144548095Y-72863083D02*
X144595714Y-72815464D01*
X144595714Y-72815464D02*
X144690952Y-72767845D01*
X144690952Y-72767845D02*
X144929047Y-72767845D01*
X144929047Y-72767845D02*
X145024285Y-72815464D01*
X145024285Y-72815464D02*
X145071904Y-72863083D01*
X145071904Y-72863083D02*
X145119523Y-72958321D01*
X145119523Y-72958321D02*
X145119523Y-73053559D01*
X145119523Y-73053559D02*
X145071904Y-73196416D01*
X145071904Y-73196416D02*
X144500476Y-73767845D01*
X144500476Y-73767845D02*
X145119523Y-73767845D01*
X146024285Y-72767845D02*
X145548095Y-72767845D01*
X145548095Y-72767845D02*
X145500476Y-73244035D01*
X145500476Y-73244035D02*
X145548095Y-73196416D01*
X145548095Y-73196416D02*
X145643333Y-73148797D01*
X145643333Y-73148797D02*
X145881428Y-73148797D01*
X145881428Y-73148797D02*
X145976666Y-73196416D01*
X145976666Y-73196416D02*
X146024285Y-73244035D01*
X146024285Y-73244035D02*
X146071904Y-73339273D01*
X146071904Y-73339273D02*
X146071904Y-73577368D01*
X146071904Y-73577368D02*
X146024285Y-73672606D01*
X146024285Y-73672606D02*
X145976666Y-73720226D01*
X145976666Y-73720226D02*
X145881428Y-73767845D01*
X145881428Y-73767845D02*
X145643333Y-73767845D01*
X145643333Y-73767845D02*
X145548095Y-73720226D01*
X145548095Y-73720226D02*
X145500476Y-73672606D01*
X157058095Y-96434819D02*
X157058095Y-97244342D01*
X157058095Y-97244342D02*
X157105714Y-97339580D01*
X157105714Y-97339580D02*
X157153333Y-97387200D01*
X157153333Y-97387200D02*
X157248571Y-97434819D01*
X157248571Y-97434819D02*
X157439047Y-97434819D01*
X157439047Y-97434819D02*
X157534285Y-97387200D01*
X157534285Y-97387200D02*
X157581904Y-97339580D01*
X157581904Y-97339580D02*
X157629523Y-97244342D01*
X157629523Y-97244342D02*
X157629523Y-96434819D01*
X158629523Y-97434819D02*
X158058095Y-97434819D01*
X158343809Y-97434819D02*
X158343809Y-96434819D01*
X158343809Y-96434819D02*
X158248571Y-96577676D01*
X158248571Y-96577676D02*
X158153333Y-96672914D01*
X158153333Y-96672914D02*
X158058095Y-96720533D01*
X112694819Y-123309523D02*
X113409104Y-123309523D01*
X113409104Y-123309523D02*
X113551961Y-123357142D01*
X113551961Y-123357142D02*
X113647200Y-123452380D01*
X113647200Y-123452380D02*
X113694819Y-123595237D01*
X113694819Y-123595237D02*
X113694819Y-123690475D01*
X113694819Y-122309523D02*
X113694819Y-122880951D01*
X113694819Y-122595237D02*
X112694819Y-122595237D01*
X112694819Y-122595237D02*
X112837676Y-122690475D01*
X112837676Y-122690475D02*
X112932914Y-122785713D01*
X112932914Y-122785713D02*
X112980533Y-122880951D01*
X113694819Y-121357142D02*
X113694819Y-121928570D01*
X113694819Y-121642856D02*
X112694819Y-121642856D01*
X112694819Y-121642856D02*
X112837676Y-121738094D01*
X112837676Y-121738094D02*
X112932914Y-121833332D01*
X112932914Y-121833332D02*
X112980533Y-121928570D01*
X140989580Y-71879692D02*
X141037200Y-71927311D01*
X141037200Y-71927311D02*
X141084819Y-72070168D01*
X141084819Y-72070168D02*
X141084819Y-72165406D01*
X141084819Y-72165406D02*
X141037200Y-72308263D01*
X141037200Y-72308263D02*
X140941961Y-72403501D01*
X140941961Y-72403501D02*
X140846723Y-72451120D01*
X140846723Y-72451120D02*
X140656247Y-72498739D01*
X140656247Y-72498739D02*
X140513390Y-72498739D01*
X140513390Y-72498739D02*
X140322914Y-72451120D01*
X140322914Y-72451120D02*
X140227676Y-72403501D01*
X140227676Y-72403501D02*
X140132438Y-72308263D01*
X140132438Y-72308263D02*
X140084819Y-72165406D01*
X140084819Y-72165406D02*
X140084819Y-72070168D01*
X140084819Y-72070168D02*
X140132438Y-71927311D01*
X140132438Y-71927311D02*
X140180057Y-71879692D01*
X140084819Y-70974930D02*
X140084819Y-71451120D01*
X140084819Y-71451120D02*
X140561009Y-71498739D01*
X140561009Y-71498739D02*
X140513390Y-71451120D01*
X140513390Y-71451120D02*
X140465771Y-71355882D01*
X140465771Y-71355882D02*
X140465771Y-71117787D01*
X140465771Y-71117787D02*
X140513390Y-71022549D01*
X140513390Y-71022549D02*
X140561009Y-70974930D01*
X140561009Y-70974930D02*
X140656247Y-70927311D01*
X140656247Y-70927311D02*
X140894342Y-70927311D01*
X140894342Y-70927311D02*
X140989580Y-70974930D01*
X140989580Y-70974930D02*
X141037200Y-71022549D01*
X141037200Y-71022549D02*
X141084819Y-71117787D01*
X141084819Y-71117787D02*
X141084819Y-71355882D01*
X141084819Y-71355882D02*
X141037200Y-71451120D01*
X141037200Y-71451120D02*
X140989580Y-71498739D01*
X128264819Y-121562857D02*
X127788628Y-121896190D01*
X128264819Y-122134285D02*
X127264819Y-122134285D01*
X127264819Y-122134285D02*
X127264819Y-121753333D01*
X127264819Y-121753333D02*
X127312438Y-121658095D01*
X127312438Y-121658095D02*
X127360057Y-121610476D01*
X127360057Y-121610476D02*
X127455295Y-121562857D01*
X127455295Y-121562857D02*
X127598152Y-121562857D01*
X127598152Y-121562857D02*
X127693390Y-121610476D01*
X127693390Y-121610476D02*
X127741009Y-121658095D01*
X127741009Y-121658095D02*
X127788628Y-121753333D01*
X127788628Y-121753333D02*
X127788628Y-122134285D01*
X127264819Y-121229523D02*
X127264819Y-120610476D01*
X127264819Y-120610476D02*
X127645771Y-120943809D01*
X127645771Y-120943809D02*
X127645771Y-120800952D01*
X127645771Y-120800952D02*
X127693390Y-120705714D01*
X127693390Y-120705714D02*
X127741009Y-120658095D01*
X127741009Y-120658095D02*
X127836247Y-120610476D01*
X127836247Y-120610476D02*
X128074342Y-120610476D01*
X128074342Y-120610476D02*
X128169580Y-120658095D01*
X128169580Y-120658095D02*
X128217200Y-120705714D01*
X128217200Y-120705714D02*
X128264819Y-120800952D01*
X128264819Y-120800952D02*
X128264819Y-121086666D01*
X128264819Y-121086666D02*
X128217200Y-121181904D01*
X128217200Y-121181904D02*
X128169580Y-121229523D01*
X127264819Y-120277142D02*
X127264819Y-119658095D01*
X127264819Y-119658095D02*
X127645771Y-119991428D01*
X127645771Y-119991428D02*
X127645771Y-119848571D01*
X127645771Y-119848571D02*
X127693390Y-119753333D01*
X127693390Y-119753333D02*
X127741009Y-119705714D01*
X127741009Y-119705714D02*
X127836247Y-119658095D01*
X127836247Y-119658095D02*
X128074342Y-119658095D01*
X128074342Y-119658095D02*
X128169580Y-119705714D01*
X128169580Y-119705714D02*
X128217200Y-119753333D01*
X128217200Y-119753333D02*
X128264819Y-119848571D01*
X128264819Y-119848571D02*
X128264819Y-120134285D01*
X128264819Y-120134285D02*
X128217200Y-120229523D01*
X128217200Y-120229523D02*
X128169580Y-120277142D01*
X171224819Y-111542857D02*
X170748628Y-111876190D01*
X171224819Y-112114285D02*
X170224819Y-112114285D01*
X170224819Y-112114285D02*
X170224819Y-111733333D01*
X170224819Y-111733333D02*
X170272438Y-111638095D01*
X170272438Y-111638095D02*
X170320057Y-111590476D01*
X170320057Y-111590476D02*
X170415295Y-111542857D01*
X170415295Y-111542857D02*
X170558152Y-111542857D01*
X170558152Y-111542857D02*
X170653390Y-111590476D01*
X170653390Y-111590476D02*
X170701009Y-111638095D01*
X170701009Y-111638095D02*
X170748628Y-111733333D01*
X170748628Y-111733333D02*
X170748628Y-112114285D01*
X170558152Y-110685714D02*
X171224819Y-110685714D01*
X170177200Y-110923809D02*
X170891485Y-111161904D01*
X170891485Y-111161904D02*
X170891485Y-110542857D01*
X171224819Y-109638095D02*
X171224819Y-110209523D01*
X171224819Y-109923809D02*
X170224819Y-109923809D01*
X170224819Y-109923809D02*
X170367676Y-110019047D01*
X170367676Y-110019047D02*
X170462914Y-110114285D01*
X170462914Y-110114285D02*
X170510533Y-110209523D01*
X198954819Y-95833333D02*
X199669104Y-95833333D01*
X199669104Y-95833333D02*
X199811961Y-95880952D01*
X199811961Y-95880952D02*
X199907200Y-95976190D01*
X199907200Y-95976190D02*
X199954819Y-96119047D01*
X199954819Y-96119047D02*
X199954819Y-96214285D01*
X199288152Y-94928571D02*
X199954819Y-94928571D01*
X198907200Y-95166666D02*
X199621485Y-95404761D01*
X199621485Y-95404761D02*
X199621485Y-94785714D01*
X176738095Y-81454819D02*
X176738095Y-82264342D01*
X176738095Y-82264342D02*
X176785714Y-82359580D01*
X176785714Y-82359580D02*
X176833333Y-82407200D01*
X176833333Y-82407200D02*
X176928571Y-82454819D01*
X176928571Y-82454819D02*
X177119047Y-82454819D01*
X177119047Y-82454819D02*
X177214285Y-82407200D01*
X177214285Y-82407200D02*
X177261904Y-82359580D01*
X177261904Y-82359580D02*
X177309523Y-82264342D01*
X177309523Y-82264342D02*
X177309523Y-81454819D01*
X178261904Y-81454819D02*
X177785714Y-81454819D01*
X177785714Y-81454819D02*
X177738095Y-81931009D01*
X177738095Y-81931009D02*
X177785714Y-81883390D01*
X177785714Y-81883390D02*
X177880952Y-81835771D01*
X177880952Y-81835771D02*
X178119047Y-81835771D01*
X178119047Y-81835771D02*
X178214285Y-81883390D01*
X178214285Y-81883390D02*
X178261904Y-81931009D01*
X178261904Y-81931009D02*
X178309523Y-82026247D01*
X178309523Y-82026247D02*
X178309523Y-82264342D01*
X178309523Y-82264342D02*
X178261904Y-82359580D01*
X178261904Y-82359580D02*
X178214285Y-82407200D01*
X178214285Y-82407200D02*
X178119047Y-82454819D01*
X178119047Y-82454819D02*
X177880952Y-82454819D01*
X177880952Y-82454819D02*
X177785714Y-82407200D01*
X177785714Y-82407200D02*
X177738095Y-82359580D01*
X171157142Y-89654819D02*
X170823809Y-89178628D01*
X170585714Y-89654819D02*
X170585714Y-88654819D01*
X170585714Y-88654819D02*
X170966666Y-88654819D01*
X170966666Y-88654819D02*
X171061904Y-88702438D01*
X171061904Y-88702438D02*
X171109523Y-88750057D01*
X171109523Y-88750057D02*
X171157142Y-88845295D01*
X171157142Y-88845295D02*
X171157142Y-88988152D01*
X171157142Y-88988152D02*
X171109523Y-89083390D01*
X171109523Y-89083390D02*
X171061904Y-89131009D01*
X171061904Y-89131009D02*
X170966666Y-89178628D01*
X170966666Y-89178628D02*
X170585714Y-89178628D01*
X171538095Y-88750057D02*
X171585714Y-88702438D01*
X171585714Y-88702438D02*
X171680952Y-88654819D01*
X171680952Y-88654819D02*
X171919047Y-88654819D01*
X171919047Y-88654819D02*
X172014285Y-88702438D01*
X172014285Y-88702438D02*
X172061904Y-88750057D01*
X172061904Y-88750057D02*
X172109523Y-88845295D01*
X172109523Y-88845295D02*
X172109523Y-88940533D01*
X172109523Y-88940533D02*
X172061904Y-89083390D01*
X172061904Y-89083390D02*
X171490476Y-89654819D01*
X171490476Y-89654819D02*
X172109523Y-89654819D01*
X173061904Y-89654819D02*
X172490476Y-89654819D01*
X172776190Y-89654819D02*
X172776190Y-88654819D01*
X172776190Y-88654819D02*
X172680952Y-88797676D01*
X172680952Y-88797676D02*
X172585714Y-88892914D01*
X172585714Y-88892914D02*
X172490476Y-88940533D01*
X177194819Y-111452857D02*
X176718628Y-111786190D01*
X177194819Y-112024285D02*
X176194819Y-112024285D01*
X176194819Y-112024285D02*
X176194819Y-111643333D01*
X176194819Y-111643333D02*
X176242438Y-111548095D01*
X176242438Y-111548095D02*
X176290057Y-111500476D01*
X176290057Y-111500476D02*
X176385295Y-111452857D01*
X176385295Y-111452857D02*
X176528152Y-111452857D01*
X176528152Y-111452857D02*
X176623390Y-111500476D01*
X176623390Y-111500476D02*
X176671009Y-111548095D01*
X176671009Y-111548095D02*
X176718628Y-111643333D01*
X176718628Y-111643333D02*
X176718628Y-112024285D01*
X176528152Y-110595714D02*
X177194819Y-110595714D01*
X176147200Y-110833809D02*
X176861485Y-111071904D01*
X176861485Y-111071904D02*
X176861485Y-110452857D01*
X176290057Y-110119523D02*
X176242438Y-110071904D01*
X176242438Y-110071904D02*
X176194819Y-109976666D01*
X176194819Y-109976666D02*
X176194819Y-109738571D01*
X176194819Y-109738571D02*
X176242438Y-109643333D01*
X176242438Y-109643333D02*
X176290057Y-109595714D01*
X176290057Y-109595714D02*
X176385295Y-109548095D01*
X176385295Y-109548095D02*
X176480533Y-109548095D01*
X176480533Y-109548095D02*
X176623390Y-109595714D01*
X176623390Y-109595714D02*
X177194819Y-110167142D01*
X177194819Y-110167142D02*
X177194819Y-109548095D01*
X97454819Y-138333333D02*
X98169104Y-138333333D01*
X98169104Y-138333333D02*
X98311961Y-138380952D01*
X98311961Y-138380952D02*
X98407200Y-138476190D01*
X98407200Y-138476190D02*
X98454819Y-138619047D01*
X98454819Y-138619047D02*
X98454819Y-138714285D01*
X98454819Y-137333333D02*
X98454819Y-137904761D01*
X98454819Y-137619047D02*
X97454819Y-137619047D01*
X97454819Y-137619047D02*
X97597676Y-137714285D01*
X97597676Y-137714285D02*
X97692914Y-137809523D01*
X97692914Y-137809523D02*
X97740533Y-137904761D01*
X129607142Y-83954819D02*
X129273809Y-83478628D01*
X129035714Y-83954819D02*
X129035714Y-82954819D01*
X129035714Y-82954819D02*
X129416666Y-82954819D01*
X129416666Y-82954819D02*
X129511904Y-83002438D01*
X129511904Y-83002438D02*
X129559523Y-83050057D01*
X129559523Y-83050057D02*
X129607142Y-83145295D01*
X129607142Y-83145295D02*
X129607142Y-83288152D01*
X129607142Y-83288152D02*
X129559523Y-83383390D01*
X129559523Y-83383390D02*
X129511904Y-83431009D01*
X129511904Y-83431009D02*
X129416666Y-83478628D01*
X129416666Y-83478628D02*
X129035714Y-83478628D01*
X129940476Y-82954819D02*
X130559523Y-82954819D01*
X130559523Y-82954819D02*
X130226190Y-83335771D01*
X130226190Y-83335771D02*
X130369047Y-83335771D01*
X130369047Y-83335771D02*
X130464285Y-83383390D01*
X130464285Y-83383390D02*
X130511904Y-83431009D01*
X130511904Y-83431009D02*
X130559523Y-83526247D01*
X130559523Y-83526247D02*
X130559523Y-83764342D01*
X130559523Y-83764342D02*
X130511904Y-83859580D01*
X130511904Y-83859580D02*
X130464285Y-83907200D01*
X130464285Y-83907200D02*
X130369047Y-83954819D01*
X130369047Y-83954819D02*
X130083333Y-83954819D01*
X130083333Y-83954819D02*
X129988095Y-83907200D01*
X129988095Y-83907200D02*
X129940476Y-83859580D01*
X131511904Y-83954819D02*
X130940476Y-83954819D01*
X131226190Y-83954819D02*
X131226190Y-82954819D01*
X131226190Y-82954819D02*
X131130952Y-83097676D01*
X131130952Y-83097676D02*
X131035714Y-83192914D01*
X131035714Y-83192914D02*
X130940476Y-83240533D01*
X171157142Y-102004819D02*
X170823809Y-101528628D01*
X170585714Y-102004819D02*
X170585714Y-101004819D01*
X170585714Y-101004819D02*
X170966666Y-101004819D01*
X170966666Y-101004819D02*
X171061904Y-101052438D01*
X171061904Y-101052438D02*
X171109523Y-101100057D01*
X171109523Y-101100057D02*
X171157142Y-101195295D01*
X171157142Y-101195295D02*
X171157142Y-101338152D01*
X171157142Y-101338152D02*
X171109523Y-101433390D01*
X171109523Y-101433390D02*
X171061904Y-101481009D01*
X171061904Y-101481009D02*
X170966666Y-101528628D01*
X170966666Y-101528628D02*
X170585714Y-101528628D01*
X172109523Y-102004819D02*
X171538095Y-102004819D01*
X171823809Y-102004819D02*
X171823809Y-101004819D01*
X171823809Y-101004819D02*
X171728571Y-101147676D01*
X171728571Y-101147676D02*
X171633333Y-101242914D01*
X171633333Y-101242914D02*
X171538095Y-101290533D01*
X172442857Y-101004819D02*
X173061904Y-101004819D01*
X173061904Y-101004819D02*
X172728571Y-101385771D01*
X172728571Y-101385771D02*
X172871428Y-101385771D01*
X172871428Y-101385771D02*
X172966666Y-101433390D01*
X172966666Y-101433390D02*
X173014285Y-101481009D01*
X173014285Y-101481009D02*
X173061904Y-101576247D01*
X173061904Y-101576247D02*
X173061904Y-101814342D01*
X173061904Y-101814342D02*
X173014285Y-101909580D01*
X173014285Y-101909580D02*
X172966666Y-101957200D01*
X172966666Y-101957200D02*
X172871428Y-102004819D01*
X172871428Y-102004819D02*
X172585714Y-102004819D01*
X172585714Y-102004819D02*
X172490476Y-101957200D01*
X172490476Y-101957200D02*
X172442857Y-101909580D01*
X177129819Y-114880357D02*
X176653628Y-115213690D01*
X177129819Y-115451785D02*
X176129819Y-115451785D01*
X176129819Y-115451785D02*
X176129819Y-115070833D01*
X176129819Y-115070833D02*
X176177438Y-114975595D01*
X176177438Y-114975595D02*
X176225057Y-114927976D01*
X176225057Y-114927976D02*
X176320295Y-114880357D01*
X176320295Y-114880357D02*
X176463152Y-114880357D01*
X176463152Y-114880357D02*
X176558390Y-114927976D01*
X176558390Y-114927976D02*
X176606009Y-114975595D01*
X176606009Y-114975595D02*
X176653628Y-115070833D01*
X176653628Y-115070833D02*
X176653628Y-115451785D01*
X176463152Y-114023214D02*
X177129819Y-114023214D01*
X176082200Y-114261309D02*
X176796485Y-114499404D01*
X176796485Y-114499404D02*
X176796485Y-113880357D01*
X176463152Y-113070833D02*
X177129819Y-113070833D01*
X176082200Y-113308928D02*
X176796485Y-113547023D01*
X176796485Y-113547023D02*
X176796485Y-112927976D01*
X128279819Y-125312857D02*
X127803628Y-125646190D01*
X128279819Y-125884285D02*
X127279819Y-125884285D01*
X127279819Y-125884285D02*
X127279819Y-125503333D01*
X127279819Y-125503333D02*
X127327438Y-125408095D01*
X127327438Y-125408095D02*
X127375057Y-125360476D01*
X127375057Y-125360476D02*
X127470295Y-125312857D01*
X127470295Y-125312857D02*
X127613152Y-125312857D01*
X127613152Y-125312857D02*
X127708390Y-125360476D01*
X127708390Y-125360476D02*
X127756009Y-125408095D01*
X127756009Y-125408095D02*
X127803628Y-125503333D01*
X127803628Y-125503333D02*
X127803628Y-125884285D01*
X127279819Y-124979523D02*
X127279819Y-124360476D01*
X127279819Y-124360476D02*
X127660771Y-124693809D01*
X127660771Y-124693809D02*
X127660771Y-124550952D01*
X127660771Y-124550952D02*
X127708390Y-124455714D01*
X127708390Y-124455714D02*
X127756009Y-124408095D01*
X127756009Y-124408095D02*
X127851247Y-124360476D01*
X127851247Y-124360476D02*
X128089342Y-124360476D01*
X128089342Y-124360476D02*
X128184580Y-124408095D01*
X128184580Y-124408095D02*
X128232200Y-124455714D01*
X128232200Y-124455714D02*
X128279819Y-124550952D01*
X128279819Y-124550952D02*
X128279819Y-124836666D01*
X128279819Y-124836666D02*
X128232200Y-124931904D01*
X128232200Y-124931904D02*
X128184580Y-124979523D01*
X127613152Y-123503333D02*
X128279819Y-123503333D01*
X127232200Y-123741428D02*
X127946485Y-123979523D01*
X127946485Y-123979523D02*
X127946485Y-123360476D01*
X175333333Y-64359580D02*
X175285714Y-64407200D01*
X175285714Y-64407200D02*
X175142857Y-64454819D01*
X175142857Y-64454819D02*
X175047619Y-64454819D01*
X175047619Y-64454819D02*
X174904762Y-64407200D01*
X174904762Y-64407200D02*
X174809524Y-64311961D01*
X174809524Y-64311961D02*
X174761905Y-64216723D01*
X174761905Y-64216723D02*
X174714286Y-64026247D01*
X174714286Y-64026247D02*
X174714286Y-63883390D01*
X174714286Y-63883390D02*
X174761905Y-63692914D01*
X174761905Y-63692914D02*
X174809524Y-63597676D01*
X174809524Y-63597676D02*
X174904762Y-63502438D01*
X174904762Y-63502438D02*
X175047619Y-63454819D01*
X175047619Y-63454819D02*
X175142857Y-63454819D01*
X175142857Y-63454819D02*
X175285714Y-63502438D01*
X175285714Y-63502438D02*
X175333333Y-63550057D01*
X175666667Y-63454819D02*
X176285714Y-63454819D01*
X176285714Y-63454819D02*
X175952381Y-63835771D01*
X175952381Y-63835771D02*
X176095238Y-63835771D01*
X176095238Y-63835771D02*
X176190476Y-63883390D01*
X176190476Y-63883390D02*
X176238095Y-63931009D01*
X176238095Y-63931009D02*
X176285714Y-64026247D01*
X176285714Y-64026247D02*
X176285714Y-64264342D01*
X176285714Y-64264342D02*
X176238095Y-64359580D01*
X176238095Y-64359580D02*
X176190476Y-64407200D01*
X176190476Y-64407200D02*
X176095238Y-64454819D01*
X176095238Y-64454819D02*
X175809524Y-64454819D01*
X175809524Y-64454819D02*
X175714286Y-64407200D01*
X175714286Y-64407200D02*
X175666667Y-64359580D01*
X131943333Y-73767845D02*
X131610000Y-73291654D01*
X131371905Y-73767845D02*
X131371905Y-72767845D01*
X131371905Y-72767845D02*
X131752857Y-72767845D01*
X131752857Y-72767845D02*
X131848095Y-72815464D01*
X131848095Y-72815464D02*
X131895714Y-72863083D01*
X131895714Y-72863083D02*
X131943333Y-72958321D01*
X131943333Y-72958321D02*
X131943333Y-73101178D01*
X131943333Y-73101178D02*
X131895714Y-73196416D01*
X131895714Y-73196416D02*
X131848095Y-73244035D01*
X131848095Y-73244035D02*
X131752857Y-73291654D01*
X131752857Y-73291654D02*
X131371905Y-73291654D01*
X132800476Y-73101178D02*
X132800476Y-73767845D01*
X132562381Y-72720226D02*
X132324286Y-73434511D01*
X132324286Y-73434511D02*
X132943333Y-73434511D01*
X136267142Y-73467845D02*
X135933809Y-72991654D01*
X135695714Y-73467845D02*
X135695714Y-72467845D01*
X135695714Y-72467845D02*
X136076666Y-72467845D01*
X136076666Y-72467845D02*
X136171904Y-72515464D01*
X136171904Y-72515464D02*
X136219523Y-72563083D01*
X136219523Y-72563083D02*
X136267142Y-72658321D01*
X136267142Y-72658321D02*
X136267142Y-72801178D01*
X136267142Y-72801178D02*
X136219523Y-72896416D01*
X136219523Y-72896416D02*
X136171904Y-72944035D01*
X136171904Y-72944035D02*
X136076666Y-72991654D01*
X136076666Y-72991654D02*
X135695714Y-72991654D01*
X136648095Y-72563083D02*
X136695714Y-72515464D01*
X136695714Y-72515464D02*
X136790952Y-72467845D01*
X136790952Y-72467845D02*
X137029047Y-72467845D01*
X137029047Y-72467845D02*
X137124285Y-72515464D01*
X137124285Y-72515464D02*
X137171904Y-72563083D01*
X137171904Y-72563083D02*
X137219523Y-72658321D01*
X137219523Y-72658321D02*
X137219523Y-72753559D01*
X137219523Y-72753559D02*
X137171904Y-72896416D01*
X137171904Y-72896416D02*
X136600476Y-73467845D01*
X136600476Y-73467845D02*
X137219523Y-73467845D01*
X138076666Y-72467845D02*
X137886190Y-72467845D01*
X137886190Y-72467845D02*
X137790952Y-72515464D01*
X137790952Y-72515464D02*
X137743333Y-72563083D01*
X137743333Y-72563083D02*
X137648095Y-72705940D01*
X137648095Y-72705940D02*
X137600476Y-72896416D01*
X137600476Y-72896416D02*
X137600476Y-73277368D01*
X137600476Y-73277368D02*
X137648095Y-73372606D01*
X137648095Y-73372606D02*
X137695714Y-73420226D01*
X137695714Y-73420226D02*
X137790952Y-73467845D01*
X137790952Y-73467845D02*
X137981428Y-73467845D01*
X137981428Y-73467845D02*
X138076666Y-73420226D01*
X138076666Y-73420226D02*
X138124285Y-73372606D01*
X138124285Y-73372606D02*
X138171904Y-73277368D01*
X138171904Y-73277368D02*
X138171904Y-73039273D01*
X138171904Y-73039273D02*
X138124285Y-72944035D01*
X138124285Y-72944035D02*
X138076666Y-72896416D01*
X138076666Y-72896416D02*
X137981428Y-72848797D01*
X137981428Y-72848797D02*
X137790952Y-72848797D01*
X137790952Y-72848797D02*
X137695714Y-72896416D01*
X137695714Y-72896416D02*
X137648095Y-72944035D01*
X137648095Y-72944035D02*
X137600476Y-73039273D01*
X174757142Y-92754819D02*
X174423809Y-92278628D01*
X174185714Y-92754819D02*
X174185714Y-91754819D01*
X174185714Y-91754819D02*
X174566666Y-91754819D01*
X174566666Y-91754819D02*
X174661904Y-91802438D01*
X174661904Y-91802438D02*
X174709523Y-91850057D01*
X174709523Y-91850057D02*
X174757142Y-91945295D01*
X174757142Y-91945295D02*
X174757142Y-92088152D01*
X174757142Y-92088152D02*
X174709523Y-92183390D01*
X174709523Y-92183390D02*
X174661904Y-92231009D01*
X174661904Y-92231009D02*
X174566666Y-92278628D01*
X174566666Y-92278628D02*
X174185714Y-92278628D01*
X175709523Y-92754819D02*
X175138095Y-92754819D01*
X175423809Y-92754819D02*
X175423809Y-91754819D01*
X175423809Y-91754819D02*
X175328571Y-91897676D01*
X175328571Y-91897676D02*
X175233333Y-91992914D01*
X175233333Y-91992914D02*
X175138095Y-92040533D01*
X176280952Y-92183390D02*
X176185714Y-92135771D01*
X176185714Y-92135771D02*
X176138095Y-92088152D01*
X176138095Y-92088152D02*
X176090476Y-91992914D01*
X176090476Y-91992914D02*
X176090476Y-91945295D01*
X176090476Y-91945295D02*
X176138095Y-91850057D01*
X176138095Y-91850057D02*
X176185714Y-91802438D01*
X176185714Y-91802438D02*
X176280952Y-91754819D01*
X176280952Y-91754819D02*
X176471428Y-91754819D01*
X176471428Y-91754819D02*
X176566666Y-91802438D01*
X176566666Y-91802438D02*
X176614285Y-91850057D01*
X176614285Y-91850057D02*
X176661904Y-91945295D01*
X176661904Y-91945295D02*
X176661904Y-91992914D01*
X176661904Y-91992914D02*
X176614285Y-92088152D01*
X176614285Y-92088152D02*
X176566666Y-92135771D01*
X176566666Y-92135771D02*
X176471428Y-92183390D01*
X176471428Y-92183390D02*
X176280952Y-92183390D01*
X176280952Y-92183390D02*
X176185714Y-92231009D01*
X176185714Y-92231009D02*
X176138095Y-92278628D01*
X176138095Y-92278628D02*
X176090476Y-92373866D01*
X176090476Y-92373866D02*
X176090476Y-92564342D01*
X176090476Y-92564342D02*
X176138095Y-92659580D01*
X176138095Y-92659580D02*
X176185714Y-92707200D01*
X176185714Y-92707200D02*
X176280952Y-92754819D01*
X176280952Y-92754819D02*
X176471428Y-92754819D01*
X176471428Y-92754819D02*
X176566666Y-92707200D01*
X176566666Y-92707200D02*
X176614285Y-92659580D01*
X176614285Y-92659580D02*
X176661904Y-92564342D01*
X176661904Y-92564342D02*
X176661904Y-92373866D01*
X176661904Y-92373866D02*
X176614285Y-92278628D01*
X176614285Y-92278628D02*
X176566666Y-92231009D01*
X176566666Y-92231009D02*
X176471428Y-92183390D01*
X116754819Y-137492857D02*
X116278628Y-137826190D01*
X116754819Y-138064285D02*
X115754819Y-138064285D01*
X115754819Y-138064285D02*
X115754819Y-137683333D01*
X115754819Y-137683333D02*
X115802438Y-137588095D01*
X115802438Y-137588095D02*
X115850057Y-137540476D01*
X115850057Y-137540476D02*
X115945295Y-137492857D01*
X115945295Y-137492857D02*
X116088152Y-137492857D01*
X116088152Y-137492857D02*
X116183390Y-137540476D01*
X116183390Y-137540476D02*
X116231009Y-137588095D01*
X116231009Y-137588095D02*
X116278628Y-137683333D01*
X116278628Y-137683333D02*
X116278628Y-138064285D01*
X115850057Y-137111904D02*
X115802438Y-137064285D01*
X115802438Y-137064285D02*
X115754819Y-136969047D01*
X115754819Y-136969047D02*
X115754819Y-136730952D01*
X115754819Y-136730952D02*
X115802438Y-136635714D01*
X115802438Y-136635714D02*
X115850057Y-136588095D01*
X115850057Y-136588095D02*
X115945295Y-136540476D01*
X115945295Y-136540476D02*
X116040533Y-136540476D01*
X116040533Y-136540476D02*
X116183390Y-136588095D01*
X116183390Y-136588095D02*
X116754819Y-137159523D01*
X116754819Y-137159523D02*
X116754819Y-136540476D01*
X115850057Y-136159523D02*
X115802438Y-136111904D01*
X115802438Y-136111904D02*
X115754819Y-136016666D01*
X115754819Y-136016666D02*
X115754819Y-135778571D01*
X115754819Y-135778571D02*
X115802438Y-135683333D01*
X115802438Y-135683333D02*
X115850057Y-135635714D01*
X115850057Y-135635714D02*
X115945295Y-135588095D01*
X115945295Y-135588095D02*
X116040533Y-135588095D01*
X116040533Y-135588095D02*
X116183390Y-135635714D01*
X116183390Y-135635714D02*
X116754819Y-136207142D01*
X116754819Y-136207142D02*
X116754819Y-135588095D01*
X121709761Y-101660057D02*
X121614523Y-101612438D01*
X121614523Y-101612438D02*
X121519285Y-101517200D01*
X121519285Y-101517200D02*
X121376428Y-101374342D01*
X121376428Y-101374342D02*
X121281190Y-101326723D01*
X121281190Y-101326723D02*
X121185952Y-101326723D01*
X121233571Y-101564819D02*
X121138333Y-101517200D01*
X121138333Y-101517200D02*
X121043095Y-101421961D01*
X121043095Y-101421961D02*
X120995476Y-101231485D01*
X120995476Y-101231485D02*
X120995476Y-100898152D01*
X120995476Y-100898152D02*
X121043095Y-100707676D01*
X121043095Y-100707676D02*
X121138333Y-100612438D01*
X121138333Y-100612438D02*
X121233571Y-100564819D01*
X121233571Y-100564819D02*
X121424047Y-100564819D01*
X121424047Y-100564819D02*
X121519285Y-100612438D01*
X121519285Y-100612438D02*
X121614523Y-100707676D01*
X121614523Y-100707676D02*
X121662142Y-100898152D01*
X121662142Y-100898152D02*
X121662142Y-101231485D01*
X121662142Y-101231485D02*
X121614523Y-101421961D01*
X121614523Y-101421961D02*
X121519285Y-101517200D01*
X121519285Y-101517200D02*
X121424047Y-101564819D01*
X121424047Y-101564819D02*
X121233571Y-101564819D01*
X121995476Y-100564819D02*
X122614523Y-100564819D01*
X122614523Y-100564819D02*
X122281190Y-100945771D01*
X122281190Y-100945771D02*
X122424047Y-100945771D01*
X122424047Y-100945771D02*
X122519285Y-100993390D01*
X122519285Y-100993390D02*
X122566904Y-101041009D01*
X122566904Y-101041009D02*
X122614523Y-101136247D01*
X122614523Y-101136247D02*
X122614523Y-101374342D01*
X122614523Y-101374342D02*
X122566904Y-101469580D01*
X122566904Y-101469580D02*
X122519285Y-101517200D01*
X122519285Y-101517200D02*
X122424047Y-101564819D01*
X122424047Y-101564819D02*
X122138333Y-101564819D01*
X122138333Y-101564819D02*
X122043095Y-101517200D01*
X122043095Y-101517200D02*
X121995476Y-101469580D01*
X179133333Y-64454819D02*
X178800000Y-63978628D01*
X178561905Y-64454819D02*
X178561905Y-63454819D01*
X178561905Y-63454819D02*
X178942857Y-63454819D01*
X178942857Y-63454819D02*
X179038095Y-63502438D01*
X179038095Y-63502438D02*
X179085714Y-63550057D01*
X179085714Y-63550057D02*
X179133333Y-63645295D01*
X179133333Y-63645295D02*
X179133333Y-63788152D01*
X179133333Y-63788152D02*
X179085714Y-63883390D01*
X179085714Y-63883390D02*
X179038095Y-63931009D01*
X179038095Y-63931009D02*
X178942857Y-63978628D01*
X178942857Y-63978628D02*
X178561905Y-63978628D01*
X179704762Y-63883390D02*
X179609524Y-63835771D01*
X179609524Y-63835771D02*
X179561905Y-63788152D01*
X179561905Y-63788152D02*
X179514286Y-63692914D01*
X179514286Y-63692914D02*
X179514286Y-63645295D01*
X179514286Y-63645295D02*
X179561905Y-63550057D01*
X179561905Y-63550057D02*
X179609524Y-63502438D01*
X179609524Y-63502438D02*
X179704762Y-63454819D01*
X179704762Y-63454819D02*
X179895238Y-63454819D01*
X179895238Y-63454819D02*
X179990476Y-63502438D01*
X179990476Y-63502438D02*
X180038095Y-63550057D01*
X180038095Y-63550057D02*
X180085714Y-63645295D01*
X180085714Y-63645295D02*
X180085714Y-63692914D01*
X180085714Y-63692914D02*
X180038095Y-63788152D01*
X180038095Y-63788152D02*
X179990476Y-63835771D01*
X179990476Y-63835771D02*
X179895238Y-63883390D01*
X179895238Y-63883390D02*
X179704762Y-63883390D01*
X179704762Y-63883390D02*
X179609524Y-63931009D01*
X179609524Y-63931009D02*
X179561905Y-63978628D01*
X179561905Y-63978628D02*
X179514286Y-64073866D01*
X179514286Y-64073866D02*
X179514286Y-64264342D01*
X179514286Y-64264342D02*
X179561905Y-64359580D01*
X179561905Y-64359580D02*
X179609524Y-64407200D01*
X179609524Y-64407200D02*
X179704762Y-64454819D01*
X179704762Y-64454819D02*
X179895238Y-64454819D01*
X179895238Y-64454819D02*
X179990476Y-64407200D01*
X179990476Y-64407200D02*
X180038095Y-64359580D01*
X180038095Y-64359580D02*
X180085714Y-64264342D01*
X180085714Y-64264342D02*
X180085714Y-64073866D01*
X180085714Y-64073866D02*
X180038095Y-63978628D01*
X180038095Y-63978628D02*
X179990476Y-63931009D01*
X179990476Y-63931009D02*
X179895238Y-63883390D01*
X198954819Y-135333333D02*
X199669104Y-135333333D01*
X199669104Y-135333333D02*
X199811961Y-135380952D01*
X199811961Y-135380952D02*
X199907200Y-135476190D01*
X199907200Y-135476190D02*
X199954819Y-135619047D01*
X199954819Y-135619047D02*
X199954819Y-135714285D01*
X198954819Y-134380952D02*
X198954819Y-134857142D01*
X198954819Y-134857142D02*
X199431009Y-134904761D01*
X199431009Y-134904761D02*
X199383390Y-134857142D01*
X199383390Y-134857142D02*
X199335771Y-134761904D01*
X199335771Y-134761904D02*
X199335771Y-134523809D01*
X199335771Y-134523809D02*
X199383390Y-134428571D01*
X199383390Y-134428571D02*
X199431009Y-134380952D01*
X199431009Y-134380952D02*
X199526247Y-134333333D01*
X199526247Y-134333333D02*
X199764342Y-134333333D01*
X199764342Y-134333333D02*
X199859580Y-134380952D01*
X199859580Y-134380952D02*
X199907200Y-134428571D01*
X199907200Y-134428571D02*
X199954819Y-134523809D01*
X199954819Y-134523809D02*
X199954819Y-134761904D01*
X199954819Y-134761904D02*
X199907200Y-134857142D01*
X199907200Y-134857142D02*
X199859580Y-134904761D01*
X198954819Y-116049523D02*
X199669104Y-116049523D01*
X199669104Y-116049523D02*
X199811961Y-116097142D01*
X199811961Y-116097142D02*
X199907200Y-116192380D01*
X199907200Y-116192380D02*
X199954819Y-116335237D01*
X199954819Y-116335237D02*
X199954819Y-116430475D01*
X199954819Y-115049523D02*
X199954819Y-115620951D01*
X199954819Y-115335237D02*
X198954819Y-115335237D01*
X198954819Y-115335237D02*
X199097676Y-115430475D01*
X199097676Y-115430475D02*
X199192914Y-115525713D01*
X199192914Y-115525713D02*
X199240533Y-115620951D01*
X198954819Y-114716189D02*
X198954819Y-114049523D01*
X198954819Y-114049523D02*
X199954819Y-114478094D01*
X130464819Y-81674930D02*
X131274342Y-81674930D01*
X131274342Y-81674930D02*
X131369580Y-81627311D01*
X131369580Y-81627311D02*
X131417200Y-81579692D01*
X131417200Y-81579692D02*
X131464819Y-81484454D01*
X131464819Y-81484454D02*
X131464819Y-81293978D01*
X131464819Y-81293978D02*
X131417200Y-81198740D01*
X131417200Y-81198740D02*
X131369580Y-81151121D01*
X131369580Y-81151121D02*
X131274342Y-81103502D01*
X131274342Y-81103502D02*
X130464819Y-81103502D01*
X130798152Y-80198740D02*
X131464819Y-80198740D01*
X130417200Y-80436835D02*
X131131485Y-80674930D01*
X131131485Y-80674930D02*
X131131485Y-80055883D01*
X188966666Y-70414819D02*
X188966666Y-71129104D01*
X188966666Y-71129104D02*
X188919047Y-71271961D01*
X188919047Y-71271961D02*
X188823809Y-71367200D01*
X188823809Y-71367200D02*
X188680952Y-71414819D01*
X188680952Y-71414819D02*
X188585714Y-71414819D01*
X189347619Y-70414819D02*
X190014285Y-70414819D01*
X190014285Y-70414819D02*
X189585714Y-71414819D01*
X140363095Y-128929819D02*
X140363095Y-129739342D01*
X140363095Y-129739342D02*
X140410714Y-129834580D01*
X140410714Y-129834580D02*
X140458333Y-129882200D01*
X140458333Y-129882200D02*
X140553571Y-129929819D01*
X140553571Y-129929819D02*
X140744047Y-129929819D01*
X140744047Y-129929819D02*
X140839285Y-129882200D01*
X140839285Y-129882200D02*
X140886904Y-129834580D01*
X140886904Y-129834580D02*
X140934523Y-129739342D01*
X140934523Y-129739342D02*
X140934523Y-128929819D01*
X141363095Y-129025057D02*
X141410714Y-128977438D01*
X141410714Y-128977438D02*
X141505952Y-128929819D01*
X141505952Y-128929819D02*
X141744047Y-128929819D01*
X141744047Y-128929819D02*
X141839285Y-128977438D01*
X141839285Y-128977438D02*
X141886904Y-129025057D01*
X141886904Y-129025057D02*
X141934523Y-129120295D01*
X141934523Y-129120295D02*
X141934523Y-129215533D01*
X141934523Y-129215533D02*
X141886904Y-129358390D01*
X141886904Y-129358390D02*
X141315476Y-129929819D01*
X141315476Y-129929819D02*
X141934523Y-129929819D01*
X171144642Y-98954819D02*
X170811309Y-98478628D01*
X170573214Y-98954819D02*
X170573214Y-97954819D01*
X170573214Y-97954819D02*
X170954166Y-97954819D01*
X170954166Y-97954819D02*
X171049404Y-98002438D01*
X171049404Y-98002438D02*
X171097023Y-98050057D01*
X171097023Y-98050057D02*
X171144642Y-98145295D01*
X171144642Y-98145295D02*
X171144642Y-98288152D01*
X171144642Y-98288152D02*
X171097023Y-98383390D01*
X171097023Y-98383390D02*
X171049404Y-98431009D01*
X171049404Y-98431009D02*
X170954166Y-98478628D01*
X170954166Y-98478628D02*
X170573214Y-98478628D01*
X172097023Y-98954819D02*
X171525595Y-98954819D01*
X171811309Y-98954819D02*
X171811309Y-97954819D01*
X171811309Y-97954819D02*
X171716071Y-98097676D01*
X171716071Y-98097676D02*
X171620833Y-98192914D01*
X171620833Y-98192914D02*
X171525595Y-98240533D01*
X173001785Y-97954819D02*
X172525595Y-97954819D01*
X172525595Y-97954819D02*
X172477976Y-98431009D01*
X172477976Y-98431009D02*
X172525595Y-98383390D01*
X172525595Y-98383390D02*
X172620833Y-98335771D01*
X172620833Y-98335771D02*
X172858928Y-98335771D01*
X172858928Y-98335771D02*
X172954166Y-98383390D01*
X172954166Y-98383390D02*
X173001785Y-98431009D01*
X173001785Y-98431009D02*
X173049404Y-98526247D01*
X173049404Y-98526247D02*
X173049404Y-98764342D01*
X173049404Y-98764342D02*
X173001785Y-98859580D01*
X173001785Y-98859580D02*
X172954166Y-98907200D01*
X172954166Y-98907200D02*
X172858928Y-98954819D01*
X172858928Y-98954819D02*
X172620833Y-98954819D01*
X172620833Y-98954819D02*
X172525595Y-98907200D01*
X172525595Y-98907200D02*
X172477976Y-98859580D01*
X175358333Y-108654819D02*
X175025000Y-108178628D01*
X174786905Y-108654819D02*
X174786905Y-107654819D01*
X174786905Y-107654819D02*
X175167857Y-107654819D01*
X175167857Y-107654819D02*
X175263095Y-107702438D01*
X175263095Y-107702438D02*
X175310714Y-107750057D01*
X175310714Y-107750057D02*
X175358333Y-107845295D01*
X175358333Y-107845295D02*
X175358333Y-107988152D01*
X175358333Y-107988152D02*
X175310714Y-108083390D01*
X175310714Y-108083390D02*
X175263095Y-108131009D01*
X175263095Y-108131009D02*
X175167857Y-108178628D01*
X175167857Y-108178628D02*
X174786905Y-108178628D01*
X176215476Y-107654819D02*
X176025000Y-107654819D01*
X176025000Y-107654819D02*
X175929762Y-107702438D01*
X175929762Y-107702438D02*
X175882143Y-107750057D01*
X175882143Y-107750057D02*
X175786905Y-107892914D01*
X175786905Y-107892914D02*
X175739286Y-108083390D01*
X175739286Y-108083390D02*
X175739286Y-108464342D01*
X175739286Y-108464342D02*
X175786905Y-108559580D01*
X175786905Y-108559580D02*
X175834524Y-108607200D01*
X175834524Y-108607200D02*
X175929762Y-108654819D01*
X175929762Y-108654819D02*
X176120238Y-108654819D01*
X176120238Y-108654819D02*
X176215476Y-108607200D01*
X176215476Y-108607200D02*
X176263095Y-108559580D01*
X176263095Y-108559580D02*
X176310714Y-108464342D01*
X176310714Y-108464342D02*
X176310714Y-108226247D01*
X176310714Y-108226247D02*
X176263095Y-108131009D01*
X176263095Y-108131009D02*
X176215476Y-108083390D01*
X176215476Y-108083390D02*
X176120238Y-108035771D01*
X176120238Y-108035771D02*
X175929762Y-108035771D01*
X175929762Y-108035771D02*
X175834524Y-108083390D01*
X175834524Y-108083390D02*
X175786905Y-108131009D01*
X175786905Y-108131009D02*
X175739286Y-108226247D01*
X215454819Y-78333333D02*
X216169104Y-78333333D01*
X216169104Y-78333333D02*
X216311961Y-78380952D01*
X216311961Y-78380952D02*
X216407200Y-78476190D01*
X216407200Y-78476190D02*
X216454819Y-78619047D01*
X216454819Y-78619047D02*
X216454819Y-78714285D01*
X215454819Y-77428571D02*
X215454819Y-77619047D01*
X215454819Y-77619047D02*
X215502438Y-77714285D01*
X215502438Y-77714285D02*
X215550057Y-77761904D01*
X215550057Y-77761904D02*
X215692914Y-77857142D01*
X215692914Y-77857142D02*
X215883390Y-77904761D01*
X215883390Y-77904761D02*
X216264342Y-77904761D01*
X216264342Y-77904761D02*
X216359580Y-77857142D01*
X216359580Y-77857142D02*
X216407200Y-77809523D01*
X216407200Y-77809523D02*
X216454819Y-77714285D01*
X216454819Y-77714285D02*
X216454819Y-77523809D01*
X216454819Y-77523809D02*
X216407200Y-77428571D01*
X216407200Y-77428571D02*
X216359580Y-77380952D01*
X216359580Y-77380952D02*
X216264342Y-77333333D01*
X216264342Y-77333333D02*
X216026247Y-77333333D01*
X216026247Y-77333333D02*
X215931009Y-77380952D01*
X215931009Y-77380952D02*
X215883390Y-77428571D01*
X215883390Y-77428571D02*
X215835771Y-77523809D01*
X215835771Y-77523809D02*
X215835771Y-77714285D01*
X215835771Y-77714285D02*
X215883390Y-77809523D01*
X215883390Y-77809523D02*
X215931009Y-77857142D01*
X215931009Y-77857142D02*
X216026247Y-77904761D01*
X141893333Y-87552606D02*
X141845714Y-87600226D01*
X141845714Y-87600226D02*
X141702857Y-87647845D01*
X141702857Y-87647845D02*
X141607619Y-87647845D01*
X141607619Y-87647845D02*
X141464762Y-87600226D01*
X141464762Y-87600226D02*
X141369524Y-87504987D01*
X141369524Y-87504987D02*
X141321905Y-87409749D01*
X141321905Y-87409749D02*
X141274286Y-87219273D01*
X141274286Y-87219273D02*
X141274286Y-87076416D01*
X141274286Y-87076416D02*
X141321905Y-86885940D01*
X141321905Y-86885940D02*
X141369524Y-86790702D01*
X141369524Y-86790702D02*
X141464762Y-86695464D01*
X141464762Y-86695464D02*
X141607619Y-86647845D01*
X141607619Y-86647845D02*
X141702857Y-86647845D01*
X141702857Y-86647845D02*
X141845714Y-86695464D01*
X141845714Y-86695464D02*
X141893333Y-86743083D01*
X142845714Y-87647845D02*
X142274286Y-87647845D01*
X142560000Y-87647845D02*
X142560000Y-86647845D01*
X142560000Y-86647845D02*
X142464762Y-86790702D01*
X142464762Y-86790702D02*
X142369524Y-86885940D01*
X142369524Y-86885940D02*
X142274286Y-86933559D01*
X136132142Y-125229580D02*
X136084523Y-125277200D01*
X136084523Y-125277200D02*
X135941666Y-125324819D01*
X135941666Y-125324819D02*
X135846428Y-125324819D01*
X135846428Y-125324819D02*
X135703571Y-125277200D01*
X135703571Y-125277200D02*
X135608333Y-125181961D01*
X135608333Y-125181961D02*
X135560714Y-125086723D01*
X135560714Y-125086723D02*
X135513095Y-124896247D01*
X135513095Y-124896247D02*
X135513095Y-124753390D01*
X135513095Y-124753390D02*
X135560714Y-124562914D01*
X135560714Y-124562914D02*
X135608333Y-124467676D01*
X135608333Y-124467676D02*
X135703571Y-124372438D01*
X135703571Y-124372438D02*
X135846428Y-124324819D01*
X135846428Y-124324819D02*
X135941666Y-124324819D01*
X135941666Y-124324819D02*
X136084523Y-124372438D01*
X136084523Y-124372438D02*
X136132142Y-124420057D01*
X137084523Y-125324819D02*
X136513095Y-125324819D01*
X136798809Y-125324819D02*
X136798809Y-124324819D01*
X136798809Y-124324819D02*
X136703571Y-124467676D01*
X136703571Y-124467676D02*
X136608333Y-124562914D01*
X136608333Y-124562914D02*
X136513095Y-124610533D01*
X137703571Y-124324819D02*
X137798809Y-124324819D01*
X137798809Y-124324819D02*
X137894047Y-124372438D01*
X137894047Y-124372438D02*
X137941666Y-124420057D01*
X137941666Y-124420057D02*
X137989285Y-124515295D01*
X137989285Y-124515295D02*
X138036904Y-124705771D01*
X138036904Y-124705771D02*
X138036904Y-124943866D01*
X138036904Y-124943866D02*
X137989285Y-125134342D01*
X137989285Y-125134342D02*
X137941666Y-125229580D01*
X137941666Y-125229580D02*
X137894047Y-125277200D01*
X137894047Y-125277200D02*
X137798809Y-125324819D01*
X137798809Y-125324819D02*
X137703571Y-125324819D01*
X137703571Y-125324819D02*
X137608333Y-125277200D01*
X137608333Y-125277200D02*
X137560714Y-125229580D01*
X137560714Y-125229580D02*
X137513095Y-125134342D01*
X137513095Y-125134342D02*
X137465476Y-124943866D01*
X137465476Y-124943866D02*
X137465476Y-124705771D01*
X137465476Y-124705771D02*
X137513095Y-124515295D01*
X137513095Y-124515295D02*
X137560714Y-124420057D01*
X137560714Y-124420057D02*
X137608333Y-124372438D01*
X137608333Y-124372438D02*
X137703571Y-124324819D01*
X171144642Y-92754819D02*
X170811309Y-92278628D01*
X170573214Y-92754819D02*
X170573214Y-91754819D01*
X170573214Y-91754819D02*
X170954166Y-91754819D01*
X170954166Y-91754819D02*
X171049404Y-91802438D01*
X171049404Y-91802438D02*
X171097023Y-91850057D01*
X171097023Y-91850057D02*
X171144642Y-91945295D01*
X171144642Y-91945295D02*
X171144642Y-92088152D01*
X171144642Y-92088152D02*
X171097023Y-92183390D01*
X171097023Y-92183390D02*
X171049404Y-92231009D01*
X171049404Y-92231009D02*
X170954166Y-92278628D01*
X170954166Y-92278628D02*
X170573214Y-92278628D01*
X172097023Y-92754819D02*
X171525595Y-92754819D01*
X171811309Y-92754819D02*
X171811309Y-91754819D01*
X171811309Y-91754819D02*
X171716071Y-91897676D01*
X171716071Y-91897676D02*
X171620833Y-91992914D01*
X171620833Y-91992914D02*
X171525595Y-92040533D01*
X172573214Y-92754819D02*
X172763690Y-92754819D01*
X172763690Y-92754819D02*
X172858928Y-92707200D01*
X172858928Y-92707200D02*
X172906547Y-92659580D01*
X172906547Y-92659580D02*
X173001785Y-92516723D01*
X173001785Y-92516723D02*
X173049404Y-92326247D01*
X173049404Y-92326247D02*
X173049404Y-91945295D01*
X173049404Y-91945295D02*
X173001785Y-91850057D01*
X173001785Y-91850057D02*
X172954166Y-91802438D01*
X172954166Y-91802438D02*
X172858928Y-91754819D01*
X172858928Y-91754819D02*
X172668452Y-91754819D01*
X172668452Y-91754819D02*
X172573214Y-91802438D01*
X172573214Y-91802438D02*
X172525595Y-91850057D01*
X172525595Y-91850057D02*
X172477976Y-91945295D01*
X172477976Y-91945295D02*
X172477976Y-92183390D01*
X172477976Y-92183390D02*
X172525595Y-92278628D01*
X172525595Y-92278628D02*
X172573214Y-92326247D01*
X172573214Y-92326247D02*
X172668452Y-92373866D01*
X172668452Y-92373866D02*
X172858928Y-92373866D01*
X172858928Y-92373866D02*
X172954166Y-92326247D01*
X172954166Y-92326247D02*
X173001785Y-92278628D01*
X173001785Y-92278628D02*
X173049404Y-92183390D01*
X165916666Y-69904819D02*
X165916666Y-70619104D01*
X165916666Y-70619104D02*
X165869047Y-70761961D01*
X165869047Y-70761961D02*
X165773809Y-70857200D01*
X165773809Y-70857200D02*
X165630952Y-70904819D01*
X165630952Y-70904819D02*
X165535714Y-70904819D01*
X166440476Y-70904819D02*
X166630952Y-70904819D01*
X166630952Y-70904819D02*
X166726190Y-70857200D01*
X166726190Y-70857200D02*
X166773809Y-70809580D01*
X166773809Y-70809580D02*
X166869047Y-70666723D01*
X166869047Y-70666723D02*
X166916666Y-70476247D01*
X166916666Y-70476247D02*
X166916666Y-70095295D01*
X166916666Y-70095295D02*
X166869047Y-70000057D01*
X166869047Y-70000057D02*
X166821428Y-69952438D01*
X166821428Y-69952438D02*
X166726190Y-69904819D01*
X166726190Y-69904819D02*
X166535714Y-69904819D01*
X166535714Y-69904819D02*
X166440476Y-69952438D01*
X166440476Y-69952438D02*
X166392857Y-70000057D01*
X166392857Y-70000057D02*
X166345238Y-70095295D01*
X166345238Y-70095295D02*
X166345238Y-70333390D01*
X166345238Y-70333390D02*
X166392857Y-70428628D01*
X166392857Y-70428628D02*
X166440476Y-70476247D01*
X166440476Y-70476247D02*
X166535714Y-70523866D01*
X166535714Y-70523866D02*
X166726190Y-70523866D01*
X166726190Y-70523866D02*
X166821428Y-70476247D01*
X166821428Y-70476247D02*
X166869047Y-70428628D01*
X166869047Y-70428628D02*
X166916666Y-70333390D01*
X174995833Y-86804819D02*
X174662500Y-86328628D01*
X174424405Y-86804819D02*
X174424405Y-85804819D01*
X174424405Y-85804819D02*
X174805357Y-85804819D01*
X174805357Y-85804819D02*
X174900595Y-85852438D01*
X174900595Y-85852438D02*
X174948214Y-85900057D01*
X174948214Y-85900057D02*
X174995833Y-85995295D01*
X174995833Y-85995295D02*
X174995833Y-86138152D01*
X174995833Y-86138152D02*
X174948214Y-86233390D01*
X174948214Y-86233390D02*
X174900595Y-86281009D01*
X174900595Y-86281009D02*
X174805357Y-86328628D01*
X174805357Y-86328628D02*
X174424405Y-86328628D01*
X175948214Y-86804819D02*
X175376786Y-86804819D01*
X175662500Y-86804819D02*
X175662500Y-85804819D01*
X175662500Y-85804819D02*
X175567262Y-85947676D01*
X175567262Y-85947676D02*
X175472024Y-86042914D01*
X175472024Y-86042914D02*
X175376786Y-86090533D01*
X136194642Y-122104819D02*
X135861309Y-121628628D01*
X135623214Y-122104819D02*
X135623214Y-121104819D01*
X135623214Y-121104819D02*
X136004166Y-121104819D01*
X136004166Y-121104819D02*
X136099404Y-121152438D01*
X136099404Y-121152438D02*
X136147023Y-121200057D01*
X136147023Y-121200057D02*
X136194642Y-121295295D01*
X136194642Y-121295295D02*
X136194642Y-121438152D01*
X136194642Y-121438152D02*
X136147023Y-121533390D01*
X136147023Y-121533390D02*
X136099404Y-121581009D01*
X136099404Y-121581009D02*
X136004166Y-121628628D01*
X136004166Y-121628628D02*
X135623214Y-121628628D01*
X136575595Y-121200057D02*
X136623214Y-121152438D01*
X136623214Y-121152438D02*
X136718452Y-121104819D01*
X136718452Y-121104819D02*
X136956547Y-121104819D01*
X136956547Y-121104819D02*
X137051785Y-121152438D01*
X137051785Y-121152438D02*
X137099404Y-121200057D01*
X137099404Y-121200057D02*
X137147023Y-121295295D01*
X137147023Y-121295295D02*
X137147023Y-121390533D01*
X137147023Y-121390533D02*
X137099404Y-121533390D01*
X137099404Y-121533390D02*
X136527976Y-122104819D01*
X136527976Y-122104819D02*
X137147023Y-122104819D01*
X137480357Y-121104819D02*
X138099404Y-121104819D01*
X138099404Y-121104819D02*
X137766071Y-121485771D01*
X137766071Y-121485771D02*
X137908928Y-121485771D01*
X137908928Y-121485771D02*
X138004166Y-121533390D01*
X138004166Y-121533390D02*
X138051785Y-121581009D01*
X138051785Y-121581009D02*
X138099404Y-121676247D01*
X138099404Y-121676247D02*
X138099404Y-121914342D01*
X138099404Y-121914342D02*
X138051785Y-122009580D01*
X138051785Y-122009580D02*
X138004166Y-122057200D01*
X138004166Y-122057200D02*
X137908928Y-122104819D01*
X137908928Y-122104819D02*
X137623214Y-122104819D01*
X137623214Y-122104819D02*
X137527976Y-122057200D01*
X137527976Y-122057200D02*
X137480357Y-122009580D01*
X147666666Y-69579819D02*
X147666666Y-70294104D01*
X147666666Y-70294104D02*
X147619047Y-70436961D01*
X147619047Y-70436961D02*
X147523809Y-70532200D01*
X147523809Y-70532200D02*
X147380952Y-70579819D01*
X147380952Y-70579819D02*
X147285714Y-70579819D01*
X148047619Y-69579819D02*
X148666666Y-69579819D01*
X148666666Y-69579819D02*
X148333333Y-69960771D01*
X148333333Y-69960771D02*
X148476190Y-69960771D01*
X148476190Y-69960771D02*
X148571428Y-70008390D01*
X148571428Y-70008390D02*
X148619047Y-70056009D01*
X148619047Y-70056009D02*
X148666666Y-70151247D01*
X148666666Y-70151247D02*
X148666666Y-70389342D01*
X148666666Y-70389342D02*
X148619047Y-70484580D01*
X148619047Y-70484580D02*
X148571428Y-70532200D01*
X148571428Y-70532200D02*
X148476190Y-70579819D01*
X148476190Y-70579819D02*
X148190476Y-70579819D01*
X148190476Y-70579819D02*
X148095238Y-70532200D01*
X148095238Y-70532200D02*
X148047619Y-70484580D01*
X179333333Y-67454819D02*
X179000000Y-66978628D01*
X178761905Y-67454819D02*
X178761905Y-66454819D01*
X178761905Y-66454819D02*
X179142857Y-66454819D01*
X179142857Y-66454819D02*
X179238095Y-66502438D01*
X179238095Y-66502438D02*
X179285714Y-66550057D01*
X179285714Y-66550057D02*
X179333333Y-66645295D01*
X179333333Y-66645295D02*
X179333333Y-66788152D01*
X179333333Y-66788152D02*
X179285714Y-66883390D01*
X179285714Y-66883390D02*
X179238095Y-66931009D01*
X179238095Y-66931009D02*
X179142857Y-66978628D01*
X179142857Y-66978628D02*
X178761905Y-66978628D01*
X179809524Y-67454819D02*
X180000000Y-67454819D01*
X180000000Y-67454819D02*
X180095238Y-67407200D01*
X180095238Y-67407200D02*
X180142857Y-67359580D01*
X180142857Y-67359580D02*
X180238095Y-67216723D01*
X180238095Y-67216723D02*
X180285714Y-67026247D01*
X180285714Y-67026247D02*
X180285714Y-66645295D01*
X180285714Y-66645295D02*
X180238095Y-66550057D01*
X180238095Y-66550057D02*
X180190476Y-66502438D01*
X180190476Y-66502438D02*
X180095238Y-66454819D01*
X180095238Y-66454819D02*
X179904762Y-66454819D01*
X179904762Y-66454819D02*
X179809524Y-66502438D01*
X179809524Y-66502438D02*
X179761905Y-66550057D01*
X179761905Y-66550057D02*
X179714286Y-66645295D01*
X179714286Y-66645295D02*
X179714286Y-66883390D01*
X179714286Y-66883390D02*
X179761905Y-66978628D01*
X179761905Y-66978628D02*
X179809524Y-67026247D01*
X179809524Y-67026247D02*
X179904762Y-67073866D01*
X179904762Y-67073866D02*
X180095238Y-67073866D01*
X180095238Y-67073866D02*
X180190476Y-67026247D01*
X180190476Y-67026247D02*
X180238095Y-66978628D01*
X180238095Y-66978628D02*
X180285714Y-66883390D01*
X128414819Y-110567857D02*
X127938628Y-110901190D01*
X128414819Y-111139285D02*
X127414819Y-111139285D01*
X127414819Y-111139285D02*
X127414819Y-110758333D01*
X127414819Y-110758333D02*
X127462438Y-110663095D01*
X127462438Y-110663095D02*
X127510057Y-110615476D01*
X127510057Y-110615476D02*
X127605295Y-110567857D01*
X127605295Y-110567857D02*
X127748152Y-110567857D01*
X127748152Y-110567857D02*
X127843390Y-110615476D01*
X127843390Y-110615476D02*
X127891009Y-110663095D01*
X127891009Y-110663095D02*
X127938628Y-110758333D01*
X127938628Y-110758333D02*
X127938628Y-111139285D01*
X127414819Y-110234523D02*
X127414819Y-109615476D01*
X127414819Y-109615476D02*
X127795771Y-109948809D01*
X127795771Y-109948809D02*
X127795771Y-109805952D01*
X127795771Y-109805952D02*
X127843390Y-109710714D01*
X127843390Y-109710714D02*
X127891009Y-109663095D01*
X127891009Y-109663095D02*
X127986247Y-109615476D01*
X127986247Y-109615476D02*
X128224342Y-109615476D01*
X128224342Y-109615476D02*
X128319580Y-109663095D01*
X128319580Y-109663095D02*
X128367200Y-109710714D01*
X128367200Y-109710714D02*
X128414819Y-109805952D01*
X128414819Y-109805952D02*
X128414819Y-110091666D01*
X128414819Y-110091666D02*
X128367200Y-110186904D01*
X128367200Y-110186904D02*
X128319580Y-110234523D01*
X127414819Y-108710714D02*
X127414819Y-109186904D01*
X127414819Y-109186904D02*
X127891009Y-109234523D01*
X127891009Y-109234523D02*
X127843390Y-109186904D01*
X127843390Y-109186904D02*
X127795771Y-109091666D01*
X127795771Y-109091666D02*
X127795771Y-108853571D01*
X127795771Y-108853571D02*
X127843390Y-108758333D01*
X127843390Y-108758333D02*
X127891009Y-108710714D01*
X127891009Y-108710714D02*
X127986247Y-108663095D01*
X127986247Y-108663095D02*
X128224342Y-108663095D01*
X128224342Y-108663095D02*
X128319580Y-108710714D01*
X128319580Y-108710714D02*
X128367200Y-108758333D01*
X128367200Y-108758333D02*
X128414819Y-108853571D01*
X128414819Y-108853571D02*
X128414819Y-109091666D01*
X128414819Y-109091666D02*
X128367200Y-109186904D01*
X128367200Y-109186904D02*
X128319580Y-109234523D01*
X121404761Y-133050057D02*
X121309523Y-133002438D01*
X121309523Y-133002438D02*
X121214285Y-132907200D01*
X121214285Y-132907200D02*
X121071428Y-132764342D01*
X121071428Y-132764342D02*
X120976190Y-132716723D01*
X120976190Y-132716723D02*
X120880952Y-132716723D01*
X120928571Y-132954819D02*
X120833333Y-132907200D01*
X120833333Y-132907200D02*
X120738095Y-132811961D01*
X120738095Y-132811961D02*
X120690476Y-132621485D01*
X120690476Y-132621485D02*
X120690476Y-132288152D01*
X120690476Y-132288152D02*
X120738095Y-132097676D01*
X120738095Y-132097676D02*
X120833333Y-132002438D01*
X120833333Y-132002438D02*
X120928571Y-131954819D01*
X120928571Y-131954819D02*
X121119047Y-131954819D01*
X121119047Y-131954819D02*
X121214285Y-132002438D01*
X121214285Y-132002438D02*
X121309523Y-132097676D01*
X121309523Y-132097676D02*
X121357142Y-132288152D01*
X121357142Y-132288152D02*
X121357142Y-132621485D01*
X121357142Y-132621485D02*
X121309523Y-132811961D01*
X121309523Y-132811961D02*
X121214285Y-132907200D01*
X121214285Y-132907200D02*
X121119047Y-132954819D01*
X121119047Y-132954819D02*
X120928571Y-132954819D01*
X122309523Y-132954819D02*
X121738095Y-132954819D01*
X122023809Y-132954819D02*
X122023809Y-131954819D01*
X122023809Y-131954819D02*
X121928571Y-132097676D01*
X121928571Y-132097676D02*
X121833333Y-132192914D01*
X121833333Y-132192914D02*
X121738095Y-132240533D01*
X175383333Y-67359580D02*
X175335714Y-67407200D01*
X175335714Y-67407200D02*
X175192857Y-67454819D01*
X175192857Y-67454819D02*
X175097619Y-67454819D01*
X175097619Y-67454819D02*
X174954762Y-67407200D01*
X174954762Y-67407200D02*
X174859524Y-67311961D01*
X174859524Y-67311961D02*
X174811905Y-67216723D01*
X174811905Y-67216723D02*
X174764286Y-67026247D01*
X174764286Y-67026247D02*
X174764286Y-66883390D01*
X174764286Y-66883390D02*
X174811905Y-66692914D01*
X174811905Y-66692914D02*
X174859524Y-66597676D01*
X174859524Y-66597676D02*
X174954762Y-66502438D01*
X174954762Y-66502438D02*
X175097619Y-66454819D01*
X175097619Y-66454819D02*
X175192857Y-66454819D01*
X175192857Y-66454819D02*
X175335714Y-66502438D01*
X175335714Y-66502438D02*
X175383333Y-66550057D01*
X176240476Y-66788152D02*
X176240476Y-67454819D01*
X176002381Y-66407200D02*
X175764286Y-67121485D01*
X175764286Y-67121485D02*
X176383333Y-67121485D01*
X171620833Y-86804819D02*
X171287500Y-86328628D01*
X171049405Y-86804819D02*
X171049405Y-85804819D01*
X171049405Y-85804819D02*
X171430357Y-85804819D01*
X171430357Y-85804819D02*
X171525595Y-85852438D01*
X171525595Y-85852438D02*
X171573214Y-85900057D01*
X171573214Y-85900057D02*
X171620833Y-85995295D01*
X171620833Y-85995295D02*
X171620833Y-86138152D01*
X171620833Y-86138152D02*
X171573214Y-86233390D01*
X171573214Y-86233390D02*
X171525595Y-86281009D01*
X171525595Y-86281009D02*
X171430357Y-86328628D01*
X171430357Y-86328628D02*
X171049405Y-86328628D01*
X172001786Y-85900057D02*
X172049405Y-85852438D01*
X172049405Y-85852438D02*
X172144643Y-85804819D01*
X172144643Y-85804819D02*
X172382738Y-85804819D01*
X172382738Y-85804819D02*
X172477976Y-85852438D01*
X172477976Y-85852438D02*
X172525595Y-85900057D01*
X172525595Y-85900057D02*
X172573214Y-85995295D01*
X172573214Y-85995295D02*
X172573214Y-86090533D01*
X172573214Y-86090533D02*
X172525595Y-86233390D01*
X172525595Y-86233390D02*
X171954167Y-86804819D01*
X171954167Y-86804819D02*
X172573214Y-86804819D01*
X133893333Y-87359580D02*
X133845714Y-87407200D01*
X133845714Y-87407200D02*
X133702857Y-87454819D01*
X133702857Y-87454819D02*
X133607619Y-87454819D01*
X133607619Y-87454819D02*
X133464762Y-87407200D01*
X133464762Y-87407200D02*
X133369524Y-87311961D01*
X133369524Y-87311961D02*
X133321905Y-87216723D01*
X133321905Y-87216723D02*
X133274286Y-87026247D01*
X133274286Y-87026247D02*
X133274286Y-86883390D01*
X133274286Y-86883390D02*
X133321905Y-86692914D01*
X133321905Y-86692914D02*
X133369524Y-86597676D01*
X133369524Y-86597676D02*
X133464762Y-86502438D01*
X133464762Y-86502438D02*
X133607619Y-86454819D01*
X133607619Y-86454819D02*
X133702857Y-86454819D01*
X133702857Y-86454819D02*
X133845714Y-86502438D01*
X133845714Y-86502438D02*
X133893333Y-86550057D01*
X134274286Y-86550057D02*
X134321905Y-86502438D01*
X134321905Y-86502438D02*
X134417143Y-86454819D01*
X134417143Y-86454819D02*
X134655238Y-86454819D01*
X134655238Y-86454819D02*
X134750476Y-86502438D01*
X134750476Y-86502438D02*
X134798095Y-86550057D01*
X134798095Y-86550057D02*
X134845714Y-86645295D01*
X134845714Y-86645295D02*
X134845714Y-86740533D01*
X134845714Y-86740533D02*
X134798095Y-86883390D01*
X134798095Y-86883390D02*
X134226667Y-87454819D01*
X134226667Y-87454819D02*
X134845714Y-87454819D01*
X173666666Y-148454819D02*
X173666666Y-149169104D01*
X173666666Y-149169104D02*
X173619047Y-149311961D01*
X173619047Y-149311961D02*
X173523809Y-149407200D01*
X173523809Y-149407200D02*
X173380952Y-149454819D01*
X173380952Y-149454819D02*
X173285714Y-149454819D01*
X174095238Y-148550057D02*
X174142857Y-148502438D01*
X174142857Y-148502438D02*
X174238095Y-148454819D01*
X174238095Y-148454819D02*
X174476190Y-148454819D01*
X174476190Y-148454819D02*
X174571428Y-148502438D01*
X174571428Y-148502438D02*
X174619047Y-148550057D01*
X174619047Y-148550057D02*
X174666666Y-148645295D01*
X174666666Y-148645295D02*
X174666666Y-148740533D01*
X174666666Y-148740533D02*
X174619047Y-148883390D01*
X174619047Y-148883390D02*
X174047619Y-149454819D01*
X174047619Y-149454819D02*
X174666666Y-149454819D01*
D13*
%TO.C,R45*%
X180735000Y-71522936D02*
X180735000Y-71977064D01*
X179265000Y-71522936D02*
X179265000Y-71977064D01*
%TO.C,R24*%
X174015000Y-71522936D02*
X174015000Y-71977064D01*
X175485000Y-71522936D02*
X175485000Y-71977064D01*
%TO.C,Q7*%
X124325000Y-85130000D02*
X119684000Y-85130000D01*
X124325000Y-85130000D02*
X124325000Y-95370000D01*
X122815000Y-85130000D02*
X122815000Y-95370000D01*
X119684000Y-85130000D02*
X119684000Y-95370000D01*
X124325000Y-88400000D02*
X122815000Y-88400000D01*
X124325000Y-92101000D02*
X122815000Y-92101000D01*
X124325000Y-95370000D02*
X119684000Y-95370000D01*
%TO.C,J16*%
X106510000Y-82500000D02*
X106510000Y-84390000D01*
X102990000Y-82500000D02*
X102990000Y-84390000D01*
X112390000Y-84150000D02*
X109540000Y-84150000D01*
X112150000Y-84390000D02*
X102330000Y-84390000D01*
X102330000Y-84390000D02*
X102330000Y-87490000D01*
X112390000Y-87000000D02*
X112390000Y-84150000D01*
X102330000Y-87490000D02*
X100930000Y-87490000D01*
X100930000Y-87490000D02*
X100930000Y-89300000D01*
X112150000Y-89300000D02*
X112150000Y-84390000D01*
X112150000Y-89300000D02*
X112150000Y-94210000D01*
X102330000Y-91110000D02*
X100930000Y-91110000D01*
X100930000Y-91110000D02*
X100930000Y-89300000D01*
X112150000Y-94210000D02*
X102330000Y-94210000D01*
X102330000Y-94210000D02*
X102330000Y-91110000D01*
X106510000Y-96100000D02*
X106510000Y-94210000D01*
X102990000Y-96100000D02*
X102990000Y-94210000D01*
X102990000Y-82500000D02*
G75*
G02*
X106510000Y-82500000I1760000J0D01*
G01*
X106510000Y-96100000D02*
G75*
G02*
X102990000Y-96100000I-1760000J0D01*
G01*
%TO.C,R43*%
X171590000Y-114589564D02*
X171590000Y-114135436D01*
X173060000Y-114589564D02*
X173060000Y-114135436D01*
%TO.C,R28*%
X145675000Y-84040090D02*
X145675000Y-83585962D01*
X147145000Y-84040090D02*
X147145000Y-83585962D01*
%TO.C,R17*%
X172027064Y-92965000D02*
X171572936Y-92965000D01*
X172027064Y-94435000D02*
X171572936Y-94435000D01*
%TO.C,J8*%
X201640000Y-98050000D02*
X201640000Y-100900000D01*
X201640000Y-100900000D02*
X204490000Y-100900000D01*
X201880000Y-90840000D02*
X211700000Y-90840000D01*
X201880000Y-95750000D02*
X201880000Y-90840000D01*
X201880000Y-95750000D02*
X201880000Y-100660000D01*
X201880000Y-100660000D02*
X211700000Y-100660000D01*
X207520000Y-88950000D02*
X207520000Y-90840000D01*
X207520000Y-102550000D02*
X207520000Y-100660000D01*
X211040000Y-88950000D02*
X211040000Y-90840000D01*
X211040000Y-102550000D02*
X211040000Y-100660000D01*
X211700000Y-90840000D02*
X211700000Y-93940000D01*
X211700000Y-93940000D02*
X213100000Y-93940000D01*
X211700000Y-97560000D02*
X213100000Y-97560000D01*
X211700000Y-100660000D02*
X211700000Y-97560000D01*
X213100000Y-93940000D02*
X213100000Y-95750000D01*
X213100000Y-97560000D02*
X213100000Y-95750000D01*
X207520000Y-88950000D02*
G75*
G02*
X211040000Y-88950000I1760000J0D01*
G01*
X211040000Y-102550000D02*
G75*
G02*
X207520000Y-102550000I-1760000J0D01*
G01*
%TO.C,R20*%
X175589564Y-86965000D02*
X175135436Y-86965000D01*
X175589564Y-88435000D02*
X175135436Y-88435000D01*
%TO.C,R12*%
X175739564Y-99165000D02*
X175285436Y-99165000D01*
X175739564Y-100635000D02*
X175285436Y-100635000D01*
%TO.C,R10*%
X175727064Y-102315000D02*
X175272936Y-102315000D01*
X175727064Y-103785000D02*
X175272936Y-103785000D01*
%TO.C,U3*%
X139845000Y-80238026D02*
X139845000Y-78288026D01*
X139845000Y-80238026D02*
X139845000Y-82188026D01*
X144965000Y-80238026D02*
X144965000Y-78288026D01*
X144965000Y-80238026D02*
X144965000Y-82188026D01*
X139940000Y-82938026D02*
X139610000Y-83178026D01*
X139610000Y-82698026D01*
X139940000Y-82938026D01*
G36*
X139940000Y-82938026D02*
G01*
X139610000Y-83178026D01*
X139610000Y-82698026D01*
X139940000Y-82938026D01*
G37*
%TO.C,R38*%
X117735000Y-89482936D02*
X117735000Y-89937064D01*
X116265000Y-89482936D02*
X116265000Y-89937064D01*
%TO.C,D2*%
X114345000Y-103412500D02*
X114345000Y-108922500D01*
X117645000Y-103412500D02*
X114345000Y-103412500D01*
X117645000Y-103412500D02*
X117645000Y-108922500D01*
%TO.C,R5*%
X117265000Y-141227064D02*
X117265000Y-140772936D01*
X118735000Y-141227064D02*
X118735000Y-140772936D01*
%TO.C,Q2*%
X119644000Y-117680000D02*
X119644000Y-127920000D01*
X122775000Y-117680000D02*
X122775000Y-127920000D01*
X124285000Y-117680000D02*
X119644000Y-117680000D01*
X124285000Y-117680000D02*
X124285000Y-127920000D01*
X124285000Y-120950000D02*
X122775000Y-120950000D01*
X124285000Y-124651000D02*
X122775000Y-124651000D01*
X124285000Y-127920000D02*
X119644000Y-127920000D01*
%TO.C,R30*%
X129575000Y-77885962D02*
X129575000Y-78340090D01*
X131045000Y-77885962D02*
X131045000Y-78340090D01*
%TO.C,J10*%
X136300000Y-140530000D02*
X138190000Y-140530000D01*
X136300000Y-144050000D02*
X138190000Y-144050000D01*
X137950000Y-134650000D02*
X137950000Y-137500000D01*
X138190000Y-134890000D02*
X138190000Y-144710000D01*
X138190000Y-144710000D02*
X139190000Y-144710000D01*
X139190000Y-144710000D02*
X139190000Y-146110000D01*
X139190000Y-146110000D02*
X141000000Y-146110000D01*
X140800000Y-134650000D02*
X137950000Y-134650000D01*
X141000000Y-134890000D02*
X138190000Y-134890000D01*
X141000000Y-134890000D02*
X143810000Y-134890000D01*
X142810000Y-144710000D02*
X142810000Y-146110000D01*
X142810000Y-146110000D02*
X141000000Y-146110000D01*
X143810000Y-134890000D02*
X143810000Y-144710000D01*
X143810000Y-144710000D02*
X142810000Y-144710000D01*
X145700000Y-140530000D02*
X143810000Y-140530000D01*
X145700000Y-144050000D02*
X143810000Y-144050000D01*
X136300000Y-144050000D02*
G75*
G02*
X136300000Y-140530000I0J1760000D01*
G01*
X145700000Y-140530000D02*
G75*
G02*
X145700000Y-144050000I0J-1760000D01*
G01*
%TO.C,C8*%
X140110000Y-131688748D02*
X140110000Y-132211252D01*
X138640000Y-131688748D02*
X138640000Y-132211252D01*
%TO.C,R40*%
X126985000Y-89570436D02*
X126985000Y-90024564D01*
X125515000Y-89570436D02*
X125515000Y-90024564D01*
%TO.C,J12*%
X100930000Y-104940000D02*
X100930000Y-106750000D01*
X100930000Y-108560000D02*
X100930000Y-106750000D01*
X102330000Y-103940000D02*
X102330000Y-104940000D01*
X102330000Y-104940000D02*
X100930000Y-104940000D01*
X102330000Y-108560000D02*
X100930000Y-108560000D01*
X102330000Y-109560000D02*
X102330000Y-108560000D01*
X102990000Y-102050000D02*
X102990000Y-103940000D01*
X102990000Y-111450000D02*
X102990000Y-109560000D01*
X106510000Y-102050000D02*
X106510000Y-103940000D01*
X106510000Y-111450000D02*
X106510000Y-109560000D01*
X112150000Y-103940000D02*
X102330000Y-103940000D01*
X112150000Y-106750000D02*
X112150000Y-103940000D01*
X112150000Y-106750000D02*
X112150000Y-109560000D01*
X112150000Y-109560000D02*
X102330000Y-109560000D01*
X112390000Y-103700000D02*
X109540000Y-103700000D01*
X112390000Y-106550000D02*
X112390000Y-103700000D01*
X102990000Y-102050000D02*
G75*
G02*
X106510000Y-102050000I1760000J0D01*
G01*
X106510000Y-111450000D02*
G75*
G02*
X102990000Y-111450000I-1760000J0D01*
G01*
%TO.C,J14*%
X201690000Y-137060000D02*
X201690000Y-139910000D01*
X201690000Y-139910000D02*
X204540000Y-139910000D01*
X201930000Y-129850000D02*
X211750000Y-129850000D01*
X201930000Y-134760000D02*
X201930000Y-129850000D01*
X201930000Y-134760000D02*
X201930000Y-139670000D01*
X201930000Y-139670000D02*
X211750000Y-139670000D01*
X207570000Y-127960000D02*
X207570000Y-129850000D01*
X207570000Y-141560000D02*
X207570000Y-139670000D01*
X211090000Y-127960000D02*
X211090000Y-129850000D01*
X211090000Y-141560000D02*
X211090000Y-139670000D01*
X211750000Y-129850000D02*
X211750000Y-132950000D01*
X211750000Y-132950000D02*
X213150000Y-132950000D01*
X211750000Y-136570000D02*
X213150000Y-136570000D01*
X211750000Y-139670000D02*
X211750000Y-136570000D01*
X213150000Y-132950000D02*
X213150000Y-134760000D01*
X213150000Y-136570000D02*
X213150000Y-134760000D01*
X207570000Y-127960000D02*
G75*
G02*
X211090000Y-127960000I1760000J0D01*
G01*
X211090000Y-141560000D02*
G75*
G02*
X207570000Y-141560000I-1760000J0D01*
G01*
%TO.C,R27*%
X138137064Y-84278026D02*
X137682936Y-84278026D01*
X138137064Y-85748026D02*
X137682936Y-85748026D01*
%TO.C,J18*%
X201700000Y-117600000D02*
X201700000Y-120450000D01*
X201700000Y-120450000D02*
X204550000Y-120450000D01*
X201940000Y-110390000D02*
X211760000Y-110390000D01*
X201940000Y-115300000D02*
X201940000Y-110390000D01*
X201940000Y-115300000D02*
X201940000Y-120210000D01*
X201940000Y-120210000D02*
X211760000Y-120210000D01*
X207580000Y-108500000D02*
X207580000Y-110390000D01*
X207580000Y-122100000D02*
X207580000Y-120210000D01*
X211100000Y-108500000D02*
X211100000Y-110390000D01*
X211100000Y-122100000D02*
X211100000Y-120210000D01*
X211760000Y-110390000D02*
X211760000Y-113490000D01*
X211760000Y-113490000D02*
X213160000Y-113490000D01*
X211760000Y-117110000D02*
X213160000Y-117110000D01*
X211760000Y-120210000D02*
X211760000Y-117110000D01*
X213160000Y-113490000D02*
X213160000Y-115300000D01*
X213160000Y-117110000D02*
X213160000Y-115300000D01*
X207580000Y-108500000D02*
G75*
G02*
X211100000Y-108500000I1760000J0D01*
G01*
X211100000Y-122100000D02*
G75*
G02*
X207580000Y-122100000I-1760000J0D01*
G01*
%TO.C,R16*%
X175639564Y-92965000D02*
X175185436Y-92965000D01*
X175639564Y-94435000D02*
X175185436Y-94435000D01*
%TO.C,D1*%
X114405000Y-119112500D02*
X114405000Y-124622500D01*
X117705000Y-119112500D02*
X114405000Y-119112500D01*
X117705000Y-119112500D02*
X117705000Y-124622500D01*
%TO.C,R29*%
X145475000Y-77985962D02*
X145475000Y-78440090D01*
X146945000Y-77985962D02*
X146945000Y-78440090D01*
%TO.C,R7*%
X172039564Y-105815000D02*
X171585436Y-105815000D01*
X172039564Y-107285000D02*
X171585436Y-107285000D01*
%TO.C,J13*%
X100890000Y-69890000D02*
X100890000Y-71700000D01*
X100890000Y-73510000D02*
X100890000Y-71700000D01*
X102290000Y-68890000D02*
X102290000Y-69890000D01*
X102290000Y-69890000D02*
X100890000Y-69890000D01*
X102290000Y-73510000D02*
X100890000Y-73510000D01*
X102290000Y-74510000D02*
X102290000Y-73510000D01*
X102950000Y-67000000D02*
X102950000Y-68890000D01*
X102950000Y-76400000D02*
X102950000Y-74510000D01*
X106470000Y-67000000D02*
X106470000Y-68890000D01*
X106470000Y-76400000D02*
X106470000Y-74510000D01*
X112110000Y-68890000D02*
X102290000Y-68890000D01*
X112110000Y-71700000D02*
X112110000Y-68890000D01*
X112110000Y-71700000D02*
X112110000Y-74510000D01*
X112110000Y-74510000D02*
X102290000Y-74510000D01*
X112350000Y-68650000D02*
X109500000Y-68650000D01*
X112350000Y-71500000D02*
X112350000Y-68650000D01*
X102950000Y-67000000D02*
G75*
G02*
X106470000Y-67000000I1760000J0D01*
G01*
X106470000Y-76400000D02*
G75*
G02*
X102950000Y-76400000I-1760000J0D01*
G01*
%TO.C,R3*%
X140270436Y-74278026D02*
X140724564Y-74278026D01*
X140270436Y-75748026D02*
X140724564Y-75748026D01*
%TO.C,C7*%
X140638748Y-122490000D02*
X141161252Y-122490000D01*
X140638748Y-123960000D02*
X141161252Y-123960000D01*
%TO.C,C9*%
X143360000Y-131688748D02*
X143360000Y-132211252D01*
X141890000Y-131688748D02*
X141890000Y-132211252D01*
%TO.C,R14*%
X175627064Y-96115000D02*
X175172936Y-96115000D01*
X175627064Y-97585000D02*
X175172936Y-97585000D01*
%TO.C,R32*%
X138137064Y-86278026D02*
X137682936Y-86278026D01*
X138137064Y-87748026D02*
X137682936Y-87748026D01*
%TO.C,R11*%
X172027064Y-102315000D02*
X171572936Y-102315000D01*
X172027064Y-103785000D02*
X171572936Y-103785000D01*
%TO.C,C6*%
X135045000Y-72374278D02*
X135045000Y-71851774D01*
X133575000Y-72374278D02*
X133575000Y-71851774D01*
%TO.C,R36*%
X125420000Y-104862936D02*
X125420000Y-105317064D01*
X126890000Y-104862936D02*
X126890000Y-105317064D01*
%TO.C,R25*%
X144182936Y-74278026D02*
X144637064Y-74278026D01*
X144182936Y-75748026D02*
X144637064Y-75748026D01*
D14*
%TO.C,U1*%
X148803000Y-73706500D02*
X148803000Y-134793500D01*
X148803000Y-134793500D02*
X166837000Y-134793500D01*
X166837000Y-73706500D02*
X148803000Y-73706500D01*
X166837000Y-134793500D02*
X166837000Y-73706500D01*
D13*
%TO.C,J11*%
X100930000Y-120690000D02*
X100930000Y-122500000D01*
X100930000Y-124310000D02*
X100930000Y-122500000D01*
X102330000Y-119690000D02*
X102330000Y-120690000D01*
X102330000Y-120690000D02*
X100930000Y-120690000D01*
X102330000Y-124310000D02*
X100930000Y-124310000D01*
X102330000Y-125310000D02*
X102330000Y-124310000D01*
X102990000Y-117800000D02*
X102990000Y-119690000D01*
X102990000Y-127200000D02*
X102990000Y-125310000D01*
X106510000Y-117800000D02*
X106510000Y-119690000D01*
X106510000Y-127200000D02*
X106510000Y-125310000D01*
X112150000Y-119690000D02*
X102330000Y-119690000D01*
X112150000Y-122500000D02*
X112150000Y-119690000D01*
X112150000Y-122500000D02*
X112150000Y-125310000D01*
X112150000Y-125310000D02*
X102330000Y-125310000D01*
X112390000Y-119450000D02*
X109540000Y-119450000D01*
X112390000Y-122300000D02*
X112390000Y-119450000D01*
X102990000Y-117800000D02*
G75*
G02*
X106510000Y-117800000I1760000J0D01*
G01*
X106510000Y-127200000D02*
G75*
G02*
X102990000Y-127200000I-1760000J0D01*
G01*
%TO.C,C5*%
X141575000Y-72274278D02*
X141575000Y-71751774D01*
X143045000Y-72274278D02*
X143045000Y-71751774D01*
%TO.C,R33*%
X125425000Y-120692936D02*
X125425000Y-121147064D01*
X126895000Y-120692936D02*
X126895000Y-121147064D01*
%TO.C,R41*%
X174205000Y-110652936D02*
X174205000Y-111107064D01*
X175675000Y-110652936D02*
X175675000Y-111107064D01*
%TO.C,J4*%
X185150000Y-98000000D02*
X185150000Y-100850000D01*
X185150000Y-100850000D02*
X188000000Y-100850000D01*
X185390000Y-90790000D02*
X195210000Y-90790000D01*
X185390000Y-95700000D02*
X185390000Y-90790000D01*
X185390000Y-95700000D02*
X185390000Y-100610000D01*
X185390000Y-100610000D02*
X195210000Y-100610000D01*
X191030000Y-88900000D02*
X191030000Y-90790000D01*
X191030000Y-102500000D02*
X191030000Y-100610000D01*
X194550000Y-88900000D02*
X194550000Y-90790000D01*
X194550000Y-102500000D02*
X194550000Y-100610000D01*
X195210000Y-90790000D02*
X195210000Y-93890000D01*
X195210000Y-93890000D02*
X196610000Y-93890000D01*
X195210000Y-97510000D02*
X196610000Y-97510000D01*
X195210000Y-100610000D02*
X195210000Y-97510000D01*
X196610000Y-93890000D02*
X196610000Y-95700000D01*
X196610000Y-97510000D02*
X196610000Y-95700000D01*
X191030000Y-88900000D02*
G75*
G02*
X194550000Y-88900000I1760000J0D01*
G01*
X194550000Y-102500000D02*
G75*
G02*
X191030000Y-102500000I-1760000J0D01*
G01*
%TO.C,U5*%
X173730000Y-74262500D02*
X173730000Y-74532500D01*
X173730000Y-81162500D02*
X173730000Y-80892500D01*
X180150000Y-74262500D02*
X173730000Y-74262500D01*
X180150000Y-81162500D02*
X173730000Y-81162500D01*
X172315000Y-74552500D02*
X172075000Y-74222500D01*
X172555000Y-74222500D01*
X172315000Y-74552500D01*
G36*
X172315000Y-74552500D02*
G01*
X172075000Y-74222500D01*
X172555000Y-74222500D01*
X172315000Y-74552500D01*
G37*
%TO.C,R21*%
X172014564Y-86965000D02*
X171560436Y-86965000D01*
X172014564Y-88435000D02*
X171560436Y-88435000D01*
%TO.C,R42*%
X171575000Y-110612936D02*
X171575000Y-111067064D01*
X173045000Y-110612936D02*
X173045000Y-111067064D01*
%TO.C,J1*%
X106510000Y-133500000D02*
X106510000Y-135390000D01*
X102990000Y-133500000D02*
X102990000Y-135390000D01*
X112390000Y-135150000D02*
X109540000Y-135150000D01*
X112150000Y-135390000D02*
X102330000Y-135390000D01*
X102330000Y-135390000D02*
X102330000Y-136390000D01*
X102330000Y-136390000D02*
X100930000Y-136390000D01*
X100930000Y-136390000D02*
X100930000Y-138200000D01*
X112390000Y-138000000D02*
X112390000Y-135150000D01*
X112150000Y-138200000D02*
X112150000Y-135390000D01*
X112150000Y-138200000D02*
X112150000Y-141010000D01*
X102330000Y-140010000D02*
X100930000Y-140010000D01*
X100930000Y-140010000D02*
X100930000Y-138200000D01*
X112150000Y-141010000D02*
X102330000Y-141010000D01*
X102330000Y-141010000D02*
X102330000Y-140010000D01*
X106510000Y-142900000D02*
X106510000Y-141010000D01*
X102990000Y-142900000D02*
X102990000Y-141010000D01*
X102990000Y-133500000D02*
G75*
G02*
X106510000Y-133500000I1760000J0D01*
G01*
X106510000Y-142900000D02*
G75*
G02*
X102990000Y-142900000I-1760000J0D01*
G01*
%TO.C,R31*%
X130275000Y-86340090D02*
X130275000Y-85885962D01*
X131745000Y-86340090D02*
X131745000Y-85885962D01*
%TO.C,R13*%
X172027064Y-99165000D02*
X171572936Y-99165000D01*
X172027064Y-100635000D02*
X171572936Y-100635000D01*
%TO.C,R44*%
X174190000Y-114627064D02*
X174190000Y-114172936D01*
X175660000Y-114627064D02*
X175660000Y-114172936D01*
%TO.C,R34*%
X125440000Y-124442936D02*
X125440000Y-124897064D01*
X126910000Y-124442936D02*
X126910000Y-124897064D01*
%TO.C,C3*%
X175842502Y-64765000D02*
X175319998Y-64765000D01*
X175842502Y-66235000D02*
X175319998Y-66235000D01*
%TO.C,R4*%
X132207936Y-74278026D02*
X132662064Y-74278026D01*
X132207936Y-75748026D02*
X132662064Y-75748026D01*
%TO.C,R26*%
X135995436Y-74278026D02*
X136449564Y-74278026D01*
X135995436Y-75748026D02*
X136449564Y-75748026D01*
%TO.C,R18*%
X175627064Y-89915000D02*
X175172936Y-89915000D01*
X175627064Y-91385000D02*
X175172936Y-91385000D01*
%TO.C,R22*%
X117265000Y-137227064D02*
X117265000Y-136772936D01*
X118735000Y-137227064D02*
X118735000Y-136772936D01*
%TO.C,Q3*%
X119589000Y-101970000D02*
X119589000Y-112210000D01*
X122720000Y-101970000D02*
X122720000Y-112210000D01*
X124230000Y-101970000D02*
X119589000Y-101970000D01*
X124230000Y-101970000D02*
X124230000Y-112210000D01*
X124230000Y-105240000D02*
X122720000Y-105240000D01*
X124230000Y-108941000D02*
X122720000Y-108941000D01*
X124230000Y-112210000D02*
X119589000Y-112210000D01*
%TO.C,R8*%
X179608314Y-64765000D02*
X179154186Y-64765000D01*
X179608314Y-66235000D02*
X179154186Y-66235000D01*
%TO.C,J5*%
X185160000Y-137170000D02*
X185160000Y-140020000D01*
X185160000Y-140020000D02*
X188010000Y-140020000D01*
X185400000Y-129960000D02*
X195220000Y-129960000D01*
X185400000Y-134870000D02*
X185400000Y-129960000D01*
X185400000Y-134870000D02*
X185400000Y-139780000D01*
X185400000Y-139780000D02*
X195220000Y-139780000D01*
X191040000Y-128070000D02*
X191040000Y-129960000D01*
X191040000Y-141670000D02*
X191040000Y-139780000D01*
X194560000Y-128070000D02*
X194560000Y-129960000D01*
X194560000Y-141670000D02*
X194560000Y-139780000D01*
X195220000Y-129960000D02*
X195220000Y-133060000D01*
X195220000Y-133060000D02*
X196620000Y-133060000D01*
X195220000Y-136680000D02*
X196620000Y-136680000D01*
X195220000Y-139780000D02*
X195220000Y-136680000D01*
X196620000Y-133060000D02*
X196620000Y-134870000D01*
X196620000Y-136680000D02*
X196620000Y-134870000D01*
X191040000Y-128070000D02*
G75*
G02*
X194560000Y-128070000I1760000J0D01*
G01*
X194560000Y-141670000D02*
G75*
G02*
X191040000Y-141670000I-1760000J0D01*
G01*
%TO.C,J17*%
X194540000Y-122040000D02*
G75*
G02*
X191020000Y-122040000I-1760000J0D01*
G01*
X191020000Y-108440000D02*
G75*
G02*
X194540000Y-108440000I1760000J0D01*
G01*
X196600000Y-117050000D02*
X196600000Y-115240000D01*
X196600000Y-113430000D02*
X196600000Y-115240000D01*
X195200000Y-120150000D02*
X195200000Y-117050000D01*
X195200000Y-117050000D02*
X196600000Y-117050000D01*
X195200000Y-113430000D02*
X196600000Y-113430000D01*
X195200000Y-110330000D02*
X195200000Y-113430000D01*
X194540000Y-122040000D02*
X194540000Y-120150000D01*
X194540000Y-108440000D02*
X194540000Y-110330000D01*
X191020000Y-122040000D02*
X191020000Y-120150000D01*
X191020000Y-108440000D02*
X191020000Y-110330000D01*
X185380000Y-120150000D02*
X195200000Y-120150000D01*
X185380000Y-115240000D02*
X185380000Y-120150000D01*
X185380000Y-115240000D02*
X185380000Y-110330000D01*
X185380000Y-110330000D02*
X195200000Y-110330000D01*
X185140000Y-120390000D02*
X187990000Y-120390000D01*
X185140000Y-117540000D02*
X185140000Y-120390000D01*
%TO.C,U4*%
X131845000Y-80188026D02*
X131845000Y-78238026D01*
X131845000Y-80188026D02*
X131845000Y-82138026D01*
X136965000Y-80188026D02*
X136965000Y-78238026D01*
X136965000Y-80188026D02*
X136965000Y-82138026D01*
X131940000Y-82888026D02*
X131610000Y-83128026D01*
X131610000Y-82648026D01*
X131940000Y-82888026D01*
G36*
X131940000Y-82888026D02*
G01*
X131610000Y-83128026D01*
X131610000Y-82648026D01*
X131940000Y-82888026D01*
G37*
%TO.C,J7*%
X184300000Y-60200000D02*
X186190000Y-60200000D01*
X184300000Y-63720000D02*
X186190000Y-63720000D01*
X186190000Y-59540000D02*
X187190000Y-59540000D01*
X186190000Y-69360000D02*
X186190000Y-59540000D01*
X187190000Y-58140000D02*
X189000000Y-58140000D01*
X187190000Y-59540000D02*
X187190000Y-58140000D01*
X189000000Y-69360000D02*
X186190000Y-69360000D01*
X189000000Y-69360000D02*
X191810000Y-69360000D01*
X189200000Y-69600000D02*
X192050000Y-69600000D01*
X190810000Y-58140000D02*
X189000000Y-58140000D01*
X190810000Y-59540000D02*
X190810000Y-58140000D01*
X191810000Y-59540000D02*
X190810000Y-59540000D01*
X191810000Y-69360000D02*
X191810000Y-59540000D01*
X192050000Y-69600000D02*
X192050000Y-66750000D01*
X193700000Y-60200000D02*
X191810000Y-60200000D01*
X193700000Y-63720000D02*
X191810000Y-63720000D01*
X184300000Y-63720000D02*
G75*
G02*
X184300000Y-60200000I0J1760000D01*
G01*
X193700000Y-60200000D02*
G75*
G02*
X193700000Y-63720000I0J-1760000D01*
G01*
%TO.C,U2*%
X139390000Y-125250000D02*
X139390000Y-128250000D01*
X142560000Y-128310000D02*
X142410000Y-128310000D01*
X142610000Y-125250000D02*
X142610000Y-128250000D01*
X142820000Y-124690000D02*
X142340000Y-124690000D01*
X142340000Y-124210000D01*
X142820000Y-124690000D01*
G36*
X142820000Y-124690000D02*
G01*
X142340000Y-124690000D01*
X142340000Y-124210000D01*
X142820000Y-124690000D01*
G37*
%TO.C,R15*%
X172014564Y-96115000D02*
X171560436Y-96115000D01*
X172014564Y-97585000D02*
X171560436Y-97585000D01*
%TO.C,R6*%
X175752064Y-105815000D02*
X175297936Y-105815000D01*
X175752064Y-107285000D02*
X175297936Y-107285000D01*
%TO.C,J6*%
X201650000Y-77700000D02*
X201650000Y-80550000D01*
X201650000Y-80550000D02*
X204500000Y-80550000D01*
X201890000Y-74690000D02*
X211710000Y-74690000D01*
X201890000Y-77500000D02*
X201890000Y-74690000D01*
X201890000Y-77500000D02*
X201890000Y-80310000D01*
X201890000Y-80310000D02*
X211710000Y-80310000D01*
X207530000Y-72800000D02*
X207530000Y-74690000D01*
X207530000Y-82200000D02*
X207530000Y-80310000D01*
X211050000Y-72800000D02*
X211050000Y-74690000D01*
X211050000Y-82200000D02*
X211050000Y-80310000D01*
X211710000Y-74690000D02*
X211710000Y-75690000D01*
X211710000Y-75690000D02*
X213110000Y-75690000D01*
X211710000Y-79310000D02*
X213110000Y-79310000D01*
X211710000Y-80310000D02*
X211710000Y-79310000D01*
X213110000Y-75690000D02*
X213110000Y-77500000D01*
X213110000Y-79310000D02*
X213110000Y-77500000D01*
X207530000Y-72800000D02*
G75*
G02*
X211050000Y-72800000I1760000J0D01*
G01*
X211050000Y-82200000D02*
G75*
G02*
X207530000Y-82200000I-1760000J0D01*
G01*
%TO.C,C1*%
X142321252Y-84778026D02*
X141798748Y-84778026D01*
X142321252Y-86248026D02*
X141798748Y-86248026D01*
%TO.C,C10*%
X136513748Y-125815000D02*
X137036252Y-125815000D01*
X136513748Y-127285000D02*
X137036252Y-127285000D01*
%TO.C,R19*%
X172014564Y-89915000D02*
X171560436Y-89915000D01*
X172014564Y-91385000D02*
X171560436Y-91385000D01*
%TO.C,J9*%
X161550000Y-60200000D02*
X163440000Y-60200000D01*
X161550000Y-63720000D02*
X163440000Y-63720000D01*
X163440000Y-59540000D02*
X164440000Y-59540000D01*
X163440000Y-69360000D02*
X163440000Y-59540000D01*
X164440000Y-58140000D02*
X166250000Y-58140000D01*
X164440000Y-59540000D02*
X164440000Y-58140000D01*
X166250000Y-69360000D02*
X163440000Y-69360000D01*
X166250000Y-69360000D02*
X169060000Y-69360000D01*
X166450000Y-69600000D02*
X169300000Y-69600000D01*
X168060000Y-58140000D02*
X166250000Y-58140000D01*
X168060000Y-59540000D02*
X168060000Y-58140000D01*
X169060000Y-59540000D02*
X168060000Y-59540000D01*
X169060000Y-69360000D02*
X169060000Y-59540000D01*
X169300000Y-69600000D02*
X169300000Y-66750000D01*
X170950000Y-60200000D02*
X169060000Y-60200000D01*
X170950000Y-63720000D02*
X169060000Y-63720000D01*
X161550000Y-63720000D02*
G75*
G02*
X161550000Y-60200000I0J1760000D01*
G01*
X170950000Y-60200000D02*
G75*
G02*
X170950000Y-63720000I0J-1760000D01*
G01*
%TO.C,R1*%
X175614564Y-83965000D02*
X175160436Y-83965000D01*
X175614564Y-85435000D02*
X175160436Y-85435000D01*
%TO.C,R23*%
X136977064Y-123985000D02*
X136522936Y-123985000D01*
X136977064Y-122515000D02*
X136522936Y-122515000D01*
%TO.C,J3*%
X143300000Y-59950000D02*
X145190000Y-59950000D01*
X143300000Y-63470000D02*
X145190000Y-63470000D01*
X145190000Y-59290000D02*
X146190000Y-59290000D01*
X145190000Y-69110000D02*
X145190000Y-59290000D01*
X146190000Y-57890000D02*
X148000000Y-57890000D01*
X146190000Y-59290000D02*
X146190000Y-57890000D01*
X148000000Y-69110000D02*
X145190000Y-69110000D01*
X148000000Y-69110000D02*
X150810000Y-69110000D01*
X148200000Y-69350000D02*
X151050000Y-69350000D01*
X149810000Y-57890000D02*
X148000000Y-57890000D01*
X149810000Y-59290000D02*
X149810000Y-57890000D01*
X150810000Y-59290000D02*
X149810000Y-59290000D01*
X150810000Y-69110000D02*
X150810000Y-59290000D01*
X151050000Y-69350000D02*
X151050000Y-66500000D01*
X152700000Y-59950000D02*
X150810000Y-59950000D01*
X152700000Y-63470000D02*
X150810000Y-63470000D01*
X143300000Y-63470000D02*
G75*
G02*
X143300000Y-59950000I0J1760000D01*
G01*
X152700000Y-59950000D02*
G75*
G02*
X152700000Y-63470000I0J-1760000D01*
G01*
%TO.C,R9*%
X179608314Y-67765000D02*
X179154186Y-67765000D01*
X179608314Y-69235000D02*
X179154186Y-69235000D01*
%TO.C,R35*%
X125420000Y-108862936D02*
X125420000Y-109317064D01*
X126890000Y-108862936D02*
X126890000Y-109317064D01*
%TO.C,Q1*%
X119729000Y-133320000D02*
X119729000Y-143560000D01*
X122860000Y-133320000D02*
X122860000Y-143560000D01*
X124370000Y-133320000D02*
X119729000Y-133320000D01*
X124370000Y-133320000D02*
X124370000Y-143560000D01*
X124370000Y-136590000D02*
X122860000Y-136590000D01*
X124370000Y-140291000D02*
X122860000Y-140291000D01*
X124370000Y-143560000D02*
X119729000Y-143560000D01*
%TO.C,C4*%
X175842502Y-67765000D02*
X175319998Y-67765000D01*
X175842502Y-69235000D02*
X175319998Y-69235000D01*
%TO.C,R2*%
X172014564Y-83965000D02*
X171560436Y-83965000D01*
X172014564Y-85435000D02*
X171560436Y-85435000D01*
%TO.C,C2*%
X134321252Y-84678026D02*
X133798748Y-84678026D01*
X134321252Y-86148026D02*
X133798748Y-86148026D01*
%TO.C,J2*%
X169280000Y-140600000D02*
X171170000Y-140600000D01*
X169280000Y-144120000D02*
X171170000Y-144120000D01*
X170930000Y-134720000D02*
X170930000Y-137570000D01*
X171170000Y-134960000D02*
X171170000Y-144780000D01*
X171170000Y-144780000D02*
X172170000Y-144780000D01*
X172170000Y-144780000D02*
X172170000Y-146180000D01*
X172170000Y-146180000D02*
X173980000Y-146180000D01*
X173780000Y-134720000D02*
X170930000Y-134720000D01*
X173980000Y-134960000D02*
X171170000Y-134960000D01*
X173980000Y-134960000D02*
X176790000Y-134960000D01*
X175790000Y-144780000D02*
X175790000Y-146180000D01*
X175790000Y-146180000D02*
X173980000Y-146180000D01*
X176790000Y-134960000D02*
X176790000Y-144780000D01*
X176790000Y-144780000D02*
X175790000Y-144780000D01*
X178680000Y-140600000D02*
X176790000Y-140600000D01*
X178680000Y-144120000D02*
X176790000Y-144120000D01*
X169280000Y-144120000D02*
G75*
G02*
X169280000Y-140600000I0J1760000D01*
G01*
X178680000Y-140600000D02*
G75*
G02*
X178680000Y-144120000I0J-1760000D01*
G01*
%TD*%
M02*
