ISO-10303-21;
HEADER;
/* Generated by software containing ST-Developer
 * from STEP Tools, Inc. (www.steptools.com) 
 */

FILE_DESCRIPTION(
/* description */ (''),
/* implementation_level */ '2;1');

FILE_NAME(
/* name */ 'Untitled.step',
/* time_stamp */ '2026-05-05T13:11:18-07:00',
/* author */ (''),
/* organization */ (''),
/* preprocessor_version */ 'ST-DEVELOPER v20.1',
/* originating_system */ 'Autodesk Translation Framework v15.8.0.0',
/* authorisation */ '');

FILE_SCHEMA (('AUTOMOTIVE_DESIGN { 1 0 10303 214 3 1 1 }'));
ENDSEC;

DATA;
#10=MECHANICAL_DESIGN_GEOMETRIC_PRESENTATION_REPRESENTATION('',(#13,#14,
#15,#16,#17,#18,#19),#1214);
#11=SHAPE_REPRESENTATION_RELATIONSHIP('SRR','None',#1221,#12);
#12=ADVANCED_BREP_SHAPE_REPRESENTATION('',(#20,#21,#22,#23,#24,#25,#26),
#1213);
#13=STYLED_ITEM('',(#1230),#20);
#14=STYLED_ITEM('',(#1230),#21);
#15=STYLED_ITEM('',(#1230),#22);
#16=STYLED_ITEM('',(#1230),#23);
#17=STYLED_ITEM('',(#1230),#24);
#18=STYLED_ITEM('',(#1230),#25);
#19=STYLED_ITEM('',(#1230),#26);
#20=MANIFOLD_SOLID_BREP('Body1',#684);
#21=MANIFOLD_SOLID_BREP('Body2',#685);
#22=MANIFOLD_SOLID_BREP('Body8',#686);
#23=MANIFOLD_SOLID_BREP('Body9',#687);
#24=MANIFOLD_SOLID_BREP('Body10',#688);
#25=MANIFOLD_SOLID_BREP('Body11',#689);
#26=MANIFOLD_SOLID_BREP('Body12',#690);
#27=FACE_BOUND('',#138,.T.);
#28=FACE_BOUND('',#139,.T.);
#29=FACE_BOUND('',#142,.T.);
#30=FACE_BOUND('',#145,.T.);
#31=FACE_BOUND('',#146,.T.);
#32=FACE_BOUND('',#147,.T.);
#33=FACE_BOUND('',#150,.T.);
#34=FACE_BOUND('',#153,.T.);
#35=FACE_BOUND('',#155,.T.);
#36=FACE_BOUND('',#162,.T.);
#37=FACE_BOUND('',#165,.T.);
#38=FACE_BOUND('',#167,.T.);
#39=FACE_BOUND('',#168,.T.);
#40=FACE_BOUND('',#176,.T.);
#41=FACE_BOUND('',#177,.T.);
#42=PLANE('',#707);
#43=PLANE('',#711);
#44=PLANE('',#715);
#45=PLANE('',#719);
#46=PLANE('',#723);
#47=PLANE('',#727);
#48=PLANE('',#731);
#49=PLANE('',#735);
#50=PLANE('',#739);
#51=PLANE('',#743);
#52=PLANE('',#744);
#53=PLANE('',#745);
#54=PLANE('',#749);
#55=PLANE('',#750);
#56=PLANE('',#754);
#57=PLANE('',#759);
#58=PLANE('',#761);
#59=PLANE('',#766);
#60=PLANE('',#767);
#61=PLANE('',#768);
#62=PLANE('',#769);
#63=PLANE('',#770);
#64=PLANE('',#774);
#65=PLANE('',#775);
#66=PLANE('',#779);
#67=PLANE('',#780);
#68=PLANE('',#784);
#69=PLANE('',#785);
#70=PLANE('',#789);
#71=PLANE('',#790);
#72=PLANE('',#794);
#73=PLANE('',#795);
#74=FACE_OUTER_BOUND('',#126,.T.);
#75=FACE_OUTER_BOUND('',#127,.T.);
#76=FACE_OUTER_BOUND('',#128,.T.);
#77=FACE_OUTER_BOUND('',#129,.T.);
#78=FACE_OUTER_BOUND('',#130,.T.);
#79=FACE_OUTER_BOUND('',#131,.T.);
#80=FACE_OUTER_BOUND('',#132,.T.);
#81=FACE_OUTER_BOUND('',#133,.T.);
#82=FACE_OUTER_BOUND('',#134,.T.);
#83=FACE_OUTER_BOUND('',#135,.T.);
#84=FACE_OUTER_BOUND('',#136,.T.);
#85=FACE_OUTER_BOUND('',#137,.T.);
#86=FACE_OUTER_BOUND('',#140,.T.);
#87=FACE_OUTER_BOUND('',#141,.T.);
#88=FACE_OUTER_BOUND('',#143,.T.);
#89=FACE_OUTER_BOUND('',#144,.T.);
#90=FACE_OUTER_BOUND('',#148,.T.);
#91=FACE_OUTER_BOUND('',#149,.T.);
#92=FACE_OUTER_BOUND('',#151,.T.);
#93=FACE_OUTER_BOUND('',#152,.T.);
#94=FACE_OUTER_BOUND('',#154,.T.);
#95=FACE_OUTER_BOUND('',#156,.T.);
#96=FACE_OUTER_BOUND('',#157,.T.);
#97=FACE_OUTER_BOUND('',#158,.T.);
#98=FACE_OUTER_BOUND('',#159,.T.);
#99=FACE_OUTER_BOUND('',#160,.T.);
#100=FACE_OUTER_BOUND('',#161,.T.);
#101=FACE_OUTER_BOUND('',#163,.T.);
#102=FACE_OUTER_BOUND('',#164,.T.);
#103=FACE_OUTER_BOUND('',#166,.T.);
#104=FACE_OUTER_BOUND('',#169,.T.);
#105=FACE_OUTER_BOUND('',#170,.T.);
#106=FACE_OUTER_BOUND('',#171,.T.);
#107=FACE_OUTER_BOUND('',#172,.T.);
#108=FACE_OUTER_BOUND('',#173,.T.);
#109=FACE_OUTER_BOUND('',#174,.T.);
#110=FACE_OUTER_BOUND('',#175,.T.);
#111=FACE_OUTER_BOUND('',#178,.T.);
#112=FACE_OUTER_BOUND('',#179,.T.);
#113=FACE_OUTER_BOUND('',#180,.T.);
#114=FACE_OUTER_BOUND('',#181,.T.);
#115=FACE_OUTER_BOUND('',#182,.T.);
#116=FACE_OUTER_BOUND('',#183,.T.);
#117=FACE_OUTER_BOUND('',#184,.T.);
#118=FACE_OUTER_BOUND('',#185,.T.);
#119=FACE_OUTER_BOUND('',#186,.T.);
#120=FACE_OUTER_BOUND('',#187,.T.);
#121=FACE_OUTER_BOUND('',#188,.T.);
#122=FACE_OUTER_BOUND('',#189,.T.);
#123=FACE_OUTER_BOUND('',#190,.T.);
#124=FACE_OUTER_BOUND('',#191,.T.);
#125=FACE_OUTER_BOUND('',#192,.T.);
#126=EDGE_LOOP('',(#450,#451,#452,#453));
#127=EDGE_LOOP('',(#454));
#128=EDGE_LOOP('',(#455,#456,#457,#458));
#129=EDGE_LOOP('',(#459));
#130=EDGE_LOOP('',(#460,#461,#462,#463));
#131=EDGE_LOOP('',(#464));
#132=EDGE_LOOP('',(#465,#466,#467,#468));
#133=EDGE_LOOP('',(#469));
#134=EDGE_LOOP('',(#470,#471,#472,#473));
#135=EDGE_LOOP('',(#474));
#136=EDGE_LOOP('',(#475,#476,#477,#478));
#137=EDGE_LOOP('',(#479));
#138=EDGE_LOOP('',(#480));
#139=EDGE_LOOP('',(#481));
#140=EDGE_LOOP('',(#482,#483,#484,#485));
#141=EDGE_LOOP('',(#486));
#142=EDGE_LOOP('',(#487));
#143=EDGE_LOOP('',(#488,#489,#490,#491));
#144=EDGE_LOOP('',(#492));
#145=EDGE_LOOP('',(#493));
#146=EDGE_LOOP('',(#494));
#147=EDGE_LOOP('',(#495));
#148=EDGE_LOOP('',(#496,#497,#498,#499));
#149=EDGE_LOOP('',(#500));
#150=EDGE_LOOP('',(#501));
#151=EDGE_LOOP('',(#502,#503,#504,#505));
#152=EDGE_LOOP('',(#506));
#153=EDGE_LOOP('',(#507));
#154=EDGE_LOOP('',(#508));
#155=EDGE_LOOP('',(#509));
#156=EDGE_LOOP('',(#510,#511,#512,#513));
#157=EDGE_LOOP('',(#514,#515,#516,#517));
#158=EDGE_LOOP('',(#518,#519,#520,#521));
#159=EDGE_LOOP('',(#522,#523,#524,#525,#526,#527));
#160=EDGE_LOOP('',(#528,#529,#530,#531));
#161=EDGE_LOOP('',(#532));
#162=EDGE_LOOP('',(#533));
#163=EDGE_LOOP('',(#534,#535,#536,#537));
#164=EDGE_LOOP('',(#538));
#165=EDGE_LOOP('',(#539));
#166=EDGE_LOOP('',(#540,#541,#542,#543));
#167=EDGE_LOOP('',(#544));
#168=EDGE_LOOP('',(#545));
#169=EDGE_LOOP('',(#546,#547,#548,#549));
#170=EDGE_LOOP('',(#550,#551,#552,#553));
#171=EDGE_LOOP('',(#554,#555,#556,#557,#558,#559));
#172=EDGE_LOOP('',(#560,#561,#562,#563,#564,#565));
#173=EDGE_LOOP('',(#566,#567,#568,#569,#570,#571));
#174=EDGE_LOOP('',(#572,#573,#574,#575));
#175=EDGE_LOOP('',(#576,#577,#578,#579));
#176=EDGE_LOOP('',(#580));
#177=EDGE_LOOP('',(#581));
#178=EDGE_LOOP('',(#582,#583,#584,#585));
#179=EDGE_LOOP('',(#586));
#180=EDGE_LOOP('',(#587));
#181=EDGE_LOOP('',(#588,#589,#590,#591));
#182=EDGE_LOOP('',(#592));
#183=EDGE_LOOP('',(#593));
#184=EDGE_LOOP('',(#594,#595,#596,#597));
#185=EDGE_LOOP('',(#598));
#186=EDGE_LOOP('',(#599));
#187=EDGE_LOOP('',(#600,#601,#602,#603));
#188=EDGE_LOOP('',(#604));
#189=EDGE_LOOP('',(#605));
#190=EDGE_LOOP('',(#606,#607,#608,#609));
#191=EDGE_LOOP('',(#610));
#192=EDGE_LOOP('',(#611));
#193=LINE('',#1028,#234);
#194=LINE('',#1035,#235);
#195=LINE('',#1042,#236);
#196=LINE('',#1049,#237);
#197=LINE('',#1056,#238);
#198=LINE('',#1063,#239);
#199=LINE('',#1070,#240);
#200=LINE('',#1077,#241);
#201=LINE('',#1084,#242);
#202=LINE('',#1091,#243);
#203=LINE('',#1098,#244);
#204=LINE('',#1100,#245);
#205=LINE('',#1102,#246);
#206=LINE('',#1103,#247);
#207=LINE('',#1109,#248);
#208=LINE('',#1112,#249);
#209=LINE('',#1114,#250);
#210=LINE('',#1115,#251);
#211=LINE('',#1118,#252);
#212=LINE('',#1120,#253);
#213=LINE('',#1121,#254);
#214=LINE('',#1126,#255);
#215=LINE('',#1135,#256);
#216=LINE('',#1143,#257);
#217=LINE('',#1144,#258);
#218=LINE('',#1145,#259);
#219=LINE('',#1151,#260);
#220=LINE('',#1153,#261);
#221=LINE('',#1156,#262);
#222=LINE('',#1158,#263);
#223=LINE('',#1159,#264);
#224=LINE('',#1162,#265);
#225=LINE('',#1163,#266);
#226=LINE('',#1166,#267);
#227=LINE('',#1167,#268);
#228=LINE('',#1169,#269);
#229=LINE('',#1175,#270);
#230=LINE('',#1183,#271);
#231=LINE('',#1191,#272);
#232=LINE('',#1199,#273);
#233=LINE('',#1207,#274);
#234=VECTOR('',#802,2.3772370821);
#235=VECTOR('',#811,2.3772370821);
#236=VECTOR('',#820,2.37723708210543);
#237=VECTOR('',#829,2.3772370821);
#238=VECTOR('',#838,2.3772370821);
#239=VECTOR('',#847,7.11);
#240=VECTOR('',#856,8.11);
#241=VECTOR('',#865,9.2);
#242=VECTOR('',#874,9.6);
#243=VECTOR('',#883,11.75);
#244=VECTOR('',#892,10.);
#245=VECTOR('',#893,10.);
#246=VECTOR('',#894,10.);
#247=VECTOR('',#895,10.);
#248=VECTOR('',#902,10.);
#249=VECTOR('',#905,10.);
#250=VECTOR('',#906,10.);
#251=VECTOR('',#907,10.);
#252=VECTOR('',#910,10.);
#253=VECTOR('',#911,10.);
#254=VECTOR('',#912,10.);
#255=VECTOR('',#917,2.5);
#256=VECTOR('',#928,2.5);
#257=VECTOR('',#937,10.);
#258=VECTOR('',#938,10.);
#259=VECTOR('',#939,10.);
#260=VECTOR('',#946,1.725);
#261=VECTOR('',#949,1.725);
#262=VECTOR('',#952,10.);
#263=VECTOR('',#953,10.);
#264=VECTOR('',#954,10.);
#265=VECTOR('',#957,10.);
#266=VECTOR('',#958,10.);
#267=VECTOR('',#961,10.);
#268=VECTOR('',#962,10.);
#269=VECTOR('',#965,10.);
#270=VECTOR('',#972,0.75);
#271=VECTOR('',#983,0.75);
#272=VECTOR('',#994,0.75);
#273=VECTOR('',#1005,0.75);
#274=VECTOR('',#1016,0.75);
#275=CIRCLE('',#705,2.3772370821);
#276=CIRCLE('',#706,2.3772370821);
#277=CIRCLE('',#709,2.3772370821);
#278=CIRCLE('',#710,2.3772370821);
#279=CIRCLE('',#713,2.37723708210543);
#280=CIRCLE('',#714,2.37723708210543);
#281=CIRCLE('',#717,2.3772370821);
#282=CIRCLE('',#718,2.3772370821);
#283=CIRCLE('',#721,2.3772370821);
#284=CIRCLE('',#722,2.3772370821);
#285=CIRCLE('',#725,7.11);
#286=CIRCLE('',#726,7.11);
#287=CIRCLE('',#729,8.11);
#288=CIRCLE('',#730,8.11);
#289=CIRCLE('',#733,9.2);
#290=CIRCLE('',#734,9.2);
#291=CIRCLE('',#737,9.6);
#292=CIRCLE('',#738,9.6);
#293=CIRCLE('',#741,11.75);
#294=CIRCLE('',#742,11.75);
#295=CIRCLE('',#747,12.);
#296=CIRCLE('',#748,12.);
#297=CIRCLE('',#752,2.5);
#298=CIRCLE('',#753,2.5);
#299=CIRCLE('',#755,1.725);
#300=CIRCLE('',#757,2.5);
#301=CIRCLE('',#758,2.5);
#302=CIRCLE('',#760,1.725);
#303=CIRCLE('',#762,1.725);
#304=CIRCLE('',#763,1.725);
#305=CIRCLE('',#772,0.75);
#306=CIRCLE('',#773,0.75);
#307=CIRCLE('',#777,0.75);
#308=CIRCLE('',#778,0.75);
#309=CIRCLE('',#782,0.75);
#310=CIRCLE('',#783,0.75);
#311=CIRCLE('',#787,0.75);
#312=CIRCLE('',#788,0.75);
#313=CIRCLE('',#792,0.75);
#314=CIRCLE('',#793,0.75);
#315=VERTEX_POINT('',#1025);
#316=VERTEX_POINT('',#1027);
#317=VERTEX_POINT('',#1032);
#318=VERTEX_POINT('',#1034);
#319=VERTEX_POINT('',#1039);
#320=VERTEX_POINT('',#1041);
#321=VERTEX_POINT('',#1046);
#322=VERTEX_POINT('',#1048);
#323=VERTEX_POINT('',#1053);
#324=VERTEX_POINT('',#1055);
#325=VERTEX_POINT('',#1060);
#326=VERTEX_POINT('',#1062);
#327=VERTEX_POINT('',#1067);
#328=VERTEX_POINT('',#1069);
#329=VERTEX_POINT('',#1074);
#330=VERTEX_POINT('',#1076);
#331=VERTEX_POINT('',#1081);
#332=VERTEX_POINT('',#1083);
#333=VERTEX_POINT('',#1088);
#334=VERTEX_POINT('',#1090);
#335=VERTEX_POINT('',#1096);
#336=VERTEX_POINT('',#1097);
#337=VERTEX_POINT('',#1099);
#338=VERTEX_POINT('',#1101);
#339=VERTEX_POINT('',#1105);
#340=VERTEX_POINT('',#1107);
#341=VERTEX_POINT('',#1111);
#342=VERTEX_POINT('',#1113);
#343=VERTEX_POINT('',#1117);
#344=VERTEX_POINT('',#1119);
#345=VERTEX_POINT('',#1123);
#346=VERTEX_POINT('',#1125);
#347=VERTEX_POINT('',#1129);
#348=VERTEX_POINT('',#1132);
#349=VERTEX_POINT('',#1134);
#350=VERTEX_POINT('',#1138);
#351=VERTEX_POINT('',#1141);
#352=VERTEX_POINT('',#1142);
#353=VERTEX_POINT('',#1146);
#354=VERTEX_POINT('',#1148);
#355=VERTEX_POINT('',#1155);
#356=VERTEX_POINT('',#1157);
#357=VERTEX_POINT('',#1161);
#358=VERTEX_POINT('',#1165);
#359=VERTEX_POINT('',#1172);
#360=VERTEX_POINT('',#1174);
#361=VERTEX_POINT('',#1180);
#362=VERTEX_POINT('',#1182);
#363=VERTEX_POINT('',#1188);
#364=VERTEX_POINT('',#1190);
#365=VERTEX_POINT('',#1196);
#366=VERTEX_POINT('',#1198);
#367=VERTEX_POINT('',#1204);
#368=VERTEX_POINT('',#1206);
#369=EDGE_CURVE('',#315,#315,#275,.T.);
#370=EDGE_CURVE('',#315,#316,#193,.T.);
#371=EDGE_CURVE('',#316,#316,#276,.T.);
#372=EDGE_CURVE('',#317,#317,#277,.T.);
#373=EDGE_CURVE('',#317,#318,#194,.T.);
#374=EDGE_CURVE('',#318,#318,#278,.T.);
#375=EDGE_CURVE('',#319,#319,#279,.T.);
#376=EDGE_CURVE('',#319,#320,#195,.T.);
#377=EDGE_CURVE('',#320,#320,#280,.T.);
#378=EDGE_CURVE('',#321,#321,#281,.T.);
#379=EDGE_CURVE('',#321,#322,#196,.T.);
#380=EDGE_CURVE('',#322,#322,#282,.T.);
#381=EDGE_CURVE('',#323,#323,#283,.T.);
#382=EDGE_CURVE('',#323,#324,#197,.T.);
#383=EDGE_CURVE('',#324,#324,#284,.T.);
#384=EDGE_CURVE('',#325,#325,#285,.T.);
#385=EDGE_CURVE('',#325,#326,#198,.T.);
#386=EDGE_CURVE('',#326,#326,#286,.T.);
#387=EDGE_CURVE('',#327,#327,#287,.T.);
#388=EDGE_CURVE('',#327,#328,#199,.T.);
#389=EDGE_CURVE('',#328,#328,#288,.T.);
#390=EDGE_CURVE('',#329,#329,#289,.T.);
#391=EDGE_CURVE('',#329,#330,#200,.T.);
#392=EDGE_CURVE('',#330,#330,#290,.T.);
#393=EDGE_CURVE('',#331,#331,#291,.T.);
#394=EDGE_CURVE('',#331,#332,#201,.T.);
#395=EDGE_CURVE('',#332,#332,#292,.T.);
#396=EDGE_CURVE('',#333,#333,#293,.T.);
#397=EDGE_CURVE('',#333,#334,#202,.T.);
#398=EDGE_CURVE('',#334,#334,#294,.T.);
#399=EDGE_CURVE('',#335,#336,#203,.T.);
#400=EDGE_CURVE('',#335,#337,#204,.T.);
#401=EDGE_CURVE('',#338,#337,#205,.T.);
#402=EDGE_CURVE('',#336,#338,#206,.T.);
#403=EDGE_CURVE('',#336,#339,#295,.T.);
#404=EDGE_CURVE('',#340,#338,#296,.T.);
#405=EDGE_CURVE('',#339,#340,#207,.T.);
#406=EDGE_CURVE('',#339,#341,#208,.T.);
#407=EDGE_CURVE('',#342,#340,#209,.T.);
#408=EDGE_CURVE('',#341,#342,#210,.T.);
#409=EDGE_CURVE('',#337,#343,#211,.T.);
#410=EDGE_CURVE('',#343,#344,#212,.T.);
#411=EDGE_CURVE('',#344,#342,#213,.T.);
#412=EDGE_CURVE('',#345,#345,#297,.T.);
#413=EDGE_CURVE('',#345,#346,#214,.T.);
#414=EDGE_CURVE('',#346,#346,#298,.T.);
#415=EDGE_CURVE('',#347,#347,#299,.T.);
#416=EDGE_CURVE('',#348,#348,#300,.T.);
#417=EDGE_CURVE('',#348,#349,#215,.T.);
#418=EDGE_CURVE('',#349,#349,#301,.T.);
#419=EDGE_CURVE('',#350,#350,#302,.T.);
#420=EDGE_CURVE('',#351,#352,#216,.T.);
#421=EDGE_CURVE('',#352,#344,#217,.T.);
#422=EDGE_CURVE('',#351,#343,#218,.T.);
#423=EDGE_CURVE('',#353,#353,#303,.T.);
#424=EDGE_CURVE('',#354,#354,#304,.T.);
#425=EDGE_CURVE('',#347,#354,#219,.T.);
#426=EDGE_CURVE('',#350,#353,#220,.T.);
#427=EDGE_CURVE('',#355,#352,#221,.T.);
#428=EDGE_CURVE('',#356,#355,#222,.T.);
#429=EDGE_CURVE('',#341,#356,#223,.T.);
#430=EDGE_CURVE('',#357,#356,#224,.T.);
#431=EDGE_CURVE('',#335,#357,#225,.T.);
#432=EDGE_CURVE('',#358,#357,#226,.T.);
#433=EDGE_CURVE('',#351,#358,#227,.T.);
#434=EDGE_CURVE('',#355,#358,#228,.T.);
#435=EDGE_CURVE('',#359,#359,#305,.T.);
#436=EDGE_CURVE('',#359,#360,#229,.T.);
#437=EDGE_CURVE('',#360,#360,#306,.T.);
#438=EDGE_CURVE('',#361,#361,#307,.T.);
#439=EDGE_CURVE('',#361,#362,#230,.T.);
#440=EDGE_CURVE('',#362,#362,#308,.T.);
#441=EDGE_CURVE('',#363,#363,#309,.T.);
#442=EDGE_CURVE('',#363,#364,#231,.T.);
#443=EDGE_CURVE('',#364,#364,#310,.T.);
#444=EDGE_CURVE('',#365,#365,#311,.T.);
#445=EDGE_CURVE('',#365,#366,#232,.T.);
#446=EDGE_CURVE('',#366,#366,#312,.T.);
#447=EDGE_CURVE('',#367,#367,#313,.T.);
#448=EDGE_CURVE('',#367,#368,#233,.T.);
#449=EDGE_CURVE('',#368,#368,#314,.T.);
#450=ORIENTED_EDGE('',*,*,#369,.F.);
#451=ORIENTED_EDGE('',*,*,#370,.T.);
#452=ORIENTED_EDGE('',*,*,#371,.F.);
#453=ORIENTED_EDGE('',*,*,#370,.F.);
#454=ORIENTED_EDGE('',*,*,#369,.T.);
#455=ORIENTED_EDGE('',*,*,#372,.F.);
#456=ORIENTED_EDGE('',*,*,#373,.T.);
#457=ORIENTED_EDGE('',*,*,#374,.F.);
#458=ORIENTED_EDGE('',*,*,#373,.F.);
#459=ORIENTED_EDGE('',*,*,#372,.T.);
#460=ORIENTED_EDGE('',*,*,#375,.F.);
#461=ORIENTED_EDGE('',*,*,#376,.T.);
#462=ORIENTED_EDGE('',*,*,#377,.F.);
#463=ORIENTED_EDGE('',*,*,#376,.F.);
#464=ORIENTED_EDGE('',*,*,#375,.T.);
#465=ORIENTED_EDGE('',*,*,#378,.F.);
#466=ORIENTED_EDGE('',*,*,#379,.T.);
#467=ORIENTED_EDGE('',*,*,#380,.F.);
#468=ORIENTED_EDGE('',*,*,#379,.F.);
#469=ORIENTED_EDGE('',*,*,#378,.T.);
#470=ORIENTED_EDGE('',*,*,#381,.F.);
#471=ORIENTED_EDGE('',*,*,#382,.T.);
#472=ORIENTED_EDGE('',*,*,#383,.F.);
#473=ORIENTED_EDGE('',*,*,#382,.F.);
#474=ORIENTED_EDGE('',*,*,#381,.T.);
#475=ORIENTED_EDGE('',*,*,#384,.F.);
#476=ORIENTED_EDGE('',*,*,#385,.T.);
#477=ORIENTED_EDGE('',*,*,#386,.F.);
#478=ORIENTED_EDGE('',*,*,#385,.F.);
#479=ORIENTED_EDGE('',*,*,#384,.T.);
#480=ORIENTED_EDGE('',*,*,#371,.T.);
#481=ORIENTED_EDGE('',*,*,#374,.T.);
#482=ORIENTED_EDGE('',*,*,#387,.F.);
#483=ORIENTED_EDGE('',*,*,#388,.T.);
#484=ORIENTED_EDGE('',*,*,#389,.F.);
#485=ORIENTED_EDGE('',*,*,#388,.F.);
#486=ORIENTED_EDGE('',*,*,#387,.T.);
#487=ORIENTED_EDGE('',*,*,#386,.T.);
#488=ORIENTED_EDGE('',*,*,#390,.F.);
#489=ORIENTED_EDGE('',*,*,#391,.T.);
#490=ORIENTED_EDGE('',*,*,#392,.F.);
#491=ORIENTED_EDGE('',*,*,#391,.F.);
#492=ORIENTED_EDGE('',*,*,#390,.T.);
#493=ORIENTED_EDGE('',*,*,#377,.T.);
#494=ORIENTED_EDGE('',*,*,#380,.T.);
#495=ORIENTED_EDGE('',*,*,#383,.T.);
#496=ORIENTED_EDGE('',*,*,#393,.F.);
#497=ORIENTED_EDGE('',*,*,#394,.T.);
#498=ORIENTED_EDGE('',*,*,#395,.F.);
#499=ORIENTED_EDGE('',*,*,#394,.F.);
#500=ORIENTED_EDGE('',*,*,#393,.T.);
#501=ORIENTED_EDGE('',*,*,#392,.T.);
#502=ORIENTED_EDGE('',*,*,#396,.F.);
#503=ORIENTED_EDGE('',*,*,#397,.T.);
#504=ORIENTED_EDGE('',*,*,#398,.T.);
#505=ORIENTED_EDGE('',*,*,#397,.F.);
#506=ORIENTED_EDGE('',*,*,#396,.T.);
#507=ORIENTED_EDGE('',*,*,#395,.T.);
#508=ORIENTED_EDGE('',*,*,#398,.F.);
#509=ORIENTED_EDGE('',*,*,#389,.T.);
#510=ORIENTED_EDGE('',*,*,#399,.F.);
#511=ORIENTED_EDGE('',*,*,#400,.T.);
#512=ORIENTED_EDGE('',*,*,#401,.F.);
#513=ORIENTED_EDGE('',*,*,#402,.F.);
#514=ORIENTED_EDGE('',*,*,#403,.F.);
#515=ORIENTED_EDGE('',*,*,#402,.T.);
#516=ORIENTED_EDGE('',*,*,#404,.F.);
#517=ORIENTED_EDGE('',*,*,#405,.F.);
#518=ORIENTED_EDGE('',*,*,#406,.F.);
#519=ORIENTED_EDGE('',*,*,#405,.T.);
#520=ORIENTED_EDGE('',*,*,#407,.F.);
#521=ORIENTED_EDGE('',*,*,#408,.F.);
#522=ORIENTED_EDGE('',*,*,#409,.T.);
#523=ORIENTED_EDGE('',*,*,#410,.T.);
#524=ORIENTED_EDGE('',*,*,#411,.T.);
#525=ORIENTED_EDGE('',*,*,#407,.T.);
#526=ORIENTED_EDGE('',*,*,#404,.T.);
#527=ORIENTED_EDGE('',*,*,#401,.T.);
#528=ORIENTED_EDGE('',*,*,#412,.F.);
#529=ORIENTED_EDGE('',*,*,#413,.T.);
#530=ORIENTED_EDGE('',*,*,#414,.T.);
#531=ORIENTED_EDGE('',*,*,#413,.F.);
#532=ORIENTED_EDGE('',*,*,#414,.F.);
#533=ORIENTED_EDGE('',*,*,#415,.F.);
#534=ORIENTED_EDGE('',*,*,#416,.F.);
#535=ORIENTED_EDGE('',*,*,#417,.T.);
#536=ORIENTED_EDGE('',*,*,#418,.T.);
#537=ORIENTED_EDGE('',*,*,#417,.F.);
#538=ORIENTED_EDGE('',*,*,#418,.F.);
#539=ORIENTED_EDGE('',*,*,#419,.F.);
#540=ORIENTED_EDGE('',*,*,#420,.T.);
#541=ORIENTED_EDGE('',*,*,#421,.T.);
#542=ORIENTED_EDGE('',*,*,#410,.F.);
#543=ORIENTED_EDGE('',*,*,#422,.F.);
#544=ORIENTED_EDGE('',*,*,#423,.T.);
#545=ORIENTED_EDGE('',*,*,#424,.T.);
#546=ORIENTED_EDGE('',*,*,#415,.T.);
#547=ORIENTED_EDGE('',*,*,#425,.T.);
#548=ORIENTED_EDGE('',*,*,#424,.F.);
#549=ORIENTED_EDGE('',*,*,#425,.F.);
#550=ORIENTED_EDGE('',*,*,#419,.T.);
#551=ORIENTED_EDGE('',*,*,#426,.T.);
#552=ORIENTED_EDGE('',*,*,#423,.F.);
#553=ORIENTED_EDGE('',*,*,#426,.F.);
#554=ORIENTED_EDGE('',*,*,#427,.F.);
#555=ORIENTED_EDGE('',*,*,#428,.F.);
#556=ORIENTED_EDGE('',*,*,#429,.F.);
#557=ORIENTED_EDGE('',*,*,#408,.T.);
#558=ORIENTED_EDGE('',*,*,#411,.F.);
#559=ORIENTED_EDGE('',*,*,#421,.F.);
#560=ORIENTED_EDGE('',*,*,#406,.T.);
#561=ORIENTED_EDGE('',*,*,#429,.T.);
#562=ORIENTED_EDGE('',*,*,#430,.F.);
#563=ORIENTED_EDGE('',*,*,#431,.F.);
#564=ORIENTED_EDGE('',*,*,#399,.T.);
#565=ORIENTED_EDGE('',*,*,#403,.T.);
#566=ORIENTED_EDGE('',*,*,#431,.T.);
#567=ORIENTED_EDGE('',*,*,#432,.F.);
#568=ORIENTED_EDGE('',*,*,#433,.F.);
#569=ORIENTED_EDGE('',*,*,#422,.T.);
#570=ORIENTED_EDGE('',*,*,#409,.F.);
#571=ORIENTED_EDGE('',*,*,#400,.F.);
#572=ORIENTED_EDGE('',*,*,#433,.T.);
#573=ORIENTED_EDGE('',*,*,#434,.F.);
#574=ORIENTED_EDGE('',*,*,#427,.T.);
#575=ORIENTED_EDGE('',*,*,#420,.F.);
#576=ORIENTED_EDGE('',*,*,#434,.T.);
#577=ORIENTED_EDGE('',*,*,#432,.T.);
#578=ORIENTED_EDGE('',*,*,#430,.T.);
#579=ORIENTED_EDGE('',*,*,#428,.T.);
#580=ORIENTED_EDGE('',*,*,#412,.T.);
#581=ORIENTED_EDGE('',*,*,#416,.T.);
#582=ORIENTED_EDGE('',*,*,#435,.F.);
#583=ORIENTED_EDGE('',*,*,#436,.T.);
#584=ORIENTED_EDGE('',*,*,#437,.F.);
#585=ORIENTED_EDGE('',*,*,#436,.F.);
#586=ORIENTED_EDGE('',*,*,#437,.T.);
#587=ORIENTED_EDGE('',*,*,#435,.T.);
#588=ORIENTED_EDGE('',*,*,#438,.F.);
#589=ORIENTED_EDGE('',*,*,#439,.T.);
#590=ORIENTED_EDGE('',*,*,#440,.F.);
#591=ORIENTED_EDGE('',*,*,#439,.F.);
#592=ORIENTED_EDGE('',*,*,#440,.T.);
#593=ORIENTED_EDGE('',*,*,#438,.T.);
#594=ORIENTED_EDGE('',*,*,#441,.F.);
#595=ORIENTED_EDGE('',*,*,#442,.T.);
#596=ORIENTED_EDGE('',*,*,#443,.F.);
#597=ORIENTED_EDGE('',*,*,#442,.F.);
#598=ORIENTED_EDGE('',*,*,#443,.T.);
#599=ORIENTED_EDGE('',*,*,#441,.T.);
#600=ORIENTED_EDGE('',*,*,#444,.F.);
#601=ORIENTED_EDGE('',*,*,#445,.T.);
#602=ORIENTED_EDGE('',*,*,#446,.F.);
#603=ORIENTED_EDGE('',*,*,#445,.F.);
#604=ORIENTED_EDGE('',*,*,#446,.T.);
#605=ORIENTED_EDGE('',*,*,#444,.T.);
#606=ORIENTED_EDGE('',*,*,#447,.F.);
#607=ORIENTED_EDGE('',*,*,#448,.T.);
#608=ORIENTED_EDGE('',*,*,#449,.F.);
#609=ORIENTED_EDGE('',*,*,#448,.F.);
#610=ORIENTED_EDGE('',*,*,#449,.T.);
#611=ORIENTED_EDGE('',*,*,#447,.T.);
#612=CYLINDRICAL_SURFACE('',#704,2.3772370821);
#613=CYLINDRICAL_SURFACE('',#708,2.3772370821);
#614=CYLINDRICAL_SURFACE('',#712,2.37723708210543);
#615=CYLINDRICAL_SURFACE('',#716,2.3772370821);
#616=CYLINDRICAL_SURFACE('',#720,2.3772370821);
#617=CYLINDRICAL_SURFACE('',#724,7.11);
#618=CYLINDRICAL_SURFACE('',#728,8.11);
#619=CYLINDRICAL_SURFACE('',#732,9.2);
#620=CYLINDRICAL_SURFACE('',#736,9.6);
#621=CYLINDRICAL_SURFACE('',#740,11.75);
#622=CYLINDRICAL_SURFACE('',#746,12.);
#623=CYLINDRICAL_SURFACE('',#751,2.5);
#624=CYLINDRICAL_SURFACE('',#756,2.5);
#625=CYLINDRICAL_SURFACE('',#764,1.725);
#626=CYLINDRICAL_SURFACE('',#765,1.725);
#627=CYLINDRICAL_SURFACE('',#771,0.75);
#628=CYLINDRICAL_SURFACE('',#776,0.75);
#629=CYLINDRICAL_SURFACE('',#781,0.75);
#630=CYLINDRICAL_SURFACE('',#786,0.75);
#631=CYLINDRICAL_SURFACE('',#791,0.75);
#632=ADVANCED_FACE('',(#74),#612,.T.);
#633=ADVANCED_FACE('',(#75),#42,.T.);
#634=ADVANCED_FACE('',(#76),#613,.T.);
#635=ADVANCED_FACE('',(#77),#43,.T.);
#636=ADVANCED_FACE('',(#78),#614,.T.);
#637=ADVANCED_FACE('',(#79),#44,.T.);
#638=ADVANCED_FACE('',(#80),#615,.T.);
#639=ADVANCED_FACE('',(#81),#45,.T.);
#640=ADVANCED_FACE('',(#82),#616,.T.);
#641=ADVANCED_FACE('',(#83),#46,.T.);
#642=ADVANCED_FACE('',(#84),#617,.T.);
#643=ADVANCED_FACE('',(#85,#27,#28),#47,.T.);
#644=ADVANCED_FACE('',(#86),#618,.T.);
#645=ADVANCED_FACE('',(#87,#29),#48,.T.);
#646=ADVANCED_FACE('',(#88),#619,.T.);
#647=ADVANCED_FACE('',(#89,#30,#31,#32),#49,.T.);
#648=ADVANCED_FACE('',(#90),#620,.T.);
#649=ADVANCED_FACE('',(#91,#33),#50,.T.);
#650=ADVANCED_FACE('',(#92),#621,.T.);
#651=ADVANCED_FACE('',(#93,#34),#51,.T.);
#652=ADVANCED_FACE('',(#94,#35),#52,.F.);
#653=ADVANCED_FACE('',(#95),#53,.T.);
#654=ADVANCED_FACE('',(#96),#622,.F.);
#655=ADVANCED_FACE('',(#97),#54,.T.);
#656=ADVANCED_FACE('',(#98),#55,.T.);
#657=ADVANCED_FACE('',(#99),#623,.F.);
#658=ADVANCED_FACE('',(#100,#36),#56,.T.);
#659=ADVANCED_FACE('',(#101),#624,.F.);
#660=ADVANCED_FACE('',(#102,#37),#57,.T.);
#661=ADVANCED_FACE('',(#103,#38,#39),#58,.F.);
#662=ADVANCED_FACE('',(#104),#625,.F.);
#663=ADVANCED_FACE('',(#105),#626,.F.);
#664=ADVANCED_FACE('',(#106),#59,.T.);
#665=ADVANCED_FACE('',(#107),#60,.T.);
#666=ADVANCED_FACE('',(#108),#61,.T.);
#667=ADVANCED_FACE('',(#109),#62,.T.);
#668=ADVANCED_FACE('',(#110,#40,#41),#63,.T.);
#669=ADVANCED_FACE('',(#111),#627,.T.);
#670=ADVANCED_FACE('',(#112),#64,.T.);
#671=ADVANCED_FACE('',(#113),#65,.F.);
#672=ADVANCED_FACE('',(#114),#628,.T.);
#673=ADVANCED_FACE('',(#115),#66,.T.);
#674=ADVANCED_FACE('',(#116),#67,.F.);
#675=ADVANCED_FACE('',(#117),#629,.T.);
#676=ADVANCED_FACE('',(#118),#68,.T.);
#677=ADVANCED_FACE('',(#119),#69,.F.);
#678=ADVANCED_FACE('',(#120),#630,.T.);
#679=ADVANCED_FACE('',(#121),#70,.T.);
#680=ADVANCED_FACE('',(#122),#71,.F.);
#681=ADVANCED_FACE('',(#123),#631,.T.);
#682=ADVANCED_FACE('',(#124),#72,.T.);
#683=ADVANCED_FACE('',(#125),#73,.F.);
#684=CLOSED_SHELL('',(#632,#633,#634,#635,#636,#637,#638,#639,#640,#641,
#642,#643,#644,#645,#646,#647,#648,#649,#650,#651,#652));
#685=CLOSED_SHELL('',(#653,#654,#655,#656,#657,#658,#659,#660,#661,#662,
#663,#664,#665,#666,#667,#668));
#686=CLOSED_SHELL('',(#669,#670,#671));
#687=CLOSED_SHELL('',(#672,#673,#674));
#688=CLOSED_SHELL('',(#675,#676,#677));
#689=CLOSED_SHELL('',(#678,#679,#680));
#690=CLOSED_SHELL('',(#681,#682,#683));
#691=DERIVED_UNIT_ELEMENT(#693,1.);
#692=DERIVED_UNIT_ELEMENT(#1216,-3.);
#693=(
MASS_UNIT()
NAMED_UNIT(*)
SI_UNIT(.KILO.,.GRAM.)
);
#694=DERIVED_UNIT((#691,#692));
#695=MEASURE_REPRESENTATION_ITEM('density measure',
POSITIVE_RATIO_MEASURE(7850.),#694);
#696=PROPERTY_DEFINITION_REPRESENTATION(#701,#698);
#697=PROPERTY_DEFINITION_REPRESENTATION(#702,#699);
#698=REPRESENTATION('material name',(#700),#1213);
#699=REPRESENTATION('density',(#695),#1213);
#700=DESCRIPTIVE_REPRESENTATION_ITEM('Steel','Steel');
#701=PROPERTY_DEFINITION('material property','material name',#1223);
#702=PROPERTY_DEFINITION('material property','density of part',#1223);
#703=AXIS2_PLACEMENT_3D('',#1023,#796,#797);
#704=AXIS2_PLACEMENT_3D('',#1024,#798,#799);
#705=AXIS2_PLACEMENT_3D('',#1026,#800,#801);
#706=AXIS2_PLACEMENT_3D('',#1029,#803,#804);
#707=AXIS2_PLACEMENT_3D('',#1030,#805,#806);
#708=AXIS2_PLACEMENT_3D('',#1031,#807,#808);
#709=AXIS2_PLACEMENT_3D('',#1033,#809,#810);
#710=AXIS2_PLACEMENT_3D('',#1036,#812,#813);
#711=AXIS2_PLACEMENT_3D('',#1037,#814,#815);
#712=AXIS2_PLACEMENT_3D('',#1038,#816,#817);
#713=AXIS2_PLACEMENT_3D('',#1040,#818,#819);
#714=AXIS2_PLACEMENT_3D('',#1043,#821,#822);
#715=AXIS2_PLACEMENT_3D('',#1044,#823,#824);
#716=AXIS2_PLACEMENT_3D('',#1045,#825,#826);
#717=AXIS2_PLACEMENT_3D('',#1047,#827,#828);
#718=AXIS2_PLACEMENT_3D('',#1050,#830,#831);
#719=AXIS2_PLACEMENT_3D('',#1051,#832,#833);
#720=AXIS2_PLACEMENT_3D('',#1052,#834,#835);
#721=AXIS2_PLACEMENT_3D('',#1054,#836,#837);
#722=AXIS2_PLACEMENT_3D('',#1057,#839,#840);
#723=AXIS2_PLACEMENT_3D('',#1058,#841,#842);
#724=AXIS2_PLACEMENT_3D('',#1059,#843,#844);
#725=AXIS2_PLACEMENT_3D('',#1061,#845,#846);
#726=AXIS2_PLACEMENT_3D('',#1064,#848,#849);
#727=AXIS2_PLACEMENT_3D('',#1065,#850,#851);
#728=AXIS2_PLACEMENT_3D('',#1066,#852,#853);
#729=AXIS2_PLACEMENT_3D('',#1068,#854,#855);
#730=AXIS2_PLACEMENT_3D('',#1071,#857,#858);
#731=AXIS2_PLACEMENT_3D('',#1072,#859,#860);
#732=AXIS2_PLACEMENT_3D('',#1073,#861,#862);
#733=AXIS2_PLACEMENT_3D('',#1075,#863,#864);
#734=AXIS2_PLACEMENT_3D('',#1078,#866,#867);
#735=AXIS2_PLACEMENT_3D('',#1079,#868,#869);
#736=AXIS2_PLACEMENT_3D('',#1080,#870,#871);
#737=AXIS2_PLACEMENT_3D('',#1082,#872,#873);
#738=AXIS2_PLACEMENT_3D('',#1085,#875,#876);
#739=AXIS2_PLACEMENT_3D('',#1086,#877,#878);
#740=AXIS2_PLACEMENT_3D('',#1087,#879,#880);
#741=AXIS2_PLACEMENT_3D('',#1089,#881,#882);
#742=AXIS2_PLACEMENT_3D('',#1092,#884,#885);
#743=AXIS2_PLACEMENT_3D('',#1093,#886,#887);
#744=AXIS2_PLACEMENT_3D('',#1094,#888,#889);
#745=AXIS2_PLACEMENT_3D('',#1095,#890,#891);
#746=AXIS2_PLACEMENT_3D('',#1104,#896,#897);
#747=AXIS2_PLACEMENT_3D('',#1106,#898,#899);
#748=AXIS2_PLACEMENT_3D('',#1108,#900,#901);
#749=AXIS2_PLACEMENT_3D('',#1110,#903,#904);
#750=AXIS2_PLACEMENT_3D('',#1116,#908,#909);
#751=AXIS2_PLACEMENT_3D('',#1122,#913,#914);
#752=AXIS2_PLACEMENT_3D('',#1124,#915,#916);
#753=AXIS2_PLACEMENT_3D('',#1127,#918,#919);
#754=AXIS2_PLACEMENT_3D('',#1128,#920,#921);
#755=AXIS2_PLACEMENT_3D('',#1130,#922,#923);
#756=AXIS2_PLACEMENT_3D('',#1131,#924,#925);
#757=AXIS2_PLACEMENT_3D('',#1133,#926,#927);
#758=AXIS2_PLACEMENT_3D('',#1136,#929,#930);
#759=AXIS2_PLACEMENT_3D('',#1137,#931,#932);
#760=AXIS2_PLACEMENT_3D('',#1139,#933,#934);
#761=AXIS2_PLACEMENT_3D('',#1140,#935,#936);
#762=AXIS2_PLACEMENT_3D('',#1147,#940,#941);
#763=AXIS2_PLACEMENT_3D('',#1149,#942,#943);
#764=AXIS2_PLACEMENT_3D('',#1150,#944,#945);
#765=AXIS2_PLACEMENT_3D('',#1152,#947,#948);
#766=AXIS2_PLACEMENT_3D('',#1154,#950,#951);
#767=AXIS2_PLACEMENT_3D('',#1160,#955,#956);
#768=AXIS2_PLACEMENT_3D('',#1164,#959,#960);
#769=AXIS2_PLACEMENT_3D('',#1168,#963,#964);
#770=AXIS2_PLACEMENT_3D('',#1170,#966,#967);
#771=AXIS2_PLACEMENT_3D('',#1171,#968,#969);
#772=AXIS2_PLACEMENT_3D('',#1173,#970,#971);
#773=AXIS2_PLACEMENT_3D('',#1176,#973,#974);
#774=AXIS2_PLACEMENT_3D('',#1177,#975,#976);
#775=AXIS2_PLACEMENT_3D('',#1178,#977,#978);
#776=AXIS2_PLACEMENT_3D('',#1179,#979,#980);
#777=AXIS2_PLACEMENT_3D('',#1181,#981,#982);
#778=AXIS2_PLACEMENT_3D('',#1184,#984,#985);
#779=AXIS2_PLACEMENT_3D('',#1185,#986,#987);
#780=AXIS2_PLACEMENT_3D('',#1186,#988,#989);
#781=AXIS2_PLACEMENT_3D('',#1187,#990,#991);
#782=AXIS2_PLACEMENT_3D('',#1189,#992,#993);
#783=AXIS2_PLACEMENT_3D('',#1192,#995,#996);
#784=AXIS2_PLACEMENT_3D('',#1193,#997,#998);
#785=AXIS2_PLACEMENT_3D('',#1194,#999,#1000);
#786=AXIS2_PLACEMENT_3D('',#1195,#1001,#1002);
#787=AXIS2_PLACEMENT_3D('',#1197,#1003,#1004);
#788=AXIS2_PLACEMENT_3D('',#1200,#1006,#1007);
#789=AXIS2_PLACEMENT_3D('',#1201,#1008,#1009);
#790=AXIS2_PLACEMENT_3D('',#1202,#1010,#1011);
#791=AXIS2_PLACEMENT_3D('',#1203,#1012,#1013);
#792=AXIS2_PLACEMENT_3D('',#1205,#1014,#1015);
#793=AXIS2_PLACEMENT_3D('',#1208,#1017,#1018);
#794=AXIS2_PLACEMENT_3D('',#1209,#1019,#1020);
#795=AXIS2_PLACEMENT_3D('',#1210,#1021,#1022);
#796=DIRECTION('axis',(0.,0.,1.));
#797=DIRECTION('refdir',(1.,0.,0.));
#798=DIRECTION('center_axis',(0.,-1.,0.));
#799=DIRECTION('ref_axis',(-1.,0.,-1.22464679914735E-16));
#800=DIRECTION('center_axis',(0.,-1.,0.));
#801=DIRECTION('ref_axis',(-1.,0.,-1.22464679914735E-16));
#802=DIRECTION('',(0.,1.,0.));
#803=DIRECTION('center_axis',(0.,1.,0.));
#804=DIRECTION('ref_axis',(-1.,0.,-1.22464679914735E-16));
#805=DIRECTION('center_axis',(0.,-1.,0.));
#806=DIRECTION('ref_axis',(-1.,0.,-1.22464679914735E-16));
#807=DIRECTION('center_axis',(0.,-1.,0.));
#808=DIRECTION('ref_axis',(-1.,0.,-1.22464679914735E-16));
#809=DIRECTION('center_axis',(0.,-1.,0.));
#810=DIRECTION('ref_axis',(-1.,0.,-1.22464679914735E-16));
#811=DIRECTION('',(0.,1.,0.));
#812=DIRECTION('center_axis',(0.,1.,0.));
#813=DIRECTION('ref_axis',(-1.,0.,-1.22464679914735E-16));
#814=DIRECTION('center_axis',(0.,-1.,0.));
#815=DIRECTION('ref_axis',(-1.,0.,-1.22464679914735E-16));
#816=DIRECTION('center_axis',(0.,1.,0.));
#817=DIRECTION('ref_axis',(1.,0.,1.22464679914735E-16));
#818=DIRECTION('center_axis',(0.,1.,0.));
#819=DIRECTION('ref_axis',(1.,0.,1.22464679914735E-16));
#820=DIRECTION('',(0.,-1.,0.));
#821=DIRECTION('center_axis',(0.,-1.,0.));
#822=DIRECTION('ref_axis',(1.,0.,1.22464679914735E-16));
#823=DIRECTION('center_axis',(0.,1.,0.));
#824=DIRECTION('ref_axis',(1.,0.,1.22464679914735E-16));
#825=DIRECTION('center_axis',(0.,1.,0.));
#826=DIRECTION('ref_axis',(1.,0.,1.22464679914735E-16));
#827=DIRECTION('center_axis',(0.,1.,0.));
#828=DIRECTION('ref_axis',(1.,0.,1.22464679914735E-16));
#829=DIRECTION('',(0.,-1.,0.));
#830=DIRECTION('center_axis',(0.,-1.,0.));
#831=DIRECTION('ref_axis',(1.,0.,1.22464679914735E-16));
#832=DIRECTION('center_axis',(0.,1.,0.));
#833=DIRECTION('ref_axis',(1.,0.,1.22464679914735E-16));
#834=DIRECTION('center_axis',(0.,1.,0.));
#835=DIRECTION('ref_axis',(1.,0.,1.22464679914735E-16));
#836=DIRECTION('center_axis',(0.,1.,0.));
#837=DIRECTION('ref_axis',(1.,0.,1.22464679914735E-16));
#838=DIRECTION('',(0.,-1.,0.));
#839=DIRECTION('center_axis',(0.,-1.,0.));
#840=DIRECTION('ref_axis',(1.,0.,1.22464679914735E-16));
#841=DIRECTION('center_axis',(0.,1.,0.));
#842=DIRECTION('ref_axis',(1.,0.,1.22464679914735E-16));
#843=DIRECTION('center_axis',(0.,-1.,0.));
#844=DIRECTION('ref_axis',(-1.,0.,-1.22464679914735E-16));
#845=DIRECTION('center_axis',(0.,-1.,0.));
#846=DIRECTION('ref_axis',(-1.,0.,-1.22464679914735E-16));
#847=DIRECTION('',(0.,1.,0.));
#848=DIRECTION('center_axis',(0.,1.,0.));
#849=DIRECTION('ref_axis',(-1.,0.,-1.22464679914735E-16));
#850=DIRECTION('center_axis',(0.,-1.,0.));
#851=DIRECTION('ref_axis',(-1.,0.,-1.22464679914735E-16));
#852=DIRECTION('center_axis',(0.,-1.,0.));
#853=DIRECTION('ref_axis',(-1.,0.,-1.22464679914735E-16));
#854=DIRECTION('center_axis',(0.,-1.,0.));
#855=DIRECTION('ref_axis',(-1.,0.,-1.22464679914735E-16));
#856=DIRECTION('',(0.,1.,0.));
#857=DIRECTION('center_axis',(0.,1.,0.));
#858=DIRECTION('ref_axis',(-1.,0.,-1.22464679914735E-16));
#859=DIRECTION('center_axis',(0.,-1.,0.));
#860=DIRECTION('ref_axis',(-1.,0.,-1.22464679914735E-16));
#861=DIRECTION('center_axis',(0.,1.,0.));
#862=DIRECTION('ref_axis',(1.,0.,1.22464679914735E-16));
#863=DIRECTION('center_axis',(0.,1.,0.));
#864=DIRECTION('ref_axis',(1.,0.,1.22464679914735E-16));
#865=DIRECTION('',(0.,-1.,0.));
#866=DIRECTION('center_axis',(0.,-1.,0.));
#867=DIRECTION('ref_axis',(1.,0.,1.22464679914735E-16));
#868=DIRECTION('center_axis',(0.,1.,0.));
#869=DIRECTION('ref_axis',(1.,0.,1.22464679914735E-16));
#870=DIRECTION('center_axis',(0.,1.,0.));
#871=DIRECTION('ref_axis',(1.,0.,1.22464679914735E-16));
#872=DIRECTION('center_axis',(0.,1.,0.));
#873=DIRECTION('ref_axis',(1.,0.,1.22464679914735E-16));
#874=DIRECTION('',(0.,-1.,0.));
#875=DIRECTION('center_axis',(0.,-1.,0.));
#876=DIRECTION('ref_axis',(1.,0.,1.22464679914735E-16));
#877=DIRECTION('center_axis',(0.,1.,0.));
#878=DIRECTION('ref_axis',(1.,0.,1.22464679914735E-16));
#879=DIRECTION('center_axis',(0.,1.,0.));
#880=DIRECTION('ref_axis',(-1.,0.,-1.22464679914735E-16));
#881=DIRECTION('center_axis',(0.,1.,0.));
#882=DIRECTION('ref_axis',(-1.,0.,-1.22464679914735E-16));
#883=DIRECTION('',(0.,-1.,0.));
#884=DIRECTION('center_axis',(0.,1.,0.));
#885=DIRECTION('ref_axis',(-1.,0.,-1.22464679914735E-16));
#886=DIRECTION('center_axis',(0.,1.,0.));
#887=DIRECTION('ref_axis',(-1.,0.,-1.22464679914735E-16));
#888=DIRECTION('center_axis',(0.,1.,0.));
#889=DIRECTION('ref_axis',(-1.,0.,-1.22464679914735E-16));
#890=DIRECTION('center_axis',(0.,0.,1.));
#891=DIRECTION('ref_axis',(-1.,0.,0.));
#892=DIRECTION('',(1.,0.,0.));
#893=DIRECTION('',(0.,-1.,0.));
#894=DIRECTION('',(-1.,0.,0.));
#895=DIRECTION('',(0.,-1.,0.));
#896=DIRECTION('center_axis',(0.,-1.,0.));
#897=DIRECTION('ref_axis',(1.,0.,0.));
#898=DIRECTION('center_axis',(0.,-1.,0.));
#899=DIRECTION('ref_axis',(1.,0.,0.));
#900=DIRECTION('center_axis',(0.,1.,0.));
#901=DIRECTION('ref_axis',(1.,0.,0.));
#902=DIRECTION('',(0.,-1.,0.));
#903=DIRECTION('center_axis',(0.,0.,1.));
#904=DIRECTION('ref_axis',(-1.,0.,0.));
#905=DIRECTION('',(1.,0.,0.));
#906=DIRECTION('',(-1.,0.,0.));
#907=DIRECTION('',(0.,-1.,0.));
#908=DIRECTION('center_axis',(0.,-1.,0.));
#909=DIRECTION('ref_axis',(1.,0.,0.));
#910=DIRECTION('',(0.,0.,-1.));
#911=DIRECTION('',(1.,0.,0.));
#912=DIRECTION('',(0.,0.,1.));
#913=DIRECTION('center_axis',(0.,0.,-1.));
#914=DIRECTION('ref_axis',(1.,0.,0.));
#915=DIRECTION('center_axis',(0.,0.,-1.));
#916=DIRECTION('ref_axis',(1.,0.,0.));
#917=DIRECTION('',(0.,0.,-1.));
#918=DIRECTION('center_axis',(0.,0.,-1.));
#919=DIRECTION('ref_axis',(1.,0.,0.));
#920=DIRECTION('center_axis',(0.,0.,1.));
#921=DIRECTION('ref_axis',(1.,0.,0.));
#922=DIRECTION('center_axis',(0.,0.,1.));
#923=DIRECTION('ref_axis',(1.,0.,0.));
#924=DIRECTION('center_axis',(0.,0.,-1.));
#925=DIRECTION('ref_axis',(1.,0.,0.));
#926=DIRECTION('center_axis',(0.,0.,-1.));
#927=DIRECTION('ref_axis',(1.,0.,0.));
#928=DIRECTION('',(0.,0.,-1.));
#929=DIRECTION('center_axis',(0.,0.,-1.));
#930=DIRECTION('ref_axis',(1.,0.,0.));
#931=DIRECTION('center_axis',(0.,0.,1.));
#932=DIRECTION('ref_axis',(1.,0.,0.));
#933=DIRECTION('center_axis',(0.,0.,1.));
#934=DIRECTION('ref_axis',(1.,0.,0.));
#935=DIRECTION('center_axis',(0.,0.,1.));
#936=DIRECTION('ref_axis',(1.,0.,0.));
#937=DIRECTION('',(1.,0.,0.));
#938=DIRECTION('',(0.,-1.,0.));
#939=DIRECTION('',(0.,-1.,0.));
#940=DIRECTION('center_axis',(0.,0.,1.));
#941=DIRECTION('ref_axis',(1.,0.,0.));
#942=DIRECTION('center_axis',(0.,0.,1.));
#943=DIRECTION('ref_axis',(1.,0.,0.));
#944=DIRECTION('center_axis',(0.,0.,1.));
#945=DIRECTION('ref_axis',(1.,0.,0.));
#946=DIRECTION('',(0.,0.,-1.));
#947=DIRECTION('center_axis',(0.,0.,1.));
#948=DIRECTION('ref_axis',(1.,0.,0.));
#949=DIRECTION('',(0.,0.,-1.));
#950=DIRECTION('center_axis',(1.,0.,0.));
#951=DIRECTION('ref_axis',(0.,1.,0.));
#952=DIRECTION('',(0.,0.,-1.));
#953=DIRECTION('',(0.,1.,0.));
#954=DIRECTION('',(0.,0.,1.));
#955=DIRECTION('center_axis',(0.,-1.,0.));
#956=DIRECTION('ref_axis',(1.,0.,0.));
#957=DIRECTION('',(1.,0.,0.));
#958=DIRECTION('',(0.,0.,1.));
#959=DIRECTION('center_axis',(-1.,0.,0.));
#960=DIRECTION('ref_axis',(0.,-1.,0.));
#961=DIRECTION('',(0.,-1.,0.));
#962=DIRECTION('',(0.,0.,1.));
#963=DIRECTION('center_axis',(0.,1.,0.));
#964=DIRECTION('ref_axis',(-1.,0.,0.));
#965=DIRECTION('',(-1.,0.,0.));
#966=DIRECTION('center_axis',(0.,0.,1.));
#967=DIRECTION('ref_axis',(1.,0.,0.));
#968=DIRECTION('center_axis',(0.,0.,1.));
#969=DIRECTION('ref_axis',(-1.,0.,0.));
#970=DIRECTION('center_axis',(0.,0.,1.));
#971=DIRECTION('ref_axis',(-1.,0.,0.));
#972=DIRECTION('',(0.,0.,-1.));
#973=DIRECTION('center_axis',(0.,0.,-1.));
#974=DIRECTION('ref_axis',(-1.,0.,0.));
#975=DIRECTION('center_axis',(0.,0.,-1.));
#976=DIRECTION('ref_axis',(-1.,0.,0.));
#977=DIRECTION('center_axis',(0.,0.,-1.));
#978=DIRECTION('ref_axis',(-1.,0.,0.));
#979=DIRECTION('center_axis',(0.,0.,1.));
#980=DIRECTION('ref_axis',(-1.,0.,0.));
#981=DIRECTION('center_axis',(0.,0.,1.));
#982=DIRECTION('ref_axis',(-1.,0.,0.));
#983=DIRECTION('',(0.,0.,-1.));
#984=DIRECTION('center_axis',(0.,0.,-1.));
#985=DIRECTION('ref_axis',(-1.,0.,0.));
#986=DIRECTION('center_axis',(0.,0.,-1.));
#987=DIRECTION('ref_axis',(-1.,0.,0.));
#988=DIRECTION('center_axis',(0.,0.,-1.));
#989=DIRECTION('ref_axis',(-1.,0.,0.));
#990=DIRECTION('center_axis',(0.,0.,1.));
#991=DIRECTION('ref_axis',(-1.,0.,0.));
#992=DIRECTION('center_axis',(0.,0.,1.));
#993=DIRECTION('ref_axis',(-1.,0.,0.));
#994=DIRECTION('',(0.,0.,-1.));
#995=DIRECTION('center_axis',(0.,0.,-1.));
#996=DIRECTION('ref_axis',(-1.,0.,0.));
#997=DIRECTION('center_axis',(0.,0.,-1.));
#998=DIRECTION('ref_axis',(-1.,0.,0.));
#999=DIRECTION('center_axis',(0.,0.,-1.));
#1000=DIRECTION('ref_axis',(-1.,0.,0.));
#1001=DIRECTION('center_axis',(0.,0.,1.));
#1002=DIRECTION('ref_axis',(-1.,0.,0.));
#1003=DIRECTION('center_axis',(0.,0.,1.));
#1004=DIRECTION('ref_axis',(-1.,0.,0.));
#1005=DIRECTION('',(0.,0.,-1.));
#1006=DIRECTION('center_axis',(0.,0.,-1.));
#1007=DIRECTION('ref_axis',(-1.,0.,0.));
#1008=DIRECTION('center_axis',(0.,0.,-1.));
#1009=DIRECTION('ref_axis',(-1.,0.,0.));
#1010=DIRECTION('center_axis',(0.,0.,-1.));
#1011=DIRECTION('ref_axis',(-1.,0.,0.));
#1012=DIRECTION('center_axis',(0.,0.,1.));
#1013=DIRECTION('ref_axis',(-1.,0.,0.));
#1014=DIRECTION('center_axis',(0.,0.,1.));
#1015=DIRECTION('ref_axis',(-1.,0.,0.));
#1016=DIRECTION('',(0.,0.,-1.));
#1017=DIRECTION('center_axis',(0.,0.,-1.));
#1018=DIRECTION('ref_axis',(-1.,0.,0.));
#1019=DIRECTION('center_axis',(0.,0.,-1.));
#1020=DIRECTION('ref_axis',(-1.,0.,0.));
#1021=DIRECTION('center_axis',(0.,0.,-1.));
#1022=DIRECTION('ref_axis',(-1.,0.,0.));
#1023=CARTESIAN_POINT('',(0.,0.,0.));
#1024=CARTESIAN_POINT('Origin',(3.7742378338,-12.8,4.62210828238401E-16));
#1025=CARTESIAN_POINT('',(6.1514749159,-17.55,1.04446598492003E-15));
#1026=CARTESIAN_POINT('Origin',(3.7742378338,-17.55,4.62210828238401E-16));
#1027=CARTESIAN_POINT('',(6.1514749159,-12.8,1.04446598492003E-15));
#1028=CARTESIAN_POINT('',(6.1514749159,-12.8,1.04446598492003E-15));
#1029=CARTESIAN_POINT('Origin',(3.7742378338,-12.8,4.62210828238401E-16));
#1030=CARTESIAN_POINT('Origin',(3.7742378338,-17.55,4.62210828238401E-16));
#1031=CARTESIAN_POINT('Origin',(-3.77423783378414,-12.8,-4.35176984730145E-16));
#1032=CARTESIAN_POINT('',(-1.39700075168414,-17.55,1.47078171951487E-16));
#1033=CARTESIAN_POINT('Origin',(-3.77423783378414,-17.55,-4.35176984730145E-16));
#1034=CARTESIAN_POINT('',(-1.39700075168414,-12.8,1.47078171951487E-16));
#1035=CARTESIAN_POINT('',(-1.39700075168414,-12.8,1.47078171951487E-16));
#1036=CARTESIAN_POINT('Origin',(-3.77423783378414,-12.8,-4.35176984730145E-16));
#1037=CARTESIAN_POINT('Origin',(-3.77423783378414,-17.55,-4.62210828236459E-16));
#1038=CARTESIAN_POINT('Origin',(-5.,12.,3.28723940361844));
#1039=CARTESIAN_POINT('',(-7.37723708210543,15.9,3.28723940361844));
#1040=CARTESIAN_POINT('Origin',(-5.,15.9,3.28723940361844));
#1041=CARTESIAN_POINT('',(-7.37723708210543,12.,3.28723940361844));
#1042=CARTESIAN_POINT('',(-7.37723708210543,12.,3.28723940361844));
#1043=CARTESIAN_POINT('Origin',(-5.,12.,3.28723940361844));
#1044=CARTESIAN_POINT('Origin',(-5.,15.9,3.28723940361844));
#1045=CARTESIAN_POINT('Origin',(7.52956349223911E-16,12.,-6.14835518084192));
#1046=CARTESIAN_POINT('',(-2.3772370821,15.9,-6.14835518084192));
#1047=CARTESIAN_POINT('Origin',(7.52956349223911E-16,15.9,-6.14835518084192));
#1048=CARTESIAN_POINT('',(-2.3772370821,12.,-6.14835518084192));
#1049=CARTESIAN_POINT('',(-2.3772370821,12.,-6.14835518084192));
#1050=CARTESIAN_POINT('Origin',(7.52956349223911E-16,12.,-6.14835518084192));
#1051=CARTESIAN_POINT('Origin',(7.52956349223911E-16,15.9,-6.14835518084192));
#1052=CARTESIAN_POINT('Origin',(5.,12.,3.28723940361845));
#1053=CARTESIAN_POINT('',(2.6227629179,15.9,3.28723940361845));
#1054=CARTESIAN_POINT('Origin',(5.,15.9,3.28723940361845));
#1055=CARTESIAN_POINT('',(2.6227629179,12.,3.28723940361845));
#1056=CARTESIAN_POINT('',(2.6227629179,12.,3.28723940361845));
#1057=CARTESIAN_POINT('Origin',(5.,12.,3.28723940361845));
#1058=CARTESIAN_POINT('Origin',(5.,15.9,3.28723940361845));
#1059=CARTESIAN_POINT('Origin',(0.,-1.,0.));
#1060=CARTESIAN_POINT('',(7.11,-12.8,1.74144774838754E-15));
#1061=CARTESIAN_POINT('Origin',(0.,-12.8,0.));
#1062=CARTESIAN_POINT('',(7.11,-1.,1.74144774838754E-15));
#1063=CARTESIAN_POINT('',(7.11,-1.,1.74144774838754E-15));
#1064=CARTESIAN_POINT('Origin',(0.,-1.,0.));
#1065=CARTESIAN_POINT('Origin',(0.,-12.8,0.));
#1066=CARTESIAN_POINT('Origin',(0.,0.,0.));
#1067=CARTESIAN_POINT('',(8.11,-1.,1.98637710821701E-15));
#1068=CARTESIAN_POINT('Origin',(0.,-1.,0.));
#1069=CARTESIAN_POINT('',(8.11,0.,1.98637710821701E-15));
#1070=CARTESIAN_POINT('',(8.11,0.,1.98637710821701E-15));
#1071=CARTESIAN_POINT('Origin',(0.,0.,0.));
#1072=CARTESIAN_POINT('Origin',(0.,-1.,0.));
#1073=CARTESIAN_POINT('Origin',(0.,5.7,0.));
#1074=CARTESIAN_POINT('',(-9.2,12.,0.));
#1075=CARTESIAN_POINT('Origin',(0.,12.,0.));
#1076=CARTESIAN_POINT('',(-9.2,5.7,0.));
#1077=CARTESIAN_POINT('',(-9.2,5.7,0.));
#1078=CARTESIAN_POINT('Origin',(0.,5.7,0.));
#1079=CARTESIAN_POINT('Origin',(0.,12.,0.));
#1080=CARTESIAN_POINT('Origin',(0.,1.2,0.));
#1081=CARTESIAN_POINT('',(-9.6,5.7,0.));
#1082=CARTESIAN_POINT('Origin',(0.,5.7,0.));
#1083=CARTESIAN_POINT('',(-9.6,1.2,0.));
#1084=CARTESIAN_POINT('',(-9.6,1.2,0.));
#1085=CARTESIAN_POINT('Origin',(0.,1.2,0.));
#1086=CARTESIAN_POINT('Origin',(0.,5.7,0.));
#1087=CARTESIAN_POINT('Origin',(0.,0.,0.));
#1088=CARTESIAN_POINT('',(11.75,1.2,0.));
#1089=CARTESIAN_POINT('Origin',(0.,1.2,0.));
#1090=CARTESIAN_POINT('',(11.75,0.,0.));
#1091=CARTESIAN_POINT('',(11.75,0.,0.));
#1092=CARTESIAN_POINT('Origin',(0.,0.,0.));
#1093=CARTESIAN_POINT('Origin',(0.,1.2,0.));
#1094=CARTESIAN_POINT('Origin',(0.,0.,0.));
#1095=CARTESIAN_POINT('Origin',(-10.2686641291936,-6.9,-6.20922998461263));
#1096=CARTESIAN_POINT('',(-14.01,-6.9,-6.20922998461263));
#1097=CARTESIAN_POINT('',(-10.2686641291936,-6.9,-6.20922998461263));
#1098=CARTESIAN_POINT('',(-12.1393320645968,-6.9,-6.20922998461263));
#1099=CARTESIAN_POINT('',(-14.01,-10.9,-6.20922998461263));
#1100=CARTESIAN_POINT('',(-14.01,-6.9,-6.20922998461263));
#1101=CARTESIAN_POINT('',(-10.2686641291936,-10.9,-6.20922998461263));
#1102=CARTESIAN_POINT('',(-14.01,-10.9,-6.20922998461263));
#1103=CARTESIAN_POINT('',(-10.2686641291936,-6.9,-6.20922998461263));
#1104=CARTESIAN_POINT('Origin',(0.,-6.9,0.));
#1105=CARTESIAN_POINT('',(10.2686641291936,-6.9,-6.20922998461263));
#1106=CARTESIAN_POINT('Origin',(0.,-6.9,0.));
#1107=CARTESIAN_POINT('',(10.2686641291936,-10.9,-6.20922998461263));
#1108=CARTESIAN_POINT('Origin',(0.,-10.9,0.));
#1109=CARTESIAN_POINT('',(10.2686641291936,-6.9,-6.20922998461263));
#1110=CARTESIAN_POINT('Origin',(14.0100000000516,-6.9,-6.20922998461263));
#1111=CARTESIAN_POINT('',(14.0100000000516,-6.9,-6.20922998461263));
#1112=CARTESIAN_POINT('',(2.57927013080916E-11,-6.9,-6.20922998461263));
#1113=CARTESIAN_POINT('',(14.0100000000516,-10.9,-6.20922998461263));
#1114=CARTESIAN_POINT('',(-14.01,-10.9,-6.20922998461263));
#1115=CARTESIAN_POINT('',(14.0100000000516,-6.9,-6.20922998461263));
#1116=CARTESIAN_POINT('Origin',(2.57927013080916E-11,-10.9,-9.60461499230632));
#1117=CARTESIAN_POINT('',(-14.01,-10.9,-13.));
#1118=CARTESIAN_POINT('',(-14.01,-10.9,-13.));
#1119=CARTESIAN_POINT('',(14.0100000000516,-10.9,-13.));
#1120=CARTESIAN_POINT('',(14.0100000000516,-10.9,-13.));
#1121=CARTESIAN_POINT('',(14.0100000000516,-10.9,-6.20922998461263));
#1122=CARTESIAN_POINT('Origin',(10.56,-3.45,13.));
#1123=CARTESIAN_POINT('',(8.06,-3.45,13.));
#1124=CARTESIAN_POINT('Origin',(10.56,-3.45,13.));
#1125=CARTESIAN_POINT('',(8.06,-3.45,8.9));
#1126=CARTESIAN_POINT('',(8.06,-3.45,13.));
#1127=CARTESIAN_POINT('Origin',(10.56,-3.45,8.9));
#1128=CARTESIAN_POINT('Origin',(10.56,-3.45,8.9));
#1129=CARTESIAN_POINT('',(8.835,-3.45,8.9));
#1130=CARTESIAN_POINT('Origin',(10.56,-3.45,8.9));
#1131=CARTESIAN_POINT('Origin',(-10.56,-3.45,13.));
#1132=CARTESIAN_POINT('',(-13.06,-3.45,13.));
#1133=CARTESIAN_POINT('Origin',(-10.56,-3.45,13.));
#1134=CARTESIAN_POINT('',(-13.06,-3.45,8.9));
#1135=CARTESIAN_POINT('',(-13.06,-3.45,13.));
#1136=CARTESIAN_POINT('Origin',(-10.56,-3.45,8.9));
#1137=CARTESIAN_POINT('Origin',(-10.56,-3.45,8.9));
#1138=CARTESIAN_POINT('',(-12.285,-3.45,8.9));
#1139=CARTESIAN_POINT('Origin',(-10.56,-3.45,8.9));
#1140=CARTESIAN_POINT('Origin',(2.57927013080916E-11,-3.45,-13.));
#1141=CARTESIAN_POINT('',(-14.01,0.,-13.));
#1142=CARTESIAN_POINT('',(14.0100000000516,0.,-13.));
#1143=CARTESIAN_POINT('',(-14.01,0.,-13.));
#1144=CARTESIAN_POINT('',(14.0100000000516,0.,-13.));
#1145=CARTESIAN_POINT('',(-14.01,-6.9,-13.));
#1146=CARTESIAN_POINT('',(-12.285,-3.45,-13.));
#1147=CARTESIAN_POINT('Origin',(-10.56,-3.45,-13.));
#1148=CARTESIAN_POINT('',(8.835,-3.45,-13.));
#1149=CARTESIAN_POINT('Origin',(10.56,-3.45,-13.));
#1150=CARTESIAN_POINT('Origin',(10.56,-3.45,0.));
#1151=CARTESIAN_POINT('',(8.835,-3.45,0.));
#1152=CARTESIAN_POINT('Origin',(-10.56,-3.45,0.));
#1153=CARTESIAN_POINT('',(-12.285,-3.45,0.));
#1154=CARTESIAN_POINT('Origin',(14.0100000000516,-6.9,0.));
#1155=CARTESIAN_POINT('',(14.0100000000516,0.,13.));
#1156=CARTESIAN_POINT('',(14.0100000000516,0.,0.));
#1157=CARTESIAN_POINT('',(14.0100000000516,-6.9,13.));
#1158=CARTESIAN_POINT('',(14.0100000000516,0.,13.));
#1159=CARTESIAN_POINT('',(14.0100000000516,-6.9,0.));
#1160=CARTESIAN_POINT('Origin',(-14.01,-6.9,0.));
#1161=CARTESIAN_POINT('',(-14.01,-6.9,13.));
#1162=CARTESIAN_POINT('',(14.0100000000516,-6.9,13.));
#1163=CARTESIAN_POINT('',(-14.01,-6.9,0.));
#1164=CARTESIAN_POINT('Origin',(-14.01,0.,0.));
#1165=CARTESIAN_POINT('',(-14.01,0.,13.));
#1166=CARTESIAN_POINT('',(-14.01,-6.9,13.));
#1167=CARTESIAN_POINT('',(-14.01,0.,0.));
#1168=CARTESIAN_POINT('Origin',(14.0100000000516,0.,0.));
#1169=CARTESIAN_POINT('',(-14.01,0.,13.));
#1170=CARTESIAN_POINT('Origin',(2.57927013080916E-11,-3.45,13.));
#1171=CARTESIAN_POINT('Origin',(-5.00000000000001,15.9,-13.));
#1172=CARTESIAN_POINT('',(-4.25000000000001,15.9,-2.038));
#1173=CARTESIAN_POINT('Origin',(-5.00000000000001,15.9,-2.038));
#1174=CARTESIAN_POINT('',(-4.25000000000001,15.9,-13.));
#1175=CARTESIAN_POINT('',(-4.25000000000001,15.9,-13.));
#1176=CARTESIAN_POINT('Origin',(-5.00000000000001,15.9,-13.));
#1177=CARTESIAN_POINT('Origin',(-5.00000000000001,15.9,-13.));
#1178=CARTESIAN_POINT('Origin',(-5.00000000000001,15.9,-2.038));
#1179=CARTESIAN_POINT('Origin',(-3.77423783378414,-15.175,-13.));
#1180=CARTESIAN_POINT('',(-3.02423783378414,-15.175,-2.038));
#1181=CARTESIAN_POINT('Origin',(-3.77423783378414,-15.175,-2.038));
#1182=CARTESIAN_POINT('',(-3.02423783378414,-15.175,-13.));
#1183=CARTESIAN_POINT('',(-3.02423783378414,-15.175,-13.));
#1184=CARTESIAN_POINT('Origin',(-3.77423783378414,-15.175,-13.));
#1185=CARTESIAN_POINT('Origin',(-3.77423783378414,-15.175,-13.));
#1186=CARTESIAN_POINT('Origin',(-3.77423783378414,-15.175,-2.038));
#1187=CARTESIAN_POINT('Origin',(7.97972798949331E-16,15.9,-13.));
#1188=CARTESIAN_POINT('',(0.750000000000001,15.9,-2.038));
#1189=CARTESIAN_POINT('Origin',(7.97972798949331E-16,15.9,-2.038));
#1190=CARTESIAN_POINT('',(0.750000000000001,15.9,-13.));
#1191=CARTESIAN_POINT('',(0.750000000000001,15.9,-13.));
#1192=CARTESIAN_POINT('Origin',(7.97972798949331E-16,15.9,-13.));
#1193=CARTESIAN_POINT('Origin',(8.32667268468867E-16,15.9,-13.));
#1194=CARTESIAN_POINT('Origin',(8.32667268468867E-16,15.9,-2.038));
#1195=CARTESIAN_POINT('Origin',(3.7742378338,-15.175,-13.));
#1196=CARTESIAN_POINT('',(4.5242378338,-15.175,-2.038));
#1197=CARTESIAN_POINT('Origin',(3.7742378338,-15.175,-2.038));
#1198=CARTESIAN_POINT('',(4.5242378338,-15.175,-13.));
#1199=CARTESIAN_POINT('',(4.5242378338,-15.175,-13.));
#1200=CARTESIAN_POINT('Origin',(3.7742378338,-15.175,-13.));
#1201=CARTESIAN_POINT('Origin',(3.7742378338,-15.175,-13.));
#1202=CARTESIAN_POINT('Origin',(3.7742378338,-15.175,-2.038));
#1203=CARTESIAN_POINT('Origin',(5.,15.9,-13.));
#1204=CARTESIAN_POINT('',(5.75,15.9,-2.038));
#1205=CARTESIAN_POINT('Origin',(5.,15.9,-2.038));
#1206=CARTESIAN_POINT('',(5.75,15.9,-13.));
#1207=CARTESIAN_POINT('',(5.75,15.9,-13.));
#1208=CARTESIAN_POINT('Origin',(5.,15.9,-13.));
#1209=CARTESIAN_POINT('Origin',(5.,15.9,-13.));
#1210=CARTESIAN_POINT('Origin',(5.,15.9,-2.038));
#1211=UNCERTAINTY_MEASURE_WITH_UNIT(LENGTH_MEASURE(0.01),#1215,
'DISTANCE_ACCURACY_VALUE',
'Maximum model space distance between geometric entities at asserted c
onnectivities');
#1212=UNCERTAINTY_MEASURE_WITH_UNIT(LENGTH_MEASURE(0.01),#1215,
'DISTANCE_ACCURACY_VALUE',
'Maximum model space distance between geometric entities at asserted c
onnectivities');
#1213=(
GEOMETRIC_REPRESENTATION_CONTEXT(3)
GLOBAL_UNCERTAINTY_ASSIGNED_CONTEXT((#1211))
GLOBAL_UNIT_ASSIGNED_CONTEXT((#1215,#1217,#1218))
REPRESENTATION_CONTEXT('','3D')
);
#1214=(
GEOMETRIC_REPRESENTATION_CONTEXT(3)
GLOBAL_UNCERTAINTY_ASSIGNED_CONTEXT((#1212))
GLOBAL_UNIT_ASSIGNED_CONTEXT((#1215,#1217,#1218))
REPRESENTATION_CONTEXT('','3D')
);
#1215=(
LENGTH_UNIT()
NAMED_UNIT(*)
SI_UNIT(.MILLI.,.METRE.)
);
#1216=(
LENGTH_UNIT()
NAMED_UNIT(*)
SI_UNIT($,.METRE.)
);
#1217=(
NAMED_UNIT(*)
PLANE_ANGLE_UNIT()
SI_UNIT($,.RADIAN.)
);
#1218=(
NAMED_UNIT(*)
SI_UNIT($,.STERADIAN.)
SOLID_ANGLE_UNIT()
);
#1219=SHAPE_DEFINITION_REPRESENTATION(#1220,#1221);
#1220=PRODUCT_DEFINITION_SHAPE('',$,#1223);
#1221=SHAPE_REPRESENTATION('',(#703),#1213);
#1222=PRODUCT_DEFINITION_CONTEXT('part definition',#1227,'design');
#1223=PRODUCT_DEFINITION('(Unsaved)','(Unsaved)',#1224,#1222);
#1224=PRODUCT_DEFINITION_FORMATION('',$,#1229);
#1225=PRODUCT_RELATED_PRODUCT_CATEGORY('(Unsaved)','(Unsaved)',(#1229));
#1226=APPLICATION_PROTOCOL_DEFINITION('international standard',
'automotive_design',2009,#1227);
#1227=APPLICATION_CONTEXT(
'Core Data for Automotive Mechanical Design Process');
#1228=PRODUCT_CONTEXT('part definition',#1227,'mechanical');
#1229=PRODUCT('(Unsaved)','(Unsaved)',$,(#1228));
#1230=PRESENTATION_STYLE_ASSIGNMENT((#1231));
#1231=SURFACE_STYLE_USAGE(.BOTH.,#1232);
#1232=SURFACE_SIDE_STYLE('',(#1233));
#1233=SURFACE_STYLE_FILL_AREA(#1234);
#1234=FILL_AREA_STYLE('Steel - Satin',(#1235));
#1235=FILL_AREA_STYLE_COLOUR('Steel - Satin',#1236);
#1236=COLOUR_RGB('Steel - Satin',0.627450980392157,0.627450980392157,0.627450980392157);
ENDSEC;
END-ISO-10303-21;
