M48
; DRILL file {KiCad 9.0.0} date 2025-05-05T23:55:39-0700
; FORMAT={-:-/ absolute / inch / decimal}
; #@! TF.CreationDate,2025-05-05T23:55:39-07:00
; #@! TF.GenerationSoftware,Kicad,Pcbnew,9.0.0
; #@! TF.FileFunction,Plated,1,2,PTH
FMAT,2
INCH
; #@! TA.AperFunction,Plated,PTH,ViaDrill
T1C0.0295
; #@! TA.AperFunction,Plated,PTH,ComponentDrill
T2C0.0295
; #@! TA.AperFunction,Plated,PTH,ComponentDrill
T3C0.0394
; #@! TA.AperFunction,Plated,PTH,ComponentDrill
T4C0.0430
; #@! TA.AperFunction,Plated,PTH,ComponentDrill
T5C0.0512
; #@! TA.AperFunction,Plated,PTH,ComponentDrill
T6C0.0551
; #@! TA.AperFunction,Plated,PTH,ComponentDrill
T7C0.0728
%
G90
G05
T1
X1.8902Y-3.3622
X2.1598Y-3.2665
X2.5079Y-2.9752
X3.0685Y-3.0535
X3.1087Y-3.3909
X3.126Y-3.5559
X3.426Y-4.1969
X3.7858Y-3.2839
X3.8122Y-2.9665
X4.4598Y-3.5492
X4.4642Y-4.8449
X4.5862Y-3.3579
X4.7598Y-3.6925
T2
X3.1217Y-3.8322
X3.1217Y-4.1078
X3.9051Y-3.8322
X3.9051Y-4.1078
X4.6394Y-3.8322
X4.6394Y-4.1078
T3
X3.3429Y-3.9992
X3.4429Y-3.9992
X4.1331Y-3.9992
X4.2331Y-3.9992
X4.9224Y-3.9992
X5.0224Y-3.9992
T4
X3.1811Y-2.7685
X3.1811Y-3.1685
X3.1811Y-3.4685
X3.4811Y-2.7685
X3.4811Y-3.1685
X3.4811Y-3.4685
X4.0134Y-2.7685
X4.0134Y-3.1685
X4.0134Y-3.4685
X4.3134Y-2.7685
X4.3134Y-3.1685
X4.3134Y-3.4685
X4.8201Y-2.7685
X4.8201Y-3.1685
X4.8201Y-3.4685
X5.1201Y-2.7685
X5.1201Y-3.1685
X5.1201Y-3.4685
T5
X3.0268Y-2.4079
X3.6268Y-2.4079
X3.8591Y-2.4079
X4.4591Y-2.4079
X4.6701Y-2.4079
X5.2701Y-2.4079
T6
X2.3524Y-4.0319
X2.3524Y-4.1972
X2.3524Y-4.3626
X2.3571Y-3.2508
X2.3571Y-3.4161
X2.3571Y-3.5815
X2.3581Y-2.5
X2.3581Y-2.6654
X2.3581Y-2.8307
X2.5689Y-4.0319
X2.5689Y-4.1972
X2.5689Y-4.3626
X2.5736Y-3.2508
X2.5736Y-3.4161
X2.5736Y-3.5815
X2.5746Y-2.5
X2.5746Y-2.6654
X2.5746Y-2.8307
X5.5016Y-3.8202
X5.5016Y-4.0368
X5.5043Y-2.876
X5.5043Y-3.0925
X5.6669Y-3.8202
X5.6669Y-4.0368
X5.6697Y-2.876
X5.6697Y-3.0925
T7
X3.1909Y-4.4065
X3.376Y-4.4065
X3.561Y-4.4065
X3.9528Y-4.4065
X4.1378Y-4.4065
X4.3228Y-4.4065
X4.7051Y-4.4065
X4.8902Y-4.4065
X5.0752Y-4.4065
M30
