%TF.GenerationSoftware,KiCad,Pcbnew,9.0.0*%
%TF.CreationDate,2025-05-05T23:55:40-07:00*%
%TF.ProjectId,Latchboard V9,4c617463-6862-46f6-9172-642056392e6b,rev?*%
%TF.SameCoordinates,Original*%
%TF.FileFunction,Copper,L1,Top*%
%TF.FilePolarity,Positive*%
%FSLAX46Y46*%
G04 Gerber Fmt 4.6, Leading zero omitted, Abs format (unit mm)*
G04 Created by KiCad (PCBNEW 9.0.0) date 2025-05-05 23:55:40*
%MOMM*%
%LPD*%
G01*
G04 APERTURE LIST*
%TA.AperFunction,ComponentPad*%
%ADD10R,1.900000X1.900000*%
%TD*%
%TA.AperFunction,ComponentPad*%
%ADD11C,1.900000*%
%TD*%
%TA.AperFunction,ComponentPad*%
%ADD12R,2.600000X2.600000*%
%TD*%
%TA.AperFunction,ComponentPad*%
%ADD13O,2.600000X2.600000*%
%TD*%
%TA.AperFunction,ComponentPad*%
%ADD14C,1.258000*%
%TD*%
%TA.AperFunction,ComponentPad*%
%ADD15R,2.775000X2.775000*%
%TD*%
%TA.AperFunction,ComponentPad*%
%ADD16C,2.775000*%
%TD*%
%TA.AperFunction,ComponentPad*%
%ADD17C,1.508000*%
%TD*%
%TA.AperFunction,ComponentPad*%
%ADD18R,1.508000X1.508000*%
%TD*%
%TA.AperFunction,ComponentPad*%
%ADD19C,1.600200*%
%TD*%
%TA.AperFunction,ViaPad*%
%ADD20C,1.500000*%
%TD*%
%TA.AperFunction,Conductor*%
%ADD21C,1.500000*%
%TD*%
G04 APERTURE END LIST*
D10*
%TO.P,J3,1,1*%
%TO.N,+12V*%
X65395750Y-63500000D03*
D11*
%TO.P,J3,2,2*%
%TO.N,IMD FAULT*%
X65395750Y-67700000D03*
%TO.P,J3,3,3*%
%TO.N,+12V*%
X65395750Y-71900000D03*
%TO.P,J3,4,4*%
%TO.N,/LED 1B*%
X59895750Y-63500000D03*
%TO.P,J3,5,5*%
%TO.N,/LED 2B*%
X59895750Y-67700000D03*
%TO.P,J3,6,6*%
%TO.N,/LED 3B*%
X59895750Y-71900000D03*
%TD*%
%TO.P,J1,4,4*%
%TO.N,/DEBUG 1A*%
X144010000Y-78550000D03*
%TO.P,J1,3,3*%
%TO.N,/DEBUG 3B*%
X139810000Y-78550000D03*
%TO.P,J1,2,2*%
%TO.N,+12V*%
X144010000Y-73050000D03*
D10*
%TO.P,J1,1,1*%
%TO.N,GND*%
X139810000Y-73050000D03*
%TD*%
%TO.P,J2,1,1*%
%TO.N,BSPD Fault*%
X139740000Y-97034250D03*
D11*
%TO.P,J2,2,2*%
%TO.N,unconnected-(J2-Pad2)*%
X143940000Y-97034250D03*
%TO.P,J2,3,3*%
%TO.N,IMD FAULT*%
X139740000Y-102534250D03*
%TO.P,J2,4,4*%
%TO.N,BMS FAULT*%
X143940000Y-102534250D03*
%TD*%
%TO.P,J4,6,6*%
%TO.N,/DEBUG 3B*%
X59870000Y-90970000D03*
%TO.P,J4,5,5*%
%TO.N,/DEBUG 2B*%
X59870000Y-86770000D03*
%TO.P,J4,4,4*%
%TO.N,/DEBUG 1B*%
X59870000Y-82570000D03*
%TO.P,J4,3,3*%
%TO.N,/DEBUG 2B*%
X65370000Y-90970000D03*
%TO.P,J4,2,2*%
%TO.N,/DEBUG 1B*%
X65370000Y-86770000D03*
D10*
%TO.P,J4,1,1*%
%TO.N,/DEBUG 1A*%
X65370000Y-82570000D03*
%TD*%
D11*
%TO.P,J5,6,6*%
%TO.N,/LED 3B*%
X59750000Y-110810000D03*
%TO.P,J5,5,5*%
%TO.N,/LED 2B*%
X59750000Y-106610000D03*
%TO.P,J5,4,4*%
%TO.N,/LED 1B*%
X59750000Y-102410000D03*
%TO.P,J5,3,3*%
%TO.N,BMS FAULT*%
X65250000Y-110810000D03*
%TO.P,J5,2,2*%
%TO.N,GND*%
X65250000Y-106610000D03*
D10*
%TO.P,J5,1,1*%
%TO.N,BSPD Fault*%
X65250000Y-102410000D03*
%TD*%
D12*
%TO.P,D2,1,K*%
%TO.N,/LED 2B*%
X113260000Y-61160000D03*
D13*
%TO.P,D2,2,A*%
%TO.N,GND*%
X98020000Y-61160000D03*
%TD*%
D14*
%TO.P,R1,1*%
%TO.N,BSPD Fault*%
X79290000Y-104338500D03*
%TO.P,R1,2*%
%TO.N,Net-(LED1-PadC)*%
X79290000Y-97338500D03*
%TD*%
D15*
%TO.P,S3,1,1*%
%TO.N,unconnected-(S3-Pad1)*%
X119510000Y-111924250D03*
D16*
%TO.P,S3,2,2*%
%TO.N,+12V*%
X124210000Y-111924250D03*
%TO.P,S3,3,3*%
%TO.N,/LED 3B*%
X128910000Y-111924250D03*
%TD*%
D12*
%TO.P,D1,1,K*%
%TO.N,/LED 1B*%
X92120000Y-61160000D03*
D13*
%TO.P,D1,2,A*%
%TO.N,BSPD Fault*%
X76880000Y-61160000D03*
%TD*%
D17*
%TO.P,LED3,A,A*%
%TO.N,/LED 3B*%
X127570000Y-101580000D03*
D18*
%TO.P,LED3,C,C*%
%TO.N,Net-(LED3-PadC)*%
X125030000Y-101580000D03*
%TD*%
D12*
%TO.P,D3,1,K*%
%TO.N,/LED 3B*%
X133860000Y-61160000D03*
D13*
%TO.P,D3,2,A*%
%TO.N,BMS FAULT*%
X118620000Y-61160000D03*
%TD*%
D17*
%TO.P,LED1,A,A*%
%TO.N,/LED 1B*%
X87450000Y-101580000D03*
D18*
%TO.P,LED1,C,C*%
%TO.N,Net-(LED1-PadC)*%
X84910000Y-101580000D03*
%TD*%
D14*
%TO.P,R2,1*%
%TO.N,GND*%
X99190000Y-104338500D03*
%TO.P,R2,2*%
%TO.N,Net-(LED2-PadC)*%
X99190000Y-97338500D03*
%TD*%
D19*
%TO.P,K3,1,1*%
%TO.N,BMS FAULT*%
X122430000Y-70320000D03*
%TO.P,K3,3,3*%
%TO.N,+12V*%
X122430000Y-80480000D03*
%TO.P,K3,4,4*%
%TO.N,/LED 3B*%
X122430000Y-88100000D03*
%TO.P,K3,5,5*%
%TO.N,/DEBUG 2B*%
X130050000Y-88100000D03*
%TO.P,K3,6,6*%
%TO.N,/DEBUG 3B*%
X130050000Y-80480000D03*
%TO.P,K3,8,8*%
%TO.N,/LED 3B*%
X130050000Y-70320000D03*
%TD*%
%TO.P,K2,1,1*%
%TO.N,GND*%
X101940000Y-70320000D03*
%TO.P,K2,3,3*%
%TO.N,IMD FAULT*%
X101940000Y-80480000D03*
%TO.P,K2,4,4*%
%TO.N,/LED 2B*%
X101940000Y-88100000D03*
%TO.P,K2,5,5*%
%TO.N,/DEBUG 1B*%
X109560000Y-88100000D03*
%TO.P,K2,6,6*%
%TO.N,/DEBUG 2B*%
X109560000Y-80480000D03*
%TO.P,K2,8,8*%
%TO.N,/LED 2B*%
X109560000Y-70320000D03*
%TD*%
%TO.P,K1,1,1*%
%TO.N,BSPD Fault*%
X80800000Y-70320000D03*
%TO.P,K1,3,3*%
%TO.N,+12V*%
X80800000Y-80480000D03*
%TO.P,K1,4,4*%
%TO.N,/LED 1B*%
X80800000Y-88100000D03*
%TO.P,K1,5,5*%
%TO.N,/DEBUG 1A*%
X88420000Y-88100000D03*
%TO.P,K1,6,6*%
%TO.N,/DEBUG 1B*%
X88420000Y-80480000D03*
%TO.P,K1,8,8*%
%TO.N,/LED 1B*%
X88420000Y-70320000D03*
%TD*%
D14*
%TO.P,R3,1*%
%TO.N,BMS FAULT*%
X117840000Y-104338500D03*
%TO.P,R3,2*%
%TO.N,Net-(LED3-PadC)*%
X117840000Y-97338500D03*
%TD*%
D17*
%TO.P,LED2,A,A*%
%TO.N,/LED 2B*%
X107520000Y-101580000D03*
D18*
%TO.P,LED2,C,C*%
%TO.N,Net-(LED2-PadC)*%
X104980000Y-101580000D03*
%TD*%
D15*
%TO.P,S2,1,1*%
%TO.N,unconnected-(S2-Pad1)*%
X100400000Y-111924250D03*
D16*
%TO.P,S2,2,2*%
%TO.N,IMD FAULT*%
X105100000Y-111924250D03*
%TO.P,S2,3,3*%
%TO.N,/LED 2B*%
X109800000Y-111924250D03*
%TD*%
D15*
%TO.P,S1,1,1*%
%TO.N,unconnected-(S1-Pad1)*%
X81050000Y-111924250D03*
D16*
%TO.P,S1,2,2*%
%TO.N,+12V*%
X85750000Y-111924250D03*
%TO.P,S1,3,3*%
%TO.N,/LED 1B*%
X90450000Y-111924250D03*
%TD*%
D20*
%TO.N,BSPD Fault*%
X79400000Y-90320000D03*
X78960000Y-86130000D03*
%TO.N,/LED 2B*%
X87020000Y-106600000D03*
%TO.N,/LED 3B*%
X113390000Y-123060000D03*
X63700000Y-75570000D03*
%TO.N,IMD FAULT*%
X96830000Y-75350000D03*
%TO.N,BMS FAULT*%
X113280000Y-90150000D03*
X116490000Y-85290000D03*
%TO.N,/DEBUG 2B*%
X120900000Y-93790000D03*
%TO.N,/DEBUG 1B*%
X96160000Y-83410000D03*
X77940000Y-77560000D03*
%TO.N,/LED 2B*%
X54860000Y-82970000D03*
%TO.N,/LED 3B*%
X48010000Y-85400000D03*
%TD*%
D21*
%TO.N,BSPD Fault*%
X79400000Y-90320000D02*
X67310000Y-102410000D01*
X67310000Y-102410000D02*
X65250000Y-102410000D01*
X82551100Y-82538900D02*
X78960000Y-86130000D01*
X82551100Y-72071100D02*
X82551100Y-82538900D01*
X80800000Y-70320000D02*
X82551100Y-72071100D01*
X79290000Y-104338500D02*
X67178500Y-104338500D01*
%TO.N,/LED 2B*%
X85109000Y-108511000D02*
X87020000Y-106600000D01*
X59750000Y-106610000D02*
X61651000Y-108511000D01*
X61651000Y-108511000D02*
X85109000Y-108511000D01*
%TO.N,/LED 3B*%
X72000000Y-123060000D02*
X113390000Y-123060000D01*
X59750000Y-110810000D02*
X72000000Y-123060000D01*
X63700000Y-75570000D02*
X69770000Y-75570000D01*
X69770000Y-75570000D02*
X72530000Y-72810000D01*
X72530000Y-72810000D02*
X72530000Y-58120000D01*
X72530000Y-58120000D02*
X75840000Y-54810000D01*
X75840000Y-54810000D02*
X127510000Y-54810000D01*
X127510000Y-54810000D02*
X133860000Y-61160000D01*
%TO.N,IMD FAULT*%
X96830000Y-75350000D02*
X96830000Y-75370000D01*
X96830000Y-75370000D02*
X101940000Y-80480000D01*
%TO.N,BMS FAULT*%
X122430000Y-70320000D02*
X116490000Y-76260000D01*
X116490000Y-76260000D02*
X116490000Y-85290000D01*
X113280000Y-90150000D02*
X113280000Y-99778500D01*
X113280000Y-99778500D02*
X117840000Y-104338500D01*
%TO.N,/DEBUG 2B*%
X109560000Y-82450000D02*
X120900000Y-93790000D01*
X109560000Y-80480000D02*
X109560000Y-82450000D01*
%TO.N,/DEBUG 1B*%
X96160000Y-83410000D02*
X91350000Y-83410000D01*
X91350000Y-83410000D02*
X88420000Y-80480000D01*
X68730000Y-86770000D02*
X77940000Y-77560000D01*
X65370000Y-86770000D02*
X68730000Y-86770000D01*
%TO.N,/DEBUG 2B*%
X59870000Y-86770000D02*
X61170000Y-86770000D01*
X61170000Y-86770000D02*
X65370000Y-90970000D01*
%TO.N,/DEBUG 1B*%
X59870000Y-82570000D02*
X61170000Y-82570000D01*
X61170000Y-82570000D02*
X65370000Y-86770000D01*
%TO.N,/LED 2B*%
X54860000Y-82970000D02*
X54860000Y-72735750D01*
X54860000Y-72735750D02*
X59895750Y-67700000D01*
%TO.N,/LED 3B*%
X48010000Y-99070000D02*
X48010000Y-85400000D01*
X59750000Y-110810000D02*
X48010000Y-99070000D01*
%TO.N,/LED 1B*%
X51990000Y-71405750D02*
X51990000Y-96990000D01*
X59895750Y-63500000D02*
X51990000Y-71405750D01*
X51990000Y-96990000D02*
X57410000Y-102410000D01*
X57410000Y-102410000D02*
X59750000Y-102410000D01*
%TO.N,IMD FAULT*%
X101940000Y-80480000D02*
X93730000Y-88690000D01*
X93730000Y-88690000D02*
X93730000Y-102410000D01*
X93730000Y-102410000D02*
X98810000Y-107490000D01*
X98810000Y-107490000D02*
X100665750Y-107490000D01*
X100665750Y-107490000D02*
X105100000Y-111924250D01*
X139740000Y-108750000D02*
X128300000Y-120190000D01*
X109310000Y-120190000D02*
X105100000Y-115980000D01*
X139740000Y-102534250D02*
X139740000Y-108750000D01*
X105100000Y-115980000D02*
X105100000Y-111924250D01*
X128300000Y-120190000D02*
X109310000Y-120190000D01*
%TO.N,/LED 1B*%
X59750000Y-102410000D02*
X74060000Y-88100000D01*
X74060000Y-88100000D02*
X80800000Y-88100000D01*
%TO.N,/LED 3B*%
X122430000Y-88100000D02*
X127570000Y-93240000D01*
X127570000Y-93240000D02*
X127570000Y-101580000D01*
X128910000Y-111924250D02*
X128910000Y-102920000D01*
X128910000Y-102920000D02*
X127570000Y-101580000D01*
%TO.N,/LED 2B*%
X109800000Y-111924250D02*
X109800000Y-103860000D01*
X109800000Y-103860000D02*
X107520000Y-101580000D01*
%TO.N,/LED 1B*%
X90450000Y-111924250D02*
X90450000Y-104580000D01*
X90450000Y-104580000D02*
X87450000Y-101580000D01*
%TO.N,BSPD Fault*%
X67178500Y-104338500D02*
X65250000Y-102410000D01*
%TO.N,Net-(LED3-PadC)*%
X117840000Y-97338500D02*
X120788500Y-97338500D01*
X120788500Y-97338500D02*
X125030000Y-101580000D01*
%TO.N,Net-(LED1-PadC)*%
X79290000Y-97338500D02*
X80668500Y-97338500D01*
X80668500Y-97338500D02*
X84910000Y-101580000D01*
%TO.N,/LED 1B*%
X87450000Y-101580000D02*
X87450000Y-94750000D01*
X87450000Y-94750000D02*
X80800000Y-88100000D01*
%TO.N,/LED 2B*%
X107520000Y-101580000D02*
X107520000Y-93680000D01*
X107520000Y-93680000D02*
X101940000Y-88100000D01*
%TO.N,Net-(LED2-PadC)*%
X99190000Y-97338500D02*
X100738500Y-97338500D01*
X100738500Y-97338500D02*
X104980000Y-101580000D01*
%TO.N,/DEBUG 3B*%
X139810000Y-78550000D02*
X131980000Y-78550000D01*
X131980000Y-78550000D02*
X130050000Y-80480000D01*
%TO.N,/LED 1B*%
X80800000Y-88100000D02*
X84460000Y-84440000D01*
X84460000Y-84440000D02*
X84460000Y-74280000D01*
X84460000Y-74280000D02*
X88420000Y-70320000D01*
%TO.N,/LED 3B*%
X122430000Y-88100000D02*
X126200000Y-84330000D01*
X126200000Y-84330000D02*
X126200000Y-74170000D01*
X126200000Y-74170000D02*
X130050000Y-70320000D01*
%TO.N,/LED 2B*%
X109560000Y-70320000D02*
X106100000Y-73780000D01*
X106100000Y-73780000D02*
X106100000Y-83940000D01*
X106100000Y-83940000D02*
X101940000Y-88100000D01*
%TO.N,BMS FAULT*%
X118620000Y-61160000D02*
X118620000Y-66510000D01*
X118620000Y-66510000D02*
X122430000Y-70320000D01*
%TO.N,/LED 3B*%
X133860000Y-61160000D02*
X133860000Y-66510000D01*
X133860000Y-66510000D02*
X130050000Y-70320000D01*
%TO.N,/LED 1B*%
X92120000Y-61160000D02*
X92120000Y-66620000D01*
X92120000Y-66620000D02*
X88420000Y-70320000D01*
%TO.N,/LED 2B*%
X113260000Y-61160000D02*
X113260000Y-66620000D01*
X113260000Y-66620000D02*
X109560000Y-70320000D01*
%TO.N,BSPD Fault*%
X76880000Y-61160000D02*
X76880000Y-66400000D01*
X76880000Y-66400000D02*
X80800000Y-70320000D01*
%TD*%
%TA.AperFunction,Conductor*%
%TO.N,+12V*%
G36*
X151182539Y-49680185D02*
G01*
X151228294Y-49732989D01*
X151239500Y-49784500D01*
X151239500Y-129320500D01*
X151219815Y-129387539D01*
X151167011Y-129433294D01*
X151115500Y-129444500D01*
X46594500Y-129444500D01*
X46527461Y-129424815D01*
X46481706Y-129372011D01*
X46470500Y-129320500D01*
X46470500Y-120828711D01*
X55309500Y-120828711D01*
X55309500Y-121071288D01*
X55341161Y-121311785D01*
X55403947Y-121546104D01*
X55468434Y-121701789D01*
X55496776Y-121770212D01*
X55618064Y-121980289D01*
X55618066Y-121980292D01*
X55618067Y-121980293D01*
X55765733Y-122172736D01*
X55765739Y-122172743D01*
X55937256Y-122344260D01*
X55937262Y-122344265D01*
X56129711Y-122491936D01*
X56339788Y-122613224D01*
X56563900Y-122706054D01*
X56798211Y-122768838D01*
X56978586Y-122792584D01*
X57038711Y-122800500D01*
X57038712Y-122800500D01*
X57281289Y-122800500D01*
X57329388Y-122794167D01*
X57521789Y-122768838D01*
X57756100Y-122706054D01*
X57980212Y-122613224D01*
X58190289Y-122491936D01*
X58382738Y-122344265D01*
X58554265Y-122172738D01*
X58701936Y-121980289D01*
X58823224Y-121770212D01*
X58916054Y-121546100D01*
X58978838Y-121311789D01*
X59010500Y-121071288D01*
X59010500Y-120828712D01*
X58978838Y-120588211D01*
X58916054Y-120353900D01*
X58823224Y-120129788D01*
X58701936Y-119919711D01*
X58641018Y-119840321D01*
X58554266Y-119727263D01*
X58554260Y-119727256D01*
X58382743Y-119555739D01*
X58382736Y-119555733D01*
X58190293Y-119408067D01*
X58190292Y-119408066D01*
X58190289Y-119408064D01*
X57980212Y-119286776D01*
X57980205Y-119286773D01*
X57756104Y-119193947D01*
X57521785Y-119131161D01*
X57281289Y-119099500D01*
X57281288Y-119099500D01*
X57038712Y-119099500D01*
X57038711Y-119099500D01*
X56798214Y-119131161D01*
X56563895Y-119193947D01*
X56339794Y-119286773D01*
X56339785Y-119286777D01*
X56129706Y-119408067D01*
X55937263Y-119555733D01*
X55937256Y-119555739D01*
X55765739Y-119727256D01*
X55765733Y-119727263D01*
X55618067Y-119919706D01*
X55496777Y-120129785D01*
X55496773Y-120129794D01*
X55403947Y-120353895D01*
X55341161Y-120588214D01*
X55309500Y-120828711D01*
X46470500Y-120828711D01*
X46470500Y-85301577D01*
X46759500Y-85301577D01*
X46759500Y-99168422D01*
X46790290Y-99362826D01*
X46851117Y-99550030D01*
X46917383Y-99680083D01*
X46940476Y-99725405D01*
X47056172Y-99884646D01*
X47056174Y-99884648D01*
X58320916Y-111149390D01*
X58351166Y-111198752D01*
X58405770Y-111366803D01*
X58501728Y-111555129D01*
X58509421Y-111570228D01*
X58643621Y-111754937D01*
X58805063Y-111916379D01*
X58989772Y-112050579D01*
X59193201Y-112154231D01*
X59361245Y-112208832D01*
X59410607Y-112239081D01*
X71185354Y-124013828D01*
X71344595Y-124129524D01*
X71427454Y-124171742D01*
X71519969Y-124218882D01*
X71519971Y-124218882D01*
X71519974Y-124218884D01*
X71620318Y-124251487D01*
X71707173Y-124279709D01*
X71901578Y-124310500D01*
X71901583Y-124310500D01*
X113488422Y-124310500D01*
X113682826Y-124279709D01*
X113870025Y-124218884D01*
X114045405Y-124129524D01*
X114204646Y-124013828D01*
X114343828Y-123874646D01*
X114459524Y-123715405D01*
X114548884Y-123540025D01*
X114609709Y-123352826D01*
X114635419Y-123190500D01*
X114640500Y-123158422D01*
X114640500Y-122961577D01*
X114609709Y-122767173D01*
X114559687Y-122613224D01*
X114548884Y-122579975D01*
X114548882Y-122579972D01*
X114548882Y-122579970D01*
X114459523Y-122404594D01*
X114343828Y-122245354D01*
X114204646Y-122106172D01*
X114045405Y-121990476D01*
X114025412Y-121980289D01*
X113870029Y-121901117D01*
X113682826Y-121840290D01*
X113488422Y-121809500D01*
X113488417Y-121809500D01*
X72569336Y-121809500D01*
X72502297Y-121789815D01*
X72481655Y-121773181D01*
X61179081Y-110470607D01*
X61148832Y-110421245D01*
X61094231Y-110253201D01*
X60990579Y-110049772D01*
X60856379Y-109865063D01*
X60694937Y-109703621D01*
X60510228Y-109569421D01*
X60306803Y-109465770D01*
X60138752Y-109411166D01*
X60089390Y-109380916D01*
X57204311Y-106495837D01*
X58299500Y-106495837D01*
X58299500Y-106724162D01*
X58335215Y-106949660D01*
X58405770Y-107166803D01*
X58509421Y-107370228D01*
X58643621Y-107554937D01*
X58805063Y-107716379D01*
X58989772Y-107850579D01*
X59193201Y-107954231D01*
X59361245Y-108008832D01*
X59410607Y-108039081D01*
X60836354Y-109464828D01*
X60995595Y-109580524D01*
X61170974Y-109669884D01*
X61170976Y-109669884D01*
X61170979Y-109669886D01*
X61170977Y-109669886D01*
X61255822Y-109697453D01*
X61255823Y-109697453D01*
X61306998Y-109714081D01*
X61358173Y-109730709D01*
X61552578Y-109761500D01*
X61552583Y-109761500D01*
X63975500Y-109761500D01*
X64042539Y-109781185D01*
X64088294Y-109833989D01*
X64098238Y-109903147D01*
X64075818Y-109958383D01*
X64045633Y-109999931D01*
X64009421Y-110049771D01*
X63905770Y-110253196D01*
X63835215Y-110470339D01*
X63799500Y-110695837D01*
X63799500Y-110924162D01*
X63835215Y-111149660D01*
X63905770Y-111366803D01*
X64001728Y-111555129D01*
X64009421Y-111570228D01*
X64143621Y-111754937D01*
X64305063Y-111916379D01*
X64489772Y-112050579D01*
X64585884Y-112099550D01*
X64693196Y-112154229D01*
X64693198Y-112154229D01*
X64693201Y-112154231D01*
X64809592Y-112192049D01*
X64910339Y-112224784D01*
X65135838Y-112260500D01*
X65135843Y-112260500D01*
X65364162Y-112260500D01*
X65589660Y-112224784D01*
X65806799Y-112154231D01*
X66010228Y-112050579D01*
X66194937Y-111916379D01*
X66356379Y-111754937D01*
X66490579Y-111570228D01*
X66594231Y-111366799D01*
X66664784Y-111149660D01*
X66671933Y-111104525D01*
X66700500Y-110924162D01*
X66700500Y-110695837D01*
X66670267Y-110504954D01*
X66667721Y-110488885D01*
X79162000Y-110488885D01*
X79162000Y-113359620D01*
X79162001Y-113359626D01*
X79168408Y-113419233D01*
X79218702Y-113554078D01*
X79218706Y-113554085D01*
X79304952Y-113669294D01*
X79304955Y-113669297D01*
X79420164Y-113755543D01*
X79420171Y-113755547D01*
X79555017Y-113805841D01*
X79555016Y-113805841D01*
X79561944Y-113806585D01*
X79614627Y-113812250D01*
X82485372Y-113812249D01*
X82544983Y-113805841D01*
X82679831Y-113755546D01*
X82795046Y-113669296D01*
X82881296Y-113554081D01*
X82931591Y-113419233D01*
X82938000Y-113359623D01*
X82937999Y-111800529D01*
X83862500Y-111800529D01*
X83862500Y-112047970D01*
X83894795Y-112293264D01*
X83894797Y-112293275D01*
X83958834Y-112532268D01*
X83958837Y-112532278D01*
X84053518Y-112760857D01*
X84053523Y-112760868D01*
X84177229Y-112975131D01*
X84177235Y-112975139D01*
X84250315Y-113070379D01*
X84941497Y-112379197D01*
X85031505Y-112513903D01*
X85160347Y-112642745D01*
X85295051Y-112732751D01*
X84603869Y-113423933D01*
X84699110Y-113497014D01*
X84699118Y-113497020D01*
X84913381Y-113620726D01*
X84913392Y-113620731D01*
X85141971Y-113715412D01*
X85141981Y-113715415D01*
X85380974Y-113779452D01*
X85380985Y-113779454D01*
X85626279Y-113811749D01*
X85626294Y-113811750D01*
X85873706Y-113811750D01*
X85873720Y-113811749D01*
X86119014Y-113779454D01*
X86119025Y-113779452D01*
X86358018Y-113715415D01*
X86358028Y-113715412D01*
X86586607Y-113620731D01*
X86586618Y-113620726D01*
X86800881Y-113497020D01*
X86800899Y-113497008D01*
X86896129Y-113423934D01*
X86896129Y-113423932D01*
X86204948Y-112732751D01*
X86339653Y-112642745D01*
X86468495Y-112513903D01*
X86558501Y-112379198D01*
X87249682Y-113070379D01*
X87249684Y-113070379D01*
X87322758Y-112975149D01*
X87322770Y-112975131D01*
X87446476Y-112760868D01*
X87446481Y-112760857D01*
X87541162Y-112532278D01*
X87541165Y-112532268D01*
X87605202Y-112293275D01*
X87605204Y-112293264D01*
X87637499Y-112047970D01*
X87637500Y-112047956D01*
X87637500Y-111800543D01*
X87637499Y-111800529D01*
X87605204Y-111555235D01*
X87605202Y-111555224D01*
X87541165Y-111316231D01*
X87541162Y-111316221D01*
X87446481Y-111087642D01*
X87446476Y-111087631D01*
X87322770Y-110873368D01*
X87322764Y-110873360D01*
X87249683Y-110778119D01*
X86558501Y-111469301D01*
X86468495Y-111334597D01*
X86339653Y-111205755D01*
X86204948Y-111115747D01*
X86896129Y-110424565D01*
X86800889Y-110351485D01*
X86800881Y-110351479D01*
X86586618Y-110227773D01*
X86586607Y-110227768D01*
X86358028Y-110133087D01*
X86358018Y-110133084D01*
X86119025Y-110069047D01*
X86119014Y-110069045D01*
X85873720Y-110036750D01*
X85626279Y-110036750D01*
X85380985Y-110069045D01*
X85380974Y-110069047D01*
X85141981Y-110133084D01*
X85141971Y-110133087D01*
X84913392Y-110227768D01*
X84913381Y-110227773D01*
X84699118Y-110351479D01*
X84699101Y-110351490D01*
X84603869Y-110424564D01*
X84603869Y-110424565D01*
X85295051Y-111115747D01*
X85160347Y-111205755D01*
X85031505Y-111334597D01*
X84941497Y-111469301D01*
X84250315Y-110778119D01*
X84250314Y-110778119D01*
X84177240Y-110873351D01*
X84177229Y-110873368D01*
X84053523Y-111087631D01*
X84053518Y-111087642D01*
X83958837Y-111316221D01*
X83958834Y-111316231D01*
X83894797Y-111555224D01*
X83894795Y-111555235D01*
X83862500Y-111800529D01*
X82937999Y-111800529D01*
X82937999Y-110488878D01*
X82937998Y-110488866D01*
X82937998Y-110488862D01*
X82937666Y-110485774D01*
X82937665Y-110485771D01*
X82931591Y-110429266D01*
X82881297Y-110294421D01*
X82881293Y-110294414D01*
X82795047Y-110179205D01*
X82795044Y-110179202D01*
X82679835Y-110092956D01*
X82679828Y-110092952D01*
X82544982Y-110042658D01*
X82544983Y-110042658D01*
X82485383Y-110036251D01*
X82485381Y-110036250D01*
X82485373Y-110036250D01*
X82485364Y-110036250D01*
X79614629Y-110036250D01*
X79614623Y-110036251D01*
X79555016Y-110042658D01*
X79420171Y-110092952D01*
X79420164Y-110092956D01*
X79304955Y-110179202D01*
X79304952Y-110179205D01*
X79218706Y-110294414D01*
X79218702Y-110294421D01*
X79168408Y-110429267D01*
X79162001Y-110488866D01*
X79162000Y-110488885D01*
X66667721Y-110488885D01*
X66664826Y-110470607D01*
X66664784Y-110470340D01*
X66594231Y-110253201D01*
X66594229Y-110253198D01*
X66594229Y-110253196D01*
X66500399Y-110069045D01*
X66490579Y-110049772D01*
X66424181Y-109958384D01*
X66400702Y-109892580D01*
X66416527Y-109824526D01*
X66466632Y-109775831D01*
X66524500Y-109761500D01*
X85207422Y-109761500D01*
X85401826Y-109730709D01*
X85589026Y-109669884D01*
X85764405Y-109580524D01*
X85923646Y-109464828D01*
X87973828Y-107414646D01*
X88089524Y-107255405D01*
X88178884Y-107080026D01*
X88239709Y-106892826D01*
X88270500Y-106698422D01*
X88270500Y-106501578D01*
X88239709Y-106307173D01*
X88178882Y-106119969D01*
X88089523Y-105944594D01*
X87973828Y-105785354D01*
X87834646Y-105646172D01*
X87675405Y-105530476D01*
X87500030Y-105441117D01*
X87312826Y-105380290D01*
X87118422Y-105349500D01*
X87118417Y-105349500D01*
X87118416Y-105349500D01*
X86921583Y-105349500D01*
X86921578Y-105349500D01*
X86727173Y-105380290D01*
X86539969Y-105441117D01*
X86364594Y-105530476D01*
X86284044Y-105589000D01*
X86205354Y-105646172D01*
X86205352Y-105646174D01*
X86205351Y-105646174D01*
X84627345Y-107224181D01*
X84566022Y-107257666D01*
X84539664Y-107260500D01*
X66734457Y-107260500D01*
X66667418Y-107240815D01*
X66621663Y-107188011D01*
X66611719Y-107118853D01*
X66616526Y-107098181D01*
X66664784Y-106949660D01*
X66700500Y-106724162D01*
X66700500Y-106495837D01*
X66664784Y-106270339D01*
X66594229Y-106053196D01*
X66490578Y-105849771D01*
X66443776Y-105785354D01*
X66356379Y-105665063D01*
X66194937Y-105503621D01*
X66010228Y-105369421D01*
X65971131Y-105349500D01*
X65806803Y-105265770D01*
X65589660Y-105195215D01*
X65364162Y-105159500D01*
X65364157Y-105159500D01*
X65135843Y-105159500D01*
X65135838Y-105159500D01*
X64910339Y-105195215D01*
X64693196Y-105265770D01*
X64489771Y-105369421D01*
X64305061Y-105503622D01*
X64143622Y-105665061D01*
X64009421Y-105849771D01*
X63905770Y-106053196D01*
X63835215Y-106270339D01*
X63799500Y-106495837D01*
X63799500Y-106724162D01*
X63835215Y-106949660D01*
X63883474Y-107098181D01*
X63885469Y-107168022D01*
X63849389Y-107227855D01*
X63786688Y-107258684D01*
X63765543Y-107260500D01*
X62220336Y-107260500D01*
X62153297Y-107240815D01*
X62132655Y-107224181D01*
X61179081Y-106270607D01*
X61148832Y-106221245D01*
X61094231Y-106053201D01*
X60990579Y-105849772D01*
X60856379Y-105665063D01*
X60694937Y-105503621D01*
X60510228Y-105369421D01*
X60471131Y-105349500D01*
X60306803Y-105265770D01*
X60089660Y-105195215D01*
X59864162Y-105159500D01*
X59864157Y-105159500D01*
X59635843Y-105159500D01*
X59635838Y-105159500D01*
X59410339Y-105195215D01*
X59193196Y-105265770D01*
X58989771Y-105369421D01*
X58805061Y-105503622D01*
X58643622Y-105665061D01*
X58509421Y-105849771D01*
X58405770Y-106053196D01*
X58335215Y-106270339D01*
X58299500Y-106495837D01*
X57204311Y-106495837D01*
X49296819Y-98588345D01*
X49263334Y-98527022D01*
X49260500Y-98500664D01*
X49260500Y-85301577D01*
X49229709Y-85107173D01*
X49201487Y-85020317D01*
X49168884Y-84919975D01*
X49168882Y-84919972D01*
X49168882Y-84919970D01*
X49121743Y-84827455D01*
X49079524Y-84744595D01*
X48963828Y-84585354D01*
X48824646Y-84446172D01*
X48665405Y-84330476D01*
X48490029Y-84241117D01*
X48302826Y-84180290D01*
X48108422Y-84149500D01*
X48108417Y-84149500D01*
X47911583Y-84149500D01*
X47911578Y-84149500D01*
X47717173Y-84180290D01*
X47529970Y-84241117D01*
X47354594Y-84330476D01*
X47263741Y-84396485D01*
X47195354Y-84446172D01*
X47195352Y-84446174D01*
X47195351Y-84446174D01*
X47056174Y-84585351D01*
X47056174Y-84585352D01*
X47056172Y-84585354D01*
X47048866Y-84595410D01*
X46940476Y-84744594D01*
X46851117Y-84919970D01*
X46790290Y-85107173D01*
X46759500Y-85301577D01*
X46470500Y-85301577D01*
X46470500Y-71307327D01*
X50739500Y-71307327D01*
X50739500Y-97088422D01*
X50770290Y-97282826D01*
X50831117Y-97470030D01*
X50892780Y-97591049D01*
X50920476Y-97645405D01*
X51036172Y-97804646D01*
X56595355Y-103363829D01*
X56617577Y-103379974D01*
X56754595Y-103479524D01*
X56837455Y-103521743D01*
X56929970Y-103568882D01*
X56929972Y-103568882D01*
X56929975Y-103568884D01*
X57030317Y-103601487D01*
X57117173Y-103629709D01*
X57311578Y-103660500D01*
X57311583Y-103660500D01*
X57311584Y-103660500D01*
X57508417Y-103660500D01*
X58979473Y-103660500D01*
X59035768Y-103674015D01*
X59193196Y-103754229D01*
X59193198Y-103754229D01*
X59193201Y-103754231D01*
X59256592Y-103774828D01*
X59410339Y-103824784D01*
X59635838Y-103860500D01*
X59635843Y-103860500D01*
X59864162Y-103860500D01*
X60089660Y-103824784D01*
X60306799Y-103754231D01*
X60510228Y-103650579D01*
X60694937Y-103516379D01*
X60856379Y-103354937D01*
X60990579Y-103170228D01*
X61094231Y-102966799D01*
X61148832Y-102798752D01*
X61179079Y-102749393D01*
X74541655Y-89386819D01*
X74602978Y-89353334D01*
X74629336Y-89350500D01*
X78301664Y-89350500D01*
X78368703Y-89370185D01*
X78414458Y-89422989D01*
X78424402Y-89492147D01*
X78395377Y-89555703D01*
X78389345Y-89562181D01*
X66828345Y-101123181D01*
X66801417Y-101137884D01*
X66775599Y-101154477D01*
X66769398Y-101155368D01*
X66767022Y-101156666D01*
X66740664Y-101159500D01*
X66662320Y-101159500D01*
X66595281Y-101139815D01*
X66563052Y-101109809D01*
X66557548Y-101102457D01*
X66557546Y-101102454D01*
X66508543Y-101065770D01*
X66442335Y-101016206D01*
X66442328Y-101016202D01*
X66307482Y-100965908D01*
X66307483Y-100965908D01*
X66247883Y-100959501D01*
X66247881Y-100959500D01*
X66247873Y-100959500D01*
X66247864Y-100959500D01*
X64252129Y-100959500D01*
X64252123Y-100959501D01*
X64192516Y-100965908D01*
X64057671Y-101016202D01*
X64057664Y-101016206D01*
X63942455Y-101102452D01*
X63942452Y-101102455D01*
X63856206Y-101217664D01*
X63856202Y-101217671D01*
X63805908Y-101352517D01*
X63799501Y-101412116D01*
X63799500Y-101412135D01*
X63799500Y-103407870D01*
X63799501Y-103407874D01*
X63805908Y-103467483D01*
X63856202Y-103602328D01*
X63856206Y-103602335D01*
X63942452Y-103717544D01*
X63942455Y-103717547D01*
X64057664Y-103803793D01*
X64057671Y-103803797D01*
X64102618Y-103820561D01*
X64192517Y-103854091D01*
X64252127Y-103860500D01*
X64880663Y-103860499D01*
X64947702Y-103880183D01*
X64968344Y-103896818D01*
X66363854Y-105292328D01*
X66523095Y-105408024D01*
X66588042Y-105441116D01*
X66698469Y-105497382D01*
X66698471Y-105497382D01*
X66698474Y-105497384D01*
X66798818Y-105529987D01*
X66885673Y-105558209D01*
X67080078Y-105589000D01*
X67080083Y-105589000D01*
X79388422Y-105589000D01*
X79582826Y-105558209D01*
X79598611Y-105553080D01*
X79770025Y-105497384D01*
X79945405Y-105408024D01*
X80104646Y-105292328D01*
X80243828Y-105153146D01*
X80359524Y-104993905D01*
X80448884Y-104818525D01*
X80509709Y-104631326D01*
X80514196Y-104602995D01*
X80540500Y-104436922D01*
X80540500Y-104240077D01*
X80509709Y-104045673D01*
X80463976Y-103904924D01*
X80448884Y-103858475D01*
X80448882Y-103858472D01*
X80448882Y-103858470D01*
X80377078Y-103717547D01*
X80359524Y-103683095D01*
X80243828Y-103523854D01*
X80104646Y-103384672D01*
X79945405Y-103268976D01*
X79770029Y-103179617D01*
X79582826Y-103118790D01*
X79388422Y-103088000D01*
X79388417Y-103088000D01*
X68699836Y-103088000D01*
X68632797Y-103068315D01*
X68587042Y-103015511D01*
X68577098Y-102946353D01*
X68606123Y-102882797D01*
X68612155Y-102876319D01*
X74442801Y-97045673D01*
X80353828Y-91134646D01*
X80469524Y-90975405D01*
X80558884Y-90800026D01*
X80619709Y-90612826D01*
X80650500Y-90418422D01*
X80650500Y-90221577D01*
X80619709Y-90027173D01*
X80616158Y-90016246D01*
X80614161Y-89946405D01*
X80650239Y-89886571D01*
X80712939Y-89855741D01*
X80782353Y-89863703D01*
X80821769Y-89890243D01*
X86163181Y-95231655D01*
X86196666Y-95292978D01*
X86199500Y-95319336D01*
X86199500Y-100353948D01*
X86179815Y-100420987D01*
X86127011Y-100466742D01*
X86057853Y-100476686D01*
X86001189Y-100453215D01*
X85975394Y-100433905D01*
X85906331Y-100382204D01*
X85906330Y-100382203D01*
X85906328Y-100382202D01*
X85771482Y-100331908D01*
X85771483Y-100331908D01*
X85711883Y-100325501D01*
X85711881Y-100325500D01*
X85711873Y-100325500D01*
X85711865Y-100325500D01*
X85475336Y-100325500D01*
X85408297Y-100305815D01*
X85387655Y-100289181D01*
X81483148Y-96384674D01*
X81483146Y-96384672D01*
X81323905Y-96268976D01*
X81148530Y-96179617D01*
X80961326Y-96118790D01*
X80766922Y-96088000D01*
X80766917Y-96088000D01*
X79191583Y-96088000D01*
X79191578Y-96088000D01*
X78997173Y-96118790D01*
X78809970Y-96179617D01*
X78634594Y-96268976D01*
X78543741Y-96334985D01*
X78475354Y-96384672D01*
X78475352Y-96384674D01*
X78475351Y-96384674D01*
X78336174Y-96523851D01*
X78336174Y-96523852D01*
X78336172Y-96523854D01*
X78286485Y-96592241D01*
X78220476Y-96683094D01*
X78131117Y-96858470D01*
X78070290Y-97045673D01*
X78039500Y-97240077D01*
X78039500Y-97436922D01*
X78070290Y-97631326D01*
X78131117Y-97818529D01*
X78212977Y-97979187D01*
X78220476Y-97993905D01*
X78336172Y-98153146D01*
X78475354Y-98292328D01*
X78634595Y-98408024D01*
X78673885Y-98428043D01*
X78809970Y-98497382D01*
X78809972Y-98497382D01*
X78809975Y-98497384D01*
X78901191Y-98527022D01*
X78997173Y-98558209D01*
X79191578Y-98589000D01*
X79191583Y-98589000D01*
X80099164Y-98589000D01*
X80166203Y-98608685D01*
X80186845Y-98625319D01*
X83619181Y-102057655D01*
X83652666Y-102118978D01*
X83655500Y-102145335D01*
X83655500Y-102381869D01*
X83655501Y-102381876D01*
X83661908Y-102441483D01*
X83712202Y-102576328D01*
X83712206Y-102576335D01*
X83798452Y-102691544D01*
X83798455Y-102691547D01*
X83913664Y-102777793D01*
X83913671Y-102777797D01*
X84048517Y-102828091D01*
X84048516Y-102828091D01*
X84055444Y-102828835D01*
X84108127Y-102834500D01*
X85711872Y-102834499D01*
X85771483Y-102828091D01*
X85906331Y-102777796D01*
X86021546Y-102691546D01*
X86107796Y-102576331D01*
X86158091Y-102441483D01*
X86164500Y-102381873D01*
X86164499Y-102326574D01*
X86184182Y-102259538D01*
X86236986Y-102213783D01*
X86306144Y-102203838D01*
X86369700Y-102232862D01*
X86388817Y-102253691D01*
X86493115Y-102397245D01*
X86493119Y-102397250D01*
X86493121Y-102397252D01*
X86632748Y-102536879D01*
X86645542Y-102546174D01*
X86660337Y-102558811D01*
X89163181Y-105061655D01*
X89196666Y-105122978D01*
X89199500Y-105149336D01*
X89199500Y-110453352D01*
X89179815Y-110520391D01*
X89163181Y-110541033D01*
X89027485Y-110676728D01*
X89027479Y-110676735D01*
X88876823Y-110873074D01*
X88876812Y-110873090D01*
X88753074Y-111087409D01*
X88753069Y-111087420D01*
X88658361Y-111316065D01*
X88594303Y-111555132D01*
X88562001Y-111800493D01*
X88562000Y-111800510D01*
X88562000Y-112047989D01*
X88562001Y-112048006D01*
X88594303Y-112293367D01*
X88658361Y-112532434D01*
X88753069Y-112761079D01*
X88753074Y-112761090D01*
X88876812Y-112975409D01*
X88876823Y-112975425D01*
X89027479Y-113171764D01*
X89027485Y-113171771D01*
X89202478Y-113346764D01*
X89202485Y-113346770D01*
X89296921Y-113419233D01*
X89398833Y-113497433D01*
X89398840Y-113497437D01*
X89613159Y-113621175D01*
X89613164Y-113621177D01*
X89613167Y-113621179D01*
X89841820Y-113715890D01*
X90080879Y-113779946D01*
X90326254Y-113812250D01*
X90326261Y-113812250D01*
X90573739Y-113812250D01*
X90573746Y-113812250D01*
X90819121Y-113779946D01*
X91058180Y-113715890D01*
X91286833Y-113621179D01*
X91501167Y-113497433D01*
X91697516Y-113346769D01*
X91872519Y-113171766D01*
X92023183Y-112975417D01*
X92146929Y-112761083D01*
X92241640Y-112532430D01*
X92305696Y-112293371D01*
X92338000Y-112047996D01*
X92338000Y-111800504D01*
X92305696Y-111555129D01*
X92241640Y-111316070D01*
X92146929Y-111087417D01*
X92146927Y-111087414D01*
X92146925Y-111087409D01*
X92023187Y-110873090D01*
X92023183Y-110873083D01*
X91872519Y-110676734D01*
X91872514Y-110676728D01*
X91736819Y-110541033D01*
X91703334Y-110479710D01*
X91700500Y-110453352D01*
X91700500Y-104481577D01*
X91669709Y-104287177D01*
X91669709Y-104287174D01*
X91657502Y-104249606D01*
X91657502Y-104249605D01*
X91608885Y-104099976D01*
X91608884Y-104099973D01*
X91519523Y-103924594D01*
X91505232Y-103904924D01*
X91403829Y-103765355D01*
X88736819Y-101098345D01*
X88703334Y-101037022D01*
X88700500Y-101010664D01*
X88700500Y-94651577D01*
X88669709Y-94457173D01*
X88630144Y-94335406D01*
X88608882Y-94269969D01*
X88519523Y-94094594D01*
X88510973Y-94082826D01*
X88403828Y-93935354D01*
X82656155Y-88187681D01*
X82651816Y-88179735D01*
X82644569Y-88174310D01*
X82635334Y-88149550D01*
X82622670Y-88126358D01*
X82623315Y-88117328D01*
X82620152Y-88108846D01*
X82625768Y-88083025D01*
X82627654Y-88056666D01*
X82633472Y-88047612D01*
X82635004Y-88040573D01*
X82656155Y-88012319D01*
X82670839Y-87997635D01*
X87119400Y-87997635D01*
X87119400Y-88202364D01*
X87151425Y-88404559D01*
X87214684Y-88599254D01*
X87214685Y-88599257D01*
X87307627Y-88781663D01*
X87427958Y-88947284D01*
X87572716Y-89092042D01*
X87738337Y-89212373D01*
X87827801Y-89257957D01*
X87920742Y-89305314D01*
X87920745Y-89305315D01*
X88013188Y-89335351D01*
X88115442Y-89368575D01*
X88209089Y-89383407D01*
X88317636Y-89400600D01*
X88317641Y-89400600D01*
X88522364Y-89400600D01*
X88620385Y-89385074D01*
X88724558Y-89368575D01*
X88919257Y-89305314D01*
X89101663Y-89212373D01*
X89267284Y-89092042D01*
X89412042Y-88947284D01*
X89532373Y-88781663D01*
X89625314Y-88599257D01*
X89688575Y-88404558D01*
X89717727Y-88220500D01*
X89720600Y-88202364D01*
X89720600Y-87997635D01*
X89695557Y-87839524D01*
X89688575Y-87795442D01*
X89625314Y-87600743D01*
X89625314Y-87600742D01*
X89532372Y-87418336D01*
X89465869Y-87326803D01*
X89412042Y-87252716D01*
X89267284Y-87107958D01*
X89101663Y-86987627D01*
X89067039Y-86969985D01*
X88919257Y-86894685D01*
X88919254Y-86894684D01*
X88724559Y-86831425D01*
X88522364Y-86799400D01*
X88522359Y-86799400D01*
X88317641Y-86799400D01*
X88317636Y-86799400D01*
X88115440Y-86831425D01*
X87920745Y-86894684D01*
X87920742Y-86894685D01*
X87738336Y-86987627D01*
X87643843Y-87056280D01*
X87572716Y-87107958D01*
X87572714Y-87107960D01*
X87572713Y-87107960D01*
X87427960Y-87252713D01*
X87427960Y-87252714D01*
X87427958Y-87252716D01*
X87376280Y-87323843D01*
X87307627Y-87418336D01*
X87214685Y-87600742D01*
X87214684Y-87600745D01*
X87151425Y-87795440D01*
X87119400Y-87997635D01*
X82670839Y-87997635D01*
X82763386Y-87905088D01*
X84058448Y-86610026D01*
X85413829Y-85254645D01*
X85529524Y-85095405D01*
X85618884Y-84920026D01*
X85679709Y-84732826D01*
X85703066Y-84585354D01*
X85710500Y-84538417D01*
X85710500Y-80377635D01*
X87119400Y-80377635D01*
X87119400Y-80582364D01*
X87151425Y-80784559D01*
X87214684Y-80979254D01*
X87214685Y-80979257D01*
X87304342Y-81155215D01*
X87307627Y-81161663D01*
X87427958Y-81327284D01*
X87572716Y-81472042D01*
X87738336Y-81592372D01*
X87738340Y-81592375D01*
X87738346Y-81592379D01*
X87772952Y-81610011D01*
X87804340Y-81632815D01*
X90535355Y-84363830D01*
X90535360Y-84363834D01*
X90674250Y-84464742D01*
X90694595Y-84479524D01*
X90869974Y-84568884D01*
X91035990Y-84622826D01*
X91057174Y-84629709D01*
X91089575Y-84634840D01*
X91251578Y-84660500D01*
X91251583Y-84660500D01*
X91251584Y-84660500D01*
X91448417Y-84660500D01*
X95691664Y-84660500D01*
X95758703Y-84680185D01*
X95804458Y-84732989D01*
X95814402Y-84802147D01*
X95785377Y-84865703D01*
X95779345Y-84872181D01*
X92776174Y-87875351D01*
X92776174Y-87875352D01*
X92776172Y-87875354D01*
X92737280Y-87928884D01*
X92660476Y-88034594D01*
X92570669Y-88210851D01*
X92569608Y-88214612D01*
X92510291Y-88397169D01*
X92510291Y-88397172D01*
X92479500Y-88591577D01*
X92479500Y-102508422D01*
X92510290Y-102702826D01*
X92571117Y-102890030D01*
X92660476Y-103065405D01*
X92776172Y-103224646D01*
X97995354Y-108443828D01*
X98154595Y-108559524D01*
X98237454Y-108601742D01*
X98329969Y-108648882D01*
X98329971Y-108648882D01*
X98329974Y-108648884D01*
X98430318Y-108681487D01*
X98517173Y-108709709D01*
X98711578Y-108740500D01*
X98711583Y-108740500D01*
X98711584Y-108740500D01*
X98908417Y-108740500D01*
X100096414Y-108740500D01*
X100163453Y-108760185D01*
X100184095Y-108776819D01*
X101231845Y-109824569D01*
X101265330Y-109885892D01*
X101260346Y-109955584D01*
X101218474Y-110011517D01*
X101153010Y-110035934D01*
X101144164Y-110036250D01*
X98964629Y-110036250D01*
X98964623Y-110036251D01*
X98905016Y-110042658D01*
X98770171Y-110092952D01*
X98770164Y-110092956D01*
X98654955Y-110179202D01*
X98654952Y-110179205D01*
X98568706Y-110294414D01*
X98568702Y-110294421D01*
X98518408Y-110429267D01*
X98512001Y-110488866D01*
X98512000Y-110488885D01*
X98512000Y-113359620D01*
X98512001Y-113359626D01*
X98518408Y-113419233D01*
X98568702Y-113554078D01*
X98568706Y-113554085D01*
X98654952Y-113669294D01*
X98654955Y-113669297D01*
X98770164Y-113755543D01*
X98770171Y-113755547D01*
X98905017Y-113805841D01*
X98905016Y-113805841D01*
X98911944Y-113806585D01*
X98964627Y-113812250D01*
X101835372Y-113812249D01*
X101894983Y-113805841D01*
X102029831Y-113755546D01*
X102145046Y-113669296D01*
X102231296Y-113554081D01*
X102281591Y-113419233D01*
X102288000Y-113359623D01*
X102287999Y-111180084D01*
X102307684Y-111113046D01*
X102360487Y-111067291D01*
X102429646Y-111057347D01*
X102493202Y-111086372D01*
X102499680Y-111092404D01*
X103175681Y-111768405D01*
X103209166Y-111829728D01*
X103212000Y-111856086D01*
X103212000Y-112047989D01*
X103212001Y-112048006D01*
X103244303Y-112293367D01*
X103308361Y-112532434D01*
X103403069Y-112761079D01*
X103403074Y-112761090D01*
X103526812Y-112975409D01*
X103526823Y-112975425D01*
X103677478Y-113171763D01*
X103677479Y-113171764D01*
X103677481Y-113171766D01*
X103813182Y-113307467D01*
X103846666Y-113368788D01*
X103849500Y-113395147D01*
X103849500Y-116078422D01*
X103880290Y-116272826D01*
X103941117Y-116460030D01*
X104030476Y-116635405D01*
X104146172Y-116794646D01*
X108495354Y-121143828D01*
X108654595Y-121259524D01*
X108737454Y-121301742D01*
X108829969Y-121348882D01*
X108829971Y-121348882D01*
X108829974Y-121348884D01*
X108930318Y-121381487D01*
X109017173Y-121409709D01*
X109211578Y-121440500D01*
X109211583Y-121440500D01*
X128398422Y-121440500D01*
X128592826Y-121409709D01*
X128780026Y-121348884D01*
X128955405Y-121259524D01*
X129011579Y-121218711D01*
X138829500Y-121218711D01*
X138829500Y-121461288D01*
X138861161Y-121701785D01*
X138923947Y-121936104D01*
X138942251Y-121980293D01*
X139016776Y-122160212D01*
X139138064Y-122370289D01*
X139138066Y-122370292D01*
X139138067Y-122370293D01*
X139285733Y-122562736D01*
X139285739Y-122562743D01*
X139457256Y-122734260D01*
X139457263Y-122734266D01*
X139543581Y-122800500D01*
X139649711Y-122881936D01*
X139859788Y-123003224D01*
X140083900Y-123096054D01*
X140318211Y-123158838D01*
X140498586Y-123182584D01*
X140558711Y-123190500D01*
X140558712Y-123190500D01*
X140801289Y-123190500D01*
X140849388Y-123184167D01*
X141041789Y-123158838D01*
X141276100Y-123096054D01*
X141500212Y-123003224D01*
X141710289Y-122881936D01*
X141902738Y-122734265D01*
X142074265Y-122562738D01*
X142221936Y-122370289D01*
X142343224Y-122160212D01*
X142436054Y-121936100D01*
X142498838Y-121701789D01*
X142530500Y-121461288D01*
X142530500Y-121218712D01*
X142498838Y-120978211D01*
X142436054Y-120743900D01*
X142343224Y-120519788D01*
X142221936Y-120309711D01*
X142074265Y-120117262D01*
X142074260Y-120117256D01*
X141902743Y-119945739D01*
X141902736Y-119945733D01*
X141710293Y-119798067D01*
X141710292Y-119798066D01*
X141710289Y-119798064D01*
X141500212Y-119676776D01*
X141500205Y-119676773D01*
X141276104Y-119583947D01*
X141041785Y-119521161D01*
X140801289Y-119489500D01*
X140801288Y-119489500D01*
X140558712Y-119489500D01*
X140558711Y-119489500D01*
X140318214Y-119521161D01*
X140083895Y-119583947D01*
X139859794Y-119676773D01*
X139859785Y-119676777D01*
X139649706Y-119798067D01*
X139457263Y-119945733D01*
X139457256Y-119945739D01*
X139285739Y-120117256D01*
X139285733Y-120117263D01*
X139138067Y-120309706D01*
X139016777Y-120519785D01*
X139016773Y-120519794D01*
X138923947Y-120743895D01*
X138861161Y-120978214D01*
X138829500Y-121218711D01*
X129011579Y-121218711D01*
X129114646Y-121143828D01*
X140693828Y-109564646D01*
X140809524Y-109405405D01*
X140898884Y-109230026D01*
X140959709Y-109042826D01*
X140990500Y-108848422D01*
X140990500Y-103304776D01*
X141004015Y-103248481D01*
X141084229Y-103091053D01*
X141084229Y-103091052D01*
X141084231Y-103091049D01*
X141154784Y-102873910D01*
X141163073Y-102821577D01*
X141190500Y-102648412D01*
X141190500Y-102420087D01*
X142489500Y-102420087D01*
X142489500Y-102648412D01*
X142525215Y-102873910D01*
X142595770Y-103091053D01*
X142698032Y-103291751D01*
X142699421Y-103294478D01*
X142833621Y-103479187D01*
X142995063Y-103640629D01*
X143179772Y-103774829D01*
X143236623Y-103803796D01*
X143383196Y-103878479D01*
X143383198Y-103878479D01*
X143383201Y-103878481D01*
X143464578Y-103904922D01*
X143600339Y-103949034D01*
X143825838Y-103984750D01*
X143825843Y-103984750D01*
X144054162Y-103984750D01*
X144279660Y-103949034D01*
X144496799Y-103878481D01*
X144700228Y-103774829D01*
X144884937Y-103640629D01*
X145046379Y-103479187D01*
X145180579Y-103294478D01*
X145284231Y-103091049D01*
X145354784Y-102873910D01*
X145363073Y-102821577D01*
X145390500Y-102648412D01*
X145390500Y-102420087D01*
X145354784Y-102194589D01*
X145284229Y-101977446D01*
X145180578Y-101774021D01*
X145111345Y-101678731D01*
X145046379Y-101589313D01*
X144884937Y-101427871D01*
X144700228Y-101293671D01*
X144496803Y-101190020D01*
X144279660Y-101119465D01*
X144054162Y-101083750D01*
X144054157Y-101083750D01*
X143825843Y-101083750D01*
X143825838Y-101083750D01*
X143600339Y-101119465D01*
X143383196Y-101190020D01*
X143179771Y-101293671D01*
X142995061Y-101427872D01*
X142833622Y-101589311D01*
X142699421Y-101774021D01*
X142595770Y-101977446D01*
X142525215Y-102194589D01*
X142489500Y-102420087D01*
X141190500Y-102420087D01*
X141154784Y-102194589D01*
X141084229Y-101977446D01*
X140980578Y-101774021D01*
X140911345Y-101678731D01*
X140846379Y-101589313D01*
X140684937Y-101427871D01*
X140500228Y-101293671D01*
X140296803Y-101190020D01*
X140079660Y-101119465D01*
X139854162Y-101083750D01*
X139854157Y-101083750D01*
X139625843Y-101083750D01*
X139625838Y-101083750D01*
X139400339Y-101119465D01*
X139183196Y-101190020D01*
X138979771Y-101293671D01*
X138795061Y-101427872D01*
X138633622Y-101589311D01*
X138499421Y-101774021D01*
X138395770Y-101977446D01*
X138325215Y-102194589D01*
X138289500Y-102420087D01*
X138289500Y-102648412D01*
X138325215Y-102873910D01*
X138395770Y-103091053D01*
X138475985Y-103248481D01*
X138489500Y-103304776D01*
X138489500Y-108180664D01*
X138469815Y-108247703D01*
X138453181Y-108268345D01*
X127818345Y-118903181D01*
X127757022Y-118936666D01*
X127730664Y-118939500D01*
X109879336Y-118939500D01*
X109812297Y-118919815D01*
X109791655Y-118903181D01*
X106386819Y-115498345D01*
X106353334Y-115437022D01*
X106350500Y-115410664D01*
X106350500Y-113395147D01*
X106370185Y-113328108D01*
X106386814Y-113307470D01*
X106522519Y-113171766D01*
X106673183Y-112975417D01*
X106796929Y-112761083D01*
X106891640Y-112532430D01*
X106955696Y-112293371D01*
X106988000Y-112047996D01*
X106988000Y-111800504D01*
X106955696Y-111555129D01*
X106891640Y-111316070D01*
X106796929Y-111087417D01*
X106796927Y-111087414D01*
X106796925Y-111087409D01*
X106673187Y-110873090D01*
X106673183Y-110873083D01*
X106522519Y-110676734D01*
X106522514Y-110676728D01*
X106347521Y-110501735D01*
X106347514Y-110501729D01*
X106151175Y-110351073D01*
X106151173Y-110351071D01*
X106151167Y-110351067D01*
X106151162Y-110351064D01*
X106151159Y-110351062D01*
X105936840Y-110227324D01*
X105936829Y-110227319D01*
X105708184Y-110132611D01*
X105469117Y-110068553D01*
X105223756Y-110036251D01*
X105223751Y-110036250D01*
X105223746Y-110036250D01*
X105223739Y-110036250D01*
X105031836Y-110036250D01*
X104964797Y-110016565D01*
X104944155Y-109999931D01*
X101480398Y-106536174D01*
X101480396Y-106536172D01*
X101321155Y-106420476D01*
X101145780Y-106331117D01*
X100958576Y-106270290D01*
X100764172Y-106239500D01*
X100764167Y-106239500D01*
X99379336Y-106239500D01*
X99312297Y-106219815D01*
X99291655Y-106203181D01*
X98702877Y-105614403D01*
X98669392Y-105553080D01*
X98674376Y-105483388D01*
X98716248Y-105427455D01*
X98781712Y-105403038D01*
X98828876Y-105408791D01*
X98882002Y-105426052D01*
X98925508Y-105440188D01*
X99101106Y-105468000D01*
X99101107Y-105468000D01*
X99278893Y-105468000D01*
X99278894Y-105468000D01*
X99454492Y-105440188D01*
X99623578Y-105385249D01*
X99781987Y-105304535D01*
X99862741Y-105245863D01*
X99925814Y-105200040D01*
X99925816Y-105200037D01*
X99925820Y-105200035D01*
X100051535Y-105074320D01*
X100051537Y-105074316D01*
X100051540Y-105074314D01*
X100109959Y-104993905D01*
X100156035Y-104930487D01*
X100236749Y-104772078D01*
X100291688Y-104602992D01*
X100319500Y-104427394D01*
X100319500Y-104249606D01*
X100291688Y-104074008D01*
X100236749Y-103904922D01*
X100156035Y-103746513D01*
X100134990Y-103717547D01*
X100051540Y-103602685D01*
X99925814Y-103476959D01*
X99781990Y-103372467D01*
X99781989Y-103372466D01*
X99781987Y-103372465D01*
X99649141Y-103304776D01*
X99623575Y-103291749D01*
X99454493Y-103236812D01*
X99366693Y-103222906D01*
X99278894Y-103209000D01*
X99101106Y-103209000D01*
X99042573Y-103218270D01*
X98925506Y-103236812D01*
X98756424Y-103291749D01*
X98598009Y-103372467D01*
X98454185Y-103476959D01*
X98328459Y-103602685D01*
X98223967Y-103746509D01*
X98143249Y-103904924D01*
X98088312Y-104074006D01*
X98060500Y-104249604D01*
X98060500Y-104427393D01*
X98088312Y-104602995D01*
X98119708Y-104699624D01*
X98121703Y-104769465D01*
X98085622Y-104829298D01*
X98022921Y-104860125D01*
X97953506Y-104852160D01*
X97914096Y-104825622D01*
X95016819Y-101928345D01*
X94983334Y-101867022D01*
X94980500Y-101840664D01*
X94980500Y-97240077D01*
X97939500Y-97240077D01*
X97939500Y-97436922D01*
X97970290Y-97631326D01*
X98031117Y-97818529D01*
X98112977Y-97979187D01*
X98120476Y-97993905D01*
X98236172Y-98153146D01*
X98375354Y-98292328D01*
X98534595Y-98408024D01*
X98573885Y-98428043D01*
X98709970Y-98497382D01*
X98709972Y-98497382D01*
X98709975Y-98497384D01*
X98801191Y-98527022D01*
X98897173Y-98558209D01*
X99091578Y-98589000D01*
X99091583Y-98589000D01*
X100169164Y-98589000D01*
X100236203Y-98608685D01*
X100256845Y-98625319D01*
X103689181Y-102057655D01*
X103722666Y-102118978D01*
X103725500Y-102145335D01*
X103725500Y-102381869D01*
X103725501Y-102381876D01*
X103731908Y-102441483D01*
X103782202Y-102576328D01*
X103782206Y-102576335D01*
X103868452Y-102691544D01*
X103868455Y-102691547D01*
X103983664Y-102777793D01*
X103983671Y-102777797D01*
X104118517Y-102828091D01*
X104118516Y-102828091D01*
X104125444Y-102828835D01*
X104178127Y-102834500D01*
X105781872Y-102834499D01*
X105841483Y-102828091D01*
X105976331Y-102777796D01*
X106091546Y-102691546D01*
X106177796Y-102576331D01*
X106228091Y-102441483D01*
X106234500Y-102381873D01*
X106234499Y-102326574D01*
X106254182Y-102259538D01*
X106306986Y-102213783D01*
X106376144Y-102203838D01*
X106439700Y-102232862D01*
X106458817Y-102253691D01*
X106563115Y-102397245D01*
X106563119Y-102397250D01*
X106563121Y-102397252D01*
X106702748Y-102536879D01*
X106715542Y-102546174D01*
X106730337Y-102558811D01*
X108513181Y-104341655D01*
X108546666Y-104402978D01*
X108549500Y-104429336D01*
X108549500Y-110453352D01*
X108529815Y-110520391D01*
X108513181Y-110541033D01*
X108377485Y-110676728D01*
X108377479Y-110676735D01*
X108226823Y-110873074D01*
X108226812Y-110873090D01*
X108103074Y-111087409D01*
X108103069Y-111087420D01*
X108008361Y-111316065D01*
X107944303Y-111555132D01*
X107912001Y-111800493D01*
X107912000Y-111800510D01*
X107912000Y-112047989D01*
X107912001Y-112048006D01*
X107944303Y-112293367D01*
X108008361Y-112532434D01*
X108103069Y-112761079D01*
X108103074Y-112761090D01*
X108226812Y-112975409D01*
X108226823Y-112975425D01*
X108377479Y-113171764D01*
X108377485Y-113171771D01*
X108552478Y-113346764D01*
X108552485Y-113346770D01*
X108646921Y-113419233D01*
X108748833Y-113497433D01*
X108748840Y-113497437D01*
X108963159Y-113621175D01*
X108963164Y-113621177D01*
X108963167Y-113621179D01*
X109191820Y-113715890D01*
X109430879Y-113779946D01*
X109676254Y-113812250D01*
X109676261Y-113812250D01*
X109923739Y-113812250D01*
X109923746Y-113812250D01*
X110169121Y-113779946D01*
X110408180Y-113715890D01*
X110636833Y-113621179D01*
X110851167Y-113497433D01*
X111047516Y-113346769D01*
X111222519Y-113171766D01*
X111373183Y-112975417D01*
X111496929Y-112761083D01*
X111591640Y-112532430D01*
X111655696Y-112293371D01*
X111688000Y-112047996D01*
X111688000Y-111800504D01*
X111655696Y-111555129D01*
X111591640Y-111316070D01*
X111496929Y-111087417D01*
X111496927Y-111087414D01*
X111496925Y-111087409D01*
X111373187Y-110873090D01*
X111373183Y-110873083D01*
X111222519Y-110676734D01*
X111222514Y-110676728D01*
X111086819Y-110541033D01*
X111058344Y-110488885D01*
X117622000Y-110488885D01*
X117622000Y-113359620D01*
X117622001Y-113359626D01*
X117628408Y-113419233D01*
X117678702Y-113554078D01*
X117678706Y-113554085D01*
X117764952Y-113669294D01*
X117764955Y-113669297D01*
X117880164Y-113755543D01*
X117880171Y-113755547D01*
X118015017Y-113805841D01*
X118015016Y-113805841D01*
X118021944Y-113806585D01*
X118074627Y-113812250D01*
X120945372Y-113812249D01*
X121004983Y-113805841D01*
X121139831Y-113755546D01*
X121255046Y-113669296D01*
X121341296Y-113554081D01*
X121391591Y-113419233D01*
X121398000Y-113359623D01*
X121397999Y-111800529D01*
X122322500Y-111800529D01*
X122322500Y-112047970D01*
X122354795Y-112293264D01*
X122354797Y-112293275D01*
X122418834Y-112532268D01*
X122418837Y-112532278D01*
X122513518Y-112760857D01*
X122513523Y-112760868D01*
X122637229Y-112975131D01*
X122637235Y-112975139D01*
X122710315Y-113070379D01*
X123401497Y-112379197D01*
X123491505Y-112513903D01*
X123620347Y-112642745D01*
X123755051Y-112732751D01*
X123063869Y-113423933D01*
X123159110Y-113497014D01*
X123159118Y-113497020D01*
X123373381Y-113620726D01*
X123373392Y-113620731D01*
X123601971Y-113715412D01*
X123601981Y-113715415D01*
X123840974Y-113779452D01*
X123840985Y-113779454D01*
X124086279Y-113811749D01*
X124086294Y-113811750D01*
X124333706Y-113811750D01*
X124333720Y-113811749D01*
X124579014Y-113779454D01*
X124579025Y-113779452D01*
X124818018Y-113715415D01*
X124818028Y-113715412D01*
X125046607Y-113620731D01*
X125046618Y-113620726D01*
X125260881Y-113497020D01*
X125260899Y-113497008D01*
X125356129Y-113423934D01*
X125356129Y-113423932D01*
X124664948Y-112732751D01*
X124799653Y-112642745D01*
X124928495Y-112513903D01*
X125018501Y-112379198D01*
X125709682Y-113070379D01*
X125709684Y-113070379D01*
X125782758Y-112975149D01*
X125782770Y-112975131D01*
X125906476Y-112760868D01*
X125906481Y-112760857D01*
X126001162Y-112532278D01*
X126001165Y-112532268D01*
X126065202Y-112293275D01*
X126065204Y-112293264D01*
X126097499Y-112047970D01*
X126097500Y-112047956D01*
X126097500Y-111800543D01*
X126097499Y-111800529D01*
X126065204Y-111555235D01*
X126065202Y-111555224D01*
X126001165Y-111316231D01*
X126001162Y-111316221D01*
X125906481Y-111087642D01*
X125906476Y-111087631D01*
X125782770Y-110873368D01*
X125782764Y-110873360D01*
X125709683Y-110778119D01*
X125018501Y-111469301D01*
X124928495Y-111334597D01*
X124799653Y-111205755D01*
X124664948Y-111115747D01*
X125356129Y-110424565D01*
X125260889Y-110351485D01*
X125260881Y-110351479D01*
X125046618Y-110227773D01*
X125046607Y-110227768D01*
X124818028Y-110133087D01*
X124818018Y-110133084D01*
X124579025Y-110069047D01*
X124579014Y-110069045D01*
X124333720Y-110036750D01*
X124086279Y-110036750D01*
X123840985Y-110069045D01*
X123840974Y-110069047D01*
X123601981Y-110133084D01*
X123601971Y-110133087D01*
X123373392Y-110227768D01*
X123373381Y-110227773D01*
X123159118Y-110351479D01*
X123159101Y-110351490D01*
X123063869Y-110424564D01*
X123063869Y-110424565D01*
X123755051Y-111115747D01*
X123620347Y-111205755D01*
X123491505Y-111334597D01*
X123401498Y-111469301D01*
X122710315Y-110778119D01*
X122710314Y-110778119D01*
X122637240Y-110873351D01*
X122637229Y-110873368D01*
X122513523Y-111087631D01*
X122513518Y-111087642D01*
X122418837Y-111316221D01*
X122418834Y-111316231D01*
X122354797Y-111555224D01*
X122354795Y-111555235D01*
X122322500Y-111800529D01*
X121397999Y-111800529D01*
X121397999Y-110488878D01*
X121397998Y-110488866D01*
X121397998Y-110488862D01*
X121397666Y-110485774D01*
X121397665Y-110485771D01*
X121391591Y-110429266D01*
X121341297Y-110294421D01*
X121341293Y-110294414D01*
X121255047Y-110179205D01*
X121255044Y-110179202D01*
X121139835Y-110092956D01*
X121139828Y-110092952D01*
X121004982Y-110042658D01*
X121004983Y-110042658D01*
X120945383Y-110036251D01*
X120945381Y-110036250D01*
X120945373Y-110036250D01*
X120945364Y-110036250D01*
X118074629Y-110036250D01*
X118074623Y-110036251D01*
X118015016Y-110042658D01*
X117880171Y-110092952D01*
X117880164Y-110092956D01*
X117764955Y-110179202D01*
X117764952Y-110179205D01*
X117678706Y-110294414D01*
X117678702Y-110294421D01*
X117628408Y-110429267D01*
X117622001Y-110488866D01*
X117622000Y-110488885D01*
X111058344Y-110488885D01*
X111053334Y-110479710D01*
X111050500Y-110453352D01*
X111050500Y-103761577D01*
X111019709Y-103567173D01*
X110967949Y-103407874D01*
X110967949Y-103407873D01*
X110958884Y-103379974D01*
X110869524Y-103204595D01*
X110753828Y-103045354D01*
X108806819Y-101098345D01*
X108773334Y-101037022D01*
X108770500Y-101010664D01*
X108770500Y-93581577D01*
X108739709Y-93387175D01*
X108723867Y-93338418D01*
X108723867Y-93338417D01*
X108714625Y-93309974D01*
X108678884Y-93199974D01*
X108589524Y-93024595D01*
X108473829Y-92865355D01*
X105660051Y-90051577D01*
X112029500Y-90051577D01*
X112029500Y-99876922D01*
X112060290Y-100071326D01*
X112121117Y-100258530D01*
X112184133Y-100382204D01*
X112210476Y-100433905D01*
X112326172Y-100593146D01*
X117025354Y-105292328D01*
X117184595Y-105408024D01*
X117249542Y-105441116D01*
X117359969Y-105497382D01*
X117359971Y-105497382D01*
X117359974Y-105497384D01*
X117460318Y-105529987D01*
X117547173Y-105558209D01*
X117741579Y-105589000D01*
X117741584Y-105589000D01*
X117938422Y-105589000D01*
X118132826Y-105558209D01*
X118148611Y-105553080D01*
X118320026Y-105497384D01*
X118495405Y-105408024D01*
X118654646Y-105292328D01*
X118793828Y-105153146D01*
X118909524Y-104993905D01*
X118998884Y-104818526D01*
X119059709Y-104631326D01*
X119064196Y-104602995D01*
X119090500Y-104436922D01*
X119090500Y-104240078D01*
X119059709Y-104045673D01*
X119020368Y-103924594D01*
X118998884Y-103858474D01*
X118998882Y-103858470D01*
X118998882Y-103858469D01*
X118945770Y-103754231D01*
X118909524Y-103683095D01*
X118793828Y-103523854D01*
X114566819Y-99296845D01*
X114533334Y-99235522D01*
X114530500Y-99209164D01*
X114530500Y-90051577D01*
X114499709Y-89857173D01*
X114438882Y-89669970D01*
X114388539Y-89571166D01*
X114349524Y-89494595D01*
X114233828Y-89335354D01*
X114094646Y-89196172D01*
X113935405Y-89080476D01*
X113760029Y-88991117D01*
X113572826Y-88930290D01*
X113378422Y-88899500D01*
X113378417Y-88899500D01*
X113181583Y-88899500D01*
X113181578Y-88899500D01*
X112987173Y-88930290D01*
X112799970Y-88991117D01*
X112624594Y-89080476D01*
X112533741Y-89146485D01*
X112465354Y-89196172D01*
X112465352Y-89196174D01*
X112465351Y-89196174D01*
X112326174Y-89335351D01*
X112326174Y-89335352D01*
X112326172Y-89335354D01*
X112300866Y-89370185D01*
X112210476Y-89494594D01*
X112121117Y-89669970D01*
X112060290Y-89857173D01*
X112029500Y-90051577D01*
X105660051Y-90051577D01*
X103796155Y-88187681D01*
X103791816Y-88179735D01*
X103784569Y-88174310D01*
X103775334Y-88149550D01*
X103762670Y-88126358D01*
X103763315Y-88117328D01*
X103760152Y-88108846D01*
X103765768Y-88083025D01*
X103767654Y-88056666D01*
X103773472Y-88047612D01*
X103775004Y-88040573D01*
X103796155Y-88012319D01*
X103810839Y-87997635D01*
X108259400Y-87997635D01*
X108259400Y-88202364D01*
X108291425Y-88404559D01*
X108354684Y-88599254D01*
X108354685Y-88599257D01*
X108447627Y-88781663D01*
X108567958Y-88947284D01*
X108712716Y-89092042D01*
X108878337Y-89212373D01*
X108967801Y-89257957D01*
X109060742Y-89305314D01*
X109060745Y-89305315D01*
X109153188Y-89335351D01*
X109255442Y-89368575D01*
X109349089Y-89383407D01*
X109457636Y-89400600D01*
X109457641Y-89400600D01*
X109662364Y-89400600D01*
X109760385Y-89385074D01*
X109864558Y-89368575D01*
X110059257Y-89305314D01*
X110241663Y-89212373D01*
X110407284Y-89092042D01*
X110552042Y-88947284D01*
X110672373Y-88781663D01*
X110765314Y-88599257D01*
X110828575Y-88404558D01*
X110857727Y-88220500D01*
X110860600Y-88202364D01*
X110860600Y-87997635D01*
X110835557Y-87839524D01*
X110828575Y-87795442D01*
X110765314Y-87600743D01*
X110765314Y-87600742D01*
X110672372Y-87418336D01*
X110605869Y-87326803D01*
X110552042Y-87252716D01*
X110407284Y-87107958D01*
X110241663Y-86987627D01*
X110207039Y-86969985D01*
X110059257Y-86894685D01*
X110059254Y-86894684D01*
X109864559Y-86831425D01*
X109662364Y-86799400D01*
X109662359Y-86799400D01*
X109457641Y-86799400D01*
X109457636Y-86799400D01*
X109255440Y-86831425D01*
X109060745Y-86894684D01*
X109060742Y-86894685D01*
X108878336Y-86987627D01*
X108783843Y-87056280D01*
X108712716Y-87107958D01*
X108712714Y-87107960D01*
X108712713Y-87107960D01*
X108567960Y-87252713D01*
X108567960Y-87252714D01*
X108567958Y-87252716D01*
X108516280Y-87323843D01*
X108447627Y-87418336D01*
X108354685Y-87600742D01*
X108354684Y-87600745D01*
X108291425Y-87795440D01*
X108259400Y-87997635D01*
X103810839Y-87997635D01*
X103903386Y-87905088D01*
X105448951Y-86359523D01*
X107053828Y-84754646D01*
X107122229Y-84660500D01*
X107169524Y-84595405D01*
X107258884Y-84420025D01*
X107313526Y-84251855D01*
X107313527Y-84251855D01*
X107313527Y-84251850D01*
X107319709Y-84232827D01*
X107350325Y-84039524D01*
X107350500Y-84038422D01*
X107350500Y-80377635D01*
X108259400Y-80377635D01*
X108259400Y-80582364D01*
X108291424Y-80784558D01*
X108303431Y-80821508D01*
X108309500Y-80859827D01*
X108309500Y-82548422D01*
X108340290Y-82742826D01*
X108401117Y-82930030D01*
X108471632Y-83068422D01*
X108490476Y-83105405D01*
X108606172Y-83264646D01*
X108606174Y-83264648D01*
X120085355Y-94743830D01*
X120085360Y-94743834D01*
X120224250Y-94844742D01*
X120244595Y-94859524D01*
X120356345Y-94916463D01*
X120419969Y-94948882D01*
X120419971Y-94948882D01*
X120419974Y-94948884D01*
X120520318Y-94981487D01*
X120607173Y-95009709D01*
X120801578Y-95040500D01*
X120801583Y-95040500D01*
X120998422Y-95040500D01*
X121192826Y-95009709D01*
X121380026Y-94948884D01*
X121555405Y-94859524D01*
X121714646Y-94743829D01*
X121853829Y-94604646D01*
X121969524Y-94445405D01*
X122058884Y-94270026D01*
X122119709Y-94082826D01*
X122150500Y-93888422D01*
X122150500Y-93691578D01*
X122119709Y-93497173D01*
X122068126Y-93338418D01*
X122058884Y-93309974D01*
X122058882Y-93309971D01*
X122058882Y-93309969D01*
X122002836Y-93199974D01*
X121969524Y-93134595D01*
X121889604Y-93024594D01*
X121853834Y-92975360D01*
X121853830Y-92975355D01*
X110846819Y-81968344D01*
X110813334Y-81907021D01*
X110810500Y-81880663D01*
X110810500Y-80859827D01*
X110816569Y-80821508D01*
X110828575Y-80784558D01*
X110860600Y-80582364D01*
X110860600Y-80377635D01*
X110828593Y-80175557D01*
X110828575Y-80175442D01*
X110785546Y-80043011D01*
X110765315Y-79980745D01*
X110765314Y-79980742D01*
X110706003Y-79864340D01*
X110672373Y-79798337D01*
X110552042Y-79632716D01*
X110407284Y-79487958D01*
X110241663Y-79367627D01*
X110207039Y-79349985D01*
X110059257Y-79274685D01*
X110059254Y-79274684D01*
X109864559Y-79211425D01*
X109662364Y-79179400D01*
X109662359Y-79179400D01*
X109457641Y-79179400D01*
X109457636Y-79179400D01*
X109255440Y-79211425D01*
X109060745Y-79274684D01*
X109060742Y-79274685D01*
X108878336Y-79367627D01*
X108783843Y-79436280D01*
X108712716Y-79487958D01*
X108712714Y-79487960D01*
X108712713Y-79487960D01*
X108567960Y-79632713D01*
X108567960Y-79632714D01*
X108567958Y-79632716D01*
X108550766Y-79656379D01*
X108447627Y-79798336D01*
X108354685Y-79980742D01*
X108354684Y-79980745D01*
X108291425Y-80175440D01*
X108259400Y-80377635D01*
X107350500Y-80377635D01*
X107350500Y-76161577D01*
X115239500Y-76161577D01*
X115239500Y-85388422D01*
X115270290Y-85582826D01*
X115331117Y-85770029D01*
X115420476Y-85945405D01*
X115536172Y-86104646D01*
X115675354Y-86243828D01*
X115834595Y-86359524D01*
X115917455Y-86401743D01*
X116009970Y-86448882D01*
X116009972Y-86448882D01*
X116009975Y-86448884D01*
X116110317Y-86481487D01*
X116197173Y-86509709D01*
X116391578Y-86540500D01*
X116391583Y-86540500D01*
X116588422Y-86540500D01*
X116782826Y-86509709D01*
X116970025Y-86448884D01*
X117145405Y-86359524D01*
X117304646Y-86243828D01*
X117443828Y-86104646D01*
X117559524Y-85945405D01*
X117648884Y-85770025D01*
X117709709Y-85582826D01*
X117714862Y-85550290D01*
X117740500Y-85388422D01*
X117740500Y-80377680D01*
X121129900Y-80377680D01*
X121129900Y-80582319D01*
X121161913Y-80784442D01*
X121161913Y-80784445D01*
X121225148Y-80979062D01*
X121318055Y-81161401D01*
X121350453Y-81205992D01*
X121350453Y-81205993D01*
X121909396Y-80647050D01*
X121921116Y-80690787D01*
X121993011Y-80815313D01*
X122094687Y-80916989D01*
X122219213Y-80988884D01*
X122262949Y-81000603D01*
X121704005Y-81559545D01*
X121748598Y-81591944D01*
X121930937Y-81684851D01*
X122125555Y-81748086D01*
X122327681Y-81780100D01*
X122532319Y-81780100D01*
X122734442Y-81748086D01*
X122734445Y-81748086D01*
X122929062Y-81684851D01*
X123111401Y-81591944D01*
X123155992Y-81559546D01*
X123155992Y-81559545D01*
X122597050Y-81000603D01*
X122640787Y-80988884D01*
X122765313Y-80916989D01*
X122866989Y-80815313D01*
X122938884Y-80690787D01*
X122950603Y-80647050D01*
X123509545Y-81205992D01*
X123509546Y-81205992D01*
X123541944Y-81161401D01*
X123634851Y-80979062D01*
X123698086Y-80784445D01*
X123698086Y-80784442D01*
X123730100Y-80582319D01*
X123730100Y-80377680D01*
X123698086Y-80175557D01*
X123698086Y-80175554D01*
X123634851Y-79980937D01*
X123541944Y-79798598D01*
X123509545Y-79754006D01*
X123509545Y-79754005D01*
X122950602Y-80312948D01*
X122938884Y-80269213D01*
X122866989Y-80144687D01*
X122765313Y-80043011D01*
X122640787Y-79971116D01*
X122597049Y-79959396D01*
X123155993Y-79400453D01*
X123111401Y-79368055D01*
X122929062Y-79275148D01*
X122734444Y-79211913D01*
X122532319Y-79179900D01*
X122327681Y-79179900D01*
X122125557Y-79211913D01*
X122125554Y-79211913D01*
X121930937Y-79275148D01*
X121748602Y-79368053D01*
X121704006Y-79400453D01*
X122262950Y-79959396D01*
X122219213Y-79971116D01*
X122094687Y-80043011D01*
X121993011Y-80144687D01*
X121921116Y-80269213D01*
X121909396Y-80312949D01*
X121350453Y-79754006D01*
X121318053Y-79798602D01*
X121225148Y-79980937D01*
X121161913Y-80175554D01*
X121161913Y-80175557D01*
X121129900Y-80377680D01*
X117740500Y-80377680D01*
X117740500Y-76829335D01*
X117760185Y-76762296D01*
X117776814Y-76741659D01*
X123045660Y-71472812D01*
X123077041Y-71450013D01*
X123111663Y-71432373D01*
X123277284Y-71312042D01*
X123422042Y-71167284D01*
X123542373Y-71001663D01*
X123635314Y-70819257D01*
X123698575Y-70624558D01*
X123720567Y-70485704D01*
X123730600Y-70422364D01*
X123730600Y-70217635D01*
X123711969Y-70100008D01*
X123698575Y-70015442D01*
X123635314Y-69820743D01*
X123635314Y-69820742D01*
X123560012Y-69672956D01*
X123542373Y-69638337D01*
X123422042Y-69472716D01*
X123277284Y-69327958D01*
X123111663Y-69207627D01*
X123111662Y-69207626D01*
X123111660Y-69207625D01*
X123077042Y-69189986D01*
X123045657Y-69167183D01*
X119906819Y-66028345D01*
X119873334Y-65967022D01*
X119870500Y-65940664D01*
X119870500Y-62507153D01*
X119890185Y-62440114D01*
X119906814Y-62419476D01*
X119976592Y-62349699D01*
X120120273Y-62162450D01*
X120238284Y-61958049D01*
X120328606Y-61739993D01*
X120389693Y-61512014D01*
X120420500Y-61278011D01*
X120420500Y-61041989D01*
X120389693Y-60807986D01*
X120328606Y-60580007D01*
X120238284Y-60361951D01*
X120238282Y-60361948D01*
X120238280Y-60361943D01*
X120196118Y-60288918D01*
X120120273Y-60157550D01*
X119976592Y-59970301D01*
X119976587Y-59970295D01*
X119809704Y-59803412D01*
X119809697Y-59803406D01*
X119622454Y-59659730D01*
X119622453Y-59659729D01*
X119622450Y-59659727D01*
X119540957Y-59612677D01*
X119418056Y-59541719D01*
X119418045Y-59541714D01*
X119199993Y-59451394D01*
X119068670Y-59416206D01*
X118972014Y-59390307D01*
X118972013Y-59390306D01*
X118972010Y-59390306D01*
X118738020Y-59359501D01*
X118738017Y-59359500D01*
X118738011Y-59359500D01*
X118501989Y-59359500D01*
X118501983Y-59359500D01*
X118501979Y-59359501D01*
X118267989Y-59390306D01*
X118040006Y-59451394D01*
X117821954Y-59541714D01*
X117821943Y-59541719D01*
X117617545Y-59659730D01*
X117430302Y-59803406D01*
X117430295Y-59803412D01*
X117263412Y-59970295D01*
X117263406Y-59970302D01*
X117119730Y-60157545D01*
X117001719Y-60361943D01*
X117001714Y-60361954D01*
X116911394Y-60580006D01*
X116850306Y-60807989D01*
X116819501Y-61041979D01*
X116819500Y-61041995D01*
X116819500Y-61278004D01*
X116819501Y-61278020D01*
X116850306Y-61512010D01*
X116911394Y-61739993D01*
X117001714Y-61958045D01*
X117001719Y-61958056D01*
X117058501Y-62056403D01*
X117119727Y-62162450D01*
X117119729Y-62162453D01*
X117119730Y-62162454D01*
X117263405Y-62349696D01*
X117263406Y-62349697D01*
X117263408Y-62349699D01*
X117333182Y-62419473D01*
X117366666Y-62480794D01*
X117369500Y-62507153D01*
X117369500Y-66608422D01*
X117400290Y-66802826D01*
X117461117Y-66990030D01*
X117550476Y-67165405D01*
X117666172Y-67324646D01*
X117666174Y-67324648D01*
X120573845Y-70232319D01*
X120607330Y-70293642D01*
X120602346Y-70363334D01*
X120573845Y-70407681D01*
X115536174Y-75445351D01*
X115536174Y-75445352D01*
X115536172Y-75445354D01*
X115486485Y-75513741D01*
X115420476Y-75604594D01*
X115331117Y-75779969D01*
X115316144Y-75826052D01*
X115308355Y-75850025D01*
X115304196Y-75862826D01*
X115270290Y-75967173D01*
X115239500Y-76161577D01*
X107350500Y-76161577D01*
X107350500Y-74349335D01*
X107370185Y-74282296D01*
X107386814Y-74261659D01*
X110175660Y-71472812D01*
X110207041Y-71450013D01*
X110241663Y-71432373D01*
X110407284Y-71312042D01*
X110552042Y-71167284D01*
X110672373Y-71001663D01*
X110690013Y-70967041D01*
X110712812Y-70935660D01*
X114213828Y-67434646D01*
X114329524Y-67275405D01*
X114418884Y-67100026D01*
X114479709Y-66912826D01*
X114484904Y-66880026D01*
X114510500Y-66718422D01*
X114510500Y-63082351D01*
X114530185Y-63015312D01*
X114582989Y-62969557D01*
X114621247Y-62959061D01*
X114667483Y-62954091D01*
X114802331Y-62903796D01*
X114917546Y-62817546D01*
X115003796Y-62702331D01*
X115054091Y-62567483D01*
X115060500Y-62507873D01*
X115060499Y-59812128D01*
X115054091Y-59752517D01*
X115003796Y-59617669D01*
X115003795Y-59617668D01*
X115003793Y-59617664D01*
X114917547Y-59502455D01*
X114917544Y-59502452D01*
X114802335Y-59416206D01*
X114802328Y-59416202D01*
X114667482Y-59365908D01*
X114667483Y-59365908D01*
X114607883Y-59359501D01*
X114607881Y-59359500D01*
X114607873Y-59359500D01*
X114607864Y-59359500D01*
X111912129Y-59359500D01*
X111912123Y-59359501D01*
X111852516Y-59365908D01*
X111717671Y-59416202D01*
X111717664Y-59416206D01*
X111602455Y-59502452D01*
X111602452Y-59502455D01*
X111516206Y-59617664D01*
X111516202Y-59617671D01*
X111465908Y-59752517D01*
X111460437Y-59803408D01*
X111459501Y-59812123D01*
X111459500Y-59812135D01*
X111459500Y-62507870D01*
X111459501Y-62507876D01*
X111465908Y-62567483D01*
X111516202Y-62702328D01*
X111516206Y-62702335D01*
X111602452Y-62817544D01*
X111602455Y-62817547D01*
X111717664Y-62903793D01*
X111717671Y-62903797D01*
X111852516Y-62954091D01*
X111898757Y-62959063D01*
X111963307Y-62985801D01*
X112003155Y-63043194D01*
X112009500Y-63082352D01*
X112009500Y-66050663D01*
X111989815Y-66117702D01*
X111973181Y-66138344D01*
X108944341Y-69167183D01*
X108912959Y-69189985D01*
X108878338Y-69207626D01*
X108878333Y-69207629D01*
X108712719Y-69327955D01*
X108712713Y-69327960D01*
X108567960Y-69472713D01*
X108567955Y-69472719D01*
X108447629Y-69638333D01*
X108447626Y-69638338D01*
X108429985Y-69672959D01*
X108407183Y-69704341D01*
X105146174Y-72965351D01*
X105146172Y-72965354D01*
X105096485Y-73033741D01*
X105030476Y-73124594D01*
X104941114Y-73299976D01*
X104887381Y-73465350D01*
X104887382Y-73465351D01*
X104880290Y-73487178D01*
X104849500Y-73681577D01*
X104849500Y-83370663D01*
X104829815Y-83437702D01*
X104813181Y-83458344D01*
X101324341Y-86947183D01*
X101292959Y-86969985D01*
X101258338Y-86987626D01*
X101258333Y-86987629D01*
X101092719Y-87107955D01*
X101092713Y-87107960D01*
X100947960Y-87252713D01*
X100947960Y-87252714D01*
X100947958Y-87252716D01*
X100896280Y-87323843D01*
X100827627Y-87418336D01*
X100734685Y-87600742D01*
X100734684Y-87600745D01*
X100671425Y-87795440D01*
X100639400Y-87997635D01*
X100639400Y-88202364D01*
X100671425Y-88404559D01*
X100734684Y-88599254D01*
X100734685Y-88599257D01*
X100827627Y-88781663D01*
X100947958Y-88947284D01*
X101092716Y-89092042D01*
X101258337Y-89212373D01*
X101292957Y-89230013D01*
X101324342Y-89252816D01*
X106233181Y-94161655D01*
X106266666Y-94222978D01*
X106269500Y-94249336D01*
X106269500Y-100353948D01*
X106249815Y-100420987D01*
X106197011Y-100466742D01*
X106127853Y-100476686D01*
X106071189Y-100453215D01*
X106045394Y-100433905D01*
X105976331Y-100382204D01*
X105976330Y-100382203D01*
X105976328Y-100382202D01*
X105841482Y-100331908D01*
X105841483Y-100331908D01*
X105781883Y-100325501D01*
X105781881Y-100325500D01*
X105781873Y-100325500D01*
X105781865Y-100325500D01*
X105545336Y-100325500D01*
X105478297Y-100305815D01*
X105457655Y-100289181D01*
X101553148Y-96384674D01*
X101553146Y-96384672D01*
X101393905Y-96268976D01*
X101218530Y-96179617D01*
X101031326Y-96118790D01*
X100836922Y-96088000D01*
X100836917Y-96088000D01*
X99091583Y-96088000D01*
X99091578Y-96088000D01*
X98897173Y-96118790D01*
X98709970Y-96179617D01*
X98534594Y-96268976D01*
X98443741Y-96334985D01*
X98375354Y-96384672D01*
X98375352Y-96384674D01*
X98375351Y-96384674D01*
X98236174Y-96523851D01*
X98236174Y-96523852D01*
X98236172Y-96523854D01*
X98186485Y-96592241D01*
X98120476Y-96683094D01*
X98031117Y-96858470D01*
X97970290Y-97045673D01*
X97939500Y-97240077D01*
X94980500Y-97240077D01*
X94980500Y-89259335D01*
X95000185Y-89192296D01*
X95016814Y-89171659D01*
X102555660Y-81632812D01*
X102587041Y-81610013D01*
X102621663Y-81592373D01*
X102787284Y-81472042D01*
X102932042Y-81327284D01*
X103052373Y-81161663D01*
X103145314Y-80979257D01*
X103208575Y-80784558D01*
X103225074Y-80680385D01*
X103240600Y-80582364D01*
X103240600Y-80377635D01*
X103208593Y-80175557D01*
X103208575Y-80175442D01*
X103165546Y-80043011D01*
X103145315Y-79980745D01*
X103145314Y-79980742D01*
X103086003Y-79864340D01*
X103052373Y-79798337D01*
X102932042Y-79632716D01*
X102787284Y-79487958D01*
X102621663Y-79367627D01*
X102621662Y-79367626D01*
X102621660Y-79367625D01*
X102587042Y-79349986D01*
X102555657Y-79327183D01*
X97843866Y-74615392D01*
X97831229Y-74600596D01*
X97783830Y-74535357D01*
X97783825Y-74535351D01*
X97644648Y-74396174D01*
X97644646Y-74396172D01*
X97485405Y-74280476D01*
X97410549Y-74242335D01*
X97310029Y-74191117D01*
X97122826Y-74130290D01*
X96928422Y-74099500D01*
X96928417Y-74099500D01*
X96731583Y-74099500D01*
X96731578Y-74099500D01*
X96537173Y-74130290D01*
X96349970Y-74191117D01*
X96174594Y-74280476D01*
X96124784Y-74316666D01*
X96015354Y-74396172D01*
X96015352Y-74396174D01*
X96015351Y-74396174D01*
X95876174Y-74535351D01*
X95876174Y-74535352D01*
X95876172Y-74535354D01*
X95876170Y-74535357D01*
X95760476Y-74694594D01*
X95671117Y-74869970D01*
X95610290Y-75057173D01*
X95579500Y-75251577D01*
X95579500Y-75468422D01*
X95610290Y-75662826D01*
X95671117Y-75850030D01*
X95730805Y-75967173D01*
X95760476Y-76025405D01*
X95876172Y-76184646D01*
X95876174Y-76184648D01*
X100083844Y-80392318D01*
X100117329Y-80453641D01*
X100112345Y-80523333D01*
X100083844Y-80567680D01*
X97560715Y-83090809D01*
X97499392Y-83124294D01*
X97429700Y-83119310D01*
X97373767Y-83077438D01*
X97355103Y-83041446D01*
X97318884Y-82929975D01*
X97229524Y-82754595D01*
X97113828Y-82595354D01*
X96974646Y-82456172D01*
X96815405Y-82340476D01*
X96640029Y-82251117D01*
X96452826Y-82190290D01*
X96258422Y-82159500D01*
X96258417Y-82159500D01*
X91919337Y-82159500D01*
X91852298Y-82139815D01*
X91831656Y-82123181D01*
X89572815Y-79864340D01*
X89550011Y-79832952D01*
X89532379Y-79798346D01*
X89532375Y-79798340D01*
X89526736Y-79790579D01*
X89412042Y-79632716D01*
X89267284Y-79487958D01*
X89101663Y-79367627D01*
X89067039Y-79349985D01*
X88919257Y-79274685D01*
X88919254Y-79274684D01*
X88724559Y-79211425D01*
X88522364Y-79179400D01*
X88522359Y-79179400D01*
X88317641Y-79179400D01*
X88317636Y-79179400D01*
X88115440Y-79211425D01*
X87920745Y-79274684D01*
X87920742Y-79274685D01*
X87738336Y-79367627D01*
X87643843Y-79436280D01*
X87572716Y-79487958D01*
X87572714Y-79487960D01*
X87572713Y-79487960D01*
X87427960Y-79632713D01*
X87427960Y-79632714D01*
X87427958Y-79632716D01*
X87410766Y-79656379D01*
X87307627Y-79798336D01*
X87214685Y-79980742D01*
X87214684Y-79980745D01*
X87151425Y-80175440D01*
X87119400Y-80377635D01*
X85710500Y-80377635D01*
X85710500Y-74849335D01*
X85730185Y-74782296D01*
X85746814Y-74761659D01*
X89035660Y-71472812D01*
X89067041Y-71450013D01*
X89101663Y-71432373D01*
X89267284Y-71312042D01*
X89412042Y-71167284D01*
X89532373Y-71001663D01*
X89550013Y-70967041D01*
X89572812Y-70935660D01*
X90290837Y-70217635D01*
X100639400Y-70217635D01*
X100639400Y-70422364D01*
X100671425Y-70624559D01*
X100734684Y-70819254D01*
X100734685Y-70819257D01*
X100827583Y-71001576D01*
X100827627Y-71001663D01*
X100947958Y-71167284D01*
X101092716Y-71312042D01*
X101258337Y-71432373D01*
X101347801Y-71477957D01*
X101440742Y-71525314D01*
X101440745Y-71525315D01*
X101505781Y-71546446D01*
X101635442Y-71588575D01*
X101729089Y-71603407D01*
X101837636Y-71620600D01*
X101837641Y-71620600D01*
X102042364Y-71620600D01*
X102140385Y-71605074D01*
X102244558Y-71588575D01*
X102439257Y-71525314D01*
X102621663Y-71432373D01*
X102787284Y-71312042D01*
X102932042Y-71167284D01*
X103052373Y-71001663D01*
X103145314Y-70819257D01*
X103208575Y-70624558D01*
X103230567Y-70485704D01*
X103240600Y-70422364D01*
X103240600Y-70217635D01*
X103221969Y-70100008D01*
X103208575Y-70015442D01*
X103145314Y-69820743D01*
X103145314Y-69820742D01*
X103070012Y-69672956D01*
X103052373Y-69638337D01*
X102932042Y-69472716D01*
X102787284Y-69327958D01*
X102621663Y-69207627D01*
X102587039Y-69189985D01*
X102439257Y-69114685D01*
X102439254Y-69114684D01*
X102244559Y-69051425D01*
X102042364Y-69019400D01*
X102042359Y-69019400D01*
X101837641Y-69019400D01*
X101837636Y-69019400D01*
X101635440Y-69051425D01*
X101440745Y-69114684D01*
X101440742Y-69114685D01*
X101258336Y-69207627D01*
X101163843Y-69276280D01*
X101092716Y-69327958D01*
X101092714Y-69327960D01*
X101092713Y-69327960D01*
X100947960Y-69472713D01*
X100947960Y-69472714D01*
X100947958Y-69472716D01*
X100947956Y-69472719D01*
X100827627Y-69638336D01*
X100734685Y-69820742D01*
X100734684Y-69820745D01*
X100671425Y-70015440D01*
X100639400Y-70217635D01*
X90290837Y-70217635D01*
X93073828Y-67434646D01*
X93189524Y-67275405D01*
X93278884Y-67100026D01*
X93339709Y-66912826D01*
X93344904Y-66880026D01*
X93370500Y-66718422D01*
X93370500Y-63082351D01*
X93390185Y-63015312D01*
X93442989Y-62969557D01*
X93481247Y-62959061D01*
X93527483Y-62954091D01*
X93662331Y-62903796D01*
X93777546Y-62817546D01*
X93863796Y-62702331D01*
X93914091Y-62567483D01*
X93920500Y-62507873D01*
X93920499Y-61041995D01*
X96219500Y-61041995D01*
X96219500Y-61278004D01*
X96219501Y-61278020D01*
X96250306Y-61512010D01*
X96311394Y-61739993D01*
X96401714Y-61958045D01*
X96401719Y-61958056D01*
X96458501Y-62056403D01*
X96519727Y-62162450D01*
X96519729Y-62162453D01*
X96519730Y-62162454D01*
X96663406Y-62349697D01*
X96663412Y-62349704D01*
X96830295Y-62516587D01*
X96830302Y-62516593D01*
X96902167Y-62571737D01*
X97017550Y-62660273D01*
X97090397Y-62702331D01*
X97221943Y-62778280D01*
X97221948Y-62778282D01*
X97221951Y-62778284D01*
X97440007Y-62868606D01*
X97667986Y-62929693D01*
X97901989Y-62960500D01*
X97901996Y-62960500D01*
X98138004Y-62960500D01*
X98138011Y-62960500D01*
X98372014Y-62929693D01*
X98599993Y-62868606D01*
X98818049Y-62778284D01*
X99022450Y-62660273D01*
X99209699Y-62516592D01*
X99376592Y-62349699D01*
X99520273Y-62162450D01*
X99638284Y-61958049D01*
X99728606Y-61739993D01*
X99789693Y-61512014D01*
X99820500Y-61278011D01*
X99820500Y-61041989D01*
X99789693Y-60807986D01*
X99728606Y-60580007D01*
X99638284Y-60361951D01*
X99638282Y-60361948D01*
X99638280Y-60361943D01*
X99596118Y-60288918D01*
X99520273Y-60157550D01*
X99376592Y-59970301D01*
X99376587Y-59970295D01*
X99209704Y-59803412D01*
X99209697Y-59803406D01*
X99022454Y-59659730D01*
X99022453Y-59659729D01*
X99022450Y-59659727D01*
X98940957Y-59612677D01*
X98818056Y-59541719D01*
X98818045Y-59541714D01*
X98599993Y-59451394D01*
X98468670Y-59416206D01*
X98372014Y-59390307D01*
X98372013Y-59390306D01*
X98372010Y-59390306D01*
X98138020Y-59359501D01*
X98138017Y-59359500D01*
X98138011Y-59359500D01*
X97901989Y-59359500D01*
X97901983Y-59359500D01*
X97901979Y-59359501D01*
X97667989Y-59390306D01*
X97440006Y-59451394D01*
X97221954Y-59541714D01*
X97221943Y-59541719D01*
X97017545Y-59659730D01*
X96830302Y-59803406D01*
X96830295Y-59803412D01*
X96663412Y-59970295D01*
X96663406Y-59970302D01*
X96519730Y-60157545D01*
X96401719Y-60361943D01*
X96401714Y-60361954D01*
X96311394Y-60580006D01*
X96250306Y-60807989D01*
X96219501Y-61041979D01*
X96219500Y-61041995D01*
X93920499Y-61041995D01*
X93920499Y-59812128D01*
X93914091Y-59752517D01*
X93863796Y-59617669D01*
X93863795Y-59617668D01*
X93863793Y-59617664D01*
X93777547Y-59502455D01*
X93777544Y-59502452D01*
X93662335Y-59416206D01*
X93662328Y-59416202D01*
X93527482Y-59365908D01*
X93527483Y-59365908D01*
X93467883Y-59359501D01*
X93467881Y-59359500D01*
X93467873Y-59359500D01*
X93467864Y-59359500D01*
X90772129Y-59359500D01*
X90772123Y-59359501D01*
X90712516Y-59365908D01*
X90577671Y-59416202D01*
X90577664Y-59416206D01*
X90462455Y-59502452D01*
X90462452Y-59502455D01*
X90376206Y-59617664D01*
X90376202Y-59617671D01*
X90325908Y-59752517D01*
X90320437Y-59803408D01*
X90319501Y-59812123D01*
X90319500Y-59812135D01*
X90319500Y-62507870D01*
X90319501Y-62507876D01*
X90325908Y-62567483D01*
X90376202Y-62702328D01*
X90376206Y-62702335D01*
X90462452Y-62817544D01*
X90462455Y-62817547D01*
X90577664Y-62903793D01*
X90577671Y-62903797D01*
X90712516Y-62954091D01*
X90758757Y-62959063D01*
X90823307Y-62985801D01*
X90863155Y-63043194D01*
X90869500Y-63082352D01*
X90869500Y-66050663D01*
X90849815Y-66117702D01*
X90833181Y-66138344D01*
X87804341Y-69167183D01*
X87772959Y-69189985D01*
X87738338Y-69207626D01*
X87738333Y-69207629D01*
X87572719Y-69327955D01*
X87572713Y-69327960D01*
X87427960Y-69472713D01*
X87427955Y-69472719D01*
X87307629Y-69638333D01*
X87307626Y-69638338D01*
X87289985Y-69672959D01*
X87267183Y-69704341D01*
X84013281Y-72958244D01*
X83951958Y-72991729D01*
X83882266Y-72986745D01*
X83826333Y-72944873D01*
X83801916Y-72879409D01*
X83801600Y-72870563D01*
X83801600Y-71972679D01*
X83793431Y-71921106D01*
X83793431Y-71921104D01*
X83770810Y-71778277D01*
X83770809Y-71778276D01*
X83770809Y-71778273D01*
X83734402Y-71666226D01*
X83734402Y-71666225D01*
X83709985Y-71591077D01*
X83694323Y-71560339D01*
X83620624Y-71415695D01*
X83504928Y-71256454D01*
X83365746Y-71117272D01*
X81952815Y-69704341D01*
X81930012Y-69672956D01*
X81912373Y-69638337D01*
X81792042Y-69472716D01*
X81647284Y-69327958D01*
X81481663Y-69207627D01*
X81481662Y-69207626D01*
X81481660Y-69207625D01*
X81447042Y-69189986D01*
X81415657Y-69167183D01*
X78166819Y-65918345D01*
X78133334Y-65857022D01*
X78130500Y-65830664D01*
X78130500Y-62507153D01*
X78150185Y-62440114D01*
X78166814Y-62419476D01*
X78236592Y-62349699D01*
X78380273Y-62162450D01*
X78498284Y-61958049D01*
X78588606Y-61739993D01*
X78649693Y-61512014D01*
X78680500Y-61278011D01*
X78680500Y-61041989D01*
X78649693Y-60807986D01*
X78588606Y-60580007D01*
X78498284Y-60361951D01*
X78498282Y-60361948D01*
X78498280Y-60361943D01*
X78456118Y-60288918D01*
X78380273Y-60157550D01*
X78236592Y-59970301D01*
X78236587Y-59970295D01*
X78069704Y-59803412D01*
X78069697Y-59803406D01*
X77882454Y-59659730D01*
X77882453Y-59659729D01*
X77882450Y-59659727D01*
X77800957Y-59612677D01*
X77678056Y-59541719D01*
X77678045Y-59541714D01*
X77459993Y-59451394D01*
X77328670Y-59416206D01*
X77232014Y-59390307D01*
X77232013Y-59390306D01*
X77232010Y-59390306D01*
X76998020Y-59359501D01*
X76998017Y-59359500D01*
X76998011Y-59359500D01*
X76761989Y-59359500D01*
X76761983Y-59359500D01*
X76761979Y-59359501D01*
X76527989Y-59390306D01*
X76300006Y-59451394D01*
X76081954Y-59541714D01*
X76081943Y-59541719D01*
X75877545Y-59659730D01*
X75690302Y-59803406D01*
X75690295Y-59803412D01*
X75523412Y-59970295D01*
X75523406Y-59970302D01*
X75379730Y-60157545D01*
X75261719Y-60361943D01*
X75261714Y-60361954D01*
X75171394Y-60580006D01*
X75110306Y-60807989D01*
X75079501Y-61041979D01*
X75079500Y-61041995D01*
X75079500Y-61278004D01*
X75079501Y-61278020D01*
X75110306Y-61512010D01*
X75171394Y-61739993D01*
X75261714Y-61958045D01*
X75261719Y-61958056D01*
X75318501Y-62056403D01*
X75379727Y-62162450D01*
X75379729Y-62162453D01*
X75379730Y-62162454D01*
X75523405Y-62349696D01*
X75523406Y-62349697D01*
X75523408Y-62349699D01*
X75593182Y-62419473D01*
X75626666Y-62480794D01*
X75629500Y-62507153D01*
X75629500Y-66498422D01*
X75660290Y-66692826D01*
X75721117Y-66880030D01*
X75810476Y-67055405D01*
X75926172Y-67214646D01*
X75926174Y-67214648D01*
X79647183Y-70935657D01*
X79669986Y-70967042D01*
X79687582Y-71001576D01*
X79687627Y-71001663D01*
X79807958Y-71167284D01*
X79952716Y-71312042D01*
X80118337Y-71432373D01*
X80152957Y-71450013D01*
X80184342Y-71472816D01*
X81264281Y-72552755D01*
X81297766Y-72614078D01*
X81300600Y-72640436D01*
X81300600Y-79104977D01*
X81280915Y-79172016D01*
X81228111Y-79217771D01*
X81158953Y-79227715D01*
X81138282Y-79222908D01*
X81104443Y-79211913D01*
X80902319Y-79179900D01*
X80697681Y-79179900D01*
X80495557Y-79211913D01*
X80495554Y-79211913D01*
X80300937Y-79275148D01*
X80118602Y-79368053D01*
X80074006Y-79400453D01*
X80632949Y-79959396D01*
X80589213Y-79971116D01*
X80464687Y-80043011D01*
X80363011Y-80144687D01*
X80291116Y-80269213D01*
X80279396Y-80312949D01*
X79720453Y-79754006D01*
X79688053Y-79798602D01*
X79595148Y-79980937D01*
X79531913Y-80175554D01*
X79531913Y-80175557D01*
X79499900Y-80377680D01*
X79499900Y-80582319D01*
X79531913Y-80784442D01*
X79531913Y-80784445D01*
X79595148Y-80979062D01*
X79688055Y-81161401D01*
X79720453Y-81205992D01*
X79720453Y-81205993D01*
X80279396Y-80647049D01*
X80291116Y-80690787D01*
X80363011Y-80815313D01*
X80464687Y-80916989D01*
X80589213Y-80988884D01*
X80632948Y-81000602D01*
X80074005Y-81559545D01*
X80118598Y-81591944D01*
X80300937Y-81684851D01*
X80495555Y-81748086D01*
X80697681Y-81780100D01*
X80902319Y-81780100D01*
X81104442Y-81748086D01*
X81104444Y-81748086D01*
X81138279Y-81737092D01*
X81166400Y-81736287D01*
X81194247Y-81732284D01*
X81200856Y-81735302D01*
X81208120Y-81735095D01*
X81232211Y-81749621D01*
X81257803Y-81761309D01*
X81261731Y-81767421D01*
X81267954Y-81771174D01*
X81280367Y-81796419D01*
X81295577Y-81820087D01*
X81297053Y-81830356D01*
X81298783Y-81833874D01*
X81300600Y-81855022D01*
X81300600Y-81969564D01*
X81280915Y-82036603D01*
X81264281Y-82057245D01*
X78006174Y-85315351D01*
X78006174Y-85315352D01*
X78006172Y-85315354D01*
X77972305Y-85361968D01*
X77890476Y-85474594D01*
X77801117Y-85649969D01*
X77740290Y-85837173D01*
X77709500Y-86031577D01*
X77709500Y-86228422D01*
X77740290Y-86422826D01*
X77801117Y-86610030D01*
X77831269Y-86669205D01*
X77844165Y-86737874D01*
X77817889Y-86802615D01*
X77760782Y-86842872D01*
X77720784Y-86849500D01*
X73961578Y-86849500D01*
X73767173Y-86880290D01*
X73579969Y-86941117D01*
X73404594Y-87030476D01*
X73313741Y-87096485D01*
X73245354Y-87146172D01*
X73245352Y-87146174D01*
X73245351Y-87146174D01*
X59410607Y-100980917D01*
X59361245Y-101011167D01*
X59193196Y-101065770D01*
X59035768Y-101145985D01*
X58979473Y-101159500D01*
X57979336Y-101159500D01*
X57912297Y-101139815D01*
X57891655Y-101123181D01*
X53276819Y-96508345D01*
X53243334Y-96447022D01*
X53240500Y-96420664D01*
X53240500Y-90855837D01*
X58419500Y-90855837D01*
X58419500Y-91084162D01*
X58455215Y-91309660D01*
X58525770Y-91526803D01*
X58629421Y-91730228D01*
X58763621Y-91914937D01*
X58925063Y-92076379D01*
X59109772Y-92210579D01*
X59205884Y-92259550D01*
X59313196Y-92314229D01*
X59313198Y-92314229D01*
X59313201Y-92314231D01*
X59429592Y-92352049D01*
X59530339Y-92384784D01*
X59755838Y-92420500D01*
X59755843Y-92420500D01*
X59984162Y-92420500D01*
X60209660Y-92384784D01*
X60426799Y-92314231D01*
X60630228Y-92210579D01*
X60814937Y-92076379D01*
X60976379Y-91914937D01*
X61110579Y-91730228D01*
X61214231Y-91526799D01*
X61284784Y-91309660D01*
X61284827Y-91309390D01*
X61320500Y-91084162D01*
X61320500Y-90855837D01*
X61284784Y-90630339D01*
X61215927Y-90418422D01*
X61214231Y-90413201D01*
X61214229Y-90413198D01*
X61214229Y-90413196D01*
X61110578Y-90209771D01*
X60995647Y-90051583D01*
X60976379Y-90025063D01*
X60814937Y-89863621D01*
X60630228Y-89729421D01*
X60426803Y-89625770D01*
X60209660Y-89555215D01*
X59984162Y-89519500D01*
X59984157Y-89519500D01*
X59755843Y-89519500D01*
X59755838Y-89519500D01*
X59530339Y-89555215D01*
X59313196Y-89625770D01*
X59109771Y-89729421D01*
X58925061Y-89863622D01*
X58763622Y-90025061D01*
X58629421Y-90209771D01*
X58525770Y-90413196D01*
X58455215Y-90630339D01*
X58419500Y-90855837D01*
X53240500Y-90855837D01*
X53240500Y-86655837D01*
X58419500Y-86655837D01*
X58419500Y-86884162D01*
X58455215Y-87109660D01*
X58525770Y-87326803D01*
X58629421Y-87530228D01*
X58763621Y-87714937D01*
X58925063Y-87876379D01*
X59109772Y-88010579D01*
X59168639Y-88040573D01*
X59313196Y-88114229D01*
X59313198Y-88114229D01*
X59313201Y-88114231D01*
X59421901Y-88149550D01*
X59530339Y-88184784D01*
X59755838Y-88220500D01*
X59755843Y-88220500D01*
X59984162Y-88220500D01*
X60209660Y-88184784D01*
X60225199Y-88179735D01*
X60426799Y-88114231D01*
X60557825Y-88047469D01*
X60626493Y-88034574D01*
X60691233Y-88060850D01*
X60701800Y-88070274D01*
X63940916Y-91309390D01*
X63971166Y-91358752D01*
X64025770Y-91526803D01*
X64129421Y-91730228D01*
X64263621Y-91914937D01*
X64425063Y-92076379D01*
X64609772Y-92210579D01*
X64705884Y-92259550D01*
X64813196Y-92314229D01*
X64813198Y-92314229D01*
X64813201Y-92314231D01*
X64929592Y-92352049D01*
X65030339Y-92384784D01*
X65255838Y-92420500D01*
X65255843Y-92420500D01*
X65484162Y-92420500D01*
X65709660Y-92384784D01*
X65926799Y-92314231D01*
X66130228Y-92210579D01*
X66314937Y-92076379D01*
X66476379Y-91914937D01*
X66610579Y-91730228D01*
X66714231Y-91526799D01*
X66784784Y-91309660D01*
X66784827Y-91309390D01*
X66820500Y-91084162D01*
X66820500Y-90855837D01*
X66784784Y-90630339D01*
X66715927Y-90418422D01*
X66714231Y-90413201D01*
X66714229Y-90413198D01*
X66714229Y-90413196D01*
X66610578Y-90209771D01*
X66495647Y-90051583D01*
X66476379Y-90025063D01*
X66314937Y-89863621D01*
X66130228Y-89729421D01*
X65926803Y-89625770D01*
X65758752Y-89571166D01*
X65709390Y-89540916D01*
X61984648Y-85816174D01*
X61984646Y-85816172D01*
X61825405Y-85700476D01*
X61650030Y-85611117D01*
X61462826Y-85550290D01*
X61268422Y-85519500D01*
X61268417Y-85519500D01*
X60640527Y-85519500D01*
X60584232Y-85505985D01*
X60426803Y-85425770D01*
X60209660Y-85355215D01*
X59984162Y-85319500D01*
X59984157Y-85319500D01*
X59755843Y-85319500D01*
X59755838Y-85319500D01*
X59530339Y-85355215D01*
X59313196Y-85425770D01*
X59109771Y-85529421D01*
X58925061Y-85663622D01*
X58763622Y-85825061D01*
X58629421Y-86009771D01*
X58525770Y-86213196D01*
X58455215Y-86430339D01*
X58419500Y-86655837D01*
X53240500Y-86655837D01*
X53240500Y-72637327D01*
X53609500Y-72637327D01*
X53609500Y-83068422D01*
X53640290Y-83262826D01*
X53701117Y-83450029D01*
X53761162Y-83567873D01*
X53790476Y-83625405D01*
X53906172Y-83784646D01*
X54045354Y-83923828D01*
X54204595Y-84039524D01*
X54215798Y-84045232D01*
X54379970Y-84128882D01*
X54379972Y-84128882D01*
X54379975Y-84128884D01*
X54480317Y-84161487D01*
X54567173Y-84189709D01*
X54761578Y-84220500D01*
X54761583Y-84220500D01*
X54958422Y-84220500D01*
X55152826Y-84189709D01*
X55181811Y-84180291D01*
X55340025Y-84128884D01*
X55515405Y-84039524D01*
X55674646Y-83923828D01*
X55813828Y-83784646D01*
X55929524Y-83625405D01*
X56018884Y-83450025D01*
X56079709Y-83262826D01*
X56101253Y-83126803D01*
X56110500Y-83068422D01*
X56110500Y-82455837D01*
X58419500Y-82455837D01*
X58419500Y-82684162D01*
X58455215Y-82909660D01*
X58525770Y-83126803D01*
X58595078Y-83262826D01*
X58629421Y-83330228D01*
X58763621Y-83514937D01*
X58925063Y-83676379D01*
X59109772Y-83810579D01*
X59143378Y-83827702D01*
X59313196Y-83914229D01*
X59313198Y-83914229D01*
X59313201Y-83914231D01*
X59429592Y-83952049D01*
X59530339Y-83984784D01*
X59755838Y-84020500D01*
X59755843Y-84020500D01*
X59984162Y-84020500D01*
X60209660Y-83984784D01*
X60426799Y-83914231D01*
X60557825Y-83847469D01*
X60626493Y-83834574D01*
X60691233Y-83860850D01*
X60701800Y-83870274D01*
X63940916Y-87109390D01*
X63971166Y-87158752D01*
X64025770Y-87326803D01*
X64129421Y-87530228D01*
X64263621Y-87714937D01*
X64425063Y-87876379D01*
X64609772Y-88010579D01*
X64668639Y-88040573D01*
X64813196Y-88114229D01*
X64813198Y-88114229D01*
X64813201Y-88114231D01*
X64921901Y-88149550D01*
X65030339Y-88184784D01*
X65255838Y-88220500D01*
X65255843Y-88220500D01*
X65484162Y-88220500D01*
X65709660Y-88184784D01*
X65725199Y-88179735D01*
X65926799Y-88114231D01*
X66084232Y-88034014D01*
X66140527Y-88020500D01*
X68828422Y-88020500D01*
X69022826Y-87989709D01*
X69210026Y-87928884D01*
X69385405Y-87839524D01*
X69544646Y-87723828D01*
X78893828Y-78374646D01*
X79009524Y-78215405D01*
X79098884Y-78040026D01*
X79159709Y-77852826D01*
X79169696Y-77789772D01*
X79169696Y-77789771D01*
X79190500Y-77658421D01*
X79190500Y-77461577D01*
X79172586Y-77348483D01*
X79159709Y-77267174D01*
X79159708Y-77267170D01*
X79159708Y-77267169D01*
X79100391Y-77084612D01*
X79099329Y-77080847D01*
X79009523Y-76904594D01*
X78893828Y-76745354D01*
X78754646Y-76606172D01*
X78595405Y-76490476D01*
X78420030Y-76401117D01*
X78232826Y-76340290D01*
X78038422Y-76309500D01*
X78038417Y-76309500D01*
X77841583Y-76309500D01*
X77841579Y-76309500D01*
X77769211Y-76320962D01*
X77751119Y-76323828D01*
X77751118Y-76323828D01*
X77647174Y-76340290D01*
X77647173Y-76340290D01*
X77459969Y-76401117D01*
X77284594Y-76490476D01*
X77238694Y-76523825D01*
X77125354Y-76606172D01*
X77125352Y-76606174D01*
X77125351Y-76606174D01*
X68248345Y-85483181D01*
X68187022Y-85516666D01*
X68160664Y-85519500D01*
X66140527Y-85519500D01*
X66084232Y-85505985D01*
X65926803Y-85425770D01*
X65758752Y-85371166D01*
X65709390Y-85340916D01*
X64600654Y-84232180D01*
X64567169Y-84170857D01*
X64572153Y-84101165D01*
X64614025Y-84045232D01*
X64679489Y-84020815D01*
X64688335Y-84020499D01*
X66367871Y-84020499D01*
X66367872Y-84020499D01*
X66427483Y-84014091D01*
X66562331Y-83963796D01*
X66677546Y-83877546D01*
X66763796Y-83762331D01*
X66814091Y-83627483D01*
X66820500Y-83567873D01*
X66820499Y-81572128D01*
X66814091Y-81512517D01*
X66795854Y-81463622D01*
X66763797Y-81377671D01*
X66763793Y-81377664D01*
X66677547Y-81262455D01*
X66677544Y-81262452D01*
X66562335Y-81176206D01*
X66562328Y-81176202D01*
X66427482Y-81125908D01*
X66427483Y-81125908D01*
X66367883Y-81119501D01*
X66367881Y-81119500D01*
X66367873Y-81119500D01*
X66367864Y-81119500D01*
X64372129Y-81119500D01*
X64372123Y-81119501D01*
X64312516Y-81125908D01*
X64177671Y-81176202D01*
X64177664Y-81176206D01*
X64062455Y-81262452D01*
X64062452Y-81262455D01*
X63976206Y-81377664D01*
X63976202Y-81377671D01*
X63925908Y-81512517D01*
X63919501Y-81572116D01*
X63919501Y-81572123D01*
X63919500Y-81572135D01*
X63919500Y-83251664D01*
X63899815Y-83318703D01*
X63847011Y-83364458D01*
X63777853Y-83374402D01*
X63714297Y-83345377D01*
X63707819Y-83339345D01*
X61984648Y-81616174D01*
X61984646Y-81616172D01*
X61825405Y-81500476D01*
X61650030Y-81411117D01*
X61462826Y-81350290D01*
X61268422Y-81319500D01*
X61268417Y-81319500D01*
X60640527Y-81319500D01*
X60584232Y-81305985D01*
X60426803Y-81225770D01*
X60209660Y-81155215D01*
X59984162Y-81119500D01*
X59984157Y-81119500D01*
X59755843Y-81119500D01*
X59755838Y-81119500D01*
X59530339Y-81155215D01*
X59313196Y-81225770D01*
X59109771Y-81329421D01*
X58925061Y-81463622D01*
X58763622Y-81625061D01*
X58629421Y-81809771D01*
X58525770Y-82013196D01*
X58455215Y-82230339D01*
X58419500Y-82455837D01*
X56110500Y-82455837D01*
X56110500Y-75471577D01*
X62449500Y-75471577D01*
X62449500Y-75668422D01*
X62480290Y-75862826D01*
X62541117Y-76050029D01*
X62597954Y-76161577D01*
X62630476Y-76225405D01*
X62746172Y-76384646D01*
X62885354Y-76523828D01*
X63044595Y-76639524D01*
X63127455Y-76681743D01*
X63219970Y-76728882D01*
X63219972Y-76728882D01*
X63219975Y-76728884D01*
X63320317Y-76761487D01*
X63407173Y-76789709D01*
X63601578Y-76820500D01*
X63601583Y-76820500D01*
X69868422Y-76820500D01*
X70062826Y-76789709D01*
X70250026Y-76728884D01*
X70425405Y-76639524D01*
X70584646Y-76523828D01*
X73483828Y-73624646D01*
X73599523Y-73465406D01*
X73599550Y-73465354D01*
X73688884Y-73290025D01*
X73749709Y-73102826D01*
X73750078Y-73100500D01*
X73764985Y-73006377D01*
X73780500Y-72908422D01*
X73780500Y-58689336D01*
X73800185Y-58622297D01*
X73816819Y-58601655D01*
X76321655Y-56096819D01*
X76382978Y-56063334D01*
X76409336Y-56060500D01*
X126940664Y-56060500D01*
X127007703Y-56080185D01*
X127028345Y-56096819D01*
X132023181Y-61091655D01*
X132056666Y-61152978D01*
X132059500Y-61179336D01*
X132059500Y-62507870D01*
X132059501Y-62507876D01*
X132065908Y-62567483D01*
X132116202Y-62702328D01*
X132116206Y-62702335D01*
X132202452Y-62817544D01*
X132202455Y-62817547D01*
X132317664Y-62903793D01*
X132317671Y-62903797D01*
X132452516Y-62954091D01*
X132498757Y-62959063D01*
X132563307Y-62985801D01*
X132603155Y-63043194D01*
X132609500Y-63082352D01*
X132609500Y-65940663D01*
X132589815Y-66007702D01*
X132573181Y-66028344D01*
X129434341Y-69167183D01*
X129402959Y-69189985D01*
X129368338Y-69207626D01*
X129368333Y-69207629D01*
X129202719Y-69327955D01*
X129202713Y-69327960D01*
X129057960Y-69472713D01*
X129057955Y-69472719D01*
X128937629Y-69638333D01*
X128937626Y-69638338D01*
X128919985Y-69672959D01*
X128897183Y-69704341D01*
X125246174Y-73355351D01*
X125246172Y-73355354D01*
X125211153Y-73403553D01*
X125130476Y-73514594D01*
X125041115Y-73689973D01*
X125041114Y-73689976D01*
X125003653Y-73805273D01*
X124980290Y-73877176D01*
X124980290Y-73877177D01*
X124949500Y-74071577D01*
X124949500Y-83760663D01*
X124929815Y-83827702D01*
X124913181Y-83848344D01*
X121814341Y-86947183D01*
X121782959Y-86969985D01*
X121748338Y-86987626D01*
X121748333Y-86987629D01*
X121582719Y-87107955D01*
X121582713Y-87107960D01*
X121437960Y-87252713D01*
X121437960Y-87252714D01*
X121437958Y-87252716D01*
X121386280Y-87323843D01*
X121317627Y-87418336D01*
X121224685Y-87600742D01*
X121224684Y-87600745D01*
X121161425Y-87795440D01*
X121129400Y-87997635D01*
X121129400Y-88202364D01*
X121161425Y-88404559D01*
X121224684Y-88599254D01*
X121224685Y-88599257D01*
X121317627Y-88781663D01*
X121437958Y-88947284D01*
X121582716Y-89092042D01*
X121748337Y-89212373D01*
X121782957Y-89230013D01*
X121814342Y-89252816D01*
X126283181Y-93721655D01*
X126316666Y-93782978D01*
X126319500Y-93809336D01*
X126319500Y-100353948D01*
X126299815Y-100420987D01*
X126247011Y-100466742D01*
X126177853Y-100476686D01*
X126121189Y-100453215D01*
X126095394Y-100433905D01*
X126026331Y-100382204D01*
X126026330Y-100382203D01*
X126026328Y-100382202D01*
X125891482Y-100331908D01*
X125891483Y-100331908D01*
X125831883Y-100325501D01*
X125831881Y-100325500D01*
X125831873Y-100325500D01*
X125831865Y-100325500D01*
X125595336Y-100325500D01*
X125528297Y-100305815D01*
X125507655Y-100289181D01*
X121603148Y-96384674D01*
X121603146Y-96384672D01*
X121443905Y-96268976D01*
X121268530Y-96179617D01*
X121081326Y-96118790D01*
X120886922Y-96088000D01*
X120886917Y-96088000D01*
X117741583Y-96088000D01*
X117741578Y-96088000D01*
X117547173Y-96118790D01*
X117359970Y-96179617D01*
X117184594Y-96268976D01*
X117093741Y-96334985D01*
X117025354Y-96384672D01*
X117025352Y-96384674D01*
X117025351Y-96384674D01*
X116886174Y-96523851D01*
X116886174Y-96523852D01*
X116886172Y-96523854D01*
X116836485Y-96592241D01*
X116770476Y-96683094D01*
X116681117Y-96858470D01*
X116620290Y-97045673D01*
X116589500Y-97240077D01*
X116589500Y-97436922D01*
X116620290Y-97631326D01*
X116681117Y-97818529D01*
X116762977Y-97979187D01*
X116770476Y-97993905D01*
X116886172Y-98153146D01*
X117025354Y-98292328D01*
X117184595Y-98408024D01*
X117223885Y-98428043D01*
X117359970Y-98497382D01*
X117359972Y-98497382D01*
X117359975Y-98497384D01*
X117451191Y-98527022D01*
X117547173Y-98558209D01*
X117741578Y-98589000D01*
X117741583Y-98589000D01*
X120219164Y-98589000D01*
X120286203Y-98608685D01*
X120306845Y-98625319D01*
X123739181Y-102057655D01*
X123772666Y-102118978D01*
X123775500Y-102145335D01*
X123775500Y-102381869D01*
X123775501Y-102381876D01*
X123781908Y-102441483D01*
X123832202Y-102576328D01*
X123832206Y-102576335D01*
X123918452Y-102691544D01*
X123918455Y-102691547D01*
X124033664Y-102777793D01*
X124033671Y-102777797D01*
X124168517Y-102828091D01*
X124168516Y-102828091D01*
X124175444Y-102828835D01*
X124228127Y-102834500D01*
X125831872Y-102834499D01*
X125891483Y-102828091D01*
X126026331Y-102777796D01*
X126141546Y-102691546D01*
X126227796Y-102576331D01*
X126278091Y-102441483D01*
X126284500Y-102381873D01*
X126284499Y-102326574D01*
X126304182Y-102259538D01*
X126356986Y-102213783D01*
X126426144Y-102203838D01*
X126489700Y-102232862D01*
X126508817Y-102253691D01*
X126613115Y-102397245D01*
X126613119Y-102397250D01*
X126613121Y-102397252D01*
X126752748Y-102536879D01*
X126765542Y-102546174D01*
X126780337Y-102558811D01*
X127623181Y-103401655D01*
X127656666Y-103462978D01*
X127659500Y-103489336D01*
X127659500Y-110453352D01*
X127639815Y-110520391D01*
X127623181Y-110541033D01*
X127487485Y-110676728D01*
X127487479Y-110676735D01*
X127336823Y-110873074D01*
X127336812Y-110873090D01*
X127213074Y-111087409D01*
X127213069Y-111087420D01*
X127118361Y-111316065D01*
X127054303Y-111555132D01*
X127022001Y-111800493D01*
X127022000Y-111800510D01*
X127022000Y-112047989D01*
X127022001Y-112048006D01*
X127054303Y-112293367D01*
X127118361Y-112532434D01*
X127213069Y-112761079D01*
X127213074Y-112761090D01*
X127336812Y-112975409D01*
X127336823Y-112975425D01*
X127487479Y-113171764D01*
X127487485Y-113171771D01*
X127662478Y-113346764D01*
X127662485Y-113346770D01*
X127756921Y-113419233D01*
X127858833Y-113497433D01*
X127858840Y-113497437D01*
X128073159Y-113621175D01*
X128073164Y-113621177D01*
X128073167Y-113621179D01*
X128301820Y-113715890D01*
X128540879Y-113779946D01*
X128786254Y-113812250D01*
X128786261Y-113812250D01*
X129033739Y-113812250D01*
X129033746Y-113812250D01*
X129279121Y-113779946D01*
X129518180Y-113715890D01*
X129746833Y-113621179D01*
X129961167Y-113497433D01*
X130157516Y-113346769D01*
X130332519Y-113171766D01*
X130483183Y-112975417D01*
X130606929Y-112761083D01*
X130701640Y-112532430D01*
X130765696Y-112293371D01*
X130798000Y-112047996D01*
X130798000Y-111800504D01*
X130765696Y-111555129D01*
X130701640Y-111316070D01*
X130606929Y-111087417D01*
X130606927Y-111087414D01*
X130606925Y-111087409D01*
X130483187Y-110873090D01*
X130483183Y-110873083D01*
X130332519Y-110676734D01*
X130332514Y-110676728D01*
X130196819Y-110541033D01*
X130163334Y-110479710D01*
X130160500Y-110453352D01*
X130160500Y-102821577D01*
X130139904Y-102691544D01*
X130129709Y-102627174D01*
X130100370Y-102536879D01*
X130091128Y-102508434D01*
X130091125Y-102508427D01*
X130091122Y-102508417D01*
X130068884Y-102439974D01*
X129979524Y-102264595D01*
X129863828Y-102105354D01*
X128856819Y-101098345D01*
X128823334Y-101037022D01*
X128820500Y-101010664D01*
X128820500Y-96036385D01*
X138289500Y-96036385D01*
X138289500Y-98032120D01*
X138289501Y-98032126D01*
X138295908Y-98091733D01*
X138346202Y-98226578D01*
X138346206Y-98226585D01*
X138432452Y-98341794D01*
X138432455Y-98341797D01*
X138547664Y-98428043D01*
X138547671Y-98428047D01*
X138682517Y-98478341D01*
X138682516Y-98478341D01*
X138689444Y-98479085D01*
X138742127Y-98484750D01*
X140737872Y-98484749D01*
X140797483Y-98478341D01*
X140932331Y-98428046D01*
X141047546Y-98341796D01*
X141133796Y-98226581D01*
X141184091Y-98091733D01*
X141190500Y-98032123D01*
X141190499Y-96920087D01*
X142489500Y-96920087D01*
X142489500Y-97148412D01*
X142525215Y-97373910D01*
X142595770Y-97591053D01*
X142699421Y-97794478D01*
X142833621Y-97979187D01*
X142995063Y-98140629D01*
X143179772Y-98274829D01*
X143214116Y-98292328D01*
X143383196Y-98378479D01*
X143383198Y-98378479D01*
X143383201Y-98378481D01*
X143474122Y-98408023D01*
X143600339Y-98449034D01*
X143825838Y-98484750D01*
X143825843Y-98484750D01*
X144054162Y-98484750D01*
X144279660Y-98449034D01*
X144496799Y-98378481D01*
X144700228Y-98274829D01*
X144884937Y-98140629D01*
X145046379Y-97979187D01*
X145180579Y-97794478D01*
X145284231Y-97591049D01*
X145354784Y-97373910D01*
X145390500Y-97148412D01*
X145390500Y-96920087D01*
X145354784Y-96694589D01*
X145299308Y-96523854D01*
X145284231Y-96477451D01*
X145284229Y-96477448D01*
X145284229Y-96477446D01*
X145180578Y-96274021D01*
X145067795Y-96118790D01*
X145046379Y-96089313D01*
X144884937Y-95927871D01*
X144700228Y-95793671D01*
X144496803Y-95690020D01*
X144279660Y-95619465D01*
X144054162Y-95583750D01*
X144054157Y-95583750D01*
X143825843Y-95583750D01*
X143825838Y-95583750D01*
X143600339Y-95619465D01*
X143383196Y-95690020D01*
X143179771Y-95793671D01*
X142995061Y-95927872D01*
X142833622Y-96089311D01*
X142699421Y-96274021D01*
X142595770Y-96477446D01*
X142525215Y-96694589D01*
X142489500Y-96920087D01*
X141190499Y-96920087D01*
X141190499Y-96036378D01*
X141184091Y-95976767D01*
X141165854Y-95927872D01*
X141133797Y-95841921D01*
X141133793Y-95841914D01*
X141047547Y-95726705D01*
X141047544Y-95726702D01*
X140932335Y-95640456D01*
X140932328Y-95640452D01*
X140797482Y-95590158D01*
X140797483Y-95590158D01*
X140737883Y-95583751D01*
X140737881Y-95583750D01*
X140737873Y-95583750D01*
X140737864Y-95583750D01*
X138742129Y-95583750D01*
X138742123Y-95583751D01*
X138682516Y-95590158D01*
X138547671Y-95640452D01*
X138547664Y-95640456D01*
X138432455Y-95726702D01*
X138432452Y-95726705D01*
X138346206Y-95841914D01*
X138346202Y-95841921D01*
X138295908Y-95976767D01*
X138289501Y-96036366D01*
X138289501Y-96036373D01*
X138289500Y-96036385D01*
X128820500Y-96036385D01*
X128820500Y-93141577D01*
X128794172Y-92975354D01*
X128789709Y-92947174D01*
X128789708Y-92947170D01*
X128789708Y-92947169D01*
X128730391Y-92764612D01*
X128729329Y-92760847D01*
X128639523Y-92584594D01*
X128523829Y-92425355D01*
X124286155Y-88187681D01*
X124281816Y-88179735D01*
X124274569Y-88174310D01*
X124265334Y-88149550D01*
X124252670Y-88126358D01*
X124253315Y-88117328D01*
X124250152Y-88108846D01*
X124255768Y-88083025D01*
X124257654Y-88056666D01*
X124263472Y-88047612D01*
X124265004Y-88040573D01*
X124286155Y-88012319D01*
X124300839Y-87997635D01*
X128749400Y-87997635D01*
X128749400Y-88202364D01*
X128781425Y-88404559D01*
X128844684Y-88599254D01*
X128844685Y-88599257D01*
X128937627Y-88781663D01*
X129057958Y-88947284D01*
X129202716Y-89092042D01*
X129368337Y-89212373D01*
X129457801Y-89257957D01*
X129550742Y-89305314D01*
X129550745Y-89305315D01*
X129643188Y-89335351D01*
X129745442Y-89368575D01*
X129839089Y-89383407D01*
X129947636Y-89400600D01*
X129947641Y-89400600D01*
X130152364Y-89400600D01*
X130250385Y-89385074D01*
X130354558Y-89368575D01*
X130549257Y-89305314D01*
X130731663Y-89212373D01*
X130897284Y-89092042D01*
X131042042Y-88947284D01*
X131162373Y-88781663D01*
X131255314Y-88599257D01*
X131318575Y-88404558D01*
X131347727Y-88220500D01*
X131350600Y-88202364D01*
X131350600Y-87997635D01*
X131325557Y-87839524D01*
X131318575Y-87795442D01*
X131255314Y-87600743D01*
X131255314Y-87600742D01*
X131162372Y-87418336D01*
X131095869Y-87326803D01*
X131042042Y-87252716D01*
X130897284Y-87107958D01*
X130731663Y-86987627D01*
X130697039Y-86969985D01*
X130549257Y-86894685D01*
X130549254Y-86894684D01*
X130354559Y-86831425D01*
X130152364Y-86799400D01*
X130152359Y-86799400D01*
X129947641Y-86799400D01*
X129947636Y-86799400D01*
X129745440Y-86831425D01*
X129550745Y-86894684D01*
X129550742Y-86894685D01*
X129368336Y-86987627D01*
X129273843Y-87056280D01*
X129202716Y-87107958D01*
X129202714Y-87107960D01*
X129202713Y-87107960D01*
X129057960Y-87252713D01*
X129057960Y-87252714D01*
X129057958Y-87252716D01*
X129006280Y-87323843D01*
X128937627Y-87418336D01*
X128844685Y-87600742D01*
X128844684Y-87600745D01*
X128781425Y-87795440D01*
X128749400Y-87997635D01*
X124300839Y-87997635D01*
X124393386Y-87905088D01*
X125757974Y-86540500D01*
X127153828Y-85144646D01*
X127269524Y-84985405D01*
X127358884Y-84810026D01*
X127419709Y-84622826D01*
X127425644Y-84585352D01*
X127450500Y-84428422D01*
X127450500Y-80377635D01*
X128749400Y-80377635D01*
X128749400Y-80582364D01*
X128781425Y-80784559D01*
X128844684Y-80979254D01*
X128844685Y-80979257D01*
X128934342Y-81155215D01*
X128937627Y-81161663D01*
X129057958Y-81327284D01*
X129202716Y-81472042D01*
X129368337Y-81592373D01*
X129457801Y-81637957D01*
X129550742Y-81685314D01*
X129550745Y-81685315D01*
X129648092Y-81716944D01*
X129745442Y-81748575D01*
X129825842Y-81761309D01*
X129947636Y-81780600D01*
X129947641Y-81780600D01*
X130152364Y-81780600D01*
X130250385Y-81765074D01*
X130354558Y-81748575D01*
X130549257Y-81685314D01*
X130731663Y-81592373D01*
X130897284Y-81472042D01*
X131042042Y-81327284D01*
X131162373Y-81161663D01*
X131180013Y-81127041D01*
X131202812Y-81095660D01*
X132461655Y-79836819D01*
X132522978Y-79803334D01*
X132549336Y-79800500D01*
X139039473Y-79800500D01*
X139095768Y-79814015D01*
X139253196Y-79894229D01*
X139253198Y-79894229D01*
X139253201Y-79894231D01*
X139369592Y-79932049D01*
X139470339Y-79964784D01*
X139695838Y-80000500D01*
X139695843Y-80000500D01*
X139924162Y-80000500D01*
X140149660Y-79964784D01*
X140366799Y-79894231D01*
X140570228Y-79790579D01*
X140754937Y-79656379D01*
X140916379Y-79494937D01*
X141050579Y-79310228D01*
X141154231Y-79106799D01*
X141224784Y-78889660D01*
X141260500Y-78664162D01*
X141260500Y-78435837D01*
X142559500Y-78435837D01*
X142559500Y-78664162D01*
X142595215Y-78889660D01*
X142665770Y-79106803D01*
X142751310Y-79274684D01*
X142769421Y-79310228D01*
X142903621Y-79494937D01*
X143065063Y-79656379D01*
X143249772Y-79790579D01*
X143295768Y-79814015D01*
X143453196Y-79894229D01*
X143453198Y-79894229D01*
X143453201Y-79894231D01*
X143569592Y-79932049D01*
X143670339Y-79964784D01*
X143895838Y-80000500D01*
X143895843Y-80000500D01*
X144124162Y-80000500D01*
X144349660Y-79964784D01*
X144566799Y-79894231D01*
X144770228Y-79790579D01*
X144954937Y-79656379D01*
X145116379Y-79494937D01*
X145250579Y-79310228D01*
X145354231Y-79106799D01*
X145424784Y-78889660D01*
X145460500Y-78664162D01*
X145460500Y-78435837D01*
X145424784Y-78210339D01*
X145354229Y-77993196D01*
X145299550Y-77885884D01*
X145250579Y-77789772D01*
X145116379Y-77605063D01*
X144954937Y-77443621D01*
X144770228Y-77309421D01*
X144750757Y-77299500D01*
X144566803Y-77205770D01*
X144349660Y-77135215D01*
X144124162Y-77099500D01*
X144124157Y-77099500D01*
X143895843Y-77099500D01*
X143895838Y-77099500D01*
X143670339Y-77135215D01*
X143453196Y-77205770D01*
X143249771Y-77309421D01*
X143065061Y-77443622D01*
X142903622Y-77605061D01*
X142769421Y-77789771D01*
X142665770Y-77993196D01*
X142595215Y-78210339D01*
X142559500Y-78435837D01*
X141260500Y-78435837D01*
X141224784Y-78210339D01*
X141154229Y-77993196D01*
X141099550Y-77885884D01*
X141050579Y-77789772D01*
X140916379Y-77605063D01*
X140754937Y-77443621D01*
X140570228Y-77309421D01*
X140550757Y-77299500D01*
X140366803Y-77205770D01*
X140149660Y-77135215D01*
X139924162Y-77099500D01*
X139924157Y-77099500D01*
X139695843Y-77099500D01*
X139695838Y-77099500D01*
X139470339Y-77135215D01*
X139253196Y-77205770D01*
X139095768Y-77285985D01*
X139039473Y-77299500D01*
X131881578Y-77299500D01*
X131687173Y-77330290D01*
X131499969Y-77391117D01*
X131324594Y-77480476D01*
X131233741Y-77546485D01*
X131165354Y-77596172D01*
X131165352Y-77596174D01*
X131165351Y-77596174D01*
X129434341Y-79327183D01*
X129402959Y-79349985D01*
X129368338Y-79367626D01*
X129368333Y-79367629D01*
X129202719Y-79487955D01*
X129202713Y-79487960D01*
X129057960Y-79632713D01*
X129057960Y-79632714D01*
X129057958Y-79632716D01*
X129040766Y-79656379D01*
X128937627Y-79798336D01*
X128844685Y-79980742D01*
X128844684Y-79980745D01*
X128781425Y-80175440D01*
X128749400Y-80377635D01*
X127450500Y-80377635D01*
X127450500Y-74739335D01*
X127470185Y-74672296D01*
X127486814Y-74651659D01*
X130086337Y-72052135D01*
X138359500Y-72052135D01*
X138359500Y-74047870D01*
X138359501Y-74047876D01*
X138365908Y-74107483D01*
X138416202Y-74242328D01*
X138416206Y-74242335D01*
X138502452Y-74357544D01*
X138502455Y-74357547D01*
X138617664Y-74443793D01*
X138617671Y-74443797D01*
X138752517Y-74494091D01*
X138752516Y-74494091D01*
X138759444Y-74494835D01*
X138812127Y-74500500D01*
X140807872Y-74500499D01*
X140867483Y-74494091D01*
X141002331Y-74443796D01*
X141117546Y-74357546D01*
X141203796Y-74242331D01*
X141222898Y-74191116D01*
X141239625Y-74146270D01*
X141239625Y-74146269D01*
X141254090Y-74107485D01*
X141254091Y-74107483D01*
X141254949Y-74099500D01*
X141260500Y-74047873D01*
X141260499Y-72935883D01*
X142560000Y-72935883D01*
X142560000Y-73164116D01*
X142595704Y-73389544D01*
X142666230Y-73606604D01*
X142769851Y-73809969D01*
X142823135Y-73883309D01*
X142823137Y-73883309D01*
X143370690Y-73335756D01*
X143389668Y-73381574D01*
X143466274Y-73496224D01*
X143563776Y-73593726D01*
X143678426Y-73670332D01*
X143724242Y-73689309D01*
X143176688Y-74236862D01*
X143176689Y-74236863D01*
X143250030Y-74290148D01*
X143453395Y-74393769D01*
X143670455Y-74464295D01*
X143895884Y-74500000D01*
X144124116Y-74500000D01*
X144349544Y-74464295D01*
X144566604Y-74393769D01*
X144769966Y-74290150D01*
X144843309Y-74236862D01*
X144843310Y-74236862D01*
X144295757Y-73689309D01*
X144341574Y-73670332D01*
X144456224Y-73593726D01*
X144553726Y-73496224D01*
X144630332Y-73381574D01*
X144649309Y-73335757D01*
X145196862Y-73883310D01*
X145196862Y-73883309D01*
X145250150Y-73809966D01*
X145353769Y-73606604D01*
X145424295Y-73389544D01*
X145460000Y-73164116D01*
X145460000Y-72935883D01*
X145424295Y-72710455D01*
X145353769Y-72493395D01*
X145250148Y-72290030D01*
X145196863Y-72216689D01*
X145196862Y-72216688D01*
X144649309Y-72764241D01*
X144630332Y-72718426D01*
X144553726Y-72603776D01*
X144456224Y-72506274D01*
X144341574Y-72429668D01*
X144295756Y-72410689D01*
X144843309Y-71863137D01*
X144843309Y-71863135D01*
X144769969Y-71809851D01*
X144566604Y-71706230D01*
X144349544Y-71635704D01*
X144124116Y-71600000D01*
X143895884Y-71600000D01*
X143670455Y-71635704D01*
X143453395Y-71706230D01*
X143250035Y-71809848D01*
X143250033Y-71809849D01*
X143176689Y-71863135D01*
X143176689Y-71863136D01*
X143724243Y-72410689D01*
X143678426Y-72429668D01*
X143563776Y-72506274D01*
X143466274Y-72603776D01*
X143389668Y-72718426D01*
X143370690Y-72764243D01*
X142823136Y-72216689D01*
X142823135Y-72216689D01*
X142769849Y-72290033D01*
X142769848Y-72290035D01*
X142666230Y-72493395D01*
X142595704Y-72710455D01*
X142560000Y-72935883D01*
X141260499Y-72935883D01*
X141260499Y-72052128D01*
X141254091Y-71992517D01*
X141247589Y-71975085D01*
X141239624Y-71953728D01*
X141203797Y-71857671D01*
X141203793Y-71857664D01*
X141117547Y-71742455D01*
X141117544Y-71742452D01*
X141002335Y-71656206D01*
X141002328Y-71656202D01*
X140867482Y-71605908D01*
X140867483Y-71605908D01*
X140807883Y-71599501D01*
X140807881Y-71599500D01*
X140807873Y-71599500D01*
X140807864Y-71599500D01*
X138812129Y-71599500D01*
X138812123Y-71599501D01*
X138752516Y-71605908D01*
X138617671Y-71656202D01*
X138617664Y-71656206D01*
X138502455Y-71742452D01*
X138502452Y-71742455D01*
X138416206Y-71857664D01*
X138416202Y-71857671D01*
X138365908Y-71992517D01*
X138359501Y-72052116D01*
X138359501Y-72052123D01*
X138359500Y-72052135D01*
X130086337Y-72052135D01*
X130665660Y-71472812D01*
X130697041Y-71450013D01*
X130731663Y-71432373D01*
X130897284Y-71312042D01*
X131042042Y-71167284D01*
X131162373Y-71001663D01*
X131180013Y-70967041D01*
X131202812Y-70935660D01*
X134813829Y-67324645D01*
X134929524Y-67165405D01*
X135018884Y-66990026D01*
X135079709Y-66802826D01*
X135097131Y-66692826D01*
X135110500Y-66608421D01*
X135110500Y-63082351D01*
X135130185Y-63015312D01*
X135182989Y-62969557D01*
X135221247Y-62959061D01*
X135267483Y-62954091D01*
X135402331Y-62903796D01*
X135517546Y-62817546D01*
X135603796Y-62702331D01*
X135654091Y-62567483D01*
X135660500Y-62507873D01*
X135660499Y-59812128D01*
X135654091Y-59752517D01*
X135603796Y-59617669D01*
X135603795Y-59617668D01*
X135603793Y-59617664D01*
X135517547Y-59502455D01*
X135517544Y-59502452D01*
X135402335Y-59416206D01*
X135402328Y-59416202D01*
X135267482Y-59365908D01*
X135267483Y-59365908D01*
X135207883Y-59359501D01*
X135207881Y-59359500D01*
X135207873Y-59359500D01*
X135207865Y-59359500D01*
X133879336Y-59359500D01*
X133812297Y-59339815D01*
X133791655Y-59323181D01*
X130177185Y-55708711D01*
X139229500Y-55708711D01*
X139229500Y-55951288D01*
X139261161Y-56191785D01*
X139323947Y-56426104D01*
X139416773Y-56650205D01*
X139416776Y-56650212D01*
X139538064Y-56860289D01*
X139538066Y-56860292D01*
X139538067Y-56860293D01*
X139685733Y-57052736D01*
X139685739Y-57052743D01*
X139857256Y-57224260D01*
X139857262Y-57224265D01*
X140049711Y-57371936D01*
X140259788Y-57493224D01*
X140483900Y-57586054D01*
X140718211Y-57648838D01*
X140898586Y-57672584D01*
X140958711Y-57680500D01*
X140958712Y-57680500D01*
X141201289Y-57680500D01*
X141249388Y-57674167D01*
X141441789Y-57648838D01*
X141676100Y-57586054D01*
X141900212Y-57493224D01*
X142110289Y-57371936D01*
X142302738Y-57224265D01*
X142474265Y-57052738D01*
X142621936Y-56860289D01*
X142743224Y-56650212D01*
X142836054Y-56426100D01*
X142898838Y-56191789D01*
X142930500Y-55951288D01*
X142930500Y-55708712D01*
X142924511Y-55663224D01*
X142898838Y-55468214D01*
X142898838Y-55468211D01*
X142836054Y-55233900D01*
X142743224Y-55009788D01*
X142621936Y-54799711D01*
X142474265Y-54607262D01*
X142474260Y-54607256D01*
X142302743Y-54435739D01*
X142302736Y-54435733D01*
X142110293Y-54288067D01*
X142110292Y-54288066D01*
X142110289Y-54288064D01*
X141900212Y-54166776D01*
X141900205Y-54166773D01*
X141676104Y-54073947D01*
X141441785Y-54011161D01*
X141201289Y-53979500D01*
X141201288Y-53979500D01*
X140958712Y-53979500D01*
X140958711Y-53979500D01*
X140718214Y-54011161D01*
X140483895Y-54073947D01*
X140259794Y-54166773D01*
X140259785Y-54166777D01*
X140049706Y-54288067D01*
X139857263Y-54435733D01*
X139857256Y-54435739D01*
X139685739Y-54607256D01*
X139685733Y-54607263D01*
X139538067Y-54799706D01*
X139416777Y-55009785D01*
X139416773Y-55009794D01*
X139323947Y-55233895D01*
X139261161Y-55468214D01*
X139229500Y-55708711D01*
X130177185Y-55708711D01*
X128324648Y-53856174D01*
X128324646Y-53856172D01*
X128165405Y-53740476D01*
X127990030Y-53651117D01*
X127802826Y-53590290D01*
X127608422Y-53559500D01*
X127608417Y-53559500D01*
X75741583Y-53559500D01*
X75741578Y-53559500D01*
X75547173Y-53590290D01*
X75359969Y-53651117D01*
X75184594Y-53740476D01*
X75093741Y-53806485D01*
X75025354Y-53856172D01*
X75025352Y-53856174D01*
X75025351Y-53856174D01*
X71576174Y-57305351D01*
X71576174Y-57305352D01*
X71576172Y-57305354D01*
X71527800Y-57371932D01*
X71460476Y-57464594D01*
X71371117Y-57639969D01*
X71310290Y-57827173D01*
X71279500Y-58021577D01*
X71279500Y-72240664D01*
X71259815Y-72307703D01*
X71243181Y-72328345D01*
X69288345Y-74283181D01*
X69227022Y-74316666D01*
X69200664Y-74319500D01*
X63601578Y-74319500D01*
X63407173Y-74350290D01*
X63219970Y-74411117D01*
X63044594Y-74500476D01*
X62953741Y-74566485D01*
X62885354Y-74616172D01*
X62885352Y-74616174D01*
X62885351Y-74616174D01*
X62746174Y-74755351D01*
X62746174Y-74755352D01*
X62746172Y-74755354D01*
X62715207Y-74797974D01*
X62630476Y-74914594D01*
X62541117Y-75089970D01*
X62480290Y-75277173D01*
X62449500Y-75471577D01*
X56110500Y-75471577D01*
X56110500Y-73305085D01*
X56130185Y-73238046D01*
X56146814Y-73217409D01*
X57578386Y-71785837D01*
X58445250Y-71785837D01*
X58445250Y-72014162D01*
X58480965Y-72239660D01*
X58551520Y-72456803D01*
X58618916Y-72589074D01*
X58655171Y-72660228D01*
X58789371Y-72844937D01*
X58950813Y-73006379D01*
X59135522Y-73140579D01*
X59193119Y-73169926D01*
X59338946Y-73244229D01*
X59338948Y-73244229D01*
X59338951Y-73244231D01*
X59455342Y-73282049D01*
X59556089Y-73314784D01*
X59781588Y-73350500D01*
X59781593Y-73350500D01*
X60009912Y-73350500D01*
X60235410Y-73314784D01*
X60280990Y-73299974D01*
X60452549Y-73244231D01*
X60655978Y-73140579D01*
X60840687Y-73006379D01*
X61002129Y-72844937D01*
X61136329Y-72660228D01*
X61239981Y-72456799D01*
X61310534Y-72239660D01*
X61335767Y-72080345D01*
X61346250Y-72014162D01*
X61346250Y-71785883D01*
X63945750Y-71785883D01*
X63945750Y-72014116D01*
X63981454Y-72239544D01*
X64051980Y-72456604D01*
X64155601Y-72659969D01*
X64208885Y-72733309D01*
X64208887Y-72733309D01*
X64756439Y-72185756D01*
X64775418Y-72231574D01*
X64852024Y-72346224D01*
X64949526Y-72443726D01*
X65064176Y-72520332D01*
X65109992Y-72539309D01*
X64562438Y-73086862D01*
X64562439Y-73086863D01*
X64635780Y-73140148D01*
X64839145Y-73243769D01*
X65056205Y-73314295D01*
X65281634Y-73350000D01*
X65509866Y-73350000D01*
X65735294Y-73314295D01*
X65952354Y-73243769D01*
X66155716Y-73140150D01*
X66229059Y-73086862D01*
X66229060Y-73086862D01*
X65681507Y-72539309D01*
X65727324Y-72520332D01*
X65841974Y-72443726D01*
X65939476Y-72346224D01*
X66016082Y-72231574D01*
X66035059Y-72185757D01*
X66582612Y-72733310D01*
X66582612Y-72733309D01*
X66635900Y-72659966D01*
X66739519Y-72456604D01*
X66810045Y-72239544D01*
X66845750Y-72014116D01*
X66845750Y-71785883D01*
X66810045Y-71560455D01*
X66739519Y-71343395D01*
X66635898Y-71140030D01*
X66582613Y-71066689D01*
X66582612Y-71066688D01*
X66035059Y-71614241D01*
X66016082Y-71568426D01*
X65939476Y-71453776D01*
X65841974Y-71356274D01*
X65727324Y-71279668D01*
X65681506Y-71260689D01*
X66229059Y-70713137D01*
X66229059Y-70713135D01*
X66155719Y-70659851D01*
X65952354Y-70556230D01*
X65735294Y-70485704D01*
X65509866Y-70450000D01*
X65281634Y-70450000D01*
X65056205Y-70485704D01*
X64839145Y-70556230D01*
X64635785Y-70659848D01*
X64635783Y-70659849D01*
X64562439Y-70713135D01*
X64562439Y-70713136D01*
X65109993Y-71260689D01*
X65064176Y-71279668D01*
X64949526Y-71356274D01*
X64852024Y-71453776D01*
X64775418Y-71568426D01*
X64756440Y-71614243D01*
X64208886Y-71066689D01*
X64208885Y-71066689D01*
X64155599Y-71140033D01*
X64155598Y-71140035D01*
X64051980Y-71343395D01*
X63981454Y-71560455D01*
X63945750Y-71785883D01*
X61346250Y-71785883D01*
X61346250Y-71785837D01*
X61310534Y-71560339D01*
X61268955Y-71432373D01*
X61239981Y-71343201D01*
X61239979Y-71343198D01*
X61239979Y-71343196D01*
X61180723Y-71226901D01*
X61136329Y-71139772D01*
X61002129Y-70955063D01*
X60840687Y-70793621D01*
X60655978Y-70659421D01*
X60452553Y-70555770D01*
X60235410Y-70485215D01*
X60009912Y-70449500D01*
X60009907Y-70449500D01*
X59781593Y-70449500D01*
X59781588Y-70449500D01*
X59556089Y-70485215D01*
X59338946Y-70555770D01*
X59135521Y-70659421D01*
X58950811Y-70793622D01*
X58789372Y-70955061D01*
X58655171Y-71139771D01*
X58551520Y-71343196D01*
X58480965Y-71560339D01*
X58445250Y-71785837D01*
X57578386Y-71785837D01*
X60235143Y-69129079D01*
X60284502Y-69098832D01*
X60452549Y-69044231D01*
X60655978Y-68940579D01*
X60840687Y-68806379D01*
X61002129Y-68644937D01*
X61136329Y-68460228D01*
X61239981Y-68256799D01*
X61310534Y-68039660D01*
X61346250Y-67814162D01*
X61346250Y-67585837D01*
X63945250Y-67585837D01*
X63945250Y-67814162D01*
X63980965Y-68039660D01*
X64051520Y-68256803D01*
X64155171Y-68460228D01*
X64289371Y-68644937D01*
X64450813Y-68806379D01*
X64635522Y-68940579D01*
X64731634Y-68989550D01*
X64838946Y-69044229D01*
X64838948Y-69044229D01*
X64838951Y-69044231D01*
X64955342Y-69082049D01*
X65056089Y-69114784D01*
X65281588Y-69150500D01*
X65281593Y-69150500D01*
X65509912Y-69150500D01*
X65735410Y-69114784D01*
X65735718Y-69114684D01*
X65952549Y-69044231D01*
X66155978Y-68940579D01*
X66340687Y-68806379D01*
X66502129Y-68644937D01*
X66636329Y-68460228D01*
X66739981Y-68256799D01*
X66810534Y-68039660D01*
X66846250Y-67814162D01*
X66846250Y-67585837D01*
X66810534Y-67360339D01*
X66777799Y-67259592D01*
X66739981Y-67143201D01*
X66739979Y-67143198D01*
X66739979Y-67143196D01*
X66685300Y-67035884D01*
X66636329Y-66939772D01*
X66502129Y-66755063D01*
X66340687Y-66593621D01*
X66155978Y-66459421D01*
X65952553Y-66355770D01*
X65735410Y-66285215D01*
X65509912Y-66249500D01*
X65509907Y-66249500D01*
X65281593Y-66249500D01*
X65281588Y-66249500D01*
X65056089Y-66285215D01*
X64838946Y-66355770D01*
X64635521Y-66459421D01*
X64450811Y-66593622D01*
X64289372Y-66755061D01*
X64155171Y-66939771D01*
X64051520Y-67143196D01*
X63980965Y-67360339D01*
X63945250Y-67585837D01*
X61346250Y-67585837D01*
X61310534Y-67360339D01*
X61277799Y-67259592D01*
X61239981Y-67143201D01*
X61239979Y-67143198D01*
X61239979Y-67143196D01*
X61185300Y-67035884D01*
X61136329Y-66939772D01*
X61002129Y-66755063D01*
X60840687Y-66593621D01*
X60655978Y-66459421D01*
X60452553Y-66355770D01*
X60235410Y-66285215D01*
X60009912Y-66249500D01*
X60009907Y-66249500D01*
X59781593Y-66249500D01*
X59781588Y-66249500D01*
X59556089Y-66285215D01*
X59338946Y-66355770D01*
X59135521Y-66459421D01*
X58950811Y-66593622D01*
X58789372Y-66755061D01*
X58655171Y-66939771D01*
X58551520Y-67143196D01*
X58496917Y-67311245D01*
X58466667Y-67360607D01*
X53906174Y-71921101D01*
X53906172Y-71921104D01*
X53866952Y-71975085D01*
X53790476Y-72080344D01*
X53701115Y-72255723D01*
X53701114Y-72255726D01*
X53667372Y-72359578D01*
X53640290Y-72442926D01*
X53640290Y-72442927D01*
X53609500Y-72637327D01*
X53240500Y-72637327D01*
X53240500Y-71975085D01*
X53260185Y-71908046D01*
X53276814Y-71887409D01*
X60235143Y-64929079D01*
X60284502Y-64898832D01*
X60452549Y-64844231D01*
X60655978Y-64740579D01*
X60840687Y-64606379D01*
X61002129Y-64444937D01*
X61136329Y-64260228D01*
X61239981Y-64056799D01*
X61310534Y-63839660D01*
X61331992Y-63704182D01*
X61335943Y-63679240D01*
X61335943Y-63679239D01*
X61346250Y-63614163D01*
X61346250Y-63385837D01*
X61310534Y-63160339D01*
X61263411Y-63015312D01*
X61239981Y-62943201D01*
X61239979Y-62943198D01*
X61239979Y-62943196D01*
X61175956Y-62817544D01*
X61136329Y-62739772D01*
X61014242Y-62571735D01*
X61014242Y-62571734D01*
X61002133Y-62555069D01*
X61002129Y-62555063D01*
X60949221Y-62502155D01*
X63945750Y-62502155D01*
X63945750Y-63250000D01*
X64741629Y-63250000D01*
X64722651Y-63295818D01*
X64695750Y-63431056D01*
X64695750Y-63568944D01*
X64722651Y-63704182D01*
X64741629Y-63750000D01*
X63945750Y-63750000D01*
X63945750Y-64497844D01*
X63952151Y-64557372D01*
X63952153Y-64557379D01*
X64002395Y-64692086D01*
X64002399Y-64692093D01*
X64088559Y-64807187D01*
X64088562Y-64807190D01*
X64203656Y-64893350D01*
X64203663Y-64893354D01*
X64338370Y-64943596D01*
X64338377Y-64943598D01*
X64397905Y-64949999D01*
X64397922Y-64950000D01*
X65145750Y-64950000D01*
X65145750Y-64154120D01*
X65191568Y-64173099D01*
X65326806Y-64200000D01*
X65464694Y-64200000D01*
X65599932Y-64173099D01*
X65645750Y-64154120D01*
X65645750Y-64950000D01*
X66393578Y-64950000D01*
X66393594Y-64949999D01*
X66453122Y-64943598D01*
X66453129Y-64943596D01*
X66587836Y-64893354D01*
X66587843Y-64893350D01*
X66702937Y-64807190D01*
X66702940Y-64807187D01*
X66789100Y-64692093D01*
X66789104Y-64692086D01*
X66839346Y-64557379D01*
X66839348Y-64557372D01*
X66845749Y-64497844D01*
X66845750Y-64497827D01*
X66845750Y-63750000D01*
X66049871Y-63750000D01*
X66068849Y-63704182D01*
X66095750Y-63568944D01*
X66095750Y-63431056D01*
X66068849Y-63295818D01*
X66049871Y-63250000D01*
X66845750Y-63250000D01*
X66845750Y-62502172D01*
X66845749Y-62502155D01*
X66839348Y-62442627D01*
X66839346Y-62442620D01*
X66789104Y-62307913D01*
X66789100Y-62307906D01*
X66702940Y-62192812D01*
X66702937Y-62192809D01*
X66587843Y-62106649D01*
X66587836Y-62106645D01*
X66453129Y-62056403D01*
X66453122Y-62056401D01*
X66393594Y-62050000D01*
X65645750Y-62050000D01*
X65645750Y-62845879D01*
X65599932Y-62826901D01*
X65464694Y-62800000D01*
X65326806Y-62800000D01*
X65191568Y-62826901D01*
X65145750Y-62845879D01*
X65145750Y-62050000D01*
X64397905Y-62050000D01*
X64338377Y-62056401D01*
X64338370Y-62056403D01*
X64203663Y-62106645D01*
X64203656Y-62106649D01*
X64088562Y-62192809D01*
X64088559Y-62192812D01*
X64002399Y-62307906D01*
X64002395Y-62307913D01*
X63952153Y-62442620D01*
X63952151Y-62442627D01*
X63945750Y-62502155D01*
X60949221Y-62502155D01*
X60840687Y-62393621D01*
X60655978Y-62259421D01*
X60452553Y-62155770D01*
X60235410Y-62085215D01*
X60009912Y-62049500D01*
X60009907Y-62049500D01*
X59781593Y-62049500D01*
X59781588Y-62049500D01*
X59556089Y-62085215D01*
X59338946Y-62155770D01*
X59135521Y-62259421D01*
X58950811Y-62393622D01*
X58789372Y-62555061D01*
X58655171Y-62739771D01*
X58551520Y-62943196D01*
X58496917Y-63111245D01*
X58466667Y-63160607D01*
X51036174Y-70591101D01*
X51036172Y-70591104D01*
X50986537Y-70659421D01*
X50920476Y-70750344D01*
X50831117Y-70925719D01*
X50814903Y-70975619D01*
X50806470Y-71001576D01*
X50799344Y-71023505D01*
X50770290Y-71112923D01*
X50739500Y-71307327D01*
X46470500Y-71307327D01*
X46470500Y-53878711D01*
X56619500Y-53878711D01*
X56619500Y-54121288D01*
X56651161Y-54361785D01*
X56713947Y-54596104D01*
X56798282Y-54799706D01*
X56806776Y-54820212D01*
X56928064Y-55030289D01*
X56928066Y-55030292D01*
X56928067Y-55030293D01*
X57075733Y-55222736D01*
X57075739Y-55222743D01*
X57247256Y-55394260D01*
X57247263Y-55394266D01*
X57343634Y-55468214D01*
X57439711Y-55541936D01*
X57649788Y-55663224D01*
X57873900Y-55756054D01*
X58108211Y-55818838D01*
X58288586Y-55842584D01*
X58348711Y-55850500D01*
X58348712Y-55850500D01*
X58591289Y-55850500D01*
X58639388Y-55844167D01*
X58831789Y-55818838D01*
X59066100Y-55756054D01*
X59290212Y-55663224D01*
X59500289Y-55541936D01*
X59692738Y-55394265D01*
X59864265Y-55222738D01*
X60011936Y-55030289D01*
X60133224Y-54820212D01*
X60226054Y-54596100D01*
X60288838Y-54361789D01*
X60320500Y-54121288D01*
X60320500Y-53878712D01*
X60288838Y-53638211D01*
X60226054Y-53403900D01*
X60133224Y-53179788D01*
X60011936Y-52969711D01*
X59864265Y-52777262D01*
X59864260Y-52777256D01*
X59692743Y-52605739D01*
X59692736Y-52605733D01*
X59500293Y-52458067D01*
X59500292Y-52458066D01*
X59500289Y-52458064D01*
X59290212Y-52336776D01*
X59290205Y-52336773D01*
X59066104Y-52243947D01*
X58831785Y-52181161D01*
X58591289Y-52149500D01*
X58591288Y-52149500D01*
X58348712Y-52149500D01*
X58348711Y-52149500D01*
X58108214Y-52181161D01*
X57873895Y-52243947D01*
X57649794Y-52336773D01*
X57649785Y-52336777D01*
X57439706Y-52458067D01*
X57247263Y-52605733D01*
X57247256Y-52605739D01*
X57075739Y-52777256D01*
X57075733Y-52777263D01*
X56928067Y-52969706D01*
X56806777Y-53179785D01*
X56806773Y-53179794D01*
X56713947Y-53403895D01*
X56651161Y-53638214D01*
X56619500Y-53878711D01*
X46470500Y-53878711D01*
X46470500Y-49784500D01*
X46490185Y-49717461D01*
X46542989Y-49671706D01*
X46594500Y-49660500D01*
X151115500Y-49660500D01*
X151182539Y-49680185D01*
G37*
%TD.AperFunction*%
%TD*%
M02*
