%TF.GenerationSoftware,KiCad,Pcbnew,9.0.0*%
%TF.CreationDate,2025-05-05T23:55:40-07:00*%
%TF.ProjectId,Latchboard V9,4c617463-6862-46f6-9172-642056392e6b,rev?*%
%TF.SameCoordinates,Original*%
%TF.FileFunction,Copper,L2,Bot*%
%TF.FilePolarity,Positive*%
%FSLAX46Y46*%
G04 Gerber Fmt 4.6, Leading zero omitted, Abs format (unit mm)*
G04 Created by KiCad (PCBNEW 9.0.0) date 2025-05-05 23:55:40*
%MOMM*%
%LPD*%
G01*
G04 APERTURE LIST*
%TA.AperFunction,ComponentPad*%
%ADD10R,1.900000X1.900000*%
%TD*%
%TA.AperFunction,ComponentPad*%
%ADD11C,1.900000*%
%TD*%
%TA.AperFunction,ComponentPad*%
%ADD12R,2.600000X2.600000*%
%TD*%
%TA.AperFunction,ComponentPad*%
%ADD13O,2.600000X2.600000*%
%TD*%
%TA.AperFunction,ComponentPad*%
%ADD14C,1.258000*%
%TD*%
%TA.AperFunction,ComponentPad*%
%ADD15R,2.775000X2.775000*%
%TD*%
%TA.AperFunction,ComponentPad*%
%ADD16C,2.775000*%
%TD*%
%TA.AperFunction,ComponentPad*%
%ADD17C,1.508000*%
%TD*%
%TA.AperFunction,ComponentPad*%
%ADD18R,1.508000X1.508000*%
%TD*%
%TA.AperFunction,ComponentPad*%
%ADD19C,1.600200*%
%TD*%
%TA.AperFunction,ViaPad*%
%ADD20C,1.500000*%
%TD*%
%TA.AperFunction,Conductor*%
%ADD21C,1.500000*%
%TD*%
G04 APERTURE END LIST*
D10*
%TO.P,J3,1,1*%
%TO.N,+12V*%
X65395750Y-63500000D03*
D11*
%TO.P,J3,2,2*%
%TO.N,IMD FAULT*%
X65395750Y-67700000D03*
%TO.P,J3,3,3*%
%TO.N,+12V*%
X65395750Y-71900000D03*
%TO.P,J3,4,4*%
%TO.N,/LED 1B*%
X59895750Y-63500000D03*
%TO.P,J3,5,5*%
%TO.N,/LED 2B*%
X59895750Y-67700000D03*
%TO.P,J3,6,6*%
%TO.N,/LED 3B*%
X59895750Y-71900000D03*
%TD*%
%TO.P,J1,4,4*%
%TO.N,/DEBUG 1A*%
X144010000Y-78550000D03*
%TO.P,J1,3,3*%
%TO.N,/DEBUG 3B*%
X139810000Y-78550000D03*
%TO.P,J1,2,2*%
%TO.N,+12V*%
X144010000Y-73050000D03*
D10*
%TO.P,J1,1,1*%
%TO.N,GND*%
X139810000Y-73050000D03*
%TD*%
%TO.P,J2,1,1*%
%TO.N,BSPD Fault*%
X139740000Y-97034250D03*
D11*
%TO.P,J2,2,2*%
%TO.N,unconnected-(J2-Pad2)*%
X143940000Y-97034250D03*
%TO.P,J2,3,3*%
%TO.N,IMD FAULT*%
X139740000Y-102534250D03*
%TO.P,J2,4,4*%
%TO.N,BMS FAULT*%
X143940000Y-102534250D03*
%TD*%
%TO.P,J4,6,6*%
%TO.N,/DEBUG 3B*%
X59870000Y-90970000D03*
%TO.P,J4,5,5*%
%TO.N,/DEBUG 2B*%
X59870000Y-86770000D03*
%TO.P,J4,4,4*%
%TO.N,/DEBUG 1B*%
X59870000Y-82570000D03*
%TO.P,J4,3,3*%
%TO.N,/DEBUG 2B*%
X65370000Y-90970000D03*
%TO.P,J4,2,2*%
%TO.N,/DEBUG 1B*%
X65370000Y-86770000D03*
D10*
%TO.P,J4,1,1*%
%TO.N,/DEBUG 1A*%
X65370000Y-82570000D03*
%TD*%
D11*
%TO.P,J5,6,6*%
%TO.N,/LED 3B*%
X59750000Y-110810000D03*
%TO.P,J5,5,5*%
%TO.N,/LED 2B*%
X59750000Y-106610000D03*
%TO.P,J5,4,4*%
%TO.N,/LED 1B*%
X59750000Y-102410000D03*
%TO.P,J5,3,3*%
%TO.N,BMS FAULT*%
X65250000Y-110810000D03*
%TO.P,J5,2,2*%
%TO.N,GND*%
X65250000Y-106610000D03*
D10*
%TO.P,J5,1,1*%
%TO.N,BSPD Fault*%
X65250000Y-102410000D03*
%TD*%
D12*
%TO.P,D2,1,K*%
%TO.N,/LED 2B*%
X113260000Y-61160000D03*
D13*
%TO.P,D2,2,A*%
%TO.N,GND*%
X98020000Y-61160000D03*
%TD*%
D14*
%TO.P,R1,1*%
%TO.N,BSPD Fault*%
X79290000Y-104338500D03*
%TO.P,R1,2*%
%TO.N,Net-(LED1-PadC)*%
X79290000Y-97338500D03*
%TD*%
D15*
%TO.P,S3,1,1*%
%TO.N,unconnected-(S3-Pad1)*%
X119510000Y-111924250D03*
D16*
%TO.P,S3,2,2*%
%TO.N,+12V*%
X124210000Y-111924250D03*
%TO.P,S3,3,3*%
%TO.N,/LED 3B*%
X128910000Y-111924250D03*
%TD*%
D12*
%TO.P,D1,1,K*%
%TO.N,/LED 1B*%
X92120000Y-61160000D03*
D13*
%TO.P,D1,2,A*%
%TO.N,BSPD Fault*%
X76880000Y-61160000D03*
%TD*%
D17*
%TO.P,LED3,A,A*%
%TO.N,/LED 3B*%
X127570000Y-101580000D03*
D18*
%TO.P,LED3,C,C*%
%TO.N,Net-(LED3-PadC)*%
X125030000Y-101580000D03*
%TD*%
D12*
%TO.P,D3,1,K*%
%TO.N,/LED 3B*%
X133860000Y-61160000D03*
D13*
%TO.P,D3,2,A*%
%TO.N,BMS FAULT*%
X118620000Y-61160000D03*
%TD*%
D17*
%TO.P,LED1,A,A*%
%TO.N,/LED 1B*%
X87450000Y-101580000D03*
D18*
%TO.P,LED1,C,C*%
%TO.N,Net-(LED1-PadC)*%
X84910000Y-101580000D03*
%TD*%
D14*
%TO.P,R2,1*%
%TO.N,GND*%
X99190000Y-104338500D03*
%TO.P,R2,2*%
%TO.N,Net-(LED2-PadC)*%
X99190000Y-97338500D03*
%TD*%
D19*
%TO.P,K3,1,1*%
%TO.N,BMS FAULT*%
X122430000Y-70320000D03*
%TO.P,K3,3,3*%
%TO.N,+12V*%
X122430000Y-80480000D03*
%TO.P,K3,4,4*%
%TO.N,/LED 3B*%
X122430000Y-88100000D03*
%TO.P,K3,5,5*%
%TO.N,/DEBUG 2B*%
X130050000Y-88100000D03*
%TO.P,K3,6,6*%
%TO.N,/DEBUG 3B*%
X130050000Y-80480000D03*
%TO.P,K3,8,8*%
%TO.N,/LED 3B*%
X130050000Y-70320000D03*
%TD*%
%TO.P,K2,1,1*%
%TO.N,GND*%
X101940000Y-70320000D03*
%TO.P,K2,3,3*%
%TO.N,IMD FAULT*%
X101940000Y-80480000D03*
%TO.P,K2,4,4*%
%TO.N,/LED 2B*%
X101940000Y-88100000D03*
%TO.P,K2,5,5*%
%TO.N,/DEBUG 1B*%
X109560000Y-88100000D03*
%TO.P,K2,6,6*%
%TO.N,/DEBUG 2B*%
X109560000Y-80480000D03*
%TO.P,K2,8,8*%
%TO.N,/LED 2B*%
X109560000Y-70320000D03*
%TD*%
%TO.P,K1,1,1*%
%TO.N,BSPD Fault*%
X80800000Y-70320000D03*
%TO.P,K1,3,3*%
%TO.N,+12V*%
X80800000Y-80480000D03*
%TO.P,K1,4,4*%
%TO.N,/LED 1B*%
X80800000Y-88100000D03*
%TO.P,K1,5,5*%
%TO.N,/DEBUG 1A*%
X88420000Y-88100000D03*
%TO.P,K1,6,6*%
%TO.N,/DEBUG 1B*%
X88420000Y-80480000D03*
%TO.P,K1,8,8*%
%TO.N,/LED 1B*%
X88420000Y-70320000D03*
%TD*%
D14*
%TO.P,R3,1*%
%TO.N,BMS FAULT*%
X117840000Y-104338500D03*
%TO.P,R3,2*%
%TO.N,Net-(LED3-PadC)*%
X117840000Y-97338500D03*
%TD*%
D17*
%TO.P,LED2,A,A*%
%TO.N,/LED 2B*%
X107520000Y-101580000D03*
D18*
%TO.P,LED2,C,C*%
%TO.N,Net-(LED2-PadC)*%
X104980000Y-101580000D03*
%TD*%
D15*
%TO.P,S2,1,1*%
%TO.N,unconnected-(S2-Pad1)*%
X100400000Y-111924250D03*
D16*
%TO.P,S2,2,2*%
%TO.N,IMD FAULT*%
X105100000Y-111924250D03*
%TO.P,S2,3,3*%
%TO.N,/LED 2B*%
X109800000Y-111924250D03*
%TD*%
D15*
%TO.P,S1,1,1*%
%TO.N,unconnected-(S1-Pad1)*%
X81050000Y-111924250D03*
D16*
%TO.P,S1,2,2*%
%TO.N,+12V*%
X85750000Y-111924250D03*
%TO.P,S1,3,3*%
%TO.N,/LED 1B*%
X90450000Y-111924250D03*
%TD*%
D20*
%TO.N,BSPD Fault*%
X79400000Y-90320000D03*
X78960000Y-86130000D03*
%TO.N,/LED 2B*%
X87020000Y-106600000D03*
%TO.N,/LED 3B*%
X113390000Y-123060000D03*
X63700000Y-75570000D03*
%TO.N,IMD FAULT*%
X96830000Y-75350000D03*
%TO.N,BMS FAULT*%
X113280000Y-90150000D03*
X116490000Y-85290000D03*
%TO.N,/DEBUG 2B*%
X120900000Y-93790000D03*
%TO.N,/DEBUG 1B*%
X96160000Y-83410000D03*
X77940000Y-77560000D03*
%TO.N,/LED 2B*%
X54860000Y-82970000D03*
%TO.N,/LED 3B*%
X48010000Y-85400000D03*
%TD*%
D21*
%TO.N,/DEBUG 1A*%
X144010000Y-78550000D02*
X141380000Y-75920000D01*
X141380000Y-75920000D02*
X100600000Y-75920000D01*
X100600000Y-75920000D02*
X88420000Y-88100000D01*
%TO.N,BSPD Fault*%
X78960000Y-89880000D02*
X79400000Y-90320000D01*
X78960000Y-86130000D02*
X78960000Y-89880000D01*
%TO.N,BMS FAULT*%
X112138500Y-110040000D02*
X114358500Y-107820000D01*
X114358500Y-107820000D02*
X121321500Y-107820000D01*
%TO.N,/LED 2B*%
X87020000Y-106600000D02*
X103180000Y-106600000D01*
X103180000Y-106600000D02*
X107520000Y-102260000D01*
X107520000Y-102260000D02*
X107520000Y-101580000D01*
%TO.N,/LED 3B*%
X113390000Y-123060000D02*
X117774250Y-123060000D01*
X117774250Y-123060000D02*
X128910000Y-111924250D01*
X59895750Y-71900000D02*
X60030000Y-71900000D01*
X60030000Y-71900000D02*
X63700000Y-75570000D01*
%TO.N,IMD FAULT*%
X79710000Y-74350000D02*
X95830000Y-74350000D01*
X65395750Y-67700000D02*
X73060000Y-67700000D01*
X95830000Y-74350000D02*
X96830000Y-75350000D01*
X73060000Y-67700000D02*
X79710000Y-74350000D01*
%TO.N,/DEBUG 2B*%
X65370000Y-90970000D02*
X69300000Y-94900000D01*
X119790000Y-94900000D02*
X120900000Y-93790000D01*
X69300000Y-94900000D02*
X119790000Y-94900000D01*
%TO.N,BMS FAULT*%
X116490000Y-86940000D02*
X113280000Y-90150000D01*
X116490000Y-85290000D02*
X116490000Y-86940000D01*
X143940000Y-102534250D02*
X138654250Y-107820000D01*
X138654250Y-107820000D02*
X121321500Y-107820000D01*
X121321500Y-107820000D02*
X117840000Y-104338500D01*
%TO.N,/DEBUG 2B*%
X120900000Y-93790000D02*
X124360000Y-93790000D01*
X124360000Y-93790000D02*
X130050000Y-88100000D01*
%TO.N,/DEBUG 1B*%
X104870000Y-83410000D02*
X96160000Y-83410000D01*
X109560000Y-88100000D02*
X104870000Y-83410000D01*
X77940000Y-77560000D02*
X85500000Y-77560000D01*
X85500000Y-77560000D02*
X88420000Y-80480000D01*
%TO.N,/DEBUG 1A*%
X65370000Y-82570000D02*
X82890000Y-82570000D01*
X82890000Y-82570000D02*
X88420000Y-88100000D01*
%TO.N,/DEBUG 3B*%
X59870000Y-90970000D02*
X62014670Y-88825330D01*
X127573570Y-80480000D02*
X130050000Y-80480000D01*
X115583570Y-92470000D02*
X127573570Y-80480000D01*
X62014670Y-88825330D02*
X74405330Y-88825330D01*
X74405330Y-88825330D02*
X78050000Y-92470000D01*
X78050000Y-92470000D02*
X115583570Y-92470000D01*
%TO.N,BSPD Fault*%
X114940000Y-101190000D02*
X120350000Y-101190000D01*
X79290000Y-104338500D02*
X83690000Y-108738500D01*
X83690000Y-108738500D02*
X107391500Y-108738500D01*
X124880000Y-96660000D02*
X125254250Y-97034250D01*
X107391500Y-108738500D02*
X114940000Y-101190000D01*
X120350000Y-101190000D02*
X124880000Y-96660000D01*
X125254250Y-97034250D02*
X139740000Y-97034250D01*
%TO.N,BMS FAULT*%
X71200000Y-116760000D02*
X110740000Y-116760000D01*
X65250000Y-110810000D02*
X71200000Y-116760000D01*
X112138500Y-115361500D02*
X112138500Y-110040000D01*
X110740000Y-116760000D02*
X112138500Y-115361500D01*
%TO.N,/LED 2B*%
X54860000Y-101720000D02*
X54860000Y-82970000D01*
X59750000Y-106610000D02*
X54860000Y-101720000D01*
%TO.N,/LED 3B*%
X48010000Y-85400000D02*
X59895750Y-73514250D01*
X59895750Y-73514250D02*
X59895750Y-71900000D01*
%TD*%
%TA.AperFunction,Conductor*%
%TO.N,GND*%
G36*
X151182539Y-49680185D02*
G01*
X151228294Y-49732989D01*
X151239500Y-49784500D01*
X151239500Y-129320500D01*
X151219815Y-129387539D01*
X151167011Y-129433294D01*
X151115500Y-129444500D01*
X46594500Y-129444500D01*
X46527461Y-129424815D01*
X46481706Y-129372011D01*
X46470500Y-129320500D01*
X46470500Y-122961577D01*
X112139500Y-122961577D01*
X112139500Y-123158422D01*
X112170290Y-123352826D01*
X112231117Y-123540029D01*
X112320476Y-123715405D01*
X112436172Y-123874646D01*
X112575354Y-124013828D01*
X112734595Y-124129524D01*
X112817455Y-124171743D01*
X112909970Y-124218882D01*
X112909972Y-124218882D01*
X112909975Y-124218884D01*
X113010317Y-124251487D01*
X113097173Y-124279709D01*
X113291578Y-124310500D01*
X113291583Y-124310500D01*
X117872672Y-124310500D01*
X118067076Y-124279709D01*
X118254276Y-124218884D01*
X118429655Y-124129524D01*
X118588896Y-124013828D01*
X121384013Y-121218711D01*
X138829500Y-121218711D01*
X138829500Y-121461288D01*
X138861161Y-121701785D01*
X138923947Y-121936104D01*
X138942251Y-121980293D01*
X139016776Y-122160212D01*
X139138064Y-122370289D01*
X139138066Y-122370292D01*
X139138067Y-122370293D01*
X139285733Y-122562736D01*
X139285739Y-122562743D01*
X139457256Y-122734260D01*
X139457263Y-122734266D01*
X139543581Y-122800500D01*
X139649711Y-122881936D01*
X139859788Y-123003224D01*
X140083900Y-123096054D01*
X140318211Y-123158838D01*
X140498586Y-123182584D01*
X140558711Y-123190500D01*
X140558712Y-123190500D01*
X140801289Y-123190500D01*
X140849388Y-123184167D01*
X141041789Y-123158838D01*
X141276100Y-123096054D01*
X141500212Y-123003224D01*
X141710289Y-122881936D01*
X141902738Y-122734265D01*
X142074265Y-122562738D01*
X142221936Y-122370289D01*
X142343224Y-122160212D01*
X142436054Y-121936100D01*
X142498838Y-121701789D01*
X142530500Y-121461288D01*
X142530500Y-121218712D01*
X142498838Y-120978211D01*
X142436054Y-120743900D01*
X142343224Y-120519788D01*
X142221936Y-120309711D01*
X142074265Y-120117262D01*
X142074260Y-120117256D01*
X141902743Y-119945739D01*
X141902736Y-119945733D01*
X141710293Y-119798067D01*
X141710292Y-119798066D01*
X141710289Y-119798064D01*
X141500212Y-119676776D01*
X141500205Y-119676773D01*
X141276104Y-119583947D01*
X141041785Y-119521161D01*
X140801289Y-119489500D01*
X140801288Y-119489500D01*
X140558712Y-119489500D01*
X140558711Y-119489500D01*
X140318214Y-119521161D01*
X140083895Y-119583947D01*
X139859794Y-119676773D01*
X139859785Y-119676777D01*
X139649706Y-119798067D01*
X139457263Y-119945733D01*
X139457256Y-119945739D01*
X139285739Y-120117256D01*
X139285733Y-120117263D01*
X139138067Y-120309706D01*
X139016777Y-120519785D01*
X139016773Y-120519794D01*
X138923947Y-120743895D01*
X138861161Y-120978214D01*
X138829500Y-121218711D01*
X121384013Y-121218711D01*
X128754155Y-113848569D01*
X128815478Y-113815084D01*
X128841836Y-113812250D01*
X129033739Y-113812250D01*
X129033746Y-113812250D01*
X129279121Y-113779946D01*
X129518180Y-113715890D01*
X129746833Y-113621179D01*
X129961167Y-113497433D01*
X130157516Y-113346769D01*
X130332519Y-113171766D01*
X130483183Y-112975417D01*
X130606929Y-112761083D01*
X130701640Y-112532430D01*
X130765696Y-112293371D01*
X130798000Y-112047996D01*
X130798000Y-111800504D01*
X130765696Y-111555129D01*
X130701640Y-111316070D01*
X130606929Y-111087417D01*
X130606927Y-111087414D01*
X130606925Y-111087409D01*
X130483187Y-110873090D01*
X130483183Y-110873083D01*
X130332519Y-110676734D01*
X130332514Y-110676728D01*
X130157521Y-110501735D01*
X130157514Y-110501729D01*
X129961175Y-110351073D01*
X129961173Y-110351071D01*
X129961167Y-110351067D01*
X129961162Y-110351064D01*
X129961159Y-110351062D01*
X129746840Y-110227324D01*
X129746829Y-110227319D01*
X129518184Y-110132611D01*
X129279117Y-110068553D01*
X129033756Y-110036251D01*
X129033751Y-110036250D01*
X129033746Y-110036250D01*
X128786254Y-110036250D01*
X128786248Y-110036250D01*
X128786243Y-110036251D01*
X128540882Y-110068553D01*
X128301815Y-110132611D01*
X128073170Y-110227319D01*
X128073159Y-110227324D01*
X127858840Y-110351062D01*
X127858824Y-110351073D01*
X127662485Y-110501729D01*
X127662478Y-110501735D01*
X127487485Y-110676728D01*
X127487479Y-110676735D01*
X127336823Y-110873074D01*
X127336812Y-110873090D01*
X127213074Y-111087409D01*
X127213069Y-111087420D01*
X127118361Y-111316065D01*
X127054303Y-111555132D01*
X127022001Y-111800493D01*
X127022000Y-111800510D01*
X127022000Y-111992414D01*
X127002315Y-112059453D01*
X126985681Y-112080095D01*
X126029577Y-113036198D01*
X125968254Y-113069683D01*
X125898562Y-113064699D01*
X125842629Y-113022827D01*
X125818212Y-112957363D01*
X125833064Y-112889090D01*
X125834470Y-112886585D01*
X125906929Y-112761083D01*
X126001640Y-112532430D01*
X126065696Y-112293371D01*
X126098000Y-112047996D01*
X126098000Y-111800504D01*
X126065696Y-111555129D01*
X126001640Y-111316070D01*
X125906929Y-111087417D01*
X125906927Y-111087414D01*
X125906925Y-111087409D01*
X125783187Y-110873090D01*
X125783183Y-110873083D01*
X125632519Y-110676734D01*
X125632514Y-110676728D01*
X125457521Y-110501735D01*
X125457514Y-110501729D01*
X125261175Y-110351073D01*
X125261173Y-110351071D01*
X125261167Y-110351067D01*
X125261162Y-110351064D01*
X125261159Y-110351062D01*
X125046840Y-110227324D01*
X125046829Y-110227319D01*
X124818184Y-110132611D01*
X124579117Y-110068553D01*
X124333756Y-110036251D01*
X124333751Y-110036250D01*
X124333746Y-110036250D01*
X124086254Y-110036250D01*
X124086248Y-110036250D01*
X124086243Y-110036251D01*
X123840882Y-110068553D01*
X123601815Y-110132611D01*
X123373170Y-110227319D01*
X123373159Y-110227324D01*
X123158840Y-110351062D01*
X123158824Y-110351073D01*
X122962485Y-110501729D01*
X122962478Y-110501735D01*
X122787485Y-110676728D01*
X122787479Y-110676735D01*
X122636823Y-110873074D01*
X122636812Y-110873090D01*
X122513074Y-111087409D01*
X122513069Y-111087420D01*
X122418361Y-111316065D01*
X122354303Y-111555132D01*
X122322001Y-111800493D01*
X122322000Y-111800510D01*
X122322000Y-112047989D01*
X122322001Y-112048006D01*
X122354303Y-112293367D01*
X122418361Y-112532434D01*
X122513069Y-112761079D01*
X122513074Y-112761090D01*
X122636812Y-112975409D01*
X122636823Y-112975425D01*
X122787479Y-113171764D01*
X122787485Y-113171771D01*
X122962478Y-113346764D01*
X122962485Y-113346770D01*
X123056921Y-113419233D01*
X123158833Y-113497433D01*
X123158840Y-113497437D01*
X123373159Y-113621175D01*
X123373164Y-113621177D01*
X123373167Y-113621179D01*
X123601820Y-113715890D01*
X123840879Y-113779946D01*
X124086254Y-113812250D01*
X124086261Y-113812250D01*
X124333739Y-113812250D01*
X124333746Y-113812250D01*
X124579121Y-113779946D01*
X124818180Y-113715890D01*
X125046833Y-113621179D01*
X125172269Y-113548758D01*
X125240166Y-113532286D01*
X125306193Y-113555138D01*
X125349384Y-113610059D01*
X125356026Y-113679612D01*
X125324011Y-113741715D01*
X125321948Y-113743827D01*
X117292595Y-121773181D01*
X117231272Y-121806666D01*
X117204914Y-121809500D01*
X113291578Y-121809500D01*
X113097173Y-121840290D01*
X112909970Y-121901117D01*
X112734594Y-121990476D01*
X112643741Y-122056485D01*
X112575354Y-122106172D01*
X112575352Y-122106174D01*
X112575351Y-122106174D01*
X112436174Y-122245351D01*
X112436174Y-122245352D01*
X112436172Y-122245354D01*
X112386485Y-122313741D01*
X112320476Y-122404594D01*
X112231117Y-122579970D01*
X112170290Y-122767173D01*
X112139500Y-122961577D01*
X46470500Y-122961577D01*
X46470500Y-120828711D01*
X55309500Y-120828711D01*
X55309500Y-121071288D01*
X55341161Y-121311785D01*
X55403947Y-121546104D01*
X55468434Y-121701789D01*
X55496776Y-121770212D01*
X55618064Y-121980289D01*
X55618066Y-121980292D01*
X55618067Y-121980293D01*
X55765733Y-122172736D01*
X55765739Y-122172743D01*
X55937256Y-122344260D01*
X55937262Y-122344265D01*
X56129711Y-122491936D01*
X56339788Y-122613224D01*
X56563900Y-122706054D01*
X56798211Y-122768838D01*
X56978586Y-122792584D01*
X57038711Y-122800500D01*
X57038712Y-122800500D01*
X57281289Y-122800500D01*
X57329388Y-122794167D01*
X57521789Y-122768838D01*
X57756100Y-122706054D01*
X57980212Y-122613224D01*
X58190289Y-122491936D01*
X58382738Y-122344265D01*
X58554265Y-122172738D01*
X58701936Y-121980289D01*
X58823224Y-121770212D01*
X58916054Y-121546100D01*
X58978838Y-121311789D01*
X59010500Y-121071288D01*
X59010500Y-120828712D01*
X58978838Y-120588211D01*
X58916054Y-120353900D01*
X58823224Y-120129788D01*
X58701936Y-119919711D01*
X58641018Y-119840321D01*
X58554266Y-119727263D01*
X58554260Y-119727256D01*
X58382743Y-119555739D01*
X58382736Y-119555733D01*
X58190293Y-119408067D01*
X58190292Y-119408066D01*
X58190289Y-119408064D01*
X57980212Y-119286776D01*
X57980205Y-119286773D01*
X57756104Y-119193947D01*
X57521785Y-119131161D01*
X57281289Y-119099500D01*
X57281288Y-119099500D01*
X57038712Y-119099500D01*
X57038711Y-119099500D01*
X56798214Y-119131161D01*
X56563895Y-119193947D01*
X56339794Y-119286773D01*
X56339785Y-119286777D01*
X56129706Y-119408067D01*
X55937263Y-119555733D01*
X55937256Y-119555739D01*
X55765739Y-119727256D01*
X55765733Y-119727263D01*
X55618067Y-119919706D01*
X55496777Y-120129785D01*
X55496773Y-120129794D01*
X55403947Y-120353895D01*
X55341161Y-120588214D01*
X55309500Y-120828711D01*
X46470500Y-120828711D01*
X46470500Y-110695837D01*
X58299500Y-110695837D01*
X58299500Y-110924162D01*
X58335215Y-111149660D01*
X58405770Y-111366803D01*
X58501728Y-111555129D01*
X58509421Y-111570228D01*
X58643621Y-111754937D01*
X58805063Y-111916379D01*
X58989772Y-112050579D01*
X59047701Y-112080095D01*
X59193196Y-112154229D01*
X59193198Y-112154229D01*
X59193201Y-112154231D01*
X59309592Y-112192049D01*
X59410339Y-112224784D01*
X59635838Y-112260500D01*
X59635843Y-112260500D01*
X59864162Y-112260500D01*
X60089660Y-112224784D01*
X60306799Y-112154231D01*
X60510228Y-112050579D01*
X60694937Y-111916379D01*
X60856379Y-111754937D01*
X60990579Y-111570228D01*
X61094231Y-111366799D01*
X61164784Y-111149660D01*
X61174644Y-111087409D01*
X61200500Y-110924162D01*
X61200500Y-110695837D01*
X63799500Y-110695837D01*
X63799500Y-110924162D01*
X63835215Y-111149660D01*
X63905770Y-111366803D01*
X64001728Y-111555129D01*
X64009421Y-111570228D01*
X64143621Y-111754937D01*
X64305063Y-111916379D01*
X64489772Y-112050579D01*
X64693201Y-112154231D01*
X64861245Y-112208832D01*
X64910607Y-112239081D01*
X70385355Y-117713829D01*
X70544595Y-117829524D01*
X70627454Y-117871742D01*
X70719969Y-117918882D01*
X70719971Y-117918882D01*
X70719974Y-117918884D01*
X70820318Y-117951487D01*
X70907173Y-117979709D01*
X71101578Y-118010500D01*
X71101583Y-118010500D01*
X110838422Y-118010500D01*
X111032826Y-117979709D01*
X111220026Y-117918884D01*
X111395405Y-117829524D01*
X111554646Y-117713828D01*
X113092329Y-116176145D01*
X113208024Y-116016905D01*
X113297384Y-115841526D01*
X113358209Y-115654326D01*
X113389000Y-115459922D01*
X113389000Y-110609336D01*
X113397644Y-110579895D01*
X113404168Y-110549909D01*
X113407922Y-110544893D01*
X113408685Y-110542297D01*
X113425319Y-110521655D01*
X113458089Y-110488885D01*
X117622000Y-110488885D01*
X117622000Y-113359620D01*
X117622001Y-113359626D01*
X117628408Y-113419233D01*
X117678702Y-113554078D01*
X117678706Y-113554085D01*
X117764952Y-113669294D01*
X117764955Y-113669297D01*
X117880164Y-113755543D01*
X117880171Y-113755547D01*
X118015017Y-113805841D01*
X118015016Y-113805841D01*
X118021944Y-113806585D01*
X118074627Y-113812250D01*
X120945372Y-113812249D01*
X121004983Y-113805841D01*
X121139831Y-113755546D01*
X121255046Y-113669296D01*
X121341296Y-113554081D01*
X121391591Y-113419233D01*
X121398000Y-113359623D01*
X121397999Y-110488878D01*
X121391591Y-110429267D01*
X121372965Y-110379329D01*
X121341297Y-110294421D01*
X121341293Y-110294414D01*
X121255047Y-110179205D01*
X121255044Y-110179202D01*
X121139835Y-110092956D01*
X121139828Y-110092952D01*
X121004982Y-110042658D01*
X121004983Y-110042658D01*
X120945383Y-110036251D01*
X120945381Y-110036250D01*
X120945373Y-110036250D01*
X120945364Y-110036250D01*
X118074629Y-110036250D01*
X118074623Y-110036251D01*
X118015016Y-110042658D01*
X117880171Y-110092952D01*
X117880164Y-110092956D01*
X117764955Y-110179202D01*
X117764952Y-110179205D01*
X117678706Y-110294414D01*
X117678702Y-110294421D01*
X117628408Y-110429267D01*
X117623993Y-110470339D01*
X117622001Y-110488873D01*
X117622000Y-110488885D01*
X113458089Y-110488885D01*
X114840155Y-109106819D01*
X114901478Y-109073334D01*
X114927836Y-109070500D01*
X138752672Y-109070500D01*
X138947076Y-109039709D01*
X139134276Y-108978884D01*
X139309655Y-108889524D01*
X139468896Y-108773828D01*
X144279393Y-103963329D01*
X144328752Y-103933082D01*
X144496799Y-103878481D01*
X144700228Y-103774829D01*
X144884937Y-103640629D01*
X145046379Y-103479187D01*
X145180579Y-103294478D01*
X145284231Y-103091049D01*
X145354784Y-102873910D01*
X145390500Y-102648412D01*
X145390500Y-102420087D01*
X145354784Y-102194589D01*
X145284229Y-101977446D01*
X145203199Y-101818417D01*
X145180579Y-101774022D01*
X145046379Y-101589313D01*
X144884937Y-101427871D01*
X144700228Y-101293671D01*
X144685636Y-101286236D01*
X144496803Y-101190020D01*
X144279660Y-101119465D01*
X144054162Y-101083750D01*
X144054157Y-101083750D01*
X143825843Y-101083750D01*
X143825838Y-101083750D01*
X143600339Y-101119465D01*
X143383196Y-101190020D01*
X143179771Y-101293671D01*
X142995061Y-101427872D01*
X142833622Y-101589311D01*
X142699421Y-101774021D01*
X142595770Y-101977446D01*
X142541167Y-102145495D01*
X142510917Y-102194857D01*
X138172595Y-106533181D01*
X138111272Y-106566666D01*
X138084914Y-106569500D01*
X121890836Y-106569500D01*
X121823797Y-106549815D01*
X121803155Y-106533181D01*
X118654648Y-103384674D01*
X118654646Y-103384672D01*
X118495405Y-103268976D01*
X118320030Y-103179617D01*
X118132826Y-103118790D01*
X117938422Y-103088000D01*
X117938417Y-103088000D01*
X117741583Y-103088000D01*
X117741578Y-103088000D01*
X117547173Y-103118790D01*
X117359969Y-103179617D01*
X117184594Y-103268976D01*
X117093741Y-103334985D01*
X117025354Y-103384672D01*
X117025352Y-103384674D01*
X117025351Y-103384674D01*
X116886174Y-103523851D01*
X116886174Y-103523852D01*
X116886172Y-103523854D01*
X116836485Y-103592241D01*
X116770476Y-103683094D01*
X116681117Y-103858469D01*
X116620290Y-104045673D01*
X116589500Y-104240077D01*
X116589500Y-104436922D01*
X116620290Y-104631326D01*
X116681117Y-104818530D01*
X116770476Y-104993905D01*
X116886172Y-105153146D01*
X116886174Y-105153148D01*
X118090845Y-106357819D01*
X118124330Y-106419142D01*
X118119346Y-106488834D01*
X118077474Y-106544767D01*
X118012010Y-106569184D01*
X118003164Y-106569500D01*
X114260078Y-106569500D01*
X114065673Y-106600290D01*
X113878469Y-106661117D01*
X113703094Y-106750476D01*
X113615412Y-106814182D01*
X113543854Y-106866172D01*
X113543852Y-106866174D01*
X113543851Y-106866174D01*
X111184674Y-109225351D01*
X111184674Y-109225352D01*
X111184672Y-109225354D01*
X111134985Y-109293741D01*
X111068976Y-109384594D01*
X110979617Y-109559969D01*
X110950002Y-109651117D01*
X110918790Y-109747173D01*
X110888000Y-109941577D01*
X110888000Y-110157557D01*
X110868315Y-110224596D01*
X110815511Y-110270351D01*
X110746353Y-110280295D01*
X110702001Y-110264945D01*
X110636835Y-110227322D01*
X110636829Y-110227319D01*
X110408184Y-110132611D01*
X110169117Y-110068553D01*
X109923756Y-110036251D01*
X109923751Y-110036250D01*
X109923746Y-110036250D01*
X109676254Y-110036250D01*
X109676248Y-110036250D01*
X109676243Y-110036251D01*
X109430882Y-110068553D01*
X109191815Y-110132611D01*
X108963170Y-110227319D01*
X108963159Y-110227324D01*
X108748840Y-110351062D01*
X108748824Y-110351073D01*
X108552485Y-110501729D01*
X108552478Y-110501735D01*
X108377485Y-110676728D01*
X108377479Y-110676735D01*
X108226823Y-110873074D01*
X108226812Y-110873090D01*
X108103074Y-111087409D01*
X108103069Y-111087420D01*
X108008361Y-111316065D01*
X107944303Y-111555132D01*
X107912001Y-111800493D01*
X107912000Y-111800510D01*
X107912000Y-112047989D01*
X107912001Y-112048006D01*
X107944303Y-112293367D01*
X108008361Y-112532434D01*
X108103069Y-112761079D01*
X108103074Y-112761090D01*
X108226812Y-112975409D01*
X108226823Y-112975425D01*
X108377479Y-113171764D01*
X108377485Y-113171771D01*
X108552478Y-113346764D01*
X108552485Y-113346770D01*
X108646921Y-113419233D01*
X108748833Y-113497433D01*
X108748840Y-113497437D01*
X108963159Y-113621175D01*
X108963164Y-113621177D01*
X108963167Y-113621179D01*
X109191820Y-113715890D01*
X109430879Y-113779946D01*
X109676254Y-113812250D01*
X109676261Y-113812250D01*
X109923739Y-113812250D01*
X109923746Y-113812250D01*
X110169121Y-113779946D01*
X110408180Y-113715890D01*
X110636833Y-113621179D01*
X110701999Y-113583554D01*
X110769900Y-113567082D01*
X110835927Y-113589934D01*
X110879117Y-113644855D01*
X110888000Y-113690942D01*
X110888000Y-114792164D01*
X110868315Y-114859203D01*
X110851681Y-114879845D01*
X110258345Y-115473181D01*
X110197022Y-115506666D01*
X110170664Y-115509500D01*
X71769336Y-115509500D01*
X71702297Y-115489815D01*
X71681655Y-115473181D01*
X66697359Y-110488885D01*
X79162000Y-110488885D01*
X79162000Y-113359620D01*
X79162001Y-113359626D01*
X79168408Y-113419233D01*
X79218702Y-113554078D01*
X79218706Y-113554085D01*
X79304952Y-113669294D01*
X79304955Y-113669297D01*
X79420164Y-113755543D01*
X79420171Y-113755547D01*
X79555017Y-113805841D01*
X79555016Y-113805841D01*
X79561944Y-113806585D01*
X79614627Y-113812250D01*
X82485372Y-113812249D01*
X82544983Y-113805841D01*
X82679831Y-113755546D01*
X82795046Y-113669296D01*
X82881296Y-113554081D01*
X82931591Y-113419233D01*
X82938000Y-113359623D01*
X82937999Y-110488878D01*
X82931591Y-110429267D01*
X82912965Y-110379329D01*
X82881297Y-110294421D01*
X82881293Y-110294414D01*
X82795047Y-110179205D01*
X82795044Y-110179202D01*
X82679835Y-110092956D01*
X82679828Y-110092952D01*
X82544982Y-110042658D01*
X82544983Y-110042658D01*
X82485383Y-110036251D01*
X82485381Y-110036250D01*
X82485373Y-110036250D01*
X82485364Y-110036250D01*
X79614629Y-110036250D01*
X79614623Y-110036251D01*
X79555016Y-110042658D01*
X79420171Y-110092952D01*
X79420164Y-110092956D01*
X79304955Y-110179202D01*
X79304952Y-110179205D01*
X79218706Y-110294414D01*
X79218702Y-110294421D01*
X79168408Y-110429267D01*
X79163993Y-110470339D01*
X79162001Y-110488873D01*
X79162000Y-110488885D01*
X66697359Y-110488885D01*
X66679081Y-110470607D01*
X66648832Y-110421245D01*
X66594231Y-110253201D01*
X66490579Y-110049772D01*
X66356379Y-109865063D01*
X66194937Y-109703621D01*
X66010228Y-109569421D01*
X65991687Y-109559974D01*
X65806803Y-109465770D01*
X65589660Y-109395215D01*
X65364162Y-109359500D01*
X65364157Y-109359500D01*
X65135843Y-109359500D01*
X65135838Y-109359500D01*
X64910339Y-109395215D01*
X64693196Y-109465770D01*
X64489771Y-109569421D01*
X64305061Y-109703622D01*
X64143622Y-109865061D01*
X64009421Y-110049771D01*
X63905770Y-110253196D01*
X63835215Y-110470339D01*
X63799500Y-110695837D01*
X61200500Y-110695837D01*
X61164784Y-110470339D01*
X61107624Y-110294421D01*
X61094231Y-110253201D01*
X61094229Y-110253198D01*
X61094229Y-110253196D01*
X61012580Y-110092952D01*
X60990579Y-110049772D01*
X60856379Y-109865063D01*
X60694937Y-109703621D01*
X60510228Y-109569421D01*
X60491687Y-109559974D01*
X60306803Y-109465770D01*
X60089660Y-109395215D01*
X59864162Y-109359500D01*
X59864157Y-109359500D01*
X59635843Y-109359500D01*
X59635838Y-109359500D01*
X59410339Y-109395215D01*
X59193196Y-109465770D01*
X58989771Y-109569421D01*
X58805061Y-109703622D01*
X58643622Y-109865061D01*
X58509421Y-110049771D01*
X58405770Y-110253196D01*
X58335215Y-110470339D01*
X58299500Y-110695837D01*
X46470500Y-110695837D01*
X46470500Y-85301577D01*
X46759500Y-85301577D01*
X46759500Y-85498422D01*
X46790290Y-85692826D01*
X46851117Y-85880030D01*
X46917224Y-86009771D01*
X46940476Y-86055405D01*
X47056172Y-86214646D01*
X47195354Y-86353828D01*
X47354595Y-86469524D01*
X47437454Y-86511742D01*
X47529969Y-86558882D01*
X47529971Y-86558882D01*
X47529974Y-86558884D01*
X47630318Y-86591487D01*
X47717173Y-86619709D01*
X47911578Y-86650500D01*
X47911583Y-86650500D01*
X48108422Y-86650500D01*
X48302826Y-86619709D01*
X48490026Y-86558884D01*
X48665405Y-86469524D01*
X48824646Y-86353828D01*
X52306897Y-82871577D01*
X53609500Y-82871577D01*
X53609500Y-101818422D01*
X53640290Y-102012826D01*
X53701117Y-102200030D01*
X53773627Y-102342337D01*
X53790476Y-102375405D01*
X53906172Y-102534646D01*
X53906174Y-102534648D01*
X58320916Y-106949390D01*
X58351166Y-106998752D01*
X58405770Y-107166803D01*
X58469111Y-107291115D01*
X58509421Y-107370228D01*
X58643621Y-107554937D01*
X58805063Y-107716379D01*
X58989772Y-107850579D01*
X59085884Y-107899550D01*
X59193196Y-107954229D01*
X59193198Y-107954229D01*
X59193201Y-107954231D01*
X59309592Y-107992049D01*
X59410339Y-108024784D01*
X59635838Y-108060500D01*
X59635843Y-108060500D01*
X59864162Y-108060500D01*
X60089660Y-108024784D01*
X60091165Y-108024295D01*
X60306799Y-107954231D01*
X60510228Y-107850579D01*
X60694937Y-107716379D01*
X60856379Y-107554937D01*
X60990579Y-107370228D01*
X61094231Y-107166799D01*
X61164784Y-106949660D01*
X61186242Y-106814182D01*
X61200500Y-106724162D01*
X61200500Y-106495883D01*
X63800000Y-106495883D01*
X63800000Y-106724116D01*
X63835704Y-106949544D01*
X63906230Y-107166604D01*
X64009851Y-107369969D01*
X64063135Y-107443309D01*
X64063137Y-107443309D01*
X64610689Y-106895756D01*
X64629668Y-106941574D01*
X64706274Y-107056224D01*
X64803776Y-107153726D01*
X64918426Y-107230332D01*
X64964242Y-107249309D01*
X64416688Y-107796862D01*
X64416689Y-107796863D01*
X64490030Y-107850148D01*
X64693395Y-107953769D01*
X64910455Y-108024295D01*
X65135884Y-108060000D01*
X65364116Y-108060000D01*
X65589544Y-108024295D01*
X65806604Y-107953769D01*
X66009966Y-107850150D01*
X66083309Y-107796862D01*
X66083310Y-107796862D01*
X65535757Y-107249309D01*
X65581574Y-107230332D01*
X65696224Y-107153726D01*
X65793726Y-107056224D01*
X65870332Y-106941574D01*
X65889309Y-106895757D01*
X66436862Y-107443310D01*
X66436862Y-107443309D01*
X66490150Y-107369966D01*
X66593769Y-107166604D01*
X66664295Y-106949544D01*
X66700000Y-106724116D01*
X66700000Y-106495883D01*
X66664295Y-106270455D01*
X66593769Y-106053395D01*
X66490148Y-105850030D01*
X66436863Y-105776689D01*
X66436862Y-105776688D01*
X65889309Y-106324241D01*
X65870332Y-106278426D01*
X65793726Y-106163776D01*
X65696224Y-106066274D01*
X65581574Y-105989668D01*
X65535756Y-105970689D01*
X66083309Y-105423137D01*
X66083309Y-105423135D01*
X66009969Y-105369851D01*
X65806604Y-105266230D01*
X65589544Y-105195704D01*
X65364116Y-105160000D01*
X65135884Y-105160000D01*
X64910455Y-105195704D01*
X64693395Y-105266230D01*
X64490035Y-105369848D01*
X64490033Y-105369849D01*
X64416689Y-105423135D01*
X64416689Y-105423136D01*
X64964243Y-105970689D01*
X64918426Y-105989668D01*
X64803776Y-106066274D01*
X64706274Y-106163776D01*
X64629668Y-106278426D01*
X64610690Y-106324243D01*
X64063136Y-105776689D01*
X64063135Y-105776689D01*
X64009849Y-105850033D01*
X64009848Y-105850035D01*
X63906230Y-106053395D01*
X63835704Y-106270455D01*
X63800000Y-106495883D01*
X61200500Y-106495883D01*
X61200500Y-106495837D01*
X61164784Y-106270339D01*
X61115927Y-106119975D01*
X61094231Y-106053201D01*
X61094229Y-106053198D01*
X61094229Y-106053196D01*
X61034973Y-105936901D01*
X60990579Y-105849772D01*
X60856379Y-105665063D01*
X60694937Y-105503621D01*
X60510228Y-105369421D01*
X60432497Y-105329815D01*
X60306803Y-105265770D01*
X60138752Y-105211166D01*
X60089390Y-105180916D01*
X59148551Y-104240077D01*
X78039500Y-104240077D01*
X78039500Y-104436922D01*
X78070290Y-104631326D01*
X78131117Y-104818530D01*
X78220476Y-104993905D01*
X78336172Y-105153146D01*
X82875355Y-109692329D01*
X83034595Y-109808024D01*
X83117454Y-109850242D01*
X83209969Y-109897382D01*
X83209971Y-109897382D01*
X83209974Y-109897384D01*
X83310318Y-109929987D01*
X83397173Y-109958209D01*
X83591578Y-109989000D01*
X84865134Y-109989000D01*
X84932173Y-110008685D01*
X84977928Y-110061489D01*
X84987872Y-110130647D01*
X84958847Y-110194203D01*
X84916440Y-110224782D01*
X84916807Y-110225526D01*
X84913159Y-110227324D01*
X84698840Y-110351062D01*
X84698824Y-110351073D01*
X84502485Y-110501729D01*
X84502478Y-110501735D01*
X84327485Y-110676728D01*
X84327479Y-110676735D01*
X84176823Y-110873074D01*
X84176812Y-110873090D01*
X84053074Y-111087409D01*
X84053069Y-111087420D01*
X83958361Y-111316065D01*
X83894303Y-111555132D01*
X83862001Y-111800493D01*
X83862000Y-111800510D01*
X83862000Y-112047989D01*
X83862001Y-112048006D01*
X83894303Y-112293367D01*
X83958361Y-112532434D01*
X84053069Y-112761079D01*
X84053074Y-112761090D01*
X84176812Y-112975409D01*
X84176823Y-112975425D01*
X84327479Y-113171764D01*
X84327485Y-113171771D01*
X84502478Y-113346764D01*
X84502485Y-113346770D01*
X84596921Y-113419233D01*
X84698833Y-113497433D01*
X84698840Y-113497437D01*
X84913159Y-113621175D01*
X84913164Y-113621177D01*
X84913167Y-113621179D01*
X85141820Y-113715890D01*
X85380879Y-113779946D01*
X85626254Y-113812250D01*
X85626261Y-113812250D01*
X85873739Y-113812250D01*
X85873746Y-113812250D01*
X86119121Y-113779946D01*
X86358180Y-113715890D01*
X86586833Y-113621179D01*
X86801167Y-113497433D01*
X86997516Y-113346769D01*
X87172519Y-113171766D01*
X87323183Y-112975417D01*
X87446929Y-112761083D01*
X87541640Y-112532430D01*
X87605696Y-112293371D01*
X87638000Y-112047996D01*
X87638000Y-111800504D01*
X87605696Y-111555129D01*
X87541640Y-111316070D01*
X87446929Y-111087417D01*
X87446927Y-111087414D01*
X87446925Y-111087409D01*
X87323187Y-110873090D01*
X87323183Y-110873083D01*
X87172519Y-110676734D01*
X87172514Y-110676728D01*
X86997521Y-110501735D01*
X86997514Y-110501729D01*
X86801175Y-110351073D01*
X86801173Y-110351071D01*
X86801167Y-110351067D01*
X86801162Y-110351064D01*
X86801159Y-110351062D01*
X86586840Y-110227324D01*
X86583193Y-110225526D01*
X86583675Y-110224548D01*
X86533011Y-110183722D01*
X86510945Y-110117428D01*
X86528223Y-110049728D01*
X86579360Y-110002117D01*
X86634866Y-109989000D01*
X89565134Y-109989000D01*
X89632173Y-110008685D01*
X89677928Y-110061489D01*
X89687872Y-110130647D01*
X89658847Y-110194203D01*
X89616440Y-110224782D01*
X89616807Y-110225526D01*
X89613159Y-110227324D01*
X89398840Y-110351062D01*
X89398824Y-110351073D01*
X89202485Y-110501729D01*
X89202478Y-110501735D01*
X89027485Y-110676728D01*
X89027479Y-110676735D01*
X88876823Y-110873074D01*
X88876812Y-110873090D01*
X88753074Y-111087409D01*
X88753069Y-111087420D01*
X88658361Y-111316065D01*
X88594303Y-111555132D01*
X88562001Y-111800493D01*
X88562000Y-111800510D01*
X88562000Y-112047989D01*
X88562001Y-112048006D01*
X88594303Y-112293367D01*
X88658361Y-112532434D01*
X88753069Y-112761079D01*
X88753074Y-112761090D01*
X88876812Y-112975409D01*
X88876823Y-112975425D01*
X89027479Y-113171764D01*
X89027485Y-113171771D01*
X89202478Y-113346764D01*
X89202485Y-113346770D01*
X89296921Y-113419233D01*
X89398833Y-113497433D01*
X89398840Y-113497437D01*
X89613159Y-113621175D01*
X89613164Y-113621177D01*
X89613167Y-113621179D01*
X89841820Y-113715890D01*
X90080879Y-113779946D01*
X90326254Y-113812250D01*
X90326261Y-113812250D01*
X90573739Y-113812250D01*
X90573746Y-113812250D01*
X90819121Y-113779946D01*
X91058180Y-113715890D01*
X91286833Y-113621179D01*
X91501167Y-113497433D01*
X91697516Y-113346769D01*
X91872519Y-113171766D01*
X92023183Y-112975417D01*
X92146929Y-112761083D01*
X92241640Y-112532430D01*
X92305696Y-112293371D01*
X92338000Y-112047996D01*
X92338000Y-111800504D01*
X92305696Y-111555129D01*
X92241640Y-111316070D01*
X92146929Y-111087417D01*
X92146927Y-111087414D01*
X92146925Y-111087409D01*
X92023187Y-110873090D01*
X92023183Y-110873083D01*
X91872519Y-110676734D01*
X91872514Y-110676728D01*
X91697521Y-110501735D01*
X91697514Y-110501729D01*
X91501175Y-110351073D01*
X91501173Y-110351071D01*
X91501167Y-110351067D01*
X91501162Y-110351064D01*
X91501159Y-110351062D01*
X91286840Y-110227324D01*
X91283193Y-110225526D01*
X91283675Y-110224548D01*
X91233011Y-110183722D01*
X91210945Y-110117428D01*
X91228223Y-110049728D01*
X91279360Y-110002117D01*
X91334866Y-109989000D01*
X98549619Y-109989000D01*
X98616658Y-110008685D01*
X98662413Y-110061489D01*
X98672357Y-110130647D01*
X98648885Y-110187310D01*
X98620974Y-110224596D01*
X98568704Y-110294418D01*
X98568702Y-110294421D01*
X98518408Y-110429267D01*
X98513993Y-110470339D01*
X98512001Y-110488873D01*
X98512000Y-110488885D01*
X98512000Y-113359620D01*
X98512001Y-113359626D01*
X98518408Y-113419233D01*
X98568702Y-113554078D01*
X98568706Y-113554085D01*
X98654952Y-113669294D01*
X98654955Y-113669297D01*
X98770164Y-113755543D01*
X98770171Y-113755547D01*
X98905017Y-113805841D01*
X98905016Y-113805841D01*
X98911944Y-113806585D01*
X98964627Y-113812250D01*
X101835372Y-113812249D01*
X101894983Y-113805841D01*
X102029831Y-113755546D01*
X102145046Y-113669296D01*
X102231296Y-113554081D01*
X102281591Y-113419233D01*
X102288000Y-113359623D01*
X102287999Y-110488878D01*
X102281591Y-110429267D01*
X102262965Y-110379329D01*
X102231297Y-110294421D01*
X102231295Y-110294418D01*
X102231292Y-110294414D01*
X102151114Y-110187310D01*
X102126697Y-110121847D01*
X102141548Y-110053574D01*
X102190953Y-110004168D01*
X102250381Y-109989000D01*
X104215134Y-109989000D01*
X104282173Y-110008685D01*
X104327928Y-110061489D01*
X104337872Y-110130647D01*
X104308847Y-110194203D01*
X104266440Y-110224782D01*
X104266807Y-110225526D01*
X104263159Y-110227324D01*
X104048840Y-110351062D01*
X104048824Y-110351073D01*
X103852485Y-110501729D01*
X103852478Y-110501735D01*
X103677485Y-110676728D01*
X103677479Y-110676735D01*
X103526823Y-110873074D01*
X103526812Y-110873090D01*
X103403074Y-111087409D01*
X103403069Y-111087420D01*
X103308361Y-111316065D01*
X103244303Y-111555132D01*
X103212001Y-111800493D01*
X103212000Y-111800510D01*
X103212000Y-112047989D01*
X103212001Y-112048006D01*
X103244303Y-112293367D01*
X103308361Y-112532434D01*
X103403069Y-112761079D01*
X103403074Y-112761090D01*
X103526812Y-112975409D01*
X103526823Y-112975425D01*
X103677479Y-113171764D01*
X103677485Y-113171771D01*
X103852478Y-113346764D01*
X103852485Y-113346770D01*
X103946921Y-113419233D01*
X104048833Y-113497433D01*
X104048840Y-113497437D01*
X104263159Y-113621175D01*
X104263164Y-113621177D01*
X104263167Y-113621179D01*
X104491820Y-113715890D01*
X104730879Y-113779946D01*
X104976254Y-113812250D01*
X104976261Y-113812250D01*
X105223739Y-113812250D01*
X105223746Y-113812250D01*
X105469121Y-113779946D01*
X105708180Y-113715890D01*
X105936833Y-113621179D01*
X106151167Y-113497433D01*
X106347516Y-113346769D01*
X106522519Y-113171766D01*
X106673183Y-112975417D01*
X106796929Y-112761083D01*
X106891640Y-112532430D01*
X106955696Y-112293371D01*
X106988000Y-112047996D01*
X106988000Y-111800504D01*
X106955696Y-111555129D01*
X106891640Y-111316070D01*
X106796929Y-111087417D01*
X106796927Y-111087414D01*
X106796925Y-111087409D01*
X106673187Y-110873090D01*
X106673183Y-110873083D01*
X106522519Y-110676734D01*
X106522514Y-110676728D01*
X106347521Y-110501735D01*
X106347514Y-110501729D01*
X106151175Y-110351073D01*
X106151173Y-110351071D01*
X106151167Y-110351067D01*
X106151162Y-110351064D01*
X106151159Y-110351062D01*
X105936840Y-110227324D01*
X105933193Y-110225526D01*
X105933675Y-110224548D01*
X105883011Y-110183722D01*
X105860945Y-110117428D01*
X105878223Y-110049728D01*
X105929360Y-110002117D01*
X105984866Y-109989000D01*
X107489922Y-109989000D01*
X107684326Y-109958209D01*
X107871526Y-109897384D01*
X108046905Y-109808024D01*
X108206146Y-109692328D01*
X115421655Y-102476819D01*
X115482978Y-102443334D01*
X115509336Y-102440500D01*
X120448422Y-102440500D01*
X120642826Y-102409709D01*
X120830026Y-102348884D01*
X121005405Y-102259524D01*
X121164646Y-102143828D01*
X122530338Y-100778135D01*
X123775500Y-100778135D01*
X123775500Y-102381870D01*
X123775501Y-102381876D01*
X123781908Y-102441483D01*
X123832202Y-102576328D01*
X123832206Y-102576335D01*
X123918452Y-102691544D01*
X123918455Y-102691547D01*
X124033664Y-102777793D01*
X124033671Y-102777797D01*
X124168517Y-102828091D01*
X124168516Y-102828091D01*
X124175444Y-102828835D01*
X124228127Y-102834500D01*
X125831872Y-102834499D01*
X125891483Y-102828091D01*
X126026331Y-102777796D01*
X126141546Y-102691546D01*
X126227796Y-102576331D01*
X126278091Y-102441483D01*
X126284500Y-102381873D01*
X126284499Y-102326574D01*
X126304182Y-102259538D01*
X126356986Y-102213783D01*
X126426144Y-102203838D01*
X126489700Y-102232862D01*
X126508817Y-102253691D01*
X126613115Y-102397245D01*
X126613119Y-102397250D01*
X126752753Y-102536884D01*
X126902234Y-102645486D01*
X126912499Y-102652944D01*
X127088439Y-102742591D01*
X127213637Y-102783270D01*
X127276236Y-102803610D01*
X127471264Y-102834500D01*
X127471269Y-102834500D01*
X127668736Y-102834500D01*
X127863763Y-102803610D01*
X128051561Y-102742591D01*
X128227501Y-102652944D01*
X128365303Y-102552826D01*
X128387246Y-102536884D01*
X128387248Y-102536881D01*
X128387252Y-102536879D01*
X128504044Y-102420087D01*
X138289500Y-102420087D01*
X138289500Y-102648412D01*
X138325215Y-102873910D01*
X138395770Y-103091053D01*
X138470287Y-103237300D01*
X138499421Y-103294478D01*
X138633621Y-103479187D01*
X138795063Y-103640629D01*
X138979772Y-103774829D01*
X139036623Y-103803796D01*
X139183196Y-103878479D01*
X139183198Y-103878479D01*
X139183201Y-103878481D01*
X139299592Y-103916299D01*
X139400339Y-103949034D01*
X139625838Y-103984750D01*
X139625843Y-103984750D01*
X139854162Y-103984750D01*
X140079660Y-103949034D01*
X140296799Y-103878481D01*
X140500228Y-103774829D01*
X140684937Y-103640629D01*
X140846379Y-103479187D01*
X140980579Y-103294478D01*
X141084231Y-103091049D01*
X141154784Y-102873910D01*
X141190500Y-102648412D01*
X141190500Y-102420087D01*
X141154784Y-102194589D01*
X141084229Y-101977446D01*
X141003199Y-101818417D01*
X140980579Y-101774022D01*
X140846379Y-101589313D01*
X140684937Y-101427871D01*
X140500228Y-101293671D01*
X140485636Y-101286236D01*
X140296803Y-101190020D01*
X140079660Y-101119465D01*
X139854162Y-101083750D01*
X139854157Y-101083750D01*
X139625843Y-101083750D01*
X139625838Y-101083750D01*
X139400339Y-101119465D01*
X139183196Y-101190020D01*
X138979771Y-101293671D01*
X138795061Y-101427872D01*
X138633622Y-101589311D01*
X138499421Y-101774021D01*
X138395770Y-101977446D01*
X138325215Y-102194589D01*
X138289500Y-102420087D01*
X128504044Y-102420087D01*
X128526879Y-102397252D01*
X128538050Y-102381876D01*
X128566777Y-102342337D01*
X128566777Y-102342336D01*
X128642944Y-102237501D01*
X128732591Y-102061561D01*
X128793610Y-101873763D01*
X128796867Y-101853201D01*
X128824500Y-101678736D01*
X128824500Y-101481263D01*
X128793610Y-101286236D01*
X128755654Y-101169421D01*
X128732591Y-101098439D01*
X128642944Y-100922499D01*
X128598634Y-100861511D01*
X128526884Y-100762753D01*
X128387246Y-100623115D01*
X128227504Y-100507058D01*
X128227503Y-100507057D01*
X128227501Y-100507056D01*
X128051561Y-100417409D01*
X128051558Y-100417408D01*
X127863763Y-100356389D01*
X127668736Y-100325500D01*
X127668731Y-100325500D01*
X127471269Y-100325500D01*
X127471264Y-100325500D01*
X127276236Y-100356389D01*
X127088441Y-100417408D01*
X126912495Y-100507058D01*
X126752753Y-100623115D01*
X126613119Y-100762749D01*
X126613115Y-100762754D01*
X126508817Y-100906310D01*
X126453488Y-100948976D01*
X126383874Y-100954955D01*
X126322079Y-100922350D01*
X126287722Y-100861511D01*
X126284499Y-100833425D01*
X126284499Y-100778129D01*
X126284498Y-100778123D01*
X126284497Y-100778116D01*
X126278091Y-100718517D01*
X126242508Y-100623115D01*
X126227797Y-100583671D01*
X126227793Y-100583664D01*
X126141547Y-100468455D01*
X126141544Y-100468452D01*
X126026335Y-100382206D01*
X126026328Y-100382202D01*
X125891482Y-100331908D01*
X125891483Y-100331908D01*
X125831883Y-100325501D01*
X125831881Y-100325500D01*
X125831873Y-100325500D01*
X125831864Y-100325500D01*
X124228129Y-100325500D01*
X124228123Y-100325501D01*
X124168516Y-100331908D01*
X124033671Y-100382202D01*
X124033664Y-100382206D01*
X123918455Y-100468452D01*
X123918452Y-100468455D01*
X123832206Y-100583664D01*
X123832202Y-100583671D01*
X123781908Y-100718517D01*
X123775501Y-100778116D01*
X123775501Y-100778123D01*
X123775500Y-100778135D01*
X122530338Y-100778135D01*
X124997112Y-98311360D01*
X125058433Y-98277877D01*
X125104186Y-98276570D01*
X125143327Y-98282769D01*
X125155831Y-98284750D01*
X125155833Y-98284750D01*
X138327680Y-98284750D01*
X138394719Y-98304435D01*
X138426948Y-98334441D01*
X138432454Y-98341796D01*
X138432457Y-98341798D01*
X138547664Y-98428043D01*
X138547671Y-98428047D01*
X138682517Y-98478341D01*
X138682516Y-98478341D01*
X138689444Y-98479085D01*
X138742127Y-98484750D01*
X140737872Y-98484749D01*
X140797483Y-98478341D01*
X140932331Y-98428046D01*
X141047546Y-98341796D01*
X141133796Y-98226581D01*
X141184091Y-98091733D01*
X141190500Y-98032123D01*
X141190499Y-96920087D01*
X142489500Y-96920087D01*
X142489500Y-97148412D01*
X142525215Y-97373910D01*
X142595770Y-97591053D01*
X142688006Y-97772075D01*
X142699421Y-97794478D01*
X142833621Y-97979187D01*
X142995063Y-98140629D01*
X143179772Y-98274829D01*
X143251472Y-98311362D01*
X143383196Y-98378479D01*
X143383198Y-98378479D01*
X143383201Y-98378481D01*
X143499592Y-98416299D01*
X143600339Y-98449034D01*
X143825838Y-98484750D01*
X143825843Y-98484750D01*
X144054162Y-98484750D01*
X144279660Y-98449034D01*
X144306888Y-98440187D01*
X144496799Y-98378481D01*
X144700228Y-98274829D01*
X144884937Y-98140629D01*
X145046379Y-97979187D01*
X145180579Y-97794478D01*
X145284231Y-97591049D01*
X145354784Y-97373910D01*
X145374472Y-97249606D01*
X145390500Y-97148412D01*
X145390500Y-96920087D01*
X145354784Y-96694589D01*
X145284229Y-96477446D01*
X145222197Y-96355703D01*
X145180579Y-96274022D01*
X145046379Y-96089313D01*
X144884937Y-95927871D01*
X144700228Y-95793671D01*
X144680757Y-95783750D01*
X144496803Y-95690020D01*
X144279660Y-95619465D01*
X144054162Y-95583750D01*
X144054157Y-95583750D01*
X143825843Y-95583750D01*
X143825838Y-95583750D01*
X143600339Y-95619465D01*
X143383196Y-95690020D01*
X143179771Y-95793671D01*
X142995061Y-95927872D01*
X142833622Y-96089311D01*
X142699421Y-96274021D01*
X142595770Y-96477446D01*
X142525215Y-96694589D01*
X142489500Y-96920087D01*
X141190499Y-96920087D01*
X141190499Y-96036378D01*
X141184091Y-95976767D01*
X141181389Y-95969523D01*
X141133797Y-95841921D01*
X141133793Y-95841914D01*
X141047547Y-95726705D01*
X141047544Y-95726702D01*
X140932335Y-95640456D01*
X140932328Y-95640452D01*
X140797482Y-95590158D01*
X140797483Y-95590158D01*
X140737883Y-95583751D01*
X140737881Y-95583750D01*
X140737873Y-95583750D01*
X140737864Y-95583750D01*
X138742129Y-95583750D01*
X138742123Y-95583751D01*
X138682516Y-95590158D01*
X138547671Y-95640452D01*
X138547664Y-95640456D01*
X138432457Y-95726701D01*
X138432451Y-95726707D01*
X138426948Y-95734059D01*
X138371015Y-95775931D01*
X138327680Y-95783750D01*
X125823586Y-95783750D01*
X125756547Y-95764065D01*
X125735905Y-95747431D01*
X125694648Y-95706174D01*
X125694647Y-95706173D01*
X125694646Y-95706172D01*
X125535405Y-95590476D01*
X125534781Y-95590158D01*
X125360030Y-95501117D01*
X125172826Y-95440290D01*
X124978422Y-95409500D01*
X124978417Y-95409500D01*
X124978416Y-95409500D01*
X124781583Y-95409500D01*
X124781578Y-95409500D01*
X124587176Y-95440290D01*
X124587173Y-95440291D01*
X124541264Y-95455207D01*
X124541262Y-95455207D01*
X124399970Y-95501117D01*
X124280867Y-95561804D01*
X124224595Y-95590476D01*
X124224594Y-95590477D01*
X124216696Y-95596215D01*
X124216691Y-95596217D01*
X124065352Y-95706173D01*
X124065351Y-95706174D01*
X119868345Y-99903181D01*
X119807022Y-99936666D01*
X119780664Y-99939500D01*
X114841578Y-99939500D01*
X114647173Y-99970290D01*
X114459969Y-100031117D01*
X114284594Y-100120476D01*
X114193741Y-100186485D01*
X114125354Y-100236172D01*
X114125352Y-100236174D01*
X114125351Y-100236174D01*
X106909845Y-107451681D01*
X106848522Y-107485166D01*
X106822164Y-107488000D01*
X104359836Y-107488000D01*
X104292797Y-107468315D01*
X104247042Y-107415511D01*
X104237098Y-107346353D01*
X104266123Y-107282797D01*
X104272155Y-107276319D01*
X106367558Y-105180916D01*
X108473828Y-103074646D01*
X108589524Y-102915405D01*
X108678884Y-102740026D01*
X108739709Y-102552826D01*
X108757343Y-102441483D01*
X108758238Y-102435835D01*
X108758238Y-102435834D01*
X108770500Y-102358416D01*
X108770500Y-101713742D01*
X108772027Y-101694344D01*
X108774500Y-101678730D01*
X108774500Y-101481263D01*
X108743610Y-101286236D01*
X108705654Y-101169421D01*
X108682591Y-101098439D01*
X108592944Y-100922499D01*
X108548634Y-100861511D01*
X108476884Y-100762753D01*
X108337246Y-100623115D01*
X108177504Y-100507058D01*
X108177503Y-100507057D01*
X108177501Y-100507056D01*
X108001561Y-100417409D01*
X108001558Y-100417408D01*
X107813763Y-100356389D01*
X107618736Y-100325500D01*
X107618731Y-100325500D01*
X107421269Y-100325500D01*
X107421264Y-100325500D01*
X107226236Y-100356389D01*
X107038441Y-100417408D01*
X106862495Y-100507058D01*
X106702753Y-100623115D01*
X106563119Y-100762749D01*
X106563115Y-100762754D01*
X106458817Y-100906310D01*
X106403488Y-100948976D01*
X106333874Y-100954955D01*
X106272079Y-100922350D01*
X106237722Y-100861511D01*
X106234499Y-100833425D01*
X106234499Y-100778129D01*
X106234498Y-100778123D01*
X106234497Y-100778116D01*
X106228091Y-100718517D01*
X106192508Y-100623115D01*
X106177797Y-100583671D01*
X106177793Y-100583664D01*
X106091547Y-100468455D01*
X106091544Y-100468452D01*
X105976335Y-100382206D01*
X105976328Y-100382202D01*
X105841482Y-100331908D01*
X105841483Y-100331908D01*
X105781883Y-100325501D01*
X105781881Y-100325500D01*
X105781873Y-100325500D01*
X105781864Y-100325500D01*
X104178129Y-100325500D01*
X104178123Y-100325501D01*
X104118516Y-100331908D01*
X103983671Y-100382202D01*
X103983664Y-100382206D01*
X103868455Y-100468452D01*
X103868452Y-100468455D01*
X103782206Y-100583664D01*
X103782202Y-100583671D01*
X103731908Y-100718517D01*
X103725501Y-100778116D01*
X103725501Y-100778123D01*
X103725500Y-100778135D01*
X103725500Y-102381870D01*
X103725501Y-102381876D01*
X103731908Y-102441483D01*
X103782202Y-102576328D01*
X103782206Y-102576335D01*
X103868452Y-102691544D01*
X103868455Y-102691547D01*
X103983664Y-102777793D01*
X103983671Y-102777797D01*
X104118517Y-102828091D01*
X104118516Y-102828091D01*
X104125444Y-102828835D01*
X104178127Y-102834500D01*
X104877664Y-102834499D01*
X104944702Y-102854183D01*
X104990457Y-102906987D01*
X105000401Y-102976146D01*
X104971376Y-103039702D01*
X104965344Y-103046180D01*
X102698345Y-105313181D01*
X102637022Y-105346666D01*
X102610664Y-105349500D01*
X99898810Y-105349500D01*
X99831771Y-105329815D01*
X99811129Y-105313181D01*
X99211448Y-104713500D01*
X99239370Y-104713500D01*
X99334745Y-104687944D01*
X99420255Y-104638575D01*
X99490075Y-104568755D01*
X99539444Y-104483245D01*
X99565000Y-104387870D01*
X99565000Y-104359947D01*
X100147051Y-104941999D01*
X100147052Y-104941998D01*
X100155600Y-104930234D01*
X100155604Y-104930227D01*
X100236283Y-104771890D01*
X100291199Y-104602875D01*
X100319000Y-104427353D01*
X100319000Y-104249646D01*
X100291199Y-104074124D01*
X100236283Y-103905109D01*
X100155604Y-103746771D01*
X100147052Y-103735000D01*
X100147051Y-103734999D01*
X99565000Y-104317051D01*
X99565000Y-104289130D01*
X99539444Y-104193755D01*
X99490075Y-104108245D01*
X99420255Y-104038425D01*
X99334745Y-103989056D01*
X99239370Y-103963500D01*
X99211447Y-103963500D01*
X99793498Y-103381447D01*
X99793498Y-103381446D01*
X99781727Y-103372895D01*
X99623390Y-103292216D01*
X99454375Y-103237300D01*
X99278853Y-103209500D01*
X99101147Y-103209500D01*
X98925624Y-103237300D01*
X98756609Y-103292216D01*
X98598271Y-103372894D01*
X98598269Y-103372895D01*
X98586500Y-103381445D01*
X98586500Y-103381447D01*
X99168554Y-103963500D01*
X99140630Y-103963500D01*
X99045255Y-103989056D01*
X98959745Y-104038425D01*
X98889925Y-104108245D01*
X98840556Y-104193755D01*
X98815000Y-104289130D01*
X98815000Y-104317053D01*
X98232947Y-103735000D01*
X98232945Y-103735000D01*
X98224395Y-103746769D01*
X98224394Y-103746771D01*
X98143716Y-103905109D01*
X98088800Y-104074124D01*
X98061000Y-104249646D01*
X98061000Y-104427353D01*
X98088800Y-104602875D01*
X98143716Y-104771890D01*
X98224395Y-104930227D01*
X98232947Y-104941998D01*
X98815000Y-104359945D01*
X98815000Y-104387870D01*
X98840556Y-104483245D01*
X98889925Y-104568755D01*
X98959745Y-104638575D01*
X99045255Y-104687944D01*
X99140630Y-104713500D01*
X99168553Y-104713500D01*
X98568870Y-105313181D01*
X98507547Y-105346666D01*
X98481189Y-105349500D01*
X86921578Y-105349500D01*
X86727173Y-105380290D01*
X86539970Y-105441117D01*
X86364594Y-105530476D01*
X86273741Y-105596485D01*
X86205354Y-105646172D01*
X86205352Y-105646174D01*
X86205351Y-105646174D01*
X86066174Y-105785351D01*
X86066174Y-105785352D01*
X86066172Y-105785354D01*
X86019370Y-105849771D01*
X85950476Y-105944594D01*
X85861117Y-106119970D01*
X85800290Y-106307173D01*
X85769500Y-106501577D01*
X85769500Y-106698422D01*
X85800290Y-106892826D01*
X85861117Y-107080029D01*
X85950478Y-107255408D01*
X85976420Y-107291115D01*
X85999900Y-107356921D01*
X85984074Y-107424975D01*
X85933968Y-107473670D01*
X85876102Y-107488000D01*
X84259336Y-107488000D01*
X84192297Y-107468315D01*
X84171655Y-107451681D01*
X80104648Y-103384674D01*
X80104646Y-103384672D01*
X79945405Y-103268976D01*
X79770030Y-103179617D01*
X79582826Y-103118790D01*
X79388422Y-103088000D01*
X79388417Y-103088000D01*
X79191583Y-103088000D01*
X79191578Y-103088000D01*
X78997173Y-103118790D01*
X78809969Y-103179617D01*
X78634594Y-103268976D01*
X78543741Y-103334985D01*
X78475354Y-103384672D01*
X78475352Y-103384674D01*
X78475351Y-103384674D01*
X78336174Y-103523851D01*
X78336174Y-103523852D01*
X78336172Y-103523854D01*
X78286485Y-103592241D01*
X78220476Y-103683094D01*
X78131117Y-103858469D01*
X78070290Y-104045673D01*
X78039500Y-104240077D01*
X59148551Y-104240077D01*
X57204311Y-102295837D01*
X58299500Y-102295837D01*
X58299500Y-102524162D01*
X58335215Y-102749660D01*
X58405770Y-102966803D01*
X58509421Y-103170228D01*
X58643621Y-103354937D01*
X58805063Y-103516379D01*
X58989772Y-103650579D01*
X59085884Y-103699550D01*
X59193196Y-103754229D01*
X59193198Y-103754229D01*
X59193201Y-103754231D01*
X59256592Y-103774828D01*
X59410339Y-103824784D01*
X59635838Y-103860500D01*
X59635843Y-103860500D01*
X59864162Y-103860500D01*
X60089660Y-103824784D01*
X60306799Y-103754231D01*
X60510228Y-103650579D01*
X60694937Y-103516379D01*
X60856379Y-103354937D01*
X60990579Y-103170228D01*
X61094231Y-102966799D01*
X61164784Y-102749660D01*
X61173988Y-102691547D01*
X61200500Y-102524162D01*
X61200500Y-102295837D01*
X61164784Y-102070339D01*
X61094229Y-101853196D01*
X61018202Y-101703986D01*
X60990579Y-101649772D01*
X60856379Y-101465063D01*
X60803451Y-101412135D01*
X63799500Y-101412135D01*
X63799500Y-103407870D01*
X63799501Y-103407876D01*
X63805908Y-103467483D01*
X63856202Y-103602328D01*
X63856206Y-103602335D01*
X63942452Y-103717544D01*
X63942455Y-103717547D01*
X64057664Y-103803793D01*
X64057671Y-103803797D01*
X64192517Y-103854091D01*
X64192516Y-103854091D01*
X64199444Y-103854835D01*
X64252127Y-103860500D01*
X66247872Y-103860499D01*
X66307483Y-103854091D01*
X66442331Y-103803796D01*
X66557546Y-103717546D01*
X66643796Y-103602331D01*
X66694091Y-103467483D01*
X66700500Y-103407873D01*
X66700499Y-101412128D01*
X66694091Y-101352517D01*
X66675854Y-101303622D01*
X66643797Y-101217671D01*
X66643793Y-101217664D01*
X66557547Y-101102455D01*
X66557544Y-101102452D01*
X66442335Y-101016206D01*
X66442328Y-101016202D01*
X66307482Y-100965908D01*
X66307483Y-100965908D01*
X66247883Y-100959501D01*
X66247881Y-100959500D01*
X66247873Y-100959500D01*
X66247864Y-100959500D01*
X64252129Y-100959500D01*
X64252123Y-100959501D01*
X64192516Y-100965908D01*
X64057671Y-101016202D01*
X64057664Y-101016206D01*
X63942455Y-101102452D01*
X63942452Y-101102455D01*
X63856206Y-101217664D01*
X63856202Y-101217671D01*
X63805908Y-101352517D01*
X63799501Y-101412116D01*
X63799501Y-101412123D01*
X63799500Y-101412135D01*
X60803451Y-101412135D01*
X60694937Y-101303621D01*
X60510228Y-101169421D01*
X60306803Y-101065770D01*
X60089660Y-100995215D01*
X59864162Y-100959500D01*
X59864157Y-100959500D01*
X59635843Y-100959500D01*
X59635838Y-100959500D01*
X59410339Y-100995215D01*
X59193196Y-101065770D01*
X58989771Y-101169421D01*
X58805061Y-101303622D01*
X58643622Y-101465061D01*
X58509421Y-101649771D01*
X58405770Y-101853196D01*
X58335215Y-102070339D01*
X58299500Y-102295837D01*
X57204311Y-102295837D01*
X56146819Y-101238345D01*
X56113334Y-101177022D01*
X56110500Y-101150664D01*
X56110500Y-100778135D01*
X83655500Y-100778135D01*
X83655500Y-102381870D01*
X83655501Y-102381876D01*
X83661908Y-102441483D01*
X83712202Y-102576328D01*
X83712206Y-102576335D01*
X83798452Y-102691544D01*
X83798455Y-102691547D01*
X83913664Y-102777793D01*
X83913671Y-102777797D01*
X84048517Y-102828091D01*
X84048516Y-102828091D01*
X84055444Y-102828835D01*
X84108127Y-102834500D01*
X85711872Y-102834499D01*
X85771483Y-102828091D01*
X85906331Y-102777796D01*
X86021546Y-102691546D01*
X86107796Y-102576331D01*
X86158091Y-102441483D01*
X86164500Y-102381873D01*
X86164499Y-102326574D01*
X86184182Y-102259538D01*
X86236986Y-102213783D01*
X86306144Y-102203838D01*
X86369700Y-102232862D01*
X86388817Y-102253691D01*
X86493115Y-102397245D01*
X86493119Y-102397250D01*
X86632753Y-102536884D01*
X86782234Y-102645486D01*
X86792499Y-102652944D01*
X86968439Y-102742591D01*
X87093637Y-102783270D01*
X87156236Y-102803610D01*
X87351264Y-102834500D01*
X87351269Y-102834500D01*
X87548736Y-102834500D01*
X87743763Y-102803610D01*
X87931561Y-102742591D01*
X88107501Y-102652944D01*
X88245303Y-102552826D01*
X88267246Y-102536884D01*
X88267248Y-102536881D01*
X88267252Y-102536879D01*
X88406879Y-102397252D01*
X88406881Y-102397248D01*
X88406884Y-102397246D01*
X88480556Y-102295843D01*
X88522944Y-102237501D01*
X88612591Y-102061561D01*
X88673610Y-101873763D01*
X88676867Y-101853201D01*
X88704500Y-101678736D01*
X88704500Y-101481263D01*
X88673610Y-101286236D01*
X88635654Y-101169421D01*
X88612591Y-101098439D01*
X88522944Y-100922499D01*
X88478634Y-100861511D01*
X88406884Y-100762753D01*
X88267246Y-100623115D01*
X88107504Y-100507058D01*
X88107503Y-100507057D01*
X88107501Y-100507056D01*
X87931561Y-100417409D01*
X87931558Y-100417408D01*
X87743763Y-100356389D01*
X87548736Y-100325500D01*
X87548731Y-100325500D01*
X87351269Y-100325500D01*
X87351264Y-100325500D01*
X87156236Y-100356389D01*
X86968441Y-100417408D01*
X86792495Y-100507058D01*
X86632753Y-100623115D01*
X86493119Y-100762749D01*
X86493115Y-100762754D01*
X86388817Y-100906310D01*
X86333488Y-100948976D01*
X86263874Y-100954955D01*
X86202079Y-100922350D01*
X86167722Y-100861511D01*
X86164499Y-100833425D01*
X86164499Y-100778129D01*
X86164498Y-100778123D01*
X86164497Y-100778116D01*
X86158091Y-100718517D01*
X86122508Y-100623115D01*
X86107797Y-100583671D01*
X86107793Y-100583664D01*
X86021547Y-100468455D01*
X86021544Y-100468452D01*
X85906335Y-100382206D01*
X85906328Y-100382202D01*
X85771482Y-100331908D01*
X85771483Y-100331908D01*
X85711883Y-100325501D01*
X85711881Y-100325500D01*
X85711873Y-100325500D01*
X85711864Y-100325500D01*
X84108129Y-100325500D01*
X84108123Y-100325501D01*
X84048516Y-100331908D01*
X83913671Y-100382202D01*
X83913664Y-100382206D01*
X83798455Y-100468452D01*
X83798452Y-100468455D01*
X83712206Y-100583664D01*
X83712202Y-100583671D01*
X83661908Y-100718517D01*
X83655501Y-100778116D01*
X83655501Y-100778123D01*
X83655500Y-100778135D01*
X56110500Y-100778135D01*
X56110500Y-90855837D01*
X58419500Y-90855837D01*
X58419500Y-91084162D01*
X58455215Y-91309660D01*
X58525770Y-91526803D01*
X58629421Y-91730228D01*
X58763621Y-91914937D01*
X58925063Y-92076379D01*
X59109772Y-92210579D01*
X59205884Y-92259550D01*
X59313196Y-92314229D01*
X59313198Y-92314229D01*
X59313201Y-92314231D01*
X59429592Y-92352049D01*
X59530339Y-92384784D01*
X59755838Y-92420500D01*
X59755843Y-92420500D01*
X59984162Y-92420500D01*
X60209660Y-92384784D01*
X60426799Y-92314231D01*
X60630228Y-92210579D01*
X60814937Y-92076379D01*
X60976379Y-91914937D01*
X61110579Y-91730228D01*
X61214231Y-91526799D01*
X61268832Y-91358752D01*
X61299079Y-91309393D01*
X62496325Y-90112149D01*
X62557648Y-90078664D01*
X62584006Y-90075830D01*
X63995318Y-90075830D01*
X64062357Y-90095515D01*
X64108112Y-90148319D01*
X64118056Y-90217477D01*
X64105803Y-90256125D01*
X64025770Y-90413196D01*
X63955215Y-90630339D01*
X63919500Y-90855837D01*
X63919500Y-91084162D01*
X63955215Y-91309660D01*
X64025770Y-91526803D01*
X64129421Y-91730228D01*
X64263621Y-91914937D01*
X64425063Y-92076379D01*
X64609772Y-92210579D01*
X64813201Y-92314231D01*
X64981245Y-92368832D01*
X65030607Y-92399081D01*
X68346171Y-95714645D01*
X68346172Y-95714646D01*
X68485354Y-95853828D01*
X68644595Y-95969524D01*
X68775806Y-96036379D01*
X68819979Y-96058886D01*
X68904223Y-96086258D01*
X68946346Y-96099944D01*
X68946347Y-96099945D01*
X68946348Y-96099945D01*
X69007173Y-96119709D01*
X69080076Y-96131255D01*
X69201578Y-96150500D01*
X78621888Y-96150500D01*
X78688927Y-96170185D01*
X78734682Y-96222989D01*
X78744626Y-96292147D01*
X78715601Y-96355703D01*
X78694773Y-96374818D01*
X78554186Y-96476959D01*
X78554181Y-96476963D01*
X78428459Y-96602685D01*
X78323967Y-96746509D01*
X78243249Y-96904924D01*
X78188312Y-97074006D01*
X78160500Y-97249606D01*
X78160500Y-97427393D01*
X78188312Y-97602993D01*
X78243249Y-97772075D01*
X78323967Y-97930490D01*
X78428459Y-98074314D01*
X78554185Y-98200040D01*
X78659522Y-98276570D01*
X78698013Y-98304535D01*
X78843135Y-98378479D01*
X78856424Y-98385250D01*
X78940965Y-98412718D01*
X79025508Y-98440188D01*
X79201106Y-98468000D01*
X79201107Y-98468000D01*
X79378893Y-98468000D01*
X79378894Y-98468000D01*
X79554492Y-98440188D01*
X79723578Y-98385249D01*
X79881987Y-98304535D01*
X79989277Y-98226585D01*
X80025814Y-98200040D01*
X80025816Y-98200037D01*
X80025820Y-98200035D01*
X80151535Y-98074320D01*
X80151537Y-98074316D01*
X80151540Y-98074314D01*
X80220652Y-97979188D01*
X80256035Y-97930487D01*
X80336749Y-97772078D01*
X80391688Y-97602992D01*
X80419500Y-97427394D01*
X80419500Y-97249606D01*
X80391688Y-97074008D01*
X80364218Y-96989465D01*
X80336750Y-96904924D01*
X80336749Y-96904922D01*
X80256035Y-96746513D01*
X80218311Y-96694590D01*
X80151540Y-96602685D01*
X80025818Y-96476963D01*
X80025813Y-96476959D01*
X79885227Y-96374818D01*
X79842561Y-96319489D01*
X79836582Y-96249875D01*
X79869187Y-96188080D01*
X79930026Y-96153723D01*
X79958112Y-96150500D01*
X98521888Y-96150500D01*
X98588927Y-96170185D01*
X98634682Y-96222989D01*
X98644626Y-96292147D01*
X98615601Y-96355703D01*
X98594773Y-96374818D01*
X98454186Y-96476959D01*
X98454181Y-96476963D01*
X98328459Y-96602685D01*
X98223967Y-96746509D01*
X98143249Y-96904924D01*
X98088312Y-97074006D01*
X98060500Y-97249606D01*
X98060500Y-97427393D01*
X98088312Y-97602993D01*
X98143249Y-97772075D01*
X98223967Y-97930490D01*
X98328459Y-98074314D01*
X98454185Y-98200040D01*
X98559522Y-98276570D01*
X98598013Y-98304535D01*
X98743135Y-98378479D01*
X98756424Y-98385250D01*
X98840965Y-98412718D01*
X98925508Y-98440188D01*
X99101106Y-98468000D01*
X99101107Y-98468000D01*
X99278893Y-98468000D01*
X99278894Y-98468000D01*
X99454492Y-98440188D01*
X99623578Y-98385249D01*
X99781987Y-98304535D01*
X99889277Y-98226585D01*
X99925814Y-98200040D01*
X99925816Y-98200037D01*
X99925820Y-98200035D01*
X100051535Y-98074320D01*
X100051537Y-98074316D01*
X100051540Y-98074314D01*
X100120652Y-97979188D01*
X100156035Y-97930487D01*
X100236749Y-97772078D01*
X100291688Y-97602992D01*
X100319500Y-97427394D01*
X100319500Y-97249606D01*
X100291688Y-97074008D01*
X100264218Y-96989465D01*
X100236750Y-96904924D01*
X100236749Y-96904922D01*
X100156035Y-96746513D01*
X100118311Y-96694590D01*
X100051540Y-96602685D01*
X99925818Y-96476963D01*
X99925813Y-96476959D01*
X99785227Y-96374818D01*
X99742561Y-96319489D01*
X99736582Y-96249875D01*
X99769187Y-96188080D01*
X99830026Y-96153723D01*
X99858112Y-96150500D01*
X117171888Y-96150500D01*
X117238927Y-96170185D01*
X117284682Y-96222989D01*
X117294626Y-96292147D01*
X117265601Y-96355703D01*
X117244773Y-96374818D01*
X117104186Y-96476959D01*
X117104181Y-96476963D01*
X116978459Y-96602685D01*
X116873967Y-96746509D01*
X116793249Y-96904924D01*
X116738312Y-97074006D01*
X116710500Y-97249606D01*
X116710500Y-97427393D01*
X116738312Y-97602993D01*
X116793249Y-97772075D01*
X116873967Y-97930490D01*
X116978459Y-98074314D01*
X117104185Y-98200040D01*
X117209522Y-98276570D01*
X117248013Y-98304535D01*
X117393135Y-98378479D01*
X117406424Y-98385250D01*
X117490965Y-98412718D01*
X117575508Y-98440188D01*
X117751106Y-98468000D01*
X117751107Y-98468000D01*
X117928893Y-98468000D01*
X117928894Y-98468000D01*
X118104492Y-98440188D01*
X118273578Y-98385249D01*
X118431987Y-98304535D01*
X118539277Y-98226585D01*
X118575814Y-98200040D01*
X118575816Y-98200037D01*
X118575820Y-98200035D01*
X118701535Y-98074320D01*
X118701537Y-98074316D01*
X118701540Y-98074314D01*
X118770652Y-97979188D01*
X118806035Y-97930487D01*
X118886749Y-97772078D01*
X118941688Y-97602992D01*
X118969500Y-97427394D01*
X118969500Y-97249606D01*
X118941688Y-97074008D01*
X118914218Y-96989465D01*
X118886750Y-96904924D01*
X118886749Y-96904922D01*
X118806035Y-96746513D01*
X118768311Y-96694590D01*
X118701540Y-96602685D01*
X118575818Y-96476963D01*
X118575813Y-96476959D01*
X118435227Y-96374818D01*
X118392561Y-96319489D01*
X118386582Y-96249875D01*
X118419187Y-96188080D01*
X118480026Y-96153723D01*
X118508112Y-96150500D01*
X119888422Y-96150500D01*
X120082826Y-96119709D01*
X120143656Y-96099944D01*
X120270026Y-96058884D01*
X120445405Y-95969524D01*
X120604646Y-95853828D01*
X121381655Y-95076819D01*
X121442978Y-95043334D01*
X121469336Y-95040500D01*
X124458422Y-95040500D01*
X124652826Y-95009709D01*
X124840026Y-94948884D01*
X125015405Y-94859524D01*
X125174646Y-94743828D01*
X130665660Y-89252812D01*
X130697041Y-89230013D01*
X130731663Y-89212373D01*
X130897284Y-89092042D01*
X131042042Y-88947284D01*
X131162373Y-88781663D01*
X131255314Y-88599257D01*
X131318575Y-88404558D01*
X131347727Y-88220500D01*
X131350600Y-88202364D01*
X131350600Y-87997635D01*
X131330622Y-87871502D01*
X131318575Y-87795442D01*
X131276662Y-87666446D01*
X131255315Y-87600745D01*
X131255314Y-87600742D01*
X131163233Y-87420025D01*
X131162373Y-87418337D01*
X131042042Y-87252716D01*
X130897284Y-87107958D01*
X130731663Y-86987627D01*
X130697041Y-86969986D01*
X130549257Y-86894685D01*
X130549254Y-86894684D01*
X130354559Y-86831425D01*
X130152364Y-86799400D01*
X130152359Y-86799400D01*
X129947641Y-86799400D01*
X129947636Y-86799400D01*
X129745440Y-86831425D01*
X129550745Y-86894684D01*
X129550742Y-86894685D01*
X129368336Y-86987627D01*
X129298432Y-87038416D01*
X129202716Y-87107958D01*
X129202714Y-87107960D01*
X129202713Y-87107960D01*
X129057960Y-87252713D01*
X129057955Y-87252719D01*
X128937629Y-87418333D01*
X128937626Y-87418338D01*
X128919985Y-87452959D01*
X128897183Y-87484341D01*
X123878345Y-92503181D01*
X123817022Y-92536666D01*
X123790664Y-92539500D01*
X120801578Y-92539500D01*
X120607173Y-92570290D01*
X120419969Y-92631117D01*
X120244594Y-92720476D01*
X120153741Y-92786485D01*
X120085354Y-92836172D01*
X120085352Y-92836174D01*
X120085351Y-92836174D01*
X119308345Y-93613181D01*
X119247022Y-93646666D01*
X119220664Y-93649500D01*
X116469237Y-93649500D01*
X116402198Y-93629815D01*
X116356443Y-93577011D01*
X116346499Y-93507853D01*
X116375524Y-93444297D01*
X116396349Y-93425184D01*
X116398216Y-93423828D01*
X121103364Y-88718678D01*
X121164685Y-88685195D01*
X121234377Y-88690179D01*
X121290310Y-88732051D01*
X121301528Y-88750067D01*
X121317625Y-88781661D01*
X121353778Y-88831421D01*
X121437958Y-88947284D01*
X121582716Y-89092042D01*
X121748337Y-89212373D01*
X121837801Y-89257957D01*
X121930742Y-89305314D01*
X121930745Y-89305315D01*
X122023188Y-89335351D01*
X122125442Y-89368575D01*
X122219089Y-89383407D01*
X122327636Y-89400600D01*
X122327641Y-89400600D01*
X122532364Y-89400600D01*
X122630385Y-89385074D01*
X122734558Y-89368575D01*
X122929257Y-89305314D01*
X123111663Y-89212373D01*
X123277284Y-89092042D01*
X123422042Y-88947284D01*
X123542373Y-88781663D01*
X123635314Y-88599257D01*
X123698575Y-88404558D01*
X123727727Y-88220500D01*
X123730600Y-88202364D01*
X123730600Y-87997635D01*
X123710622Y-87871502D01*
X123698575Y-87795442D01*
X123656662Y-87666446D01*
X123635315Y-87600745D01*
X123635314Y-87600742D01*
X123543233Y-87420025D01*
X123542373Y-87418337D01*
X123422042Y-87252716D01*
X123277284Y-87107958D01*
X123181568Y-87038416D01*
X123111661Y-86987625D01*
X123080067Y-86971528D01*
X123029271Y-86923554D01*
X123012475Y-86855733D01*
X123035012Y-86789598D01*
X123048674Y-86773368D01*
X128055225Y-81766819D01*
X128116548Y-81733334D01*
X128142906Y-81730500D01*
X129670172Y-81730500D01*
X129708490Y-81736569D01*
X129723694Y-81741508D01*
X129745442Y-81748575D01*
X129839089Y-81763407D01*
X129947636Y-81780600D01*
X129947641Y-81780600D01*
X130152364Y-81780600D01*
X130250385Y-81765074D01*
X130354558Y-81748575D01*
X130549257Y-81685314D01*
X130731663Y-81592373D01*
X130897284Y-81472042D01*
X131042042Y-81327284D01*
X131162373Y-81161663D01*
X131255314Y-80979257D01*
X131318575Y-80784558D01*
X131335074Y-80680385D01*
X131350600Y-80582364D01*
X131350600Y-80377635D01*
X131331969Y-80260008D01*
X131318575Y-80175442D01*
X131286944Y-80078092D01*
X131255315Y-79980745D01*
X131255314Y-79980742D01*
X131162372Y-79798336D01*
X131156736Y-79790579D01*
X131042042Y-79632716D01*
X130897284Y-79487958D01*
X130731663Y-79367627D01*
X130697041Y-79349986D01*
X130549257Y-79274685D01*
X130549254Y-79274684D01*
X130354559Y-79211425D01*
X130152364Y-79179400D01*
X130152359Y-79179400D01*
X129947641Y-79179400D01*
X129947636Y-79179400D01*
X129745440Y-79211425D01*
X129708490Y-79223431D01*
X129670172Y-79229500D01*
X127475148Y-79229500D01*
X127280743Y-79260290D01*
X127093539Y-79321117D01*
X126918164Y-79410476D01*
X126827312Y-79476484D01*
X126758925Y-79526171D01*
X126758923Y-79526173D01*
X126758922Y-79526173D01*
X115101915Y-91183181D01*
X115040592Y-91216666D01*
X115014234Y-91219500D01*
X114278336Y-91219500D01*
X114211297Y-91199815D01*
X114165542Y-91147011D01*
X114155598Y-91077853D01*
X114184623Y-91014297D01*
X114190655Y-91007819D01*
X115813397Y-89385077D01*
X117443829Y-87754645D01*
X117559524Y-87595405D01*
X117648884Y-87420025D01*
X117709709Y-87232826D01*
X117740500Y-87038421D01*
X117740500Y-85191577D01*
X117709709Y-84997173D01*
X117648882Y-84809970D01*
X117601743Y-84717455D01*
X117559524Y-84634595D01*
X117443828Y-84475354D01*
X117304646Y-84336172D01*
X117145405Y-84220476D01*
X116970029Y-84131117D01*
X116782826Y-84070290D01*
X116588422Y-84039500D01*
X116588417Y-84039500D01*
X116391583Y-84039500D01*
X116391578Y-84039500D01*
X116197173Y-84070290D01*
X116009970Y-84131117D01*
X115834594Y-84220476D01*
X115743741Y-84286485D01*
X115675354Y-84336172D01*
X115675352Y-84336174D01*
X115675351Y-84336174D01*
X115536174Y-84475351D01*
X115536174Y-84475352D01*
X115536172Y-84475354D01*
X115486485Y-84543741D01*
X115420476Y-84634594D01*
X115331117Y-84809970D01*
X115270290Y-84997173D01*
X115239500Y-85191577D01*
X115239500Y-86370664D01*
X115219815Y-86437703D01*
X115203181Y-86458345D01*
X112326174Y-89335351D01*
X112326174Y-89335352D01*
X112326172Y-89335354D01*
X112299349Y-89372273D01*
X112210476Y-89494594D01*
X112121117Y-89669969D01*
X112060290Y-89857173D01*
X112029500Y-90051577D01*
X112029500Y-90248422D01*
X112060290Y-90442826D01*
X112121117Y-90630030D01*
X112207735Y-90800026D01*
X112210476Y-90805405D01*
X112326172Y-90964646D01*
X112326174Y-90964648D01*
X112369345Y-91007819D01*
X112402830Y-91069142D01*
X112397846Y-91138834D01*
X112355974Y-91194767D01*
X112290510Y-91219184D01*
X112281664Y-91219500D01*
X80535542Y-91219500D01*
X80468503Y-91199815D01*
X80422748Y-91147011D01*
X80412804Y-91077853D01*
X80435224Y-91022614D01*
X80441267Y-91014297D01*
X80469524Y-90975405D01*
X80558884Y-90800026D01*
X80619709Y-90612826D01*
X80631971Y-90535405D01*
X80650500Y-90418422D01*
X80650500Y-90221577D01*
X80619709Y-90027173D01*
X80591487Y-89940318D01*
X80558884Y-89839974D01*
X80558882Y-89839971D01*
X80558882Y-89839969D01*
X80502554Y-89729421D01*
X80469524Y-89664595D01*
X80399074Y-89567629D01*
X80375595Y-89501826D01*
X80391420Y-89433772D01*
X80441525Y-89385077D01*
X80510003Y-89371201D01*
X80518788Y-89372272D01*
X80538492Y-89375393D01*
X80697636Y-89400600D01*
X80697641Y-89400600D01*
X80902364Y-89400600D01*
X81000385Y-89385074D01*
X81104558Y-89368575D01*
X81299257Y-89305314D01*
X81481663Y-89212373D01*
X81647284Y-89092042D01*
X81792042Y-88947284D01*
X81912373Y-88781663D01*
X82005314Y-88599257D01*
X82068575Y-88404558D01*
X82097727Y-88220500D01*
X82100600Y-88202364D01*
X82100600Y-87997635D01*
X82080622Y-87871502D01*
X82068575Y-87795442D01*
X82026662Y-87666446D01*
X82005315Y-87600745D01*
X82005314Y-87600742D01*
X81913233Y-87420025D01*
X81912373Y-87418337D01*
X81792042Y-87252716D01*
X81647284Y-87107958D01*
X81481663Y-86987627D01*
X81447041Y-86969986D01*
X81299257Y-86894685D01*
X81299254Y-86894684D01*
X81104559Y-86831425D01*
X80902364Y-86799400D01*
X80902359Y-86799400D01*
X80697641Y-86799400D01*
X80697636Y-86799400D01*
X80495440Y-86831425D01*
X80372818Y-86871267D01*
X80302976Y-86873262D01*
X80243144Y-86837181D01*
X80212316Y-86774480D01*
X80210500Y-86753336D01*
X80210500Y-86031577D01*
X80179709Y-85837173D01*
X80118882Y-85649970D01*
X80041664Y-85498422D01*
X80029524Y-85474595D01*
X79913828Y-85315354D01*
X79774646Y-85176172D01*
X79615405Y-85060476D01*
X79440029Y-84971117D01*
X79252826Y-84910290D01*
X79058422Y-84879500D01*
X79058417Y-84879500D01*
X78861583Y-84879500D01*
X78861578Y-84879500D01*
X78667173Y-84910290D01*
X78479970Y-84971117D01*
X78304594Y-85060476D01*
X78240322Y-85107173D01*
X78145354Y-85176172D01*
X78145352Y-85176174D01*
X78145351Y-85176174D01*
X78006174Y-85315351D01*
X78006174Y-85315352D01*
X78006172Y-85315354D01*
X77956485Y-85383741D01*
X77890476Y-85474594D01*
X77801117Y-85649970D01*
X77740290Y-85837173D01*
X77709500Y-86031577D01*
X77709500Y-89978422D01*
X77721802Y-90056095D01*
X77712847Y-90125389D01*
X77667851Y-90178841D01*
X77601099Y-90199480D01*
X77533786Y-90180755D01*
X77511648Y-90163174D01*
X75219978Y-87871504D01*
X75219976Y-87871502D01*
X75060735Y-87755806D01*
X75058456Y-87754645D01*
X74885360Y-87666447D01*
X74698156Y-87605620D01*
X74503752Y-87574830D01*
X74503747Y-87574830D01*
X66790203Y-87574830D01*
X66723164Y-87555145D01*
X66677409Y-87502341D01*
X66667465Y-87433183D01*
X66679718Y-87394535D01*
X66714229Y-87326803D01*
X66714229Y-87326802D01*
X66714231Y-87326799D01*
X66784784Y-87109660D01*
X66804112Y-86987627D01*
X66820500Y-86884162D01*
X66820500Y-86655837D01*
X66784784Y-86430339D01*
X66714701Y-86214648D01*
X66714231Y-86213201D01*
X66714229Y-86213198D01*
X66714229Y-86213196D01*
X66610578Y-86009771D01*
X66485177Y-85837173D01*
X66476379Y-85825063D01*
X66314937Y-85663621D01*
X66130228Y-85529421D01*
X66069389Y-85498422D01*
X65926803Y-85425770D01*
X65709660Y-85355215D01*
X65484162Y-85319500D01*
X65484157Y-85319500D01*
X65255843Y-85319500D01*
X65255838Y-85319500D01*
X65030339Y-85355215D01*
X64813196Y-85425770D01*
X64609771Y-85529421D01*
X64425061Y-85663622D01*
X64263622Y-85825061D01*
X64129421Y-86009771D01*
X64025770Y-86213196D01*
X63955215Y-86430339D01*
X63919500Y-86655837D01*
X63919500Y-86884162D01*
X63955215Y-87109660D01*
X64025770Y-87326803D01*
X64060282Y-87394535D01*
X64073178Y-87463204D01*
X64046902Y-87527945D01*
X63989795Y-87568202D01*
X63949797Y-87574830D01*
X61916248Y-87574830D01*
X61721846Y-87605620D01*
X61721841Y-87605621D01*
X61677669Y-87619973D01*
X61677670Y-87619974D01*
X61534640Y-87666447D01*
X61359264Y-87755806D01*
X61304711Y-87795442D01*
X61200024Y-87871502D01*
X61200022Y-87871504D01*
X61200021Y-87871504D01*
X59530607Y-89540917D01*
X59481245Y-89571167D01*
X59313196Y-89625770D01*
X59109771Y-89729421D01*
X58925061Y-89863622D01*
X58763622Y-90025061D01*
X58629421Y-90209771D01*
X58525770Y-90413196D01*
X58455215Y-90630339D01*
X58419500Y-90855837D01*
X56110500Y-90855837D01*
X56110500Y-86655837D01*
X58419500Y-86655837D01*
X58419500Y-86884162D01*
X58455215Y-87109660D01*
X58525770Y-87326803D01*
X58606040Y-87484341D01*
X58629421Y-87530228D01*
X58763621Y-87714937D01*
X58925063Y-87876379D01*
X59109772Y-88010579D01*
X59205884Y-88059550D01*
X59313196Y-88114229D01*
X59313198Y-88114229D01*
X59313201Y-88114231D01*
X59429592Y-88152049D01*
X59530339Y-88184784D01*
X59755838Y-88220500D01*
X59755843Y-88220500D01*
X59984162Y-88220500D01*
X60209660Y-88184784D01*
X60426799Y-88114231D01*
X60630228Y-88010579D01*
X60814937Y-87876379D01*
X60976379Y-87714937D01*
X61110579Y-87530228D01*
X61214231Y-87326799D01*
X61284784Y-87109660D01*
X61304112Y-86987627D01*
X61320500Y-86884162D01*
X61320500Y-86655837D01*
X61284784Y-86430339D01*
X61214701Y-86214648D01*
X61214231Y-86213201D01*
X61214229Y-86213198D01*
X61214229Y-86213196D01*
X61110578Y-86009771D01*
X60985177Y-85837173D01*
X60976379Y-85825063D01*
X60814937Y-85663621D01*
X60630228Y-85529421D01*
X60569389Y-85498422D01*
X60426803Y-85425770D01*
X60209660Y-85355215D01*
X59984162Y-85319500D01*
X59984157Y-85319500D01*
X59755843Y-85319500D01*
X59755838Y-85319500D01*
X59530339Y-85355215D01*
X59313196Y-85425770D01*
X59109771Y-85529421D01*
X58925061Y-85663622D01*
X58763622Y-85825061D01*
X58629421Y-86009771D01*
X58525770Y-86213196D01*
X58455215Y-86430339D01*
X58419500Y-86655837D01*
X56110500Y-86655837D01*
X56110500Y-82871577D01*
X56079709Y-82677173D01*
X56060431Y-82617844D01*
X56018884Y-82489975D01*
X56001490Y-82455837D01*
X58419500Y-82455837D01*
X58419500Y-82684162D01*
X58455215Y-82909660D01*
X58525770Y-83126803D01*
X58629421Y-83330228D01*
X58763621Y-83514937D01*
X58925063Y-83676379D01*
X59109772Y-83810579D01*
X59200523Y-83856819D01*
X59313196Y-83914229D01*
X59313198Y-83914229D01*
X59313201Y-83914231D01*
X59429592Y-83952049D01*
X59530339Y-83984784D01*
X59755838Y-84020500D01*
X59755843Y-84020500D01*
X59984162Y-84020500D01*
X60209660Y-83984784D01*
X60426799Y-83914231D01*
X60630228Y-83810579D01*
X60814937Y-83676379D01*
X60976379Y-83514937D01*
X61110579Y-83330228D01*
X61214231Y-83126799D01*
X61284784Y-82909660D01*
X61305474Y-82779030D01*
X61320500Y-82684162D01*
X61320500Y-82455837D01*
X61284784Y-82230339D01*
X61238213Y-82087011D01*
X61214231Y-82013201D01*
X61214229Y-82013198D01*
X61214229Y-82013196D01*
X61111264Y-81811117D01*
X61110579Y-81809772D01*
X60976379Y-81625063D01*
X60923451Y-81572135D01*
X63919500Y-81572135D01*
X63919500Y-83567870D01*
X63919501Y-83567876D01*
X63925908Y-83627483D01*
X63976202Y-83762328D01*
X63976206Y-83762335D01*
X64062452Y-83877544D01*
X64062455Y-83877547D01*
X64177664Y-83963793D01*
X64177671Y-83963797D01*
X64312517Y-84014091D01*
X64312516Y-84014091D01*
X64319444Y-84014835D01*
X64372127Y-84020500D01*
X66367872Y-84020499D01*
X66427483Y-84014091D01*
X66562331Y-83963796D01*
X66677546Y-83877546D01*
X66683052Y-83870191D01*
X66738985Y-83828319D01*
X66782320Y-83820500D01*
X82320664Y-83820500D01*
X82387703Y-83840185D01*
X82408345Y-83856819D01*
X87267183Y-88715657D01*
X87289986Y-88747042D01*
X87291527Y-88750067D01*
X87307627Y-88781663D01*
X87427958Y-88947284D01*
X87572716Y-89092042D01*
X87738337Y-89212373D01*
X87827801Y-89257957D01*
X87920742Y-89305314D01*
X87920745Y-89305315D01*
X88013188Y-89335351D01*
X88115442Y-89368575D01*
X88209089Y-89383407D01*
X88317636Y-89400600D01*
X88317641Y-89400600D01*
X88522364Y-89400600D01*
X88620385Y-89385074D01*
X88724558Y-89368575D01*
X88919257Y-89305314D01*
X89101663Y-89212373D01*
X89267284Y-89092042D01*
X89412042Y-88947284D01*
X89532373Y-88781663D01*
X89550013Y-88747041D01*
X89572812Y-88715660D01*
X90290837Y-87997635D01*
X100639400Y-87997635D01*
X100639400Y-88202364D01*
X100671425Y-88404559D01*
X100734684Y-88599254D01*
X100734685Y-88599257D01*
X100811528Y-88750067D01*
X100827627Y-88781663D01*
X100947958Y-88947284D01*
X101092716Y-89092042D01*
X101258337Y-89212373D01*
X101347801Y-89257957D01*
X101440742Y-89305314D01*
X101440745Y-89305315D01*
X101533188Y-89335351D01*
X101635442Y-89368575D01*
X101729089Y-89383407D01*
X101837636Y-89400600D01*
X101837641Y-89400600D01*
X102042364Y-89400600D01*
X102140385Y-89385074D01*
X102244558Y-89368575D01*
X102439257Y-89305314D01*
X102621663Y-89212373D01*
X102787284Y-89092042D01*
X102932042Y-88947284D01*
X103052373Y-88781663D01*
X103145314Y-88599257D01*
X103208575Y-88404558D01*
X103237727Y-88220500D01*
X103240600Y-88202364D01*
X103240600Y-87997635D01*
X103220622Y-87871502D01*
X103208575Y-87795442D01*
X103166662Y-87666446D01*
X103145315Y-87600745D01*
X103145314Y-87600742D01*
X103053233Y-87420025D01*
X103052373Y-87418337D01*
X102932042Y-87252716D01*
X102787284Y-87107958D01*
X102621663Y-86987627D01*
X102587041Y-86969986D01*
X102439257Y-86894685D01*
X102439254Y-86894684D01*
X102244559Y-86831425D01*
X102042364Y-86799400D01*
X102042359Y-86799400D01*
X101837641Y-86799400D01*
X101837636Y-86799400D01*
X101635440Y-86831425D01*
X101440745Y-86894684D01*
X101440742Y-86894685D01*
X101258336Y-86987627D01*
X101188432Y-87038416D01*
X101092716Y-87107958D01*
X101092714Y-87107960D01*
X101092713Y-87107960D01*
X100947960Y-87252713D01*
X100947960Y-87252714D01*
X100947958Y-87252716D01*
X100947956Y-87252719D01*
X100827627Y-87418336D01*
X100734685Y-87600742D01*
X100734684Y-87600745D01*
X100671425Y-87795440D01*
X100639400Y-87997635D01*
X90290837Y-87997635D01*
X94719719Y-83568754D01*
X94781040Y-83535271D01*
X94850732Y-83540255D01*
X94906665Y-83582127D01*
X94929871Y-83637039D01*
X94940290Y-83702826D01*
X95001117Y-83890029D01*
X95064330Y-84014091D01*
X95090476Y-84065405D01*
X95206172Y-84224646D01*
X95345354Y-84363828D01*
X95504595Y-84479524D01*
X95587455Y-84521743D01*
X95679970Y-84568882D01*
X95679972Y-84568882D01*
X95679975Y-84568884D01*
X95780317Y-84601487D01*
X95867173Y-84629709D01*
X96061578Y-84660500D01*
X96061583Y-84660500D01*
X104300664Y-84660500D01*
X104367703Y-84680185D01*
X104388345Y-84696819D01*
X108407183Y-88715657D01*
X108429986Y-88747042D01*
X108431527Y-88750067D01*
X108447627Y-88781663D01*
X108567958Y-88947284D01*
X108712716Y-89092042D01*
X108878337Y-89212373D01*
X108967801Y-89257957D01*
X109060742Y-89305314D01*
X109060745Y-89305315D01*
X109153188Y-89335351D01*
X109255442Y-89368575D01*
X109349089Y-89383407D01*
X109457636Y-89400600D01*
X109457641Y-89400600D01*
X109662364Y-89400600D01*
X109760385Y-89385074D01*
X109864558Y-89368575D01*
X110059257Y-89305314D01*
X110241663Y-89212373D01*
X110407284Y-89092042D01*
X110552042Y-88947284D01*
X110672373Y-88781663D01*
X110765314Y-88599257D01*
X110828575Y-88404558D01*
X110857727Y-88220500D01*
X110860600Y-88202364D01*
X110860600Y-87997635D01*
X110840622Y-87871502D01*
X110828575Y-87795442D01*
X110786662Y-87666446D01*
X110765315Y-87600745D01*
X110765314Y-87600742D01*
X110673233Y-87420025D01*
X110672373Y-87418337D01*
X110552042Y-87252716D01*
X110407284Y-87107958D01*
X110241663Y-86987627D01*
X110241662Y-86987626D01*
X110241660Y-86987625D01*
X110207042Y-86969986D01*
X110175657Y-86947183D01*
X105684648Y-82456174D01*
X105684646Y-82456172D01*
X105525405Y-82340476D01*
X105474609Y-82314594D01*
X105350030Y-82251117D01*
X105162826Y-82190290D01*
X104968422Y-82159500D01*
X104968417Y-82159500D01*
X96428336Y-82159500D01*
X96361297Y-82139815D01*
X96315542Y-82087011D01*
X96305598Y-82017853D01*
X96334623Y-81954297D01*
X96340655Y-81947819D01*
X97910839Y-80377635D01*
X100639400Y-80377635D01*
X100639400Y-80582364D01*
X100671425Y-80784559D01*
X100734684Y-80979254D01*
X100734685Y-80979257D01*
X100816184Y-81139205D01*
X100827627Y-81161663D01*
X100947958Y-81327284D01*
X101092716Y-81472042D01*
X101258337Y-81592373D01*
X101347801Y-81637957D01*
X101440742Y-81685314D01*
X101440745Y-81685315D01*
X101538092Y-81716944D01*
X101635442Y-81748575D01*
X101729089Y-81763407D01*
X101837636Y-81780600D01*
X101837641Y-81780600D01*
X102042364Y-81780600D01*
X102140385Y-81765074D01*
X102244558Y-81748575D01*
X102439257Y-81685314D01*
X102621663Y-81592373D01*
X102787284Y-81472042D01*
X102932042Y-81327284D01*
X103052373Y-81161663D01*
X103145314Y-80979257D01*
X103208575Y-80784558D01*
X103225074Y-80680385D01*
X103240600Y-80582364D01*
X103240600Y-80377635D01*
X108259400Y-80377635D01*
X108259400Y-80582364D01*
X108291425Y-80784559D01*
X108354684Y-80979254D01*
X108354685Y-80979257D01*
X108436184Y-81139205D01*
X108447627Y-81161663D01*
X108567958Y-81327284D01*
X108712716Y-81472042D01*
X108878337Y-81592373D01*
X108967801Y-81637957D01*
X109060742Y-81685314D01*
X109060745Y-81685315D01*
X109158092Y-81716944D01*
X109255442Y-81748575D01*
X109349089Y-81763407D01*
X109457636Y-81780600D01*
X109457641Y-81780600D01*
X109662364Y-81780600D01*
X109760385Y-81765074D01*
X109864558Y-81748575D01*
X110059257Y-81685314D01*
X110241663Y-81592373D01*
X110407284Y-81472042D01*
X110552042Y-81327284D01*
X110672373Y-81161663D01*
X110765314Y-80979257D01*
X110828575Y-80784558D01*
X110845074Y-80680385D01*
X110860600Y-80582364D01*
X110860600Y-80377635D01*
X121129400Y-80377635D01*
X121129400Y-80582364D01*
X121161425Y-80784559D01*
X121224684Y-80979254D01*
X121224685Y-80979257D01*
X121306184Y-81139205D01*
X121317627Y-81161663D01*
X121437958Y-81327284D01*
X121582716Y-81472042D01*
X121748337Y-81592373D01*
X121837801Y-81637957D01*
X121930742Y-81685314D01*
X121930745Y-81685315D01*
X122028092Y-81716944D01*
X122125442Y-81748575D01*
X122219089Y-81763407D01*
X122327636Y-81780600D01*
X122327641Y-81780600D01*
X122532364Y-81780600D01*
X122630385Y-81765074D01*
X122734558Y-81748575D01*
X122929257Y-81685314D01*
X123111663Y-81592373D01*
X123277284Y-81472042D01*
X123422042Y-81327284D01*
X123542373Y-81161663D01*
X123635314Y-80979257D01*
X123698575Y-80784558D01*
X123715074Y-80680385D01*
X123730600Y-80582364D01*
X123730600Y-80377635D01*
X123711969Y-80260008D01*
X123698575Y-80175442D01*
X123666944Y-80078092D01*
X123635315Y-79980745D01*
X123635314Y-79980742D01*
X123542372Y-79798336D01*
X123536736Y-79790579D01*
X123422042Y-79632716D01*
X123277284Y-79487958D01*
X123111663Y-79367627D01*
X123077041Y-79349986D01*
X122929257Y-79274685D01*
X122929254Y-79274684D01*
X122734559Y-79211425D01*
X122532364Y-79179400D01*
X122532359Y-79179400D01*
X122327641Y-79179400D01*
X122327636Y-79179400D01*
X122125440Y-79211425D01*
X121930745Y-79274684D01*
X121930742Y-79274685D01*
X121748336Y-79367627D01*
X121653843Y-79436280D01*
X121582716Y-79487958D01*
X121582714Y-79487960D01*
X121582713Y-79487960D01*
X121437960Y-79632713D01*
X121437960Y-79632714D01*
X121437958Y-79632716D01*
X121420766Y-79656379D01*
X121317627Y-79798336D01*
X121224685Y-79980742D01*
X121224684Y-79980745D01*
X121161425Y-80175440D01*
X121129400Y-80377635D01*
X110860600Y-80377635D01*
X110841969Y-80260008D01*
X110828575Y-80175442D01*
X110796944Y-80078092D01*
X110765315Y-79980745D01*
X110765314Y-79980742D01*
X110672372Y-79798336D01*
X110666736Y-79790579D01*
X110552042Y-79632716D01*
X110407284Y-79487958D01*
X110241663Y-79367627D01*
X110207041Y-79349986D01*
X110059257Y-79274685D01*
X110059254Y-79274684D01*
X109864559Y-79211425D01*
X109662364Y-79179400D01*
X109662359Y-79179400D01*
X109457641Y-79179400D01*
X109457636Y-79179400D01*
X109255440Y-79211425D01*
X109060745Y-79274684D01*
X109060742Y-79274685D01*
X108878336Y-79367627D01*
X108783843Y-79436280D01*
X108712716Y-79487958D01*
X108712714Y-79487960D01*
X108712713Y-79487960D01*
X108567960Y-79632713D01*
X108567960Y-79632714D01*
X108567958Y-79632716D01*
X108550766Y-79656379D01*
X108447627Y-79798336D01*
X108354685Y-79980742D01*
X108354684Y-79980745D01*
X108291425Y-80175440D01*
X108259400Y-80377635D01*
X103240600Y-80377635D01*
X103221969Y-80260008D01*
X103208575Y-80175442D01*
X103176944Y-80078092D01*
X103145315Y-79980745D01*
X103145314Y-79980742D01*
X103052372Y-79798336D01*
X103046736Y-79790579D01*
X102932042Y-79632716D01*
X102787284Y-79487958D01*
X102621663Y-79367627D01*
X102587041Y-79349986D01*
X102439257Y-79274685D01*
X102439254Y-79274684D01*
X102244559Y-79211425D01*
X102042364Y-79179400D01*
X102042359Y-79179400D01*
X101837641Y-79179400D01*
X101837636Y-79179400D01*
X101635440Y-79211425D01*
X101440745Y-79274684D01*
X101440742Y-79274685D01*
X101258336Y-79367627D01*
X101163843Y-79436280D01*
X101092716Y-79487958D01*
X101092714Y-79487960D01*
X101092713Y-79487960D01*
X100947960Y-79632713D01*
X100947960Y-79632714D01*
X100947958Y-79632716D01*
X100930766Y-79656379D01*
X100827627Y-79798336D01*
X100734685Y-79980742D01*
X100734684Y-79980745D01*
X100671425Y-80175440D01*
X100639400Y-80377635D01*
X97910839Y-80377635D01*
X101081655Y-77206819D01*
X101142978Y-77173334D01*
X101169336Y-77170500D01*
X138859349Y-77170500D01*
X138926388Y-77190185D01*
X138972143Y-77242989D01*
X138982087Y-77312147D01*
X138953062Y-77375703D01*
X138932238Y-77394814D01*
X138865063Y-77443621D01*
X138865061Y-77443623D01*
X138865060Y-77443623D01*
X138703622Y-77605061D01*
X138569421Y-77789771D01*
X138465770Y-77993196D01*
X138395215Y-78210339D01*
X138359500Y-78435837D01*
X138359500Y-78664162D01*
X138395215Y-78889660D01*
X138465770Y-79106803D01*
X138528288Y-79229500D01*
X138569421Y-79310228D01*
X138703621Y-79494937D01*
X138865063Y-79656379D01*
X139049772Y-79790579D01*
X139145884Y-79839550D01*
X139253196Y-79894229D01*
X139253198Y-79894229D01*
X139253201Y-79894231D01*
X139369592Y-79932049D01*
X139470339Y-79964784D01*
X139695838Y-80000500D01*
X139695843Y-80000500D01*
X139924162Y-80000500D01*
X140149660Y-79964784D01*
X140366799Y-79894231D01*
X140570228Y-79790579D01*
X140754937Y-79656379D01*
X140916379Y-79494937D01*
X141050579Y-79310228D01*
X141154231Y-79106799D01*
X141224784Y-78889660D01*
X141237322Y-78810500D01*
X141260500Y-78664162D01*
X141260500Y-78435837D01*
X141224784Y-78210339D01*
X141154229Y-77993196D01*
X141099550Y-77885884D01*
X141050579Y-77789772D01*
X140916379Y-77605063D01*
X140754937Y-77443621D01*
X140687763Y-77394816D01*
X140645100Y-77339488D01*
X140639121Y-77269874D01*
X140671727Y-77208079D01*
X140732566Y-77173722D01*
X140760651Y-77170500D01*
X140810664Y-77170500D01*
X140877703Y-77190185D01*
X140898345Y-77206819D01*
X142580916Y-78889390D01*
X142611166Y-78938752D01*
X142665770Y-79106803D01*
X142728288Y-79229500D01*
X142769421Y-79310228D01*
X142903621Y-79494937D01*
X143065063Y-79656379D01*
X143249772Y-79790579D01*
X143345884Y-79839550D01*
X143453196Y-79894229D01*
X143453198Y-79894229D01*
X143453201Y-79894231D01*
X143569592Y-79932049D01*
X143670339Y-79964784D01*
X143895838Y-80000500D01*
X143895843Y-80000500D01*
X144124162Y-80000500D01*
X144349660Y-79964784D01*
X144566799Y-79894231D01*
X144770228Y-79790579D01*
X144954937Y-79656379D01*
X145116379Y-79494937D01*
X145250579Y-79310228D01*
X145354231Y-79106799D01*
X145424784Y-78889660D01*
X145437322Y-78810500D01*
X145460500Y-78664162D01*
X145460500Y-78435837D01*
X145424784Y-78210339D01*
X145354229Y-77993196D01*
X145299550Y-77885884D01*
X145250579Y-77789772D01*
X145116379Y-77605063D01*
X144954937Y-77443621D01*
X144770228Y-77309421D01*
X144566803Y-77205770D01*
X144398752Y-77151166D01*
X144349390Y-77120916D01*
X142194648Y-74966174D01*
X142194646Y-74966172D01*
X142035405Y-74850476D01*
X141860030Y-74761117D01*
X141672826Y-74700290D01*
X141478422Y-74669500D01*
X141478417Y-74669500D01*
X141072553Y-74669500D01*
X141005514Y-74649815D01*
X140959759Y-74597011D01*
X140949815Y-74527853D01*
X140978840Y-74464297D01*
X140998241Y-74446234D01*
X141117190Y-74357187D01*
X141203350Y-74242093D01*
X141203354Y-74242086D01*
X141253596Y-74107379D01*
X141253598Y-74107372D01*
X141259999Y-74047844D01*
X141260000Y-74047827D01*
X141260000Y-73300000D01*
X140464121Y-73300000D01*
X140483099Y-73254182D01*
X140510000Y-73118944D01*
X140510000Y-72981056D01*
X140501005Y-72935837D01*
X142559500Y-72935837D01*
X142559500Y-73164162D01*
X142595215Y-73389660D01*
X142665770Y-73606803D01*
X142738733Y-73750000D01*
X142769421Y-73810228D01*
X142903621Y-73994937D01*
X143065063Y-74156379D01*
X143249772Y-74290579D01*
X143345884Y-74339550D01*
X143453196Y-74394229D01*
X143453198Y-74394229D01*
X143453201Y-74394231D01*
X143569592Y-74432049D01*
X143670339Y-74464784D01*
X143895838Y-74500500D01*
X143895843Y-74500500D01*
X144124162Y-74500500D01*
X144349660Y-74464784D01*
X144356166Y-74462670D01*
X144566799Y-74394231D01*
X144770228Y-74290579D01*
X144954937Y-74156379D01*
X145116379Y-73994937D01*
X145250579Y-73810228D01*
X145354231Y-73606799D01*
X145424784Y-73389660D01*
X145447818Y-73244229D01*
X145460500Y-73164162D01*
X145460500Y-72935837D01*
X145424784Y-72710339D01*
X145390159Y-72603776D01*
X145354231Y-72493201D01*
X145354229Y-72493198D01*
X145354229Y-72493196D01*
X145294973Y-72376901D01*
X145250579Y-72289772D01*
X145116379Y-72105063D01*
X144954937Y-71943621D01*
X144770228Y-71809421D01*
X144566803Y-71705770D01*
X144349660Y-71635215D01*
X144124162Y-71599500D01*
X144124157Y-71599500D01*
X143895843Y-71599500D01*
X143895838Y-71599500D01*
X143670339Y-71635215D01*
X143453196Y-71705770D01*
X143249771Y-71809421D01*
X143065061Y-71943622D01*
X142903622Y-72105061D01*
X142769421Y-72289771D01*
X142665770Y-72493196D01*
X142595215Y-72710339D01*
X142559500Y-72935837D01*
X140501005Y-72935837D01*
X140483099Y-72845818D01*
X140464121Y-72800000D01*
X141260000Y-72800000D01*
X141260000Y-72052172D01*
X141259999Y-72052155D01*
X141253598Y-71992627D01*
X141253596Y-71992620D01*
X141203354Y-71857913D01*
X141203350Y-71857906D01*
X141117190Y-71742812D01*
X141117187Y-71742809D01*
X141002093Y-71656649D01*
X141002086Y-71656645D01*
X140867379Y-71606403D01*
X140867372Y-71606401D01*
X140807844Y-71600000D01*
X140060000Y-71600000D01*
X140060000Y-72395879D01*
X140014182Y-72376901D01*
X139878944Y-72350000D01*
X139741056Y-72350000D01*
X139605818Y-72376901D01*
X139560000Y-72395879D01*
X139560000Y-71600000D01*
X138812155Y-71600000D01*
X138752627Y-71606401D01*
X138752620Y-71606403D01*
X138617913Y-71656645D01*
X138617906Y-71656649D01*
X138502812Y-71742809D01*
X138502809Y-71742812D01*
X138416649Y-71857906D01*
X138416645Y-71857913D01*
X138366403Y-71992620D01*
X138366401Y-71992627D01*
X138360000Y-72052155D01*
X138360000Y-72800000D01*
X139155879Y-72800000D01*
X139136901Y-72845818D01*
X139110000Y-72981056D01*
X139110000Y-73118944D01*
X139136901Y-73254182D01*
X139155879Y-73300000D01*
X138360000Y-73300000D01*
X138360000Y-74047844D01*
X138366401Y-74107372D01*
X138366403Y-74107379D01*
X138416645Y-74242086D01*
X138416649Y-74242093D01*
X138502809Y-74357187D01*
X138621759Y-74446234D01*
X138663629Y-74502168D01*
X138668613Y-74571859D01*
X138635127Y-74633182D01*
X138573804Y-74666666D01*
X138547447Y-74669500D01*
X100501578Y-74669500D01*
X100307173Y-74700290D01*
X100119969Y-74761117D01*
X99944594Y-74850476D01*
X99856350Y-74914590D01*
X99785354Y-74966172D01*
X99785352Y-74966174D01*
X99785351Y-74966174D01*
X88507681Y-86243845D01*
X88446358Y-86277330D01*
X88376666Y-86272346D01*
X88332319Y-86243845D01*
X83704648Y-81616174D01*
X83704646Y-81616172D01*
X83545405Y-81500476D01*
X83370030Y-81411117D01*
X83182826Y-81350290D01*
X82988422Y-81319500D01*
X82988417Y-81319500D01*
X82034301Y-81319500D01*
X81967262Y-81299815D01*
X81921507Y-81247011D01*
X81911563Y-81177853D01*
X81923816Y-81139205D01*
X82005314Y-80979257D01*
X82005315Y-80979254D01*
X82007595Y-80972234D01*
X82068575Y-80784558D01*
X82085074Y-80680385D01*
X82100600Y-80582364D01*
X82100600Y-80377635D01*
X82081969Y-80260008D01*
X82068575Y-80175442D01*
X82036944Y-80078092D01*
X82005315Y-79980745D01*
X82005314Y-79980742D01*
X81912372Y-79798336D01*
X81906736Y-79790579D01*
X81792042Y-79632716D01*
X81647284Y-79487958D01*
X81481663Y-79367627D01*
X81447041Y-79349986D01*
X81299257Y-79274685D01*
X81299254Y-79274684D01*
X81104559Y-79211425D01*
X80902364Y-79179400D01*
X80902359Y-79179400D01*
X80697641Y-79179400D01*
X80697636Y-79179400D01*
X80495440Y-79211425D01*
X80300745Y-79274684D01*
X80300742Y-79274685D01*
X80118336Y-79367627D01*
X80023843Y-79436280D01*
X79952716Y-79487958D01*
X79952714Y-79487960D01*
X79952713Y-79487960D01*
X79807960Y-79632713D01*
X79807960Y-79632714D01*
X79807958Y-79632716D01*
X79790766Y-79656379D01*
X79687627Y-79798336D01*
X79594685Y-79980742D01*
X79594684Y-79980745D01*
X79531425Y-80175440D01*
X79499400Y-80377635D01*
X79499400Y-80582364D01*
X79531425Y-80784559D01*
X79594684Y-80979254D01*
X79594685Y-80979257D01*
X79676184Y-81139205D01*
X79689080Y-81207874D01*
X79662804Y-81272615D01*
X79605698Y-81312872D01*
X79565699Y-81319500D01*
X66782320Y-81319500D01*
X66715281Y-81299815D01*
X66683052Y-81269809D01*
X66677548Y-81262457D01*
X66677546Y-81262454D01*
X66628543Y-81225770D01*
X66562335Y-81176206D01*
X66562328Y-81176202D01*
X66427482Y-81125908D01*
X66427483Y-81125908D01*
X66367883Y-81119501D01*
X66367881Y-81119500D01*
X66367873Y-81119500D01*
X66367864Y-81119500D01*
X64372129Y-81119500D01*
X64372123Y-81119501D01*
X64312516Y-81125908D01*
X64177671Y-81176202D01*
X64177664Y-81176206D01*
X64062455Y-81262452D01*
X64062452Y-81262455D01*
X63976206Y-81377664D01*
X63976202Y-81377671D01*
X63925908Y-81512517D01*
X63919501Y-81572116D01*
X63919500Y-81572135D01*
X60923451Y-81572135D01*
X60814937Y-81463621D01*
X60630228Y-81329421D01*
X60572123Y-81299815D01*
X60426803Y-81225770D01*
X60209660Y-81155215D01*
X59984162Y-81119500D01*
X59984157Y-81119500D01*
X59755843Y-81119500D01*
X59755838Y-81119500D01*
X59530339Y-81155215D01*
X59313196Y-81225770D01*
X59109771Y-81329421D01*
X58925061Y-81463622D01*
X58763622Y-81625061D01*
X58629421Y-81809771D01*
X58525770Y-82013196D01*
X58455215Y-82230339D01*
X58419500Y-82455837D01*
X56001490Y-82455837D01*
X55929524Y-82314595D01*
X55813828Y-82155354D01*
X55674646Y-82016172D01*
X55515405Y-81900476D01*
X55340029Y-81811117D01*
X55152826Y-81750290D01*
X54958422Y-81719500D01*
X54958417Y-81719500D01*
X54761583Y-81719500D01*
X54761578Y-81719500D01*
X54567173Y-81750290D01*
X54379970Y-81811117D01*
X54204594Y-81900476D01*
X54139433Y-81947819D01*
X54045354Y-82016172D01*
X54045352Y-82016174D01*
X54045351Y-82016174D01*
X53906174Y-82155351D01*
X53906174Y-82155352D01*
X53906172Y-82155354D01*
X53880789Y-82190291D01*
X53790476Y-82314594D01*
X53701117Y-82489970D01*
X53640290Y-82677173D01*
X53609500Y-82871577D01*
X52306897Y-82871577D01*
X54800833Y-80377641D01*
X57716896Y-77461577D01*
X76689500Y-77461577D01*
X76689500Y-77658422D01*
X76720290Y-77852826D01*
X76781117Y-78040029D01*
X76867895Y-78210339D01*
X76870476Y-78215405D01*
X76986172Y-78374646D01*
X77125354Y-78513828D01*
X77284595Y-78629524D01*
X77367455Y-78671743D01*
X77459970Y-78718882D01*
X77459972Y-78718882D01*
X77459975Y-78718884D01*
X77560317Y-78751487D01*
X77647173Y-78779709D01*
X77841578Y-78810500D01*
X77841583Y-78810500D01*
X84930664Y-78810500D01*
X84997703Y-78830185D01*
X85018345Y-78846819D01*
X87267183Y-81095657D01*
X87289986Y-81127042D01*
X87304341Y-81155215D01*
X87307627Y-81161663D01*
X87427958Y-81327284D01*
X87572716Y-81472042D01*
X87738337Y-81592373D01*
X87827801Y-81637957D01*
X87920742Y-81685314D01*
X87920745Y-81685315D01*
X88018092Y-81716944D01*
X88115442Y-81748575D01*
X88209089Y-81763407D01*
X88317636Y-81780600D01*
X88317641Y-81780600D01*
X88522364Y-81780600D01*
X88620385Y-81765074D01*
X88724558Y-81748575D01*
X88919257Y-81685314D01*
X89101663Y-81592373D01*
X89267284Y-81472042D01*
X89412042Y-81327284D01*
X89532373Y-81161663D01*
X89625314Y-80979257D01*
X89688575Y-80784558D01*
X89705074Y-80680385D01*
X89720600Y-80582364D01*
X89720600Y-80377635D01*
X89701969Y-80260008D01*
X89688575Y-80175442D01*
X89656944Y-80078092D01*
X89625315Y-79980745D01*
X89625314Y-79980742D01*
X89532372Y-79798336D01*
X89526736Y-79790579D01*
X89412042Y-79632716D01*
X89267284Y-79487958D01*
X89101663Y-79367627D01*
X89101662Y-79367626D01*
X89101660Y-79367625D01*
X89067042Y-79349986D01*
X89035657Y-79327183D01*
X86314648Y-76606174D01*
X86314646Y-76606172D01*
X86155405Y-76490476D01*
X85980030Y-76401117D01*
X85792826Y-76340290D01*
X85598422Y-76309500D01*
X85598417Y-76309500D01*
X77841583Y-76309500D01*
X77841578Y-76309500D01*
X77647173Y-76340290D01*
X77459970Y-76401117D01*
X77284594Y-76490476D01*
X77193741Y-76556485D01*
X77125354Y-76606172D01*
X77125352Y-76606174D01*
X77125351Y-76606174D01*
X76986174Y-76745351D01*
X76986174Y-76745352D01*
X76986172Y-76745354D01*
X76957991Y-76784142D01*
X76870476Y-76904594D01*
X76781117Y-77079970D01*
X76720290Y-77267173D01*
X76689500Y-77461577D01*
X57716896Y-77461577D01*
X57809443Y-77369030D01*
X60682318Y-74496155D01*
X60743641Y-74462670D01*
X60813333Y-74467654D01*
X60857680Y-74496155D01*
X62885355Y-76523830D01*
X62885360Y-76523834D01*
X63024250Y-76624742D01*
X63044595Y-76639524D01*
X63219974Y-76728884D01*
X63219976Y-76728884D01*
X63219979Y-76728886D01*
X63219977Y-76728886D01*
X63346743Y-76770073D01*
X63390041Y-76784142D01*
X63407174Y-76789709D01*
X63493578Y-76803393D01*
X63601578Y-76820500D01*
X63601583Y-76820500D01*
X63798422Y-76820500D01*
X63992827Y-76789709D01*
X64009963Y-76784141D01*
X64180026Y-76728884D01*
X64355405Y-76639524D01*
X64514646Y-76523829D01*
X64653829Y-76384646D01*
X64769524Y-76225405D01*
X64858884Y-76050026D01*
X64919709Y-75862827D01*
X64950500Y-75668422D01*
X64950500Y-75471584D01*
X64944900Y-75436228D01*
X64944900Y-75436227D01*
X64919709Y-75277177D01*
X64919709Y-75277174D01*
X64863881Y-75105354D01*
X64858884Y-75089974D01*
X64769524Y-74914595D01*
X64769522Y-74914592D01*
X64769521Y-74914590D01*
X64653834Y-74755360D01*
X64653830Y-74755355D01*
X63213259Y-73314784D01*
X61684311Y-71785837D01*
X63945250Y-71785837D01*
X63945250Y-72014162D01*
X63980965Y-72239660D01*
X64051520Y-72456803D01*
X64155171Y-72660228D01*
X64289371Y-72844937D01*
X64450813Y-73006379D01*
X64635522Y-73140579D01*
X64731634Y-73189550D01*
X64838946Y-73244229D01*
X64838948Y-73244229D01*
X64838951Y-73244231D01*
X64950501Y-73280476D01*
X65056089Y-73314784D01*
X65281588Y-73350500D01*
X65281593Y-73350500D01*
X65509912Y-73350500D01*
X65735410Y-73314784D01*
X65780910Y-73300000D01*
X65952549Y-73244231D01*
X66155978Y-73140579D01*
X66340687Y-73006379D01*
X66502129Y-72844937D01*
X66636329Y-72660228D01*
X66739981Y-72456799D01*
X66810534Y-72239660D01*
X66831852Y-72105063D01*
X66846250Y-72014162D01*
X66846250Y-71785837D01*
X66810534Y-71560339D01*
X66768955Y-71432373D01*
X66739981Y-71343201D01*
X66739979Y-71343198D01*
X66739979Y-71343196D01*
X66650348Y-71167286D01*
X66636329Y-71139772D01*
X66502129Y-70955063D01*
X66340687Y-70793621D01*
X66155978Y-70659421D01*
X66147916Y-70655313D01*
X65952553Y-70555770D01*
X65735410Y-70485215D01*
X65509912Y-70449500D01*
X65509907Y-70449500D01*
X65281593Y-70449500D01*
X65281588Y-70449500D01*
X65056089Y-70485215D01*
X64838946Y-70555770D01*
X64635521Y-70659421D01*
X64450811Y-70793622D01*
X64289372Y-70955061D01*
X64155171Y-71139771D01*
X64051520Y-71343196D01*
X63980965Y-71560339D01*
X63945250Y-71785837D01*
X61684311Y-71785837D01*
X61252108Y-71353634D01*
X61229305Y-71322249D01*
X61136329Y-71139772D01*
X61002129Y-70955063D01*
X60840687Y-70793621D01*
X60655978Y-70659421D01*
X60647916Y-70655313D01*
X60452553Y-70555770D01*
X60235410Y-70485215D01*
X60009912Y-70449500D01*
X60009907Y-70449500D01*
X59781593Y-70449500D01*
X59781588Y-70449500D01*
X59556089Y-70485215D01*
X59338946Y-70555770D01*
X59135521Y-70659421D01*
X58950811Y-70793622D01*
X58789372Y-70955061D01*
X58655171Y-71139771D01*
X58551520Y-71343196D01*
X58480965Y-71560339D01*
X58445250Y-71785837D01*
X58445250Y-72014162D01*
X58480965Y-72239660D01*
X58551520Y-72456803D01*
X58631735Y-72614231D01*
X58645250Y-72670526D01*
X58645250Y-72944914D01*
X58625565Y-73011953D01*
X58608931Y-73032595D01*
X47056174Y-84585351D01*
X47056174Y-84585352D01*
X47056172Y-84585354D01*
X47023946Y-84629709D01*
X46940476Y-84744594D01*
X46851117Y-84919969D01*
X46790290Y-85107173D01*
X46759500Y-85301577D01*
X46470500Y-85301577D01*
X46470500Y-67585837D01*
X58445250Y-67585837D01*
X58445250Y-67814162D01*
X58480965Y-68039660D01*
X58551520Y-68256803D01*
X58655171Y-68460228D01*
X58789371Y-68644937D01*
X58950813Y-68806379D01*
X59135522Y-68940579D01*
X59226273Y-68986819D01*
X59338946Y-69044229D01*
X59338948Y-69044229D01*
X59338951Y-69044231D01*
X59455342Y-69082049D01*
X59556089Y-69114784D01*
X59781588Y-69150500D01*
X59781593Y-69150500D01*
X60009912Y-69150500D01*
X60235410Y-69114784D01*
X60235718Y-69114684D01*
X60452549Y-69044231D01*
X60655978Y-68940579D01*
X60840687Y-68806379D01*
X61002129Y-68644937D01*
X61136329Y-68460228D01*
X61239981Y-68256799D01*
X61310534Y-68039660D01*
X61346250Y-67814162D01*
X61346250Y-67585837D01*
X63945250Y-67585837D01*
X63945250Y-67814162D01*
X63980965Y-68039660D01*
X64051520Y-68256803D01*
X64155171Y-68460228D01*
X64289371Y-68644937D01*
X64450813Y-68806379D01*
X64635522Y-68940579D01*
X64726273Y-68986819D01*
X64838946Y-69044229D01*
X64838948Y-69044229D01*
X64838951Y-69044231D01*
X64955342Y-69082049D01*
X65056089Y-69114784D01*
X65281588Y-69150500D01*
X65281593Y-69150500D01*
X65509912Y-69150500D01*
X65735410Y-69114784D01*
X65735718Y-69114684D01*
X65952549Y-69044231D01*
X66109982Y-68964014D01*
X66166277Y-68950500D01*
X72490664Y-68950500D01*
X72557703Y-68970185D01*
X72578345Y-68986819D01*
X78895354Y-75303828D01*
X79054595Y-75419524D01*
X79111301Y-75448417D01*
X79229969Y-75508882D01*
X79229971Y-75508882D01*
X79229974Y-75508884D01*
X79330318Y-75541487D01*
X79417173Y-75569709D01*
X79611578Y-75600500D01*
X79611583Y-75600500D01*
X79808416Y-75600500D01*
X95260664Y-75600500D01*
X95327703Y-75620185D01*
X95348345Y-75636819D01*
X96015355Y-76303829D01*
X96073203Y-76345858D01*
X96174595Y-76419524D01*
X96257455Y-76461743D01*
X96349970Y-76508882D01*
X96349972Y-76508882D01*
X96349975Y-76508884D01*
X96450317Y-76541487D01*
X96537173Y-76569709D01*
X96731578Y-76600500D01*
X96731583Y-76600500D01*
X96928422Y-76600500D01*
X97122827Y-76569709D01*
X97310026Y-76508884D01*
X97485406Y-76419524D01*
X97644646Y-76303829D01*
X97783829Y-76164646D01*
X97899524Y-76005406D01*
X97988884Y-75830026D01*
X98049709Y-75642827D01*
X98061290Y-75569709D01*
X98080500Y-75448422D01*
X98080500Y-75251578D01*
X98049709Y-75057173D01*
X97988882Y-74869970D01*
X97930485Y-74755360D01*
X97899524Y-74694595D01*
X97783829Y-74535355D01*
X96644646Y-73396172D01*
X96485405Y-73280476D01*
X96310030Y-73191117D01*
X96122826Y-73130290D01*
X95928422Y-73099500D01*
X95928417Y-73099500D01*
X80279336Y-73099500D01*
X80249895Y-73090855D01*
X80219909Y-73084332D01*
X80214893Y-73080577D01*
X80212297Y-73079815D01*
X80191655Y-73063181D01*
X77346109Y-70217635D01*
X79499400Y-70217635D01*
X79499400Y-70422364D01*
X79531425Y-70624559D01*
X79594684Y-70819254D01*
X79594685Y-70819257D01*
X79663882Y-70955061D01*
X79687627Y-71001663D01*
X79807958Y-71167284D01*
X79952716Y-71312042D01*
X80118337Y-71432373D01*
X80207801Y-71477957D01*
X80300742Y-71525314D01*
X80300745Y-71525315D01*
X80398092Y-71556944D01*
X80495442Y-71588575D01*
X80589089Y-71603407D01*
X80697636Y-71620600D01*
X80697641Y-71620600D01*
X80902364Y-71620600D01*
X81000385Y-71605074D01*
X81104558Y-71588575D01*
X81299257Y-71525314D01*
X81481663Y-71432373D01*
X81647284Y-71312042D01*
X81792042Y-71167284D01*
X81912373Y-71001663D01*
X82005314Y-70819257D01*
X82068575Y-70624558D01*
X82085074Y-70520385D01*
X82100600Y-70422364D01*
X82100600Y-70217635D01*
X87119400Y-70217635D01*
X87119400Y-70422364D01*
X87151425Y-70624559D01*
X87214684Y-70819254D01*
X87214685Y-70819257D01*
X87283882Y-70955061D01*
X87307627Y-71001663D01*
X87427958Y-71167284D01*
X87572716Y-71312042D01*
X87738337Y-71432373D01*
X87827801Y-71477957D01*
X87920742Y-71525314D01*
X87920745Y-71525315D01*
X88018092Y-71556944D01*
X88115442Y-71588575D01*
X88209089Y-71603407D01*
X88317636Y-71620600D01*
X88317641Y-71620600D01*
X88522364Y-71620600D01*
X88620385Y-71605074D01*
X88724558Y-71588575D01*
X88919257Y-71525314D01*
X89101663Y-71432373D01*
X89267284Y-71312042D01*
X89412042Y-71167284D01*
X89532373Y-71001663D01*
X89625314Y-70819257D01*
X89688575Y-70624558D01*
X89705074Y-70520385D01*
X89720600Y-70422364D01*
X89720600Y-70217680D01*
X100639900Y-70217680D01*
X100639900Y-70422319D01*
X100671913Y-70624442D01*
X100671913Y-70624445D01*
X100735148Y-70819062D01*
X100828055Y-71001401D01*
X100860453Y-71045992D01*
X100860453Y-71045993D01*
X101419396Y-70487050D01*
X101431116Y-70530787D01*
X101503011Y-70655313D01*
X101604687Y-70756989D01*
X101729213Y-70828884D01*
X101772949Y-70840603D01*
X101214005Y-71399545D01*
X101258598Y-71431944D01*
X101440937Y-71524851D01*
X101635555Y-71588086D01*
X101837681Y-71620100D01*
X102042319Y-71620100D01*
X102244442Y-71588086D01*
X102244445Y-71588086D01*
X102439062Y-71524851D01*
X102621401Y-71431944D01*
X102665992Y-71399546D01*
X102665992Y-71399545D01*
X102107050Y-70840603D01*
X102150787Y-70828884D01*
X102275313Y-70756989D01*
X102376989Y-70655313D01*
X102448884Y-70530787D01*
X102460603Y-70487050D01*
X103019545Y-71045992D01*
X103019546Y-71045992D01*
X103051944Y-71001401D01*
X103144851Y-70819062D01*
X103208086Y-70624445D01*
X103208086Y-70624442D01*
X103240100Y-70422319D01*
X103240100Y-70217680D01*
X103240093Y-70217635D01*
X108259400Y-70217635D01*
X108259400Y-70422364D01*
X108291425Y-70624559D01*
X108354684Y-70819254D01*
X108354685Y-70819257D01*
X108423882Y-70955061D01*
X108447627Y-71001663D01*
X108567958Y-71167284D01*
X108712716Y-71312042D01*
X108878337Y-71432373D01*
X108967801Y-71477957D01*
X109060742Y-71525314D01*
X109060745Y-71525315D01*
X109158092Y-71556944D01*
X109255442Y-71588575D01*
X109349089Y-71603407D01*
X109457636Y-71620600D01*
X109457641Y-71620600D01*
X109662364Y-71620600D01*
X109760385Y-71605074D01*
X109864558Y-71588575D01*
X110059257Y-71525314D01*
X110241663Y-71432373D01*
X110407284Y-71312042D01*
X110552042Y-71167284D01*
X110672373Y-71001663D01*
X110765314Y-70819257D01*
X110828575Y-70624558D01*
X110845074Y-70520385D01*
X110860600Y-70422364D01*
X110860600Y-70217635D01*
X121129400Y-70217635D01*
X121129400Y-70422364D01*
X121161425Y-70624559D01*
X121224684Y-70819254D01*
X121224685Y-70819257D01*
X121293882Y-70955061D01*
X121317627Y-71001663D01*
X121437958Y-71167284D01*
X121582716Y-71312042D01*
X121748337Y-71432373D01*
X121837801Y-71477957D01*
X121930742Y-71525314D01*
X121930745Y-71525315D01*
X122028092Y-71556944D01*
X122125442Y-71588575D01*
X122219089Y-71603407D01*
X122327636Y-71620600D01*
X122327641Y-71620600D01*
X122532364Y-71620600D01*
X122630385Y-71605074D01*
X122734558Y-71588575D01*
X122929257Y-71525314D01*
X123111663Y-71432373D01*
X123277284Y-71312042D01*
X123422042Y-71167284D01*
X123542373Y-71001663D01*
X123635314Y-70819257D01*
X123698575Y-70624558D01*
X123715074Y-70520385D01*
X123730600Y-70422364D01*
X123730600Y-70217635D01*
X128749400Y-70217635D01*
X128749400Y-70422364D01*
X128781425Y-70624559D01*
X128844684Y-70819254D01*
X128844685Y-70819257D01*
X128913882Y-70955061D01*
X128937627Y-71001663D01*
X129057958Y-71167284D01*
X129202716Y-71312042D01*
X129368337Y-71432373D01*
X129457801Y-71477957D01*
X129550742Y-71525314D01*
X129550745Y-71525315D01*
X129648092Y-71556944D01*
X129745442Y-71588575D01*
X129839089Y-71603407D01*
X129947636Y-71620600D01*
X129947641Y-71620600D01*
X130152364Y-71620600D01*
X130250385Y-71605074D01*
X130354558Y-71588575D01*
X130549257Y-71525314D01*
X130731663Y-71432373D01*
X130897284Y-71312042D01*
X131042042Y-71167284D01*
X131162373Y-71001663D01*
X131255314Y-70819257D01*
X131318575Y-70624558D01*
X131335074Y-70520385D01*
X131350600Y-70422364D01*
X131350600Y-70217635D01*
X131318593Y-70015557D01*
X131318575Y-70015442D01*
X131255314Y-69820743D01*
X131255314Y-69820742D01*
X131162508Y-69638602D01*
X131162373Y-69638337D01*
X131042042Y-69472716D01*
X130897284Y-69327958D01*
X130731663Y-69207627D01*
X130549257Y-69114685D01*
X130549254Y-69114684D01*
X130354559Y-69051425D01*
X130152364Y-69019400D01*
X130152359Y-69019400D01*
X129947641Y-69019400D01*
X129947636Y-69019400D01*
X129745440Y-69051425D01*
X129550745Y-69114684D01*
X129550742Y-69114685D01*
X129368336Y-69207627D01*
X129273843Y-69276280D01*
X129202716Y-69327958D01*
X129202714Y-69327960D01*
X129202713Y-69327960D01*
X129057960Y-69472713D01*
X129057960Y-69472714D01*
X129057958Y-69472716D01*
X129006280Y-69543843D01*
X128937627Y-69638336D01*
X128844685Y-69820742D01*
X128844684Y-69820745D01*
X128781425Y-70015440D01*
X128749400Y-70217635D01*
X123730600Y-70217635D01*
X123698593Y-70015557D01*
X123698575Y-70015442D01*
X123635314Y-69820743D01*
X123635314Y-69820742D01*
X123542508Y-69638602D01*
X123542373Y-69638337D01*
X123422042Y-69472716D01*
X123277284Y-69327958D01*
X123111663Y-69207627D01*
X122929257Y-69114685D01*
X122929254Y-69114684D01*
X122734559Y-69051425D01*
X122532364Y-69019400D01*
X122532359Y-69019400D01*
X122327641Y-69019400D01*
X122327636Y-69019400D01*
X122125440Y-69051425D01*
X121930745Y-69114684D01*
X121930742Y-69114685D01*
X121748336Y-69207627D01*
X121653843Y-69276280D01*
X121582716Y-69327958D01*
X121582714Y-69327960D01*
X121582713Y-69327960D01*
X121437960Y-69472713D01*
X121437960Y-69472714D01*
X121437958Y-69472716D01*
X121386280Y-69543843D01*
X121317627Y-69638336D01*
X121224685Y-69820742D01*
X121224684Y-69820745D01*
X121161425Y-70015440D01*
X121129400Y-70217635D01*
X110860600Y-70217635D01*
X110828593Y-70015557D01*
X110828575Y-70015442D01*
X110765314Y-69820743D01*
X110765314Y-69820742D01*
X110672508Y-69638602D01*
X110672373Y-69638337D01*
X110552042Y-69472716D01*
X110407284Y-69327958D01*
X110241663Y-69207627D01*
X110059257Y-69114685D01*
X110059254Y-69114684D01*
X109864559Y-69051425D01*
X109662364Y-69019400D01*
X109662359Y-69019400D01*
X109457641Y-69019400D01*
X109457636Y-69019400D01*
X109255440Y-69051425D01*
X109060745Y-69114684D01*
X109060742Y-69114685D01*
X108878336Y-69207627D01*
X108783843Y-69276280D01*
X108712716Y-69327958D01*
X108712714Y-69327960D01*
X108712713Y-69327960D01*
X108567960Y-69472713D01*
X108567960Y-69472714D01*
X108567958Y-69472716D01*
X108516280Y-69543843D01*
X108447627Y-69638336D01*
X108354685Y-69820742D01*
X108354684Y-69820745D01*
X108291425Y-70015440D01*
X108259400Y-70217635D01*
X103240093Y-70217635D01*
X103208086Y-70015557D01*
X103208086Y-70015554D01*
X103144851Y-69820937D01*
X103051944Y-69638598D01*
X103019545Y-69594006D01*
X103019545Y-69594005D01*
X102460602Y-70152948D01*
X102448884Y-70109213D01*
X102376989Y-69984687D01*
X102275313Y-69883011D01*
X102150787Y-69811116D01*
X102107049Y-69799396D01*
X102665993Y-69240453D01*
X102621401Y-69208055D01*
X102439062Y-69115148D01*
X102244444Y-69051913D01*
X102042319Y-69019900D01*
X101837681Y-69019900D01*
X101635557Y-69051913D01*
X101635554Y-69051913D01*
X101440937Y-69115148D01*
X101258602Y-69208053D01*
X101214006Y-69240453D01*
X101772950Y-69799396D01*
X101729213Y-69811116D01*
X101604687Y-69883011D01*
X101503011Y-69984687D01*
X101431116Y-70109213D01*
X101419396Y-70152949D01*
X100860453Y-69594006D01*
X100828053Y-69638602D01*
X100735148Y-69820937D01*
X100671913Y-70015554D01*
X100671913Y-70015557D01*
X100639900Y-70217680D01*
X89720600Y-70217680D01*
X89720600Y-70217635D01*
X89688593Y-70015557D01*
X89688575Y-70015442D01*
X89625314Y-69820743D01*
X89625314Y-69820742D01*
X89532508Y-69638602D01*
X89532373Y-69638337D01*
X89412042Y-69472716D01*
X89267284Y-69327958D01*
X89101663Y-69207627D01*
X88919257Y-69114685D01*
X88919254Y-69114684D01*
X88724559Y-69051425D01*
X88522364Y-69019400D01*
X88522359Y-69019400D01*
X88317641Y-69019400D01*
X88317636Y-69019400D01*
X88115440Y-69051425D01*
X87920745Y-69114684D01*
X87920742Y-69114685D01*
X87738336Y-69207627D01*
X87643843Y-69276280D01*
X87572716Y-69327958D01*
X87572714Y-69327960D01*
X87572713Y-69327960D01*
X87427960Y-69472713D01*
X87427960Y-69472714D01*
X87427958Y-69472716D01*
X87376280Y-69543843D01*
X87307627Y-69638336D01*
X87214685Y-69820742D01*
X87214684Y-69820745D01*
X87151425Y-70015440D01*
X87119400Y-70217635D01*
X82100600Y-70217635D01*
X82068593Y-70015557D01*
X82068575Y-70015442D01*
X82005314Y-69820743D01*
X82005314Y-69820742D01*
X81912508Y-69638602D01*
X81912373Y-69638337D01*
X81792042Y-69472716D01*
X81647284Y-69327958D01*
X81481663Y-69207627D01*
X81299257Y-69114685D01*
X81299254Y-69114684D01*
X81104559Y-69051425D01*
X80902364Y-69019400D01*
X80902359Y-69019400D01*
X80697641Y-69019400D01*
X80697636Y-69019400D01*
X80495440Y-69051425D01*
X80300745Y-69114684D01*
X80300742Y-69114685D01*
X80118336Y-69207627D01*
X80023843Y-69276280D01*
X79952716Y-69327958D01*
X79952714Y-69327960D01*
X79952713Y-69327960D01*
X79807960Y-69472713D01*
X79807960Y-69472714D01*
X79807958Y-69472716D01*
X79756280Y-69543843D01*
X79687627Y-69638336D01*
X79594685Y-69820742D01*
X79594684Y-69820745D01*
X79531425Y-70015440D01*
X79499400Y-70217635D01*
X77346109Y-70217635D01*
X73874648Y-66746174D01*
X73874646Y-66746172D01*
X73715405Y-66630476D01*
X73540030Y-66541117D01*
X73352826Y-66480290D01*
X73158422Y-66449500D01*
X73158417Y-66449500D01*
X66166277Y-66449500D01*
X66109982Y-66435985D01*
X65952553Y-66355770D01*
X65735410Y-66285215D01*
X65509912Y-66249500D01*
X65509907Y-66249500D01*
X65281593Y-66249500D01*
X65281588Y-66249500D01*
X65056089Y-66285215D01*
X64838946Y-66355770D01*
X64635521Y-66459421D01*
X64450811Y-66593622D01*
X64289372Y-66755061D01*
X64155171Y-66939771D01*
X64051520Y-67143196D01*
X63980965Y-67360339D01*
X63945250Y-67585837D01*
X61346250Y-67585837D01*
X61310534Y-67360339D01*
X61239979Y-67143196D01*
X61136328Y-66939771D01*
X61002129Y-66755063D01*
X60840687Y-66593621D01*
X60655978Y-66459421D01*
X60636507Y-66449500D01*
X60452553Y-66355770D01*
X60235410Y-66285215D01*
X60009912Y-66249500D01*
X60009907Y-66249500D01*
X59781593Y-66249500D01*
X59781588Y-66249500D01*
X59556089Y-66285215D01*
X59338946Y-66355770D01*
X59135521Y-66459421D01*
X58950811Y-66593622D01*
X58789372Y-66755061D01*
X58655171Y-66939771D01*
X58551520Y-67143196D01*
X58480965Y-67360339D01*
X58445250Y-67585837D01*
X46470500Y-67585837D01*
X46470500Y-63385837D01*
X58445250Y-63385837D01*
X58445250Y-63614162D01*
X58480965Y-63839660D01*
X58551520Y-64056803D01*
X58655171Y-64260228D01*
X58789371Y-64444937D01*
X58950813Y-64606379D01*
X59135522Y-64740579D01*
X59231634Y-64789550D01*
X59338946Y-64844229D01*
X59338948Y-64844229D01*
X59338951Y-64844231D01*
X59455342Y-64882049D01*
X59556089Y-64914784D01*
X59781588Y-64950500D01*
X59781593Y-64950500D01*
X60009912Y-64950500D01*
X60235410Y-64914784D01*
X60452549Y-64844231D01*
X60655978Y-64740579D01*
X60840687Y-64606379D01*
X61002129Y-64444937D01*
X61136329Y-64260228D01*
X61239981Y-64056799D01*
X61310534Y-63839660D01*
X61346250Y-63614162D01*
X61346250Y-63385837D01*
X61310534Y-63160339D01*
X61277799Y-63059592D01*
X61239981Y-62943201D01*
X61239979Y-62943198D01*
X61239979Y-62943196D01*
X61155952Y-62778284D01*
X61136329Y-62739772D01*
X61002129Y-62555063D01*
X60949201Y-62502135D01*
X63945250Y-62502135D01*
X63945250Y-64497870D01*
X63945251Y-64497876D01*
X63951658Y-64557483D01*
X64001952Y-64692328D01*
X64001956Y-64692335D01*
X64088202Y-64807544D01*
X64088205Y-64807547D01*
X64203414Y-64893793D01*
X64203421Y-64893797D01*
X64338267Y-64944091D01*
X64338266Y-64944091D01*
X64345194Y-64944835D01*
X64397877Y-64950500D01*
X66393622Y-64950499D01*
X66453233Y-64944091D01*
X66588081Y-64893796D01*
X66703296Y-64807546D01*
X66789546Y-64692331D01*
X66839841Y-64557483D01*
X66846250Y-64497873D01*
X66846249Y-62502128D01*
X66839841Y-62442517D01*
X66821604Y-62393622D01*
X66789547Y-62307671D01*
X66789543Y-62307664D01*
X66703297Y-62192455D01*
X66703294Y-62192452D01*
X66588085Y-62106206D01*
X66588078Y-62106202D01*
X66453232Y-62055908D01*
X66453233Y-62055908D01*
X66393633Y-62049501D01*
X66393631Y-62049500D01*
X66393623Y-62049500D01*
X66393614Y-62049500D01*
X64397879Y-62049500D01*
X64397873Y-62049501D01*
X64338266Y-62055908D01*
X64203421Y-62106202D01*
X64203414Y-62106206D01*
X64088205Y-62192452D01*
X64088202Y-62192455D01*
X64001956Y-62307664D01*
X64001952Y-62307671D01*
X63951658Y-62442517D01*
X63945251Y-62502116D01*
X63945251Y-62502123D01*
X63945250Y-62502135D01*
X60949201Y-62502135D01*
X60840687Y-62393621D01*
X60655978Y-62259421D01*
X60452553Y-62155770D01*
X60235410Y-62085215D01*
X60009912Y-62049500D01*
X60009907Y-62049500D01*
X59781593Y-62049500D01*
X59781588Y-62049500D01*
X59556089Y-62085215D01*
X59338946Y-62155770D01*
X59135521Y-62259421D01*
X58950811Y-62393622D01*
X58789372Y-62555061D01*
X58655171Y-62739771D01*
X58551520Y-62943196D01*
X58480965Y-63160339D01*
X58445250Y-63385837D01*
X46470500Y-63385837D01*
X46470500Y-61041995D01*
X75079500Y-61041995D01*
X75079500Y-61278004D01*
X75079501Y-61278020D01*
X75110306Y-61512010D01*
X75171394Y-61739993D01*
X75261714Y-61958045D01*
X75261719Y-61958056D01*
X75332677Y-62080957D01*
X75379727Y-62162450D01*
X75379729Y-62162453D01*
X75379730Y-62162454D01*
X75523406Y-62349697D01*
X75523412Y-62349704D01*
X75690295Y-62516587D01*
X75690302Y-62516593D01*
X75762106Y-62571690D01*
X75877550Y-62660273D01*
X75950397Y-62702331D01*
X76081943Y-62778280D01*
X76081948Y-62778282D01*
X76081951Y-62778284D01*
X76300007Y-62868606D01*
X76527986Y-62929693D01*
X76761989Y-62960500D01*
X76761996Y-62960500D01*
X76998004Y-62960500D01*
X76998011Y-62960500D01*
X77232014Y-62929693D01*
X77459993Y-62868606D01*
X77678049Y-62778284D01*
X77882450Y-62660273D01*
X78069699Y-62516592D01*
X78236592Y-62349699D01*
X78380273Y-62162450D01*
X78498284Y-61958049D01*
X78588606Y-61739993D01*
X78649693Y-61512014D01*
X78680500Y-61278011D01*
X78680500Y-61041989D01*
X78649693Y-60807986D01*
X78588606Y-60580007D01*
X78498284Y-60361951D01*
X78498282Y-60361948D01*
X78498280Y-60361943D01*
X78456118Y-60288918D01*
X78380273Y-60157550D01*
X78236592Y-59970301D01*
X78236587Y-59970295D01*
X78078427Y-59812135D01*
X90319500Y-59812135D01*
X90319500Y-62507870D01*
X90319501Y-62507876D01*
X90325908Y-62567483D01*
X90376202Y-62702328D01*
X90376206Y-62702335D01*
X90462452Y-62817544D01*
X90462455Y-62817547D01*
X90577664Y-62903793D01*
X90577671Y-62903797D01*
X90712517Y-62954091D01*
X90712516Y-62954091D01*
X90719444Y-62954835D01*
X90772127Y-62960500D01*
X93467872Y-62960499D01*
X93527483Y-62954091D01*
X93662331Y-62903796D01*
X93777546Y-62817546D01*
X93863796Y-62702331D01*
X93914091Y-62567483D01*
X93920500Y-62507873D01*
X93920499Y-60909999D01*
X96237380Y-60909999D01*
X96237381Y-60910000D01*
X97419999Y-60910000D01*
X97394979Y-60970402D01*
X97370000Y-61095981D01*
X97370000Y-61224019D01*
X97394979Y-61349598D01*
X97419999Y-61410000D01*
X96237381Y-61410000D01*
X96250799Y-61511914D01*
X96311870Y-61739837D01*
X96402160Y-61957819D01*
X96402165Y-61957828D01*
X96520144Y-62162171D01*
X96520150Y-62162180D01*
X96663783Y-62349367D01*
X96663789Y-62349374D01*
X96830625Y-62516210D01*
X96830632Y-62516216D01*
X97017819Y-62659849D01*
X97017828Y-62659855D01*
X97222171Y-62777834D01*
X97222180Y-62777839D01*
X97440163Y-62868129D01*
X97440161Y-62868129D01*
X97668086Y-62929201D01*
X97769999Y-62942617D01*
X97770000Y-62942617D01*
X97770000Y-61760001D01*
X97830402Y-61785021D01*
X97955981Y-61810000D01*
X98084019Y-61810000D01*
X98209598Y-61785021D01*
X98270000Y-61760001D01*
X98270000Y-62942617D01*
X98371913Y-62929201D01*
X98599837Y-62868129D01*
X98817819Y-62777839D01*
X98817828Y-62777834D01*
X99022171Y-62659855D01*
X99022180Y-62659849D01*
X99209367Y-62516216D01*
X99209374Y-62516210D01*
X99376210Y-62349374D01*
X99376216Y-62349367D01*
X99519849Y-62162180D01*
X99519855Y-62162171D01*
X99637834Y-61957828D01*
X99637839Y-61957819D01*
X99728129Y-61739837D01*
X99789200Y-61511914D01*
X99802619Y-61410000D01*
X98620001Y-61410000D01*
X98645021Y-61349598D01*
X98670000Y-61224019D01*
X98670000Y-61095981D01*
X98645021Y-60970402D01*
X98620001Y-60910000D01*
X99802619Y-60910000D01*
X99802619Y-60909999D01*
X99789200Y-60808085D01*
X99728129Y-60580162D01*
X99637839Y-60362180D01*
X99637834Y-60362171D01*
X99519855Y-60157828D01*
X99519849Y-60157819D01*
X99376216Y-59970632D01*
X99376210Y-59970625D01*
X99217720Y-59812135D01*
X111459500Y-59812135D01*
X111459500Y-62507870D01*
X111459501Y-62507876D01*
X111465908Y-62567483D01*
X111516202Y-62702328D01*
X111516206Y-62702335D01*
X111602452Y-62817544D01*
X111602455Y-62817547D01*
X111717664Y-62903793D01*
X111717671Y-62903797D01*
X111852517Y-62954091D01*
X111852516Y-62954091D01*
X111859444Y-62954835D01*
X111912127Y-62960500D01*
X114607872Y-62960499D01*
X114667483Y-62954091D01*
X114802331Y-62903796D01*
X114917546Y-62817546D01*
X115003796Y-62702331D01*
X115054091Y-62567483D01*
X115060500Y-62507873D01*
X115060499Y-61041995D01*
X116819500Y-61041995D01*
X116819500Y-61278004D01*
X116819501Y-61278020D01*
X116850306Y-61512010D01*
X116911394Y-61739993D01*
X117001714Y-61958045D01*
X117001719Y-61958056D01*
X117072677Y-62080957D01*
X117119727Y-62162450D01*
X117119729Y-62162453D01*
X117119730Y-62162454D01*
X117263406Y-62349697D01*
X117263412Y-62349704D01*
X117430295Y-62516587D01*
X117430302Y-62516593D01*
X117502106Y-62571690D01*
X117617550Y-62660273D01*
X117690397Y-62702331D01*
X117821943Y-62778280D01*
X117821948Y-62778282D01*
X117821951Y-62778284D01*
X118040007Y-62868606D01*
X118267986Y-62929693D01*
X118501989Y-62960500D01*
X118501996Y-62960500D01*
X118738004Y-62960500D01*
X118738011Y-62960500D01*
X118972014Y-62929693D01*
X119199993Y-62868606D01*
X119418049Y-62778284D01*
X119622450Y-62660273D01*
X119809699Y-62516592D01*
X119976592Y-62349699D01*
X120120273Y-62162450D01*
X120238284Y-61958049D01*
X120328606Y-61739993D01*
X120389693Y-61512014D01*
X120420500Y-61278011D01*
X120420500Y-61041989D01*
X120389693Y-60807986D01*
X120328606Y-60580007D01*
X120238284Y-60361951D01*
X120238282Y-60361948D01*
X120238280Y-60361943D01*
X120196118Y-60288918D01*
X120120273Y-60157550D01*
X119976592Y-59970301D01*
X119976587Y-59970295D01*
X119818427Y-59812135D01*
X132059500Y-59812135D01*
X132059500Y-62507870D01*
X132059501Y-62507876D01*
X132065908Y-62567483D01*
X132116202Y-62702328D01*
X132116206Y-62702335D01*
X132202452Y-62817544D01*
X132202455Y-62817547D01*
X132317664Y-62903793D01*
X132317671Y-62903797D01*
X132452517Y-62954091D01*
X132452516Y-62954091D01*
X132459444Y-62954835D01*
X132512127Y-62960500D01*
X135207872Y-62960499D01*
X135267483Y-62954091D01*
X135402331Y-62903796D01*
X135517546Y-62817546D01*
X135603796Y-62702331D01*
X135654091Y-62567483D01*
X135660500Y-62507873D01*
X135660499Y-59812128D01*
X135654091Y-59752517D01*
X135619640Y-59660150D01*
X135603797Y-59617671D01*
X135603793Y-59617664D01*
X135517547Y-59502455D01*
X135517544Y-59502452D01*
X135402335Y-59416206D01*
X135402328Y-59416202D01*
X135267482Y-59365908D01*
X135267483Y-59365908D01*
X135207883Y-59359501D01*
X135207881Y-59359500D01*
X135207873Y-59359500D01*
X135207864Y-59359500D01*
X132512129Y-59359500D01*
X132512123Y-59359501D01*
X132452516Y-59365908D01*
X132317671Y-59416202D01*
X132317664Y-59416206D01*
X132202455Y-59502452D01*
X132202452Y-59502455D01*
X132116206Y-59617664D01*
X132116202Y-59617671D01*
X132065908Y-59752517D01*
X132060437Y-59803408D01*
X132059501Y-59812123D01*
X132059500Y-59812135D01*
X119818427Y-59812135D01*
X119809704Y-59803412D01*
X119809697Y-59803406D01*
X119622454Y-59659730D01*
X119622453Y-59659729D01*
X119622450Y-59659727D01*
X119540957Y-59612677D01*
X119418056Y-59541719D01*
X119418045Y-59541714D01*
X119199993Y-59451394D01*
X119068670Y-59416206D01*
X118972014Y-59390307D01*
X118972013Y-59390306D01*
X118972010Y-59390306D01*
X118738020Y-59359501D01*
X118738017Y-59359500D01*
X118738011Y-59359500D01*
X118501989Y-59359500D01*
X118501983Y-59359500D01*
X118501979Y-59359501D01*
X118267989Y-59390306D01*
X118040006Y-59451394D01*
X117821954Y-59541714D01*
X117821943Y-59541719D01*
X117617545Y-59659730D01*
X117430302Y-59803406D01*
X117430295Y-59803412D01*
X117263412Y-59970295D01*
X117263406Y-59970302D01*
X117119730Y-60157545D01*
X117119727Y-60157549D01*
X117119727Y-60157550D01*
X117112014Y-60170909D01*
X117001719Y-60361943D01*
X117001714Y-60361954D01*
X116911394Y-60580006D01*
X116850306Y-60807989D01*
X116819501Y-61041979D01*
X116819500Y-61041995D01*
X115060499Y-61041995D01*
X115060499Y-59812128D01*
X115054091Y-59752517D01*
X115019640Y-59660150D01*
X115003797Y-59617671D01*
X115003793Y-59617664D01*
X114917547Y-59502455D01*
X114917544Y-59502452D01*
X114802335Y-59416206D01*
X114802328Y-59416202D01*
X114667482Y-59365908D01*
X114667483Y-59365908D01*
X114607883Y-59359501D01*
X114607881Y-59359500D01*
X114607873Y-59359500D01*
X114607864Y-59359500D01*
X111912129Y-59359500D01*
X111912123Y-59359501D01*
X111852516Y-59365908D01*
X111717671Y-59416202D01*
X111717664Y-59416206D01*
X111602455Y-59502452D01*
X111602452Y-59502455D01*
X111516206Y-59617664D01*
X111516202Y-59617671D01*
X111465908Y-59752517D01*
X111460437Y-59803408D01*
X111459501Y-59812123D01*
X111459500Y-59812135D01*
X99217720Y-59812135D01*
X99209374Y-59803789D01*
X99209367Y-59803783D01*
X99022180Y-59660150D01*
X99022171Y-59660144D01*
X98817828Y-59542165D01*
X98817819Y-59542160D01*
X98599836Y-59451870D01*
X98599838Y-59451870D01*
X98371914Y-59390799D01*
X98270000Y-59377380D01*
X98270000Y-60559998D01*
X98209598Y-60534979D01*
X98084019Y-60510000D01*
X97955981Y-60510000D01*
X97830402Y-60534979D01*
X97770000Y-60559998D01*
X97770000Y-59377380D01*
X97769999Y-59377380D01*
X97668085Y-59390799D01*
X97440162Y-59451870D01*
X97222180Y-59542160D01*
X97222171Y-59542165D01*
X97017828Y-59660144D01*
X97017819Y-59660150D01*
X96830632Y-59803783D01*
X96830625Y-59803789D01*
X96663789Y-59970625D01*
X96663783Y-59970632D01*
X96520150Y-60157819D01*
X96520144Y-60157828D01*
X96402165Y-60362171D01*
X96402160Y-60362180D01*
X96311870Y-60580162D01*
X96250799Y-60808085D01*
X96237380Y-60909999D01*
X93920499Y-60909999D01*
X93920499Y-59812128D01*
X93914091Y-59752517D01*
X93879640Y-59660150D01*
X93863797Y-59617671D01*
X93863793Y-59617664D01*
X93777547Y-59502455D01*
X93777544Y-59502452D01*
X93662335Y-59416206D01*
X93662328Y-59416202D01*
X93527482Y-59365908D01*
X93527483Y-59365908D01*
X93467883Y-59359501D01*
X93467881Y-59359500D01*
X93467873Y-59359500D01*
X93467864Y-59359500D01*
X90772129Y-59359500D01*
X90772123Y-59359501D01*
X90712516Y-59365908D01*
X90577671Y-59416202D01*
X90577664Y-59416206D01*
X90462455Y-59502452D01*
X90462452Y-59502455D01*
X90376206Y-59617664D01*
X90376202Y-59617671D01*
X90325908Y-59752517D01*
X90320437Y-59803408D01*
X90319501Y-59812123D01*
X90319500Y-59812135D01*
X78078427Y-59812135D01*
X78069704Y-59803412D01*
X78069697Y-59803406D01*
X77882454Y-59659730D01*
X77882453Y-59659729D01*
X77882450Y-59659727D01*
X77800957Y-59612677D01*
X77678056Y-59541719D01*
X77678045Y-59541714D01*
X77459993Y-59451394D01*
X77328670Y-59416206D01*
X77232014Y-59390307D01*
X77232013Y-59390306D01*
X77232010Y-59390306D01*
X76998020Y-59359501D01*
X76998017Y-59359500D01*
X76998011Y-59359500D01*
X76761989Y-59359500D01*
X76761983Y-59359500D01*
X76761979Y-59359501D01*
X76527989Y-59390306D01*
X76300006Y-59451394D01*
X76081954Y-59541714D01*
X76081943Y-59541719D01*
X75877545Y-59659730D01*
X75690302Y-59803406D01*
X75690295Y-59803412D01*
X75523412Y-59970295D01*
X75523406Y-59970302D01*
X75379730Y-60157545D01*
X75379727Y-60157549D01*
X75379727Y-60157550D01*
X75372014Y-60170909D01*
X75261719Y-60361943D01*
X75261714Y-60361954D01*
X75171394Y-60580006D01*
X75110306Y-60807989D01*
X75079501Y-61041979D01*
X75079500Y-61041995D01*
X46470500Y-61041995D01*
X46470500Y-53878711D01*
X56619500Y-53878711D01*
X56619500Y-54121288D01*
X56651161Y-54361785D01*
X56713947Y-54596104D01*
X56798282Y-54799706D01*
X56806776Y-54820212D01*
X56928064Y-55030289D01*
X56928066Y-55030292D01*
X56928067Y-55030293D01*
X57075733Y-55222736D01*
X57075739Y-55222743D01*
X57247256Y-55394260D01*
X57247263Y-55394266D01*
X57343634Y-55468214D01*
X57439711Y-55541936D01*
X57649788Y-55663224D01*
X57873900Y-55756054D01*
X58108211Y-55818838D01*
X58288586Y-55842584D01*
X58348711Y-55850500D01*
X58348712Y-55850500D01*
X58591289Y-55850500D01*
X58639388Y-55844167D01*
X58831789Y-55818838D01*
X59066100Y-55756054D01*
X59180396Y-55708711D01*
X139229500Y-55708711D01*
X139229500Y-55951288D01*
X139261161Y-56191785D01*
X139323947Y-56426104D01*
X139416773Y-56650205D01*
X139416776Y-56650212D01*
X139538064Y-56860289D01*
X139538066Y-56860292D01*
X139538067Y-56860293D01*
X139685733Y-57052736D01*
X139685739Y-57052743D01*
X139857256Y-57224260D01*
X139857262Y-57224265D01*
X140049711Y-57371936D01*
X140259788Y-57493224D01*
X140483900Y-57586054D01*
X140718211Y-57648838D01*
X140898586Y-57672584D01*
X140958711Y-57680500D01*
X140958712Y-57680500D01*
X141201289Y-57680500D01*
X141249388Y-57674167D01*
X141441789Y-57648838D01*
X141676100Y-57586054D01*
X141900212Y-57493224D01*
X142110289Y-57371936D01*
X142302738Y-57224265D01*
X142474265Y-57052738D01*
X142621936Y-56860289D01*
X142743224Y-56650212D01*
X142836054Y-56426100D01*
X142898838Y-56191789D01*
X142930500Y-55951288D01*
X142930500Y-55708712D01*
X142924511Y-55663224D01*
X142898838Y-55468214D01*
X142898838Y-55468211D01*
X142836054Y-55233900D01*
X142743224Y-55009788D01*
X142621936Y-54799711D01*
X142474265Y-54607262D01*
X142474260Y-54607256D01*
X142302743Y-54435739D01*
X142302736Y-54435733D01*
X142110293Y-54288067D01*
X142110292Y-54288066D01*
X142110289Y-54288064D01*
X141900212Y-54166776D01*
X141900205Y-54166773D01*
X141676104Y-54073947D01*
X141441785Y-54011161D01*
X141201289Y-53979500D01*
X141201288Y-53979500D01*
X140958712Y-53979500D01*
X140958711Y-53979500D01*
X140718214Y-54011161D01*
X140483895Y-54073947D01*
X140259794Y-54166773D01*
X140259785Y-54166777D01*
X140049706Y-54288067D01*
X139857263Y-54435733D01*
X139857256Y-54435739D01*
X139685739Y-54607256D01*
X139685733Y-54607263D01*
X139538067Y-54799706D01*
X139416777Y-55009785D01*
X139416773Y-55009794D01*
X139323947Y-55233895D01*
X139261161Y-55468214D01*
X139229500Y-55708711D01*
X59180396Y-55708711D01*
X59290212Y-55663224D01*
X59500289Y-55541936D01*
X59692738Y-55394265D01*
X59864265Y-55222738D01*
X60011936Y-55030289D01*
X60133224Y-54820212D01*
X60226054Y-54596100D01*
X60288838Y-54361789D01*
X60320500Y-54121288D01*
X60320500Y-53878712D01*
X60288838Y-53638211D01*
X60226054Y-53403900D01*
X60133224Y-53179788D01*
X60011936Y-52969711D01*
X59864265Y-52777262D01*
X59864260Y-52777256D01*
X59692743Y-52605739D01*
X59692736Y-52605733D01*
X59500293Y-52458067D01*
X59500292Y-52458066D01*
X59500289Y-52458064D01*
X59290212Y-52336776D01*
X59290205Y-52336773D01*
X59066104Y-52243947D01*
X58831785Y-52181161D01*
X58591289Y-52149500D01*
X58591288Y-52149500D01*
X58348712Y-52149500D01*
X58348711Y-52149500D01*
X58108214Y-52181161D01*
X57873895Y-52243947D01*
X57649794Y-52336773D01*
X57649785Y-52336777D01*
X57439706Y-52458067D01*
X57247263Y-52605733D01*
X57247256Y-52605739D01*
X57075739Y-52777256D01*
X57075733Y-52777263D01*
X56928067Y-52969706D01*
X56806777Y-53179785D01*
X56806773Y-53179794D01*
X56713947Y-53403895D01*
X56651161Y-53638214D01*
X56619500Y-53878711D01*
X46470500Y-53878711D01*
X46470500Y-49784500D01*
X46490185Y-49717461D01*
X46542989Y-49671706D01*
X46594500Y-49660500D01*
X151115500Y-49660500D01*
X151182539Y-49680185D01*
G37*
%TD.AperFunction*%
%TD*%
M02*
